/* XPM */
static char *wall21711326195[] = {
/* columns rows colors chars-per-pixel */
"64 64 216 2 ",
"   c #2C1A0C",
".  c #2A1F16",
"X  c #251D19",
"o  c #2C231C",
"O  c #372517",
"+  c #3C2B1E",
"@  c #2E2622",
"#  c #2E2824",
"$  c #312722",
"%  c #342A24",
"&  c #3A2D24",
"*  c #352D29",
"=  c #3B2F29",
"-  c #3A302A",
";  c #3C332B",
":  c #3C3633",
">  c #422B19",
",  c #48321F",
"<  c #59371A",
"1  c #643A1B",
"2  c #423127",
"3  c #4A3524",
"4  c #43342B",
"5  c #493629",
"6  c #4B392C",
"7  c #5A3B22",
"8  c #553C2A",
"9  c #543D2B",
"0  c #423630",
"q  c #443A33",
"w  c #4E3D32",
"e  c #543F32",
"r  c #5B4028",
"t  c #5A412E",
"y  c #4F4236",
"u  c #554236",
"i  c #5D4533",
"p  c #5C4935",
"a  c #53453C",
"s  c #5B4539",
"d  c #5D4A3C",
"f  c #63442B",
"g  c #6A4829",
"h  c #604532",
"j  c #644A35",
"k  c #6D4C33",
"l  c #644D3B",
"z  c #6A4E3B",
"x  c #6C523D",
"c  c #765436",
"v  c #72543D",
"b  c #7A563C",
"n  c #75583C",
"m  c #7C593C",
"M  c #564B44",
"N  c #5C4D42",
"B  c #5F5146",
"V  c #5E514A",
"C  c #614F41",
"Z  c #655345",
"A  c #6D5443",
"S  c #63564B",
"D  c #685648",
"F  c #6C5A4D",
"G  c #725542",
"H  c #755A45",
"J  c #7B5B44",
"K  c #745C4B",
"L  c #7B5E4A",
"P  c #6C5D51",
"I  c #755E52",
"U  c #6E604C",
"Y  c #7C6149",
"T  c #7B614D",
"R  c #6E6157",
"E  c #746354",
"W  c #7B6453",
"Q  c #7D6856",
"!  c #76675A",
"~  c #766A5C",
"^  c #7D6A5C",
"/  c #7C6D61",
"(  c #7F7063",
")  c #825C38",
"_  c #8D643D",
"`  c #825D43",
"'  c #815F4A",
"]  c #846245",
"[  c #8B6645",
"{  c #8F6A46",
"}  c #83654C",
"|  c #8B664B",
" . c #866A4D",
".. c #8C6A4D",
"X. c #916B44",
"o. c #916C4C",
"O. c #996F4D",
"+. c #9B754D",
"@. c #826753",
"#. c #836A53",
"$. c #8C6C53",
"%. c #856D5A",
"&. c #8A6E5A",
"*. c #936D54",
"=. c #986F54",
"-. c #8E7255",
";. c #87705E",
":. c #8A715C",
">. c #947354",
",. c #9B7554",
"<. c #9D7854",
"1. c #93755C",
"2. c #9A755B",
"3. c #96795B",
"4. c #9C7A5B",
"5. c #A27B55",
"6. c #A97D55",
"7. c #A37D5A",
"8. c #856E61",
"9. c #837163",
"0. c #8C7563",
"q. c #897768",
"w. c #8C796A",
"e. c #917663",
"r. c #947A65",
"t. c #9A7E63",
"y. c #947D6B",
"u. c #997E6C",
"i. c #867C71",
"p. c #927F70",
"a. c #A07F63",
"s. c #9D805F",
"d. c #A5815D",
"f. c #AA835E",
"g. c #B28657",
"h. c #B58A5E",
"j. c #BC8E5C",
"k. c #9C8166",
"l. c #95806D",
"z. c #9B826D",
"x. c #958273",
"c. c #9C8472",
"v. c #9F8873",
"b. c #998678",
"n. c #9E8B7A",
"m. c #9E907E",
"M. c #A58364",
"N. c #AB8663",
"B. c #AC8A65",
"V. c #A2846C",
"C. c #A98669",
"Z. c #A5886C",
"A. c #AD8B6B",
"S. c #B28A65",
"D. c #B28E6B",
"F. c #BE9264",
"G. c #B5926D",
"H. c #BC926A",
"J. c #A18772",
"K. c #A38B75",
"L. c #AA8C74",
"P. c #A48E7A",
"I. c #A88E7B",
"U. c #B18E72",
"Y. c #AB9275",
"T. c #A6907B",
"R. c #AA937D",
"E. c #B59274",
"W. c #B1957C",
"Q. c #B4997E",
"!. c #B99878",
"~. c #C0936A",
"^. c #C9A37E",
"/. c #9F9180",
"(. c #A59382",
"). c #A49686",
"_. c #AC9581",
"`. c #AE9983",
"'. c #AE9A8A",
"]. c #B09782",
"[. c #B39B85",
"{. c #B99E86",
"}. c #B49D89",
"|. c #B99F89",
" X c #AF9E92",
".X c #B7A087",
"XX c #BAA187",
"oX c #B6A18C",
"OX c #BBA38D",
"+X c #BFA98F",
"@X c #B5A292",
"#X c #BDA691",
"$X c #BEA993",
"%X c #B5A59A",
"&X c #BCAB9A",
"*X c #BFB09E",
"=X c #BFAEA0",
"-X c #C5A280",
";X c #C1A68E",
":X c #C0A88F",
">X c #D3B18C",
",X c #C0A791",
"<X c #C2AB95",
"1X c #C4AE99",
"2X c #C6B096",
"3X c #C9B197",
"4X c #C5B19B",
"5X c #CAB49C",
"6X c #C3B1A0",
"7X c #CAB6A1",
"8X c #CCB9A4",
"9X c #CEBCA9",
"0X c #D1BCA7",
"qX c #D2BEAA",
"wX c #D4C3AD",
"eX c #DAC9B4",
/* pixels */
"# @ o o X $ $ 0 0 0 4 ; M V V S I P S V C M N C C C C S C C N N d N a s N e w w y d E q.m.m.n.m.).@X X).m.'.n.q.> 3 l L ;.l.F o ",
"X ; i./. X X X%X%X@X$X<X*X6X*X4X5X1X=X#X#X|.|.|. X@X}. X}.[.(.'.[.'.(.x.9.N d 9.@XwXwXeXwXwXwXwXwXwXwXwX8XwXwX8X(.6 p A l p o X ",
"a %XwX9X0X0X0X0X8X5X5X5X7X5X5X5X1X1X>X<X1X,X,X;X<X<X<X;X|.{.;X<X,XOXOX'.b.6 S 9XqX9XwX0XwX8X8X8X7X7X5X5X8X8X8X7X9Xw.Z Z l N 4 * ",
"M =X9X5X5X5X5X5X5X7X7X7X5X5X4X6X1X1X1X1X1X1X1X1X1X<X,X<X#X#X-X;XXX[.].[.E N '.7X8X8X5X6X*X4X5X5X5X4X4X5X5X5X5X5X5X5XQ C N S M : ",
"V 6X5X5X3X5X5X5X3X4X2X1X4X4X4X1X3X1X1X1X<X;X<X<X;X;XW.,XOX|.OX{.Q.[.[.(.p x.8X8X4X4X4X4X<X*X4X4X4X*X1X1X4X4X4X4X7X1X`.d d d M : ",
"S 4X5X3X5X3X1X1X1X3X1X3X<X<X1X1X<X<X<X<X<X,X2X,X;X;Xe.].;X|.|.|.{.[.}.K.+ @X9X4X4X1X4X&X2X2X*X<X<X2X1X<X<X1X1X4X1X4X4X`.l B M : ",
"R *X4X3X3X3X1X1X1X1X1X1X<X1X1X<X<X<X<X<X;X<X<X<X;X,XL.@.;X#X|.,XXX|.}.p.+ 1X1X6X4X1X4X2X2X<X2X<X<X1X1X<X1X1X1X1X1X4X4X4XW p B : ",
"R 4X2X1X3X3X3X3X3X1X4X2X<X<X<X<X<X;X3X<X<X<X,X;X;X;X|.@.e.-X|.|.R.|.}.w., 5X4X6X1X4X<X*X$X$X$X$X&X1X<X<X<X<X<X<X1X1X<X2X$XU y q ",
"! 1X1X3X3X3X3X<X1X<X1X1X$X<X&X<X<X<X<X<X<X<X,X<X<XOXOXz.$.{.{.{.W.|.}./ t 5X*X4X4X$X$X2X$X+X$X<X,X1X1X1X<X<X<X<X<X<X<X<X4XoX6 q ",
"E 1X3X3X3X<X<X3X<X<X$X<X<X<X<X<X<X,X,X,X<X,X,X,X<X;XOX{.:.z.W.XX{.[.}.^ U 4X4X&X*X*X$X*X$X*X$X&X1X,X%X$X<X1X&X,X&X$X$X<X1X5XU = ",
"~ 4X3X1X1X1X2X<X1X<X<X<X,X&X&X,X$X,X,X,X,X,X,X,X;XXXXX;Xr.t.z.J.{.}.'.F Q 4X4X1X4X$X$X$X$X$X$X&X#X,X#X<X$X$X,X$X$X$X<X<X:X4Xx.; ",
"~ 4X1X3X3X<X2X<X<X$X$X$X$X<X,X$X,X$X,X,X,X,X,XOXOXXXOXXXz.t.k.t.W.|.}.F q.*X4X2X4X*X+X$X$X&X$X#X<X%X$X$X#X$X$X,X#X$X$XOX<X$X).y ",
"~ *X2X4X1X1X<X2X<X,X$X,X$X&X,X#X$X$X;X,X,X,X,X;XOX$XXX|.k.$.Y.1.4.{.}.P x.4X5X4X+X2X&X#X#X#X#X#X,X#X,X#X$XOX@X$X#X#X+X#X+X+X'.q ",
"~ 4X2X2X1X<X<X<X$X$X$X$X,X<X#X<X<X,XOX,X,X,X;XOXXXXXOXOXK.Y Y.3...[.[.F ).4X5XXXQ.T.2XOX#X#X#XoX#X#X#X#X$X$X$X$X#X#X#X$X:X+X`.y ",
"~ 4X2X1X<X1X,X,X$X$X$X$X$X<X&X,X$XOX;XOXOXOXOXOX<X|.OX;X.X:.k.k.4.k.J.Q @X2XXXV.3.z XX+X&X#X#XoX@XOX#X#X#XoXoX#X#X#X#X+X+X+X@Xy ",
"( 2X2X<X<X<X<X$X$X$X$X$X$X,X,X#X<XOX;XOXOX;X;XXXOX|.|.OXOXv.-.z.k.1.y.^ '.Y.Z.M.Y.r +X+XoXoX@X+XOXOXOX@X#X@XoX#X#XoX+X+X+XOX@Xa ",
"E &X:X2X+X<XOX<X<X$X$X$X,X$XOX,X,XOX;X,X|.#X|.,X+X.XXX<XXX`.T z.3.:.G Q :.1.G.^.!.v ;XOXOX#XOX@X}.@XOXOX@XOX$X@XOX@XOXOX<XOXoXM ",
"~ &X+X:X<XOXOX<X,X,X,X,X,X#X,X,X,XOX|.OX|.;X|.|.R.K.1X&X$XOXK Y k.-.n J 3.A.^.>X .#.<X$XOX@XoXOX@XOXOX@XOXOXOXOXOXOX$XOX+XOXoXM ",
"! $X$X:X<XOX;X<X,X,X,X#X|.,X|.,XOXOXOXOX|.-XOXOXJ.:.:XXX.XOX-.f #.k.} 4.E.-X^.H.r k.OX<XoX@X@XOXOXOX|.OXXX@XoXoXOXOX@X$X+X+XoXa ",
"~ &X+X<X<X;XOX;X;X,X,X;X,X,XOXOXOX|.XX;XOXOXOXOXR.Y k.s.M.Z.s.3.Y ] 4.N.N.N.+.< < W.$XoXoXoXoXoX@X@X|.@X$X@XoX+X#XOXOXOXoXoX@XM ",
"! #X:X<X;X;X;X,X,X,X,X,X,XOXOXOXOX{.|.|.OX|.OX{.Y.n  .s.d.D.F.F.B.,.,.d.f.O.O.1 < R.OXoX#XoX+XXX#X#X@XOXOXOXoX#X+XOXOX+X+XXX.Xa ",
"~ +X<X;X<XXXOXXXOX#X,XOXOX#X|.OX-XOXOX|.|.|.{.].Y.Y ] B.F.g.j.F.H.H.f.5.+.f.f.O.x  .[..XoXoXoXoX|.|.oX@XOXoXXXOXoXXXOXOX+X.X).a ",
"( #X<X<XOXOX|.OXOX;XOXOX;XOXXXOX|.|.{.|.|.{.{.].z. .X.h.F.j.j.F.~.d.S.+._ f.f.4.-.v `.[.'.'.oXoX@XoX@X|.oXoXOXOXoXXXOXoXoX.X`.a ",
"( &X;X;XOXOXXXXX,XOX,XOX|.|.|.XX|.|.|.{.{.{.{.W.s.-.] s.j.F.j.g.6.6.d.f.<.5.6.7.>.r 3.[.Q.'.oXoXOX|.OX|.OXoXoXOXOXOXOXoX+XoXm.y ",
"~ #X+XOXOX|.XXOXOXOX+XOXXXXXOX|.|.{.{.{.{.{.{.W.1.2.| ) h.h.h._ ) +.B.X.{ 5.+.<.o.c  .oX`.`..XoXoX@XoXoXOX@XOXOX@XOXOXOXOX}.P.q ",
"/ +X.XOXXX{.{.XXXXOXXXOXOXXX|.[.|.[.{.].[.{.W.Z.&.t.3.) d.g.s.c _ g.G.] ` 4.5.X.| m k R.R.R.'.'.'.}.}.@XOXoXOX#XOXOXOXOXOX[.n.: ",
"( oXOX.XXXoX.X.X|.|.}.}.`.R.R.L.I.J.L.K.I.].W.t.$.3.3.) s.d.f.s.f.A.A.m ` M.5.[ { | k t.[.T.`.}.[.'.|.}.oXoX|.@XOX@XOXOXXXoXl.- ",
"~ oX.X.XXX.XXXOXXXR.J.:.L H G G G A A H A H W %.-.M.M... .G.D.G.B.M.$.f c C.f.X.,.>.k L [.`.}.oX}.oX[.[.`._.R.}.oX$X<XOXoXoXq.% ",
"^ @X.XXXXXR.r.#.G l H W e.K.I._.K.K.e.e.I C s z &.M.C.4.J ] B.D.B.c f r f N.,.5.7.2.J 7 j l s e p r t p l x j i 8 h j %.r.P.U % ",
"~ @X[.K.:.n z L #.J.R.}.[.|.}.|.[.[.}.}.}.'.P.A T Z.A.C.Y g m A.M.>.-.] ..3.,.5.5.[ >.-.> + K K ;.0.l.l.P.`.R.T.u.@.8 > , p y o ",
"D w.z z #.T.`.`.}.|.}.}.|.|.].[.[.|.|.}.}. X X8.%.L.a.) [ ..X.f.>X^.!.Q.W.A.M.4.[ ) 3.V.-.8 `.'.oXoXoX[.}.[.[.}.{.OX|.}.%.t 6 * ",
"l ^ :.T.XXXX.XoX}.}.}.}.}.}.}.}.[.|.|.|.}. X Xu.;.V.*.m <.f.d.d.,...n n m ..2.4.[ >.M.Z.z.8 _._.R.`..X[.}.oXoX[.}.}.}.}.OX`.N * ",
"w.%X}.|.[.[.}.}.}.|.[.'.}.}.].|.}.}.}.[.oX'. X'.&.` ` o.D.G.G.2.g _ 4.2.>.' k b 7.t.U.t.J.z W I.].[.}.[.[.[.}.}.[.].}.}.|.}.9.* ",
"y.#X|.|.|.[.|.}.|.|.}.}.[.}.].}.[.[.}.[.}.'.}.}.t.` a.S.S.H.a.' -.A.U.L.L.t.2.b c >.a.2.I.L I _.'.[.[._.`.`.[.'.[.[.|.}.|.,Xq.= ",
"p.%X#X|.|.}.[.@X}.}.|.[.}.[.'.}.[.}.[.}.`.oX}.K.e.E.H.N.D.5.` ) 3.4.4.2...2.| | } g ..t.K.L F _.'.}.[.[.[.[.'.].[.'.|.|.|.OXi.0 ",
"p.$X|.{.|.[.}.}.}.}.}.].}.|.[.}.[.}.`.'.'.`.P.t.a.D.S.D.O.2.b ` o.] ` | | | ' *.| b 7 $.&.h H _.[.[.`.[.}.[.}._.`._.[.|.|.@X8.= ",
"p.$XOX}.}.].}.|.}.}.|.[.}.}.}.}.].[.].}.[.c.y.t.a.C.6.5.,.| b ` ` ' o.$.$.=.$.o...J < v &.8 A (.'.[.].].'._._.`.].[.[.[.|.;X0.= ",
"y.%X|.}.}.[.|.[.[.'.].].].[.].|.}.[.].'.R.j h r.} | J J J z f ` =.=.2.=.*.| } J } #.W 8 O 3 l T.`.`.'.'._._.`.[.[.].|.].|.;Xe.; ",
"p.#X|.}.[.[.[.}.[.[.[.'.'.`.[.].[.}.].P.T j z G v A H L H H f j ' ' J ' J v b $.1.P.T._.l > Z c._._.`._._.`.`.[.}.}.|.[.[.{.q.: ",
"p.%X|.}.oX[.'.[.`.].].}.[.`.].}.[.].I.W R.<XXXu.K.|.;X,X<X<X7X<X].I.Z.z.v.oX5X8X1X$X$X@X#XQ 3 c._.P.`.`.].[.[.[.].}.].|.{.{.y.: ",
"x.#X}.'.].'.].}.].`.].[.'.`.}.].].u.:.}.$X$X+X`..XoX[.`.+X@X&X6X6X6X8X5X4X1X$X@XXX.X`.oXoX'.8 y.R.`.R.`.`.`.`.[.}.[.{.|.].].e.0 ",
"p.@X[.'.].].`.[.].'.[.[.`._.]._.u.#.$XOXOX[.R.[.oX.XXX'.`.}.`.).}.}.@X'._._.(.`.(.`.`.`.'.'.l.W n.(.T.`.R.`.`.{.].].{.|.|.].y.2 ",
"p.@X[.].[.]._.].`.].`.].[.'.].L.&.].}.oXQ.R.R..X.X`.'.`.`.`.`._._._.`.`._.(.`.R.`.`.R.`.`.`.`.;.v.R.T.R.`.`.[.`.[.[.|.[.|.|.w.0 ",
"p.@X'.[.`.'._.].`.[.[._.`.}.I.%.].}.XX[.R.R.R.[.[..X`.R.`._.`._._._.`.R.R._._.`.R.`.(.R.(._.`.v.0.`.Q.R.R..XR.[.|.[.[.{.].[.y.= ",
"p.@X[.`.`._.`.`.].`.`._.`.`.3.z.`..X.XR.R.Q.`.[.`.[.Q.`.R.R._.R._.R.R.R.`.`._.`.`.R.`.`.R.`.`.`.W K.[.`.`.`.R.[.].[.|.[.|.W.e.= ",
"x.|.[.`._.`.`._._.`.`._.P.v.t.P.[..XT.R.`.[.`..X.X`.R.R.`.`._.R.`.R.T.`.`.R.`._.(.R.R.`.`.R.`.`.l.;.`.`.`.`.`.].].].{.}.].].q.= ",
"b.@X].`.]._._._.].`.`.R._.0.J.[.R.R.`.`.Q.`.`.[.`.R.R.`.R.R.R.`.(.`.R.`.`._.R._.`.R.R.`.R.`.`.`.[.9.[._._.`.R.`.].{.{.W.W.I.8.* ",
"p.}.'._.`.(._._.]._.]._.`.z.v.T.Y.`.`..X(.`..XQ.R.Q.Q.R.R.`.`.`.R.`.R.R.R.`.R._.R.`.`.R.R.Q.`.R._.P.q.T.P.P.I.].].`.].].R.I.W * ",
"9.'.[.`._._.R.P.R._._._._.I.K.r.R.].].W.].].[.T.L.].].].R.R.Q.R.R.R.(.T.(.T.T.R.).R.R.R.Q.`.R.Q._.`.9.b.(.(.I.].R.].I.R.`.}.P % ",
"^ '.`._._._._._.I._._._.I._.I.c.K.].`.R.].[.R.J.K.R.R.R.T.R.R.R.R.R.`.R.R.R.R.`.R.R.R.R.R.R.R.R.R.(.P.0.(.`.R.W.R._.R.`.K.0.u o ",
"! '.`._._._._.I._.(.R._.R._.R.I.;.J.].`.`.].K.u.].R.R.L.R.R.T.P.R.R.R.T.R.R.R.R.R.R.T.T.T.T.R.R.R.(.(.T K.`.`.`.R.].R.P.x , + % ",
"! )._._.I.(._._.(._._._._._._.I.I.r.u.R.R.J.L _.R.I.L.T.R.Y.P.T.T.T.R.T.R.T.T.T.R.T.T.R.T.T.R.R.R.R.`.l.%.`.`._.`.R.e.i L P.S ; ",
"! [._.R.(.R._.(.(.I.(.(.P.(.I.(.P.P.u.c.J.:.%.I.R.I.I.R.R.L.P.T.P.P.T.T.Y.m.P.Y.T.T.T.R.T.P.R.R.T.R._.n.W `._.`.P.%.t K R.].F ; ",
"I }._._._._.(.(._.(.I.I._._._.I.I._.R.0.' I J.I.I.T.I.I.L.T.Y.T.P.T.T.T.T.T.Y.m.T.T.T.T.T.T.P.T.T.T._.n.0.9.'.`.I 3 c.[.].`.S % ",
"Z '.`._.P._._._.I._.(.I._._.(.(.P.P.P.z.L I c.(.I.(.I.I.K.Y.T.T.v.T.Y.T.P.P.Y.m.T.T./.Y.T.T.P.I.T.T.T.T.n.A %.K u r.}.[.].R.D % ",
"d n.P._.I._.P._._._.(._._.I.I.I._.P.P.u.c.%.H u.c.I.I.R.T.R.T.T.T.T.T.T.P.P.P.T.T.T.v.v.P.P.I.(.T.T.T.T.P.6 O F _.[.].R.L.R.U & ",
"5 q.c.c.c.R._.R._._._._.(.I.(.I.P.c.%.c.[.I.K l 8.u.J._.R.R.I.I.R.T.T.T.P.T.P.P.u.(.I.P.K.P.P.P.P.P.K.y.@.e @.}.[.].].M.L.K.D % ",
"& y.y.x.K.J.I.I.K._._.(.I.P._.K.e.Q 0.`.`.].c.j 8 G %.r.c.J.I.I.Y.m.T.n.v.P.P.K.(.(.L.K.(.K.K.P.P.P.c.j e y.(.]._.].I.W.t.r.C % ",
"  %._.P.c.y.u.u.u.u.K.u.u.y.@.I %.c.I.(.I._.P.x.@.j x z z L @.%.:.;.%.&.&.&.:.:.u.u.I.u.y.J.u.J.c.0.l %.I.K.u.].I.K.I.L.t.y.N $ ",
". l P.P.K.K.c.#.e.8.0.%.0.e.8.%.y.c.I.(.P.P.P.P.c.F l z x v L L Y  . .T } Y Y Y ' I ' ' @.&.$.' L H %.K.I.(.(.I.K.I.I.L.e.&.Z % ",
"> 2 W q.x.c.c.r.%.e.&.u.y.y.e.r.e.z.u.K.I.P.I.I.c.e.C h A G z G G J G G G H H H J J H ' ' L H H G L K.K.u.(.u._._.u.u.u.2.y.C $ ",
"6 w 6 A %.0.0.&.%.0.@.8.%.e.e.e.e.e.u.u.u.c.u.u.u.u.l h j z z k z z z A G G A G G G G G I H G A l K p.u.e.u.u.u.u.u.u.y.e.e.M * ",
"2 4 4 4 6 s d D E I I I I I I W I / 8.I ^ 8.8.I I I s e s s s C l s s N s s h e s e e e e e w w 0 4 2 e w e e e e e e 6 w q 2 * ",
"% $ $ o o . X O % & & & 2 = 4 0 2 0 2 2 2 2 2 2 2 & & & & 2 2 = 2 & = % & & & = & $ * $ $ * $ $ $ @ $ $ @ * * $ $ $ @ * $ @ @ * "
};
