/* XPM */
static char *wall61711326195[] = {
/* columns rows colors chars-per-pixel */
"64 64 239 2 ",
"   c #160802",
".  c #1C0B01",
"X  c #1F1104",
"o  c #241304",
"O  c #291605",
"+  c #2B1509",
"@  c #2C1C0C",
"#  c #3C1B04",
"$  c #311D0E",
"%  c #291C11",
"&  c #38210F",
"*  c #2E251B",
"=  c #342314",
"-  c #3B2414",
";  c #35271A",
":  c #38281A",
">  c #3C2B1C",
",  c #322D27",
"<  c #3C2D22",
"1  c #36322C",
"2  c #3A3229",
"3  c #393532",
"4  c #3C3935",
"5  c #3C3A37",
"6  c #441B00",
"7  c #4B260B",
"8  c #562A08",
"9  c #452D1C",
"0  c #592E11",
"q  c #4B3119",
"w  c #5C3214",
"e  c #5A361A",
"r  c #67350A",
"t  c #673916",
"y  c #703F18",
"u  c #402E21",
"i  c #433324",
"p  c #4A3523",
"a  c #453529",
"s  c #483829",
"d  c #4B3B2B",
"f  c #583B25",
"g  c #5B3D26",
"h  c #513E2B",
"j  c #4E3D31",
"k  c #423E3B",
"l  c #503F32",
"z  c #6A3E23",
"x  c #3F403B",
"c  c #6E411C",
"v  c #75441A",
"b  c #4F402F",
"n  c #56412C",
"m  c #4E4132",
"M  c #43423D",
"N  c #544334",
"B  c #594737",
"V  c #5C4A37",
"C  c #59483A",
"Z  c #5C4B3B",
"A  c #644329",
"S  c #6C452C",
"D  c #734623",
"F  c #7C4B23",
"G  c #74482A",
"H  c #73512F",
"J  c #7E512B",
"K  c #664B35",
"L  c #604E3D",
"P  c #754D34",
"I  c #63513E",
"U  c #6B543B",
"Y  c #785539",
"T  c #7E603A",
"R  c #454441",
"E  c #4A4945",
"W  c #4B4B48",
"Q  c #5E5045",
"!  c #614F41",
"~  c #645342",
"^  c #6A5544",
"/  c #6D5945",
"(  c #69584A",
")  c #6D5B4A",
"_  c #745A44",
"`  c #725F4D",
"'  c #735F50",
"]  c #76614D",
"[  c #7B624C",
"{  c #64625D",
"}  c #756353",
"|  c #7A6653",
" . c #7C6954",
".. c #756558",
"X. c #7D6B5B",
"o. c #7A6D61",
"O. c #825124",
"+. c #84542B",
"@. c #86532D",
"#. c #89572D",
"$. c #8D5A2D",
"%. c #8B5B34",
"&. c #865A38",
"*. c #85623F",
"=. c #8E623A",
"-. c #946234",
";. c #94653D",
":. c #996739",
">. c #9C6A3B",
",. c #805842",
"<. c #85674A",
"1. c #956A45",
"2. c #9B6B43",
"3. c #9C7147",
"4. c #866651",
"5. c #836B55",
"6. c #8B6E53",
"7. c #836E5A",
"8. c #8D7256",
"9. c #85715C",
"0. c #8A735D",
"q. c #927459",
"w. c #A16D42",
"e. c #A47343",
"r. c #AA7445",
"t. c #A3734A",
"y. c #A9764B",
"u. c #AD7A4C",
"i. c #B17D4D",
"p. c #A67950",
"a. c #AC7C53",
"s. c #B17D50",
"d. c #816F60",
"f. c #857362",
"g. c #8B7662",
"h. c #8D7A65",
"j. c #8D7C6A",
"k. c #977B64",
"l. c #927C65",
"z. c #927E6C",
"x. c #B28153",
"c. c #B48253",
"v. c #B98553",
"b. c #BC8955",
"n. c #B5855A",
"m. c #B7885E",
"M. c #BC8B5B",
"N. c #94826C",
"B. c #9C8468",
"V. c #9A856D",
"C. c #948372",
"Z. c #9A8672",
"A. c #9D8A73",
"S. c #9E8D7A",
"D. c #9F907A",
"F. c #A48A6F",
"G. c #B88D62",
"H. c #BE9161",
"J. c #A38C75",
"K. c #A28F79",
"L. c #A88F79",
"P. c #A99177",
"I. c #A6927B",
"U. c #AA957D",
"Y. c #AD987E",
"T. c #B0997E",
"R. c #BBA079",
"E. c #C18A55",
"W. c #C18D5B",
"Q. c #C5905E",
"!. c #C59363",
"~. c #C59564",
"^. c #CA9A66",
"/. c #CC9C6C",
"(. c #D19F6C",
"). c #CC9C72",
"_. c #D3A26E",
"`. c #D5A575",
"'. c #D4A775",
"]. c #DAA976",
"[. c #DDAC7C",
"{. c #E2AF7B",
"}. c #A69481",
"|. c #AC9780",
" X c #AE9A82",
".X c #B29D84",
"XX c #B69D84",
"oX c #B39E89",
"OX c #B4A086",
"+X c #B8A187",
"@X c #B5A28A",
"#X c #BAA58C",
"$X c #BDA98E",
"%X c #BBA690",
"&X c #BEAA91",
"*X c #BCAB96",
"=X c #C5A98B",
"-X c #C1AA8E",
";X c #D7B58D",
":X c #C2AD93",
">X c #C3AF97",
",X c #C5B196",
"<X c #C8B297",
"1X c #C6B299",
"2X c #CAB59C",
"3X c #CCB99E",
"4X c #E5B787",
"5X c #E7BF95",
"6X c #C7B4A1",
"7X c #CEBAA1",
"8X c #D1BDA4",
"9X c #CABEB2",
"0X c #EFC197",
"qX c #F4CA9B",
"wX c #D4C1A6",
"eX c #D5C3AA",
"rX c #D9C5AC",
"tX c #DCC8AE",
"yX c #CDC4B0",
"uX c #DDCBB2",
"iX c #D9C9B6",
"pX c #FCD4A7",
"aX c #FDDCAD",
"sX c #E1CDB5",
"dX c #E3CFBA",
"fX c #E4D2BB",
"gX c #E6D3BA",
"hX c #FFE4B6",
"jX c #EAD9C5",
"kX c #EDDBC5",
"lX c #F0DBC4",
"zX c #F1DFC9",
"xX c #F3E3CC",
"cX c #F3E5D3",
"vX c #F4E6D4",
"bX c #F5EAD7",
"nX c #FAEBD5",
"mX c #FBEDDB",
"MX c #FFF4E3",
/* pixels */
"W { 1 , * , , , M 5 x E x R R x M k k k 4 4 k 3 k 3 3 3 4 3 3 k E M W R R W R R R R R x x 4 4 3 3 2 1 , , 1 1 1 1 1 3 3 3 3 W W ",
"yXi kXjXkXxXbXbXbXxXnXnXbXmXmXmXmXmXmXmXnXmXnXnXnXnXnXvXvXxXcXjXQ a 9XcXvXvXvXbXbXvXbXmXmXmXnXnXnXxXxXxXzXkXzXzXzXzXxXnXmXMXiX% ",
"] b fXrXtXtXtXuXuXuXuXtXrXeXrXuXdXtXrX8X8X3X3X3X2X2X<X>X1X1X:X:X*X; mXrX1X1X1X1X8X8X8X8X7X6X1X>X:X$X#X$X#X&X$X-X:X&X$X&X1X7XoXX ",
"V N fXuXrXrXrXtXrXrXtXtXtXrXeX7X8X8X8X8X8X2X7X2X1X>X<X<X:X&X:X%X6X: vX8X$X#X&X&X-X1X,X:X&X>X>X:X-X-X-X-X:X#X&X$X$X#XXX.X@X@XD.* ",
"N I fXuXrXtXwXeXwXwX7X7X7X7X7X7X7X7X7X1X1X<X3X2X<X>X<X>X:X:X-X:X6X; zX8X<X2X:X$X:X1X1X,X&X,X&X$X-X:X$X$X-X$X$X$X$X+XOXOX@X@X) 2 ",
"B B fXtXtXeXeXwX8X8X8X8X7X7X6X7X7X7X2X1X1X>X1X2X1X,X1X<X>X:X-X:X*X* jXwX7X<X$X$X#XOX#X:X,X,X&X$X#X$X$X&X#X#X#X#X+XOXOXoXoXI.I d ",
"Z C fXtXeXeXwX8XwX7X7X7XwX7X3X3X3X3X2X1X>X<X1X<X2X<X-X,X<X,X:X:X*X; jXwX1X:X,X#X#X#X$X*X&X@X$X$X$X$XOXOX.X.X@X$X+X+X@X X X9.` m ",
"C C fXtXwXwX3X7X3X7X8X7X7X7X3X3X3X2X2X<X1X>X>X>X2X<X,X:X:X:X:X1X*X* jXwX:X&X<X$X*X:X$X&X@X&X$X$X#X#X$X%X$X&X&X@X$X@XOXV.g.9...d ",
"Z L gXtXwX8X8X7X7X7X3X7X3X3X3X3X2X3X1X1X1X1X&X2X1X>X:X$X&X-X:X>X*Xd } | B n q d 9 i s b >     O o @ @ @ % = $ = - @ @ > B ] ] 2 ",
"L ~ sXtXwX3X7X7X8X7X8X3X3X3X2X3X3X1X1X1X1X,X:X:X<X:X-X:X>X1X:X:X@X: iXxXjXkXkXxXxXrXC ) xXnXxXxXxXxXfXkXgXfXfXfXsXsXuXuXrXeXeXX ",
"B  .gXeX3X8X7X7X3X3X7X3X3X2X2X2X3X1X1X&X,X$X:X>X:X:X&X$X:X%X-X:X#X& cXeX3X7X7X8X3XuX/ ( uXrXuXtX3X<X2X2X1X2X2X1XwX2X3X2X7X7X1XX ",
"N N.sXeX7X8X7X7X3X2X3X3X2X3X2X2X2X<X1X1X,X$X:X:X:X:X:X:X#X-X#X#X%X$ nX7X$X2X8X8X3XwX/ B uXyXwX7X,X2X3X,X1X2X1X1X2X,X2X,X1X@X X% ",
"N }.sXwX3X7X3X3X7X3X3X3X3X2X2X2X1X<X1X<X<X:X$X:X*X:X:X:X:X#X-X&XOX> vX7X&X3X7X7X<X7X/ L uXwX7X7X2X3X3X3X1X1X1X1X1X:X,X&X#XOX Xs ",
"Z &XrXwX7X2X7X7X2X3X3X1X2X2X1X1X1X<X2X<X1X<X$X:X>X:X:X:X>X#X%X#X$X* jX2X&X1X8X2X2X7XI I eXwX7XwX2X2X3X&X#X2X1X1X,X:X,X,X*X@Xj.C ",
"~ 1XeX3X8X3X2X3X1X2X3X1X2X1X2X,X1X1X<X:X<X:X$X:X-X-X:X:X:X-X@X%X&X> eX7X:X1X7X7XwX3XI ~ rX7XwXwX2X2X1X*X2X,X*X1X:X1X*X&X&X$X..I ",
"I 3XrX7X7X7X7X3X3X3X3X3X1X1X2X1X<X,X:X,X:X$X#X$X:X:X:X:X1X%XXX@X@X< XXwX2X2X7X2X3X&XU ) tXeX7X7X3X1X1X&X&X&X:X,X:X*X,X&X&X&Xo.N ",
"B *X7X7X7X7X7X2X3X2X<X<X,X2X3X,X,X$X&X<X&X$X#X$X:X&X-X&X&XOX|.oXOXi C.8X3X2X1X3X&XY.) ) rX7X3X3X*X,X*X#X$X$X$X&X*X<X&X&X&X&XX.m ",
"m 7XwX3X7X3X2X7X3X1X1X2X3X*X<X,X$X&X$X$X$X$X$X$X:X:X&X:X#XOX|..XoX< A.8X7X3X3X1X$X$X9.) eX7XyX3X*X&X%X$X*X*X$X$X&X&X&X&X&X&XX.> ",
"s uXwX3X3X2X2X1X1X3X1X&X<X,X,X,X&X&X$X$X$X+X+X$X$X$X&X+X+X X X.X|., N.8X7X1X$X#X&XOXN.I wX7XwXOX&X&X$X$X$X&X$X&X&X&X&X%X&XOXN.= ",
"b rXwX3X2X6X2X1X1X3X2X<X*X,X&X&X$XR.$X$XT.OX#X#XOX.X+X.X X X|..XI.> N.,XwX6X2X2X&X$XD.} tXY.A.<X&X&X$X&X&X&X@X@X$X@X&X$XOX#XZ.< ",
"Z iX8X2X2X2X2X2X2X,X<X1X2X,X*X$XR.<.F.P.Y.OX@XOX.X.X.X X|.Y.|.oXK.> Z.|.V.OXY.P.Z.A. .m B.Y.$X$X@XOXT.OXOXOX&X*X%X$X%X$X@XOX~ d ",
"B jX8X>X2X3X1X<X2X<X3X1X$X*X,XT aX;X8.N.P.R.OXOX+XOX.XT.|.Y. XoXC.a  .Z.N.A.C.N. .= @ b i > * = % % & @ = = > q n N m d 2 = s C ",
"Z kX7X<X:X<X<X<X<X<X3X<X3X,XT hX]./.H q.V.OXT.T.XXXX XY.U.U.|.|.} i f.7XfXfXgXtXuXxXxXkXxXkXkXkXkXgXkXgXjXgXgXfXiXrXiXuXiX6X< iX",
"B kX3X:X,X:X&X&X<X3X<X$X,XB.aX4X^.$.1.U q.P.Y.U.XXXXY.U.Y. X XoXV o.kXiXuXeXeXtXtXuXuXtXuXuXtXrXrXrXrXrXrXtXrXrXrXrXrXuXwX X} }.",
"d lX1X:X$X:X$X<X2X:X#XU. .0X4X^.>.0Xx.c [ B.P.V.Y.XXL.I..X XY.}.N j.fXwXeXeXeXeXwXwXwXwXwXwXwX3X7X8X7X8X7X7X7X8XwX7X7X8X:X XN.j ",
"> lX>X#X$X$X<X3X8X$X+XF.G.0X'.3.'.aXm.H.e  .A.N.J.F.J.Y.Y.U.Y.I.N f.fXeXuXrXrXeXwXwXrXwXwXwXwX3X3X3X3X3X3X2X,X<X1X1X1XOXOX@XS.@ ",
"$ lX#X#X,X,X<X,X#XXXT.D qX)._.:.aXc J H.3.e 0.0.J.Y..XI.I.L.}.}.N o.gXeXrXtXeXeXwXwX8X8X3XwX3X3X3X3X7X3X7X<X&X,X,X>X&X$X#X@X X+ ",
"= gX#XXXOX#X$X@X.XR.q qX^.[.r aXc %.J $.^.&.n 8.J.Y. XI.I.U.I.}.N h.sXeXtXeXeXeXwX3X8XwXwX3X3X3X3X7X3X3X7X<X<X2X<X<X<XXX*XOXOXo ",
"< 7X8X-XXXXXOXY.P.7 pX^.{.r qXv {.>.r.O.i.].e n 5.Z.Y..XY.Y.Y.|.m f.uXwXeXwXwX3X7X3X3X7X7X3X3X3X3X3X3X3X2X2X1X2X1X<X<X$X>X$X XO ",
"l C.%X1X,X+XT.P.t qX].{.+.4X-.4X{._.$.r.$.r.).8 n 0.V.Y.Y.U.Y. XN o.uXwXeXwX3X3X3X7X3X8X3X3X3X3X3X3X3X1X3X3X2X2X1X,X<X&X,XOX XO ",
"` g.oXU.Z.J.F.w pX].{.O.;X-.].{.].4Xv x.$.>.b.].7 K 7.q.I..XU.|.N f.rXwXwXwX3XeX7X7X3X3X2X2X3X3X3X3X3X3X2X2X2X2X<X,X1X,X,X$X Xo ",
"` 7.@X.XU.k.A aX{./.#.).-.].[.~.e.4Xr.i.F -.e.i.).# ]  .5.Z.I.|.s N.tXwXyX3X3X<X3X3X3X3X2X3X3X3X3X3X3X1X1X1X2X1X1X,X&X,X>XOXU.o ",
" .] +XY.J.H pX]._.:.4XD ).`.[.y.r :.w.w.a.%.%.-.2.a.# U | } g.K.N f.eX7XwX3X7X3X3X3X2X3X1X3X3X3X,X2X2X*X,X,X,X,X,X,X,X$X,X@XI.% ",
"7.^ .XP.&.pX(.Q.$.4X8 ^._.(.w.w.(.>.w.F s.s.y s.O.;.3.O ^ 9.h.l.j N.iXwX7X7X3X3X2X2X1X3X3X1X<X3X3X3X2X2X,X,X,X,X$X$X$X$X$XOXS.@ ",
"7.} P.F.pX~.^.$.0X8 `.]./.v.r.(.E.>.y.#.w.y.w.t 1.F 1.1.7 / d.z.d D.rX7X8X7X7X3X3X2X2X2X2X3X<X,X,X3X*X,X,X,X,X-X$X,X$X,X&XY.D.@ ",
"5.8.F.aX].r.u.4X8 ].^._.W.O.W.u.E.-.r.1.y r.@.2.G %.;.&.&.e ^ h.b |.eX7X7X7X3X2X2X2X2X2X<X*X*X<X,X,X,X,X,X$X,X-X$X$X$X$X,XR.D.@ ",
"| [ =Xm.t `.2.%.W.~.Q.Q.$.].r.y.y.O.r.$.+.#.%.O.%.y 7 %.&.1.h l d *XrX7X8X3X2X2X2X2X2X1X<X<X,X,X*X,X,X,X,X&X:X-X$X$X$X$X$XY.D.% ",
"U <.q *.2.=.`.b.u.Q.Q.b.O.[.:.:.w.y W.@.=.z t.G F %.a.@.D &.U d s 1XeX3X7X3X2X3X2X2X2X2X,X,X*X,X,X,X,X,X,X&X:X-X&X$X$X&X&XOXD.% ",
"n T.q.q.6 ).!.W.Q.t #.;.F /.s.O.r W.a.O.@.z &.O.W.t.t f ,.p < j s 6XeX7X<X<X2X3X1X2X1X1X1X,X&X,X&X,X&X&X$X$X-X:X&X$X@X$X,X@XD.% ",
"V $XY.<.q.# `.W.b.M.;.%.%.:.[._.`.!.$.z 1.#.6 G.a.@.w S g < a Q m 6XeX3X2X2X2X2X2X1X,X1X,X,X,X,X&X,X&X&X,X$X-X-X&X$X$X$X@XY.D.% ",
". :XXX8.6.4.6 ).M.E.W.-.#.:.v :.1.y z F &.0 !.s.@.w S K 9 a l ( d 6XwX7X2X<X,X<X2X1X1X<X<X,X,X:X&X,X*X$X&X$X&X&X$X$X$X*X*XOXD.% ",
"O :XT.F.4.6.6.6 n.b.W.W.-.=.2.%.-.z @.=.y W.M.=.z S z ; u l ~ ..s 6XwX2X2X<X<X1X1X,X,X,X&X,X$X#X&X&X&X$X$X$X&X$X$X$X$X$X*XOXN.% ",
"O =XT.J.q.6.6.6.6 H.b.b.W.-.%.;.G &.1.y W.s.t.t z z 9 u l ! ( ' < 6XwX2X2X<X1X1X<X<X,X$X-X,X$X$X,X$X$X&X$X$X$X$X&X$X@X$X*X&XA.% ",
". :XJ.F.J.<.q.6.6.7 M.v.E.W.w.;.@.&.y W.v.a.t z P p u j ! ( ' ' < 6X7X1X1X:X,X<X<X<X:X$X-X$X-X,X$X&X&X&X$X&X$X#X$X&X@X$X&X@XA.% ",
". oXU.F.Z.z._ q.q.Y 8 n.v.b.v.O.@.z v.v.!.w z P z - a L ^ ( ' ..< 6X8X1X1X1X,X1X,X&X&X,X$X$X$X$X,X$X&X&X$X$X$X&X&X%X$X$X&X@XC.* ",
". XXU.I.k.k.k._ 8.q.Y t s.i.s.-.t y.s.).w z z S & p C ( ( ' } o.a *XwX:X,X>X,X<X,X:X$X$X$X$X&X&X$X$X$X$X$X@X@X$X@X@X%X&X&X%XZ.2 ",
". k.k.8XfXjXdX6.K 4.k.P t p.t.2.O.W.`.0 z z P - u l ( ` ' ' ..g.d *XeX:X>X:X1X:X,X&X$X:X$X&X&X$X$X&X$X$X&X$X$X$X#X@X@X@X@X%XN.; ",
". sX7X3X2X-X-X:X7XK _ q.Y 0 1.3.c._.t z z z p : p ! ` ' ' } f.f.N @X8X>X,X:X:X<X,X#X$X&X#X$X&X$X&X&X$X$X%X$X@X$X@X@X%X%X@XOXf.< ",
"a 8X7X<X<X<X=X>X%X*X4.g l._ 0 &.G.8 z z z g & a L ' | ' | d.h.7.L K.wX+X,X&X,X&X$X&X$X$X$X&X$X$X$X%X$X@X*X$X%X%X@X@X@XY.D.C.o.i ",
"( 8X>X<X>X3X=XXXXXXXXX0.g 4.,.7 7 e z z S $ u L ' 4.d.d.7.f.z.X.~ C.wXOX:X&X,X$X$X&X$X$X$X&X&X&X@X&X@X&X@X@X@X@XOXOXOXD.A.C. .m ",
"z.8X=X=X%X=XXX%X>X%XXXXXz.l _ P 1.P z S : : l ' 0.f.f.7.9.z.N.7.B z.wX+X:X&X<X$X$X$X#XOX@X#X@X%X$X@X@X@X@X@XOXOX XOX}.D.D.D.} b ",
"7X6X=X%X#X=X%X%X#XXXXXXXXXK.z g Y ,.Y 9 ; l <.d.7.0.7.7.g.z.N.9.m  .wXOX$X$X@X@XT.Y.OX#X@X#X%X@X@X@X$X@X@XOX@XOXOX XOXD.D.D.` < ",
"dX<X=XXX%XXXXXXX=XoXXXXXXXXXh.^ f e = - L ` | 7.7.0.7.7.g.C.A.g.d ^ eXOX#X.XOX@XOX#X@X#X@X@X@X@XOXOX@XOX@XOXOX XOX XOXI.J.D./ b ",
"lX3XXXXX=XXXXXXXXX@XXXXXXX|.XXl._ / ^ / ' | 5.5.7.d.0.0.l.J.A.N.a B eX@X@X.XOXOX@XOX@XOX@X@XOXOXOX XOXOXOX XOX XOXOXOXI.A.A.I n ",
"lX<X=XXXXXXXXXXXXXoXoXoX.XU.}.L.l.]  .[ 4.5.5.7.0.q.0.k.J.L.J.z.s d rX@X#XOX@XOX@XOXOXOXOXOX X.XOXOXOXOXOX XOX XOXY.Y.Y.N.A.Z B ",
"lX<XXX=X%XXXXXXXXXoXoXXX|.L.L.|.Y.J.9.8.9.5.0.q.g.g.Z.|.U.U.A.Z.i s 8X&X#XoXoX@XOX.XOX.X XY.OX.X XOX XOX XOX X X X XOXI.N.C.B L ",
"lX<X#X#X+X+X.X.XXXXX.X.X.XY.|.|.U.|.K.0.0.0.0.l.l.A.XXT.Y.U.A.A.d Z 8X-XXXXX.XoXOX.XoXY.U. XoX.XOXOX.X X X.XOX XOX XOXA.N.N.b B ",
"lX<X+XXX+XXXXXXXXXXXU.U.Y.|. X.XU.L.I.A.0.0.l.V.Y..X|.Y.I.I.I.L.p / >X>X X.X.X.X.XOX XU. X X X X X X X X.XoX X.X X@XI.A.N.N.d Z ",
"lX<X+XXXXXXXXXXXXX.X.X.XXX XU.U.U.|.K.F.Z.l.k.N.XX|.T.L.I.U.I.I.i | 1X#X X.X.X X X XI.Y. X|.|.Y..X XY. X.X XT.Y.Y.D.V.A.A.N.< ` ",
"dX-X+XXXXXXXXXXXXX.X.X.XT. X|. X.X.XJ.J..Xl.9..XI. XI.Y.P.P.I.S.i } 1X%XU. X.X X|. XI.U.Y.Y. X X X.X XY. XI.I.I.D.D.A.A.N.N.i N.",
"oX>XXXXXXXT.XXT.T..X.XXX|.L.I.U.Y.Y.L.I.T. XZ.L.L.I.V.J.J.L.I.Z.s j &XOXU. X.XY.Y. X XU.I.P.U.Y.Y.Y. X XK.P.I.I.K.N.C.N.C.j.; I.",
"j.XXXXXX XXXT.Y.U.T.T.T.L.U.U.U.U.L.I.I.U.Y.I.I.J.L.J.A.J.I.I.Z.i } OXI..X X X.XY.Y.|.Y.Y.U.D.I.Y.U.U.U.P.I.Y.K.N.j.N.j.N.C.; C.",
"f.@X XoX|. XXX XY.U.I.U.I.Y.I.L.I.U.|.|.U.U.}.I.U.I.I.I.K.I.S.} h N oX}. X X X|.D.D.A.U.|.D.N.h.N.f.f.j.C.J.A.N.f.f.C.N.C.N.* m ",
"d u > h s 9 B / ) ` ) ^ ~ Z L L ! ~ ( ~ Z Z ~ Z B N N h i i : i a % 9.; ; d j d L C b s 9 < i < 2 s d m < 2 d s < a m C ..o.1 * "
};
