/* XPM */
static char *wall71711326195[] = {
/* columns rows colors chars-per-pixel */
"64 64 249 2 ",
"   c #1E1915",
".  c #21180F",
"X  c #231713",
"o  c #221A14",
"O  c #231C1A",
"+  c #27211C",
"@  c #3B241A",
"#  c #3E291D",
"$  c #2F2924",
"%  c #3B2D25",
"&  c #383027",
"*  c #3D322B",
"=  c #393734",
"-  c #3C3D3A",
";  c #442B1C",
":  c #502B19",
">  c #4E321E",
",  c #5B361E",
"<  c #673C1D",
"1  c #472B22",
"2  c #432D21",
"3  c #473428",
"4  c #4B362A",
"5  c #553826",
"6  c #5D3B24",
"7  c #473B34",
"8  c #533E31",
"9  c #633C24",
"0  c #6B3E26",
"q  c #643E2A",
"w  c #723F22",
"e  c #3F413D",
"r  c #4C4037",
"t  c #43423D",
"y  c #574537",
"u  c #5B4334",
"i  c #55453B",
"p  c #5D4A3C",
"a  c #6C4225",
"s  c #684427",
"d  c #65422B",
"f  c #6C442B",
"g  c #6D492C",
"h  c #764624",
"j  c #72452C",
"k  c #744B2D",
"l  c #7A4D2D",
"z  c #7C512D",
"x  c #674635",
"c  c #6D4B31",
"v  c #744D32",
"b  c #7B4E32",
"n  c #754E38",
"m  c #61513A",
"M  c #765133",
"N  c #7D5234",
"B  c #7C543A",
"V  c #7A573C",
"C  c #3A3F41",
"Z  c #3E4143",
"A  c #444342",
"S  c #4B4A44",
"D  c #564C45",
"F  c #59534A",
"G  c #5E5953",
"H  c #634E41",
"J  c #685647",
"K  c #725C4F",
"L  c #625D57",
"P  c #7B644E",
"I  c #686259",
"U  c #756254",
"Y  c #7B6554",
"T  c #7A6757",
"R  c #7D6A5B",
"E  c #7B6D60",
"W  c #82532D",
"Q  c #86502E",
"!  c #87562D",
"~  c #835534",
"^  c #8A5636",
"/  c #855935",
"(  c #8A5B35",
")  c #83563A",
"_  c #855B3A",
"`  c #8A5D3B",
"'  c #915C34",
"]  c #915D3B",
"[  c #8C6036",
"{  c #8C623C",
"}  c #93633C",
"|  c #98673C",
" . c #9A663C",
".. c #A36B3D",
"X. c #875D42",
"o. c #945F40",
"O. c #8D6342",
"+. c #8E6845",
"@. c #926542",
"#. c #956944",
"$. c #966947",
"%. c #9B6C43",
"&. c #926E4E",
"*. c #9A6D4A",
"=. c #9D7145",
"-. c #9D724B",
";. c #9B754D",
":. c #846C57",
">. c #836C5C",
",. c #86715C",
"<. c #8C735D",
"1. c #9B7654",
"2. c #A26D44",
"3. c #A26E4A",
"4. c #A37245",
"5. c #AA7444",
"6. c #AE7D47",
"7. c #A3744B",
"8. c #AA764C",
"9. c #A57A4C",
"0. c #AC7B4D",
"q. c #B27C47",
"w. c #B17C4D",
"e. c #A37651",
"r. c #A57A52",
"t. c #AB7D52",
"y. c #A77C59",
"u. c #B17E53",
"i. c #836E61",
"p. c #847263",
"a. c #8C7563",
"s. c #8B7967",
"d. c #8D7B6A",
"f. c #937B65",
"g. c #967B65",
"h. c #927D6C",
"j. c #917F70",
"k. c #B0824D",
"l. c #AD8254",
"z. c #AD835B",
"x. c #AB865B",
"c. c #B38354",
"v. c #B98555",
"b. c #B88757",
"n. c #BB8A56",
"m. c #B3855B",
"M. c #B58A5C",
"N. c #BC8C5C",
"B. c #B5915D",
"V. c #BD915D",
"C. c #95816C",
"Z. c #9A8368",
"A. c #9B826C",
"S. c #968371",
"D. c #9B8573",
"F. c #9C8975",
"G. c #9B8679",
"H. c #9D8B7B",
"J. c #A7886A",
"K. c #B58C62",
"L. c #B58864",
"P. c #BB8E62",
"I. c #AF9064",
"U. c #BD9363",
"Y. c #BA956A",
"T. c #A48B73",
"R. c #A78B77",
"E. c #A98D73",
"W. c #A28D7B",
"Q. c #A5927D",
"!. c #AE957B",
"~. c #AB937C",
"^. c #B4997C",
"/. c #C48F54",
"(. c #C28E5B",
"). c #C4925D",
"_. c #CA945D",
"`. c #C18E62",
"'. c #C39463",
"]. c #C79666",
"[. c #C49A65",
"{. c #CB9B65",
"}. c #C49B6B",
"|. c #CA9C6B",
" X c #D19F6D",
".X c #C79D71",
"XX c #C6A06D",
"oX c #CAA369",
"OX c #CCA26E",
"+X c #D3A569",
"@X c #D2A36C",
"#X c #CCA473",
"$X c #C8A577",
"%X c #CDAB7A",
"&X c #D3A573",
"*X c #D5AA74",
"=X c #D8AB77",
"-X c #D4AD7B",
";X c #D4B17E",
":X c #DAB27C",
">X c #E1B67F",
",X c #9F9280",
"<X c #A59381",
"1X c #AB9682",
"2X c #AD9A84",
"3X c #AD9B8A",
"4X c #B39C84",
"5X c #BA9E85",
"6X c #B29D89",
"7X c #AE9F91",
"8X c #AEA28F",
"9X c #B5A28C",
"0X c #BBA589",
"qX c #BAA48C",
"wX c #ACA393",
"eX c #B4A493",
"rX c #BAA692",
"tX c #BDAA94",
"yX c #B6A899",
"uX c #BEAC9A",
"iX c #BDB3A1",
"pX c #C3A888",
"aX c #CEB387",
"sX c #D4B382",
"dX c #D4B587",
"fX c #DBB886",
"gX c #C3AD95",
"hX c #C2AE99",
"jX c #C4B29C",
"kX c #C9B49D",
"lX c #CAB79C",
"zX c #E1B988",
"xX c #CCBAA3",
"cX c #C9B9A6",
"vX c #D1BDA6",
"bX c #D1BFAA",
"nX c #D2BFB1",
"mX c #D4C2AC",
"MX c #D8C5AB",
"NX c #DAC5AD",
"BX c #D4C4B1",
"VX c #DAC5B2",
"CX c #DBCAB4",
"ZX c #DBCCB9",
"AX c #DACDBB",
"SX c #E0CEB7",
"DX c #E4D4BC",
"FX c #DED0C3",
"GX c #E6D7C5",
/* pixels */
"A A A A Z Z Z e t t G S S S t t t 7 A - Z = t t t t m F F F t = A A t - t e - t - - A Z Z Z Z Z Z Z Z Z C C - - - - - - = - = = ",
"wXGXGXFXFXAXDXFXcXC.GXGXGXDXDXGXAXGXGXGXBX<XDXDXCXSXSXMXMXMXm AXZXZXCXBXBXmXxXmXbXcXJ iXiXyXyXyXwXwX7XwXwXwX8XwXyXuXiXuXtXuX8X& ",
"iXAXAXBXBXmXBXuXyXE GXGXAXAXSXAXCXBXVXNXcXS.mXcXxXmXMXiXrX~.H gXlXmXmXcXcXjXxXxXkXjXm xXcXcXjXjXjXjXuXtXuXuXrXrXrXuXrX6X9X9X3X$ ",
"iXBXBXBXmXmXcX9X<XC.GXGXMXMXMXMXNXmXmXvXuXQ.mXiXxXmXmXMXqXT.H hXmXmXmXiXhXkXhXrXqX5X4 gXuXuXrX9XeXeX9X9X9X9X9X9XuXF.9X8X9X9XQ.+ ",
"iXBXBXmXmXyX2X9XW.a.SXSXmXmXMXmXmXmXxXgXrX1XxXkXlXxXxX9X:.<.H gXxXxXbXqX2XW.W.4X4X4X2 kXxXlXhXhXjXhXtXuXtXtX9XrX6XG.<X<X3XQ.Q.+ ",
"mXAXmXmXjX8XrXrXQ.p.uXyXuXiXtXtXcXrX4X6X3X9XcXhXuXtX!.,.:.f.J qXlXxXrX<X2X2X<X4X2X<X% 2X9X9X9X6X4X2X~.1X~.Q.Q.Q.3X1XW.W.F.Q.Q.+ ",
"iXuXuX2X9X9X9X9X2XR yXeXeX3XQ.H.<XG.H.H.G.Q.yX7XtXS.R d.C.H.m yXrX3XG.<XH.,X<XW.1XW.@ 1X6X6X2X2X1X1X~.Q.Q.<X2X1X<XW.<XR.<XQ.H.o ",
"i r 8 u r u 4 u y m u u p u y y u i u u x 8 y i m m m D m m 4 8 4 8 8 8 4 4 4 8 4 4 X 4 8 8 8 u y p p y y y y r y u m H H m H + ",
"L 3X1X1XA.p.; d ) ~ ` ` ` ( / ~ 9 g b v y.L.J.y.X.@.` ~ ) f M N B x d n h k k v j _ / v x 5 n B B B Q P B n 1 4 5 1 u D x m p O ",
"I mXCXnXmX~.1 l %.| ].+X=X=X@X{.v.] %.} U.#X=X=X#X9.'.v.n.r.*.%.3.O.) 8.c.n.].4.N.n.q.( ` q L.u.t.u.2.v.N.u.9 M B 6 E.1X4X3X<X  ",
"G MXVXnXmX1X1 ~ ] 2.(.|.+X:XzX>X*X5.w...P.:X:X=X X X'.P.].}.9.7.-.#.1.@X+X].k.'._.n.u.} @.j N.n.m.u.e.v.m.u.j v X.n ~.pXrX2XH.+ ",
"F xXVXvXNX1X> ~ 2.5.c.+X_.*X=X:X=X5.u.8.c.fX:X*X&X X=X'.`.|.e.9.7.*.9.+XoXv.].).{.v.(.7.X.N '.N.N.m.t.c.c.u.v ` ] q 5X5X0X9X<Xo ",
"F NXVXvXNXR.5 } 5.5.4.@X+X+X*X:X:X{...5.r.zXfX&X&X.XzX&XV.'.$.7.6.#.r.[.n.oX[.+X).).n.*.) r.{.].`.v.'.c.m.t.b ` } q ^.0X0X!.Q.o ",
"F mXVXvXvX~., #.4.5.( *X+X*X*X:X>X=X5.5.%.fXzX:X#X X&XfX|.P.@.9.8.#.-.'.*X'.oX+X).).l.O.M U.OX[.'.N.c.c.u.t.) } ` d $XtX0X!.Q.o ",
"F NXVXvXxX^.5  ...5.} &X+X:X:X+X=X=X+Xw.4.L.zXzX&X&X X:X;X`.$.8.6.%.*.*X*X+X+X{.).]...O.) '.|.{.'.].b.t.0.@.) %.) ` 9XpX0XQ.F.  ",
"F NXVXmXxX2X> %.q... .[.*X=X:X+X+X X&X`.`. .#XzX-XOXoX*X|.].$.2.t.2.*.*XOX:X].{.V.N.@.z n.n.'.+X].N.c.w.u.0 ` } ~ 7.^.aXgXT.F.. ",
"J NXVXNXkX~.5 ~ q.5.2.| +X#X:X@X X{.+X_._.(.%.=XsX&X&X|.]. X*.3.k.4.$.;X:X|.|.'.'.#.^ 7.|.u.|.'.N.t.t.u.t.f `  . .7.!.pX5XJ.G.o ",
"F NXNXNXkX!.3 Q  .q.} 2.N.+XzX*X X{. X{._.v.0.*.=X-X-X}.{.&X%.8.n.0.+.:X-XoX].(.3.~ t.|.].P. X'.c.6.6.t.) k | 0...4.~.^.!.T.T.o ",
"F NXVXbXgXR.1 v. . . .}  .@X:X:X*X{.'.+X(.(.`.t.9.-XzX.X&X&X3.8.c.0.$.:X].{.(.$.( x.sX&X].].'.u.u.0.0.t.l O.7. .%. .T.pXR.T.D.o ",
"D mXmXbXgXE.4 w.]. Xn.q.} ! #X:X:X+X]. X{.'.v.v.*.L.&XsX{.&X%.q.c.t.*.-X X'.*.l 7.*X-XOX|.P.m.m.c.t.m.N X.@.%.@.} $.F.0XR.J.h.o ",
"F NXbXbXkX~.1 u.b.'.(.(.+Xu.a ].=X=XOX{.|.].(.v.(.} L.$X-X.X2.w.c.w.;.XX{.*.X.2...#X#X|. Xv.m.u.P.w.X.) O.` @.] ` P C.$XR.Z.f.  ",
"D NXZXNXgX~.3  .'.@X(.c.(./.w.Q k.@X@X].+X{.'.'.N.P.%.b.-X|.%.8.w.5.;.|.u.%.o.N.[.&X}.V.L.u.m.(.c.$.c ) B B N N l j g.^.E.C.s.. ",
"F BXZXNXgXR.1 } ].].{.(.c._.u.2.Q 5./.].(.].].#XN.V.-.L.[.sX .q.u.@.x.[.8.2.o.m.#X'.v.t.u.u.`.u.@.6 v l ( *.] } ] ` f.0XE.Z.a.. ",
"D BXBXVX5XW.; 2.v.'.&X).(.{.`.w. .2.' 5./.v.{.#X'.'.P.) `.]. .5.0.@.I.c.3...%..X|.m.u.e.u.u.u.b 6 j ( $.} } ] ( m.e.f.^.!.A.p.o ",
"D mXmXcXgX~.1 ' t.N.@X].'.N.].'.6.2.7.Q %.4.k.(.'.|.|.7.Y..X%.q.0.@.Y.%.} ..M.[.m.8.8.u.w.$.q 6 b ` ] ` ( / *.P.b.7.C.^.E.A.,.o ",
"F mXjX9XgXh.5 4.|.U.k.|.].'._.(.(.v...c.=.l 2.w.c.[.'.'.$.}.3.v.9.$.K.' 2.4.-X'.w.8.u.8.Q 9 0 ^ ] ' W h ` Y.m.z.b.%.f.^.J.T.p.o ",
"I gXQ.T.2Xa.1 8.N.#X#XU.0.U.).).(./.v.4.7.e.{ _ 9.c.b.U.| .Xk.c.*.+.z. .3.U.OXv.w.8.@.a q n ) Q W ^ ;.P.Y.L.t.m.t.$.C.4XE.T.,.o ",
"I lXjX0XhXT.; 2.k.[.;X;X#X}.c.0.w.c.c.c.9.%.| %.l @.P.L.1.*.7.0.( ) &.@.2.-XU.t.X.h 0 j Q ] o.] l.U.M.b.L.z.e.P.0.) C.!.J.T.i.  ",
"I vXlXjXgXg.@ %.c.n.-X%X-XfX[.;XsX.Xm.-.=.l.K.x.1.O.h ;.{ M *.{ g g n %.t.L.M 9 0 ) ` ^ ! Q 7.m.m.M.t.m.t.9.y.t.7.v C.0XE.J.>.. ",
"L bXbXkXgX<.# @.c.c.P.-X-XsXdX%X-X-XsXsXXXY.}.Y.I.K.Z.{ $.V 1.dX$XY.+.O.g : v r.Y..X|..X}.U.L.m.y.t.9.t.u.c.t.e.~ g f.^.E.Z.R o ",
"F AXlXgXpX<.2 v v.n.v.P.-X;XsXsX-XsXsXsXdX%XaXlXdXfXlXaXJ.c dXaXB.M.z.a M L.}.|.'.}.}.'.U.P.P.M.M.P.c.t.u.2.7.l / c a.E.!.J.:.  ",
"F bXNX4X5X:.; f e.'.`.].'.U.|.-XsX-X%X-X%X-X%X$XaXsXdXaXaXx.I.;X#XU.m.f @.(.}.%X#X}.P.N.u.m.c.P.N.P.v.0.q.} h ^ ^ f g.J.g.E.>.  ",
"D T a.R <.J 2 q b @.m.P.|.|.}.'.}.-X$XXX#X$X$X$XY.XX$X%XI.&.K.%X}.Y.x.d V 0.U.|.}.$X#X|.`.N.u.u.w.2...' h l N l ^ q g.R.:.!.<.X ",
"S T U U Y H # c l ) B b b k b @.*.m.#X&XXX%XXXOX%X$XJ.B &.&.Y.M.I.x.V ;., s $.x.U.b.N.0.] l h < < < 0 9 < f a 9 q 9 J.!.E.!.<.  ",
"S uXmXcXpXh.2 B ^ %.3.2.2.*.@.^ M ~ b N M ) _ +.{ _ ;.U.M.1.V g.&.d @ ) P.X.V c 0 a 9 q x f j v b ~ ^ ^ / ~ z l / M A.~.E.4Xa.  ",
"S uXxXcXpXf.; M ] $.e.%.$.9.c.8.3.@.%.} ` / { { &.$X$XXXB.1.# ; r > { z m.|.}.~ z ~ ~ ~ ( ` ) ) X.) b B _ ( ) ) $.j A.E.E.!.a.  ",
"F jXxXxXtX<.; z ] }  .t.k.4.%. . .] } ] { _ { $X%X%XXXY.M.&.u N ) 5 O.{ *.'.'.XX$.k ) ~ ` ` } ` $.@.` ) v { ~ O.( b A.!.E.^.a.  ",
"D uXxXhXqXZ.; k ` ~ t.=.%.%.2.%.%.3.@.` M Y.;X$X%XXX}.U.L.9 X.^ ` c 5 1.%.c.N.}.P.z.M W ~ B ` ) ^ ` @.) ( z ( { N b C.R.E.!.f.O ",
"D gXmXtX0Xf.@ f N ( =.=.4.5.%.' Q h 8.r.$XoXoX%X}.}.Y.U.^ f 7.^ $.s n c 7.9.b.t.}.7.}.}.L.~ b ~ b W ^ ~ ) W b N a b f.E.J.!.f.O ",
"F gXmXrX5Xg.@ d f -.4.5.2.'  .c.{..Xc.#X%XXXXXU.XXXXB.&.9 j 3.] *.9 O.v { 4.c.c.c.c.e.}.}.M.P.9.~ 0 k b b N b ~ a 6 g.E.E.~.s.O ",
"G jXlXtX0Xa.@ 6 X. .' [ 8.(.B.oX}.l.oX$X#XV.[.oX}.U.1.0 ~ 1.3.@.*.6 / x.g -.k.v.c.n.7.u.}.L.l.M.P.m.O.0 f g b j j c <.E.E.~.a.O ",
"L jXgX9X0Xa.@ f l W 4.c.c.N.[.XXM.M.$XoXV.U.[.V.M.l.0 h e.y.7.` ( 6 b u.B.M k.w.w.c.u.%.N.U.m.t.M.P.c.9.;.6 a f d g <.E.R.~.i.O ",
"I jXgXgXqXf.; 6 ( 6.B.U.V.B.[.U.9.#X#XV.V.U.U.B.r.j 0 *.y.}.*.^ b q v 4.l.x.< t.u.q.v.%.| N.M.l.t.t.l.b.t.=.( 6 , q ,.E.R.E.a.. ",
"I uXtXqX9Xf.3 v ..9.B.XX[.c.[.9.V.$XV.oX[.B.U.$.j < y.9.u.P.@.^ ) v M k.c.k.V , %.u.5.8.} %.U.k.9.4.9.l.c.0.} ` 9 q :.J.J.T.>.X ",
"I hXhXpX^.a.4 / 6.k.l.U.}.U.c.=.XX}.}.'.U.9.z ~ 9 $.v.*.y.K.} ( X.n v c.c.l.l.f k M 7.0.4.' =.m.l.t.-.4.9.r.9. .j 9 Y T.T.J.>.o ",
"L tXrXrX^.a.4 @.6.l.l.B.Y.B.| B.OXXXXXl.) W ` a M U.M.-.y.m.{ ! ( v b c.k.M.9.{ k a k z %.%.W 0.l.9.-.=.-.l.r.%.^ 9 Y J.T.T.p.X ",
"L tX0XtX4Xa.3 ) 9.m.9.0.M.7.;.}.XXM.{ ~ X./ a g U.[.m.e.7.z.` Q ) j B l.9.l.;.r.k V k k j h _ / | 9.=.%.=.7.7.=.( 9 P g.T.T.a.. ",
"L tX9XtX4Xa.; k 0.l.l.l.9.` K.=.~ / [ @.@.0 v t.[.Y.c.y.*.9./ ~ ~ f ~ c.l.| | { O.l / k v B N k v z +.%.@.{ =.=.%.s :.g.g.h.a.X ",
"G uXqXhX4Xa.; v 0.l.9.9._ ~ l ' [ 7.5.2.) q { '.U.}.u.z.$.*.~ l M f { l.l.%.#.{ #.z ~ ~ ^ z ~ ^ ) d , 6 v O._ ` { M P <.<.A.<.o ",
"G uX!.rX5Xa.1 v r.-.( ^ / } -.| } 9.8.9.< l P.[.$XU.m.l.$.3.~ b N d { l.9.7.#.[ { { z _ / k O.` _ j v d q 6 5 5 , 5 P Z.A.f.:.. ",
"G rX~.9X0Xa.% V / N N j | =.7.| -.4.4.{ l %.'.U.K.r.z.t.$.8.Q j N f O.9.9.9.| *.` | g _ / ) ~ z W { f g M s k d 6 u P f.T.h.:.  ",
"G rX!.0X0Xa.2 q / { ~ < $.=.=.4.9.=.9.h ( t.M.M.t.y.y.r.] t.) v v d #.9.r.9.#.{ { { _ B ( _ N l ~ } a g v j g v j d Y <.h.f.:.o ",
"L uX4X6X5Xa.2 d / { k k %.#.=.9.=.7.$.l ~ M.M.l.r.1.y.-.=.t.` j a d ;.0.r.9.| #.{ ` *.d ~ { z z N / N q k a f M k d Y <.A.f.:.o ",
"G rX5X4X5Xg.2 d b N h O.%.=.9.7.%.-.a ] l t.l.z.*.7.7./ z.8.` j b 9 1.7.9.=.{ { { / } ; z ( b k v g z 9 g g d v v d Y <.f.f.>.X ",
"L eX9X4X5Xf.% 6 l k j *.| l.9.7.%.@.h ` v 7.r.r.;.;.N 4.3.3.~ j a q ;.u.7.%.{ ( O.[ { : M _ v M v f v d 6 6 5 g k d Y <.S.a.>.o ",
"G 6X4XQ.4Xf.2 9 a f 0 #.#.=.=.%.%.a ^ ~ 0 $.;.7.-.^ 2.%.%.%.w q 0 9 ;.4.7.4.| ~ { ( { : k ~ k l v 0 f g > 2 6 j k x :.>.A.<.Y O ",
"G Q.R.T.~.a.3 5 x q q +.O.X.X.O.K w X.n H v V X.n B f c v n q 5 5 5 V ) B B M v M B v 1 c B c c c x c d 1 3 1 5 > 5 R U ,.T J o ",
"cXBXbXcXhXrXyXtX<XT eXeX3X1X3X8X7X9XrXeXd.rXhXcXtXrX6X1X3X2X,X8 6X5X0X9X9XuXhXqXrXrXp 1XQ.D.F.C.C.S.C.s.Y yX1XW.F.S.S.C.C.C.R . ",
"yXhXhXrX4X5XrX1Xd.U cXuXjXhXtXcXhXjXhXrXj.eX3X4X4X~.W.W.W.d.j.i 6X4X2X4XQ.1X~.~.1X~.u 1XQ.C.S.<XQ.<X1XQ.G.3XG.D.S.d.f.S.h.d.R o ",
"yXhX9XrXgXjX2XD.>.K hX9XjXhXhX6XD.T.6XrXd.6X2XR.W.W.D.G.h.p.j.p 6XR.R.W.f.C.W.F.G.T.8 j.C.H.C.s.S.S.G.W.s.H.W.R.C.T d.d.s.R U o ",
"eXhXeXuXgX1X2XR.<.J jXrXrXuXrX2X3X9X9X5Xi.6X6X<XF.G.j.i.d.d.j.p 1X1X1XW.f.D.S.D.j.j.8 g.s.C.D.s.D.F.S.C.E j.j.a.g.i.U d.E K K O ",
"6XrX6XrXrX9X6X2X>.H rX4X1X1X3X6X1X4XrX2XU 1X1X<XC.d.U U p.p.s.D ~.1X1Xj.s.S.h.d.j.S.5 i.a.>.>.<.p.s.C.E U E j.T.h.a.>.R U K J o ",
"1XrXR.W.W.W.~.<X>.8 1XW.R.h.f.p.R.<X~.Q.L Q.G.j.i.i.E E i.i.p.D Q.1Xd.R R d.j.d.p.p.4 >.s.T U K U T E T D U i.R i.i.R R U U J   ",
"I K H J F J J I J % 7 D i y y D D D i i 7 7 * * 7 7 7 8 7 7 D 3 H D 7 3 * * 7 3 7 * & & & & * * * 7 r t * 7 3 3 % * = 7 * * * O "
};
