/* XPM */
static char *run_rev_7[] = {
/* columns rows colors chars-per-pixel */
"32 32 208 2 ",
"   c None",
".  c #291B0C",
"X  c #281C0C",
"o  c #291C0C",
"O  c #291D0D",
"+  c #2A1D0D",
"@  c #2B1E0E",
"#  c #2C1C0D",
"$  c #2F1F0F",
"%  c #2C1F10",
"&  c #2D2011",
"*  c #2E2010",
"=  c #2E2111",
"-  c #2F2112",
";  c #322312",
":  c #332413",
">  c #322415",
",  c #342617",
"<  c #362717",
"1  c #352718",
"2  c #332B1A",
"3  c #362819",
"4  c #37291A",
"5  c #3C2B1A",
"6  c #3A2B1C",
"7  c #3A2B1D",
"8  c #3B2C1D",
"9  c #3D2C1D",
"0  c #3E2E20",
"q  c #3E2E21",
"w  c #3E2F21",
"e  c #3F2F21",
"r  c #3F2F22",
"t  c #3F3022",
"y  c #562A0F",
"u  c #442A18",
"i  c #582B10",
"p  c #47341F",
"a  c #48341F",
"s  c #49341F",
"d  c #4B341F",
"f  c #623116",
"g  c #66351C",
"h  c #683A1D",
"j  c #6F391E",
"k  c #6A3D1E",
"l  c #403022",
"z  c #403123",
"x  c #453322",
"c  c #453424",
"v  c #4B3721",
"b  c #413824",
"n  c #4E3A29",
"m  c #583826",
"M  c #533E2A",
"N  c #553F28",
"B  c #553E2B",
"V  c #543F2D",
"C  c #653C28",
"Z  c #3B462F",
"A  c #42422E",
"S  c #49462F",
"D  c #7F4327",
"F  c #624A32",
"G  c #634B34",
"H  c #644A34",
"J  c #6F5338",
"K  c #72563B",
"L  c #75573D",
"P  c #505D42",
"I  c #755F42",
"U  c #795B40",
"Y  c #7B5C40",
"T  c #47664A",
"R  c #6A7757",
"E  c #66795A",
"W  c #6B7958",
"Q  c #884B2E",
"!  c #8D492E",
"~  c #8F4A2F",
"^  c #814933",
"/  c #854A33",
"(  c #9E553B",
")  c #98583D",
"_  c #9B5C3C",
"`  c #A0563C",
"'  c #A6563C",
"]  c #A7573C",
"[  c #A7583D",
"{  c #A4593E",
"}  c #A9593E",
"|  c #AD5B3F",
" . c #AD5B40",
".. c #AA5F42",
"X. c #AE5C41",
"o. c #846245",
"O. c #8C6446",
"+. c #846748",
"@. c #8A6A4A",
"#. c #8D6949",
"$. c #996846",
"%. c #906C4C",
"&. c #916D4C",
"*. c #936E4D",
"=. c #946F4E",
"-. c #956F4E",
";. c #93714E",
":. c #98754F",
">. c #997250",
",. c #997451",
"<. c #9A7451",
"1. c #9B7451",
"2. c #9C7552",
"3. c #9D7552",
"4. c #9C7652",
"5. c #9D7653",
"6. c #9F7754",
"7. c #9D7955",
"8. c #A66C4A",
"9. c #A07149",
"0. c #A27B56",
"q. c #A27D56",
"w. c #A57E58",
"e. c #A67E58",
"r. c #BA7352",
"t. c #A5825B",
"y. c #AA815A",
"u. c #AB825B",
"i. c #AC835C",
"p. c #AA855D",
"a. c #AD845C",
"s. c #B68059",
"d. c #B0865E",
"f. c #B78D63",
"g. c #B38F67",
"h. c #B98E63",
"j. c #B98E64",
"k. c #BB9064",
"l. c #B89167",
"z. c #BE9265",
"x. c #B7946B",
"c. c #BD976C",
"v. c #BD996F",
"b. c #C29265",
"n. c #C59666",
"m. c #CB9266",
"M. c #C5996B",
"N. c #C89969",
"B. c #C89A6C",
"V. c #C6A275",
"C. c #C8A073",
"Z. c #C9A173",
"A. c #CCA070",
"S. c #CDA070",
"D. c #CEA071",
"F. c #CBA476",
"G. c #CEAA7B",
"H. c #CAA97C",
"J. c #CBAA7D",
"K. c #CBAB7D",
"L. c #D1A372",
"P. c #D0A576",
"I. c #D4AA79",
"U. c #D1AC7C",
"Y. c #D4AF7F",
"T. c #DAAB78",
"R. c #DBAB78",
"E. c #DBA87A",
"W. c #D9AC79",
"Q. c #DCAD79",
"!. c #D9AE7C",
"~. c #E5B37D",
"^. c #E8B67F",
"/. c #68C79C",
"(. c #CFB082",
"). c #D0B081",
"_. c #D6B181",
"`. c #DAB481",
"'. c #D8B584",
"]. c #D9B987",
"[. c #DDB886",
"{. c #E0B480",
"}. c #E1B682",
"|. c #EBB982",
" X c #ECB981",
".X c #EBBC85",
"XX c #F0BD84",
"oX c #E8C28C",
"OX c #F4C086",
"+X c #F5C187",
"@X c #F6C288",
"#X c #F5C38A",
"$X c #F5C48A",
"%X c #F6C48A",
"&X c #F0C48D",
"*X c #F7C68C",
"=X c #F9C58A",
"-X c #F8CA8F",
";X c #EDC791",
":X c #ECCA94",
">X c #F0C790",
",X c #F5CB93",
"<X c #F6CC93",
"1X c #F6CE95",
"2X c #F5D098",
"3X c #F5D39B",
"4X c #F5D69E",
"5X c #F5D8A0",
/* pixels */
"                                                                ",
"                                                                ",
"                                                                ",
"                                                                ",
"                                                                ",
"          J.(.g.Z.      g                                       ",
"        >XoXv.G.!.      j [                                     ",
"          N.A.I.l.         . . .      ;XQ.W.].                  ",
"          Q $.F.J._.        ~ ] r.  :XI.i.  x.J.                ",
"    +     ^ O.{.'.P.t.m / ] D _ T.[.c.                          ",
"          U 7.{.Y.U.m.[ ` ) 8.b.A.f.                            ",
"          z.M.V.).`.s.( C B o.0.                                ",
"          h 9.L.Z.;.d u 9 e e                                   ",
"        i y k n.:.v + + > 6 e e c                               ",
"      f i         + + + . # 2 A F L     e 6 6 8 e l             ",
"    } ~               # S T P E +.@.G 8 < & & & 4 4 1           ",
"     .X.                R /.W p.Q.XXA.q.          + +           ",
"         .|           1.I Z b w. X@X*X-X=X                      ",
"          ..    2.2.2.2.#.d % M a. X1X5X,X@X                    ",
"          2.2.2.2.2.2.2.2.J ; < K l..X<X4X3X$X+X+X      l l     ",
"          2.2.2.2.2.2.2.2.%.d & x Y j.T.&X3X$X+X+X~.0.n e l l   ",
"        G =.2.2.2.2.2.2.2.>.p + & 5 J 1.h.T.|.^.B.d.%.V         ",
"  l   e n %.2.2.2.2.2.2.        + + : B =.w.u.u.6.1.            ",
"t l l l       2.                            1.  2.              ",
"  t                                                             ",
"                                                                ",
"                                                                ",
"                                                                ",
"                                                                ",
"                                                                ",
"                                                                ",
"                                                                "
};
