/* XPM */
static const char *ZW5lbXlfMTA_[] = {
/* columns rows colors chars-per-pixel */
"64 64 72 1 ",
"  c #150606",
". c #160706",
"X c #1A0807",
"o c #200A09",
"O c #250C0A",
"+ c #260D0A",
"@ c #2A0E0B",
"# c #2B0E0B",
"$ c #2B0F0B",
"% c #2D0F0C",
"& c #32110D",
"* c #35130D",
"= c #3F110E",
"- c #38140E",
"; c #39140E",
": c #39150E",
"> c #3C150F",
", c #211611",
"< c #42100E",
"1 c #4F120D",
"2 c #411810",
"3 c #62160A",
"4 c #4F2013",
"5 c #502113",
"6 c #592716",
"7 c #70341B",
"8 c #811C06",
"9 c #821C06",
"0 c #962004",
"q c #9D2103",
"w c #C03503",
"e c #C03603",
"r c #C23B04",
"t c #C33B04",
"y c #D45B0B",
"u c #D5600D",
"i c #D6600D",
"p c #E17411",
"a c #E58117",
"s c #E68117",
"d c #E58217",
"f c #E68217",
"g c #E6871A",
"h c #E7871A",
"j c #E7881A",
"k c #EB9523",
"l c #ED9F27",
"z c #EFA42B",
"x c #EFA52B",
"c c #F0A82C",
"v c #F6C03A",
"b c #F7C13A",
"n c #F7C13B",
"m c #F7C43C",
"M c #F8C53C",
"N c #FDD847",
"B c #FEDB49",
"V c #FFE364",
"C c #FEE573",
"Z c #FFE673",
"A c #FEF0B0",
"S c #FFF1B1",
"D c #FFF2B6",
"F c #FFF3BC",
"G c #FFF3BD",
"H c #FFF5C4",
"J c #FFF5C5",
"K c #FFF6CF",
"L c #FFFEFE",
"P c #FFFFFE",
"I c white",
"U c None",
/* pixels */
"UUUUUUUUUUUUUUUUUUUUUUUUUUUUUUUUUUUUUUUUUUUUUUUUUUUUUUUUUUUUUUUU",
"UUUUUUUUUUUUUUUUUUUUUUUUUUUUUUUUUUUUUUUUUUUUUUUUUUUUUUUUUUUUUUUU",
"UUUUUUUUUUUUUUUUUUUUUUUUUUUUUUUUUUUUUUUUUUUUUUUUUUUUUUUUUUUUUUUU",
"UUUUUUUUUUUUUUUUUUUUUUUUUUUUUUUUUUUUUUUUUUUUUUUUUUUUUUUUUUUUUUUU",
"UUUUUUUUUUUUUUUUUUUUUUUUUUUUUUUUUUUUUUUUUUUUUUUUUUUUUUUUUUUUUUUU",
"UUUUUUUUUUUUUUUUUUUUUUUUUUUUUUUUUUUUUUUUUUUUUUUUUUUUUUUUUUUUUUUU",
"UUUUUUUUUUUUUUUUUUUUUUUUUUUUUUUUUUUUUUUUUUUUUUUUUUUUUUUUUUUUUUUU",
"UUUUUUUUUUUUUUUUUUUUUUUUUUUUUUUUUUUUUUUUUUUUUUUUUUUUUUUUUUUUUUUU",
"UUUUUUUUUUUUUUUUUUUUUUUUUUUUUUUUUUUUUUUUUUUUUUUUUUUUUUUUUUUUUUUU",
"UUUUUUUUUUUUUUUUUUUUUUUUUUUUUUUUUUUUUUUUUUUUUUUUUUUUUUUUUUUUUUUU",
"UUUUUUUUUUUUUUUUUUUUUUUUUUUUUUUUUUUUUUUUUUUUUUUUUUUUUUUUUUUUUUUU",
"UUUUUUUUUUUUUUUUUUUUUUUU UUUUUU UUUUUUUUUUUUUUUUUUUUUUUUUUUUUUUU",
"UUUUUUUUUUUUUUUUUUUUUUUUUUUUUU UUUUUUUUUUUUUUUUUUUUUUUUUUUUUUUUU",
"UUUUUUUUUUUUUUUUUUUUUUUUUUUUUX  UUUUUUUUUUUUUUUUUUUUUUUUUUUUUUUU",
"UUUUUUUUUUUUUUUUUUUUUUUUUUUUXXXUUUUUUUUUUUUUUUUUUUUUUUUUUUUUUUUU",
"UUUUUUUUUUUUUUUUUUUUUUUUUUUUXXXUUUUUUUUUUUUUUUUUUUUUUUUUUUUUUUUU",
"UUUUUUUUUUUUUUUUUUUUUUUUUUUUXXX UoUooUUUUUUUUUUUUUUUUUUUUUUUUUUU",
"UUUUUUUUUUUUUUUUUUUUUUUUUUUXXXXUUooo,ooUUUUUUUUUUUUUUUUUUUUUUUUU",
"UUUUUUUUUUUUUUUUUUUUUUUUUUUXXXXUooooooUUUUUUUUUUUUUUUUUUUUUUUUUU",
"UUUUUUUUUUUUUUUUUUUUUUUUUUUXXXXooooooooUUUUUUUUUUUUUUUUUUUUUUUUU",
"UUUUUUUUUUUUUUUUUUUUUUUUUUUXXXXooooooooUUUUUUUUUUUUUUUUUUUUUUUUU",
"UUUUUUUUUUUUUUUUUUUUUUUUUUUXXXUUo<<<ooUUUUUUUUUUUUUUUUUUUUUUUUUU",
"UUUUUUUUUUUUUUUUUUUUUUUUUUUXXXUU<<<<ooUUUUUUUUUUUUUUUUUUUUUUUUUU",
"UUUUUUUUUUUUUUUUUUUUUUUUUUUXXXU%<<<<ooUUUUUUUUUUUUUUUUUUUUUUUUUU",
"UUUUUUUUUUUUUUUUUUUUUUUUUUUXXXU%<<<<o111UUUUUUUUUUUUUUUUUUUUUUUU",
"UUUUUUUUUUUUUUUUUUUUUUUUUUUXXXU%%%ooo1111UUUUUUUUUUUUUUUUUUUUUUU",
"UUUUUUUUUUUUUUUUUUUUUUUUUUUXXXU%%%ooo1111UUUUUUUUUUUUUUUUUUUUUUU",
"UUUUUUUUUUUUUUUUUUUUUUU3333XX %%%%ooUU11UUUUUUUUUUUU88UUUUUUUUUU",
"UUUUUUUUUUUUUUUUUUUUUU3I3333  >>%%ooUUUUUUUUUUUUUUU8888UUUUUUUUU",
"UUUUUUUUUUUUUUUUUUUUUt33I333 >>%%%oUUUUUUUUUUUUUUUU8888UUUUUUUUU",
"UUUUUUUUUUUUUUUUUUUUUt33I333>>>%%%oUUUUUUUUUUUUUUUUU888UUUUUUUUU",
"UUUUUUUUUUUUUUUUUUUUtt333I33t>>%%%UUUUUUUUUUUUUUUUUUUUUUUUUUUUUU",
"UUUUUUUUUUUUUUUUUUUUttt333Itt>::%%OUUUUUUUUUUUUUUUUUUUUUUUUUUUUU",
"UUUUUUUUUUUUUUUUUUUUttttttttt:::%%OUUUUUUUUUUUUUUUUUUUUUUUUUUUUU",
"UUUUUUUUUUUUUUUUUUUUUttttttiii::***UU00000UUUUUUUUUUUUUUUUUUUUUU",
"UUUUUUUUUUUUUUUUUUUUUttttiiiiillllll000000UUUUUUUUUUUUUUUUUUUUUU",
"UUUUUUUUUUUUUUUUUUUUUUUttiiiilllllllll00000UUUUUUUUUUUUUUUUUUUUU",
"UUUUUUUUUUUUUUUUUUUUUU  iiiiilllllllll00000UUUUUUUUUUUUUUUUUUUUU",
"UUUUUUUUUUUUUUUUUUUUU   iiiiilllllllll00000UUUUUUUUUUUUUUUUUUUUU",
"UUUUUUUUUUUUUUUUUUUUU   iiiiilllllllll0jjjjyyUUUUUUUUUUUUUUUUUUU",
"UUUUUUUUUUUUUUUUUUUU     iiiillllllllljjjjjjjyUUUUUUUUUUUUUUUUUU",
"UUUUUUUUUUUUUUUUUUUU    OiiiillfffffljjjjjjjjjyUUUUUUUUUUUUUUUUU",
"UUUUUUUUUUUUUUUUUUU     OO@iiiffffffjjjjjjjjjjhUUUUUUUUUUUUUUUUU",
"UUUUUUUUUUUUUUUUUUUU zzzzzz44qffffffjjjjjjjjjjhUUUUUUUUUUUUUUUUU",
"UUUUUUUUUUUUUUUUUUU  zzzzzz54qffffffjjjjjjjjjjhUUUUUUUUUUUUUUUUU",
"UUUUUUUUUUUUUUUUUUUUUzzzzzzz4qffffffjjjjjjjjjjhUUUUUUUUUUUUUUUUU",
"UUUUUUUUUUUUUUUUUUUUUzzzzzzz4kfpppppppjjjjjjjhUUUUUUUUUUUUUUUUUU",
"UUUUUUUUUUUUUUUUUUUUUzzzzzzpwIbbbbppppjjjjjjjhUUUUUUUUUUUUUUUUUU",
"UUUUUUUUUUUUUUUUUUUUOzzzzzzpbbIbbbbbpppjjjjjh=UUUUUUUUUUUUUUUUUU",
"UUUUUUUUUUUUUUUUUUUUUwpzzpppbbbIBBBBBpppjjh==UUUUUUUUUUUUUUUUUUU",
"UUUUUUUUUUUUUUUUUUUU@wpppppbbbbBIBBBBBppff====UUUUUUUUUUUUUUUUUU",
"UUUUUUUUUUUUUUUUUUU@@wwppMNNNNNNNVVBBBBpfU===UUUUUUUUUUUUUUUUUUU",
"UUUUUUUUUUUUUUUUUU@@@wwfMNNNNNNNNbbbbbbbfcU=UUUUUUUUUUUUUUUUUUUU",
"UUUUUUUUUUUUUUUUUU@@@ffMNNNNJJJJJbbbbbbbbcUUUUUUUUUUUUUUUUUUUUUU",
"UUUUUUUUUUUUUUUUUo@@fffMNNNJJJJJJJbbbbbbbbXXXUUUUUUUUUUUUUUUUUUU",
"UUUUUUUUUUUUUUUoooo@fffMNNNJJJJJJFFFFFbbbb<XXUUUUUUUUUUUUUUUUUUU",
"UUUUUUUUUUUUUUUoooofffffNNNJJJJJFFFFFFFbbb<***XUUUUUUUUUUUUUUUUU",
"UUUUUUUUUUUUUUUoooofffffNNZJJJJJJJJFFFFFbb*****XUUUUUUUUUUUUUUUU",
"UUUUUUUUUUUUUUUoooofffffNZZJJJJJJJJJFFFFbb******UUUUUUUUUUUUUUUU",
"UUUUUUUUUUUUUUUooo7fffffNZZZJJJJJJJJFFFFSb******UUUUUUUUUUUUUUUU",
"UUUUUUUUUUUUUUUUoo77fffffZZZDDDJJJJFFFFSSb*******UUUUUUUUUUUUUUU",
"UUUUUUUUUUUUUUUUoo777ffffZZDDDDDJJFFFFFSSS******UUUUUUUUUUUUUUUU",
"UUUUUUUUUUUUUUUUUoo77o&fffZDDDDDDDFFFSSSSS****UUUUUUUUUUUUUUUUUU",
"UUUUUUUUUUUUUUUUUUoooo&&666DDDDDDDKKSSSSSm22UUUUUUUUUUUUUUUUUUUU"
};
