/* XPM */
static const char *ZW5lbXlfNQ__[] = {
/* columns rows colors chars-per-pixel */
"64 64 46 1 ",
"  c #150606",
". c #180707",
"X c #1F0A08",
"o c #200A09",
"O c #2A0E0B",
"+ c #39120F",
"@ c #3E110E",
"# c #3A150F",
"$ c #3D160F",
"% c #211611",
"& c #271510",
"* c #301310",
"= c #7F1C07",
"- c #4F2013",
"; c #6C321A",
": c #881D06",
"> c #9A2104",
", c #A42302",
"< c #A72402",
"1 c #B12501",
"2 c #BF3303",
"3 c #C13603",
"4 c #C23804",
"5 c #C84406",
"6 c #CD4E09",
"7 c #D2570B",
"8 c #D65F0C",
"9 c #DC6C0F",
"0 c #DD6E10",
"q c #E47C14",
"w c #E88C1D",
"e c #EA9321",
"r c #EB9622",
"t c #EC9924",
"y c #F3B232",
"u c #F4B634",
"i c #F8C73E",
"p c #FEDD4A",
"a c #FFE986",
"s c #FFEB8F",
"d c #FFEC94",
"f c #FFED9B",
"g c #FFEE9F",
"h c #FFEEA2",
"j c white",
"k c None",
/* pixels */
"kkkkkkkkkkkkkkkkkkkkkkkkkkkkkkkkkkkkk@@@kkkkkkkkkkkkkkkkkkkkkkkk",
"kkkkkkkkkkkkkkkkkkkkkkkkkkkkkkkkkkkkk@@@kkkkkkkkkkkkkkkkkkkkkkkk",
"kkkkkkkkkkkkkkkkkkkkkkkkkkkkkkkkkkkkk@@@kkkkkkkkkkkkkkkkkkkkkkkk",
"kkkkkkkkkkkkkkkkkkkkkkkkkkkkkkkkkkkkkkkkkkkkkkkkkkkkkkkkkkkkkkkk",
"kkkkkkkkkkkkkkkkkkkkkkkkkkkkkkkkkkkkkkkkkkkkkkkkkkkkkkkkkkkkkkkk",
"kkkkkkkkkkkkkkkkkkkkkkkkkkkkkkkkkkkkkkkkkkkkkkkkkkkkkkkkkkkkkkkk",
"kkkkkkkkkkkkkkkkkkkkkkkkkkkkkkkkkkkkkkkkkkkkkkkkkkkkkkkkkkkkkkkk",
"kkkkkkkkkkkkkkkkkkkkkkkkkkkkkkkkkkkkkkkkkkkkkkkkkkkkkkkkkkkkkkkk",
"kkkkkkkkkkkkkkkkkkkkkkkkkkkkkkkkkkkkkkkkkkkkkkkkkkkkkkkkkkkkkkkk",
"kkkkkkkkkkkkkkkkkkkkkkkkkkkkkkkkkkkkkkkkkkkkkkkkkkkkkkkkkkkkkkkk",
"kkkkkkkkkkkkkkkkkkkkkkkkkkkkkkkkk&kkkkkkkkkkkkkkkkkkkkkkkkkkkkkk",
"kkkkkkkkkkkkkkkkkkkkkkkkkkkkkkkk kkkkkkkkkkkkkkkkkkkkkkkkkkkkkkk",
"kkkkkkkkkkkkkkkkkkkkkkkkkkkkkkkkkkkkkkkkkkkkkkkkkkkkkkkkkkkkkkkk",
"kkkkkkkkkkkkkkkkkkkkkkkkk  kkkkk.kkkkkkkkkkkkkkkkkkkkkkkkkkkkkkk",
"kkkkkkkkkkkkkkkkkkkkkkk k   kkk...kkkkkkkkkkkkkkkkkkkkkkkkkkkkkk",
"kkkkkkkkkkkkkkkkkkkkkk      kkk...kkkkkkkkkkkkkkkkkkkkkkkkkkkkkk",
"kkkkkkkkkkkkkkkkkkkkkkk      k...kkkkkkkkkkkkkkkkkkkkkkkkkkkkkkk",
"kkkkkkkkkkkkkkkkkkkkkkk     kk....kkkkkkkkkkkkkkkkkkkkkkkkkkkkkk",
"kkkkkkkkkkkkkkkkkkkkkkkk     ko..kkkkkkkkkkkkkkkkkkkkkkkkkkkkkkk",
"kkkkkkkkkkkkkkkkkkkkkkk     koo..kkkkkkkkkkkkkkkkkkkkkkkkkkkkkkk",
"kkkkkkkkkkkkkkkkkkkkkkk     koo..kkkkkkkkkkkkkkkkkkkkkkkkkkkkkkk",
"kkkkkkkkkkkkkkkkkkkkkkk     koo..kkkkkkkkkkkkkkkkkkkkkkkkkkkkkkk",
"kkkkkkkkkkkkkkkkkkkkkkkk    ooookkkk+kkkkkkkkkkkkkkkkkkkkkkkkkkk",
"kkkkkkkkkkkkkkkkkkkkkkkk    ooookXX+++kkkkkkkkkkkkkkkkkkkkkkkkkk",
"kkkkkkkkkkkkkkkkkkkkkkkk    oookkXXX++kkkkkkkkkkkkkkkkkkkkkkkkkk",
"kkkkkkkkkkkkkkkkkkkkkkkk   ooookXXXXXkkkkkkkkkkkkkkkkkkkkkkkkkkk",
"kkkkkkkkkkkkkkkkkkkkkkk    ooookX>>XXXkkkkkkkkkkkkkkkkkkkkkkkkkk",
"kkkkkkkkkkkkkkkkkkkkkkk    oooX>>>>>>kkkkkkkkkkkkkkkkkkkkkkkkkkk",
"kkkkkkkkkkkkkkkkkkkkkkk    ##oX>>>>>>Xkkkkkkkkkkkkkkkkkkkkkkkkkk",
"kkkkkkkkkkkkkkkkkkkkkkk    ##o>>>>>>>Xkkkkkkkkkkkkkkkkkkkkkkkkkk",
"kkkkkkkkkkkkkkkkkkkkkkk    ##o>>>>>>>Xkkkkkkkkkkkkkkkkkkkkkkkkkk",
"kkkkkkkkkkkkkkkkkkkkkkk   ###o#>>>>>>Xkkkkkkkkkkkkkkkkkkkkkkkkkk",
"kkkkkkkkkkkkkkkkkkkkkkk   ###o#>>>>>>Xkkkkkkkkkkkkk*kkkkkkkkkkkk",
"kkkkkkkkkkkkkkkkkkkkkkk   ###o####XXXXkkkkkkkkkkkkkkkkkkkkkkkkkk",
"kkkkkkkkkkkkkkkkkkkkkkk   #########XXXkkkkkkkkkkkkkkkkkkkkkkkkkk",
"kkkkkkkkkkkkkkkkkkkkkkk  ####X#####XXXkkkkkkkkkkkkkkkkkkkkkkkkkk",
"kkkkkkkkkkkkkkkkkkkkkkkkk####k#####55Xkkkkkkkkkkkkkkkkkkkkkkkkkk",
"kkkkkkkkkkkkkkkkkkkkkkkkk########555555kkkkkkkkkkkkkkkkkkkkkkkkk",
"kkkkkkkkkkkkkkkkkkkkkkkkk36666##:555555k%kkkkkkkkkkkkkkkkkkkkkkk",
"kkkkkkkkkkkkkkkkkkkkkkkk6666666-5555555kkkkkkkkkkkjkkkkkkkkkkkkk",
"kkkkkkkkkkkkkkkkkkkkkkkk666666665555555kkkkkkkk88j8kkkkkkkkkkkkk",
"kkkkkkkkkkkkkkkkkkkkkk&6666666666555555kkkkkkk88j88kkkkkkkkkkkkk",
"kkkkkkkkkkkkkkkkkkkkkkk66666666665555553kkkkkk8j8888kkkkkkkkkkkk",
"kkkkkkkkkkkkkkkkkkkkkOO666uuuuuu6===000000kkkk888888kkkkkkkkkkkk",
"kkkkkkkkkkkkkkkkkkkkOOO66uuuuuuuu==00qqqq0kkkk88888kkkkkkkkkkkkk",
"kkkkkkkkkkkkkkkkkkkOOOOwrrrruuuuuu0qqqqqqqqkkkkk88kkkkkkkkkkkkkk",
"kkkkkkkkkkkkkkkkkOOOOOrrrrrrruuuuu0qqqqqqqqq111kkkkkkkkkkkkkkkkk",
"kkkkkkkkkkkkkkkOOOOO2rrrrrrrrruuuuqqqqqqqqqq111kkkkkkkkkkkkkkkkk",
"kkkkkkkkkkkkkkkOOOOO2rrrrrrrrruuuuqqqiiiqqqq1111kkkkkkkkkkkkkkkk",
"kkkkkkkkkkkkkkOOOOOOrrrrrrrrrrruueqqiiiiiiqq1111kkkkkkkkkkkkkkkk",
"kkkkkkkkkkkkkkOOOOOOrrrrrrrrrrruurriiiiiiiiq111kkkkkkkkkkkkkkkkk",
"kkkkkkkkkkkkkkkOOOOOrrrrrrrrrrfffiiiiiiiiiiq111kkkkkkkkkkkkkkkkk",
"kkkkkkkkkkkkkkkkkkOkrrrrrrrrfgggddddddiiiii11<<kkkkkkkkkkkkkkkkk",
"kkkkkkkkkkkkkkkkkkkkkrrrrrrggggdddddddsiiii<<<<kkkkkkkkkkkkkkkkk",
"kkkkkkkkkkkkkkkkkkkk-trrrrrgggdddddddddiiii<<<<kkkkkkkkkkkkkkkkk",
"kkkkkkkkkkkkkkkkkkk--tttrrggggdddddddddsiii<<<kkkkkkkkkkkkkkkkkk",
"kkkkkkkkkkkkkkkkkkk---ttiagggpdddddddddshi44kkkkkkkkkkkkkkkkkkkk",
"kkkkkkkkkkkkkkkkkk$----aaagggpddaadddddsh9444kkkkkkkkkkkkkkkkkkk",
"kkkkkkkkkkkkkkkkk$$$$--aaaggppaaaaaddddh99444#kkkkkkkkkkkkkkkkkk",
"kkkkkkkkkkkkkkkk$$$$$$aaaaagppaaaaaaddd997744##kkkkkkkkkkkkkkkkk",
"kkkkkkkkkkkkkkkk$$$$$$aaaaagpaaaaaaaddy99774####kkkkkkkkkkkkkkkk",
"kkkkkkkkkkkkkkkk$$$$$$aaaaahhaaaaaaayy977774;;###kkkkkkkkkkkkkkk",
"kkkkkkkkkkkkkkkk$$$$$$aaaaahhhaaaaaay77777;;;;###kkkkkkkkkkkkkkk",
"kkkkkkkkkkkkkkkk$$$$$$$aaaajhhhaaaay,>777;;;;;##kkkkkkkkkkkkkkkk"
};
