/* XPM */
static const char *ZW5lbXlfMg__[] = {
/* columns rows colors chars-per-pixel */
"64 64 69 1 ",
"  c #150606",
". c #180707",
"X c #1F0A08",
"o c #220B09",
"O c #250C0A",
"+ c #260C0A",
"@ c #2A0E0B",
"# c #32110D",
"$ c #35130D",
"% c #38120F",
"& c #3B150F",
"* c #2D1410",
"= c #4F120D",
"- c #481C12",
"; c #63160A",
": c #65170A",
"> c #522214",
", c #582615",
"< c #672F19",
"1 c #70341B",
"2 c #821C06",
"3 c #901F05",
"4 c #9F2203",
"5 c #A82402",
"6 c #A92402",
"7 c #BF3503",
"8 c #C03503",
"9 c #C23B04",
"0 c #C33B04",
"q c #C53D05",
"w c #C74206",
"e c #C94707",
"r c #CA4B08",
"t c #CB4B08",
"y c #D0530A",
"u c #D6600D",
"i c #D9650E",
"p c #DD6D0F",
"a c #E17411",
"s c #E68519",
"d c #E7871A",
"f c #E6881A",
"g c #E7881A",
"h c #E9901F",
"j c #EC9823",
"k c #EC9824",
"l c #EFA52B",
"z c #F1AF31",
"x c #F2AF31",
"c c #F2B031",
"v c #F2B032",
"b c #F5B936",
"n c #F8C63D",
"m c #FACB40",
"M c #FBCF42",
"N c #FBD042",
"B c #FDD847",
"V c #FDD848",
"C c #FEDB49",
"Z c #FFDE4B",
"A c #FFE369",
"S c #FFE56F",
"D c #FFEEA2",
"F c #FFF3B9",
"G c #FFF4C1",
"H c #FFF4C2",
"J c #FFFFFE",
"K c white",
"L c None",
/* pixels */
"LLLLLLLLLLLLLLLLLLLLLLLLLLLLLLLLLLLLLLLLLLLLLLLLLLLLLLLLLLLLLLLL",
"LLLLLLLLLLLLLLLLLLLLLLLLLLLLLLLLLLLLLLLLLLLLLLLLLLLLLLLLLLLLLLLL",
"LLLLLLLLLLLLLLLLLLLLLLLLLLLLLLLLLLLLLLLLLLLLLLLLLLLLLLLLLLLLLLLL",
"LLLLLLLLLLLLLLLLLLLLLLLLLLLLLLLLLLLLLLLLLLLLLLLLLLLLLLLLLLLLLLLL",
"LLLLLLLLLLLLLLLLLLLLLLLLLLLLLLLLLLLLLLLLLLLLLLLLLLLLLLLLLLLLLLLL",
"LLLLLLLLLLLLLLLLLLLLLLLLLLLLLLLLLLLL::::LLLLLLLLLLLLLLLLLLLLLLLL",
"LLLLLLLLLLLLLLLLLLLLLLLLLLLLLLLLLLLL:::::LLLLLLLLLLLLLLLLLLLLLLL",
"LLLLLLLLLLLLLLLLLLLLLLLLLLLLLLLLLLLL:::::LLLLLLLLLLLLLLLLLLLLLLL",
"LLLLLLLLLLLLLLLLLLLLLLLLLLLLLLLLLLLL::::LLLLLLLLLLLLLLLLLLLLLLLL",
"LLLLLLLLLLLLLLLLLLLLLLLLLLLLLLLLLLLLL::LLLLLLLLLLLLLLLLLLLLLLLLL",
"LLLLLLLLLLLLLLLLLLLLLLLLLLLLLLLLLLLLLLLLLLLLLLLLLLLLLLLLLLLLLLLL",
"LLLLLLLLLLLLLLLLLLLLLLLLLLLLLLLLLLLLLLLLLLLLLLLLLLLLLLLLLLLLLLLL",
"LLLLLLLLLLLLLLLLLLLLLLLLLLLLLLLLLLLLLLLLLLLLLLLLLLLLLLLLLLLLLLLL",
"LLLLLLLLLLLLLLLLLLLLLLLLLLLLLLLLLLLLLLLLLLLLLLLLLLLLLLLLLLLLLLLL",
"LLLLLLLLLLLLLLLLLLLLLLLLLL LLLLL  %%LLLLLLLLLLLLLLLLLLLLLLLLLLLL",
"LLLLLLLLLLLLLLLLLLLLLLLLLLL L L   %%LLLLLLLLLLLLLLLLLLLLLLLLLLLL",
"LLLLLLLLLLLLLLLLLLLLLLLLLL    LL  LLLLLLLLLLLLLLLLLLLLLLLLLLLLLL",
"LLLLLLLLLLLLLLLLLLLLLLLLLLL   L@ @LLLLLLLLLLLLLLLLLLLLLLLLLLLLLL",
"LLLLLLLLLLLLLLLLLLLLLLLLLLL   L@@LLLLLLLLLLLLLLLLLLLLLLLLLLLLLLL",
"LLLLLLLLLLLLLLLLLLLLLLLLLL    @@@LLLLLLLLLLLLLLLLLLLLLLLLLLLLLLL",
"LLLLLLLLLLLLLLLLLLLLLLLLLL    @@@LLLLLLLLLLLLLLLLLLLLLLLLLLLLLLL",
"LLLLLLLLLLLLLLLLLLLLLLLLLLo  @@@@LLLLLLLLLLLLLLLLLLLLLLLLLLLLLLL",
"LLLLLLLLLLLLLLLLLLLLLLLLLo    @@@LLLLLLLLLLLLLLLLLLLLLLLLLLLLLLL",
"LLLLLLLLLLLLLLLLLLLLLLLLLo    @@@LLLLLLLLLLLLLLLLLLLLLLLLLLLLLLL",
"LLLLLLLLLLLLLLLLLLLLLLLLLo    @#@LLL;;;LLLLLLLLLLLLLLLLLLLLLLLLL",
"LLLLLLLLLLLLLLLLLLLLLLLLLo   @#@@LL;;;;LLLLLLLLLLLLLLLLLLLLLLLLL",
"LLLLLLLLLLLLLLLLLLLLLLLLLo   @##@L ;;;;;LLLLLLLLLLLLLLLLLLLLLLLL",
"LLLLLLLLLLLLLLLLLLLLLLLLLo   ##@@  ;;;;LLLLLLLLLLLLLLLLLLLLLLLLL",
"LLLLLLLLLLLLLLLLLLLLLLLLo    ###L   L;LLLLLLLLLLLLLLLLLLLLLLLLLL",
"LLLLLLLLLLLLLLLLLLLLLLLLo    ###OO000LLLLLLLLLLLLLLLLLLLLLLLLLLL",
"LLLLLLLLLLLLLLLLLLLLLLLLoo oo###000000LLLLLLLLLLLLLLLLLLLLLLLLLL",
"LLLLLLLLLLLLLLLLLLLLLLLLoo o####0000000LLLLLLLLLLLLLLLLLLLLLLLLL",
"LLLLLLLLLLLLLLLLLLLLLLLLoooo###00000000LLLLLLLLLLLLLLLLLLLLLLLLL",
"LLLLLLLLLLLLLLLLLLLLLLLoooo####00000000LLLLLLLLLLL===LLLLLLLLLLL",
"LLLLLLLLLLLLLLLLLLLLLLLoooo####00000000LLLLLLLLLLL===LLLLLLLLLLL",
"LLLLLLLLLLLLLLLLLLLLLLLooo.o####0000000LLLLLLLLLLL===LLLLLLLLLLL",
"LLLLLLLLLLLLLLLLLLLLLLoooo..###X>08800$LLLLLLLLLLLLLLLLLLLLLLLLL",
"LLLLLLLLLLLLLLLLLLLLLooooooO###>88887$$$L*LLLLLLLLLLLLLLLLLLLLLL",
"LLLLLLLLLLLLLLLLLLLLLooooo.#>###888887$$OLLLLLLLLLLLLLLLLLLLLLLL",
"LLLLLLLLLLLLLLLLLLLLoo%%o4444428888887$$OLLLLLLLLLLLLLLLLLLLLLLL",
"LLLLLLLLLLLLLLLLLLLLLo%%4444444sss8887$$OOLLLLLLLLLLLLLLLLLLLLLL",
"LLLLLLLLLLLLLLLLLLLLLLo%44444sssssss87$55OOLLLLLLLLLLLLLLLLLLLLL",
"LLLLLLLLLLLLLLLLLLLLLoL.44aaaaeepppeaa5555OLLLLLLLLLLLLLLLLLLLLL",
"LLLLLLLLLLLLLLLLLLLLLL..4aaaaeepppphhha555OLLLLLLLLLLLLLLLLLLLLL",
"LLLLLLLLLLLLLLLLLLLLL..O4aaajjjjjjjhcccz55OOLLLLLLLLLLLLLLLLLLLL",
"LLLLLLLLLLLLLLLLLLLLL.uuuaajjjjjjjccccccczOOLLLLLLLLLLLLLLLLLLLL",
"LLLLLLLLLLLLLLLLLLLL.uuuuajjjjjjjjccccccccciiLLLLLLLLLLLLLLLLLLL",
"LLLLLLLLLLLLLLLLLLLLuuuuuajjjjjjjccccccccccilllLLLLLLLLLLLLLLLLL",
"LLLLLLLLLLLLLLLLLL&&uuuuuajjjjjjjcccccccKcclllllLLLLLLLLLLLLLLLL",
"LLLLLLLLLLLLLLLLL&&&uuuuuujZZCCCCCCccccKcccllllllLLLLLLLLLLLLLLL",
"LLLLLLLLLLLLLLLL&&&&&uuuuZZZmmSSSCCjjkKccccllllllLLLLLLLLLLLLLLL",
"LLLLLLLLLLLLLLLL&&&&&&uuZZmmSSSSSSBBCKBnnccllllllLLLLLLLLLLLLLLL",
"LLLLLLLLLLLLLLLL&&&&&&-3ZZmmSSSSSBBBBBBBnnNlllllLLLLLLLLLLLLLLLL",
"LLLLLLLLLLLLLLLLLLLLLL<ZZmDDDDDDSBBBBBBBnnNNlllyLLLLLLLLLLLLLLLL",
"LLLLLLLLLLLLLLLLLLLLLL1ZZDDDDDDDDBBBBBBBnnnNNiyyLLLLLLLLLLLLLLLL",
"LLLLLLLLLLLLLLLLLLLLLL1ZZDDDDDDDDDBBDDDBnnnNMyyLLLLLLLLLLLLLLLLL",
"LLLLLLLLLLLLLLLLLLLLLL11ZDDDDDDDDDFHHHDDnnnNNsLLLLLLLLLLLLLLLLLL",
"LLLLLLLLLLLLLLLLLLLLLL11ZDDDDDDDDDFFFHHDDnnNNsLLLLLLLLLLLLLLLLLL",
"LLLLLLLLLLLLLLLLLLLLL,,11DDDDDDDDDFFFHHHDnbbgsLLLLLLLLLLLLLLLLLL",
"LLLLLLLLLLLLLLLLLLLL,,,,,DDDDDDDDFFFFFHHDnbbgsLLLLLLLLLLLLLLLLLL",
"LLLLLLLLLLLLLLLLLLL,,,,,,qDDDDDDFFFFFFHHnnbgg>>>LLLLLLLLLLLLLLLL",
"LLLLLLLLLLLLLLLLLL,,,,,,,qqDDDDFFFFFFFHHSbbgg>>>>LLLLLLLLLLLLLLL",
"LLLLLLLLLLLLLLLLLL,,,,,,,qqqHHFFFFFFFHHSbggt>>>>>LLLLLLLLLLLLLLL",
"LLLLLLLLLLLLLLLLLL,,,,,,,qqqqHFKKKKKFAwttt>>>>>>LLLLLLLLLLLLLLLL"
};
