/* XPM */
static const char *ZW5lbXlfMQ__[] = {
/* columns rows colors chars-per-pixel */
"64 64 83 1 ",
"  c #150606",
". c #180707",
"X c #1B0907",
"o c #200A09",
"O c #270D0A",
"+ c #280D0A",
"@ c #2B0F0B",
"# c #2C0F0B",
"$ c #2E100C",
"% c #2F100C",
"& c #32110D",
"* c #35130D",
"= c #36130D",
"- c #38120F",
"; c #311310",
": c #3E1610",
"> c #3F1710",
", c #46110E",
"< c #4E120D",
"1 c #53130C",
"2 c #411810",
"3 c #4B1E12",
"4 c #5D2916",
"5 c #672F19",
"6 c #6B321A",
"7 c #851D06",
"8 c #861D06",
"9 c #881E06",
"0 c #901F05",
"q c #B22601",
"w c #B22701",
"e c #BA2B01",
"r c #BB2B01",
"t c #C43D05",
"y c #C53D05",
"u c #864220",
"i c #C94707",
"p c #D25A0B",
"a c #D35A0B",
"s c #D35B0B",
"d c #D45B0B",
"f c #D45C0C",
"g c #D7620D",
"h c #D8650E",
"j c #D9650E",
"k c #E07411",
"l c #E37B13",
"z c #E47B13",
"x c #E47E15",
"c c #E47F16",
"v c #EB9723",
"b c #EC9823",
"n c #ED9F27",
"m c #ED9F28",
"M c #EFA52B",
"N c #F0A82C",
"B c #F0A82D",
"V c #F2B031",
"C c #F7C53D",
"Z c #F8C63D",
"A c #FACB40",
"S c #FBD042",
"D c #FCD747",
"F c #FDD847",
"G c #FFDE4B",
"H c #FFE369",
"J c #FFE469",
"K c #FFEEA2",
"L c #FFF0AC",
"P c #FFF0AD",
"I c #FFF1B1",
"U c #FFF1B5",
"Y c #FFF2B5",
"T c #FFF3BC",
"R c #FFF3BD",
"E c #FFF4C1",
"W c #FFF4C2",
"Q c #FFF5CE",
"! c #FFF6CF",
"~ c #FFFEFE",
"^ c #FFFFFE",
"/ c white",
"( c None",
/* pixels */
"((((((((((((((((((((((((((((((((((((((((((((((((((((((((((((((((",
"((((((((((((((((((((((((((((((((((((((((((((((((((((((((((((((((",
"((((((((((((((((((((((((((((((((((((((((((((((((((((((((((((((((",
"((((((((((((((((((((((((((((((((((((((((((((((((((((((((((((((((",
"((((((((((((((((((((((((((((((((((((((((((((((((((((((((((((((((",
"((((((((((((((((((((((((((((((((((((((((((((((((((((((((((((((((",
"(((((((((---((((((((((((((((((((((((((((((((((((((((((((((((((((",
"(((((((((---((((((((((((((((((((((((((((((((((((((((((((((((((((",
"(((((((((--(((((((((((((((((((((((((((((((((((((((((((((((((((((",
"((((((((((((((((((((((((((((((((((((((((((((((((((((((((((((((((",
"((((((((((((((((((((((((((((((((((((9999((((((((((((((((((((((((",
"(((((((((((((((((((((((((((((( ((((999999(((((((((((((((((((((((",
"(((((((((((((((((((((((((((((  ((((999999(((((((((((((((((((((((",
"((((((((((((((((((((((((((((    (((999999(((((((((((((((((((((((",
"((((((((((((((((((((((((((((    (((999999(((((((((((((((((((((((",
"((((((((((((((((((((((((((((   (((((9999((((((((((((((((((((((((",
"((((((((((((((((((((((((  ((    ((((((((((((((((((((((((((((((((",
"((((((((((((((((((((((((   (   (((((((((((((((((((((((((((((((((",
"((((((((((((((((((((((((     ,,,((((((((((((((((((((((((((((((((",
"(((((((((((((((((((((((      ,,,((((((((((((((((((((((((((((((((",
"(((((((((((((((((((((((      ,,,((((((((((((((((((((((((((((((((",
"(((((((((((((((((((((((       ( ((((((((((((((((((((((((((((((((",
"(((((((((((((((((((((((     * ((((((((((((((((((((((((((((((((((",
"(((((((((((((((((((((((    ** ((((((((((((((((((((((((((((((((((",
"(((((((((((((((((((((((    ** ((((((((((((((((((((((((((((((((((",
"((((((((((((((((((((((    *** ((((((((((((((((((((((((((((((((((",
"((((((((((((((((((((((    *** ( ((((((((((((((((((((((((((((((((",
"((((((((((((((((((((((    ***   ((((((((((((((((((((((((((((((((",
"((((((((((((((((((((((    ***  00000((((((((((((((((((((((((((((",
"((((((((((((((((((((((    ***  00000((((((((((((((((((((((((((((",
"((((((((((((((((((((((    ***  00000((((((((((((((((((((((((((((",
"(((((((((((((((((((((@   ****$$00000((((((((;;((((((((((((((((((",
"(((((((((((((((((((((@   *>>*$$00000((((((((;;((((((((((((((((((",
"(((((((((((((((((((((    *>>*$aaaaaa((((((((((((((((((((((((((((",
"((((((((((((((((((((@    >>>*aaaaaaaa(((((((((88((((((((((((((((",
"((((((((((((((((((((@    <<<$aaaaaaaaa(((((((8888(((((((((((((((",
"(((((((((((((((((((@@   <<<<$aaaaaaaaa((((((88888(((((((((((((((",
"((((((((((((((((((@@@   <<<<$dddf^aaaa((((-(88888(((((((((((((((",
"((((((((((((((((((@@    <<wwdddddddaaa(((---(888((((((((((((((((",
"(((((((((((((((((@111@@O>wwwdddddddaa(((((--((((((((((((((((((((",
"(((((((((((((((((@111@OO@wwNNNNf^dda$(((((((((((((((((((((((((((",
"((((((((((((((((@@111@O&>NNNN^NN^da**(((((((((((((((((((((((((((",
"(((((((((((((((@@@@@iiiiNNNNNNNN^ddyyy((((((((((((((((((((((((((",
"(((((((((((((((((((iiiiiNNNNNNNNNdyyyyy(((((((((((((((((((((((((",
"(((((((((((((((((((iiiiNNNNNNN^^NNhhhyy*((((((((((((((((((((((((",
"((((((((((((((((((OiiiiNNNNxxx^NNNhhhhy*((((((((((((((((((((((((",
"(((((((((((((((((OOiiiiNMMxxxm^nxMMhhhh**(((((((((((((((((((((((",
"(((((((((((((((((OOiiiiMMxxxnnnnnxMMhzzzl*((((((((((((((((((((((",
"((((((((((((((((OO&iiiMMxxxnnnnGGGGMVVzzzz((((((((((((((((((((((",
"((((((((((((((((XO33iiMMxxxSSGGGGGGGGbbbbbb(((((((((((((((((((((",
"((((((((((((((XX3333rrMMxxSSSGGGGGGGGbbbbbbb((((((((((((((((((((",
"((((((((((((((X3333rrrMMxSSSGGGGGGGGGGbbbbbb((((((((((((((((((((",
"(((((((((((((333333rrrMAASSSGGGGGGGGGGbbbbbbb(((((((((((((((((((",
"(((((((((((((333333rrrMGGSSSGGGGGGGGGGbFFbbbb(((((((((((((((((((",
"(((((((((((((((333OOrrGGJSSSSSPPPPPPGGFFFFFbb(((((((((((((((((((",
"(((((((((((((((((((O4rGJJSEEEEEEPPPPPZZZZFFv..((((((((((((((((((",
"(((((((((((((((((((ouuGJEEIIIEEEERRRRZZZZZFv..((((((((((((((((((",
"(((((((((((((((((((ouuGJEIIIIIEERRRRRPZZZZD..(((((((((((((((((((",
"((((((((((((((((((((o@VEEII!!!RRRRRRRRZZZZZ(((((((((((((((((((((",
"((((((((((((((((((((@#VEEI!!!!!RRRRRRRUZZZZ(((((((((((((((((((((",
"((((((((((((((((((((@ggEE!!!!!!!RRRRRKKZZZC5((((((((((((((((((((",
"((((((((((((((((((((@ggVE!!!!!!!!!RRPKKUZC55((((((((((((((((((((",
"((((((((((((((((((666gggH!!!!!!!!!!!!KKUZC55((((((((((((((((((((",
"(((((((((((((((((6666ggggg!!!!!!!!!!!KKUk5552((((((((((((((((((("
};
