/* XPM */
static const char *ZW5lbXlfNw__[] = {
/* columns rows colors chars-per-pixel */
"64 64 46 1 ",
"  c #150606",
". c #1E0A08",
"X c #260D0A",
"o c #2C0F0B",
"O c #30110C",
"+ c #38140E",
"@ c #3D160F",
"# c #211611",
"$ c #2D1410",
"% c #42100E",
"& c #5C150B",
"* c #4B1E12",
"= c #6B1809",
"- c #7A1B07",
"; c #7C1B07",
": c #771A08",
"> c #532314",
", c #5F2A17",
"< c #71351B",
"1 c #821C07",
"2 c #921F05",
"3 c #A22303",
"4 c #A42302",
"5 c #AD2501",
"6 c #B12501",
"7 c #C13603",
"8 c #CA4807",
"9 c #CD4E09",
"0 c #D2570B",
"q c #DB6A0F",
"w c #DD6E10",
"e c #E88C1D",
"r c #EA9120",
"t c #EC9924",
"y c #F8C73E",
"u c #FBD244",
"i c #FDD847",
"p c #FEDA48",
"a c #FEDD4A",
"s c #FFE25B",
"d c #FFE673",
"f c #FFE77A",
"g c #FFED98",
"h c #FFED9B",
"j c white",
"k c None",
/* pixels */
"kkkkkkkkkkkkkkkkkkkkkkkkkkkkkkkkkkkkkkkkkkkkkkkkkkkkkkkkkkkkkkkk",
"kkkkkkkkkkkkkkkkkkkkkkkkkkkkkkkkkkkkkkkkkkkkkkkkkkkkkkkkkkkkkkkk",
"kkkkkkkkkkkkkkkkkkkkkkkkkkkkkkkkkkkkkkkkkkkkkkkkkkkkkkkkkkkkkkkk",
"kkkkkkkkkkkkkkkkkkkkkkkkkkkkkkkkkkkkkkkkkkkkkkkkkkkkkkkkkkkkkkkk",
"kkkkkkkkkkkkkkkkkkkkkkkkkkkkkkkkkkkkkkkkkkkkkkkkkkkkkkkkkkkkkkkk",
"kkkkkkkkkkkkkkkkkkkkkkkkkkkkkkkkkkk#kkkkkkkkkkkkkkkkkkkkkkkkkkkk",
"kkkkkkkkkkkkkkkkkkkkkkkkkkkkkkkkkkkkkkkkkkkkkkkkkkkkkkkkkkkkkkkk",
"kkkkkkkkkkkkkkkkkkkkkkkkkkkkkkkkkkkkkkkkkkkkkkkkkkkkkkkkkkkkkkkk",
"kkkkkkkkkkkkkkkkkkkkkkkkkkkkkkkkkkkkkkkkkkkkkkkkkkkkkkkkkkkkkkkk",
"kkkkkkkkkkkkkkkkkkkkkkkkkkkkkkkkkkkkkkkkkkkkkkkkkkkkkkkkkkkkkkkk",
"kkkkkkkkkkkkkkkkkkkkkkkkkkkkkkkkk  kkkkkkkkkkkkkkkkkkkkkkkkkkkkk",
"kkkkkkkkkkkkkkkkkkkkkkkk k kkkkkk   kkkkkkkkkkkkkkkkkkkkkkkkkkkk",
"kkkkkkkkkkkkkkkkkkkkkkkkk    kkkk  kkkkkkkkkkkkkkkkkkkkkkkkkkkkk",
"kkkkkkkkkkkkkkkkkkkkkkkkk    kkk    kkkkkkkkkkkkkkkkkkkkkkkkkkkk",
"kkkkkkkkkkkkkkkkkkkkkkkk      kkk   kkkkkkkkkkkkkkkkkkkkkkkkkkkk",
"kkkkkkkkkkkkkkkkkkkkkkkkk      k   kkkkkkkkkkkkkkkkkkkkkkkkkkkkk",
"kkkkkkkkkkkkkkkkkkkkkkkkk     k    kkkkkkkkkkkkkkkkkkkkkkkkkkkkk",
"kkkkkkkkkkkkkkkkkkkkkkkkkk    k   kkkkkkkkkkkkkkkkkkkkkkkkkkkkkk",
"kkkkkkkkkkkkkkkkkkkkkkkkkk    k   kkk kkkkkkkkkkkkkkkkkkkkkkkkkk",
"kkkkkkkkkkkkkkkkkkkkkkkkkk        kk     kkkkkkkkkkkkkkkkkkkkkkk",
"kkkkkkkkkkkkkkkkkkkkkkkkkk     o  k   $   kkkkkkkkkkkkkkkkkkkkkk",
"kkkkkkkkkkkkkkkkkkkkkkkkkk    oo         kkkkkkkkkkkkkkkkkkkkkkk",
"kkkkkkkkkkkkkkkkkkkkkkkkkkk   oo   OO    kkkkkkkkkkkkkkkkkkkkkkk",
"kkkkkkkkkkkkkkkkkkkkkkkkkkk   o  O::::   kkkkkkkkkkkkkkkkkkkkkkk",
"kkkkkkkkkkkkkkkkkkkkkkkkkkk  ooo ::::::  kkkkkkkkkkkkkkkkkkkkkkk",
"kkkkkkkkkkkkkkkkkkkkkkkkkkk  ooo ::::::  kkkkkkkkkkkkkkkkkkkkkkk",
"kkkkkkkkkkkkkkkkkkkkkkkkkkk ooooO:::::: kkkkkkkkkkkkkkkkkkkkkkkk",
"kkkkkkkkkkkkkkkkkkkkkkkkkkkkooooO::::::kkkkkkkkkkkkkkkkkkkkkkkkk",
"kkkkkkkkkkkkkkkkkkkkkkkkkkkkooooOO:::: kkkkkkkkkkkkkkkkkkkkkkkkk",
"kkkkkkkkkkkkkkkkkkkkkkkkkkkkoookOOOOOO kkkkkkkkkkkkkkkkkkkkkkkkk",
"kkkkkkkkkkkkkkkkkkkkkkkkkkkooookOOOOO3333kkkkkkkkkkkkkkkkkkkkkkk",
"kkkkkkkkkkkkkkkkkkkkkkkkkkkooookO@OO33333kkkkkkkkkkkkkkkkkkkkkkk",
"kkkkkkkkkkkkkkkkkkkkkkkkkkkooooXO@@O333333kkkkkkkkkkkkkkkkkkkkkk",
"kkkkkkkkkkkkkkkkkkkkkkkkkkko666OO@@O333333kkkkkkkkkkkkkkkkkkkkkk",
"kkkkkkkkkkkkkkkkkkkkkkkkkk6666666@@O33333kkkkkkkkkk7777kkkkkkkkk",
"kkkkkkkkkkkkkkkkkkkkkkkkkk6666666@@@OO33kkkkkkkkkkk77777kkkkkkkk",
"kkkkkkkkkkkkkkkkkkkkkkkkk666666666@@OO kkkkkkkkkkkk77777kkkkkkkk",
"kkkkkkkkkkkkkkkkkkkkkkkkq666666666@@O   kkkkkkkkkkk77777kkkkkkkk",
"kkkkkkkkkkkkkkkkkkkkkkkkq666666666@&&& kkkkkkkkkkkkk777kkkkkkkkk",
"kkkkkkkkkkkkkkkkkkkkkkkkqq66rrrrrr%&&&999999kkkkkkkkkkkkkkkkkkkk",
"kkkkkkkkkkkkkkkkkkkkkkk.qq6rrrrrrrr%%99999999kkkkkkkkkkkkkkkkkkk",
"kkkkkkkkkkkkkkkkkkkkkk..qqqrrrrrrrrj%99999999kkkkkkkkkkkkkkkkkkk",
"kkkkkkkkkkkkkkkkkkkkk....qqrrrrrrrrjj999999999kkkkkkkkkkkkkkkkkk",
"kkkkkkkkkkkkkkkkkkkk....000000rrrrrrjj999ttt99kkkkkkkkkkkkkkkkkk",
"kkkkkkkkkkkkkkkkkk.....0000000iiiiii8j99ttttttkkkkkkkkkkkkkkkkkk",
"kkkkkkkkkkkkkkkkkk....0000000iiiiiiuuuutttttttt;kkkkkkkkkkkkkkkk",
"kkkkkkkkkkkkkkkkk.....0000000iiiiuuuuuuuttttttt;kkkkkkkkkkkkkkkk",
"kkkkkkkkkkkkkkkkk....40000000iiiuuuuuuuuuuttttt;;kkkkkkkkkkkkkkk",
"kkkkkkkkkkkkkkkkkk...40000000iiiuuuuussssuttttt;;kkkkkkkkkkkkkkk",
"kkkkkkkkkkkkkkkkkkk.k.0000000iiuuuusssssssstttt;-kkkkkkkkkkkkkkk",
"kkkkkkkkkkkkkkkkkkkkkk0000000ppuuyysssssssssttt--kkkkkkkkkkkkkkk",
"kkkkkkkkkkkkkkkkkkkkkk+w000fffphhhhaaasssssstt---kkkkkkkkkkkkkkk",
"kkkkkkkkkkkkkkkkkkkkkk@wwyfffhhhhhhhhhhsssss-----kkkkkkkkkkkkkkk",
"kkkkkkkkkkkkkkkkkkkkk@@yyffffhhhhhhhhhhhssss----kkkkkkkkkkkkkkkk",
"kkkkkkkkkkkkkkkkkkkk@@yyyfffhhhhhhhhhhhhhssskkkkkkkkkkkkkkkkkkkk",
"kkkkkkkkkkkkkkkkkkkOO@yyyfffhhhhhhhhhjhhhsss2kkkkkkkkkkkkkkkkkkk",
"kkkkkkkkkkkkkkkkkkOOOyyyyyffhhhhhhhhhhjhhss22oookkkkkkkkkkkkkkkk",
"kkkkkkkkkkkkkkkkkkOOOyyyyyyfhhddddddhhjhhss22ooookkkkkkkkkkkkkkk",
"kkkkkkkkkkkkkkkkkkOOOyyyyyyphddddddddhhjhss52>ooookkkkkkkkkkkkkk",
"kkkkkkkkkkkkkkkkkkOOOyyyyyyyhdddddddddhjhs552>>>ookkkkkkkkkkkkkk",
"kkkkkkkkkkkkkkkkkkOOOOyyyyyyhdddddddddhhs555>>>>>>okkkkkkkkkkkkk",
"kkkkkkkkkkkkkkkkkkOOOOOyyyyyadddddddddee555=>>>>>>kkkkkkkkkkkkkk",
"kkkkkkkkkkkkkkkkkkkOOOOyyyyyaddddddddde1,,>>>>>>>okkkkkkkkkkkkkk",
"kkkkkkkkkkkkkkkkkkkOOOOOOO*<adddddddd111,,,,>>>kkkkkkkkkkkkkkkkk"
};
