/* XPM */
static const char *ZW5lbXlfNg__[] = {
/* columns rows colors chars-per-pixel */
"64 64 75 1 ",
"  c #150606",
". c #160606",
"X c #180707",
"o c #1A0807",
"O c #240C09",
"+ c #250C09",
"@ c #33130F",
"# c #35130D",
"$ c #36130D",
"% c #38140E",
"& c #281510",
"* c #3E1610",
"= c #431911",
"- c #441A11",
"; c #451A11",
": c #60160B",
"> c #61160B",
", c #61170B",
"< c #721908",
"1 c #5E2A17",
"2 c #5F2A17",
"3 c #871E06",
"4 c #881E06",
"5 c #901F05",
"6 c #962004",
"7 c #AE2501",
"8 c #AF2501",
"9 c #B22601",
"0 c #BA2B01",
"q c #BB2B01",
"w c #C13703",
"e c #C23A04",
"r c #C33A04",
"t c #CB4B08",
"y c #CF5209",
"u c #D45B0B",
"i c #D9650E",
"p c #D9660E",
"a c #DE6F10",
"s c #E07411",
"d c #E17411",
"f c #E37912",
"g c #E58117",
"h c #E68217",
"j c #EEA32A",
"k c #EFA32A",
"l c #EFA42A",
"z c #F1AF31",
"x c #F2AF31",
"c c #F2B031",
"v c #F7C13A",
"b c #FEDD4B",
"n c #FFDE4B",
"m c #FFDE4C",
"M c #FFE25E",
"N c #FFE25F",
"B c #FFE369",
"V c #FFE469",
"C c #FFE56F",
"Z c #FFE572",
"A c #FFE573",
"S c #FFE673",
"D c #FFEEA2",
"F c #FFEFA8",
"G c #FFEFAC",
"H c #FFF0AD",
"J c #FFF3B9",
"K c #FFF3BD",
"L c #FDF4CB",
"P c #FFF5CA",
"I c #FFF6CB",
"U c #FEF5CC",
"Y c #FFF6CD",
"T c white",
"R c None",
/* pixels */
"RRRRRRRRRRRRRRRRRRRRRRRRRRRRRRRRRRRRRRRRRRRRRRRRRRRRRRRRRRRRRRRR",
"RRRRRRRRRRRRRRRRRRRRRRRRRRRRRRRRRRRRRRRRRRRRRRRRRRRRRRRRRRRRRRRR",
"RRRRRRRRRRRRRRRRRRRRRRRRRRRRRRRRRRRRRRRRRRRRRRRRRRRRRRRRRRRRRRRR",
"RRRRRRRRRRRRRRRRRRRRRRRRRRRRRRRRRRRRRRRRRRRRRRRRRRRRRRRRRRRRRRRR",
"RRRRRRRRRRRRRRRRRRRRRRRRRRRRRRRRRRRRRRRRRRRRRRRRRRRRRRRRRRRRRRRR",
"RRRRRRRRRRRRRRRRRRRRRRRRRRRRRRRRRRRRRRRRRRRRRRRRRRRRRRRRRRRRRRRR",
"RRRRRRRRRRRRRRRRRRRRRRRRRRRRRRRRRRRRRRRRRRRRRRRRRRRRRRRRRRRRRRRR",
"RRRRRRRRRRRRRRRRRRRRRRRRRRRRRRRRRRRRRRRRRRRRRRRRRRRRRRRRRRRRRRRR",
"RRRRRRRRRRRRRRRRRRRRRRRRRRRRRRRRRRRRRRRRRRRRRRRRRRRRRRRRRRRRRRRR",
"RRRRRRRRRRRRRRRRRRRRRRRRRRRRRRRRRRRRRRRRRRRRRRRRRRRRRRRRRRRRRRRR",
"RRRRRRRRRRRRRRRRRRRRRRRRRRRRRRRRRRRRRRRRRRRRRRRRRRRRRRRRRRRRRRRR",
"RRRRRRRRRRRRRRRRRRRRRRRRRRRRRRRRR RRRRRRRRRRRRRRRRRRRRRRRRRRRRRR",
"RRRRRRRRRRRRRRRRRRRRRRRRR RRRRRR  RRRRRRRRRRRRRRRRRRRRRRRRRRRRRR",
"RRRRRRRRRRRRRRRRRRRRRRRR    RRR    RRRRRRRRRRRRRRRRRRRRRRRRRRRRR",
"RRRRRRRRRRRRRRRRRRRRRRR      RRR   RRRRRRRRRRRRRRRRRRRRRRRRRRRRR",
"RRRRRRRRRRRRRRRRRRRRRRRR      R   RRRRRRRRRRRRRRRRRRRRRRRRRRRRRR",
"RRRRRRRRRRRRRRRRRRRRRRRR     RRo   RRRRRRRRRRRRRRRRRRRRRRRRRRRRR",
"RRRRRRRRRRRRRRRRRRRRRRRRR     ooo RRRRRRRRRRRRRRRRRRRRRRRRRRRRRR",
"RRRRRRRRRRRRRRRRRRRRRRRRR    Rooo RRRRRRRRRRRRRRRRRRRRRRRRRRRRRR",
"RRRRRRRRRRRRRRRRRRRRRRRRR    oooo RRRRRRRRRRRRRRRRRRRRRRRRRRRRRR",
"RRRRRRRRRRRRRRRRRRRRRRRRR    ooooRRR@@RRRRRRRRRRRRRRRRRRRRRRRRRR",
"RRRRRRRRRRRRRRRRRRRRRRRRR    ooooRXX@@RRRRRRRRRRRRRRRRRRRRRRRRRR",
"RRRRRRRRRRRRRRRRRRRRRRRRR    ooooRXXXXXRRRRRRRRRRRRRRRRRRRRRRRRR",
"RRRRRRRRRRRRRRRRRRRRRRRRR    oooRXXXXXXRRRRRRRRRRRRRRRRRRRRRRRRR",
"RRRRRRRRRRRRRRRRRRRRRRRRR   @@oo##443XXRRRRRRRRRRRRRRRRRRRRRRRRR",
"RRRRRRRRRRRRRRRRRRRRRRRRR   @@oo#44443XXRRRRRRRRRRRRRRRRRRRRRRRR",
"RRRRRRRRRRRRRRRRRRRRRRRRR   @@oX4444443RRRRRRRRRRRRRRRRRRRRRRRRR",
"RRRRRRRRRRRRRRRRRRRRRRRRR   @@@X4444443RRRRRRRRRRRRRRRRRRRRRRRRR",
"RRRRRRRRRRRRRRRRRRRRRRRRR  @@@o#4444443RRRRRRRRRRRRRRRRRRRRRRRRR",
"RRRRRRRRRRRRRRRRRRRRRRRRR  @@@o##44443XRRRRRRRRRRRRRRRRRRRRRRRRR",
"RRRRRRRRRRRRRRRRRRRRRRRR   @@@o###443XXRRRRRRRRRRRRR&RRRRRRRRRRR",
"RRRRRRRRRRRRRRRRRRRRRRRRR R@@@######XXXRRRRRRRRRRRRRRRRRRRRRTRRR",
"RRRRRRRRRRRRRRRRRRRRRRRRRR@@@@######qqqRRRRRRRRRRRRRRRRRRRTRRRRR",
"RRRRRRRRRRRRRRRRRRRRRRRRRR@@@@#####qqqqqRRRRRRRRRRRRRRRRRTRRRRRR",
"RRRRRRRRRRRRRRRRRRRRRRRRRR@@@@R###qqqqqqqRRRRRRRRRRRRRRRTRRRRRRR",
"RRRRRRRRRRRRRRRRRRRRRRRRRwwwwww#--qqqqqqqRRRRRRRRRRRRRRTRRRRRRRR",
"RRRRRRRRRRRRRRRRRRRRRRRRwwwwwwww--qqqqqqqRRRRRRRRRRRRRRRRRRRRRRR",
"RRRRRRRRRRRRRRRRRRRRRRRRwwwwwwwww-<qqqqqRRRRRRRRtttttRRRRRRRRRRR",
"RRRRRRRRRRRRRRRRRRRRRRRRwwwwwwwww<<<qqqRRRRRRRRRtttttRRRRRRRRRRR",
"RRRRRRRRRRRRRRRRRRRRRRRRwwwwwwwww::<<  RRRRRRRRRtttttRRRRRRRRRRR",
"RRRRRRRRRRRRRRRRRRRRRRRRwwwllllll:::99999RRRRRRRtttttRRRRRRRRRRR",
"RRRRRRRRRRRRRRRRRRRRRRROwwlllllllj:::9iiiiRRRRRRtttttRRRRRRRRRRR",
"RRRRRRRRRRRRRRRRRRRRRROOfwllllllllj:iiiiiiiiRRRRRRRRRRRRRRRRRRRR",
"RRRRRRRRRRRRRRRRRRRRROOOssssllllllluiiiiiiiiRRRRRRRRRRRRRRRRRRRR",
"RRRRRRRRRRRRRRRRRRROOOssssssssllllliiiiiiiiiiRRRRRRRRRRRRRRRRRRR",
"RRRRRRRRRRRRRRRRRROOOOsssssssssllljiiiiccccii66RRRRRRRRRRRRRRRRR",
"RRRRRRRRRRRRRRRROOOOOsssssssssVVVlaiiicccccci666RRRRRRRRRRRRRRRR",
"RRRRRRRRRRRRRRRROOOOOsssssssVVVVVVBiicccccccx6666RRRRRRRRRRRRRRR",
"RRRRRRRRRRRRRRROOOOOOsssssssVVVVVMMMMcccccccx6666RRRRRRRRRRRRRRR",
"RRRRRRRRRRRRRRROOOOOOssssssVVVCCMMMMMMMcccccx6666RRRRRRRRRRRRRRR",
"RRRRRRRRRRRRRRRRRROOO*sssssVCCCMMMMMMMMMccccx666RRRRRRRRRRRRRRRR",
"RRRRRRRRRRRRRRRRRRRRR*sssssCCCMMMMMMMMMMMcccx66RRRRRRRRRRRRRRRRR",
"RRRRRRRRRRRRRRRRRRRR*=hssssCCCMMMMMHHHMMMcccx55RRRRRRRRRRRRRRRRR",
"RRRRRRRRRRRRRRRRRRRR==hhvnCCCCYYYHHHHHHHMScx555RRRRRRRRRRRRRRRRR",
"RRRRRRRRRRRRRRRRRRR===-nnnCCYYYYYYHHHHHHHSy885RRRRRRRRRRRRRRRRRR",
"RRRRRRRRRRRRRRRRRR%%==nnnnKKYYYYYYYHHHHHHSy88RRRRRRRRRRRRRRRRRRR",
"RRRRRRRRRRRRRRRRR%%%%-nnnnKYYYYYYYIIIIIHHSy888@RRRRRRRRRRRRRRRRR",
"RRRRRRRRRRRRRRRR%%%%%nnnnnKYYYYYYIIIIIIIHSy888@@@RRRRRRRRRRRRRRR",
"RRRRRRRRRRRRRRRR%%%%%nnnnnKYYYYYYIIIIIIIGyrr8@@@@RRRRRRRRRRRRRRR",
"RRRRRRRRRRRRRRRR%%%%%nnnnnnKYYJJJJJIIIIIGrrr82@@@@RRRRRRRRRRRRRR",
"RRRRRRRRRRRRRRRR%%%%%nnnnnnSDJJJJJJJIIIIGrr2222@@@@RRRRRRRRRRRRR",
"RRRRRRRRRRRRRRRR%%%%%%nnnnnSYJJJJJJJIIIIrr222222@@RRRRRRRRRRRRRR",
"RRRRRRRRRRRRRRRR%%%%%%%nmnnYYJJJJJJJIIII@222222@RRRRRRRRRRRRRRRR",
"RRRRRRRRRRRRRRRRR%%%%%%%TnnYYJJJJJJJFFY   @22@@RRRRRRRRRRRRRRRRR"
};
