/* XPM */
static char *wall_71711330745[] = {
/* columns rows colors chars-per-pixel */
"64 64 211 2 ",
"   c #070000",
".  c #0C0100",
"X  c #130401",
"o  c #190601",
"O  c #160C05",
"+  c #1D0B02",
"@  c #1B1106",
"#  c #1D140C",
"$  c #1F1B17",
"%  c #210D01",
"&  c #251204",
"*  c #2A1505",
"=  c #2E1A06",
"-  c #24130A",
";  c #291609",
":  c #25190B",
">  c #2B1A0B",
",  c #311C07",
"<  c #321D0B",
"1  c #261914",
"2  c #2A1C14",
"3  c #231D19",
"4  c #35220E",
"5  c #39240F",
"6  c #2A2017",
"7  c #24211D",
"8  c #2D231C",
"9  c #342313",
"0  c #3B2612",
"q  c #3E2814",
"w  c #34241C",
"e  c #39271C",
"r  c #39291B",
"t  c #262522",
"y  c #2A2723",
"u  c #2C2926",
"i  c #2D2C2B",
"p  c #342D25",
"a  c #382F27",
"s  c #312D2B",
"d  c #34312E",
"f  c #3B322B",
"g  c #353434",
"h  c #393836",
"j  c #373739",
"k  c #393738",
"l  c #3A3A39",
"z  c #402A14",
"x  c #442F1B",
"c  c #46311D",
"v  c #412D23",
"b  c #453324",
"n  c #4B3522",
"m  c #4A392B",
"M  c #533E2C",
"N  c #463D37",
"B  c #513F31",
"V  c #57422F",
"C  c #4D4337",
"Z  c #554433",
"A  c #594636",
"S  c #594838",
"D  c #5D4B3B",
"F  c #614B34",
"G  c #624E3D",
"H  c #62503E",
"J  c #474644",
"K  c #4A4B4B",
"L  c #514D49",
"P  c #595149",
"I  c #4D4E50",
"U  c #4F5152",
"Y  c #525255",
"T  c #55565A",
"R  c #58575C",
"E  c #56585C",
"W  c #58595D",
"Q  c #624F42",
"!  c #655345",
"~  c #6C5642",
"^  c #675749",
"/  c #6C5B4C",
"(  c #715A4A",
")  c #655B54",
"_  c #73604E",
"`  c #6F655E",
"'  c #746252",
"]  c #7D6855",
"[  c #75675B",
"{  c #7D6B5D",
"}  c #565A60",
"|  c #5D6062",
" . c #6B6762",
".. c #756C64",
"X. c #7A6D60",
"o. c #7D7166",
"O. c #836D5D",
"+. c #8A735E",
"@. c #816F60",
"#. c #837263",
"$. c #8D7762",
"%. c #84756A",
"&. c #8B7A6C",
"*. c #927D6A",
"=. c #8C7D71",
"-. c #877E78",
";. c #928272",
":. c #948375",
">. c #9B8675",
",. c #9C8974",
"<. c #94857A",
"1. c #998779",
"2. c #96887C",
"3. c #9C8B7D",
"4. c #A08C7A",
"5. c #A5917E",
"6. c #AA957E",
"7. c #9D8D81",
"8. c #9D9387",
"9. c #9A9690",
"0. c #A08E81",
"q. c #A49384",
"w. c #AB9683",
"e. c #A69887",
"r. c #AE9985",
"t. c #A6968A",
"y. c #A89688",
"u. c #A6998B",
"i. c #AB9B8B",
"p. c #B19B86",
"a. c #B39E8B",
"s. c #B99E89",
"d. c #A79B96",
"f. c #AE9C90",
"g. c #B19F90",
"h. c #B6A18D",
"j. c #B9A28E",
"k. c #AFA091",
"l. c #B5A493",
"z. c #BAA592",
"x. c #BDA996",
"c. c #B6A698",
"v. c #B9A798",
"b. c #BDAC9A",
"n. c #BFB09C",
"m. c #B0A9A3",
"M. c #C2AB95",
"N. c #C2AE9B",
"B. c #C4B19E",
"V. c #C9B49F",
"C. c #C9B89F",
"Z. c #D1B59F",
"A. c #C1AFA1",
"S. c #C5B3A2",
"D. c #C9B6A3",
"F. c #CCBAA5",
"G. c #C6B8AB",
"H. c #CEBDAA",
"J. c #D0BCA6",
"K. c #D1BEAB",
"L. c #C8BDB1",
"P. c #D1BFB0",
"I. c #CFC0AB",
"U. c #D2C1AD",
"Y. c #D9C4AE",
"T. c #C4C2BA",
"R. c #D5C4B2",
"E. c #D9C6B3",
"W. c #D7C8B5",
"Q. c #DAC9B5",
"!. c #D4C6BA",
"~. c #D9C7B8",
"^. c #D6C9BA",
"/. c #DCCCBB",
"(. c #DFD1BE",
"). c #E2CBB5",
"_. c #E1CFBC",
"`. c #E2D1BE",
"'. c #E8D3BE",
"]. c #D6CEC0",
"[. c #DFD2C1",
"{. c #DBD3C8",
"}. c #D9D6CA",
"|. c #DDDBD2",
" X c #E1CEC0",
".X c #E3D4C3",
"XX c #E8D6C4",
"oX c #E6D8C6",
"OX c #EAD8C6",
"+X c #E6D6C8",
"@X c #E8D7C8",
"#X c #E5D9CA",
"$X c #EBDBCB",
"%X c #F1DDC9",
"&X c #EEDFD3",
"*X c #EEE1CF",
"=X c #F4E2CD",
"-X c #EDE2D3",
";X c #E8E4DA",
":X c #F3E3D3",
">X c #F5E8D7",
",X c #F2E6DA",
"<X c #F5EBDC",
"1X c #F9EADC",
"2X c #EFE8E0",
"3X c #F4EDE0",
"4X c #F9EEE2",
"5X c #FAF2E4",
"6X c #FBF5EB",
"7X c #FDF9ED",
"8X c #FCF9F0",
/* pixels */
"E E T E E E U T T T Y E T E Y T } T T T T U E T E E E Y T T E T E T E R T E } } E T E E E W E T E E E W E E E E E E E E E E E E ",
"} J }.;X;X7X7X7X7X7X7X7X7X<X|.}.c.l J 9.m.].|.|.;X;X3X5X6X6X6X6X6X6X8X6X|.p | U 8.5X<X3X5X3X<X5X<X<X<X<X>X>X>X-X}.}.].^.T. .U E ",
"T 3X*X*XoX'.'.'.*X=X>X:X=X>X=X*X*X<XO &X;X-X$X$X$X$X$X$X+X+X#X[..X.X.X[..X#X8 2 (.(.).).Q.(.Q.Q.Q.).Y.Q.Q.Q.W.W.W.Y.Y.I.I.oX) E ",
"E 7X`.Q.Q.Q.Q.Q.Q.Q./.`.`..X`.`..XoX: #X#X#XoXoXXX+X.X[..X X X X/.[.[././. X,Xm W.Y.Y.I.Y.U.Y.U.I.I.I.I.I.I.J.J.J.I.C.I.I.C.;XC ",
"E 5XQ.E.E.E.Q.Q.Q.Q.Q.Q.`.`.`.`.Q.`.: XXoXXXoX.X.X.X.X[./.[. X/.]./././.Q./..X2 I.I.I.J.I.I.U.H.I.I.I.I.J.J.I.J.I.C.C.C.I.C.[.h ",
"E 4XQ.E.Y.E.Y.Y.Q.E.Q.).Q._.Q.Q.`.`.> .X.X.X`..X.X[..X/. X/.~.[.[./.^.Q././.XX2 Z.I.Y.J.I.U.F.K.J.I.J.I.J.I.I.C.I.C.I.C.C.C.oXh ",
"T ,XQ.R.Y.Y.W.W.Q.Q.Q.Q._.Q.`.Q.Q.(.$ oX.X.X.X(.[. X/./.[.[././.^.~.Q./.~.^.[.- I.I.I.I.J.I.K.H.J.I.J.J.I.C.I.J.C.F.C.I.I.C.[.h ",
"R -XE.Y.Y.W.Y.W.Y.Q.Q.Q.Q.Q./._.Q./.6 .X[.`.(..X/.[. X[./././.^././.^.^.~.~./.O C.I.I.J.Y.I.K.U.I.I.I.I.I.I.J.J.I.F.C.C.C.I.^.h ",
"Y *XY.U.Y.U.E.E.E.Y.Y.Q.Q.Q.Q.(.E./.1 .X/..X(././.[.(./.]./.].Q.^.~.Q.~.^.E.^.X D.F.I.U.H.U.K.U.H.U.I.I.I.F.F.F.F.C.I.C.C.C.(.h ",
"P *XY.Y.U.Y.U.Y.W.Y.E.E.Q.W.Q.Q.Q._.O  X`.`.(.(.[././././././.Q./.~.^.~.^.R./.. H.I.I.I.U.F.U.H.I.F.H.H.F.F.I.F.I.F.C.C.C.J.^.g ",
"T *XQ.Y.U.U.K.Y.Y.Y.W.W.Y.W.U.Y.K.@XX /.`._./.Q.^././.(./.Q.Q.E.U.K.^.E.E.P./.X F.J.F.I.I.U.U.U.I.F.H.H.I.F.H.F.C.C.C.C.C.I.!.h ",
"W >XQ.Y.Y.U.Y.R.Y.Y.U.I.I.U.U.Y.~.Q > Q V.K.J.Y.N.B.z.r.w.w.w.w.>.:.3.>.1._ % - h.Y.U.I.U.K.F.F.F.I.H.I.U.I.F.H.C.I.I.I.F.C.c.g ",
"| @ & + + + & % o X c , O X % & b ,X5X>X=X=X=X=X=X=X=X5 z M < X > P { i.].1X&XXXc.9 O X     . X X + = O . + & - - % @ + X @ # d ",
"W 6X<X>X:X-X$X$X$XOX% XX`./.`.`..X.X`..X`.`.`.`.`.Q.`.`.O b 2./.H.D.F.G.G.H.F.G.F.B.b.b.N.b.l.r.w.5.w L.#X/./.Q.Q./.Q.R.U.I.W.7 ",
"E 4X#X*X@X@X@X@X@X+XH K.Q././._./._././.`./.(.Q./.`.(.Q.$XX W.I.D.D.D.S.D.S.S.S.S.S.b.b.v.l.h.h.w.r.A $XE.^.E.R.E.R.U.W.I.I.F.7 ",
"U <X$X@X#X+XXXXX.X.Xa.).Q.Q./.Q._././././.Q././.Q.Q.Q.Q.@Xi.I.D.S.S.S.S.S.S.S.A.n.n.b.b.b.x.v.h.h.i.G .XE.E.U.U.U.U.U.U.U.F.I.7 ",
"U <X$X$XXXXX.X#X.X+XU.).Q.~.~.Q./.Q././.~./.~.Q.Q.).Q.Q.=X>XG.S.S.B.N.S.S.G.S.n.n.n.b.b.x.x.z.l.h.a._ (.U.U.E.U.U.I.U.H.F.F.F.7 ",
"K <X$XoX+XXX#X.X.XXX`.).Q.~./.Q.E./.Q.Q.Q.~.Q.Q.Q.E.Q.E.(.=XS.S.B.S.B.S.n.S.n.n.n.n.n.n.n.x.x.z.h.p.#.(.Y.Y.U.I.U.K.U.U.I.F.F.7 ",
"K <X@XoX#X.X{..X.X.X'.Y.~.~.~./.Q./.Q./.Q.Q.~.Q.E.E.Q.R.C.'.D.C.S.B.A.S.A.S.S.S.n.n.n.n.n.x.x.l.h.a.,.`.I.Y.U.I.H.H.F.F.F.F.F.3 ",
"K <X$XoX.XoX.X.X.X.X).Z.)././.Q.)./.Q.Q.~.Q.Q.Q.Q.Q.Q.Y.r.Q.C.n.S.S.S.S.G.S.S.S.S.n.n.n.n.x.x.z.h.j.r.`.I.I.I.I.U.U.I.K.F.F.B.6 ",
"K 1XOXoXoXoX.X{.{..XQ.s.Q.Q././.Q.Q./.Q.Q.~.^.Q.Q.E.Y.Y.,.Q.B.S.S.S.S.S.S.S.S.n.n.G.n.A.b.n.b.x.x.b.B.`.U.F.Z.I.I.J.J.F.F.F.B.3 ",
"K <X$XoX.X.X.XoX.X XE.+.Q.Q.E./././.Q./.Q.Q.E.Q.E.Q.E.U.&.Q.S.B.B.B.n.S.n.S.n.S.S.n.n.S.S.b.b.b.x.z.N.'.I.U.I.I.I.I.I.F.F.V.V.3 ",
"I 1XOXoX{.oXoX[.[._.J.z Q.Q.Q.).R.Q.Q.E.^.Q.E.E.E.Y.U.K.D R.S.D.S.B.S.B.n.S.B.b.b.S.n.n.b.S.A.N.x.z.n.%XI.I.I.I.F.J.F.C.C.B.B.# ",
"I 1XOXoXoX.XoX`.).E.p.% ).E.Q.E.Y.Q.E.E.E.Y.Y.U.Y.Y.Y.F.@  XN.A.B.S.S.S.D.B.B.G.N.S.A.b.S.b.S.b.v.x.B.z.J.J.C.F.F.C.F.C.B.N.b.# ",
"U >X(.Q.E.Y.U.F.F.~ + F.! b 4 ~ j.J.Y.J.F.B.C.M.j.M.s.+.X O.M.V.B.C.M.M.U.U.U.Y.H.H.S.A.K.D.D.H.N.>.G % 4.K.E.K.Y.U.V.M.x.x.S.$ ",
"E u.B.h.h.h.h.,.V > $XoX&X#X$X$X$XQ.0 x 0 < * z H $.M.%X:X@XOX%X$X$X$X$X=X%X=XQ.G ; ; p 3.D.Q.$X1X&X&X@X&XXXD.>.~ w O X X % . u ",
"W C X.;.;.+.Z r / (.@X*X&X#X.X X`..X= Y.:XoX[././.~.)././.~.~.Q.Q.E.E.E.Q.R.Q.Q.R.Z G.+X+X_.Q.Q.Q.~.Q.~.E.E.E.!.R.U.E.E./.R.Q.7 ",
"W E f S Z ! o.t.c.#X$X#X.X.X X X`..Xn `.Q.Q.Q.^.~./.~.~.~.Q.^.~.Q.^.^.E.R.Q.Q.R.P.S.@X X/.Q.Q.R.E.E.Q.R.Q.R.E.R.R.R.E.U.U.U.I.7 ",
"E E ) 4.;.e.l.b.I.#X+X.X.X[.[.[././.M /.Q.~.^.E.Q.R.~.~.R.R.R.R.R.R.~.R.R.R.R.R.K.$X%X/.^.R.R.R.U.R.R.R.R.R.R.R.R.U.U.Y.U.I.I.8 ",
"E L x.v.b.B.S.S.(.XX X.X X[.[././.[.G _.Q.E.E.!.Q.R.R.~.~.R.R.R.~.~.R.R.E.R.R.~.E. XOXP.R.U.U.R.U.U.R.P.R.H.H.R.R.R.Y.U.U.U.U.7 ",
"E  .`.x.n.S.S.F.+X/..X X X X.X[.[./.D /.~.!.R.E.R.R.R.R.R.R.R.R.R.P.R.R.R.R.R.R.R.K..XU.H.I.R.H.I.P.P.R.I.R.R.R.U.I.Y.J.I.U.I.t ",
"E d.'.r.S.S.G.^._././.[. X[.[././.Q.Z _.E.E.E.R.R.R.R.~.R.R.P.!.P.~.R.R.R.R.R.P.U.S.Q.H.I.R.H.R.P.R.R.H.R.U.H.H.H.U.I.I.I.I.R.y ",
"R m.'.4.A.D.G.~. X/.~. X[.[.[./././.B ).R.R.R.~.R.R.R.R.R.R.R.U.R.R.R.R.R.!.R.R.Y.j.^.F.U.H.U.I.H.R.H.I.I.I.U.P.I.P.K.K.J.K.U.u ",
"R L.'.z.D.G.K.^././. X[.[./.[.[.Q.Q.Q ~.R.R.~.R.U.R.U.R.R.R.I.R.R.P.R.R.I.R.R.P.F.h.Q.I.U.U.U.U.R.U.I.P.H.U.I.U.U.K.K.K.J.K.R.s ",
"R !.XX_.G.F.H.[.[./. X~. X[.[._./.~.' /.Q.R.E.R.R.R.I.!.R.R.R.R.R.R.R.I.R.R.R.R.U.,.^.H.H.U.U.U.R.I.R.K.U.H.K.U.U.K.U.K.K.H.K.s ",
"} .X_._.D.P.R.]./.[.[.[. X~./.[.Q.R.m ~.R.R.E.P.R.U.R.P.P.P.U.I.P.H.P.R.P.K.R.H.F.;.Q.F.F.U.F.U.H.U.H.U.U.U.U.U.U.H.K.J.J.H.H.g ",
"} &X X_.,.R.E./././._././. X/./.Q.R.- E.K.E.P.P.H.K.K.K.H.K.K.H.K.K.K.K.F.U.F.U.B.H R.F.F.U.J.K.H.U.U.K.U.U.Y.K.K.H.J.J.J.F.D.g ",
"} &X)./.i./.^.Q.~././.~.~.^.~.Q.~.!.. n.H.F.F.D.D.H.D.D.F.F.D.D.D.D.S.V.G.B.D.B.r.b `.F.F.F.F.F.F.H.F.K.K.F.F.J.F.F.J.F.F.D.c.g ",
"} !._.Q./.- #X XQ.Q.~.Q.)./._.+X~.G.. @.z.M.M.g.s.w.q.*.$.] ] O.$.*.;.>.1.:.' Z e 6 2 F.F.C.D.D.D.B.D.F.J.K.J.F.K.F.K.F.H.H.[ j ",
"R P 9 4 / %.B 9 9 e b M A ! / / ' g.G.i.4.a.w.r.$.V = ,.$X>X$X$X$X$XXX/.D.F.b.l.;./ e & % % + o X v b . X o + % + % O - # O 1 i ",
"R {.@X@X@XXX+X.XXX.X.X X X[.Q.Q.~.~.Q.~.Q.E.R.P.P.H.w. XR.~.~.E.E.E.!.R.!.R.R.I.R.!.P.G.H.H.H.S.S.S.b.G.n.n.b.b.c.l.h.l.i.k.c.u ",
"T 2X@X X X_.[.[./././.~.Q.~.^.~.Q.E.R.Q.R.R.R.H.P.P.E.J.R.R.~.~.E.E.R.U.U.R.P.R.R.P.K.H.H.H.G.S.n.S.b.a.f.i.i.i.i.i.i.i.i.u.u.y ",
"T 4X.X X/./.Q.~.Q.E.R.E.E.~.~.E.R.R.R.R.R.R.H.K.K.K.P.~ K.R.R.R.I.I.U.R.R.P.I.P.R.H.H.H.L.P.P.H.G.G.e.u.f.f.i.a.i.i.i.i.e.e.u.i ",
"E 4X X/.~.R.Q.~.~.~.R.R.~.E.R.E.R.R.K.E.K.P.P.H.K.K.P.< P.R.R.P.R.R.P.R.!.U.R.R.P.P.P.H.H.I.H.H.K.K.&.y.u.i.u.r.y.y.u.u.y.e.u.u ",
"R 4X X/.Q.~.R.E.E.E.R.!.R.R.R.R.R.R.R.R.H.H.H.H.K.J.H.+ P.P.R.R.R.R.R.P.U.U.R.I.H.P.H.H.G.H.H.H.K.H.! i.i.w.i.u.y.e.q.u.e.q.e.u ",
"T ,X[./.~.Q.R.E.R.R.R.R.R.R.R.R.R.R.P.R.H.R.F.H.F.H.D.% R.H.H.R.P.I.R.I.!.U.H.R.H.R.P.P.H.H.H.H.G.P.b i.u.i.u.u.y.e.q.7.q.q.q.i ",
"T ,X/.~.E.E.E.~.R.E.R.R.R.P.R.R.R.H.H.G.H.F.H.F.F.F.D.G P.H.K.K.I.R.P.R.L.P.H.P.I.H.P.I.H.H.H.F.G.H.w y.e.u.e.e.q.q.q.5.q.e.=.s ",
"R :X/.Q.E.!.R.R.R.R.R.U.R.H.R.P.P.H.H.H.H.F.F.F.F.D.F.a.R.H.K.K.R.P.H.P.K.K.P.H.P.P.H.H.H.G.H.H.G.H.- e.q.q.q.q.5.3.3.q.D &.u.g ",
"T &X/.~.Q.E.E.P.E.P.P.K.K.L.J.K.K.F.H.D.D.D.D.D.D.D.D.Q.R.J.K.K.K.K.K.J.H.P.P.H.H.F.H.F.F.F.F.F.D.G.+ q.5.7.7.3.1.{ @.v.c.f.t.d ",
"Y &X~.Q.P.P.P.K.K.K.K.D.J.F.D.D.D.D.D.D.D.D.N.D.S.D.D.K.E.D.D.F.G.J.D.D.F.F.D.F.F.D.H.D.F.D.V.B.N.b.o 4.q.7.1.{ M G.c.c.g.i.<.d ",
"R %XQ.K.K.J.K.J.H.J.J.J.F.V.D.N.N.V.D.N.A.D.V.Z.D.V.N.K.G N.D.D.D.D.D.V.S.D.S.V.B.N.N.V.B.N.B.B.z.l.+ 1.2.&.' U.n.n.b.v.l.i.-.g ",
"R a G ~ ~ ~ F n x 0 < 5 < < z M ( G F n z 5 < * = , < x ; ; q 9 0 c n v x x q 5 < , * + & , & & % & X w . . O     X       . a g ",
"R #X XP.P.J.P.P.K.P.K.K.P.J.D.J.z.c ).Q.K.J.H.K.D.V.B.B.S.B.B.F.D.D.D.N.D.V.V.S.D.D.N.N.B.B.b.n.V.N.G.o A.l.l.l.f.u.7.7.7.2.-.j ",
"Y [.P.K.J.J.D.H.J.F.J.D.J.F.D.D.D.- H.A.N.S.N.N.N.N.B.b.b.b.n.b.M.M.N.N.v.M.M.z.z.M.M.A.N.B.B.b.N.M.b.S y.q.q.q.7.0.7.2.<.:.o.g ",
"Y ~.P.G.J.D.J.H.D.G.F.F.J.D.D.D.F.< D.D.N.N.M.N.N.N.x.N.b.b.x.x.M.b.M.v.M.v.x.M.v.M.b.x.b.b.b.b.b.z.z.G q.q.7.7.7.7.3.7.2.2...l ",
"Y ~.F.D.D.D.D.D.D.J.G.F.D.D.D.D.F.< S.N.M.v.N.z.b.b.x.x.b.x.x.x.v.M.v.M.b.M.z.z.z.z.z.x.v.x.x.x.x.z.h.S q.7.7.7.2.7.7.2.2.7...l ",
"R P.D.D.D.D.D.D.D.D.D.D.D.D.D.D.F.; S.M.N.M.N.M.x.x.x.b.b.x.x.x.z.b.M.M.z.z.z.z.z.v.z.z.v.z.l.z.z.z.a.D 0.7.7.1.2.2.<.<.:.:...j ",
"R R.J.D.D.D.S.D.D.D.D.S.D.S.D.D.D.* B.M.v.M.v.M.x.x.z.z.z.x.l.x.z.z.z.z.v.v.z.z.z.l.z.v.v.l.z.z.z.h.a.D 0.7.1.1.<.<.<.<.:.-...j ",
"Y /.D.J.B.D.D.D.D.D.A.D.V.V.B.B.D.& M.M.s.M.s.M.v.j.j.h.z.h.v.j.z.z.z.z.z.z.z.z.z.z.g.z.z.h.z.z.z.a.a.G 7.<.7.<.<.<.<.:.:.&...j ",
"R +XD.V.N.D.V.V.D.V.D.D.V.V.B.B.N.% M.z.g.z.z.g.j.h.z.a.h.h.s.z.a.z.a.g.h.z.j.z.s.M.g.s.j.h.a.j.h.p.a.! 1.:.4.1.<.:.:.<.<.&.` g ",
"R .XS.B.B.V.N.V.V.B.B.N.B.B.M.N.M.; s.g.a.g.g.a.h.h.h.s.z.s.g.g.l.a.j.z.j.h.h.h.a.a.g.a.g.s.a.a.a.p.r.' =.0.=.=.<.=.=.=.%.o.) l ",
"} ].V.M.N.N.N.N.M.N.N.B.B.B.B.M.v.& z.s.a.s.s.a.a.a.h.a.g.a.s.a.a.l.s.j.j.h.a.a.a.s.a.a.a.p.a.a.r.6.a.D -.7.1.0.1.<.:.=.%.%.) g ",
"} L B ..%.%.[ P S C N Z ^ o.&.#.o.# 2.t.i.a.f.f.f.i.i.a.f.g.g.a.a.f.g.i.i.r.p.a.a.i.r.y.a.a.a.r.a.a.v.2 <.7.t.q.t.y.u.7.<.7.<.i ",
"T I J k g i i i i i i i i i s s d s d s s u s s u s s s u u p s s p p a p d p a a f a a p a 8 a p 8 3 y u u u s d s i t t y i l "
};
