/* XPM */
static char *floor_11711330743[] = {
/* columns rows colors chars-per-pixel */
"64 64 36 1 ",
"  c #4F5158",
". c #545257",
"X c #545357",
"o c #565857",
"O c #535258",
"+ c #52575B",
"@ c #53575B",
"# c #545458",
"$ c #54545B",
"% c #56575B",
"& c #53575E",
"* c #54545C",
"= c #56565C",
"- c #58575C",
"; c #56585C",
": c #57585C",
"> c #57585D",
", c #54585E",
"< c #555A5E",
"1 c #565B5F",
"2 c #58595E",
"3 c #5A5B5F",
"4 c #545760",
"5 c #565660",
"6 c #575761",
"7 c #555960",
"8 c #565960",
"9 c #565B61",
"0 c #575A62",
"q c #575C60",
"w c #5A5961",
"e c #595B60",
"r c #5C5B61",
"t c #595C60",
"y c #5B5C60",
"u c #595C63",
/* pixels */
"22222>2>2>2222>>222>>:2=2>>>>>>&&&&>&&>>>>>>>>2>222>2>22>>==6=82",
"222>222>22>>22>>>>>>>>%>>>>>8=>>>>>>>&&>>>>>>>>>>>2>>>22%:6====2",
"2222222222222>>>>>>>>>2>2=>2>>>->>&>&1>>>>>>>t>>2>>22>22=>=8>>=2",
">222-222>>>22>>>>>2>>>2-2e>2=6e8>>>>>>>>>>>>t>=>2>>>22>2228=%=>2",
"e222222r2>>22222222>22>>=2e>2>>>q>>>>>>>>>22>2>222>22>22=e6>=%+=",
"22222222=322>>22>>>>22>>>>>>>2>>>>3>>>>>t>2>2>2>t2>222>>>>=>>>>2",
"e22222e22>>2>2>:>>>>>>=2>>e>>>>>>>>>>>>>>>>>>2>>22>2>2>>>>=8=>%%",
"2e22e22e2>22222>>>>>>2%>>>>>2>22>>>>>>>>>>>>22>222>22>>>>>6>>=2=",
"r2222222>222-22=22:2-2>>2>2>>>>>>2222>>2>>>>22>222>2>22>>6e===&=",
"222222222t222222:222-222>>>>>>>>2>>2>2>>>>>>>2>2>>>2>>>2>>8>-=>2",
"2322223222222e222222222=222>2>22t>22>>>>2>>>>>22>222t2>>>>6=>==8",
"tt222r2222t2222222222-22>22t2>>>2>>>>>>>2>2>2>>>22>222>>>>=28==8",
"rt222222>3222t2222::22:2>2>:>>>>>>12>2>>2>>:>>222>2>2>>>>>>>>&&8",
"222t2t223232232222222:2222>:>>>q>>>>>>2>>>>>>3>>22q>2>>>>>=>>&&=",
"t22r2222>2:32222322::222:22>>>>>>>>>>>>>>>>>>>>>>>2>>28>>>>>>&&8",
"2222222222232222223322:22>:2>>>8>>>>>>>et2>>>>>>t8>>e>>>>>==%&&8",
"r2e2rt22222e2e--222=t>>q>>2>>2>>88>>>>22>>>q>>>22>>>>>>>2>>>>&&%",
"t32222222-2-22222228t>8q>>2>>>8>>>>>>>t2q>>>>222>>>q>>22>>>>&&=>",
"222er222te2222-22222>8>>>>>>>t>>2>>8>>>2>>>>2>22>>>>>2222>>>>&&>",
"er2222r322322e2e222e>q>>22222>8>22>>q>>21&8>22>28>>>22222>>>&&&8",
"2r2e222r232rr22e22t2>>q>22>2>>222222>>>2>>>q23>>22222>2>2>2>&&&%",
"22e233r3r2r222222222>>>>22>2>2222>>2t>2t>>>&>2>222>222>>>>22&&&&",
"2e2et22232tt22222t222>>>2t2>>3>22222>>>>>q&t>222222222>2>>>2&&&%",
"222e2tt22r2r22r22222te8>>222>>>>2t>>>22>t>>>>>>2222222>>2=>=&&==",
"rrr2et22r32rtr2et22t22e22222222222222>2>>>2>8t222>>>2222>2>>>%&=",
"rr23r2e22r>322222222222r2222>2>2222222>>1>>>>>2>>2>>2>22>=>:>&&>",
"t2rr2e2trtr2222>2222rt222e22222222t22>>>>>>>>222t222>>>>>>>>-%==",
"22t32t2222t22t23222rr222222222222>>22>>>1>>>>t2>28>>2>2>2>>>=+&=",
"t2e2e22r2t2r2222t2r222e22r2=2%>>22>2>2>>>4>>>>>>2222>>22>>>>=6*>",
"rteeret>2te22222r2222e2e22222>22>28822>>>>&:>>2>>>>2>>>t>>8>e===",
"t2r22223r2re222re22t22t22222>2222t>8>2>>2>>>>>>>>>>>>>>22>>>==&%",
"eeer2rr222t22er222222er222>>2222>>>8>2>28>t>>>>>t8>e222>>>=8=&%=",
"2rr22eee222r2tt>t2t>22e22t>t22222>>82222>>3>>>>>>>>>>>>>>>8>88&=",
"e22e22erereett8tt>8q28tt>>8t222>tt>822>>2=>>>>>>>>>8>>>>>>>=8=&=",
"r2e2reerrt2t2222tt2>qqq88qq>t>tq8>t82>2>t2>>t>>>>>>>2>>22>>>&=%%",
"rre2reee2re2rte2e8e8q>8t2>>>>>>t2>>2>t>>>28>>>>>q8>t>>>>>>>>&&&=",
"2ter88tetterttr22t2ttq>>tt22>>q>t>t222>2>>>2>>>2>8882>>>>8>>=6=>",
"trr2eeet2tt22r22=t>t8>qt2ee22>>t22222>22>>>2>2>228>>2>>>>>>>===8",
"tr3t88etrr2ee2r22et22e22e22222r2e2t22>2>>>22>>>2222=2>t>>8>>==66",
"euttueet22e2222e222ee2tr2222>322=e222>>>2>>>>t322222>t>t=2>8=6=e",
"e8uu88ueteee2rr2e2ee2e222222r222e2e222222>>22>>2>22>>>>22>>>:=6=",
"uet8e88u8te222222e22e2r2t222222222222222>>22=2>222>>>>22>>&>>%=8",
"88tetqu822ertr2te222tr2222222t2r2222>>>=2>2>2e>>228>>>>>=>>>=6=8",
"8etu8t88e2eee2322r2rt22e22r22222e22=2>22>>>2228>2e>>>>>2>>>>===8",
"eeeett88tee2t22e2r2rrt2e22e2222222>>e>22>>>222>>2>e222>2>>>>===e",
"ee8et8tut8eer2r222t222222222t222-2e>222>>2>>>2>>>>>>2ee>8>>2>8*e",
"=eeetu8tt83r3t2222t222r22e222222>>2>>2=2>>2>>>>28>2>>>22>>-=8=66",
"86eret8t88tt2r2re22r2e2222t22r2r222>>e22222>222>>>>2222>e>-8=*66",
"e88uqt8t8tteeeee22e2r22e2222e22222>>>22222>e22=2>22>>te22>>>2&&8",
"8888utt880tteeerrer32222222222222e2e2>22>>2-2222>8>t>>>22>22=&&8",
"=8tt88tt8ttt22ere2r2te2rr2r22222e2>22222>>t2=2>228>t>2>>>2>2==&=",
"q2t8uqt8u88tre82t22rt2e222t2r2e222>e>t>222222t22t>>>>>2>>>>-8&&8",
"481>tq8t8eeeeeeee2rtt2rt23e8>e222222q2>>>>2>3>31>8>>e=>t>>>q>&=6",
"q>138tt88eeeeree2r3222222r>te2ree2228>e>2>2>>>>>2t>>2>222>>>>4&4",
"&+11tqtteeeet22eteeeterrtt>t2te222e2>>>e>>2e23>>=>8>22>>2=>>==&&",
"&113tt8tt8e2e2e82e2r222et8qqe22222>eee>>>>2=11>>2>t>2>>>>>>>=&&>",
"4>q>t2t>eteeeee-t22tere2>eee2e2222>2>>t>>>>>>>&>e>>>2>>>>>>>>>48",
" 8>qrt2etqee=t228>22e222>e222222>222>>=>>&>&>&>&>q2t2>2>22>>>>&8",
"&1-8ttr2eqee-6e->tt>2222qe2eer2222>2>>>>>>>%>>+>>>>>>>>>>>>2>&&8",
"+&2etteteeeeee22tt>>2-228e2e22222>>2>>:>&&>&&&>>>q>222>>2>>2>488",
"+>>8eer2ee2e=682>&&1>>>>e888e22e>>2=>>>>++:&&+++>>>>2>>>8>>>>&84",
"+&q8rr2e8t22e8==+&:>>&>&e==-=22>2>8=>+&++.+++ %+&=>>28822>e>8848",
" 8q8eet8u8t28==4&:&+&&>>>>>8t%ee>>==O%&:$.OO$%%%%84&>e222>t>=8&8",
" >q>eeeett28>===:+oo+>=4>=>>>2>>>>%+&%++*=OXOXXOO&8>>8>2>2==8848"
};
