/* XPM */
static const char *aWRsZV80[] = {
/* columns rows colors chars-per-pixel */
"64 64 168 2 ",
"   c #2A1D0D",
".  c #301F0F",
"X  c #2D1F10",
"o  c #34200E",
"O  c #2F2112",
"+  c #332515",
"@  c #362718",
"#  c #372819",
"$  c #3B2C1C",
"%  c #3E2F21",
"&  c #3F3022",
"*  c #572B0F",
"=  c #482B17",
"-  c #482E1A",
";  c #572B10",
":  c #592D12",
">  c #50331F",
",  c #5D3216",
"<  c #643217",
"1  c #63371A",
"2  c #653A1C",
"3  c #713A1F",
"4  c #402F22",
"5  c #413123",
"6  c #4A3727",
"7  c #4A3926",
"8  c #4E3B2A",
"9  c #513D2B",
"0  c #5E3C2A",
"q  c #6A3F22",
"w  c #663F2C",
"e  c #773C21",
"r  c #3A4A32",
"t  c #56402E",
"y  c #59412C",
"u  c #5C4531",
"i  c #5E4C38",
"p  c #5A503A",
"a  c #6E432B",
"s  c #7E4126",
"d  c #79422A",
"f  c #734A2B",
"g  c #674E37",
"h  c #624D38",
"j  c #764531",
"k  c #6D5239",
"l  c #72563C",
"z  c #76583C",
"x  c #7A5B3F",
"c  c #7E5E43",
"v  c #47664C",
"b  c #526D53",
"n  c #5D7E5D",
"m  c #636348",
"M  c #7C6244",
"N  c #84462A",
"B  c #8C492E",
"V  c #814227",
"C  c #8D4B33",
"Z  c #934D32",
"A  c #984F34",
"S  c #8A5B37",
"D  c #9C543A",
"F  c #995035",
"G  c #A15339",
"H  c #A7583D",
"J  c #AC5B3F",
"K  c #AD5B40",
"L  c #846345",
"P  c #8F6745",
"I  c #866648",
"U  c #896748",
"Y  c #87694A",
"T  c #8D6B4A",
"R  c #926747",
"E  c #926D4C",
"W  c #9D6D44",
"Q  c #96714F",
"!  c #99724F",
"~  c #8A7D5A",
"^  c #8A7354",
"/  c #927655",
"(  c #9C7552",
")  c #9E7955",
"_  c #997E5A",
"`  c #A56848",
"'  c #A27B56",
"]  c #A57F5A",
"[  c #A87F59",
"{  c #AE7E52",
"}  c #B97554",
"|  c #5A8664",
" . c #569672",
".. c #608264",
"X. c #768764",
"o. c #749370",
"O. c #AC835C",
"+. c #B1875E",
"@. c #B1895E",
"#. c #93946D",
"$. c #A68660",
"%. c #AF8E68",
"&. c #AB8661",
"*. c #B38B63",
"=. c #BA8E64",
"-. c #BC9166",
";. c #B4926A",
":. c #BC9469",
">. c #BB996F",
",. c #BD9A70",
"<. c #8DA47B",
"1. c #BFA073",
"2. c #BCA57B",
"3. c #C4865F",
"4. c #C29365",
"5. c #C29669",
"6. c #C6996B",
"7. c #CA9D6E",
"8. c #D39266",
"9. c #C99F71",
"0. c #D4A16E",
"q. c #C3A277",
"w. c #CEA171",
"e. c #CBAA7D",
"r. c #CBA578",
"t. c #D3A473",
"y. c #D9A976",
"u. c #D0AA7A",
"i. c #DDAE7A",
"p. c #D1A479",
"a. c #DEB27E",
"s. c #E0AF7B",
"d. c #E4B37D",
"f. c #E8B67F",
"g. c #5CA982",
"h. c #6CA680",
"j. c #78BF93",
"k. c #7DD3A4",
"l. c #77EDBB",
"z. c #75F4C1",
"x. c #DEAE80",
"c. c #CFB182",
"v. c #D3B485",
"b. c #DCB886",
"n. c #DABF90",
"m. c #E4B580",
"M. c #E9B680",
"N. c #EDBA82",
"B. c #E8BF89",
"V. c #E3BA85",
"C. c #F2BE85",
"Z. c #DCC18F",
"A. c #DDC694",
"S. c #E6C38E",
"D. c #F5C187",
"F. c #F5C48B",
"G. c #F5C98F",
"H. c #E4C592",
"J. c #EFC790",
"K. c #E8CB97",
"L. c #E8CC98",
"P. c #F5CC93",
"I. c #F4D199",
"U. c #F6D7A0",
"Y. c #F5DDA6",
"T. c #F5DCA5",
"R. c None",
"E. c black",
/* pixels */
"R.R.R.R.R.R.R.R.R.R.R.R.R.R.R.R.R.R.R.R.R.R.R.R.R.R.R.R.R.R.R.R.R.R.R.R.R.R.R.R.R.R.R.R.R.R.R.R.R.R.R.R.R.R.R.R.R.R.R.R.R.R.R.R.",
"R.R.R.R.R.R.R.R.R.R.R.R.R.R.R.R.R.R.R.R.R.R.R.R.R.R.R.R.R.R.R.R.R.R.R.R.R.R.R.R.R.R.R.R.R.R.R.R.R.R.R.R.R.R.R.R.R.R.R.R.R.R.R.R.",
"R.R.R.R.R.R.R.R.R.R.R.R.R.R.R.R.R.R.R.R.R.R.R.R.R.R.R.R.R.R.R.R.R.R.R.R.R.R.R.R.R.R.R.R.R.R.R.R.R.R.R.R.R.R.R.R.R.R.R.R.R.R.R.R.",
"R.R.R.R.R.R.R.R.R.R.R.R.R.R.R.R.R.R.R.R.R.R.R.R.R.R.R.R.R.R.R.R.R.R.R.R.R.R.R.R.R.R.R.R.R.R.R.R.R.R.R.R.R.R.R.R.R.R.R.R.R.R.R.R.",
"R.R.R.R.R.R.R.R.R.R.R.R.R.R.R.R.R.R.R.R.R.R.R.R.R.R.R.R.R.R.R.R.R.R.R.R.R.R.R.R.R.R.R.R.R.R.R.R.R.R.R.R.R.R.R.R.R.R.R.R.R.R.R.R.",
"R.R.R.R.R.R.R.R.R.R.R.R.R.R.R.R.R.R.R.R.R.R.R.R.R.R.R.R.R.R.R.R.R.R.R.R.R.R.R.R.R.R.R.R.R.R.R.R.R.R.R.R.R.R.R.R.R.R.R.R.R.R.R.R.",
"R.R.R.R.R.R.R.R.R.R.R.R.R.R.R.R.R.R.R.R.R.R.R.R.R.R.R.R.R.R.R.R.R.R.R.R.R.R.R.R.R.R.R.R.R.R.R.R.R.R.R.R.R.R.R.R.R.R.R.R.R.R.R.R.",
"R.R.R.R.R.R.R.R.R.R.R.R.R.R.R.R.R.R.R.R.R.R.R.R.R.R.R.R.R.R.R.R.R.R.R.R.R.R.R.R.R.R.R.R.R.R.R.R.R.R.R.R.R.R.R.R.R.R.R.R.R.R.R.R.",
"R.R.R.R.R.R.R.R.R.R.R.R.R.R.R.R.R.R.R.R.R.R.R.R.R.R.R.R.R.R.R.R.R.R.R.R.R.R.R.R.R.R.R.R.R.R.R.R.R.R.R.R.R.R.R.R.R.R.R.R.R.R.R.R.",
"R.R.R.R.R.R.R.R.R.R.R.R.R.R.R.R.R.R.R.R.R.R.R.R.R.R.R.R.R.R.R.R.R.R.R.R.R.R.R.R.R.R.R.R.R.R.R.R.R.R.R.R.R.R.R.R.R.R.R.R.R.R.R.R.",
"R.R.R.R.R.R.R.R.R.R.R.R.R.R.R.R.R.R.R.R.R.R.R.R.R.R.R.R.R.R.R.R.R.R.R.R.R.R.R.R.R.R.R.R.R.R.R.R.R.R.R.R.R.R.R.R.R.R.R.R.R.R.R.R.",
"R.R.R.R.R.R.R.R.R.R.R.R.R.R.R.R.R.R.R.R.R.R.R.R.R.R.R.R.R.R.R.R.R.R.R.R.R.R.R.R.R.R.R.R.R.R.R.R.R.R.R.R.R.R.R.R.R.R.R.R.R.R.R.R.",
"R.R.R.R.R.R.R.R.R.R.R.R.R.R.R.R.R.R.R.R.R.R.R.R.R.R.R.R.R.R.R.R.R.R.R.R.R.R.R.R.R.R.R.R.R.R.R.R.R.R.R.R.R.R.R.R.R.R.R.R.R.R.R.R.",
"R.R.R.R.R.R.R.R.R.R.R.R.R.5 R.R.R.R.R.R.R.R.R.R.R.R.R.R.R.R.R.R.R.R.R.R.R.R.R.R.R.R.R.R.R.R.R.R.R.R.R.R.R.R.R.R.R.R.R.R.R.R.R.R.",
"R.R.R.R.R.R.R.R.R.R.R.R.R.+ $ R.R.R.R.R.R.R.( ) Z.Y.L.&.R.R.R.R.R.R.R.R.R.R.R.R.R.R.R.R.R.R.R.R.R.R.R.R.R.R.R.R.R.R.R.R.R.R.R.R.",
"R.R.R.R.R.R.R.R.R.R.R.R.R.  @ $ R.R.R.R.R.r.;.( q.v.c.q.v.R.R.R.R.R.R.R.R.R.R.R.R.R.R.R.R.R.R.R.R.R.R.R.R.R.R.R.R.R.R.R.R.R.R.R.",
"R.R.R.R.R.R.R.R.R.R.R.R.R.R.  + % R.R.R.D.I.n.] ) ' *.K.T.T.R.R.R.R.R.R.R.R.% % R.R.R.R.R.R.R.R.T.I.N.N.N.R.R.R.R.R.R.R.R.R.R.R.",
"R.R.R.R.R.R.R.R.R.R.R.R.R.R.R.X + $ R.R.R.G.J.H.*.>.H.G.G.G.R.R.R.R.R.R.R.4 @ O R.R.R.R.R.R.R.Y.P.a.O.O.6.D.R.R.R.R.R.R.R.R.R.R.",
"R.R.R.R.R.R.R.R.R.R.R.R.R.R.R.R.. = ; 2 E -.9.e.9.a.P.F.i.7.R.R.R.R.R.R.$ @ + R.R.R.R.R.R.R.T.I.i.4.R.R.*.6.R.R.R.R.R.R.R.R.R.R.",
"R.R.R.R.R.R.R.R.R.R.R.R.R.R.R.R.R.; ; 2 E O.] P 4.0.0.0.4.O.R.R.R.R.R.$ # O R.R.R.R.R.R.R.R.I.d.-.( R.R.R.( R.R.R.R.R.R.R.R.R.R.",
"R.R.R.R.R.R.R.R.R.R.R.R.R.R.R.R.; ; ; 2 E c.1., 1 1 1 1 { N.R.R.R.R.& #   R.R.R.R.R.R.R.R.R.m.O.R.R.R.R.R.R.R.R.R.R.R.R.R.R.R.R.",
"R.R.R.R.R.R.R.R.R.R.R.R.R.R.R.V ; ; ; f ! v.2.- d B B B 3.D.D.D.t.E 8 l @.d.R.R.R.R.R.T.G.t.=.R.R.R.R.R.R.R.R.R.R.R.R.R.R.R.R.R.",
"R.R.R.R.R.R.R.R.R.R.R.R.R.R.K B * ; R.R.( v.2.5 j D K K 8.F.P.m.w.;.^ $.y.y.s.R.R.R.U.I.a.5.( R.R.R.R.R.R.R.R.R.R.R.R.R.R.R.R.R.",
"R.R.R.R.R.R.R.R.R.R.R.R.R.J K B ; R.R.R.( v.2.5 5 a J J 8.G.U.,.,.Y.Y.e.( ( w.G.U.T.I.N.O.R.R.R.R.R.R.R.R.R.R.R.R.R.R.R.R.R.R.R.",
"R.R.R.R.R.R.R.R.R.R.R.R.K K K G R.R.R.N.i.B.u.L 9 6 0 0 %.H.:.w.m.P.T.p.` R.O.*.;.;.*.*.R.R.R.R.R.R.R.R.R.R.R.R.R.R.R.R.R.R.R.R.",
"R.R.R.R.R.R.R.R.R.R.R.K K K Z s R.R.4.N.t.w.7.5.L g k Y ;.e.5.V.P.P.x.3.K J ` ( ( ( ( ( R.R.R.R.R.R.R.R.R.R.R.R.R.R.R.R.R.R.R.R.",
"R.R.R.R.R.R.R.R.R.R.J K K K 3 ; ; ; W t.O.O.:.f.=.[ +.i.6.=.C.H.A.n.} K K K K R.R.R.R.R.R.R.R.R.R.R.R.R.R.R.R.R.R.R.R.R.R.R.R.R.",
"R.R.R.R.R.R.R.R.R.J K K K K 3 ; ; ; 1 S y.S.v.O.t.d.i.*.7.M.D./ i h D K K K K K R.R.R.R.R.R.R.R.R.R.R.R.R.R.R.R.R.R.R.R.R.R.R.R.",
"R.R.R.R.R.R.R.R.R.K K K G s < ; ; ; ; 2 T e.B.7.6.6.6.7.d.i.( u 5 5 w d N H K K K R.R.R.R.R.R.R.R.R.R.R.R.R.R.R.R.R.R.R.R.R.R.R.",
"R.R.R.R.R.R.R.R.R.J J J Z ; ; ; ; ; ; ; 5 ) 7.7.( L T :.7.O.6 5 5 5 5 = : B A D K R.R.R.R.R.R.R.R.R.R.R.R.R.R.R.R.R.R.R.R.R.R.R.",
"R.R.R.R.R.R.R.R.R.R.R.R.R.R.R.R.R.R.R.R.R.7 6 7 6 6 6 6 6 6 5 5 5 5 5 # o ; : 3 J J K R.R.R.R.R.R.R.R.R.R.R.R.R.R.R.R.R.R.R.R.R.",
"R.R.R.R.R.R.R.R.R.R.R.R.R.R.R.R.R.R.R.R.R.R.R.R.4 5 & & 5 5 5 5 5 5 5 @   R.R.N K K J R.R.R.R.R.R.R.R.R.R.R.R.R.R.R.R.R.R.R.R.R.",
"R.R.R.R.R.R.R.R.R.R.R.R.R.R.R.R.R.R.R.R.R.R.R.R.R.4 5 5 5 5 5 5 5 5 $ +   R.R.R.J K J R.R.R.R.R.R.R.R.R.R.R.R.R.R.R.R.R.R.R.R.R.",
"R.R.R.R.R.R.R.R.R.R.R.R.R.R.R.R.R.R.R.R.R.R.R.R.R.R.% % % % % % % % O     R.R.R.J K J R.R.R.R.R.R.R.R.R.R.R.R.R.R.R.R.R.R.R.R.R.",
"R.R.R.R.R.R.R.R.R.R.R.R.R.R.R.R.R.R.R.R.R.R.R.R.R.R.O O O O O O O O       R.R.R.J K J R.R.R.R.R.R.R.R.R.R.R.R.R.R.R.R.R.R.R.R.R.",
"R.R.R.R.R.R.R.R.R.R.R.R.R.R.R.R.R.R.R.R.R.R.R.R.R.z y +                 + C R.K K Z N R.R.R.R.R.R.R.R.R.R.R.R.R.R.R.R.R.R.R.R.R.",
"R.R.R.R.R.R.R.R.R.R.R.R.R.R.R.R.R.R.R.R.R.R.R.R.Q _ ~ 7 +             + > D K J D 3 ; R.R.R.R.R.R.R.R.R.R.R.R.R.R.R.R.R.R.R.R.R.",
"R.R.R.R.R.R.R.R.R.R.R.R.R.R.R.R.R.R.R.R.R.R.R.5 L <.k.~ y             y R K K F < R.R.R.R.R.R.R.R.R.R.R.R.R.R.R.R.R.R.R.R.R.R.R.",
"R.R.R.R.R.R.R.R.R.R.R.R.R.R.R.R.R.R.R.R.R.R.5 5 u m ../ L m  . .n k | X.E N s e R.R.R.R.R.R.R.R.R.R.R.R.R.R.R.R.R.R.R.R.R.R.R.R.",
"R.R.R.R.R.R.R.R.R.R.R.R.R.R.R.R.R.R.R.R.R.t y y 6 5 6 x T #.l.z.j.M h.o.x a q q R.R.R.R.R.R.R.R.R.R.R.R.R.R.R.R.R.R.R.R.R.R.R.R.",
"R.R.R.R.R.R.R.R.R.R.R.R.R.R.R.R.R.R.R.R.5 x ( ( y 5 5 5 l #.l.z.g.O % 5 9 T ( ( R.R.R.R.R.R.R.R.R.R.R.R.R.R.R.R.R.R.R.R.R.R.R.R.",
"R.R.R.R.R.R.R.R.R.R.R.R.R.R.R.R.R.R.R.R.-.w.y.y.6.' c c k p b v r   O # 8 E ( ( ( R.R.R.R.R.R.R.R.R.R.R.R.R.R.R.R.R.R.R.R.R.R.R.",
"R.R.R.R.R.R.R.R.R.R.R.R.R.R.R.R.R.R.R.D.D.G.P.P.P.x.=.' c u 5 +       @ 8 E ( ( ( R.R.R.R.R.R.R.R.R.R.R.R.R.R.R.R.R.R.R.R.R.R.R.",
"R.R.R.R.R.R.R.R.R.R.R.R.R.R.R.R.R.R.F.D.F.I.Y.Y.Y.I.M.+.) L 6 +       @ 8 E ( ( ( R.R.R.R.R.R.R.R.R.R.R.R.R.R.R.R.R.R.R.R.R.R.R.",
"R.R.R.R.R.R.R.R.R.R.R.R.R.R.R.R.R.R.F.G.I.T.Y.Y.Y.I.C.d.-.L 6 +       @ 8 E ( ( ( ( R.R.R.R.R.R.R.R.R.R.R.R.R.R.R.R.R.R.R.R.R.R.",
"R.R.R.R.R.R.R.R.R.R.R.R.R.R.R.R.R.R.F.G.T.Y.Y.Y.Y.I.D.D.6.L 5 +       @ 8 E ( ( ( ( ( R.R.R.R.R.R.R.R.R.R.R.R.R.R.R.R.R.R.R.R.R.",
"R.R.R.R.R.R.R.R.R.R.R.R.R.R.R.R.R.R.F.G.T.Y.Y.Y.Y.I.D.D.6.L 6 +       @ 8 E ( ( ( ( ( ( R.R.R.R.R.R.R.R.R.R.R.R.R.R.R.R.R.R.R.R.",
"R.R.R.R.R.R.R.R.R.R.R.R.R.R.R.R.R.R.F.G.T.Y.Y.Y.Y.I.D.D.6.L 6 +       @ 8 E ( ( ( ( ( ( ( R.R.R.R.R.R.R.R.R.R.R.R.R.R.R.R.R.R.R.",
"R.R.R.R.R.R.R.R.R.R.R.R.R.R.R.R.R.R.F.G.T.Y.Y.Y.I.G.N.7.O.L 6 +       @ 8 E ( ( ( ( ( ( ( ( R.R.R.R.R.R.R.R.R.R.R.R.R.R.R.R.R.R.",
"R.R.R.R.R.R.R.R.R.R.R.R.R.R.R.R.R.F.G.P.T.Y.Y.Y.G.D.M.O.( L 6 +       @ 8 E ( ( ( ( ( ( ( I R.R.R.R.R.R.R.R.R.R.R.R.R.R.R.R.R.R.",
"R.R.R.R.R.R.R.R.R.R.R.R.R.R.R.R.R.F.P.Y.Y.Y.Y.Y.G.D.M.O.( L 6 +       @ 8 E ( ( ( ( ( ( ( k 5 R.R.R.R.R.R.R.R.R.R.R.R.R.R.R.R.R.",
"R.R.R.R.R.R.R.R.R.R.R.R.R.R.R.R.R.F.F.P.T.Y.I.P.F.y.@.' ( L 6 +       @ 8 E ( ( ( ( ( ( ( k 5 R.R.R.R.R.R.R.R.R.R.R.R.R.R.R.R.R.",
"R.R.R.R.R.R.R.R.R.R.R.R.R.R.R.R.R.t.d.F.I.I.P.D.y.=.( ( ( c 5 +       @ 6 U ( ( ( ( ( ( c u 5 R.R.R.R.R.R.R.R.R.R.R.R.R.R.R.R.R.",
"R.R.R.R.R.R.R.R.R.R.R.R.R.R.R.R.R.( 5.N.D.D.C.M.+.( ( R.R.R.& +       @ 5 R.( ( ( ( ( U 9 5 5 R.R.R.R.R.R.R.R.R.R.R.R.R.R.R.R.R.",
"R.R.R.R.R.R.R.R.R.R.R.R.R.R.R.R.R.( ] -.N.D.i.O.' ( ( R.R.R.& +   R.  @ 5 R.R.R.( ( c 8 5 5 5 R.R.R.R.R.R.R.R.R.R.R.R.R.R.R.R.R.",
"R.R.R.R.R.R.R.R.R.R.R.R.R.R.R.R.R.( ( ] 5.6.=.( ( ( R.R.R.R.& @ R.R.R.R.R.R.R.R.R.z u 5 5 5 5 R.R.R.R.R.R.R.R.R.R.R.R.R.R.R.R.R.",
"R.R.R.R.R.R.R.R.R.R.R.R.R.R.R.R.R.( ( ( ( T L L E R.R.R.R.R.5 R.R.R.R.R.R.R.R.R.R.5 5 5 5 5 % R.R.R.R.R.R.R.R.R.R.R.R.R.R.R.R.R.",
"R.R.R.R.R.R.R.R.R.R.R.R.R.R.R.R.R.( ( ( ( y + + R.R.R.R.R.R.R.R.R.R.R.R.R.R.R.R.R.R.R.5 5 5 $   R.R.R.R.R.R.R.R.R.R.R.R.R.R.R.R.",
"R.R.R.R.R.R.R.R.R.R.R.R.R.R.R.R.R.R.R.R.R.$     R.R.R.R.R.R.R.R.R.R.R.R.R.R.R.R.R.R.R.R.R.# +     R.R.R.R.R.R.R.R.R.R.R.R.R.R.R.",
"R.R.R.R.R.R.R.R.R.R.R.R.R.R.R.R.R.R.R.R.R.@ + + R.R.R.R.R.R.R.R.R.R.R.R.R.R.R.R.R.R.R.R.R.R.        R.R.R.R.R.R.R.R.R.R.R.R.R.R.",
"R.R.R.R.R.R.R.R.R.R.R.R.R.R.R.R.R.R.R.R.5 5 5 & R.R.R.R.R.R.R.R.R.R.R.R.R.R.R.R.R.R.R.R.R.R.R.        R.R.R.R.R.R.R.R.R.R.R.R.R.",
"R.R.R.R.R.R.R.R.R.R.R.R.R.R.R.R.R.R.R.5 & 5 5 & R.R.R.R.R.R.R.R.R.R.R.R.R.R.R.R.R.R.R.R.R.R.R.          R.R.R.R.R.R.R.R.R.R.R.R.",
"R.R.R.R.R.R.R.R.R.R.R.R.R.R.R.R.R.R.R.& & & & 5 R.R.R.R.R.R.R.R.R.R.R.R.R.R.R.R.R.R.R.R.R.R.R.R.        R.R.R.R.R.R.R.R.R.R.R.R.",
"R.R.R.R.R.R.R.R.R.R.R.R.R.R.R.R.R.R.R.R.R.R.R.R.R.R.R.R.R.R.R.R.R.R.R.R.R.R.R.R.R.R.R.R.R.R.R.R.R.R.R.R.R.R.R.R.R.R.R.R.R.R.R.R."
};
