/* XPM */
static const char *aWRsZV8y[] = {
/* columns rows colors chars-per-pixel */
"64 64 161 2 ",
"   c #2A1D0D",
".  c #2F1F10",
"X  c #2E2110",
"o  c #322414",
"O  c #382816",
"+  c #362718",
"@  c #352819",
"#  c #3B2B1D",
"$  c #3B301D",
"%  c #3F2F21",
"&  c #3F3022",
"*  c #373F2A",
"=  c #4E2D16",
"-  c #462E1C",
";  c #492E1B",
":  c #572B10",
">  c #592C11",
",  c #42301C",
"<  c #5F3015",
"1  c #653418",
"2  c #6F381D",
"3  c #663418",
"4  c #713A1F",
"5  c #402F22",
"6  c #413123",
"7  c #4A3725",
"8  c #4A3827",
"9  c #4E3B2A",
"0  c #543E2B",
"q  c #633720",
"w  c #643F2C",
"e  c #743C21",
"r  c #7A3F23",
"t  c #4A402F",
"y  c #56412C",
"u  c #5F462D",
"i  c #494230",
"p  c #5D4631",
"a  c #5E4832",
"s  c #5E4C38",
"d  c #574431",
"f  c #57523D",
"g  c #6D4223",
"h  c #60492F",
"j  c #6A402D",
"k  c #764827",
"l  c #7F512E",
"z  c #624A34",
"x  c #694E35",
"c  c #6D523A",
"v  c #66573B",
"b  c #73563C",
"n  c #75583E",
"m  c #785A3F",
"M  c #715F46",
"N  c #7B5D41",
"B  c #517253",
"V  c #77654A",
"C  c #637D5C",
"Z  c #747050",
"A  c #7C7858",
"S  c #844429",
"D  c #8C492E",
"F  c #984F35",
"G  c #9D533A",
"H  c #9A573A",
"J  c #AC5B3F",
"K  c #A2553A",
"L  c #87613E",
"P  c #88613F",
"I  c #97623E",
"U  c #805F41",
"Y  c #AD5B40",
"T  c #856345",
"R  c #876648",
"E  c #8E6B4B",
"W  c #8B6448",
"Q  c #916D4C",
"!  c #96724E",
"~  c #99724F",
"^  c #947452",
"/  c #9C7552",
"(  c #9C7954",
")  c #A37B56",
"_  c #A47E5A",
"`  c #BE7451",
"'  c #538767",
"]  c #7F9772",
"[  c #7BA27C",
"{  c #98825E",
"}  c #AA825B",
"|  c #A78259",
" . c #B1875E",
".. c #BA8A5D",
"X. c #858460",
"o. c #948964",
"O. c #93946D",
"+. c #AC8A60",
"@. c #B58A61",
"#. c #B98E64",
"$. c #BD9266",
"%. c #B5926A",
"&. c #BA966D",
"*. c #BD996E",
"=. c #BC9D73",
"-. c #84A179",
";. c #C19568",
":. c #C5996C",
">. c #CB9D6D",
",. c #C39E71",
"<. c #CE9F70",
"1. c #D29E75",
"2. c #C3A275",
"3. c #CDA171",
"4. c #C6A77B",
"5. c #CBAB7D",
"6. c #CAA678",
"7. c #D2A372",
"8. c #D9A976",
"9. c #D2AC7C",
"0. c #DDAD79",
"q. c #E1AF7B",
"w. c #E3B27C",
"e. c #68B991",
"r. c #63BB92",
"t. c #70BA90",
"y. c #78BC92",
"u. c #73C79C",
"i. c #6DD1A4",
"p. c #75DFAF",
"a. c #77EDBB",
"s. c #75F4C1",
"d. c #86BC90",
"f. c #DBAE81",
"g. c #D2B585",
"h. c #DBB482",
"j. c #DCBE8D",
"k. c #E9B780",
"l. c #E6BA85",
"z. c #EEBB82",
"x. c #E6BF8A",
"c. c #F2BE85",
"v. c #DDC694",
"b. c #E4C28E",
"n. c #E9C28D",
"m. c #F5C187",
"M. c #F5C38A",
"N. c #F5C88E",
"B. c #E1C593",
"V. c #EDCB94",
"C. c #F5C990",
"Z. c #F5CC94",
"A. c #F5D199",
"S. c #F5D49C",
"D. c #F4D7A0",
"F. c #F1D9A3",
"G. c #F5DDA5",
"H. c #F6DDA6",
"J. c #F5DCA5",
"K. c None",
"L. c black",
/* pixels */
"K.K.K.K.K.K.K.K.K.K.K.K.K.K.K.K.K.K.K.K.K.K.K.K.K.K.K.K.K.K.K.K.K.K.K.K.K.K.K.K.K.K.K.K.K.K.K.K.K.K.K.K.K.K.K.K.K.K.K.K.K.K.K.K.",
"K.K.K.K.K.K.K.K.K.K.K.K.K.K.K.K.K.K.K.K.K.K.K.K.K.K.K.K.K.K.K.K.K.K.K.K.K.K.K.K.K.K.K.K.K.K.K.K.K.K.K.K.K.K.K.K.K.K.K.K.K.K.K.K.",
"K.K.K.K.K.K.K.K.K.K.K.K.K.K.K.K.K.K.K.K.K.K.K.K.K.K.K.K.K.K.K.K.K.K.K.K.K.K.K.K.K.K.K.K.K.K.K.K.K.K.K.K.K.K.K.K.K.K.K.K.K.K.K.K.",
"K.K.K.K.K.K.K.K.K.K.K.K.K.K.K.K.K.K.K.K.K.K.K.K.K.K.K.K.K.K.K.K.K.K.K.K.K.K.K.K.K.K.K.K.K.K.K.K.K.K.K.K.K.K.K.K.K.K.K.K.K.K.K.K.",
"K.K.K.K.K.K.K.K.K.K.K.K.K.K.K.K.K.K.K.K.K.K.K.K.K.K.K.K.K.K.K.K.K.K.K.K.K.K.K.K.K.K.K.K.K.K.K.K.K.K.K.K.K.K.K.K.K.K.K.K.K.K.K.K.",
"K.K.K.K.K.K.K.K.K.K.K.K.K.K.K.K.K.K.K.K.K.K.K.K.K.K.K.K.K.K.K.K.K.K.K.K.K.K.K.K.K.K.K.K.K.K.K.K.K.K.K.K.K.K.K.K.K.K.K.K.K.K.K.K.",
"K.K.K.K.K.K.K.K.K.K.K.K.K.K.K.K.K.K.K.K.K.K.K.K.K.K.K.K.K.K.K.K.K.K.K.K.K.K.K.K.K.K.K.K.K.K.K.K.K.K.K.K.K.K.K.K.K.K.K.K.K.K.K.K.",
"K.K.K.K.K.K.K.K.K.K.K.K.K.K.K.K.K.K.K.K.K.K.K.K.K.K.K.K.K.K.K.K.K.K.K.K.K.K.K.K.K.K.K.K.K.K.K.K.K.K.K.K.K.K.K.K.K.K.K.K.K.K.K.K.",
"K.K.K.K.K.K.K.K.K.K.K.K.K.K.K.K.K.K.K.K.K.K.K.K.K.K.K.K.K.K.K.K.K.K.K.K.K.K.K.K.K.K.K.K.K.K.K.K.K.K.K.K.K.K.K.K.K.K.K.K.K.K.K.K.",
"K.K.K.K.K.K.K.K.K.K.K.K.K.K.K.K.K.K.K.K.K.K.K.K.K.K.K.K.K.K.K.K.K.K.K.K.K.K.K.K.K.K.K.K.K.K.K.K.K.K.K.K.K.K.K.K.K.K.K.K.K.K.K.K.",
"K.K.K.K.K.K.K.K.K.K.K.K.K.K.K.K.K.K.K.K.K.K.K.K.K.K.K.K.K.K.K.K.K.K.K.K.K.K.K.K.K.K.K.K.K.K.K.K.K.K.K.K.K.K.K.K.K.K.K.K.K.K.K.K.",
"K.K.K.K.K.K.K.K.K.K.K.K.K.K.K.K.K.K.K.K.K.K.K./ / 2.H.H.4.K.K.K.K.K.K.K.K.K.K.K.K.K.K.K.K.K.K.K.K.K.K.K.K.K.K.K.K.K.K.K.K.K.K.K.",
"K.K.K.K.K.K.K.K.K.K.K.K.K.K.# # K.K.K.K.K.K.6.%._ &.j.j.4.*.K.K.K.K.K.K.K.K.K.K.K.K.K.K.K.K.K.K.K.K.K.K.K.K.K.K.K.K.K.K.K.K.K.K.",
"K.K.K.K.K.K.K.K.K.K.K.K.K.K.  o 6 K.K.K.K.m.C.F.%./ / / 5.H.H.K.K.K.K.K.K.K.6 6 K.K.K.K.K.K.K.K.K.K.K.K.K.K.K.K.K.K.K.K.K.K.K.K.",
"K.K.K.K.K.K.K.K.K.K.K.K.K.K.K.X o # K.K.K.#.3.C.b.=._ g.n.C.C.K.K.K.K.K.K.6 + o K.K.K.K.K.K.K.K.K.K.K.K.K.K.K.K.K.K.K.K.K.K.K.K.",
"K.K.K.K.K.K.K.K.K.K.K.K.K.K.K.K.. - = K.K./ } 7.9.6.:.V.C.z.7.K.K.K.K.K.K.# o K.K.K.K.K.K.K.K.K.K.K.K.K.K.K.K.K.K.K.K.K.K.K.K.K.",
"K.K.K.K.K.K.K.K.K.K.K.K.K.K.K.K.K.: : : K.! ( _ ~ @.w.w.w.7.| K.K.K.K.% # # K.K.K.K.K.K.K.K.K.K.K.K.K.K.K.K.K.K.K.K.K.K.K.K.K.K.",
"K.K.K.K.K.K.K.K.K.K.K.K.K.K.K.K.: : : : 6 N %.B.L g k k k I 0.K.K.K.5 @ 7 $.w.m.K.K.K.K.K.K.K.K.K.H.H.H.A.m.m.K.K.K.K.K.K.K.K.K.",
"K.K.K.K.K.K.K.K.K.K.K.K.K.K.K.K.: : > = 6 N &.F.N q S S S I z.K.K.% @ h / ;.:.3.c.K.K.K.K.K.K.K.A.n.4.B.K.k.>.8.N.J.K.K.K.K.K.K.",
"K.K.K.K.K.K.K.K.K.K.K.K.K.K.K.r 3 > K.K.# m &.F.M w G J Y ` c.K.K.0 y ! 8.| / @.q.K.K.K.K.K.K.D.n.7./ K.K.K./ :.l.S.K.K.K.K.K.K.",
"K.K.K.K.K.K.K.K.K.K.K.K.K.K.Y J G 3 K.K.  b &.F.M 6 0 G Y ` c.m.7./ 7.:.) K.K.K.) 8.m.m.m.Z.D.M.:.) K.K.K.K.K.) @.z.K.K.K.K.K.K.",
"K.K.K.K.K.K.K.K.K.K.K.K.K.K.J Y J r K.K.| 2.j.C.( z 6 w j W V.9.:.8.z.l.g.K.K.K.K.#.$.$.$.*.2.K.K.K.K.K.K.K.K.K.| $.K.K.K.K.K.K.",
"K.K.K.K.K.K.K.K.K.K.K.K.K.K.J Y J K.K.K.m.x.h.8.;.Q p p c ^ g.,.<.m.M.x.f.K.K.K.K.K./ / / / / K.K.K.K.K.K.K.K.K.K./ K.K.K.K.K.K.",
"K.K.K.K.K.K.K.K.K.K.K.K.K.K.Y Y J K.K.K.c.$./ ) 0.3./ / >.0.) 8.m.m.S.1.Y Y K.K.K.K.K.K.K.K.K.K.K.K.K.K.K.K.K.K.K.K.K.K.K.K.K.K.",
"K.K.K.K.K.K.K.K.K.K.K.K.K.Y Y Y J K.K.1 l ..h.j.*.:.0.0.:.$.8.z.N.V.( H Y Y K.K.K.K.K.K.K.K.K.K.K.K.K.K.K.K.K.K.K.K.K.K.K.K.K.K.",
"K.K.K.K.K.K.K.K.K.K.K.K.Y Y Y G S 3 > : : P :.A.7.:.3.3.3.5.C.,.} +.g 2 D J Y K.K.K.K.K.K.K.K.K.K.K.K.K.K.K.K.K.K.K.K.K.K.K.K.K.",
"K.K.K.K.K.K.K.K.K.K.K.J Y Y Y D : : : : : ; n 0.0.$.Q Q =.v.v.V - : : : 3 F J Y K.K.K.K.K.K.K.K.K.K.K.K.K.K.K.K.K.K.K.K.K.K.K.K.",
"K.K.K.K.K.K.K.K.K.K.K.J Y Y Y D : : : : : ; 8 a a d 9 9 d s s 8 6 - : : K.3 D Y Y K.K.K.K.K.K.K.K.K.K.K.K.K.K.K.K.K.K.K.K.K.K.K.",
"K.K.K.K.K.K.K.K.K.K.K.J Y Y D 2 : : : K.K.- 6 6 6 6 6 6 6 6 6 6 6 6 ; ; K.K.e D J K.K.K.K.K.K.K.K.K.K.K.K.K.K.K.K.K.K.K.K.K.K.K.",
"K.K.K.K.K.K.K.K.K.K.K.J Y Y 4 : : : K.K.K.K.% # % 6 6 6 6 6 6 6 6 6 # # K.K.K.e J K.K.K.K.K.K.K.K.K.K.K.K.K.K.K.K.K.K.K.K.K.K.K.",
"K.K.K.K.K.K.K.K.K.K.K.J Y Y 4 : > K.K.K.K.K.K.  # 6 6 6 6 6 6 6 6 % o   K.K.K.K.J J Y K.K.K.K.K.K.K.K.K.K.K.K.K.K.K.K.K.K.K.K.K.",
"K.K.K.K.K.K.K.K.K.K.K.K.K.K.K.K.K.K.K.K.K.K.K.K.o o o % 6 6 6 6 # o     K.K.K.K.J Y J K.K.K.K.K.K.K.K.K.K.K.K.K.K.K.K.K.K.K.K.K.",
"K.K.K.K.K.K.K.K.K.K.K.K.K.K.K.K.K.K.K.K.K.K.K.K.      + # # # # o       K.K.K.K.J Y J K.K.K.K.K.K.K.K.K.K.K.K.K.K.K.K.K.K.K.K.K.",
"K.K.K.K.K.K.K.K.K.K.K.K.K.K.K.K.K.K.K.K.K.K.K.K.o o X                   K.K.K.K.J J Y K.K.K.K.K.K.K.K.K.K.K.K.K.K.K.K.K.K.K.K.K.",
"K.K.K.K.K.K.K.K.K.K.K.K.K.K.K.K.K.K.K.K.K.K.K.K.U T b O                 K.K.K.Y J K.K.K.K.K.K.K.K.K.K.K.K.K.K.K.K.K.K.K.K.K.K.K.",
"K.K.K.K.K.K.K.K.K.K.K.K.K.K.K.K.K.K.K.K.K.K.K.K.E o.-.v ,     7 u a B C K.K.J K S K.K.K.K.K.K.K.K.K.K.K.K.K.K.K.K.K.K.K.K.K.K.K.",
"K.K.K.K.K.K.K.K.K.K.K.K.K.K.K.K.K.K.K.K.K.K.K.6 m ] u.o.x $ * Z { ( y.[ E K.G D > K.K.K.K.K.K.K.K.K.K.K.K.K.K.K.K.K.K.K.K.K.K.K.",
"K.K.K.K.K.K.K.K.K.K.K.K.K.K.K.K.K.K.K.K.K.6 6 6 8 t f E Q X.i.p.d.^ f i 9 K.1 < : K.K.K.K.K.K.K.K.K.K.K.K.K.K.K.K.K.K.K.K.K.K.K.",
"K.K.K.K.K.K.K.K.K.K.K.K.K.K.K.K.K.K.K.K.K.m n n n p 7 z T O.a.s.t.z 8 6 8 R K.K.K.K.K.K.K.K.K.K.K.K.K.K.K.K.K.K.K.K.K.K.K.K.K.K.",
"K.K.K.K.K.K.K.K.K.K.K.K.K.K.K.K.K.K.K.K.K.@.@.@.@./ c p b A e.r.' # % 6 9 Q / K.K.K.K.K.K.K.K.K.K.K.K.K.K.K.K.K.K.K.K.K.K.K.K.K.",
"K.K.K.K.K.K.K.K.K.K.K.K.K.K.K.K.K.K.K.K.K.m.c.c.c.c.w.| c 6 6 @ X   # 6 9 Q / / K.K.K.K.K.K.K.K.K.K.K.K.K.K.K.K.K.K.K.K.K.K.K.K.",
"K.K.K.K.K.K.K.K.K.K.K.K.K.K.K.K.K.K.K.K.m.m.M.S.S.Z.c.0.| c 6 o     # 6 9 Q / / K.K.K.K.K.K.K.K.K.K.K.K.K.K.K.K.K.K.K.K.K.K.K.K.",
"K.K.K.K.K.K.K.K.K.K.K.K.K.K.K.K.K.K.K.m.m.N.A.H.H.S.C.m.:.T 7 o     # 6 9 Q / / K.K.K.K.K.K.K.K.K.K.K.K.K.K.K.K.K.K.K.K.K.K.K.K.",
"K.K.K.K.K.K.K.K.K.K.K.K.K.K.K.K.K.K.m.m.m.A.H.H.H.H.S.M.:.T 7 o     # 6 9 Q / / / K.K.K.K.K.K.K.K.K.K.K.K.K.K.K.K.K.K.K.K.K.K.K.",
"K.K.K.K.K.K.K.K.K.K.K.K.K.K.K.K.K.K.m.M.S.J.H.H.H.A.M.m.:.T 7 o     # 6 9 Q / / / / K.K.K.K.K.K.K.K.K.K.K.K.K.K.K.K.K.K.K.K.K.K.",
"K.K.K.K.K.K.K.K.K.K.K.K.K.K.K.K.K.K.m.M.D.H.H.H.H.A.z.7. .T 7 o     o # 9 Q / / / / / K.K.K.K.K.K.K.K.K.K.K.K.K.K.K.K.K.K.K.K.K.",
"K.K.K.K.K.K.K.K.K.K.K.K.K.K.K.K.K.m.M.C.J.H.H.H.D.Z.k.| / T 7 o       o 9 Q / / / / / K.K.K.K.K.K.K.K.K.K.K.K.K.K.K.K.K.K.K.K.K.",
"K.K.K.K.K.K.K.K.K.K.K.K.K.K.K.K.K.m.Z.D.H.H.H.H.C.m.k.| / T 7 o       o 9 Q / / / / / / K.K.K.K.K.K.K.K.K.K.K.K.K.K.K.K.K.K.K.K.",
"K.K.K.K.K.K.K.K.K.K.K.K.K.K.K.K.K.m.Z.H.H.H.D.Z.M.0.#.) / T 7 o       o 9 Q / / / / / / K.K.K.K.K.K.K.K.K.K.K.K.K.K.K.K.K.K.K.K.",
"K.K.K.K.K.K.K.K.K.K.K.K.K.K.K.K.K.z.C.S.S.S.Z.m.w.$./ / / T 7 o       o 9 Q / / / / / / K.K.K.K.K.K.K.K.K.K.K.K.K.K.K.K.K.K.K.K.",
"K.K.K.K.K.K.K.K.K.K.K.K.K.K.K.K.) w.m.m.m.m.m.c.@./ / / / T 7 o       o 9 Q / / / / / Q 0 % K.K.K.K.K.K.K.K.K.K.K.K.K.K.K.K.K.K.",
"K.K.K.K.K.K.K.K.K.K.K.K.K.K.K.K.(  .8.m.m.m.w.@.) / / / / T 7 o       o 9 Q / / / / / Q 0 % K.K.K.K.K.K.K.K.K.K.K.K.K.K.K.K.K.K.",
"K.K.K.K.K.K.K.K.K.K.K.K.K.K.K.K./ / @.7.7.7.$./ / / / / / N 6 o       o 9 Q / / / / E b 8 % K.K.K.K.K.K.K.K.K.K.K.K.K.K.K.K.K.K.",
"K.K.K.K.K.K.K.K.K.K.K.K.K.K.K.K./ / / / / / / / / / K.K.K.K.& o       o 9 E / / / ! b 6 6 % K.K.K.K.K.K.K.K.K.K.K.K.K.K.K.K.K.K.",
"K.K.K.K.K.K.K.K.K.K.K.K.K.K.K.K./ / / / / / / K.K.K.K.K.K.K.& o   K.  o 6 K./ / / x 8 6 6 % K.K.K.K.K.K.K.K.K.K.K.K.K.K.K.K.K.K.",
"K.K.K.K.K.K.K.K.K.K.K.K.K.K.K.K./ / / / / / / K.K.K.K.K.K.K.& + K.K.K.K.K.K.c c c 9 6 6 6 % K.K.K.K.K.K.K.K.K.K.K.K.K.K.K.K.K.K.",
"K.K.K.K.K.K.K.K.K.K.K.K.K.K.K.K.K.T T T T Q / K.K.K.K.K.K.K.6 K.K.K.K.K.K.K.K.& & & 6 6 # # K.K.K.K.K.K.K.K.K.K.K.K.K.K.K.K.K.K.",
"K.K.K.K.K.K.K.K.K.K.K.K.K.K.K.K.K.o o o o K.K.K.K.K.K.K.K.K.K.K.K.K.K.K.K.K.K.K.K.6 6 % o   K.K.K.K.K.K.K.K.K.K.K.K.K.K.K.K.K.K.",
"K.K.K.K.K.K.K.K.K.K.K.K.K.K.K.K.K.K.      K.K.K.K.K.K.K.K.K.K.K.K.K.K.K.K.K.K.K.K.K.# o       K.K.K.K.K.K.K.K.K.K.K.K.K.K.K.K.K.",
"K.K.K.K.K.K.K.K.K.K.K.K.K.K.K.K.K.K.+ o o K.K.K.K.K.K.K.K.K.K.K.K.K.K.K.K.K.K.K.K.K.K.        K.K.K.K.K.K.K.K.K.K.K.K.K.K.K.K.K.",
"K.K.K.K.K.K.K.K.K.K.K.K.K.K.K.K.K.6 6 6 6 K.K.K.K.K.K.K.K.K.K.K.K.K.K.K.K.K.K.K.K.K.K.K.        K.K.K.K.K.K.K.K.K.K.K.K.K.K.K.K.",
"K.K.K.K.K.K.K.K.K.K.K.K.K.K.K.K.6 6 6 6 6 K.K.K.K.K.K.K.K.K.K.K.K.K.K.K.K.K.K.K.K.K.K.K.            K.K.K.K.K.K.K.K.K.K.K.K.K.K.",
"K.K.K.K.K.K.K.K.K.K.K.K.K.K.K.K.& & & & & K.K.K.K.K.K.K.K.K.K.K.K.K.K.K.K.K.K.K.K.K.K.K.K.        K.K.K.K.K.K.K.K.K.K.K.K.K.K.K.",
"K.K.K.K.K.K.K.K.K.K.K.K.K.K.K.K.K.K.K.K.K.K.K.K.K.K.K.K.K.K.K.K.K.K.K.K.K.K.K.K.K.K.K.K.K.K.K.K.K.K.K.K.K.K.K.K.K.K.K.K.K.K.K.K."
};
