/* XPM */
static const char *aWRsZV84[] = {
/* columns rows colors chars-per-pixel */
"64 64 163 2 ",
"   c #2A1D0D",
".  c #2F1F10",
"X  c #2D200F",
"o  c #2E2110",
"O  c #322414",
"+  c #382816",
"@  c #362718",
"#  c #362819",
"$  c #3A2B1D",
"%  c #3B301D",
"&  c #3F2F21",
"*  c #3F3022",
"=  c #373F2A",
"-  c #462E1C",
";  c #4A2E1A",
":  c #4E2D17",
">  c #562B11",
",  c #592C11",
"<  c #42301C",
"1  c #653418",
"2  c #6E381C",
"3  c #402F22",
"4  c #413122",
"5  c #4A3726",
"6  c #4A3827",
"7  c #4E3B2A",
"8  c #543E2A",
"9  c #633720",
"0  c #643F2C",
"q  c #7B3F24",
"w  c #743C21",
"e  c #4A402F",
"r  c #57422F",
"t  c #5F462D",
"y  c #494230",
"u  c #5D4631",
"i  c #5E4832",
"p  c #5E4C38",
"a  c #574431",
"s  c #57523D",
"d  c #6D4223",
"f  c #6A402D",
"g  c #764827",
"h  c #7C4025",
"j  c #7F512E",
"k  c #624A34",
"l  c #694E35",
"z  c #6D523A",
"x  c #6A5539",
"c  c #73563C",
"v  c #76593E",
"b  c #785A3F",
"n  c #715F46",
"m  c #7B5D41",
"M  c #517253",
"N  c #77654A",
"B  c #637D5C",
"V  c #747050",
"C  c #7C7858",
"Z  c #844429",
"A  c #8C492E",
"S  c #8B472D",
"D  c #934C31",
"F  c #984F35",
"G  c #805533",
"H  c #9C5136",
"J  c #9C533A",
"K  c #965B3C",
"L  c #A5563B",
"P  c #AC5B3F",
"I  c #87613E",
"U  c #8F603A",
"Y  c #97623E",
"T  c #805F41",
"R  c #AD5B40",
"E  c #856345",
"W  c #8A6648",
"Q  c #8E6B4B",
"!  c #916D4C",
"~  c #96714F",
"^  c #99724F",
"/  c #947452",
"(  c #9C7552",
")  c #9C7955",
"_  c #A37B56",
"`  c #A47E5A",
"'  c #BE7451",
"]  c #538767",
"[  c #7F9772",
"{  c #7BA27C",
"}  c #98825E",
"|  c #AB825B",
" . c #A78259",
".. c #B1875E",
"X. c #BA8A5D",
"o. c #858460",
"O. c #948964",
"+. c #93946D",
"@. c #AC8A60",
"#. c #B58A60",
"$. c #BA8E64",
"%. c #BE9266",
"&. c #B5926A",
"*. c #B9966D",
"=. c #BD996E",
"-. c #BC9D73",
";. c #84A179",
":. c #C29669",
">. c #C6996B",
",. c #C99B6C",
"<. c #C39E71",
"1. c #CE9F70",
"2. c #D29E75",
"3. c #C3A375",
"4. c #CDA171",
"5. c #C6A77B",
"6. c #C9A678",
"7. c #CDAD7E",
"8. c #D2A473",
"9. c #DAAA77",
"0. c #D2AC7C",
"q. c #DDAD79",
"w. c #E0AF7B",
"e. c #E3B27C",
"r. c #68B991",
"t. c #63BB92",
"y. c #70BA90",
"u. c #78BC92",
"i. c #73C79C",
"p. c #6DD1A4",
"a. c #75DFAF",
"s. c #77EDBB",
"d. c #75F4C1",
"f. c #86BC90",
"g. c #DBAE81",
"h. c #D2B485",
"j. c #DCB482",
"k. c #DCBE8C",
"l. c #E9B780",
"z. c #EDBB82",
"x. c #E9BF89",
"c. c #E4BB86",
"v. c #F2BE85",
"b. c #DDC694",
"n. c #E8C48F",
"m. c #E1C18D",
"M. c #F5C187",
"N. c #F5C38A",
"B. c #F5C88F",
"V. c #EDCB94",
"C. c #E1C593",
"Z. c #F5C990",
"A. c #F4CA91",
"S. c #F5CC93",
"D. c #F5D199",
"F. c #F3D39C",
"G. c #F5D49C",
"H. c #F5D7A0",
"J. c #F1D9A3",
"K. c #F5DDA6",
"L. c #F5DCA5",
"P. c None",
"I. c black",
/* pixels */
"P.P.P.P.P.P.P.P.P.P.P.P.P.P.P.P.P.P.P.P.P.P.P.P.P.P.P.P.P.P.P.P.P.P.P.P.P.P.P.P.P.P.P.P.P.P.P.P.P.P.P.P.P.P.P.P.P.P.P.P.P.P.P.P.",
"P.P.P.P.P.P.P.P.P.P.P.P.P.P.P.P.P.P.P.P.P.P.P.P.P.P.P.P.P.P.P.P.P.P.P.P.P.P.P.P.P.P.P.P.P.P.P.P.P.P.P.P.P.P.P.P.P.P.P.P.P.P.P.P.",
"P.P.P.P.P.P.P.P.P.P.P.P.P.P.P.P.P.P.P.P.P.P.P.P.P.P.P.P.P.P.P.P.P.P.P.P.P.P.P.P.P.P.P.P.P.P.P.P.P.P.P.P.P.P.P.P.P.P.P.P.P.P.P.P.",
"P.P.P.P.P.P.P.P.P.P.P.P.P.P.P.P.P.P.P.P.P.P.P.P.P.P.P.P.P.P.P.P.P.P.P.P.P.P.P.P.P.P.P.P.P.P.P.P.P.P.P.P.P.P.P.P.P.P.P.P.P.P.P.P.",
"P.P.P.P.P.P.P.P.P.P.P.P.P.P.P.P.P.P.P.P.P.P.P.P.P.P.P.P.P.P.P.P.P.P.P.P.P.P.P.P.P.P.P.P.P.P.P.P.P.P.P.P.P.P.P.P.P.P.P.P.P.P.P.P.",
"P.P.P.P.P.P.P.P.P.P.P.P.P.P.P.P.P.P.P.P.P.P.P.P.P.P.P.P.P.P.P.P.P.P.P.P.P.P.P.P.P.P.P.P.P.P.P.P.P.P.P.P.P.P.P.P.P.P.P.P.P.P.P.P.",
"P.P.P.P.P.P.P.P.P.P.P.P.P.P.P.P.P.P.P.P.P.P.P.P.P.P.P.P.P.P.P.P.P.P.P.P.P.P.P.P.P.P.P.P.P.P.P.P.P.P.P.P.P.P.P.P.P.P.P.P.P.P.P.P.",
"P.P.P.P.P.P.P.P.P.P.P.P.P.P.P.P.P.P.P.P.P.P.P.P.P.P.P.P.P.P.P.P.P.P.P.P.P.P.P.P.P.P.P.P.P.P.P.P.P.P.P.P.P.P.P.P.P.P.P.P.P.P.P.P.",
"P.P.P.P.P.P.P.P.P.P.P.P.P.P.P.P.P.P.P.P.P.P.P.P.P.P.P.P.P.P.P.P.P.P.P.P.P.P.P.P.P.P.P.P.P.P.P.P.P.P.P.P.P.P.P.P.P.P.P.P.P.P.P.P.",
"P.P.P.P.P.P.P.P.P.P.P.P.P.P.P.P.P.P.P.P.P.P.P.P.P.P.P.P.P.P.P.P.P.P.P.P.P.P.P.P.P.P.P.P.P.P.P.P.P.P.P.P.P.P.P.P.P.P.P.P.P.P.P.P.",
"P.P.P.P.P.P.P.P.P.P.P.P.P.P.P.P.P.P.P.P.P.P.P.P.P.P.P.P.P.P.P.P.P.P.P.P.P.P.P.P.P.P.P.P.P.P.P.P.P.P.P.P.P.P.P.P.P.P.P.P.P.P.P.P.",
"P.P.P.P.P.P.P.P.P.P.P.P.P.P.P.P.P.P.P.P.P.P.P.( ( 3.K.K.5.P.P.P.P.P.P.P.P.P.P.P.P.P.P.P.P.P.P.P.P.P.P.P.P.P.P.P.P.P.P.P.P.P.P.P.",
"P.P.P.P.P.P.P.P.P.P.P.P.P.P.$ $ P.P.P.P.P.P.6.&.` *.k.k.5.=.P.P.P.P.P.P.P.P.P.P.P.P.P.P.P.P.P.P.P.P.P.P.P.P.P.P.P.P.P.P.P.P.P.P.",
"P.P.P.P.P.P.P.P.P.P.P.P.P.P.  O 4 P.P.P.P.M.Z.J.&.( ( ( 7.K.K.P.P.P.P.P.P.P.4 4 P.P.P.P.P.P.P.P.P.P.P.P.P.P.P.P.P.P.P.P.P.P.P.P.",
"P.P.P.P.P.P.P.P.P.P.P.P.P.P.P.o O $ P.P.P.$.4.Z.m.-.` h.n.Z.Z.P.P.P.P.P.P.4 @ O P.P.P.P.P.P.P.P.P.P.P.P.P.P.P.P.P.P.P.P.P.P.P.P.",
"P.P.P.P.P.P.P.P.P.P.P.P.P.P.P.P.. - : P.P.( | 8.0.6.,.V.Z.z.8.P.P.P.P.P.P.$ O P.P.P.P.P.P.P.P.P.P.P.P.P.P.P.P.P.P.P.P.P.P.P.P.P.",
"P.P.P.P.P.P.P.P.P.P.P.P.P.P.P.P.P.> > > P.~ ) ` ^ #.e.e.e.8. .P.P.P.P.& $ X P.P.P.P.P.P.P.P.P.P.P.P.P.P.P.P.P.P.P.P.P.P.P.P.P.P.",
"P.P.P.P.P.P.P.P.P.P.P.P.P.P.P.P.P.> > > 4 m &.C.I d g g g U q.P.P.P.3 # o P.P.P.M.M.M.M.G.K.K.P.P.P.P.P.P.P.P.P.P.P.P.P.P.P.P.P.",
"P.P.P.P.P.P.P.P.P.P.P.P.P.P.P.P., , > > 4 m *.J.m 9 Z Z Z Y z.P.P.& # O P.9.M.e.,.,.,.,.6.k.D.H.P.P.P.P.P.P.P.P.P.P.S.P.P.P.P.P.",
"P.P.P.P.P.P.P.P.P.P.P.P.P.P.P.q 1 , > > $ v *.J.n 0 J P R ' v.P.P.8 8 z P.e.e.8.( ( ( ( ( :.l.F.H.P.P.P.P.P.P.P.P.H.x.e.P.P.P.P.",
"P.P.P.P.P.P.P.P.P.P.P.P.P.P.R P H 1 > P.  c *.J.n 4 8 J R ' v.M.8.( 8.z.e.| _ _ P.P.P.P.P._ #.z.D.K.P.P.P.P.P.P.H.N.:._ P.P.P.P.",
"P.P.P.P.P.P.P.P.P.P.P.P.P.P.P R P q P.P. .3.k.A.) k 4 0 f W V.0.>.9.z.B.V.P.P.P.P.P.P.P.P.P. .%.j.Z.M.P.P.P.P.S.x.:...P.P.P.P.P.",
"P.P.P.P.P.P.P.P.P.P.P.P.P.P.R R R P.P.P.M.c.j.9.:.! u u z / h.<.1.M.N.x.g.P.P.P.P.P.P.P.P.P.P.( >.e.M.M.P.P.P.w.4._ P.P.P.P.P.P.",
"P.P.P.P.P.P.P.P.P.P.P.P.P.P R P P.P.P.P.v.%.( _ q.4.( ( ,.q._ 9.M.M.F.2.R R P.P.P.P.P.P.P.P.P.P.( #.v.v.v.v.v.,.( P.P.P.P.P.P.P.",
"P.P.P.P.P.P.P.P.P.P.P.P.R R R P P.P.P.1 j X.j.k.=.>.q.q.,.%.9.z.B.V.) K R R P.P.P.P.P.P.P.P.P.P.P.P.#.#.#.#.#.| P.P.P.P.P.P.P.P.",
"P.P.P.P.P.P.P.P.P.P.P.P R R R H P.P., > > U >.D.8.,.4.4.4.7.A.<.| @.d 2 A P R P.P.P.P.P.P.P.P.P.P.P.( ( ( ( ( P.P.P.P.P.P.P.P.P.",
"P.P.P.P.P.P.P.P.P.P.P.P R R R S > > > > > > G q.q.%.! ! -.b.b.N - > > > 1 F P R P.P.P.P.P.P.P.P.P.P.P.P.P.P.P.P.P.P.P.P.P.P.P.P.",
"P.P.P.P.P.P.P.P.P.P.P.P R R R S > > > > > ; 5 i i r 7 7 a p p 6 4 - > > P.1 A R R P.P.P.P.P.P.P.P.P.P.P.P.P.P.P.P.P.P.P.P.P.P.P.",
"P.P.P.P.P.P.P.P.P.P.P.P.P R R S > > > P.P.- 4 4 4 4 4 4 4 4 4 4 4 4 ; ; P.P.w S P R P.P.P.P.P.P.P.P.P.P.P.P.P.P.P.P.P.P.P.P.P.P.",
"P.P.P.P.P.P.P.P.P.P.P.P.P.R P S > > P.P.P.P.& $ & 4 4 4 4 4 4 4 4 4 $ $ P.P.P.2 F L R P.P.P.P.P.P.P.P.P.P.P.P.P.P.P.P.P.P.P.P.P.",
"P.P.P.P.P.P.P.P.P.P.P.P.P.P.P.P.P.P.P.P.P.P.P.  $ 4 4 4 * 4 4 4 4 & O   P.P.P.P., D P R P.P.P.P.P.P.P.P.P.P.P.P.P.P.P.P.P.P.P.P.",
"P.P.P.P.P.P.P.P.P.P.P.P.P.P.P.P.P.P.P.P.P.P.P.P.O O O & 4 4 4 4 $ O     P.P.P.P.P.L R R P.P.P.P.P.P.P.P.P.P.P.P.P.P.P.P.P.P.P.P.",
"P.P.P.P.P.P.P.P.P.P.P.P.P.P.P.P.P.P.P.P.P.P.P.P.      @ $ $ $ $ O       P.P.P.P.P.P R R P.P.P.P.P.P.P.P.P.P.P.P.P.P.P.P.P.P.P.P.",
"P.P.P.P.P.P.P.P.P.P.P.P.P.P.P.P.P.P.P.P.P.P.P.P.O O o                   P.P.P.P.P.P R R P.P.P.P.P.P.P.P.P.P.P.P.P.P.P.P.P.P.P.P.",
"P.P.P.P.P.P.P.P.P.P.P.P.P.P.P.P.P.P.P.P.P.P.P.P.T E c +                 P.P.P.P.P.P R R P.P.P.P.P.P.P.P.P.P.P.P.P.P.P.P.P.P.P.P.",
"P.P.P.P.P.P.P.P.P.P.P.P.P.P.P.P.P.P.P.P.P.P.P.P.Q O.;.x <     5 t i M B P.P.P.P.P.R H Z P.P.P.P.P.P.P.P.P.P.P.P.P.P.P.P.P.P.P.P.",
"P.P.P.P.P.P.P.P.P.P.P.P.P.P.P.P.P.P.P.P.P.P.P.4 b [ i.O.l % = V } ) u.{ Q P.P.P.P R D > P.P.P.P.P.P.P.P.P.P.P.P.P.P.P.P.P.P.P.P.",
"P.P.P.P.P.P.P.P.P.P.P.P.P.P.P.P.P.P.P.P.P.4 4 4 6 e s Q ! o.p.a.f./ s y 7 P.P.P.P R L P.P.P.P.P.P.P.P.P.P.P.P.P.P.P.P.P.P.P.P.P.",
"P.P.P.P.P.P.P.P.P.P.P.P.P.P.P.P.P.P.P.P.P.v v v v u 4 k E +.s.d.y.k 6 4 6 W P.P.q h q P.P.P.P.P.P.P.P.P.P.P.P.P.P.P.P.P.P.P.P.P.",
"P.P.P.P.P.P.P.P.P.P.P.P.P.P.P.P.P.P.P.P.P.#.#.#.#.( z u c C r.t.] $ & 4 7 ! ( P., > P.P.P.P.P.P.P.P.P.P.P.P.P.P.P.P.P.P.P.P.P.P.",
"P.P.P.P.P.P.P.P.P.P.P.P.P.P.P.P.P.P.P.P.P.M.v.v.v.v.e. .z 4 4 # o   $ 4 7 ! ( ( P.P.P.P.P.P.P.P.P.P.P.P.P.P.P.P.P.P.P.P.P.P.P.P.",
"P.P.P.P.P.P.P.P.P.P.P.P.P.P.P.P.P.P.P.P.M.M.N.G.G.S.v.q. .c 4 O     $ 4 7 ! ( ( P.P.P.P.P.P.P.P.P.P.P.P.P.P.P.P.P.P.P.P.P.P.P.P.",
"P.P.P.P.P.P.P.P.P.P.P.P.P.P.P.P.P.P.P.M.M.B.D.K.K.G.Z.M.>.E 4 O     $ 4 7 ! ( ( P.P.P.P.P.P.P.P.P.P.P.P.P.P.P.P.P.P.P.P.P.P.P.P.",
"P.P.P.P.P.P.P.P.P.P.P.P.P.P.P.P.P.P.M.M.M.D.K.K.K.K.H.N.>.E 4 O     $ 4 7 ! ( ( ( P.P.P.P.P.P.P.P.P.P.P.P.P.P.P.P.P.P.P.P.P.P.P.",
"P.P.P.P.P.P.P.P.P.P.P.P.P.P.P.P.P.P.M.N.G.L.K.K.K.D.N.M.>.E 4 O     $ 4 7 ! ( ( ( ( P.P.P.P.P.P.P.P.P.P.P.P.P.P.P.P.P.P.P.P.P.P.",
"P.P.P.P.P.P.P.P.P.P.P.P.P.P.P.P.P.P.M.N.H.K.K.K.K.D.z.8...E 4 O     O $ 7 ! ( ( ( ( ( P.P.P.P.P.P.P.P.P.P.P.P.P.P.P.P.P.P.P.P.P.",
"P.P.P.P.P.P.P.P.P.P.P.P.P.P.P.P.P.M.N.Z.K.K.K.K.H.S.l. .( E 4 O       O 7 ! ( ( ( ( ( P.P.P.P.P.P.P.P.P.P.P.P.P.P.P.P.P.P.P.P.P.",
"P.P.P.P.P.P.P.P.P.P.P.P.P.P.P.P.P.M.S.H.K.K.K.K.Z.M.l. .( E 4 O       O 7 ! ( ( ( ( ( ( P.P.P.P.P.P.P.P.P.P.P.P.P.P.P.P.P.P.P.P.",
"P.P.P.P.P.P.P.P.P.P.P.P.P.P.P.P.P.M.S.K.K.K.H.S.N.q.$._ ( E 4 O       O 7 ! ( ( ( ( ( ( P.P.P.P.P.P.P.P.P.P.P.P.P.P.P.P.P.P.P.P.",
"P.P.P.P.P.P.P.P.P.P.P.P.P.P.P.P.P.z.Z.G.G.G.S.M.e.%.( ( ( E 4 O       O 7 ! ( ( ( ( ( ( P.P.P.P.P.P.P.P.P.P.P.P.P.P.P.P.P.P.P.P.",
"P.P.P.P.P.P.P.P.P.P.P.P.P.P.P.P._ e.M.M.M.M.M.v.#.( ( ( ( E 4 O       O 7 ! ( ( ( ( ( ! 8 & P.P.P.P.P.P.P.P.P.P.P.P.P.P.P.P.P.P.",
"P.P.P.P.P.P.P.P.P.P.P.P.P.P.P.P.) ..9.M.M.M.e.#._ ( ( ( ( E 4 O       O 7 ! ( ( ( ( ( ! 8 & P.P.P.P.P.P.P.P.P.P.P.P.P.P.P.P.P.P.",
"P.P.P.P.P.P.P.P.P.P.P.P.P.P.P.P.( ( #.8.8.8.%.( ( ( ( ( ( m 4 O       O 7 ! ( ( ( ( Q c 6 & P.P.P.P.P.P.P.P.P.P.P.P.P.P.P.P.P.P.",
"P.P.P.P.P.P.P.P.P.P.P.P.P.P.P.P.( ( ( ( ( ( ( ( ( ( P.P.P.P.* O       O 7 Q ( ( ( ~ c 4 4 & P.P.P.P.P.P.P.P.P.P.P.P.P.P.P.P.P.P.",
"P.P.P.P.P.P.P.P.P.P.P.P.P.P.P.P.( ( ( ( ( ( ( P.P.P.P.P.P.P.* O   P.  O 4 P.( ( ( l 6 4 4 & P.P.P.P.P.P.P.P.P.P.P.P.P.P.P.P.P.P.",
"P.P.P.P.P.P.P.P.P.P.P.P.P.P.P.P.( ( ( ( ( ( ( P.P.P.P.P.P.P.* @ P.P.P.P.P.P.z z z 7 4 4 4 & P.P.P.P.P.P.P.P.P.P.P.P.P.P.P.P.P.P.",
"P.P.P.P.P.P.P.P.P.P.P.P.P.P.P.P.P.E E E E ! ( P.P.P.P.P.P.P.4 P.P.P.P.P.P.P.P.* * * 4 4 $ $ P.P.P.P.P.P.P.P.P.P.P.P.P.P.P.P.P.P.",
"P.P.P.P.P.P.P.P.P.P.P.P.P.P.P.P.P.O O O O P.P.P.P.P.P.P.P.P.P.P.P.P.P.P.P.P.P.P.P.4 4 & O   P.P.P.P.P.P.P.P.P.P.P.P.P.P.P.P.P.P.",
"P.P.P.P.P.P.P.P.P.P.P.P.P.P.P.P.P.P.      P.P.P.P.P.P.P.P.P.P.P.P.P.P.P.P.P.P.P.P.P.$ O       P.P.P.P.P.P.P.P.P.P.P.P.P.P.P.P.P.",
"P.P.P.P.P.P.P.P.P.P.P.P.P.P.P.P.P.P.@ O O P.P.P.P.P.P.P.P.P.P.P.P.P.P.P.P.P.P.P.P.P.P.        P.P.P.P.P.P.P.P.P.P.P.P.P.P.P.P.P.",
"P.P.P.P.P.P.P.P.P.P.P.P.P.P.P.P.P.4 4 4 4 P.P.P.P.P.P.P.P.P.P.P.P.P.P.P.P.P.P.P.P.P.P.P.        P.P.P.P.P.P.P.P.P.P.P.P.P.P.P.P.",
"P.P.P.P.P.P.P.P.P.P.P.P.P.P.P.P.4 4 4 4 4 P.P.P.P.P.P.P.P.P.P.P.P.P.P.P.P.P.P.P.P.P.P.P.            P.P.P.P.P.P.P.P.P.P.P.P.P.P.",
"P.P.P.P.P.P.P.P.P.P.P.P.P.P.P.P.* * * * * P.P.P.P.P.P.P.P.P.P.P.P.P.P.P.P.P.P.P.P.P.P.P.P.        P.P.P.P.P.P.P.P.P.P.P.P.P.P.P.",
"P.P.P.P.P.P.P.P.P.P.P.P.P.P.P.P.P.P.P.P.P.P.P.P.P.P.P.P.P.P.P.P.P.P.P.P.P.P.P.P.P.P.P.P.P.P.P.P.P.P.P.P.P.P.P.P.P.P.P.P.P.P.P.P."
};
