/* XPM */
static const char *aWRsZV8z[] = {
/* columns rows colors chars-per-pixel */
"64 64 159 2 ",
"   c #2A1D0D",
".  c #2F2212",
"X  c #322414",
"o  c #362718",
"O  c #37291A",
"+  c #3C2C1D",
"@  c #392916",
"#  c #3B321E",
"$  c #3F2F21",
"%  c #3F3122",
"&  c #373F29",
"*  c #4C270F",
"=  c #442F1F",
"-  c #4A2C16",
";  c #562B11",
":  c #5A2D12",
">  c #44301F",
",  c #5D3116",
"<  c #623116",
"1  c #6A361B",
"2  c #6C3B1D",
"3  c #713A1F",
"4  c #402F22",
"5  c #413122",
"6  c #493625",
"7  c #4B3A26",
"8  c #4F3B2A",
"9  c #523727",
"0  c #513E2B",
"q  c #5B3D25",
"w  c #7A3F24",
"e  c #743B20",
"r  c #3C4C35",
"t  c #5A432D",
"y  c #5C4531",
"u  c #5D4C37",
"i  c #5A503A",
"p  c #6F4627",
"a  c #64482F",
"s  c #6D402C",
"d  c #7F4126",
"f  c #78502F",
"g  c #6A4F36",
"h  c #794632",
"j  c #6C5335",
"k  c #6C5139",
"l  c #715737",
"z  c #73563C",
"x  c #77593F",
"c  c #7C5B3E",
"v  c #6F5C43",
"b  c #725F46",
"n  c #7B5D41",
"m  c #47664C",
"M  c #526D53",
"N  c #636348",
"B  c #706449",
"V  c #804227",
"C  c #86452A",
"Z  c #8E492E",
"A  c #8A4D36",
"S  c #944D32",
"D  c #885835",
"F  c #9B5136",
"G  c #9F5338",
"H  c #A3563B",
"J  c #A6583D",
"K  c #AC5B3F",
"L  c #AD5B40",
"P  c #846345",
"I  c #8C6946",
"U  c #886749",
"Y  c #836C4E",
"T  c #8E6B4B",
"R  c #916C4C",
"E  c #8E704F",
"W  c #96714F",
"Q  c #8A7D5A",
"!  c #927452",
"~  c #9C7552",
"^  c #9C7A55",
"/  c #967D5A",
"(  c #A46B4C",
")  c #B06144",
"_  c #A5754B",
"`  c #A9794E",
"'  c #B9714E",
"]  c #A37B56",
"[  c #AD7B53",
"{  c #BE7A58",
"}  c #BE7451",
"|  c #569470",
" . c #608264",
".. c #93805F",
"X. c #A6805A",
"o. c #AB825B",
"O. c #B1875E",
"+. c #B1895F",
"@. c #848460",
"#. c #81906A",
"$. c #93946D",
"%. c #AA8660",
"&. c #AD8962",
"*. c #B48B62",
"=. c #BC8F62",
"-. c #BD9266",
";. c #B6946B",
":. c #B9956C",
">. c #BC986D",
",. c #BC9A70",
"<. c #8BA57C",
"1. c #C2966A",
"2. c #C69A6C",
"3. c #CA9C6D",
"4. c #C19F71",
"5. c #C2A276",
"6. c #CDA372",
"7. c #C7A87B",
"8. c #CCAB7D",
"9. c #C4A579",
"0. c #D1A272",
"q. c #D8A976",
"w. c #DBAE7C",
"e. c #DDB27F",
"r. c #E0AF7B",
"t. c #E4B27D",
"y. c #E9B77F",
"u. c #63B089",
"i. c #75B087",
"p. c #7AC195",
"a. c #6DD1A3",
"s. c #7DD3A4",
"d. c #77EDBB",
"f. c #75F4C1",
"g. c #88B78C",
"h. c #DEB582",
"j. c #D9BC8A",
"k. c #E3B580",
"l. c #E9B780",
"z. c #E6BA84",
"x. c #EDBB83",
"c. c #F1BD84",
"v. c #DFC291",
"b. c #EDC28C",
"n. c #F5C187",
"m. c #F5C38A",
"M. c #F5C88E",
"N. c #EACB96",
"B. c #EACF9A",
"V. c #F5CC94",
"C. c #E9D19D",
"Z. c #F5D199",
"A. c #F4D39C",
"S. c #F3D7A0",
"D. c #F2D9A3",
"F. c #F5DDA6",
"G. c #F5DCA5",
"H. c None",
"J. c black",
/* pixels */
"H.H.H.H.H.H.H.H.H.H.H.H.H.H.H.H.H.H.H.H.H.H.H.H.H.H.H.H.H.H.H.H.H.H.H.H.H.H.H.H.H.H.H.H.H.H.H.H.H.H.H.H.H.H.H.H.H.H.H.H.H.H.H.H.",
"H.H.H.H.H.H.H.H.H.H.H.H.H.H.H.H.H.H.H.H.H.H.H.H.H.H.H.H.H.H.H.H.H.H.H.H.H.H.H.H.H.H.H.H.H.H.H.H.H.H.H.H.H.H.H.H.H.H.H.H.H.H.H.H.",
"H.H.H.H.H.H.H.H.H.H.H.H.H.H.H.H.H.H.H.H.H.H.H.H.H.H.H.H.H.H.H.H.H.H.H.H.H.H.H.H.H.H.H.H.H.H.H.H.H.H.H.H.H.H.H.H.H.H.H.H.H.H.H.H.",
"H.H.H.H.H.H.H.H.H.H.H.H.H.H.H.H.H.H.H.H.H.H.H.H.H.H.H.H.H.H.H.H.H.H.H.H.H.H.H.H.H.H.H.H.H.H.H.H.H.H.H.H.H.H.H.H.H.H.H.H.H.H.H.H.",
"H.H.H.H.H.H.H.H.H.H.H.H.H.H.H.H.H.H.H.H.H.H.H.H.H.H.H.H.H.H.H.H.H.H.H.H.H.H.H.H.H.H.H.H.H.H.H.H.H.H.H.H.H.H.H.H.H.H.H.H.H.H.H.H.",
"H.H.H.H.H.H.H.H.H.H.H.H.H.H.H.H.H.H.H.H.H.H.H.H.H.H.H.H.H.H.H.H.H.H.H.H.H.H.H.H.H.H.H.H.H.H.H.H.H.H.H.H.H.H.H.H.H.H.H.H.H.H.H.H.",
"H.H.H.H.H.H.H.H.H.H.H.H.H.H.H.H.H.H.H.H.H.H.H.H.H.H.H.H.H.H.H.H.H.H.H.H.H.H.H.H.H.H.H.H.H.H.H.H.H.H.H.H.H.H.H.H.H.H.H.H.H.H.H.H.",
"H.H.H.H.H.H.H.H.H.H.H.H.H.H.H.H.H.H.H.H.H.H.H.H.H.H.H.H.H.H.H.H.H.H.H.H.H.H.H.H.H.H.H.H.H.H.H.H.H.H.H.H.H.H.H.H.H.H.H.H.H.H.H.H.",
"H.H.H.H.H.H.H.H.H.H.H.H.H.H.H.H.H.H.H.H.H.H.H.H.H.H.H.H.H.H.H.H.H.H.H.H.H.H.H.H.H.H.H.H.H.H.H.H.H.H.H.H.H.H.H.H.H.H.H.H.H.H.H.H.",
"H.H.H.H.H.H.H.H.H.H.H.H.H.H.H.H.H.H.H.H.H.H.H.H.H.H.H.H.H.H.H.H.H.H.H.H.H.H.H.H.H.H.H.H.H.H.H.H.H.H.H.H.H.H.H.H.H.H.H.H.H.H.H.H.",
"H.H.H.H.H.H.H.H.H.H.H.H.H.H.H.H.H.H.H.H.H.H.H.H.H.H.H.H.H.H.H.H.H.H.H.H.H.H.H.H.H.H.H.H.H.H.H.H.H.H.H.H.H.H.H.H.H.H.H.H.H.H.H.H.",
"H.H.H.H.H.H.H.H.H.H.H.H.H.H.H.H.H.H.H.H.H.H.H.H.H.H.H.H.H.H.H.H.H.H.H.H.H.H.H.H.H.H.H.H.H.H.H.H.H.H.H.H.H.H.H.H.H.H.H.H.H.H.H.H.",
"H.H.H.H.H.H.H.H.H.H.H.H.H.H.H.H.H.H.H.H.H.H.H.H.H.H.H.H.H.H.H.H.H.H.H.H.H.H.H.H.H.H.H.H.H.H.H.H.H.H.H.H.H.H.H.H.H.H.H.H.H.H.H.H.",
"H.H.H.H.H.H.H.H.H.H.H.H.H.H.5 5 H.H.H.H.H.H.H.~ ~ 5.F.F.9.~ H.H.H.H.H.H.H.H.H.H.H.H.H.H.H.H.H.H.H.H.H.H.H.H.H.H.H.H.H.H.H.H.H.H.",
"H.H.H.H.H.H.H.H.H.H.H.H.H.H.X o 5 H.H.H.H.H.b.j.&.o.;.;.8.v.D.H.H.H.H.H.H.H.H.5 H.H.H.H.H.H.H.H.H.H.H.H.H.H.H.H.H.H.H.H.H.H.H.H.",
"H.H.H.H.H.H.H.H.H.H.H.H.H.H.H.X O + H.H.H.0.e.Z.8.*.] >.j.Z.Z.H.H.H.H.H.H.H.O 0 H.H.H.H.H.H.H.H.H.H.H.H.H.H.H.H.H.H.H.H.H.H.H.H.",
"H.H.H.H.H.H.H.H.H.H.H.H.H.H.H.H.  + > H.H.~ *.x.N.8.*.N.V.c.x.H.H.H.H.H.H.$ + l c.x.x.n.H.H.H.H.H.H.H.H.H.H.H.H.H.H.H.H.H.H.H.H.",
"H.H.H.H.H.H.H.H.H.H.H.H.H.H.H.H.H.; ; ; H.~ ] o.&.2.y.m.m.t.O.H.H.H.H.H.+ X I q.n.1.3.n.n.V.F.H.H.H.H.H.H.H.H.H.H.H.H.H.H.H.H.H.",
"H.H.H.H.H.H.H.H.H.H.H.H.H.H.H.H.; ; ; ; = P %.7.I D _ _ _ [ 2.H.H.H.H.O 5 P +.3.2.+.*.3.3.h.Z.S.H.H.H.H.H.H.H.H.H.H.H.H.H.H.H.H.",
"H.H.H.H.H.H.H.H.H.H.H.H.H.H.H.H.; ; ; ; 5 n :.D.c , 1 1 1 D x.H.H.H.+ 6 j 6.-.~ ~ H.H.~ ~ 1.z.A.S.H.H.H.H.H.H.H.H.H.H.H.H.H.H.H.",
"H.H.H.H.H.H.H.H.H.H.H.H.H.H.H.H.; ; ; H.5 n :.D.b s J J J ' c.H.H.$ X P q.o.H.H.H.H.H.H.H.] *.x.Z.F.F.H.H.H.H.H.H.H.H.H.H.H.H.H.",
"H.H.H.H.H.H.H.H.H.H.H.H.H.H.H.F C < H.H.X z :.D.b 9 h H L } c.n.-.n ^ +.-.H.H.H.H.H.H.H.H.H.o.-.>.8.V.m.H.H.H.H.H.H.H.H.H.H.H.H.",
"H.H.H.H.H.H.H.H.H.H.H.H.H.H.L L J 1 H.H.j ^ 8.Z.Y 0 6 h A ( b.k.3.-.y.w.:.H.H.H.H.H.H.H.H.H.H.~ ~ *.q.q.3.H.H.H.H.H.H.H.H.H.H.H.",
"H.H.H.H.H.H.H.H.H.H.H.H.H.K L L K H.H.H.n.Z.Z.c.*.x 5 5 5 v C.,.-.n.n.V.D.H.H.H.H.H.H.H.H.H.H.H.H.H.~ ~ ~ ~ H.H.H.H.H.H.H.H.H.H.",
"H.H.H.H.H.H.H.H.H.H.H.H.L L L S 2 : ; D y.6.*.*.0.*.P P X.1.;.6.t.m.Z.w.{ ) H.H.H.H.H.H.H.H.H.H.H.H.H.H.H.H.H.H.H.H.H.H.H.H.H.H.",
"H.H.H.H.H.H.H.H.H.H.H.L L L S e ; ; ; 2 ` =.2.5.6.3.1.1.3.3.1.t.m.V.4.[ L L H.H.H.H.H.H.H.H.H.H.H.H.H.H.H.H.H.H.H.H.H.H.H.H.H.H.",
"H.H.H.H.H.H.H.H.H.H.K L L L 3 ; ; ; ; ; ; [ z.S.>.1.l.l.2.-.m.k.h.j.f w H K L H.H.H.H.H.H.H.H.H.H.H.H.H.H.H.H.H.H.H.H.H.H.H.H.H.",
"H.H.H.H.H.H.H.H.H.H.K L L L 3 ; ; ; ; ; ; q E m.l.3.o.o.8.B.S./ a p , : 3 H L L H.H.H.H.H.H.H.H.H.H.H.H.H.H.H.H.H.H.H.H.H.H.H.H.",
"H.H.H.H.H.H.H.H.H.H.K L H d 1 H.H.H.H.H.H.= y ! ! P k k Y ....u = - ; ; < w F L L H.H.H.H.H.H.H.H.H.H.H.H.H.H.H.H.H.H.H.H.H.H.H.",
"H.H.H.H.H.H.H.H.H.H.L K S ; H.H.H.H.H.H.H.% 5 5 5 5 5 5 5 5 5 5 5 5 - * H.; V G L H.H.H.H.H.H.H.H.H.H.H.H.H.H.H.H.H.H.H.H.H.H.H.",
"H.H.H.H.H.H.H.H.H.H.H.H.H.H.H.H.H.H.H.H.H.% 5 5 5 5 5 5 5 5 5 5 5 $ X   H.H.: 3 K K L H.H.H.H.H.H.H.H.H.H.H.H.H.H.H.H.H.H.H.H.H.",
"H.H.H.H.H.H.H.H.H.H.H.H.H.H.H.H.H.H.H.H.H.H.5 5 5 5 5 5 5 5 5 5 5 $ .   H.H.H.C L L K H.H.H.H.H.H.H.H.H.H.H.H.H.H.H.H.H.H.H.H.H.",
"H.H.H.H.H.H.H.H.H.H.H.H.H.H.H.H.H.H.H.H.H.H.H.4 + + 5 5 5 5 5 5 + O .   H.H.H.L L L K H.H.H.H.H.H.H.H.H.H.H.H.H.H.H.H.H.H.H.H.H.",
"H.H.H.H.H.H.H.H.H.H.H.H.H.H.H.H.H.H.H.H.H.H.H.H.  X $ $ $ $ $ $ O       H.H.L L L K L H.H.H.H.H.H.H.H.H.H.H.H.H.H.H.H.H.H.H.H.H.",
"H.H.H.H.H.H.H.H.H.H.H.H.H.H.H.H.H.H.H.H.H.H.H.H.    . . . . . . .       H.L L L L H.H.H.H.H.H.H.H.H.H.H.H.H.H.H.H.H.H.H.H.H.H.H.",
"H.H.H.H.H.H.H.H.H.H.H.H.H.H.H.H.H.H.H.H.H.H.H.H.t t t X                 H.K L H C H.H.H.H.H.H.H.H.H.H.H.H.H.H.H.H.H.H.H.H.H.H.H.",
"H.H.H.H.H.H.H.H.H.H.H.H.H.H.H.H.H.H.H.H.H.H.H.H.W / Q 7 X     X # & # @ H.G G Z : H.H.H.H.H.H.H.H.H.H.H.H.H.H.H.H.H.H.H.H.H.H.H.",
"H.H.H.H.H.H.H.H.H.H.H.H.H.H.H.H.H.H.H.H.H.H.H.5 P <.s.Q t     g #.a.@.T H.< < < H.H.H.H.H.H.H.H.H.H.H.H.H.H.H.H.H.H.H.H.H.H.H.H.",
"H.H.H.H.H.H.H.H.H.H.H.H.H.H.H.H.H.H.H.H.H.H.5 5 y N  .! P N | i.g.<.B t > H.H.H.H.H.H.H.H.H.H.H.H.H.H.H.H.H.H.H.H.H.H.H.H.H.H.H.",
"H.H.H.H.H.H.H.H.H.H.H.H.H.H.H.H.H.H.H.H.H.t t t t 8 6 x R $.d.f.p.n 0 5 5 H.H.H.H.H.H.H.H.H.H.H.H.H.H.H.H.H.H.H.H.H.H.H.H.H.H.H.",
"H.H.H.H.H.H.H.H.H.H.H.H.H.H.H.H.H.H.H.H.H.~ ~ ~ ~ z 5 5 z $.d.f.u.5 5 5 8 T H.H.H.H.H.H.H.H.H.H.H.H.H.H.H.H.H.H.H.H.H.H.H.H.H.H.",
"H.H.H.H.H.H.H.H.H.H.H.H.H.H.H.H.H.H.H.H.m.r.w.j.j.8.*.U k i M m r X + 5 8 T ~ H.H.H.H.H.H.H.H.H.H.H.H.H.H.H.H.H.H.H.H.H.H.H.H.H.",
"H.H.H.H.H.H.H.H.H.H.H.H.H.H.H.H.H.H.H.n.n.M.Z.F.F.A.b.2.T y 5 X     + 5 8 R ~ ~ H.H.H.H.H.H.H.H.H.H.H.H.H.H.H.H.H.H.H.H.H.H.H.H.",
"H.H.H.H.H.H.H.H.H.H.H.H.H.H.H.H.H.H.m.n.m.Z.F.F.F.F.A.m.2.P 6 X     + 5 8 R ~ ~ ~ H.H.H.H.H.H.H.H.H.H.H.H.H.H.H.H.H.H.H.H.H.H.H.",
"H.H.H.H.H.H.H.H.H.H.H.H.H.H.H.H.H.H.m.m.A.S.F.F.F.Z.m.m.2.P 6 X     + 5 8 R ~ ~ ~ ~ H.H.H.H.H.H.H.H.H.H.H.H.H.H.H.H.H.H.H.H.H.H.",
"H.H.H.H.H.H.H.H.H.H.H.H.H.H.H.H.H.H.n.m.S.F.F.F.F.Z.x.0.O.P 6 X     X + 8 R ~ ~ ~ ~ ~ H.H.H.H.H.H.H.H.H.H.H.H.H.H.H.H.H.H.H.H.H.",
"H.H.H.H.H.H.H.H.H.H.H.H.H.H.H.H.H.m.m.V.G.F.F.F.S.V.l.o.~ P 6 X       X 8 R ~ ~ ~ ~ ~ H.H.H.H.H.H.H.H.H.H.H.H.H.H.H.H.H.H.H.H.H.",
"H.H.H.H.H.H.H.H.H.H.H.H.H.H.H.H.H.m.V.S.F.F.F.F.V.m.l.o.~ P 6 X       X 8 R ~ ~ ~ ~ ~ ~ H.H.H.H.H.H.H.H.H.H.H.H.H.H.H.H.H.H.H.H.",
"H.H.H.H.H.H.H.H.H.H.H.H.H.H.H.H.H.m.V.F.F.F.S.V.m.w.=.] ~ P 6 X       X 8 R ~ ~ ~ ~ ~ ~ H.H.H.H.H.H.H.H.H.H.H.H.H.H.H.H.H.H.H.H.",
"H.H.H.H.H.H.H.H.H.H.H.H.H.H.H.H.H.x.V.A.A.A.V.n.t.-.~ ~ ~ P 6 X       X 8 R ~ ~ ~ ~ ~ ~ H.H.H.H.H.H.H.H.H.H.H.H.H.H.H.H.H.H.H.H.",
"H.H.H.H.H.H.H.H.H.H.H.H.H.H.H.H.] t.n.n.n.n.n.c.*.~ ~ ~ ~ P 6 X       X 8 R ~ ~ ~ ~ ~ R 0 $ H.H.H.H.H.H.H.H.H.H.H.H.H.H.H.H.H.H.",
"H.H.H.H.H.H.H.H.H.H.H.H.H.H.H.H.~ O.q.n.n.n.t.*.] ~ ~ ~ ~ P 6 X       X 8 R ~ ~ ~ ~ ~ R 0 $ H.H.H.H.H.H.H.H.H.H.H.H.H.H.H.H.H.H.",
"H.H.H.H.H.H.H.H.H.H.H.H.H.H.H.H.~ ~ *.0.0.0.-.~ ~ ~ ~ ~ ~ n 5 X       X 8 R ~ ~ ~ ~ T z 7 $ H.H.H.H.H.H.H.H.H.H.H.H.H.H.H.H.H.H.",
"H.H.H.H.H.H.H.H.H.H.H.H.H.H.H.H.~ ~ ~ ~ ~ ~ ~ ~ ~ ~ H.H.H.H.% X       X 8 T ~ ~ ~ W z 5 5 $ H.H.H.H.H.H.H.H.H.H.H.H.H.H.H.H.H.H.",
"H.H.H.H.H.H.H.H.H.H.H.H.H.H.H.H.~ ~ ~ ~ ~ ~ ~ H.H.H.H.H.H.H.% X   H.  X 5 H.~ ~ ~ g 7 5 5 $ H.H.H.H.H.H.H.H.H.H.H.H.H.H.H.H.H.H.",
"H.H.H.H.H.H.H.H.H.H.H.H.H.H.H.H.~ ~ ~ ~ ~ ~ ~ H.H.H.H.H.H.H.% o H.H.H.H.H.H.k k k 8 5 5 5 $ H.H.H.H.H.H.H.H.H.H.H.H.H.H.H.H.H.H.",
"H.H.H.H.H.H.H.H.H.H.H.H.H.H.H.H.H.~ T P P P P H.H.H.H.H.H.H.5 H.H.H.H.H.H.H.H.% % % 5 5 5 + H.H.H.H.H.H.H.H.H.H.H.H.H.H.H.H.H.H.",
"H.H.H.H.H.H.H.H.H.H.H.H.H.H.H.H.H.H.@ X X X X H.H.H.H.H.H.H.H.H.H.H.H.H.H.H.H.H.H.H.H.5 5 o   H.H.H.H.H.H.H.H.H.H.H.H.H.H.H.H.H.",
"H.H.H.H.H.H.H.H.H.H.H.H.H.H.H.H.H.H.H.        H.H.H.H.H.H.H.H.H.H.H.H.H.H.H.H.H.H.H.H.H.X .     H.H.H.H.H.H.H.H.H.H.H.H.H.H.H.H.",
"H.H.H.H.H.H.H.H.H.H.H.H.H.H.H.H.H.H.H.H.X X X H.H.H.H.H.H.H.H.H.H.H.H.H.H.H.H.H.H.H.H.H.          H.H.H.H.H.H.H.H.H.H.H.H.H.H.H.",
"H.H.H.H.H.H.H.H.H.H.H.H.H.H.H.H.H.H.5 5 5 5 % H.H.H.H.H.H.H.H.H.H.H.H.H.H.H.H.H.H.H.H.H.H.H.        H.H.H.H.H.H.H.H.H.H.H.H.H.H.",
"H.H.H.H.H.H.H.H.H.H.H.H.H.H.H.H.H.5 5 5 5 5 % H.H.H.H.H.H.H.H.H.H.H.H.H.H.H.H.H.H.H.H.H.H.H.          H.H.H.H.H.H.H.H.H.H.H.H.H.",
"H.H.H.H.H.H.H.H.H.H.H.H.H.H.H.H.H.H.% % % % H.H.H.H.H.H.H.H.H.H.H.H.H.H.H.H.H.H.H.H.H.H.H.H.          H.H.H.H.H.H.H.H.H.H.H.H.H.",
"H.H.H.H.H.H.H.H.H.H.H.H.H.H.H.H.H.H.H.H.H.H.H.H.H.H.H.H.H.H.H.H.H.H.H.H.H.H.H.H.H.H.H.H.H.H.H.H.H.H.H.H.H.H.H.H.H.H.H.H.H.H.H.H."
};
