/* XPM */
static char *door_11711330745[] = {
/* columns rows colors chars-per-pixel */
"64 64 250 2 ",
"   c #150400",
".  c #1A0600",
"X  c #160A06",
"o  c #1C0A01",
"O  c #180E09",
"+  c #270A01",
"@  c #230C02",
"#  c #251203",
"$  c #2B1403",
"%  c #281609",
"&  c #2D1B0B",
"*  c #331A05",
"=  c #391905",
"-  c #36160A",
";  c #351C0A",
":  c #261D13",
">  c #3A220C",
",  c #2B2219",
"<  c #3B2613",
"1  c #392618",
"2  c #2B2924",
"3  c #362D26",
"4  c #3A3229",
"5  c #2D3437",
"6  c #343435",
"7  c #373739",
"8  c #3C3C3D",
"9  c #441C03",
"0  c #48260A",
"q  c #532B0B",
"w  c #5C330D",
"e  c #432B14",
"r  c #482B17",
"t  c #552E11",
"y  c #47321B",
"u  c #4B331C",
"i  c #573619",
"p  c #6A3810",
"a  c #673C18",
"s  c #443322",
"d  c #4A3428",
"f  c #483728",
"g  c #4D3B2C",
"h  c #563A24",
"j  c #533E2C",
"k  c #483B33",
"l  c #623F23",
"z  c #6B431C",
"x  c #74471D",
"c  c #5B422A",
"v  c #49423A",
"b  c #544233",
"n  c #544837",
"m  c #574739",
"M  c #5C4C3C",
"N  c #674527",
"B  c #6D4C2B",
"V  c #774B25",
"C  c #724C2A",
"Z  c #704F2F",
"A  c #78532B",
"S  c #694C33",
"D  c #624E3D",
"F  c #6A523B",
"G  c #775637",
"H  c #7D603C",
"J  c #353C42",
"K  c #3E3E41",
"L  c #3F4142",
"P  c #47484A",
"I  c #564C44",
"U  c #595249",
"Y  c #464E53",
"T  c #4D4E52",
"R  c #504F54",
"E  c #4E5054",
"W  c #4F535A",
"Q  c #525255",
"!  c #5C5955",
"~  c #53565B",
"^  c #56585D",
"/  c #595A5E",
"(  c #614F43",
")  c #655343",
"_  c #6A5443",
"`  c #69594B",
"'  c #755C47",
"]  c #685D54",
"[  c #725F51",
"{  c #5E615F",
"}  c #7B624A",
"|  c #67635C",
" . c #7A6755",
".. c #545B63",
"X. c #5B6367",
"o. c #556774",
"O. c #656767",
"+. c #6E6F70",
"@. c #787877",
"#. c #854C1A",
"$. c #88592B",
"%. c #8C582B",
"&. c #855B37",
"*. c #8C5A32",
"=. c #935E33",
"-. c #95642E",
";. c #8A633B",
":. c #926134",
">. c #99683B",
",. c #A56D2E",
"<. c #A46C39",
"1. c #AB723B",
"2. c #B87839",
"3. c #C27A33",
"4. c #825E43",
"5. c #886648",
"6. c #936B44",
"7. c #9A6C43",
"8. c #946C49",
"9. c #997249",
"0. c #9B724B",
"q. c #876C56",
"w. c #8E6E51",
"e. c #87715A",
"r. c #8B735C",
"t. c #9B7756",
"y. c #AB7542",
"u. c #A3754C",
"i. c #AA764A",
"p. c #A77849",
"a. c #AD7B4C",
"s. c #B67C45",
"d. c #B37C4C",
"f. c #A57B54",
"g. c #A57A56",
"h. c #AB7D53",
"j. c #8A7766",
"k. c #947C66",
"l. c #847D75",
"z. c #A47F62",
"x. c #BD813F",
"c. c #CC823B",
"v. c #A8804F",
"b. c #B9834A",
"n. c #A8845A",
"m. c #AC835C",
"M. c #B88758",
"N. c #9B8269",
"B. c #89837B",
"V. c #9A8877",
"C. c #A88767",
"Z. c #B78C64",
"A. c #AF926D",
"S. c #B99269",
"D. c #A48A73",
"F. c #AF8F72",
"G. c #AB8D74",
"H. c #A38D7A",
"J. c #AB927B",
"K. c #B89877",
"L. c #B4947B",
"P. c #C5884A",
"I. c #D38D48",
"U. c #D5934B",
"Y. c #C48D57",
"T. c #C7935A",
"R. c #CB935A",
"E. c #D79857",
"W. c #DAA15A",
"Q. c #E9A95E",
"!. c #C48E62",
"~. c #C89868",
"^. c #D39D66",
"/. c #C39D74",
"(. c #D8A468",
"). c #CBA378",
"_. c #D8AA77",
"`. c #DDB379",
"'. c #E9AF6D",
"]. c #E8B36A",
"[. c #E6B67A",
"{. c #F4C37C",
"}. c #798286",
"|. c #8C8B88",
" X c #968C83",
".X c #9D9389",
"XX c #A89788",
"oX c #B49B83",
"OX c #B79B84",
"+X c #BB9D83",
"@X c #A69D93",
"#X c #B9A48B",
"$X c #BBA48B",
"%X c #ABA59B",
"&X c #BAA896",
"*X c #B6AFA5",
"=X c #C7A787",
"-X c #DBB483",
";X c #DAB586",
":X c #D5B088",
">X c #C4AD97",
",X c #C5B29C",
"<X c #CAB49A",
"1X c #CBB59D",
"2X c #D6B99B",
"3X c #E5BA88",
"4X c #E4BF95",
"5X c #C1AFA1",
"6X c #CEBAA2",
"7X c #CBB8A4",
"8X c #D2BCA4",
"9X c #DABEA2",
"0X c #D3BFAA",
"qX c #F3C48B",
"wX c #F7C88A",
"eX c #F5CC8F",
"rX c #E7C495",
"tX c #F7CC92",
"yX c #D9C2A6",
"uX c #D5C2AB",
"iX c #DAC4AD",
"pX c #DCC9AF",
"aX c #C2C2BA",
"sX c #D5C6B1",
"dX c #DBC6B1",
"fX c #DDCAB4",
"gX c #DECCB9",
"hX c #E2C9AB",
"jX c #E2CDB5",
"kX c #E7CDB6",
"lX c #E1CFBA",
"zX c #E4D2BC",
"xX c #E9D4BA",
"cX c #EBD5BB",
"vX c #F1DABE",
"bX c #D7D2C9",
"nX c #E5D4C2",
"mX c #EBDAC3",
"MX c #EBDAC6",
"NX c #F2DCC3",
"BX c #F2DFC9",
"VX c #E1DED5",
"CX c #F7E3CA",
"ZX c #F3E3CD",
"AX c #ECE2D1",
"SX c #F3E5D2",
"DX c #FBECD4",
"FX c #F9EAD8",
"GX c #FEF2DA",
"HX c #FEF5E5",
/* pixels */
"..^ ^ ^ ....^ W ..~ Q ^ ~ ~ ^ ^ ^ / ^ ^ ^ ^ ^ Q ^ ^ ^ ~ ^ ^ ^ ^ ^ E ..^ ^ ..~ ~ ^ ^ ^ ..^ / ~ ^ ^ ^ ^ ~ ! ../ / / ../ / / ^ ^ / ",
"^ / .X2 *XaXbXbXVXVXVXVXbXbXaX%X}.v bX%X%X%X%X%X%X@X.X X|..X@X.X@X%X%X%X%X%X%X*X*X*X%X%X%X X{ E P v P ! O.+.l.l.l.l.B.l.l.l.T ^ ",
"^ W HXHXHXGXGXGXGXGXDXGXDXDXDXZXGXV.GXFXGXGXGXDXGXDXDXGXDXFXSXCXZXSXDXSXAXAXSXFXZXZXSXSXSXDXGX  HXHXHXHXHXHXHXGXHXHXGXHX6X$X3 W ",
"^ E FXzX/.;X`.`.;X;X`.`.`.;X;X`.;X;X`.`.`.-X;X3X-X).).).~.K.n.H 5.9.6.9.v.n.n.K.$X).=X=X=X:X=X).).K./././.S.Z.Z.Z.S.Z.m.6.F 7 E ",
"~ T SXjXhXN > > * * = N H H G y 0 z 5.9.$.z z w z z x $.A z > ~.z z V z z A z A ;.0.7.6.;.;.A A B B V x V A $ = 9 $ * i C.' 8 Y ",
"^ T DXzX0 {.W.W.].'.'.W.> ;.p.S.A R.T.M.* t 0 $ $.> B Z 6.n.S.v.v.v.A 9.;.w.;.M.5.0 r G  .; ; *.^.a.w z 7.B >.>.>.<.b.~.t.q.8 E ",
"Q T CXzX).{.`.a M.qX[.0 U.b.T.V R.P.$.x.T.c E.R.$.>.n.| o.+.}.|.+.B.! | O.W j.N.K.i _.S.> ~.a.a 7.0 ;.h.-.<.m.6.>.u.z S.Z.q.v E ",
"~ E SXvX;XeX-.].[.0 @ _.b.(.9.U.c.b.> x.b.#.R.q T.-.p Z.A. .*XJ. .=X9X| |.rX{.# e 6.a.f.u.>.Y.P.=.;.q p.>.t C M.z h.a v.S.q.8 E ",
"^ Q DXmX`.tXx -.M.(.1.`.T.R.~.b.y.a.u P.b.y.q M.s.R.P.w a Y.^.^.W.T.Y.T.).h.+ /.^.T.b.^.:.=.M.6.S r 0 >.7.r >.s.>.M.9 7.S.} K T ",
"~ E SXmXrXtXx [.b._.~.t.T.p 0 0 - n.x I.V (.t 9 y.R.~.~.%.9 = a z z w p p x <.b./.0 1 &.7.d.a G u.d.M.V y.w <.7.t Y.*.V /.[ 8 W ",
"~ E AXmXrXeX3X0 W.N h 9.= '.U.Y.R.d.E.^.9 (.Y.R.w t F.t.; @ o X 1 : o X o e t.8.$.y.7.i &.a.;.0 M.Y.<.7.a !.= u.m.q 7.l /.' 8 R ",
"~ Q FXAXrXeXZ.-.V p._.i (.y.M.E.I.^.q Y.M.a 4.N.> $ b _ [ }  .@  .r.j.k.k.j. .M % < 6.>.f.Z.Z.M.p R.R.i.8.V y.Z.C p.d.a +X_ 8 ~ ",
"^ Q FXBXrXeXi `.:X; ; T.q R.R.U.A h.u.i _ h g k.j  .q.N.<X1X8X@ K.zX1X<X#XJ.D.D.N.I M c 9.>.0 ~.^.R.9 w.0.u Z y.7.i.>.l /._ k W ",
"~ Q AXBXrXtXM n =X).(.^.~.p.^.# C.8._ j j j.N.J.F <X6XuXuXiXiX@ #XcXyXuXyXuX8X1X&XN.XXF ' B :.t _.4.' /.Y.N & + d.a d.&.=X_ K W ",
"~ ^ FXBXrXwX` D n b ' e._ $.0 9.0 D m  .N.J.L.oX$XuXiXpXpXpXpX. >XvXfXpXiXuXpXiXyXoX&XD } j.a :.6.l  .s /.g.C.r.+ =.7.&.=X( 8 ~ ",
"^ ~ AXBXrXtXu G e $X| I k _.(.M.e ` G.L.J.oX#X#X<XuXpXpXpXpXdX1 <XvXdXjXdXfXfXpXpXyX#Xk.V._ V.>.a t.j O.K ` O.O.P % y.$.=XI k ~ ",
"^ E FXNXrX{.].(.M.].{.(.P.(.# M.b k.J.=X<X#X#X&XyXjXpXfXpXpXpXo iXcXfXfXjXjXjXjXlXkXN.#XJ.[ XX6.8.Y.Y.! O.] 4 w.6.* d.V =X) K E ",
"~ Q SXvXrX{.b eX{.o ].v.v.} y M.j n <X1X7X8XV.sXzXzXNX1 # 4 X y kX@ e.G * S <XkXuXj fXdXH._ OX5.8.9 3.s._ &.^.= ~.$ d.z /.) L ~ ",
"~ Q SXvX3XeXv I H {.v.tX> C.c b.s  .F @ s NXcXzXzXjXfXcX  xXpXfXq.jX<XCXkXkXfXiXd k.V.j.l.) # 8.9.% h.2.P.$ % j.n v s.a +X( 8 T ",
"~ ~ AXvX).eXU 8 |.{ { ! yX4 y M.u r. .jXjXjXjXzXjXfXfXmXDXzXgXgXkX .iXjXvX  # XX0XuXuXuX0X0XuX5.0.I I l b.2.#  XU s y.N =X( K Q ",
"/ Q AXvXm.tXn D.+.+.K.).4 ).c Y.e e.5.fXzXjXzXzXzXpXzXmXDXlXzXgXjXzXjXjXjXiX  dXuXuXuX0X0X7X7X= h.O 8.f.@ s.P.@ U m d.C =Xj K Q ",
"^ Q AXvXm.tXv Z.O.X.n.v.u.~.h ~.< N. .zXzXzXlXlXpXgXpXCXSXgXjXjXjXgXjXjXgXdX  sXuXuX0XuX0X0X7X$ h.. 0.u.& ^.s.Y.3 l d.C +XD K R ",
"^ T AXCXn.eX4 3 D.X.B.v S.n.i ~.e N.e.cXzXzXlXzXfXgXpXSXCXlXjXjXlXzXjXjXgXfXo 0XuXdX0XsX0X0X7X$ i.3 C.+ /.0.d.2.~.1 a.N +X( K R ",
"~ Q AXvXv.eXy ].^.w.;XU n.H y ~.i N.e.zXcXzXzXzXgXgXzXBXZXgXlXcXcXNXjXfXdXfX% uX0XuXuX0XuX0X#X0 h.g . ~.T.rX= s.Y.@ a.G L.` K Q ",
"~ T BXNX6.eX4 < (.^.a.N. . .b S.u N.} cXzXzXzXzXjXjXlX#XZXjXyXyXyXyXyXyXpXfX  zXjXuXuXuXsXH. Xr p.$ _.S.P P 3 G d.= h.G +X` k W ",
"^ T AXcX;.eX| }.: `.u M N S.f S.c r.' S.i > & D #XlXBXnXcXhX<X:X<Xn.:X<XsXX mXnXmX6X. > &X@XV.t a.# S.U 7 I u.@ Y.9 h.4.OX` K W ",
"~ W MXmX9.wXX.5 :X(.{.:.b.Z.c S.G D hX2Xr.mXmXnXnXMXzXMXzXd hX>X/.K.n.uXj.zXzXzXgXgXjXj @XV. Xa f.&.).X.5 V.K.j Z.V h.4.OX` 8 T ",
"..T BXxX>.wXP  .#XH Q.$.u D M M.h t.G.F mXmXMXmXnXMXzXVXMXmXZX  _ <   nXzXgXjXgXjXjXpXD XXV. Xl h.N c T % /.t., K.r f.5.+X) 8 W ",
"~ T BXcX6.qXI A.N.v.W.,.B M M v.u k.D.q.mXmXmXnXnXMXnXMXnXnXzXNXdX .nXlXlXfXfXjXgXfXfX_ XX X Xa 7.&.; 1.y.Y.#.8.S : g.5.XX) K R ",
"~ T BXcX6.wXf 1Xy x Q.`.b.W.y n.u k.D.D.mXnXnXnXlXnXnXzXnXnXnXZXkXk.lXfXjXjXlXjXjXfXhX) XXl.XXN >.M.y.&.Z h Y.a 5.. t.' OX` 8 R ",
"~ Y BXvX5.eX4 } H > ).> ~.-.H n.h k.G.oXmXnXzXnXlXlXnXbXnXnXnXZXMXH.gXdXjXjXfXfXjXfXfXj H. X@XB y.b.+ c b h Y.f.4.  8.4.OX` K R ",
"~ P AXcX$.qXk G (.v.y v.A.& , v.h r.G.D.mXcXzXzXnXnXlXnXgXnXgXFXcXr.lXdXdXdXjXfXfXfXdXS @XXX@X&.-.t.G b.d.-X$ F w.@ 0.4.OX( 7 Y ",
"..L AXxXB qX* `.l [.o (.t ^.A g.c r.G.} mXxXmXnXzXzXgXzXlXnXlXDXkX' jXjXfXjXfXfXjXfX0XF XX@X@Xu.*.: ~ < <.y.u.u.9.X 7.5.OXI 8 T ",
"^ P ZXmXA eXS.> {.$.^.rX~.'.S.h.c } #Xc BXzXzXzXzXnXnXnXnXlXkXnXkXF fXjXjXiXjXdXfXhX>Xf ,X@X@Xu.$.: X.6 l.2 2 , 2 ' t.4.OXI 8 T ",
"^ L SXvXA eX# (.0 :X# [.$ [.).h.i N.X CXCXXXj.FXDXZXZXNXNXBXX k <X. ZXNXkX< k._ < ; j X >X5X%X7.:.f.X O.....~ P * ;.m.5.OXI 8 R ",
"^ Y AXmXZ eXU h a.W.P.M.<.r s u.u M BXlXnXmXnXnXzXgXgXlXfXgXgX8X1Xr fX0XsXfXBX5X1X7XU ,X*X>X@X7.:.. :.: X...X.% 1.i C.4.+Xm 8 T ",
"~ P AXxXB {.| | M N.4 U S.a.B g.y e.BXzXnXgXnXgXgXgXgXgXfXgXsXMXyXy sXsXsXsXuXuXgXr.6X,X5X*XXX7.>.% - =.@ ] Z.1.l : z.w.L.I J T ",
"~ Y AXxXN eXn 1 | ^ ..l. X: f M.> N.CXzXzXlXgXgXgXgXdXgXgXdXfXZXpXf sXsXuXuXsXuXfXF 7X,X&X&XXX6.=.  !.+ 1.y.s.=.i.% z.8.L.m 8 T ",
"~ Y AXxXi {.B W.n...+.+.O.2 G Z.< N.CXlXzXgXgXgXgXgXgXgXfXgXfXBXpXe uXuXuXuXuXuXuX_ 5X,X&X&X.X8.=.X j N <.M.1 Z.=.# z.5.J.v K T ",
"~ E ZXxXN eX} K.U +.J O.! z.N ~.r N.xXzXzXgXgXgXdXfXgXgXgXgXsXsX0Xe uXuXsXuXsXuXiXF 5X>X&X@XV.6.=.@ d.y.d.6.< q.w.; C.5.J.b 8 T ",
"~ Y AXmXi qXB ^.4.+.+.I ^.&.l h.< D.8XpXdXgXgXgXzXfXgXgXgXgXfX% 8Xj 0XhXuXuXuXuXuXk ,X&X&XXXl.5.7.  0 f.0.d 0.> t.1 z.w.J.k K R ",
"Q Y SXvXV qX6.2.c.l K E.I.1 r C.y $ # _  .j , % . % @       O SX7X5X] gXzXzXdXlXN.O @X7X5XV.l.$.7.  ;.t 1 t d.-.7.1 z.w.G.k k R ",
"^ E ZXvXi eXM c E.U.E.3.C j > Z.< e.L.dXdXdXdXdXdX .HXgXfXgXgXgXkXZXk 0XuXpXuXuX8X6X8XdXl.@X XN =.+ !.+ r b.0 oXk : z.w.L.k K R ",
"~ E ZXvXz [.U ] ' c.I.'.- k.< M.$ j.#XdXiXiXdXuXpXFXgXiXsXuXuXuXsX+ nX9XuXuX2XuX6X6X<X8X: l.j.C =.; G a.=.y.d.a.p.0 z.w.L.k J T ",
"~ E ZXvXi [.| ` ].I.#.I.!.5.1 f.o w.oXdXdXiXsXuXdXGXgXuXuXuXuXuX0Xo 6XuX6X6XuX1X6X1X<X7X| B.B.a =.a 1.+ u.d.&.Z - r z.w.OXk 8 T ",
"~ Q ZXCXB [.' i U.r N q I.P.0 Z.@ q.XXdXdXdXuXdXsXZXlXuXuXyXuX0X0X. 0XuXuX6X6X6X6X1X<XuXXXV.B.q 7.r d.l - y.8.N M.+ z.w.L.k K T ",
"~ E ZXCXB [.7.< W.I.P.`.< 1.q h.@ e.J.fXuXfXuXdXuXMXxXuXuXuXyXuX8X. 8X6X6X6X6X6X7X1X<X1X X X|.> *.% & d.@ $ F d.#.; w.5.G.k 8 T ",
"..E SXCXZ `.1.x.9 !.Y.j 7.1.1 h.+ e.G.pXiXuXuXuXuXzXcX8XuXuXuXuX8X. 6X8X6X6X6X2X1X1X>X&X%X@X X= =.. Y.$.2.2.,.,.S.u 0.5.L.k K T ",
"~ T SXNXB rXc b.c.U.Q.c.P.# 1 v.$ q.H.iXiXiXiXyXuXzXjXiXuXuXiX0XyXo 6X6X6X6X6X6X7X<X>XD @Xl.|.9 &.  N.1 g e r f 2 } t.5.L.k K R ",
"~ T ZXvXz 3Xv | @.` v $ o } h M.; q.D.iXyXiXuXiXuX> } pX0X0X0X0XuX@ 1X8X6X6X1X6X<X<X<X[ .X|.B.t *.: Y ..6 +., | 2 Z g. .L.d K T ",
"~ T ZXvXl rXv X.o.o.o.! ~.S c a.* q.D.jXpXuXiXiXS 9X2X% iX0XuXuX1X@ 6X<X1XuX6X1X6X6X0X*X Xl.@.h $.% 3 P @.Q |.7 & V t.5.L.k K R ",
"~ E mXvXB 3Xb G.}.o.o.8 (.+ j h.& e.r o y _ j.j.% b <X% 3 1 o . k.e cXdXiXOX- f j <   XX|.@.l.+ *.# n.&X}.X.+.k b.t 0.4.L.k K R ",
"~ T mXcXC qXn ^.5.o.W (.$.[.0 h.= q.>X0X0X9X0X0XsXdX. 8X1X6X6X; ,XH.7X1X,X8Xh >X>X+X>X&X|.l.l.+ *.% 0.h.% +.v %.s.@ 0.' +Xs K R ",
"..T mXcXB rXU 4 ^.0 W.a oX-X$ f.$ e.C.,X9X8X8X<X1X7X&X7X1X7X6X1 7XOX,X<X>X8Xj.>X#X+XOXs  Xl.l.+ %.3 d 8.M.+ V -.+ u w.G OX3 K R ",
"W P MXkXq _.U ! ' u.'.@ OX: 1 i.+ j.+X2X6X7X1X1X1X>XCX6X1X1X1Xy 0X#X1X1X,X9X=X>XOXoXOXz.z.j.[ = =.j m z.b.P.b.. s S k.G L.f P T ",
"~ Y MXhX0 ).T E [ T.d.^.0.w.- f.# k.J.<X1X6X8X1X1X,X#X<X1X,X1X, jX,X,X,X,X0XlX>XoXOXOXOX X[ q.9 *._ I > d.b.d.- r l g.S G.4 K R ",
"~ Y mXkXr ^.U R c i , tXd.4.0 u.; D.D.2X7X<X1X1X<X<X# 1X,X1X,X+ hX0X<X,X,X0X8X+X+XOXOXJ.V.} [ 0 =.d l >.w 0 #.<.+ l t._ G.6 K R ",
"W P xXkXa ).h.].W.(.]._.- t.- g.r k.[ 6X6X6X8X6X8XuX. 6X6X8X1X# dX9X>X,X,X9Xk ,X+X+XOXJ.k. .[ h *.+ d.>.!.+ 9 i.V h t.l z.k K ~ ",
"~ P mXkXN -Xz /.b J.- W.a g.- g.y q.cXOXD r j [ j.dXcXjX)   X . d % + o ) 5X>X0X0X0X1X,Xe.[ [ l *.+ $.9 w.' g.u 9 C 5._ k.s K ~ ",
"W P mXNXN 3X= M.r @ >.`.4.w.; g.d r.,X<X9X8X0X8X6X0X<X7X,X,X8X& 6Xr.&XOX#X+X+XOXoXOXXXOX .U [ S &.< l l i d g.G z.0 4.r z.3 K R ",
"~ K NXNXS 8.; 0 C C 9 . r + . G $ & o $ < r y e h 1 - ; $ & ; 1 ; & - & ; ; $ * - - $ % % - - - 1 d r d j _ ( m ( r.Z + d 6 8 ~ ",
"~ 7 kX2X2X4X9XyX2X9XhXhX9X8X2X9X2X9XhXjXjXhXhXkXHXXX8X9X2X1X9X2X9X9X<X2X>X=X=X=X=X+X+X+X+X+X+XL.OXL.L.OXF.F.z.G.F.z.F.G.z.3 K W ",
"~ K : % O 4 k j j ( ( _ M m k g 3 1 1 1 , 1 , : , 4 s j j m b k j j k j j b m b j I ( ( _ _ D ( D ( j j d j d d j d g k d 2 P T ",
"~ W P K 8 8 7 7 7 6 6 7 6 7 6 6 7 6 7 6 6 6 6 7 7 7 7 7 7 6 6 7 6 7 6 7 7 6 6 L 5 3 6 6 6 6 6 6 6 6 6 7 6 6 6 7 7 7 7 7 K K P ~ "
};
