/* XPM */
static char *result[] = {
/* columns rows colors chars-per-pixel */
"64 64 247 2 ",
"   c #030202",
".  c #0A0402",
"X  c #0B0A05",
"o  c #0D0C0B",
"O  c #050709",
"+  c #1A0B03",
"@  c #120E0B",
"#  c #150804",
"$  c #13110D",
"%  c #1C1309",
"&  c #0E0F11",
"*  c #070F14",
"=  c #0C1518",
"-  c #131313",
";  c #141B1C",
":  c #1B1C1B",
">  c #181714",
",  c #0F100D",
"<  c #270A01",
"1  c #360901",
"2  c #281406",
"3  c #381805",
"4  c #241D15",
"5  c #3C210A",
"6  c #25221B",
"7  c #372918",
"8  c #343319",
"9  c #0C1D24",
"0  c #0A1D24",
"q  c #121D22",
"w  c #1B1E21",
"e  c #0C2126",
"r  c #0A242B",
"t  c #08252B",
"y  c #1D2123",
"u  c #172428",
"i  c #092A32",
"p  c #123330",
"a  c #242424",
"s  c #23262A",
"d  c #252A2D",
"f  c #2C2C2B",
"g  c #2B2A26",
"h  c #342E25",
"j  c #39332A",
"k  c #282C31",
"l  c #2C3335",
"z  c #2C3639",
"x  c #33393C",
"c  c #363737",
"v  c #2F372E",
"b  c #431501",
"n  c #461A04",
"m  c #4B1C03",
"M  c #4C1703",
"N  c #531C02",
"B  c #5B1D02",
"V  c #531501",
"C  c #470F00",
"Z  c #6E1A01",
"A  c #4C2C0C",
"S  c #46240A",
"D  c #542303",
"F  c #5B2303",
"G  c #532D0C",
"H  c #592908",
"J  c #5D310C",
"K  c #583407",
"L  c #4A3318",
"P  c #553818",
"I  c #4C2D13",
"U  c #642C04",
"Y  c #6B2D03",
"T  c #672504",
"R  c #772B04",
"E  c #64350C",
"W  c #683608",
"Q  c #773907",
"!  c #673C15",
"~  c #6F3812",
"^  c #473929",
"/  c #563A23",
"(  c #453D34",
")  c #2B4A3A",
"_  c #77430B",
"`  c #694419",
"'  c #764817",
"]  c #7D521A",
"[  c #684F10",
"{  c #5B4429",
"}  c #494338",
"|  c #524639",
" . c #4F4327",
".. c #684925",
"X. c #764B25",
"o. c #7A5327",
"O. c #644E32",
"+. c #6A5435",
"@. c #6F5333",
"#. c #7F673E",
"$. c #5F441B",
"%. c #353D43",
"&. c #2F3C43",
"*. c #164946",
"=. c #3B4245",
"-. c #3B454B",
";. c #37444A",
":. c #3B4D54",
">. c #384A54",
",. c #3D535A",
"<. c #3E5358",
"1. c #2C5349",
"2. c #474846",
"3. c #544D45",
"4. c #59534B",
"5. c #434D54",
"6. c #44545B",
"7. c #45545A",
"8. c #595755",
"9. c #665E54",
"0. c #6C5B48",
"q. c #776C5A",
"w. c #6E6558",
"e. c #445B61",
"r. c #485B65",
"t. c #535C63",
"y. c #4E6470",
"u. c #6A6764",
"i. c #797369",
"p. c #7B7B77",
"a. c #726E6A",
"s. c #46725C",
"d. c #843A04",
"f. c #863C06",
"g. c #8E2B04",
"h. c #884709",
"j. c #924B07",
"k. c #99570A",
"l. c #864916",
"z. c #8A5518",
"x. c #985914",
"c. c #88510D",
"v. c #A35B0A",
"b. c #AB5B10",
"n. c #9B6117",
"m. c #9E630E",
"M. c #A5630D",
"N. c #AC640B",
"B. c #AC6A0D",
"V. c #A56311",
"C. c #A86815",
"Z. c #B67815",
"A. c #B16D12",
"S. c #8A5A28",
"D. c #975E27",
"F. c #865D34",
"G. c #8B5529",
"H. c #9A6428",
"J. c #8B6437",
"K. c #966A39",
"L. c #966C36",
"P. c #A36B27",
"I. c #B67829",
"U. c #A67339",
"Y. c #AD7631",
"T. c #C47814",
"R. c #CB700C",
"E. c #C37C26",
"W. c #9B7748",
"Q. c #917250",
"!. c #A67845",
"~. c #AB7C4A",
"^. c #84796B",
"/. c #847D76",
"(. c #7A817B",
"). c #BA8332",
"_. c #D0891B",
"`. c #EE9A11",
"'. c #C98627",
"]. c #C58839",
"[. c #D5942E",
"{. c #E49D30",
"}. c #EBA92E",
"|. c #B98748",
" X c #AC8852",
".X c #89837A",
"XX c #978772",
"oX c #A9967A",
"OX c #B3966B",
"+X c #B9A56B",
"@X c #C88C43",
"#X c #DA9B48",
"$X c #D09853",
"%X c #E19948",
"&X c #D9A554",
"*X c #E3A756",
"=X c #E6B459",
"-X c #EDB147",
";X c #D7A865",
":X c #D0AF71",
">X c #E5B774",
",X c #F5C352",
"<X c #F8C774",
"1X c #F2CE73",
"2X c #717C81",
"3X c #7C8A8C",
"4X c #8A8985",
"5X c #9B9388",
"6X c #989894",
"7X c #A49C92",
"8X c #A6A29A",
"9X c #B5A892",
"0X c #B8B3AA",
"qX c #AFAAA2",
"wX c #CFB490",
"eX c #CABCA9",
"rX c #E2BC8B",
"tX c #DAC899",
"yX c #F3D88A",
"uX c #ECD191",
"iX c #FCE79A",
"pX c #FFED90",
"aX c #D7CAB3",
"sX c #F0DAAA",
"dX c #F9E5AA",
"fX c #FCEAB7",
"gX c #FEF7B8",
"hX c #F9EFA9",
"jX c #D9D5C9",
"kX c #E5DCCD",
"lX c #FBEBC5",
"zX c #FEF3CB",
"xX c #FEF6C7",
"cX c #E9E4D7",
"vX c #F7EBD6",
"bX c #FFFBDB",
"nX c #FEF7D7",
"mX c #EFF0DE",
"MX c #EBECE3",
"NX c #FEFCE4",
"BX c #FFFDEC",
"VX c #F9F5E9",
"CX c #FEFDF3",
"ZX c #FFFFFC",
"AX c #F6F7F3",
"SX c #EBF6F7",
"DX c None",
/* pixels */
"DXDXDXDXDXDXDXDXDXDXDXDXDXDXDXDXDXDXDXDXDXDXDXDXDXDXDXDXDXDXDXDXDXDXDXDXDXDXDXDXDXDXDXDXDXDXDXDXDXDXDXDXDXDXDXDXDXDXDXDXDXDXDXDX",
"DXDXDXDXDXDXDXDXDXDXDXDXDXDXDXDXDXDXDXDXDXDXDXDXDXDXDXDXDXDXDXDXDXDXDXDXDXDXDXDXDXDXDXDXDXDXDXDXDXDXDXDXDXDXDXDXDXDXDXDXDXDXDXDX",
"DXDXDXDXDXDXDXDXDXDXDXDXDXDXDXDXDXDXDXDXDXDXDXDXDXDXDXDXDXDXDXcXZXDXDXDXDXDXDXDXDXDXDXDXDXDXDXDXDXDXDXDXDXDXDXDXDXDXDXDXDXDXDXDX",
"DXDXDXDXDXDXDXDXDXDXDXDXDXDXDXDXDXDXDXDXDXDXDXDXDXDXDX8X8X0XCX;XlXrXZXMXDXDXDXDXDXDXDXDXDXDXDXDXDXDXDXDXDXDXDXDXDXDXDXDXDXDXDXDX",
"DXDXDXDXDXDXDXDXDXDXDXDXDXDXDXDXDXDXDXDXDXDXDX8X8X5X6X6XqXJ.@XZXZXZX:XjXmXcXcXjXwXDXDXDXDXDXDXDXDXDXDXDXDXDXDXDXDXDXDXDXDXDXDXDX",
"DXDXDXDXDXDXDXDXDXDXDXDXDXDXDXDXDXDXDXDXDX5X4X/.7X8XqXaX0X).|._ E sX|.9XvXkXeXwXaXjXeXDXDXDXDXDXDXDXDXDXDXDXDXDXDXDXDXDXDXDXDXDX",
"DXDXDXDXDXDXDXDXDXDXDXDXDXDXDXDXDXDXDX5X/./.8X0X.X^.i.^.6XF.P.cXZXtXG.kXcX5X/.eXvXZXaXkXaXDXDXDXDXDXDXDXDXDXDXDXDXDXDXDXDXDXDXDX",
"DXDXDXDXDXDXDXDXDXDXDXDXDXDXDXDXDXqX.Xi.8X/.w.a.7XqX.X3.2.# ! H.:XF . i.i.^.VXZXvXXX5XZXkXkXtXDXDXDXDXDXDXDXDXDXDXDXDXDXDXDXDXDX",
"DXDXDXDXDXDXDXDXDXzX<XlXVXDXDXDX4Xi.6Xu.u.i.8Xa.4.8.9.3.7 ^ . P ' 2 ^ 3.9.q.i.^.q.MXCX9XoXZX7XaXDXDXDXbXxXnXNXiXDXDXDXDXDXDXDXDX",
"DXDXDXDXDXDXDXDX].V.k.N.A.vXDX/.a.u.4Xw.5Xa.3.3.3.7 2 % .   . # X   + % + # } 9.^..X^.^.CXsXjXjXtXDXDXT.D f.'.dXDXDXDXDXDXDXDXDX",
"DXDXDXDXDXDXDXDXv.ZXCXj.Q H l.O.p.8.4X8X2.4.h 7 +       @ a k ].lX>.w       X % 2 ^ w.XX^.qXVX9XZXwXMXh.8 ZXZXZ.'.DXDXDXDXDXDXDX",
"DXDXDXDXDXDXDXDX_ W  XP./ lXT.E.ZX6X8.8.h 7 .     > a k z &.4.Z.NXy.e.e.<.%.>     X 7 ^ 4.5X3.VXdXAXzXMX] ` ZXC.DXDXDXDXDXDXDXDX",
"DXDXDXDXDXDXDXDXG.U H % uXZ 9XVXd.0X( 7 $   O q.l l &.&.;.:.A 1XnX..r.r.r.r.O 4.d     . 8 { 0.OXn.ZXZX'.cXc.n.z.DXDXDXDXDXDXDXDX",
"DXDXDXDXDXDXDXDXDXz.H X &X&XOXC.B ^ ^   O > ; oX&.;.;.:.5.r.I.1X=Xf.y.y.y.r.e.=.<.5.d   .   L Y.Z AXoX].9XoXc.DXDXDXDXDXDXDXDXDX",
"DXDXDXDXDXDXDXDXDXDX9., H.H.J =X0.j   - y s s 4 -.:.6.6.7.7.I.[.V.sXy.y.r.e.p.;.6.5.6.7..     P @XQ Q f.#.oXDXDXDXDXDXDXDXDXDXDX",
"DXDXDXDXDXDXDXDXDX8.c   O H.C.3 j   ; f k l l l 4 6.6.6.r.a P.&XH.zXy.y.y.2Xe.r.y.t.6.5.5..     6 $XE.yX} XXwXDXDXDXDXDXDXDXDXDX",
"DXDXDXDXDXDXDXDX2.8.l 4 4 . X 2 O - l l x x x s %.9.r.r.t.` c.yXY.gX7.y.3X,.e.e.5.r.e.5.7.c . X % 8 % 4 6 ^.aX+XDXDXDXDXDXDXDXDX",
"DXDXDXDXDXDXDXDX4.9.a a p.j 4     @ k x x x f %.-.;.p.r.r.Y.dXyX~.hXl.6X,.e.e.e.e.d e.e.2.-.=.X # + ! o.+.^.q.OXDXDXDXDXDXDXDXDX",
"DXDXDXDXDXDXDX} a.v y 8X( 4   . & y > k %.c ;.-.-.-.>.u.w I.K.dX$X` hX,.e.e.e.e.e.e.z 8.5.5.-.;.X % 5 ` oX9.q.aXQ.DXDXDXDXDXDXDX",
"DXDXDXDXDXDXDX4.a a a j 7 @ > @ y s d 4 c x -.-.-.-.%.%.S #XJ.fXrX@.xX/ e.e.e.e.,.6.8.a.5.5.2.=.=.X o E o.} i.Q.W.DXDXDXDXDXDXDX",
"DXDXDXDXDXDXc /.j f a.( 7 @ & w w s s s h 2.;.;.;.-.%.&.D.=XL.fXuXQ.hXuX,.e.,.,.e.6.<.6.t.5.-.-.=.c X 2 ` +Xq.0.XXJ.DXDXDXDXDXDX",
"DXDXDXDXDXDX} a f 4 j ^   a q w k d k 2.a 3.-.%.;.;.;.4 =XJ.L.lXdXW.O.zX~.,.,.,.,.,.<.<.&.6.5.-.;.h : X W F.4.q.0XK.DXDXDXDXDXDX",
"DXDXDXDXDXc u.f g u.( 7   0.u s s k 2.s s s 3.%.;.;.2.D.Y.!.!.lXfXQ.W.fXfX2.>.6.<.<.:.:.:.y :.-.c c s X G S.q.^.Q.L.S.DXDXDXDXDX",
"DXDXDXDXDXj u.h a ( ^ . X . O.s s %.s s s d s g &.s % >XW.K.~.fXlXQ. XW.bXE ;.:.:.<.>.:.:.:.2.2.%.c f 4 X E W.nXzXCXS.DXDXDXDXDX",
"DXDXDXDXDX3.4 f 4.^ (   @ @ - + k : s s s s s s 4 - $Xl.@XW.~.dXxX+XW.!.P nXF.>.:.:.>.:.>.p.v 4X%.c c a X Q [ @...J.S.DXDXDXDXDX",
"DXDXDXDXj 4.a a 9.j h - : 4 a l > s s a s s y y k ;Xz.~.~.~.!.iXzXW.W.W. XlXW./ :.>.;.;.(.k z x 4X2.x v ; 5 L.o.` X.H.DXDXDXDXDX",
"DXDXDXDX^ 9.h a 4.( @ 4 a a a $ : > w s a y a 4 ;XJ fX%X~.~.W.yXzXW.W.W.W.H.rXCXX.>.>.(.l z x x x g =.x f X P.o.X...|.' DXDXDXDX",
"DXDXDXDX^ 3.g g | ( > w > @ : : 4 w $ a a a Q.:XJ l.S gX].!.!.yXzX!.W.W.wX;X~.uXwXBX} k z z x z x l v y : O P.' o.[  X_ DXDXDXDX",
"DXDXDXDX{ 4 g 4.^ ( @ $ > : : w w w w ( 5 ;XW ~ Y.! ` I fXE.U.1XvX!.~.~.I.+.@.~ BXj.CXnXs %.x x x x l s w O C.] ] ..U._ DXDXDXDX",
"DXDXDXDX{ > a oX^ { & > : > : > : : F.>X~ E ~ >X..X.X.! I zXH.1XVX!.W.sX XF.J.J.G.F.NX~ NXnX4 %.&.c x l s X n.z.] ] L._ DXDXDXDX",
"DXDXDXDX..% -XfX/ 0.& > > w > / &XE.! E ! ~ D.X.X.G.X.o.X.G.rXBXCXBXVXF.K.K.W.K.J.K.G.G.dXJ NXBXsX7 =.c d , k.c.sX:XM._ DXDXDXDX",
"DXDXDXDX! Z `.R.NXW.- / &X].l.~ D G J J J.X.X.S.G.F.S.G.P.D.lXT.{.|.D.G.U.U.U.K.U.K.K.K.S.X.l.|.z.nXBXnX>X- x.] :X_ nX_ DXDXDXDX",
"DXDXDXDX~ R.W dXg.E U F m m W _ n.I.I.I.].&X=X*X=X*X*X*X*X#X].M.$XT.rXlXzXnXnXnXbXbXNXnXnXzXfXwX9XtXyX).W S.W Y T j.R._ DXDXDXDX",
"DXDXDXDXF b.% Y d.3 n M C 3 2 < 2 2 3 3 S 5 S S 5 S 3 5 5 5 #Xx.V._ *X@XP.D.% @ &XS.2 ..{ P I P I G E ! Q Q ] U H D }._ DXDXDXDX",
"DXDXDXDXB R.Q b.N E.        # V Q _ Q K A A A A A A A A G P.2 ! S 3 #XQ.=X[.@ 7 L  . .P P I ;XY._ E H .     '.U [.W F Q DXDXDXDX",
"DXDXDXDXB ~ F b 2 [.              . n D W '.$.` ` ! ` ` J 5 P n.D.P 7 <X! [.{ ..` { $.$Xc.H 3 #       . , - _.H D D E W DXDXDXDX",
"DXDXDXDXT h.k.Q F {.. X , o $ o X X     . T Q %X_ ] ' ! A J.P P.I.{ { 2 <X' ..$.' P.x.<     O & = = ; ; ; , _.h.h._ W U DXDXDXDX",
"DXDXDXDXT n N.j.Q {.1 X , , o > o o o X O     Q Q hX' E S J.` Y.).O.O.{ S <X' ' H.<   O = = q 9 q e u q ; @ '.x.M.M.D E DXDXDXDX",
"DXDXDXDXN n R.v.d.B '.. $ , > - 6 - & - - o O   1 Q :XI |.S.` I.'.+.O.O.@.P ~ ~     = 9 0 e e e u u v ; ; [.K v.V.C.H DXDXDXDXDX",
"DXDXDXDXDXM _.v.h.T }.. - $ $ j o 7 > > ; > = X   . G wXU.J.` Y.'.+.@.O.L ~ G   , 9 r r r r e t l ) u ; - `.4 M.V.n.D DXDXDXDXDX",
"DXDXDXDXDXB E b.j.Q 1X1 X , h & & o 6 > > ; ; > - O 2 E uXW.' Y.].+.+.#.[ ' X * t 0 t i r t p 8 6 y e w % [.c.M.M.F D DXDXDXDXDX",
"DXDXDXDXDXB M T.k.Q F }., $ $ - - - X > w ; ; ; f .   W S W.:XI.].+.+.8 c.X 1.= 0 t t i i p a r e e e q }.S v.V.M.H D DXDXDXDXDX",
"DXDXDXDXDXDXM _.N.j.F pX+ $ $ - - - - O & w ; j - ; & + G L ..@X).+.+.] 5 = * *.0 t i i p p i i r u 9 & {.S M.M.Q F DXDXDXDXDXDX",
"DXDXDXDXDXDXB N N.k.R ' -X$ - - - - - & X @ 2.; ; q >   W L ^ @X] @. ._ X 0 t = *.t i i :.i i t t r p }.D m.V.M.H D DXDXDXDXDXDX",
"DXDXDXDXDXDXDXM _.A.j.m gXg.- - - - - - & % - q ; ; > O K S P ].$.{ P G = t t 0 0 *.i s.t t t t r e @ }.m M.M.c.D DXDXDXDXDXDXDX",
"DXDXDXDXDXDXDXV M b.v.R 3 hX@ - - - - $ f - X @ > : q -   G L ).` P ' $ 0 e e e 0 0 s.t i t t t e * ,XG M.M.M.F F DXDXDXDXDXDXDX",
"DXDXDXDXDXDXDXDXV _.N.j.F 1XpX, & - - f - $ - - & e q -   K L '...5 ' - e e t e 0 *.; e t i t t * yXD U B.M.Q F DXDXDXDXDXDXDXDX",
"DXDXDXDXDXDXDXDXV M N.b.Q N gXiXo & : & - - - & h - - , O E L I.$.P 3 - p t e e *.; e e = i e y sXz.T C.A.B.F B DXDXDXDXDXDXDXDX",
"DXDXDXDXDXDXDXDXDXV d.v.j.R V gXxXX $ - - - & & > ( o o O < G I.{ ' $ = ; ; ; p 9 u r 9 r 0 w dXU.Q k.A.A.W F DXDXDXDXDXDXDXDXDX",
"DXDXDXDXDXDXDXDXDXDX1 b.v.R fXR gXxX+ - > - - & X X f & o   A C.P _ @ = = = p q 9 9 9 r 9 & lXD.c.nXY A.Y Y DXDXDXDXDXDXDXDXDXDX",
"DXDXDXDXDXDXDXDXDXDX< < v.f.AXR M wXbX1 > - @ o - @   : X O G C.P W , = ; p 9 9 9 r r q @ fXQ f.< iXH.f.Q D DXDXDXDXDXDXDXDXDXDX",
"DXDXDXDXDXDXDXDXDXL.d.# 1 j.T B Q N D NXsX@ - - o $ $   & O G x.I A & ; p 0 ; ; 9 9 u sXhXB d.f.h.+ f.d.R v.1XDXDXDXDXDXDXDXDXDX",
"DXDXDXDXDXDXDXDX XQ.AXb < 1 R I.k.h.F V yXNX X% - > $ @   o G _ J 2 o u = ; ; e w ~.fX1XT d.j.N.Z.f.T N 3 cX_ ,XDXDXDXDXDXDXDXDX",
"DXDXDXDXDXDXDXDXh.SXz.D M # V < Z.N.k.Y N H yXNXlX3 % > $ o 3 ~ E X ; ; q : 3 sXzXiXT R j.N.A._.B B N 2 < [ mXj.DXDXDXDXDXDXDXDX",
"DXDXDXDXDXDXDXDXQ jXW K K B # B C Z.B.v.h.F D F h.xXbXNXtXS . E E 2 J wXNXNXpX[.T R f.C.Z.T.Z.N N b F +X[ [ uX_ DXDXDXDXDXDXDXDX",
"DXDXDXDXDXDXDXDXE W tXtXT b DXDXV N Q B.M.v.j.Q F F U T Q &XiX$X%XiX1X{.Z B Z R h.N.Z.Z.Z.U M m DXDXM B [ :XK W DXDXDXDXDXDXDXDX",
"DXDXDXDXDXDXDXDXDXDXJ F 3 DXDXDXDX3 N V x.B.M.M.v.k.h.Q Y Y Y pX1X).D T Q c.B.).Z.Z.Z._ m m m DXDXDXDXDXB F H DXDXDXDXDXDXDXDXDX",
"DXDXDXDXDXDXDXDXDXDXDXDXDXDXDXDXDXDXDXb N V Y A.A.B.B.C.V.Q 1 ,Xx.U C.Z.'.B._.B.M.T n n n DXDXDXDXDXDXDXDXDXDXDXDXDXDXDXDXDXDXDX",
"DXDXDXDXDXDXDXDXDXDXDXDXDXDXDXDXDXDXDXDXDXb M M B Y C.Z.A.x.l.3 1 1 c.m.j.h.K A 3 3 b < DXDXDXDXDXDXDXDXDXDXDXDXDXDXDXDXDXDXDXDX",
"DXDXDXDXDXDXDXDXDXDXDXDXDXDXDXDXDXDXDXDXDXDXDX< n n M M N T E c.x._ n 3 3 3 n b 3 DXDXDXDXDXDXDXDXDXDXDXDXDXDXDXDXDXDXDXDXDXDXDX",
"DXDXDXDXDXDXDXDXDXDXDXDXDXDXDXDXDXDXDXDXDXDXDXDXDXDX+ 1 n S m m D N D N 3 < DXDXDXDXDXDXDXDXDXDXDXDXDXDXDXDXDXDXDXDXDXDXDXDXDXDX",
"DXDXDXDXDXDXDXDXDXDXDXDXDXDXDXDXDXDXDXDXDXDXDXDXDXDXDXDXDXDXDXDXDXDXDXDXDXDXDXDXDXDXDXDXDXDXDXDXDXDXDXDXDXDXDXDXDXDXDXDXDXDXDXDX",
"DXDXDXDXDXDXDXDXDXDXDXDXDXDXDXDXDXDXDXDXDXDXDXDXDXDXDXDXDXDXDXDXDXDXDXDXDXDXDXDXDXDXDXDXDXDXDXDXDXDXDXDXDXDXDXDXDXDXDXDXDXDXDXDX",
"DXDXDXDXDXDXDXDXDXDXDXDXDXDXDXDXDXDXDXDXDXDXDXDXDXDXDXDXDXDXDXDXDXDXDXDXDXDXDXDXDXDXDXDXDXDXDXDXDXDXDXDXDXDXDXDXDXDXDXDXDXDXDXDX"
};
