/* XPM */
static char *result[] = {
/* columns rows colors chars-per-pixel */
"64 64 256 2 ",
"   c #050201",
".  c #0B0301",
"X  c #0B0908",
"o  c #130401",
"O  c #1B0501",
"+  c #140B04",
"@  c #1C0B02",
"#  c #110C09",
"$  c #1A120A",
"%  c #091318",
"&  c #171817",
"*  c #090D13",
"=  c #240C02",
"-  c #2A0C02",
";  c #230702",
":  c #360D01",
">  c #251104",
",  c #2B1204",
"<  c #29180A",
"1  c #341403",
"2  c #3B1403",
"3  c #3C1A04",
"4  c #351A08",
"5  c #2F1A10",
"6  c #332511",
"7  c #0D1D2B",
"8  c #0C1A25",
"9  c #141D26",
"0  c #051C33",
"q  c #0F212F",
"w  c #13222D",
"e  c #19232A",
"r  c #162634",
"t  c #122E39",
"y  c #262725",
"u  c #2E3334",
"i  c #1C2317",
"p  c #431402",
"a  c #431A04",
"s  c #4B1C02",
"d  c #491602",
"f  c #531D03",
"g  c #5B1D01",
"h  c #551F08",
"j  c #4A1F17",
"k  c #661C03",
"l  c #4C2204",
"z  c #4B240A",
"x  c #472509",
"c  c #532304",
"v  c #5A2404",
"b  c #5B2B05",
"n  c #542C0B",
"m  c #5A2D0A",
"M  c #532906",
"N  c #5C320B",
"B  c #59310B",
"V  c #5A3615",
"C  c #4E2814",
"Z  c #632B04",
"A  c #6B2C04",
"S  c #662706",
"D  c #752A02",
"F  c #6D3305",
"G  c #63350A",
"H  c #6B3C0B",
"J  c #673608",
"K  c #733504",
"L  c #7A3B0A",
"P  c #763A08",
"I  c #673A13",
"U  c #753D11",
"Y  c #4C3924",
"T  c #75410C",
"R  c #7B440C",
"E  c #7C4607",
"W  c #6D4418",
"Q  c #75461B",
"!  c #7B491C",
"~  c #784718",
"^  c #774C12",
"/  c #53472E",
"(  c #714D29",
")  c #032C4B",
"_  c #183648",
"`  c #023153",
"'  c #01324F",
"]  c #2D3C45",
"[  c #0D4F6C",
"{  c #096C75",
"}  c #245965",
"|  c #4D4B48",
" . c #566B61",
".. c #853904",
"X. c #923904",
"o. c #A03A00",
"O. c #8C4C0B",
"+. c #864608",
"@. c #964705",
"#. c #8B510C",
"$. c #9A550B",
"%. c #98560A",
"&. c #844B13",
"*. c #894E16",
"=. c #944A14",
"-. c #8B551B",
";. c #895619",
":. c #965917",
">. c #A54A03",
",. c #A75708",
"<. c #B95905",
"1. c #A55B15",
"2. c #9B6319",
"3. c #9F660C",
"4. c #AA640C",
"5. c #B76809",
"6. c #A96719",
"7. c #B66A16",
"8. c #BC771A",
"9. c #B17311",
"0. c #8B5C25",
"q. c #8B5E29",
"w. c #865824",
"e. c #955C27",
"r. c #8C5F37",
"t. c #8C622A",
"y. c #97662B",
"u. c #986B35",
"i. c #946E35",
"p. c #A86A26",
"a. c #B66C24",
"s. c #A97527",
"d. c #B77828",
"f. c #A97636",
"g. c #B07837",
"h. c #A35826",
"j. c #C57A16",
"k. c #CC720E",
"l. c #E27D02",
"z. c #C67728",
"x. c #D67D28",
"c. c #C94707",
"v. c #997744",
"b. c #A77A43",
"n. c #799274",
"m. c #BB8529",
"M. c #BA863A",
"N. c #AB8634",
"B. c #CB8316",
"V. c #D98611",
"C. c #ED9713",
"Z. c #FCAB11",
"A. c #C98429",
"S. c #D58927",
"D. c #D79328",
"F. c #C78C36",
"G. c #D38A33",
"H. c #D59839",
"J. c #CC9336",
"K. c #E69826",
"L. c #E9952F",
"P. c #DDA733",
"I. c #EFA82D",
"U. c #E6A738",
"Y. c #F4B033",
"T. c #FDD627",
"R. c #B88744",
"E. c #B78C56",
"W. c #B69857",
"Q. c #B38F4C",
"!. c #8F8B6D",
"~. c #AB906F",
"^. c #92805D",
"/. c #CC9646",
"(. c #D59B46",
"). c #C89957",
"_. c #CD924F",
"`. c #D8A457",
"'. c #DBA743",
"]. c #E7A845",
"[. c #EBB549",
"{. c #F7B848",
"}. c #E7B459",
"|. c #F0B256",
" X c #C49B66",
".X c #D7A966",
"XX c #D3B070",
"oX c #EAB667",
"OX c #F2BA6C",
"+X c #E6BB77",
"@X c #EAB06A",
"#X c #FAC759",
"$X c #FECE50",
"%X c #F6C969",
"&X c #F7C679",
"*X c #FCD679",
"=X c #F1CC6F",
"-X c #FFE970",
";X c #FFE657",
":X c #0C7391",
">X c #2C6F95",
",X c #1170A3",
"<X c #287CB9",
"1X c #0A8793",
"2X c #1587AD",
"3X c #288BB5",
"4X c #09A0BA",
"5X c #6D968D",
"6X c #5095A5",
"7X c #2D95C6",
"8X c #2B9DDB",
"9X c #5EB2DB",
"0X c #64C4E7",
"qX c #70CDF4",
"wX c #5EC0ED",
"eX c #A9A48E",
"rX c #CEB38B",
"tX c #E6BE81",
"yX c #CABBA9",
"uX c #D5BFA5",
"iX c #ECC587",
"pX c #F6CB87",
"aX c #FBD887",
"sX c #FAD895",
"dX c #EDCE98",
"fX c #FEE699",
"gX c #FFF393",
"hX c #DDCFB7",
"jX c #F7D8A6",
"kX c #EAD2AC",
"lX c #FCE8A5",
"zX c #FCEBB8",
"xX c #FEF4BA",
"cX c #E8E0B7",
"vX c #D9C59E",
"bX c #81B9D0",
"nX c #9FDDF4",
"mX c #CED2D0",
"MX c #F0DEC6",
"NX c #FBEBC5",
"BX c #FEF4C7",
"VX c #FAEAD6",
"CX c #FEF3D5",
"ZX c #FEF5DC",
"AX c #FEF9DA",
"SX c #FAF5D8",
"DX c #ECE2D3",
"FX c #FFFBE4",
"GX c #FFFCEC",
"HX c #FBF5E9",
"JX c #FFFDF3",
"KX c #FEFEFD",
"LX c #F9F9F4",
"PX c #EAEFF3",
"IX c #D6E0E5",
"UX c None",
/* pixels */
"UXUXUXUXUXUXUXUXUXUXUXUXUXUXUXUXUXUXUXUXUXUXUXUXUXUXUXUXUXUXUXUXUXUXUXUXUXUXUXUXUXUXUXUXUXUXUXUXUXUXUXUXUXUXUXUXUXUXUXUXUXUXUXUX",
"UXUXUXUXUXUXUXUXUXUXUXUXUXUXUXUXUXUXUXUXUXUXUXUXUXUXUXUXUXUXUXUXUXUXUXUXUXUXUXUXUXUXUXUXUXUXUXUXUXUXUXUXUXUXUXUXUXUXUXUXUXUXUXUX",
"UXUXUXUXUXUXUXUXUXUXUXUXUXUXUXUXUXUXUXUXUXUXUXUXUXUXUXUXUXUXUXUXUXUXUXUXUXUXUXUXUXUXUXUXUXUXUXUXUXUXUXUXUXUXUXUXUXUXUXUXUXUXUXUX",
"UXUXUXUXUXUXUXUXUXUXUXUXUXUXUXUXUXUXUXUXUXUXUXUXUXUXUXUXUXUXUXUXUXUXUXUXUXUXUXUXUXUXUXUXUXUXUXUXUXUXUXUXUXUXUXUXUXUXUXUXUXUXUXUX",
"UXUXUXUXUXUXUXUXUXUXUXUXUXUXUXUXUXUXUXUXUXUXUXUXUXUXUX&XjXJXJXzXFXKXKXGXHXUXUXUXUXUXUXUXUXUXUXUXUXUXUXUXUXUXUXUXUXUXUXUXUXUXUXUX",
"UXUXUXUXUXUXUXUXUXUXUXUXUXUXUXUXUXUXUXUXUXUXUX].L.ZXKXFXU.NXU.KXKX+XSXFXKXKXKXJX@XUXUXUXUXUXUXUXUXUXUXUXUXUXUXUXUXUXUXUXUXUXUXUX",
"UXUXUXUXUXUXUXUXUXUXUXUXUXUXUXUXUXUXUXUXUXG.JXKXdX|.pXaXsX<.BXhXf.KXV.fXBXgXaXKXKXKXMXUXUXUXUXUXUXUXUXUXUXUXUXUXUXUXUXUXUXUXUXUX",
"UXUXUXUXUXUXUXUXUXUXUXUXUXUXUXUXUXUXUX@XKXjXHXoXOX&X&XOXOX>.|.~.Q.FXD.aXZXCXAXzXfXsXKXKXJXUXUXUXUXUXUXUXUXUXUXUXUXUXUXUXUXUXUXUX",
"UXUXUXUXUXUXUXUXUXUXUXUXUXUXUXUXUXk.KX_.H.OXhX+XOXOX@X@X@Xa.o.=XfXX.%XaXNXCXCXxXzXKXgXI.KXKXkXUXUXUXUXUXUXUXUXUXUXUXUXUXUXUXUXUX",
"UXUXUXUXUXUXUXUXUXJXNXZXFXzXUXG.NXNX].`.].`.~.|.@X@XOXlXlXaXF.k S C.Y.-XaXsXfXlXFXjXGXCXgXP.KXKX$XUXUXKXKXCXKXKXUXUXUXUXUXUXUXUX",
"UXUXUXUXUXUXUXUX(.B.B.|.%X4 j.KXA.(.(.(.`.jX( pX*X7.X...D D : ; ; O = - d D o.I.;XzXzXCXZXzXxXJXKXFXA.H KXJXsXK.KXUXUXUXUXUXUXUX",
"UXUXUXUXUXUXUXJ.D.tXkXzXc kXZXS.G._.`.XXMX`.z.o...S ; o . o : j l 4 O . 1 U Z 2 k @.#XAXCXBXfXBX=XKXLXk.d.HXKXXX{.GXUXUXUXUXUXUX",
"UXUXUXUXUXUXpX8.b. XE.l HXtXiX/._./. Xv.a.=.S O . . 1 d.4 KX| >X>XJXVXA.G.y.>   o K S <.aXCXzXfXfXxXKXKX-.6.~.KXoXK.UXUXUXUXUXUX",
"UXUXUXUXUXUX4.d.g.s.2 SX1.>.>.CXF. X:.$.F .   X y.1.6 z X.JXLX8X8XPXKXT.gXV.5.>.).. . J X.,.CXzXzXJXc.MXKX&.4.uXKX`.|.UXUXUXUXUX",
"UXUXUXUXUXUXO.s.|.2 ( XXfXKXvX4.b.+.+.o . o f...D h.L.x.L.mXGXGXKXKXKXZ.-XGXFX;Xl.>.pX+ o ..<.;XAXJXGXY.HXKX*.j.KXW.d.UXUXUXUXUX",
"UXUXUXUXUXUXO.:.2 3 lXI lXW.SXO.p.&.  o I 1...a.L.x.x.k.$.PXlXFXKXHXKXKXY.T.JXGXGXgXl.a.@ o a ,.|.JX8.xXl.KXMX~ 4.HXp.UXUXUXUXUX",
"UXUXUXUXUXUX&.:.4 lX-.Q h #X].-.A o O @XS a.L.z.z.a.%X XdX6XaXLXJXLXKXLXKXzXZ.HXJXFXAXC...Y + A 5.K JXxXC.=.KXD J _.UXUXUXUXUXUX",
"UXUXUXUXUXUXUX; u.dXf.f.r.: -.s o O @XI Y.k.L.S.*Xe.BXxX7X( sXJXJXLXMX4XJXKXKXC.Y.JXAXZXC.~.i.+ <.<...D h.aXjXVX, m UXUXUXUXUXUX",
"UXUXUXUXUXUXUX@ *Xp.g.b.b.f.=.3 - a =.$ ! |.|.z.! vXSX2X:Xs.zXJXJXGXlXnX,XyXLXLXNXZ.I.-Xz.KXh.x o $.k ZXsXpX&XJXa.UXUXUXUXUXUXUX",
"UXUXUXUXUXUXUX].iXf.f.R. X1.: o v a f }.PXDXmXmXGXi { :X2XF.zXJXJXJXcXnXqX,X>XPXKXKXKXLXKXKXa.+.O $ X.b.pXpX&XpXNXUXUXUXUXUXUXUX",
"UXUXUXUXUXUXUX].f.g.g.E.L s   S F 1 z {.%   % e t t { 4X5XJ.xXFXFXGXXXnXqXnX:X:X,X3X6X[ ] VXz.1.[.@ O.<.VXpXOXOXGXp.UXUXUXUXUXUX",
"UXUXUXUXUXUXF.cX0.-.&.W.$.= 3 A U < w.Y.8 [ 1X{ } 4X1X6X5XJ.zXFXZXGXQ.5XqXwX9X9Xu u e u DXVXj.p.s.(.. A >.pX&X&X&XXXUXUXUXUXUXUX",
"UXUXUXUXUXUXV.e.y.t.r.R c   S K L < ( I.0 ' { 1X1X1X4X5Xn.B.dXFXVXGXN.u qX9X0XwXqXbX8X7X/ KXA.7.I 8.+ n <.NXpXg oXNXM.UXUXUXUXUX",
"UXUXUXUXUXUXzXy.y.y.tX$.o z F P U 5 z I.' ' { { 1X .1X5Xn.B.XXGXNXFXW.6 IX0XwXbX9XmX7X7X$ KXG.d.p.;.8.. d @.dXdXtXzX:.UXUXUXUXUX",
"UXUXUXUXUXz.XXy.u.y.p.%.  f F L U ^ j n ` ` [ { XX$X} 1XeX6.^ SXsXZX).Y nX0XC.FXLXmX7X3X .LX,.a.p.-.8.# O k.tXtX+X+XR.UXUXUXUXUX",
"UXUXUXUXUX5.y.y.y.u.O.< C h K L . }.d.0 ' ' ) { $XD.*X< } F T BX%XCXW.y ] B.FXHXjXmX7X2X>X< KX8.p.6.4 9.X ,.+X.X.XF.iXUXUXUXUXUX",
"UXUXUXUXUX7.q.y.u.f.%.X p c K U < e.& ) ` ` ' / & *XA.aX# u -.NXH.zXW.& 9.AXBX#.cXmX3X3X<X| KXk.7.1.=.s.$ U 7.XX.X`.kX-.UXUXUXUX",
"UXUXUXUXUX@Xq.y.y.+X#.+ 1 c L   @X^.0 ' ` ` ' t i ^.M fXlX# i.H.F.g. .6.AXlXu.%X1 u >X2X,X} y GXk.4.,.x = < X..X.X.XkXO.UXUXUXUX",
"UXUXUXUXUXdXe.q.q.R.b > W 3 o iX< 7 ) ) y G.].~ * & rX> lXlX3 T Z F m.ZX3.6.[.o `.[.=XfXdXY | u HX,.,.h F.$ 7.`.`..XdXO.UXUXUXUX",
"UXUXUXUX6.XXw.q.e.2.3 1 , pXXXX & Y &XJ l b H W 3.+ X i yXgXrXJXLXKXj 6.j.y.. -.E 0.:.#.+.).SXW / yXmXPXs.$ 8.(.).)._.:.UXUXUXUX",
"UXUXUXUX:.f.v.n y.%.1 l < ^ > rXa 4 l I G G H P T H I # # a HX+.1.~.JXL . ( K }.=X+X+XoX`.f.O.P dXx HXZ 6.$ 4.A.zXJX6._.UXUXUXUX",
"UXUXUXUX4.hX&.vXJX%.< l 3 3 @ 2 a 3 M H y.E.XXkXjXjXiX2.@ AXF 8.Y.#XLX1 1 oXkXVXDX Xf.f.N.:.t.R *.m IXT 6.$ p.CX5.4.KXQ UXUXUXUX",
"UXUXUXUX$.G.7.H.5.E 4 s 1 > s.X l b U ^ ! w.t.u.u.y.q.T = xXB 5.)./.hX^ 5. X X X~.W.E.sX=X:.$.O.v mX| *.6.< u.j.`.oX5.FXUXUXUXUX",
"UXUXUXUX&.P.F.%X<.T 4 s F +   Q e.. , a ;.2.p.y.p.y.*.G > K JXE #.W ^ p O p.oX`.J.F.d.%.4.%.f p '.}.rXR.6.< b.{.=X}.5.2.UXUXUXUX",
"UXUXUXUXL J.O.5.]./.3 s H p D . X W p.. ; M 3 1 p a 1 4 o . v CXLX^ G.@ :.O s 9.V.V.k.Z 2 b (.6 & @ + ).6.4 `.g.8.>.*Xi.UXUXUXUX",
"UXUXUXUXA l R.`.@ /.x M   .   k 3   X 2 j.- ; - : 4 + > n O   p.$.c o +.o . ,.c s M b +.[.e & % , A A X -.< U.r.- p ! 0.UXUXUXUX",
"UXUXUXUXUX:.( Q Q R z A < 1 1 1 o +.* 8 8 * B.&.a @ < V 1.x   . . . . D.k.s X $ K.L.$Xu r w 9 U.= ..P   ^ $ ].t.y.t.t.Z UXUXUXUX",
"UXUXUXUXUXZ C Q Q G Z M   3 3 = S v + 8 8 7 q 7.$ 5 T $.= z @ &.*.*.< . K.5.Z & & DX[ _ u e d.> O.R K   ! > Y.w.t.t.0.Z UXUXUXUX",
"UXUXUXUXUXS x ! Q Q D.a 1 4 3 4 A o +.8 7 7 0 4 6 &.$.B + n V 2.:.:.> # . O.@.b i 6 [ ] r e 7.$ L P b   x 4 {.q.t.t.+XT UXUXUXUX",
"UXUXUXUXUXv `.Q ! ! {.n Z   2 2 + ; P * 8 8 q < U @.> & < n W 2.:.$.> 4 e X , <.4 i [ _ r /.2 ^ K F @ . > H.f.w.t.t.J UXUXUXUXUX",
"UXUXUXUXUXc -.Q ! ! U D 4 a < a 1 D s J 8 8 7 y K 9 9 9 p x W 2.2.:.> x r e e 2 k.5 [ _ r C.5 ..F b . ).5 Y.w.w.w.! N UXUXUXUXUX",
"UXUXUXUXUXUXs l ! ! ! {.l b   a p 1 o @.% 8 w 9 q q q 9 s > H :.%.-.< C e e r r % t _ _ _ l.< K Z 3 / 3 c Y.w.w.t.XXZ UXUXUXUXUX",
"UXUXUXUXUXUXp H.( ! ! r...- A . a 2 @ @.* 8 q q q q q i s @ N ;.#.&.4 B w w w r q r _ _ 9 ..< F c , BXx Y.W w.w.t.N UXUXUXUXUXUX",
"UXUXUXUXUXUXf v a Q ! ( $Xd 4 v @ 2 - >.* 7 q r w q 8 # l + b ^ O.R 5 Z w w 9 q q q 7 8 & v c v a M 4 Z #X0.0.w.N.z UXUXUXUXUXUX",
"UXUXUXUXUXUXUX: 5.r.Q ! n Z.2 s , 1 - L %   X o o + X X l , n N E H > N 9 & # X X . X * * D U c 1 W s [.~ ;.w.w.G b UXUXUXUXUXUX",
"UXUXUXUXUXUXUXg h Z Q ! ! *XX.p A , - + > @.2 = >.>.o + + 3 x 3 H B + N & X g <.,.f D 5.3 ,.:.2 3 1 U.P ;.;.;.i.v UXUXUXUXUXUXUX",
"UXUXUXUXUXUXUX; O $.I Q ! P CXS s - K : - , p 2 @ . >.l   6 l > Z 3 x 4   <.,.  O , ; O o 1.6.O 1 aX=X! ;.w.;.b N UXUXUXUXUXUXUX",
"UXUXUXUXUXUXUX$ g 1 :.U U /.6.CXd c o s 2 s a s a a + <.v . 2 @ b = W   <.@ , l s s a a p 1.; : fX,.}.FX2.;.2.p @ UXUXUXUXUXUXUX",
"UXUXUXUXUXUXUXsX. ; F b 8.zX5.A.kXl v   v s s f f s s @ %.2 3 @ l @ n k.@ c c c c s a v c = 2 %XO.(.F D.%X#.T V @ JXUXUXUXUXUXUX",
"UXUXUXUXUXUXNXF.; o . P {.vX9.9.T JXC L . x h g f f f f - @.@ a E x ;.2 M c l l l x =.- ; d *X*XK.T %X$XD.K @ @ zXKXUXUXUXUXUXUX",
"UXUXUXUXUXUX:.3.1.  o 2 c A.j.#.R R KXcXg g   a f g v g v = 1 #., 4.J c c l c l s s > , M.=XpX+.= %.4.B.g , < a v.vXj.UXUXUXUXUX",
"UXUXUXUXUXUXh W %.4.. . J a m H T R +.yXLXA D d . o v g v a ^ + + + %.= l l l , @ 3 K aX*XL &.&.q.X d.l x > - i.i.g.UXUXUXUXUXUX",
"UXUXUXUXUXUXS xXO.%.:.o o s e.n H T T R R KXJX! D K o . 2 s . + + + O = ; = I v ..lXsX`.O.&.^ R H ;.;.1 @ > Q.i.v.:.UXUXUXUXUXUX",
"UXUXUXUXUXUXUXa lXO.%.;.o O d J.x G H T T +.&.HXKXZX%.....F A A Z F F F K E iXFXAX`.=.-.;.^ T H B f.1 @ = s.i.r.b.R UXUXUXUXUXUX",
"UXUXUXUXUXUXUXs 2.xXE #.a.; = 2 b q.B H H H H W.O.w.LXKXJXJXxXiXXXjXFXJXJXFX_.,.z.:.-.;.^ I V B s 3 , 3 i.i.i.XXJ UXUXUXUXUXUXUX",
"UXUXUXUXUXUXUXUXM M sXBXR...V - : s F.z B Z G m J P #.4...$.6.6.9.,.>.$.1.4.O.&.H *X! G B z /.a 3 @ UX#.;.rX;.J UXUXUXUXUXUXUXUX",
"UXUXUXUXUXUXUXUXUXUXK K =.UXUXUXUX: d v /.l z N B J J P E %.c BXR.cXF %.H M B N N b.B x M.s 3 3 UXUXUXUXUXP UXUXUXUXUXUXUXUXUXUX",
"UXUXUXUXUXUXUXUXUXUXUXUXUXUXUXUXUXUX: : d S z.b M m G J H ^ m.! 6.D.P.B B N N N N m 2.c 2 3 = UXUXUXUXUXUXUXUXUXUXUXUXUXUXUXUXUX",
"UXUXUXUXUXUXUXUXUXUXUXUXUXUXUXUXUXUXUXUX: p p d P B.l l n l (.s.2.3.m.B G N G K 7.3 2 2 1 UXUXUXUXUXUXUXUXUXUXUXUXUXUXUXUXUXUXUX",
"UXUXUXUXUXUXUXUXUXUXUXUXUXUXUXUXUXUXUXUXUXUXUXp : 2 d Z M.b I I W N 4 T ,.E 1 3 2 3 1 UXUXUXUXUXUXUXUXUXUXUXUXUXUXUXUXUXUXUXUXUX",
"UXUXUXUXUXUXUXUXUXUXUXUXUXUXUXUXUXUXUXUXUXUXUXUXUXUXp p 2 : s 2 s a 2 2 1 2 p 2 UXUXUXUXUXUXUXUXUXUXUXUXUXUXUXUXUXUXUXUXUXUXUXUX",
"UXUXUXUXUXUXUXUXUXUXUXUXUXUXUXUXUXUXUXUXUXUXUXUXUXUXUXUXUXUXUXp a a UXUXUXUXUXUXUXUXUXUXUXUXUXUXUXUXUXUXUXUXUXUXUXUXUXUXUXUXUXUX",
"UXUXUXUXUXUXUXUXUXUXUXUXUXUXUXUXUXUXUXUXUXUXUXUXUXUXUXUXUXUXUXUXUXUXUXUXUXUXUXUXUXUXUXUXUXUXUXUXUXUXUXUXUXUXUXUXUXUXUXUXUXUXUXUX",
"UXUXUXUXUXUXUXUXUXUXUXUXUXUXUXUXUXUXUXUXUXUXUXUXUXUXUXUXUXUXUXUXUXUXUXUXUXUXUXUXUXUXUXUXUXUXUXUXUXUXUXUXUXUXUXUXUXUXUXUXUXUXUXUX"
};
