/* XPM */
static char *result[] = {
/* columns rows colors chars-per-pixel */
"64 64 251 2 ",
"   c #030202",
".  c #0B0301",
"X  c #0C0904",
"o  c #03060A",
"O  c #030C0C",
"+  c #0A0C0B",
"@  c #050907",
"#  c #130401",
"$  c #1C0501",
"%  c #130B03",
"&  c #1C0B02",
"*  c #09120D",
"=  c #1B140B",
"-  c #070D11",
";  c #041313",
":  c #0C1314",
">  c #021C1C",
",  c #0A191A",
"<  c #161816",
"1  c #230500",
"2  c #230B01",
"3  c #2B0C01",
"4  c #2B0501",
"5  c #3B0D01",
"6  c #340A01",
"7  c #281406",
"8  c #341404",
"9  c #3C1302",
"0  c #3C1A04",
"q  c #361908",
"w  c #251E13",
"e  c #01211E",
"r  c #16251F",
"t  c #3A230A",
"y  c #2A2318",
"u  c #352415",
"i  c #352F15",
"p  c #021D22",
"a  c #091922",
"s  c #012324",
"d  c #01252A",
"f  c #012B2C",
"g  c #082729",
"h  c #162927",
"j  c #012D32",
"k  c #052D36",
"l  c #013234",
"z  c #01343A",
"x  c #013A3C",
"c  c #023A35",
"v  c #0D3533",
"b  c #2C3630",
"n  c #440A00",
"m  c #421402",
"M  c #4B1501",
"N  c #431C05",
"B  c #4B1C04",
"V  c #431D0A",
"C  c #541B02",
"Z  c #5C1C02",
"A  c #571300",
"S  c #641B01",
"D  c #671901",
"F  c #4B2204",
"G  c #482509",
"H  c #532304",
"J  c #5B2302",
"K  c #5E2B03",
"L  c #532A0A",
"P  c #562809",
"I  c #5C3609",
"U  c #4B3517",
"Y  c #573813",
"T  c #512B11",
"R  c #632403",
"E  c #632B05",
"W  c #6A2C02",
"Q  c #6A2704",
"!  c #732B02",
"~  c #792703",
"^  c #6C3406",
"/  c #683708",
"(  c #723304",
")  c #723905",
"_  c #783908",
"`  c #633E19",
"'  c #533726",
"]  c #19433B",
"[  c #7C4409",
"{  c #794714",
"}  c #6F490E",
"|  c #694D28",
" . c #786639",
".. c #584D20",
"X. c #023C43",
"o. c #043948",
"O. c #093D53",
"+. c #203E42",
"@. c #014343",
"#. c #04464B",
"$. c #034B5B",
"%. c #094C5B",
"&. c #074B55",
"*. c #01545B",
"=. c #085659",
"-. c #14545A",
";. c #19484C",
":. c #035463",
">. c #045B6C",
",. c #075966",
"<. c #115966",
"1. c #04656B",
"2. c #17636A",
"3. c #066975",
"4. c #166A79",
"5. c #08757A",
"6. c #117477",
"7. c #327279",
"8. c #3B4C4B",
"9. c #795F47",
"0. c #822D04",
"q. c #833303",
"w. c #873A04",
"e. c #8F3A07",
"r. c #AD3E00",
"t. c #854305",
"y. c #884609",
"u. c #924E05",
"i. c #984A07",
"p. c #8C520B",
"a. c #965206",
"s. c #9B5406",
"d. c #9D5A0A",
"f. c #97530A",
"g. c #8A5917",
"h. c #965B16",
"j. c #8C4B13",
"k. c #A54B04",
"l. c #A75908",
"z. c #B75A05",
"x. c #A65C11",
"c. c #9C621D",
"v. c #AB650A",
"b. c #B76709",
"n. c #B9720A",
"m. c #A76417",
"M. c #B56A17",
"N. c #BA7219",
"B. c #AB7417",
"V. c #8B562E",
"C. c #8E6D38",
"Z. c #A87326",
"A. c #B77926",
"S. c #A86F2D",
"D. c #C95803",
"F. c #CE5102",
"G. c #C26D0B",
"H. c #C7770A",
"J. c #C67917",
"K. c #D47209",
"L. c #C47D24",
"P. c #E16F00",
"I. c #957846",
"U. c #BA8735",
"Y. c #CD8317",
"T. c #D58718",
"R. c #D88E19",
"E. c #ED960D",
"W. c #D99428",
"Q. c #CF8E2D",
"!. c #E49929",
"~. c #E19934",
"^. c #E7A62D",
"/. c #E7A737",
"(. c #F0B334",
"). c #E9AD1D",
"_. c #FED21A",
"`. c #FFCD21",
"'. c #AC8849",
"]. c #B29668",
"[. c #BCA25B",
"{. c #CE954C",
"}. c #D9A44A",
"|. c #C6A45B",
" X c #D4A64C",
".X c #F5BC45",
"XX c #E7B050",
"oX c #D1B16E",
"OX c #E9B574",
"+X c #CD9669",
"@X c #FCD859",
"#X c #F9C754",
"$X c #F5D071",
"%X c #FFEB76",
"&X c #EAD45E",
"*X c #087984",
"=X c #157B86",
"-X c #0C7A90",
";X c #2B7687",
":X c #09848A",
">X c #0A8995",
",X c #178996",
"<X c #19929A",
"1X c #118C92",
"2X c #238A99",
"3X c #2C8A97",
"4X c #1A97A6",
"5X c #1894A7",
"6X c #259AA7",
"7X c #3392A9",
"8X c #1DA9B0",
"9X c #28A3AC",
"0X c #29A5B5",
"qX c #34AAB8",
"wX c #37B1BC",
"eX c #30ADAE",
"rX c #3BB5C3",
"tX c #30AAC5",
"yX c #47BBCB",
"uX c #53B9D1",
"iX c #4CC3CA",
"pX c #58CBD7",
"aX c #61CFE2",
"sX c #50A39B",
"dX c #ACA99E",
"fX c #CFB78B",
"gX c #F9D887",
"hX c #FADC99",
"jX c #EBD191",
"kX c #FEF689",
"lX c #FAE699",
"zX c #FDEE90",
"xX c #F3DCA8",
"cX c #FCE7A8",
"vX c #FEF6A9",
"bX c #F9E6B4",
"nX c #FDF9B8",
"mX c #DCD4A5",
"MX c #B8CAC8",
"NX c #FEFCCA",
"BX c #FDF8C6",
"VX c #FEFCDC",
"CX c #FCF7D6",
"ZX c #F5E9CB",
"AX c #FEFCEB",
"SX c #FCF8E5",
"DX c #FEFDF4",
"FX c #FFFFFD",
"GX c #F5FDFD",
"HX c #E9DDC6",
"JX c None",
/* pixels */
"JXJXJXJXJXJXJXJXJXJXJXJXJXJXJXJXJXJXJXJXJXJXJXJXJXJXJXJXJXJXJXJXJXJXJXJXJXJXJXJXJXJXJXJXJXJXJXJXJXJXJXJXJXJXJXJXJXJXJXJXJXJXJXJX",
"JXJXJXJXJXJXJXJXJXJXJXJXJXJXJXJXJXJXJXJXJXJXJXJXJXJXJXJXJXJXJXJXJXJXJXJXJXJXJXJXJXJXJXJXJXJXJXJXJXJXJXJXJXJXJXJXJXJXJXJXJXJXJXJX",
"JXJXJXJXJXJXJXJXJXJXJXJXJXJXJXJXJXJXJXJXJXJXJXJXJXJXJXJXJXJXJXJXJXJXJXJXJXJXJXJXJXJXJXJXJXJXJXJXJXJXJXJXJXJXJXJXJXJXJXJXJXJXJXJX",
"JXJXJXJXJXJXJXJXJXJXJXJXJXJXJXJXJXJXJXJXJXJXJXJXJXJXJXJXgXcXVXSXSXCXCXbXxXJXJXJXJXJXJXJXJXJXJXJXJXJXJXJXJXJXJXJXJXJXJXJXJXJXJXJX",
"JXJXJXJXJXJXJXJXJXJXJXJXJXJXJXJXJXJXJXJXJXJXJXJXXXvXNXnXgXA.k.z.z.G.}.ZXFXFXFXCXOXJXJXJXJXJXJXJXJXJXJXJXJXJXJXJXJXJXJXJXJXJXJXJX",
"JXJXJXJXJXJXJXJXJXJXJXJXJXJXJXJXJXJXJXJXJX~.vXvXXX~ q.l.Y.W.M.DXVXz.kX(.D.D.F.{.FXFXZXOXJXJXJXJXJXJXJXJXJXJXJXJXJXJXJXJXJXJXJXJX",
"JXJXJXJXJXJXJXJXJXJXJXJXJXJXJXJXJXJXJX}.nXzXA q.G.T.^.(.#X@X.XnXCXK.nXnXnXnXvX_.P.F.CXFXFX+XJXJXJXJXJXJXJXJXJXJXJXJXJXJXJXJXJXJX",
"JXJXJXJXJXJXJXJXJXJXJXJXJXJXJXJXJX{.vXOXA i.Y.R./.XX#XQ.~ q.~ ~ 0.0.t.XXvXBXNXVXVXzXE.F.bXFXfXJXJXJXJXJXJXJXJXJXJXJXJXJXJXJXJXJX",
"JXJXJXJXJXJXJXJXJXhXNXlXzXJXJXJX$XcXS w.T.W.^..X_ R A D i.C 1 # 1 9 ~ ~ ~ ~ ~  XVXSXAXBXE.D.AXFXhXJXJXJXAXAXDXJXJXJXJXJXJXJXJXJX",
"JXJXJXJXJXJXJXJXJXZ.cXw.N.cXjX$XZ S Q.R.W.W.m 5 S _ . o   . o - w . o   . . ~ ~ Z Z nXAXVXkXP.J.DXVXJXhXk.{.b.cXJXJXJXJXJXJXJXJX",
"JXJXJXJXJXJXJXJXJ.p.fXi $ '.%XA x.Y.W.T.6 M q.. .   + < r b b L.bXBX+.< < @     # ( S Z vXVXCXE.r.VXAXk.y } FXv.JXJXJXJXJXJXJXJX",
"JXJXJXJXJXJXJXJXm.) F SX|.A.A M.Y.Y.c.C ! .   . < v qX0X0X6Xi GXDXDXpXaXaXaXpXr . . . _ Q ) nXNX).e.gXVXGX{ ZXy.JXJXJXJXJXJXJXJX",
"JXJXJXJXJXJXJXJXJX^ 3 q.x.S {.Y.H.& S P     < 6X6XyX0X0X6X6Xb SXAXB.rXiXiXiXiXaXpX;X    N ! D kXvXD e.K.SXR E g.JXJXJXJXJXJXJXJX",
"JXJXJXJXJXJXJXJXJXJX3 L.S cXSXe.m S %   @ &.6X>X4Xo.8X4X5X5X;.h.OX/ wXwXrXrXo.yXuXpXpXO     i.A G.DXnXw.G.CX/ JXJXJXJXJXJXJXJXJX",
"JXJXJXJXJXJXJXJXJXJXR.S c.3 /.A ! o   2.1.3.$.5.>X&.8X5X4X<X2.g.oX} 8XeX0XwXqXyXyXiX9XwXiX.   z.6 `.%Xn 0..XfXJXJXJXJXJXJXJXJXJX",
"JXJXJXJXJXJXJXJXJX~.^ / b.W m ~   dXdX5.5.5.#.8X>X5X>.5X<X<X4.[ oXU 6X9X0XeXwXwXrX>X9XwXrXyX    z.6 n i.^.D @XJXJXJXJXJXJXJXJXJX",
"JXJXJXJXJXJXJXJX{.G.1 b.i.Z q..   q.DXCX3.5.5.#.:X>X&.<X<X<X3X} oXU <X6X9X<.qXtXwX5XwX0X8.FXDXo   k.E !.^.R.D .XJXJXJXJXJXJXJXJX",
"JXJXJXJXJXJXJXJXJ.q G.x.B Q #   . u.q.SXSX1.*X#.*.>X5.1X5X1X3XI  Xi <X6X6X6X9XqX-XqX5Xg GXk.x.m.    z.e.^.!.0.$XXXJXJXJXJXJXJXJX",
"JXJXJXJXJXJXJX}.H g.b.( B /       & w._ dXCX*X1.#.:X:X;.<X>X2XT U.] ,X2X9X6X6X4X6X,Xk DX0.k.x.E , . o i.5 !.W.Z (.JXJXJXJXJXJXJX",
"JXJXJXJXJXJXJXJ.= b.l.N i.    3.o   7 w.D U SX3.*.#.:X=.<X>X;Xt Q.;.1X,Xo.6X6X5X*X%.SX_ i.x.u O.7X7.  H ~ ~.W.w.+XQ.JXJXJXJXJXJX",
"JXJXJXJXJXJX'.P m.b.H B     #.l 4X@   7 q.W 0 VX*.&.*.*X&.>X=Xq U.;.1X<X<X<X3.3.<.CXj.e._ w ;XtXuX-X.   G.8 R.J.9 Q.JXJXJXJXJXJX",
"JXJXJXJXJXJXJ.7 v.l.q w.  ; c ; s *X@   & q.Q 0 CX$.*.5.;.>X-X7 U.=.=X=X1X,X3.2.BXh.w.I . 3XtXaX>.;X7X  m J Q.Y.E Q.JXJXJXJXJXJX",
"JXJXJXJXJXJXx.T v.E N     @.f 6.s e 5.;   . w.E 0 NX&.:.5.&.=Xq Y.=.=X-.-X1.3.zXy.t.y.@ 2XqX4.3.,X2X*X  . z.F Y.x.L S.JXJXJXJXJX",
"JXJXJXJXJXZ.q x.l.8 [   > #.s g @.c > =Xv   . t.J q nX*.1.=.6X7 Z.2.6.6.3.3.@Xe._ { * 6X3XO.,X:X4.,.3.3X. _ t J.N.q M.JXJXJXJXJX",
"JXJXJXJXJXv.= v.f.7 L   X.3.d f s f x > 3.7.@ @ s.J 0 CX:.1.-.u c.=.2.6.3..XZ ^ ` * 9X2.O.1X5.:.%.>.>.*XX & E A.N.G M.JXJXJXJXJX",
"JXJXJXJXJXh.L l.) L   o X.d f :Xf d d z s &.sXX X s./ V.MX,.=.u B.=.-.1. Xm y.G : tX#.1.:X*.%.=.5X2X2.3.X X b./ N.h.h.JXJXJXJXJX",
"JXJXJXJXJX_ m.s.G (   > j j d j f 5.@.f f f j eXX . i.[ OX<.*.u g.-.-.i C l.w < 5XX.*X:.%.%.>.iX%.O.$.$.;X  f.= N.m.F h.JXJXJXJX",
"JXJXJXJX{ G l.i.q ^ o d k k z j z l j @.3.l f s 8XX X j._ cXI.SXAXAX].R i.< , 6.%.,.&.%.4.3.&.$.$.:.:.$.>.X ) q J.M.3 m.JXJXJXJX",
"JXJXJXJXf.q f.t.q K   j j k k z z z x X.z x 5.f s ;X& X K CXoXD.K.K.AXSX7 = %.<.%.%.7X%.:.:.:.:.>.:.:.:.:.  0 / U.M.2 f.JXJXJXJX",
"JXJXJXJXf.9 w._ V G   d j k X.z X.o.o.X.X.o.@.@.*.X.#.% S.m.bXbXjXBX$XoX[.O.>.%.=X$.:.:.:.>.>.>.>.>.:.:.$.. 2 _ N.v.0 y.JXJXJXJX",
"JXJXJXJXy.J CX$XB 7   w (.%XI '.'.'.[.oXoXjXjXjXmXoX].I } I k./ _ hX_  X+X' fXHXCXZXCXBXBXZXbXbXlXcXFXR._.% & } ! t.P [ JXJXJXJX",
"JXJXJXJX_ m m.m.H & @ 7 q N V 0 9 0 G V G V t F F F u y./ U J = u A.{.Q.m.V B T L F G B B M m m 9 q w._ ( 0 & / t.nXXX/ JXJXJXJX",
"JXJXJXJX_ 1 e.S H % . t 0 0 N 0 0 0 0 0 0 0 F t 0 0 & [ K U {  .I.S.U.h.p.8 G T L L L L G G t 0 0 G N N 8 @ 2 ) (.j.b./ JXJXJXJX",
"JXJXJXJX^ 2 $XQ.B G o ; @ O , d d j c @.o.@.#.*.6.2X2.8 ) | y.{ C.S.t } [ w @.2.-.@.f g g g r h r r h h s y 0 ) m n.9 ( JXJXJXJX",
"JXJXJXJX_ L 9 B N {   ; d s @.#.=.1.#.g f f f f f j f + ) p.| t t | U.j._ v v g f x c @.x x &.1X>X-X*Xz d < / / p.[ N _ JXJXJXJX",
"JXJXJXJXK 9 t.W 3 p.  * d e e > e d s f f z @.=.f f f I.t K p.B.Q.[ ) ^ 8 < c x ] e ;Xl x @.@.x x z j o.O.* f.G d.a.& ) JXJXJXJX",
"JXJXJXJXN m z._ 9 ) @ O s e s s d f f f @.&.e e f z $X8 0 $ K ^ ) ) / B F SXg o.x X.j p ;Xj l x X.z z c j @ d.8 d.a.7 E JXJXJXJX",
"JXJXJXJXJX0 H.y.F ) @ O > e s s s d X.c > s f l z $X5 0 . g . . 3 . , # H N SXv o.x x x g s ,.l f l z #.h   a.B s.f.J JXJXJXJXJX",
"JXJXJXJXJXM u.a.J N L @ ; f s l z e e e f j z z lXB G % f v > * ^ * f f # H M AXg o.z z x f s s *.f f x < . y.p.a.y.Q JXJXJXJXJX",
"JXJXJXJXJXW 3 z.( 2 m.@ O s > ; > e s f j j j lXB P + k z ; v * ) * f z f . H B ZXh z z l z x s d f x d : d.7 p.u.& W JXJXJXJXJX",
"JXJXJXJXJX& 9 G.k.9 u.  O ; e > e s d f f j jXH F * j f l f e * ) * c @.s z . E F fX..X.j l l z x s X.a o d.7 a.p.8 F JXJXJXJXJX",
"JXJXJXJXJXJXB E l.M 2 Z.@ O > e d s e f p S.N G * d f z > x f + ) e @.e @.s x   ) H '.fXj l j j f l f , g.0 a.u.{ ( JXJXJXJXJXJX",
"JXJXJXJXJXJX/ q b.s.3 v.  ; O d e e f i K 0 0 o s f f j f f f % ) e c s @.f f f   ) H Y lXd j f f x ; o v.7 s.a.# ! JXJXJXJXJXJX",
"JXJXJXJXJXJXJXC { z.M 4 W.O O O e e Q.0 8 7   e f s j > z > f % ^ e c c s @.s x ;   ^ K 7 gXd j j d - m.7 p.a.j.R JXJXJXJXJXJXJX",
"JXJXJXJXJXJXJX/ 5 G.k.6 H 7 O @ e G 0 8 2 X e d s f d f j d f + ^ e f c s l z > x e   K J # ~.f j - # m.1 s.s.# W JXJXJXJXJXJXJX",
"JXJXJXJXJXJXJXJXQ $ b.Q & H.@ @ @ & 8 & % > s s s j > j , f f % ^ > f f c s l f s f ;   J K + C.- @ a.$ u.s.H E JXJXJXJXJXJXJXJX",
"JXJXJXJXJXJXJXJXJXC Q.z.C $ (.= @ G X X ; s s s f p s j > f f # / > f s f d f l d d f s   C H . @ W.1 E s.s.2 K JXJXJXJXJXJXJXJX",
"JXJXJXJXJXJXJXJXJXR $ K.!.n 2 (.= * @ @ ; s s s d > f s s s f # K ; f s s f e s f s p s e ; . . /.{ xXbXi.. ( JXJXJXJXJXJXJXJXJX",
"JXJXJXJXJXJXJXJXJX# _ # 6 @X(.6 !.* < O O O d p p p f ; s s d # E ; f f p f s s d p p p p ; : }.$ q { |.^ R 2 JXJXJXJXJXJXJXJXJX",
"JXJXJXJXJXJXJXJXJXxX  ! q.S.@X6 3 ~.oX, , o O a p s s s d s d # L + s p s s d s p ; a a a : @X5 2 R.G E.8 . jXJXJXJXJXJXJXJXJXJX",
"JXJXJXJXJXJXJXJXcXH 2   S ( B G.x.m { &X+ h o o @ > s s s s d % 8 + s > s s , a a a ; a |./.m R E $ T.5 # / i.gXJXJXJXJXJXJXJXJX",
"JXJXJXJXJXJXJXJXK 9.G u   Z M n.l._ M 1 $X$X- h : @ @ O p s p # 3 = > , : , , a a a  .%XM m W l.b.$ $ 1 & 2 (.S JXJXJXJXJXJXJXJX",
"JXJXJXJXJXJXJXJXK AXT G L   A 5 m.n.a.J 5 4 zXgX: < < < + @ . # 2 : : , a a a + mXzXM n C u.v.G.# M V # '.9.y m JXJXJXJXJXJXJXJX",
"JXJXJXJXJXJXJXJXI  .ZXY 7     Z M 1 n.v.u.K 9 4 [.NXcX .< < < y ' : : + | BXlX/.5 n J y.v.b.J.& D .   L { CXoXB JXJXJXJXJXJXJXJX",
"JXJXJXJXJXJXJXJXJXT F P # JXJXJX$ Z 5 g.n.v.a.^ C 5 4 4 j.jXbXbXhXhXOXL.B 4 5 J ! u.b.n.Y.& 8 ~ . JXJXJXq q V JXJXJXJXJXJXJXJXJX",
"JXJXJXJXJXJXJXJXJXJXJXJXJXJXJXJXJXJXZ C 4 [ Y.b.v.u.q._ W J Z R R B R R Q w.d.b.n.Y.Y.2 6 R . JXJXJXJXJXJXJXJXJXJXJXJXJXJXJXJXJX",
"JXJXJXJXJXJXJXJXJXJXJXJXJXJXJXJXJXJXJX. Z C 6 3 J.Y.b.v.l.l.B ).d.5 n.n.n.J.Y.T.9 3 9 R 3 . JXJXJXJXJXJXJXJXJXJXJXJXJXJXJXJXJXJX",
"JXJXJXJXJXJXJXJXJXJXJXJXJXJXJXJXJXJXJXJXJXJXH Z B 9 5 m a.T.B d./.5 H.L.H 1 6 8 m ! .   JXJXJXJXJXJXJXJXJXJXJXJXJXJXJXJXJXJXJXJX",
"JXJXJXJXJXJXJXJXJXJXJXJXJXJXJXJXJXJXJXJXJXJXJXJX# C R A M m m B N m M B A Q _ #   JXJXJXJXJXJXJXJXJXJXJXJXJXJXJXJXJXJXJXJXJXJXJX",
"JXJXJXJXJXJXJXJXJXJXJXJXJXJXJXJXJXJXJXJXJXJXJXJXJXJXJXJX. . # 2 3 & .   . JXJXJXJXJXJXJXJXJXJXJXJXJXJXJXJXJXJXJXJXJXJXJXJXJXJXJX",
"JXJXJXJXJXJXJXJXJXJXJXJXJXJXJXJXJXJXJXJXJXJXJXJXJXJXJXJXJXJXJXJXJXJXJXJXJXJXJXJXJXJXJXJXJXJXJXJXJXJXJXJXJXJXJXJXJXJXJXJXJXJXJXJX",
"JXJXJXJXJXJXJXJXJXJXJXJXJXJXJXJXJXJXJXJXJXJXJXJXJXJXJXJXJXJXJXJXJXJXJXJXJXJXJXJXJXJXJXJXJXJXJXJXJXJXJXJXJXJXJXJXJXJXJXJXJXJXJXJX",
"JXJXJXJXJXJXJXJXJXJXJXJXJXJXJXJXJXJXJXJXJXJXJXJXJXJXJXJXJXJXJXJXJXJXJXJXJXJXJXJXJXJXJXJXJXJXJXJXJXJXJXJXJXJXJXJXJXJXJXJXJXJXJXJX",
"JXJXJXJXJXJXJXJXJXJXJXJXJXJXJXJXJXJXJXJXJXJXJXJXJXJXJXJXJXJXJXJXJXJXJXJXJXJXJXJXJXJXJXJXJXJXJXJXJXJXJXJXJXJXJXJXJXJXJXJXJXJXJXJX"
};
