/* XPM */
static char *result[] = {
/* columns rows colors chars-per-pixel */
"64 64 256 2 ",
"   c #030202",
".  c #0B0402",
"X  c #0D0905",
"o  c #0B0B0C",
"O  c #06070A",
"+  c #130B05",
"@  c #1B0B03",
"#  c #160704",
"$  c #14110C",
"%  c #1C140B",
"&  c #1F1104",
"*  c #090D13",
"=  c #0A1318",
"-  c #12151B",
";  c #171718",
":  c #270901",
">  c #380D01",
",  c #27170A",
"<  c #391706",
"1  c #241C15",
"2  c #321D11",
"3  c #292218",
"4  c #392615",
"5  c #3E351B",
"6  c #0B1A24",
"7  c #0B1D2A",
"8  c #071A27",
"9  c #151B22",
"0  c #191E25",
"q  c #041B30",
"w  c #162329",
"e  c #0E2638",
"r  c #152937",
"t  c #0E2A33",
"y  c #2B2824",
"u  c #362E27",
"i  c #3B342D",
"p  c #373632",
"a  c #4C1B04",
"s  c #461603",
"d  c #571C03",
"f  c #500C02",
"g  c #651902",
"h  c #7B1800",
"j  c #4A2409",
"k  c #5B2304",
"l  c #562607",
"z  c #442916",
"x  c #583719",
"c  c #583011",
"v  c #6C2D05",
"b  c #642A07",
"n  c #742B04",
"m  c #683408",
"M  c #773607",
"N  c #693A15",
"B  c #483828",
"V  c #433B34",
"C  c #573B28",
"Z  c #79450A",
"A  c #794617",
"S  c #724A1A",
"D  c #4B443D",
"F  c #474139",
"G  c #564831",
"H  c #664727",
"J  c #765029",
"K  c #6F552A",
"L  c #0C2D43",
"P  c #112D42",
"I  c #0C374B",
"U  c #173748",
"Y  c #0D3954",
"T  c #1A3C57",
"R  c #114358",
"E  c #0B5879",
"W  c #1A5873",
"Q  c #124E67",
"!  c #225C78",
"~  c #20566E",
"^  c #23627D",
"/  c #2D5362",
"(  c #4B4846",
")  c #59534A",
"_  c #575855",
"`  c #4D504F",
"'  c #69594B",
"]  c #5A6667",
"[  c #566974",
"{  c #666865",
"}  c #687479",
"|  c #73756F",
" . c #5C5F64",
".. c #853A05",
"X. c #913003",
"o. c #A63A02",
"O. c #844B0B",
"+. c #894709",
"@. c #944A09",
"#. c #97550B",
"$. c #874814",
"%. c #8B5417",
"&. c #975815",
"*. c #91510F",
"=. c #A54806",
"-. c #A75808",
";. c #AF550D",
":. c #9C6316",
">. c #AB640C",
",. c #B6670B",
"<. c #A96616",
"1. c #B56916",
"2. c #B97519",
"3. c #B37111",
"4. c #8E5727",
"5. c #996626",
"6. c #936831",
"7. c #A66C26",
"8. c #B87827",
"9. c #AB7933",
"0. c #AE732F",
"q. c #B15C26",
"w. c #C85A07",
"e. c #C9770A",
"r. c #C77919",
"t. c #D67817",
"y. c #CA6C10",
"u. c #C57A26",
"i. c #C97A2D",
"p. c #93714E",
"a. c #A57C48",
"s. c #85726B",
"d. c #C27B41",
"f. c #B88538",
"g. c #B58433",
"h. c #D28719",
"j. c #EA9613",
"k. c #C78625",
"l. c #D58A24",
"z. c #D7952B",
"x. c #C78A35",
"c. c #CB9235",
"v. c #D69537",
"b. c #D78C3E",
"n. c #E99926",
"m. c #E39C39",
"M. c #F79F36",
"N. c #EBA62D",
"B. c #EAA73A",
"V. c #F7B232",
"C. c #EEA413",
"Z. c #FACA34",
"A. c #FDD314",
"S. c #B68D51",
"D. c #988F79",
"F. c #B39069",
"G. c #A39269",
"H. c #C89647",
"J. c #D59A45",
"K. c #C99C56",
"L. c #C88F4A",
"P. c #D8A34B",
"I. c #D9A658",
"U. c #D4A95A",
"Y. c #E6A746",
"T. c #F3B957",
"R. c #EEB252",
"E. c #D7A866",
"W. c #DBB578",
"Q. c #CDA86B",
"!. c #EEBB6D",
"~. c #CF9E5E",
"^. c #FFD64C",
"/. c #FFD956",
"(. c #F9C651",
"). c #FFE458",
"_. c #FFEC52",
"`. c #F8C966",
"'. c #F6C777",
"]. c #F4CF72",
"[. c #FFE366",
"{. c #FEEB77",
"}. c #167598",
"|. c #12698D",
" X c #276885",
".X c #267299",
"XX c #187BA4",
"oX c #0F72A4",
"OX c #227EA4",
"+X c #145D85",
"@X c #717C82",
"#X c #527186",
"$X c #1C93B9",
"%X c #1887AE",
"&X c #2786AC",
"*X c #2B8CBB",
"=X c #2789B5",
"-X c #2C93BA",
";X c #3593BA",
":X c #7C94AA",
">X c #7A878D",
",X c #359AC5",
"<X c #2B95C3",
"1X c #33BBDB",
"2X c #39B7D8",
"3X c #32ABCE",
"4X c #23ADD2",
"5X c #48B4DC",
"6X c #43AAD1",
"7X c #4BBBE3",
"8X c #53B8E8",
"9X c #429EC1",
"0X c #50C2E7",
"qX c #26C1E4",
"wX c #89908E",
"eX c #8A9CA6",
"rX c #939FA3",
"tX c #95A6AE",
"yX c #A7B0B3",
"uX c #AEA392",
"iX c #D6B786",
"pX c #CEB390",
"aX c #EABD81",
"sX c #E8C786",
"dX c #F3C989",
"fX c #F7D489",
"gX c #F8D898",
"hX c #EECE95",
"jX c #FBE588",
"kX c #FCEB97",
"lX c #FFF498",
"zX c #FFF080",
"xX c #F6D9A7",
"cX c #EBD4B2",
"vX c #FDE8A9",
"bX c #FDE9B7",
"nX c #FFF7BA",
"mX c #FFF6A7",
"MX c #D1C193",
"NX c #B1C4CE",
"BX c #D5D5CA",
"VX c #E6DCC6",
"CX c #F8E8C8",
"ZX c #FEF7C9",
"AX c #F7EBD3",
"SX c #FFFBDB",
"DX c #FEF5D7",
"FX c #EEE3CB",
"GX c #FFFCE4",
"HX c #FFFEEA",
"JX c #F9F4E7",
"KX c #FEFEF4",
"LX c #FFFFFC",
"PX c #F7FFFF",
"IX c #9BB8CD",
"UX c None",
/* pixels */
"UXUXUXUXUXUXUXUXUXUXUXUXUXUXUXUXUXUXUXUXUXUXUXUXUXUXUXUXUXUXUXUXUXUXUXUXUXUXUXUXUXUXUXUXUXUXUXUXUXUXUXUXUXUXUXUXUXUXUXUXUXUXUXUX",
"UXUXUXUXUXUXUXUXUXUXUXUXUXUXUXUXUXUXUXUXUXUXUXUXUXUXUXUXUXUXUXUXUXUXUXUXUXUXUXUXUXUXUXUXUXUXUXUXUXUXUXUXUXUXUXUXUXUXUXUXUXUXUXUX",
"UXUXUXUXUXUXUXUXUXUXUXUXUXUXUXUXUXUXUXUXUXUXUXUXUXUXUXUXUXUXUXUXUXUXUXUXUXUXUXUXUXUXUXUXUXUXUXUXUXUXUXUXUXUXUXUXUXUXUXUXUXUXUXUX",
"UXUXUXUXUXUXUXUXUXUXUXUXUXUXUXUXUXUXUXUXUXUXUXUXUXUXUXUXUXUXUXUXR.UXUXUXUXUXUXUXUXUXUXUXUXUXUXUXUXUXUXUXUXUXUXUXUXUXUXUXUXUXUXUX",
"UXUXUXUXUXUXUXUXUXUXUXUXUXUXUXUXUXUXUXUXUXUXUXUXUXUXDXvX`.cXkXKXLXLX!.ZXDXZXUXUXUXUXUXUXUXUXUXUXUXUXUXUXUXUXUXUXUXUXUXUXUXUXUXUX",
"UXUXUXUXUXUXUXUXUXUXUXUXUXUXUXUXUXUXUXUXUXUXUXZXR.V.ZXHXHXk GXHXy.LXbXLXLXDXfXnXnXUXUXUXUXUXUXUXUXUXUXUXUXUXUXUXUXUXUXUXUXUXUXUX",
"UXUXUXUXUXUXUXUXUXUXUXUXUXUXUXUXUXUXUXUXZXB.V.HXGXHXKXKXSXs jXDXy.LXkXLXLXLXLXLXHXgXZXnXUXUXUXUXUXUXUXUXUXUXUXUXUXUXUXUXUXUXUXUX",
"UXUXUXUXUXUXUXUXUXUXUXUXUXUXUXUXUXUXUXN.(.SXHXHXSXvXT.B.x.I.l ZXKXkXf P.R.xXLXLXLXLXLXxXmXvXUXUXUXUXUXUXUXUXUXUXUXUXUXUXUXUXUXUX",
"UXUXUXUXUXUXUXUXUXUXbXZXUXUXUXUXUXR.V.GXHXDXfXR.k.1.N , $.M.. a f @ # M n v -.m.fXHXKXKXKXdXnXUXUXUXUXUXUXvXSXUXUXUXUXUXUXUXUXUX",
"UXUXUXUXUXUXUXUXHXl.R.KXHXUXUXUXj.ZXSXZX!.J.0.z z G p.O   - ( @X>XwXwXy . uXAX< k ..T.DXHXHXHX`.ZXUXUXSXSXHXt.SXUXUXUXUXUXUXUXUX",
"UXUXUXUXUXUXUXGXt.SXSXbXKXGXiXt.SXGX!.J.1.j X FXAXGXyX:X:X:XeXeXrXrXeXrXrXyXeXpXLX4 N n !.DXDXSXr.JXCX'.SX'.GXt.ZXUXUXUXUXUXUXUX",
"UXUXUXUXUXUXUXl.ZXCXm.R.CXxXbXm.'.x.q.4.  tXJ SXL.dXbX:XeXeXtXtXyXyXyXyXyXtXwXJXJXS.LXj Z @.xXSXl SXHXGX!.ZXT.DXe.UXUXUXUXUXUXUX",
"UXUXUXUXUXUXUXv xXhXR.CXgXbXxXbX$.$.# 1 IX[ X.JXO.j.CXG j +.w.t.l.t.,...a D.a.LX` LXp.BX# 6.v L.KXxX`.hXSXR.xXJ.&.UXUXUXUXUXUXUX",
"UXUXUXUXUXUXUX: b u.CXgXxXdXhXE.p.2 3 #X#X[ D L.hX..t.i..   O           . b.<.M LXF.} } s.' N < !.AXKX!.aXAXt.O.k UXUXUXUXUXUXUX",
"UXUXUXUXUXUXUXUX: s fXxXxXaX~.f : NX#X[ [ { J y.4..     q +XE j KXE R         @ ;.8.| } } } cXs a '.FXJXdX'.M b A UXUXUXUXUXUXUX",
"UXUXUXUXUXUXUXUXUX# a !.aXL.: : NX[ [ { rXx.l     * ! XXOXXX+XN.LX9X1X4X%XQ O     H ..uX@X} } BX4 d dXxXxXM b Z UXUXUXUXUXUXUXUX",
"UXUXUXUXUXUXUXUXUX# > > 7.< @ eX] ] ] C i.    8  X*X*XOX*XOXR (.LXJ 1X1X1X4X4X}.O     8.W.@X} } yX2 k Y.v M < UXUXUXUXUXUXUXUXUX",
"UXUXUXUXUXUXUXUXUXI.: > : @ >X]  .{ C %.O O W OX<XOX<X*X*X=Xr j.CXiXqX1X2X1X2X5X3XY     8.0.>X} | wX, l M B I.UXUXUXUXUXUXUXUXUX",
"UXUXUXUXUXUXUXUXP.x.`.S.# | G DXs.| $.  8  X,X6X<X<X<X=X*XOXd.V.Z.PXqX1X1X1XqX0X7X2XE     f.F._ 9.| { , SXGXdXU.UXUXUXUXUXUXUXUX",
"UXUXUXUXUXUXUXUXY.DXc.5.. p n AXHX1.  q ! *X9X6XE <X<X<X*X+XdX/.).LXK 1X1X1X<X0X7X7X5X|.    g.Z.,.K.wX, @.GXDXE.UXUXUXUXUXUXUXUX",
"UXUXUXUXUXUXUXu.L.CXk.. # / j A.;.  * Q &X,X,X,X6X<X<X=X&Xr ;./.[.4.iX1X1X1X0X7X7X7X5X,XQ     @._.' | p z.k.HXsXH.UXUXUXUXUXUXUX",
"UXUXUXUXUXUXUX(.FXf.8.$ ` ( ( N b   T .X;X,X,X,X,X;X=X=X.XhXT././.[.JX9X4XoX0X7X7X8X7X5X%XR   C L._ { { % @.AXdXE.UXUXUXUXUXUXUX",
"UXUXUXUXUXUX8.f.FXx.@ ; F ( ( M   w Q OX-X,X,X,X<X<XL OXU i./././.[.6.&.4X7X7X7X7X5X5X6X&X^ 7   O.p. .[ y h.H.SXW.c.UXUXUXUXUXUX",
"UXUXUXUXUXUXv.iXW.b.o s.( ` m N O r W &X-X;X<X;X-X<X=XQ MXt./.^./.[.[.AX%X2X2X5X5X5X5X6X-X X~   < &.` ] _ , >.DXW.H.UXUXUXUXUXUX",
"UXUXUXUXUXUXP.cXJ.x + D ( ( 7.  r r U -X;X-X-X&X%X}.|.t ;.`.^.^.^./.).+.H %X-X2X2X3X6X3X*X XW t   8.{ [ { ; >.hXsXH.UXUXUXUXUXUX",
"UXUXUXUXUX2.x.CXc.% D ( ( ) M   U U U r }.}.&X&X&X-X%XkXm./.^.^.^./.).[.kX%X$X}.}.|.+X}. X X X/ O :.&.` ] ` >.J.CXK.9.UXUXUXUXUX",
"UXUXUXUXUX>.S.sXx.$ K ( ` 4.j o U U U U =X%XoX}.oX}.* =.[._.^.w.o._.^.).{.mX$X$X$X$X<XT .X X X~ o @ Z _ ] ] m k.CXI.7.UXUXUXUXUX",
"UXUXUXUXUX>.K.J.8.= c DXJX0.  t U U R U t %XXXoX|.Q R.[.{.A.Z.w.=.).[.lXf `.p.$X%X$X$X^  X X^ ! 6 O 9.uXKXG & 3.CXK.5.UXUXUXUXUX",
"UXUXUXUXUX#.f.x.&.; A ~.CX0.  r U U U U U  X}.|.E ].h l s nX{.,.=.kXkXX.jX!.mXU %X%Xr  X X X! ! r   8.PX3.K.$ >.hXJ.7.UXUXUXUXUX",
"UXUXUXUXUXHXLXDXk u 1 i.;.S.. U U U U R U w oXL jXX.n.(.[.g kXl.o.kXX.kX9.@.h vXr %X~  X! !  XW Y O x.s.<.K 3 Z LXLXKXUXUXUXUXUX",
"UXUXUXUXW.-.,.r.ZX, y % - F.. P U U U r U t ) T.X.B.B.n d ).g mXZX7.[.f =.V.T.o.bXC  XW ! ~ ! W T O x.V $ G.2 MX:.iXk.c.UXUXUXUX",
"UXUXUXUXM Z CXZX`.# V V 0 L.o P I E &X|.R ZXh.X.V.m.B.Y.Y.g #.Q.{.g X.B.N.N.n.R.o.dXxX+X+XXX8X,XR O x. .) X < f.Q.S g.<.UXUXUXUX",
"UXUXUXUXO.O.F.' `.. B ( ( F.O Y R I I A R.=.V.N.z.m.Y.n.T.R.> : d U.{.t.n.n.n.N.(.=.t.mX~ Q Q Y I O x._ _ 3 @ P.KXFX<.<.UXUXUXUX",
"UXUXUXUXUXO.2.8.g . V V ) S.O = e 0 Z.X.h.C.N.B.Y.Y.B.h.b : > M.2.v a lXC.n.R.B.l.z.{.o.t.hXR I 6   x. .) i X k.H.:.#.UXUXUXUXUX",
"UXUXUXUXUX: b j ,   u V ) S.. * c v -.,.t.e.-.;.w.e.!.T.s +...a H.-.M v kXB.h.r.r.y.l.n.v.q.y.t * . f._ D 3   # X #   UXUXUXUXUX",
"UXUXUXUXUXl x 6.A < . V ( C z O           # > V.z.>.e.h.Z.-.^.-.a h.-.@.+.R.r.y.V.s             O H N ) ( X   @.Y.5.#.UXUXUXUXUX",
"UXUXUXUXUXv R.!.u.m   i V y 6.      O o O       : Z.-.,.>.2.n ,.>.S e.w.3.l.n.>       = 7 9 9 6   f.) ( D y < 8.VXg.#.UXUXUXUXUX",
"UXUXUXUXUXv J.I.B.l   V V V Q.O = - ; 9 ; ; - o     g e.3.c.,.3.>.#.].h.I.z..   . 7 e e e e e 6 O g.) D V $ r.S.cX7.*.UXUXUXUXUX",
"UXUXUXUXUXv Z g.R.b X O V u G.B   9 0 9 9 9 9 ; =     : 1.-.h.3.2.2.*.].k.    r e P e P e e e O 6.4 ( ( X   @.S.iX:.UXUXUXUXUXUX",
"UXUXUXUXUXUXv v.E.n @   V B y N   9 9 0 0 9 9 - ;       > k.r.2.r.k.z.<.. @Xe e P P P e e e 9   g.F ( V i . @.Q.g.:.UXUXUXUXUXUX",
"UXUXUXUXUXUXk v.K.k.v , 3 i i vX4 * 9 9 0 9 9 6 O O O O   b k.g.k.k.:.:   O o P P P P L e e o x H F D 3 O 2.f.MX:.O.UXUXUXUXUXUX",
"UXUXUXUXUXUXm b k.P.M ,   i u B J   = 9 9 9 9 = = = * O O > (.k.k.>.@.  @ 0 w 1 P L L e e O   K.lXS p %   O.S.S.*.UXUXUXUXUXUXUX",
"UXUXUXUXUXUXv l z.J.@.. X % Z.Z.CX5   - 9 - - - 8 6 = * O   f k.z.#., $ ; 0 w 0 9 e e e 7 O a.HXJXN.y 3 Z 7.K.:.O.UXUXUXUXUXUXUX",
"UXUXUXUXUXUXUXb l h.c.M , $ b n : 4 u   * - r 6 7 7 8 = X   d v.g.+.  & ; w ; w 0 0 e q   a.x #.Z 2 %   O.S.Q.O.Z UXUXUXUXUXUXUX",
"UXUXUXUXUXUXUXb k k.c.@.  X 1 o 1 p.3 p O * * q 7 8 8 8 * .   b #.Z   $ w 9 w 0 0 - q O p.G ) : < 1 u O.&.~.Z M UXUXUXUXUXUXUXUX",
"UXUXUXUXUXUXUXUXb j k.,.M X % x 1 % kX3 _ * * O 7 q 8 8 6     b +.& X - 9 9 9 - 9 * O p.B V ) & & 1 + +.g.W.%.Z UXUXUXUXUXUXUXUX",
"UXUXUXUXUXUXUXUXUXa <.b hX].4 $ , , ; fX4 VXw O o 6 q 8 8 *   j +.  + w 9 - 9 -     pXG G i , : X + CXv O.Z m UXUXUXUXUXUXUXUXUX",
"UXUXUXUXUXUXUXUXUXUX< bXgXnXjX, + @ $ $ S.A G NX-     8 8 =     Z   ; - 9 = O X BXN G D 1 , 1 X , CXcXxXl v M UXUXUXUXUXUXUXUXUX",
"UXUXUXUXUXUXUXUXUXUXK.f.H.H.nX{.. + @ % 1 1 vX8.vX6.G.  O * O   M O - - = $ FX7.SXz ' $ , , @ # AXcXE.E.W.F.UXUXUXUXUXUXUXUXUXUX",
"UXUXUXUXUXUXUXUXUXu.&.&.f.f.f.gXI.    % , ; $ kXz.M 4.sXdX'.K @ : 4 F.gXS.J J.K.$.-.% 1 + X   hXxXW.E.E.W.M dX~.UXUXUXUXUXUXUXUX",
"UXUXUXUXUXUXUXUX+.:.hXO.&.9.f.J.s v     1 % % M.S.X.* ; % & z H H x z 4 1 $ b.0.$.M % X   . N # <.E.W.W.$.9.K.2.UXUXUXUXUXUXUXUX",
"UXUXUXUXUXUXUXM S.*.A sX..&.7.: +.#.@..   , % @ g   X i ( F i u u u ( _ V 1 $ *.d.X $   4.+.O.> > +.sXaX9.%.9.Q.Y.UXUXUXUXUXUXUX",
"UXUXUXUXUXUXUXb g.7.*.Z sX*.@ d g.@.<.-....   #         X + X + + + X X X X   O O + # *.*.*.@.3.: a v 0.7.6.S.Z $.UXUXUXUXUXUXUX",
"UXUXUXUXUXUXUXUXj J &.*.%.> > s a R.8.<.<.>.&.. z #               .   . . . + 5.: &.#.#.&.<.I.k d UXs l a.9.A N A UXUXUXUXUXUXUX",
"UXUXUXUXUXUXUXUXa s c.S j UXUXf f k *.sX>.1.<.<.2.x X . , , N s l j %.<.< , c 5.&.<.<.7.c.M k d UXUXUXd a N < v UXUXUXUXUXUXUXUX",
"UXUXUXUXUXUXUXUXUXa d c UXUXUXUXUXf g M 0.sX,.<.<.1.>.-.@.c SXAXHXbXj &.#.>.<.<.3.7.2.c.k k d UXUXUXUXUXUXl m UXUXUXUXUXUXUXUXUX",
"UXUXUXUXUXUXUXUXUXUXUXUXUXUXUXUXUXUXUXd n ..-.xX2.,.-.1.$.Z %.HX].g.d #.g.2.8.8.c.7.b k k UXUXUXUXUXUXUXUXUXUXUXUXUXUXUXUXUXUXUX",
"UXUXUXUXUXUXUXUXUXUXUXUXUXUXUXUXUXUXUXUXd d n M +.7.fXJ.z <.< g.:.*.v %.c.z.<.b v d d UXUXUXUXUXUXUXUXUXUXUXUXUXUXUXUXUXUXUXUXUX",
"UXUXUXUXUXUXUXUXUXUXUXUXUXUXUXUXUXUXUXUXUXUXUXs d n M M : +.l %.Z l Z a k b a a a UXUXUXUXUXUXUXUXUXUXUXUXUXUXUXUXUXUXUXUXUXUXUX",
"UXUXUXUXUXUXUXUXUXUXUXUXUXUXUXUXUXUXUXUXUXUXUXUXUXUXUXs s . O.m Z +.  s > a UXUXUXUXUXUXUXUXUXUXUXUXUXUXUXUXUXUXUXUXUXUXUXUXUXUX",
"UXUXUXUXUXUXUXUXUXUXUXUXUXUXUXUXUXUXUXUXUXUXUXUXUXUXUXUXUXUXUXUXUXUXUXUXUXUXUXUXUXUXUXUXUXUXUXUXUXUXUXUXUXUXUXUXUXUXUXUXUXUXUXUX",
"UXUXUXUXUXUXUXUXUXUXUXUXUXUXUXUXUXUXUXUXUXUXUXUXUXUXUXUXUXUXUXUXUXUXUXUXUXUXUXUXUXUXUXUXUXUXUXUXUXUXUXUXUXUXUXUXUXUXUXUXUXUXUXUX",
"UXUXUXUXUXUXUXUXUXUXUXUXUXUXUXUXUXUXUXUXUXUXUXUXUXUXUXUXUXUXUXUXUXUXUXUXUXUXUXUXUXUXUXUXUXUXUXUXUXUXUXUXUXUXUXUXUXUXUXUXUXUXUXUX",
"UXUXUXUXUXUXUXUXUXUXUXUXUXUXUXUXUXUXUXUXUXUXUXUXUXUXUXUXUXUXUXUXUXUXUXUXUXUXUXUXUXUXUXUXUXUXUXUXUXUXUXUXUXUXUXUXUXUXUXUXUXUXUXUX"
};
