/* XPM */
static const char *ZW5lbXlfOA__[] = {
/* columns rows colors chars-per-pixel */
"64 64 61 1 ",
"  c #150606",
". c #180707",
"X c #200A09",
"o c #260D0A",
"O c #2B0F0B",
"+ c #2D0F0C",
"@ c #2F100C",
"# c #32110D",
"$ c #35130D",
"% c #38140E",
"& c #211611",
"* c #271510",
"= c #3F1710",
"- c #46110E",
"; c #461B11",
": c #491D12",
"> c #63160A",
", c #65170A",
"< c #741A08",
"1 c #552415",
"2 c #693019",
"3 c #851D06",
"4 c #861D06",
"5 c #8C1E05",
"6 c #962004",
"7 c #803E1E",
"8 c #B22601",
"9 c #BB2B01",
"0 c #C13703",
"q c #C33A04",
"w c #864220",
"e c #D35A0B",
"r c #D45B0B",
"t c #E47F16",
"y c #E57F16",
"u c #E58117",
"i c #E68117",
"p c #E68217",
"a c #EC9A25",
"s c #F2B031",
"d c #F5B936",
"f c #F6BE38",
"g c #F7C43C",
"h c #F8C43C",
"j c #F8C53C",
"k c #F8C53D",
"l c #F9CA40",
"z c #FACB40",
"x c #FCD445",
"c c #FDD847",
"v c #FFE364",
"b c #FFE469",
"n c #FEEEA7",
"m c #FFEEA7",
"M c #FFEFA8",
"N c #FFF1B1",
"B c #FFF3BD",
"V c #FFF7D0",
"C c #FFFFFE",
"Z c white",
"A c None",
/* pixels */
"AAAAAAAAAAAAAAAAAAAAAAAAAAAAAAAAAAAAAAAAAAAAAAAAAAAAAAAAAAAAAAAA",
"AAAAAAAAAAAAAAAAAAAAAAAAAAAAAAAAAAAAAAAAAAAAAAAAAAAAAAAAAAAAAAAA",
"AAAAAAAAAAAAAAAAAAAAAAAAAAAAAAAAAAAAAAAAAAAAAAAAAAAAAAAAAAAAAAAA",
"AAAAAAAAAAAAAAAAAAAAAAAAAAAAAAAAAAAAAAAAAAAAAAAAAAAAAAAAAAAAAAAA",
"AAAAAAAAAAAAAAAAAAAAAAAAAAAAAAAAAAAAAAAAAAAAAAAAAAAAAAAAAAAAAAAA",
"AAAAAAAAAAAAAAAAAAAAAAAAAAAAAAAAAAAAAAAAAAAAAAAAAAAAAAAAAAAAAAAA",
"AAAAAAAAAAAAAAAAAAAAAAAAAAAAAAAAAAAAAAAAAAAAAAAAAAAAAAAAAAAAAAAA",
"AAAAAAAAAAAAAAAAAAAAAAAAAAAAAAAAAAAAAAAAAAAAAAAAAAAAAAAAAAAAAAAA",
"AAAAAAAAAAAAAAAAAAAAAAAAAAAAAAAAAAAAAAAAAAAAAAAAAAAAAAAAAAAAAAAA",
"AAAAAAAAAAAAAAAAAAAAAAAAAAAAAAAA AAAAAAAAAAAAAAAAAAAAAAAAAAAAAAA",
"AAAAAAAAAAAAAAAAAAAAAAAAAAAAAAA  AAAAAAAAAAAAAAAAAAAAAAAAAAAAAAA",
"AAAAAAAAAAAAAAAAAAAAAAAA AAAAAA   AAAAAAAAAAAAAAAAAAAAAAAAAAAAAA",
"AAAAAAAAAAAAAAAAAAAAAAAA   AAAA  AAAAAAAAAAAAAAAAAAAAAAAAAAAAAAA",
"AAAAAAAAAAAAAAAAAAAAAAA    AAAAA AAAAAAAAAAAAAAAAAAAAAAAAAAAAAAA",
"AAAAAAAAAAAAAAAAAAAAAAAA    A    AAAAAAAAAAAAAAAAAAAAAAAAAAAAAAA",
"AAAAAAAAAAAAAAAAAAAAAAAA         AAAAAAAAAAAAAAAAAAAAAAAAAAAAAAA",
"AAAAAAAAAAAAAAAAAAAAAAAA    A   AAAAAAAAAAAAAAAAAAAAAAAAAAAAAAAA",
"AAAAAAAAAAAAAAAAAAAAAAAAA   Ao  AAA  AAAAAAAAAAAAAAAAAAAAAAAAAAA",
"AAAAAAAAAAAAAAAAAAAAAAAAA   oo  AA  *AAAAAAAAAAAAAAAAAAAAAAAAAAA",
"AAAAAAAAAAAAAAAAAAAAAAAAA   oo AAA     AAAAAAAAAAAAAAAAAAAAAAAAA",
"AAAAAAAAAAAAAAAAAAAAAAAAA  ooooAAO O   AAAAAAAAAAAAAAAAAAAAAAAAA",
"AAAAAAAAAAAAAAAAAAAAAAAAAA ooo  OOOOO AAAAAAAAAAAAAAAAAAAAAAAAAA",
"AAAAAAAAAAAAAAAAAAAAAAAAA  ooo AOOOO  AAAAAAAAAAAAAAAAAAAAAAAAAA",
"AAAAAAAAAAAAAAAAAAAAAAAAA  ooo O,,,,  AAAAAAAAAAAAAAAAAAAAAAAAAA",
"AAAAAAAAAAAAAAAAAAAAAAAAAAooooAO,,,,,AAAAAAAAAAAAAAAAAAAAAAAAAAA",
"AAAAAAAAAAAAAAAAAAAAAAAAAAooooAO,,,,,AAAAAAAAAAAAAAAAAAAAAAAAAAA",
"AAAAAAAAAAAAAAAAAAAAAAAAAAooooOO,,,,,AAAAAAAAAAAAAAAAAAAAAAAAAAA",
"AAAAAAAAAAAAAAAAAAAAAAAAAAooooOOO,,,AAAAAAAAAAAAAAAAAAAAAAAAAAAA",
"AAAAAAAAAAAAAAAAAAAAAAAAAAooooO%%OOOAAAAAAAAAAAAAAAAAAAAAAAAAAAA",
"AAAAAAAAAAAAAAAAAAAAAAAAAAoooAO%%%OO4444AAAAAAAAAAAAAAAAAAAAAAAA",
"AAAAAAAAAAAAAAAAAAAAAAAAAooooAO%%%OO44444AAAAAAAAAAA&AAAAAAAAAAA",
"AAAAAAAAAAAAAAAAAAAAAAAA66666XO%%%OO44444AAAAAAAAAA88AAAAAAAAAAA",
"AAAAAAAAAAAAAAAAAAAAAAA6666666%%%%OA44444AAAAAAAAA8888AAAAAAAAAA",
"AAAAAAAAAAAAAAAAAAAAAAA6666666%%%%%AA444AAAAAAAAA88888AAAAAAAAAA",
"AAAAAAAAAAAAAAAAAAAAAAe6666666:%%%%AAAAAAAAAAAAAA88888AAAAAAAAAA",
"AAAAAAAAAAAAAAAAAAAAAAe6666666e%%%%AAAAAAAAAAAAAAA8888AAAAAAAAAA",
"AAAAAAAAAAAAAAAAAAAAAAe6666yyyy:%%% A000AAAAAAAAAAAAAAAAAAAAAAAA",
"AAAAAAAAAAAAAAAAAAAAAAee66yyyyyy%%@0000000AAAAAAAAAAAAAAAAAAAAAA",
"AAAAAAAAAAAAAAAAAAAAAAeeeyyyyyyyy--00000000AAAAAAAAAAAAAAAAAAAAA",
"AAAAAAAAAAAAAAAAAAAAA.eeyyyyyyyZy-000000000AAAAAAAAAAAAAAAAAAAAA",
"AAAAAAAAAAAAAAAAAAAA...eyyyyyjjjZjj00000000AAAAAAAAAAAAAAAAAAAAA",
"AAAAAAAAAAAAAAAAAAAA....yyyyjjjjjZjjj000pppAAAAAAAAAAAAAAAAAAAAA",
"AAAAAAAAAAAAAAAAAAA...qqqqyyjjjjjjZjj0pppppppAAAAAAAAAAAAAAAAAAA",
"AAAAAAAAAAAAAAAAA....qqqqqqyjjjjjjjjj0pppppppAAAAAAAAAAAAAAAAAAA",
"AAAAAAAAAAAAAAAA....qqqqqqqqjjjjjjjjjjjjjpppppAAAAAAAAAAAAAAAAAA",
"AAAAAAAAAAAAAAAA...qqqqqqqqqjjjjfffjjjjjjjppppAAAAAAAAAAAAAAAAAA",
"AAAAAAAAAAAAAAAAA..qqqqqqqqqjjjfffjjjjjjjjjpppAAAAAAAAAAAAAAAAAA",
"AAAAAAAAAAAAAAAA...qqqqqqccq9jfsssjjjjjjjjjpp>>AAAAAAAAAAAAAAAAA",
"AAAAAAAAAAAAAAAAAAAqqqqcccccajsdddddjjjjjjjjp>>AAAAAAAAAAAAAAAAA",
"AAAAAAAAAAAAAAAAAAAAqqqccccccdddddddddjjjjjg>>AAAAAAAAAAAAAAAAAA",
"AAAAAAAAAAAAAAAAAAAA#qcccccccdbvvvvvvddjjjjg>>AAAAAAAAAAAAAAAAAA",
"AAAAAAAAAAAAAAAAAAAAArccccccbbvvvvvvvjdjjjjg>>AAAAAAAAAAAAAAAAAA",
"AAAAAAAAAAAAAAAAAAA$$rsccccbbvvvvvvvvvjjjjg>>>AAAAAAAAAAAAAAAAAA",
"AAAAAAAAAAAAAAAAAA$$$ssscccbbBBBBvvvvvjjjjg>>AAAAAAAAAAAAAAAAAAA",
"AAAAAAAAAAAAAAAAAA$$sssssbbbBBBBBBZvvvjjjz<AAAAAAAAAAAAAAAAAAAAA",
"AAAAAAAAAAAAAAAA+++sssssbbbBBBBBBBBZvvjjjz<oAAAAAAAAAAAAAAAAAAAA",
"AAAAAAAAAAAAAAA++++sssssbbBBBBBBBBMZMMMMjz<oooAAAAAAAAAAAAAAAAAA",
"AAAAAAAAAAAAAAA++++sssssbbBBBBBBBMMMZMMMg<<;;oooAAAAAAAAAAAAAAAA",
"AAAAAAAAAAAAAAA++++sssssbbBBBVVBMMMMMMMMm5<;;;ooAAAAAAAAAAAAAAAA",
"AAAAAAAAAAAAAAA+++++sssssbBVVVVNMMMMMMMMm5;;;;;oAAAAAAAAAAAAAAAA",
"AAAAAAAAAAAAAAA++++++sssssxVVVVNMMMMMMMMm5;;;;;;;AAAAAAAAAAAAAAA",
"AAAAAAAAAAAAAAAA++++++ssssVVVVNNMMMMMMMMm;;;;;;;oAAAAAAAAAAAAAAA",
"AAAAAAAAAAAAAAAA+++++++772VVVVNNMMMMMMMMm;;;;;;AAAAAAAAAAAAAAAAA",
"AAAAAAAAAAAAAAAAA+++w+++=2zVVVNNMMMMMMMMm1;;;AAAAAAAAAAAAAAAAAAA"
};
