/* XPM */
static const char *ZW5lbXlfNA__[] = {
/* columns rows colors chars-per-pixel */
"64 64 60 1 ",
"  c #150606",
". c #180707",
"X c #1A0807",
"o c #1E0A08",
"O c #270D0A",
"+ c #2F100C",
"@ c #37120F",
"# c #3F110E",
"$ c #2D1410",
"% c #3E1610",
"& c #42100E",
"* c #401710",
"= c #451A11",
"- c #60160B",
"; c #7F1C07",
": c #5A2716",
"> c #6D331A",
", c #783A1C",
"< c #801C07",
"1 c #9D2203",
"2 c #AB2402",
"3 c #AC2402",
"4 c #B22601",
"5 c #BB2B01",
"6 c #C13703",
"7 c #C64106",
"8 c #CB4B08",
"9 c #CE5209",
"0 c #CF5209",
"q c #D35C0C",
"w c #D45C0C",
"e c #D9650E",
"r c #E07411",
"t c #E17411",
"y c #E17512",
"u c #E68117",
"i c #E68217",
"p c #E68218",
"a c #E7881A",
"s c #EC9823",
"d c #ED9F27",
"f c #EFA52B",
"g c #F1AB2E",
"h c #F5B936",
"j c #F9C83E",
"k c #FCD445",
"l c #FFDD4B",
"z c #FFDE4B",
"x c #FFEEA2",
"c c #FFF4C2",
"v c #FFF4C6",
"b c #FFF5C6",
"n c #FFF5C7",
"m c #FFF4C8",
"M c #FFF5C9",
"N c #FFF6CE",
"B c #FFF6CF",
"V c #FFFEFE",
"C c white",
"Z c None",
/* pixels */
"ZZZZZZZZZZZZZZZZZZZZZZZZZZZZZZZZZZZZZZZZZZZZZZZZZZZZZZZZZZZZZZZZ",
"ZZZZZZZZZZZZZZZZZZZZZZZZZZZZZZZZZZZZZZZZZZZZZZZZZZZZZZZZZZZZZZZZ",
"ZZZZZZZZZZZZZZZZZZZZZZZZZZZZZZZZZZZZZZ&&ZZZZZZZZZZZZZZZZZZZZZZZZ",
"ZZZZZZZZZZZZZZZZZZZZZZZZZZZZZZZZZZZZZ&&&&ZZZZZZZZZZZZZZZZZZZZZZZ",
"ZZZZZZZZZZZZZZZZZZZZZZZZZZZZZZZZZZZZZ&&&&ZZZZZZZZZZZZZZZZZZZZZZZ",
"ZZZZZZZZZZZZZZZZZZZZZZZZZZZZZZZZZZZZZZ&&&ZZZZZZZZZZZZZZZZZZZZZZZ",
"ZZZZZZZZZZZZZZZZZZZZZZZZZZZZZZZZZZZZZZZZZZZZZZZZZZZZZZZZZZZZZZZZ",
"ZZZZZZZZZZZZZZZZZZZZZZZZZZZZZZZZZZZZZZZZZZZZZZZZZZZZZZZZZZZZZZZZ",
"ZZZZZZZZZZZZZZZZZZZZZZZZZZZZZZZZZZZZZZZZZZZZZZZZZZZZZZZZZZZZZZZZ",
"ZZZZZZZZZZZZZZZZZZZZZZZZZZZZZZZZZZZZZZZZZZZZZZZZZZZZZZZZZZZZZZZZ",
"ZZZZZZZZZZZZZZZZZZZZZZZZZZZZZZZZZZZZZZZZZZZZZZZZZZZZZZZZZZZZZZZZ",
"ZZZZZZZZZZZZZZZZZZZZZZZZZZZZZZZZZZZZZZZZZZZZZZZZZZZZZZZZZZZZZZZZ",
"ZZZZZZZZZZZZZZZZZZZZZZZZZZZZZZZZZZZ$ZZZZZZZZZZZZZZZZZZZZZZZZZZZZ",
"ZZZZZZZZZZZZZZZZZZZZZZZZZZZZZZZZZ ZZZZZZZZZZZZZZZZZZZZZZZZZZZZZZ",
"ZZZZZZZZZZZZZZZZZZZZZZZZ.ZZZZZZZZZZZZZZZZZZZZZZZZZZZZZZZZZZZZZZZ",
"ZZZZZZZZZZZZZZZZZZZZZZZ....ZZZZZoZoZZZZZZZZZZZZZZZZZZZZZZZZZZZZZ",
"ZZZZZZZZZZZZZZZZZZZZZZZ.....Z.ZoooZZZZZZZZZZZZZZZZZZZZZZZZZZZZZZ",
"ZZZZZZZZZZZZZZZZZZZZZZZ..... ZZooooZZZZZZZZZZZZZZZZZZZZZZZZZZZZZ",
"ZZZZZZZZZZZZZZZZZZZZZZZZ.... .ZoooZZZZZZZZZZZZZZZZZZZZZZZZZZZZZZ",
"ZZZZZZZZZZZZZZZZZZZZZZZZ.....ZZoooZZZZZZZZZZZZZZZZZZZZZZZZZZZZZZ",
"ZZZZZZZZZZZZZZZZZZZZZZZZ.....ZooooZZZZZZZZZZZZZZZZZZZZZZZZZZZZZZ",
"ZZZZZZZZZZZZZZZZZZZZZZZZ.....ZOOooZZZZZZZZZZZZZZZZZZZZZZZZZZZZZZ",
"ZZZZZZZZZZZZZZZZZZZZZZZZZ....ZOOoZZZZZZZZZZZZZZZZZZZZZZZZZZZZZZZ",
"ZZZZZZZZZZZZZZZZZZZZZZZZZ....OOOoZZZZZZZZZZZZZZZZZZZZZZZZZZZZZZZ",
"ZZZZZZZZZZZZZZZZZZZZZZZZZ....OOOoZZO###ZZZZZZZZZZZZZZZZZZZZZZZZZ",
"ZZZZZZZZZZZZZZZZZZZZZZZZZ...OOOOoZOO###ZZZZZZZZZZZZZZZZZZZZZZZZZ",
"ZZZZZZZZZZZZZZZZZZZZZZZZ....OOOOZOOO##OZZZZZZZZZZZZZZZZZZZZZZZZZ",
"ZZZZZZZZZZZZZZZZZZZZZZZZ....OOOOZOOOOOZZZZZZZZZZZZZZZZZZZZZZZZZZ",
"ZZZZZZZZZZZZZZZZZZZZZZZZ....OOOOZ33333ZZZZZZZZZZZZZZZZZZZZZZZZZZ",
"ZZZZZZZZZZZZZZZZZZZZZZZZ....OOOO3333333ZZZZZZZZZZZZZZZZZZZZZZZZZ",
"ZZZZZZZZZZZZZZZZZZZZZZZZ....OOOO3333333ZZZZZZZZZZZZZZZZZZZZZZZZZ",
"ZZZZZZZZZZZZZZZZZZZZZZZZ...OOOOO3333333ZZZZZZZZZZZZZZZZZZZZZZZZZ",
"ZZZZZZZZZZZZZZZZZZZZZZZZ...OOOOO3333332.ZZZZZZZZZZZ@@ZZZZZZZZZZZ",
"ZZZZZZZZZZZZZZZZZZZZZZZZ...OO%O*3333332.ZZZZZZZZZZZ@@ZZZZZZZZZZZ",
"ZZZZZZZZZZZZZZZZZZZZZZZ....%%%***33332O.ZZZZZZZZZZZZZZZZZZZZZZZZ",
"ZZZZZZZZZZZZZZZZZZZZZZZ....%%%O*****OOO.ZZZZZZZZZZZZZZZZZZZZZZZZ",
"ZZZZZZZZZZZZZZZZZZZZZZZ...ZZ%%O*****OOO.ZZZZZZZZZZZZZZZZZZZZZZZZ",
"ZZZZZZZZZZZZZZZZZZZZZZ...ZX%%%O*****OOO.ZZZZZZZZZZZZZZZZZZZZZZZZ",
"ZZZZZZZZZZZZZZZZZZZZZZZZ.ZZ%%%O**1111OOO.ZZZZZZZZZZZZZZZZZZZZZZZ",
"ZZZZZZZZZZZZZZZZZZZZZZZZZZX%888*11wwwwq..ZZZZZZZZZZZZZZZZZZZZZZZ",
"ZZZZZZZZZZZZZZZZZZZZZZZZZ-8eeee77wwwwwwq.ZZZZZZZZZZZZZZZZZZZZZZZ",
"ZZZZZZZZZZZZZZZZZZZZZZZ$-eeeeeeeewwwwwwq.ZZZZZZZZZZZZZZZZZZZZZZZ",
"ZZZZZZZZZZZZZZZZZZZZZZZZ-eeeeeeeeewwwwww;<ZZZZZZZZZZZZZZZZZZZZZZ",
"ZZZZZZZZZZZZZZZZZZZZZZZZeeeeeeeeeeewwiiii<ZZZZyCyyZZZZZZZZZZZZZZ",
"ZZZZZZZZZZZZZZZZZZZZZZZ+eeeeeeeeeeeiiiiiiiiZZyCyyyyZZZZZZZZZZZZZ",
"ZZZZZZZZZZZZZZZZZZZZZ+++eeeeeeeeeeeiiiiiiiiZZCyyyyyZZZZZZZZZZZZZ",
"ZZZZZZZZZZZZZZZZZZZZ++++eeejjjjjjeiiiissssipCyyyyyyZZZZZZZZZZZZZ",
"ZZZZZZZZZZZZZZZZZZZ+++77dhhhhjjjjjiesssssssi6yyyyyyZZZZZZZZZZZZZ",
"ZZZZZZZZZZZZZZZZZ++++77hhhhhhhjjjjjsssssssss66yyyyZZZZZZZZZZZZZZ",
"ZZZZZZZZZZZZZZZ++++++7hhhhhhhhhhjjjgssssssss66666ZZZZZZZZZZZZZZZ",
"ZZZZZZZZZZZZZZZ++++++7hhhhhhhhhhjjjgsssssssss6666ZZZZZZZZZZZZZZZ",
"ZZZZZZZZZZZZZZZ++++++hhhhhhhhhhhjfhhhzzzassss666ZZZZZZZZZZZZZZZZ",
"ZZZZZZZZZZZZZZZZ+++++hhhhhhhhhhhfhzzzzzzzzsss666ZZZZZZZZZZZZZZZZ",
"ZZZZZZZZZZZZZZZZZZ++Zhhhhhhhhhhhzkzzzzzzzzsss655ZZZZZZZZZZZZZZZZ",
"ZZZZZZZZZZZZZZZZZZZZZhhhhhhhhhhBBBkzzzzzzzzs5555ZZZZZZZZZZZZZZZZ",
"ZZZZZZZZZZZZZZZZZZZZ::hhhhhhhBBBBBBkkzzzzzz05555ZZZZZZZZZZZZZZZZ",
"ZZZZZZZZZZZZZZZZZZZZ:::hhhhhhBBBBBMMMvvvzzz0055ZZZZZZZZZZZZZZZZZ",
"ZZZZZZZZZZZZZZZZZZZZ=::hhhhhBBBBMMMMMMvvzza00ZZZZZZZZZZZZZZZZZZZ",
"ZZZZZZZZZZZZZZZZZZZ==::::>kkBxxxMMMMMMMvvzyy0%ZZZZZZZZZZZZZZZZZZ",
"ZZZZZZZZZZZZZZZZZZ=====:::kkBxxMMMMMMMMvvayy0%%%ZZZZZZZZZZZZZZZZ",
"ZZZZZZZZZZZZZZZZZZ========cccxxMMMMMMMMvayyy0%%%ZZZZZZZZZZZZZZZZ",
"ZZZZZZZZZZZZZZZZZ=========cccxxMccccMMMvyyyy%%%%%%ZZZZZZZZZZZZZZ",
"ZZZZZZZZZZZZZZZZZ========ccccxxcccccMMMyyyy4,,%%%%ZZZZZZZZZZZZZZ",
"ZZZZZZZZZZZZZZZZZ========ccccCxCcccccM44444,,,%%%ZZZZZZZZZZZZZZZ"
};
