/* XPM */
static const char *ZW5lbXlfMTE_[] = {
/* columns rows colors chars-per-pixel */
"64 64 91 1 ",
"  c #150606",
". c #1B0807",
"X c #1C0908",
"o c #1D0908",
"O c #1D0A08",
"+ c #200A09",
"@ c #210A09",
"# c #210B09",
"$ c #220B09",
"% c #270D0A",
"& c #2E100C",
"* c #2F110C",
"= c #32120D",
"- c #33120D",
"; c #36120F",
": c #37140E",
"> c #39120F",
", c #3F110E",
"< c #41100E",
"1 c #42100E",
"2 c #48110D",
"3 c #49110D",
"4 c #5F150B",
"5 c #431911",
"6 c #441911",
"7 c #441A12",
"8 c #6B1809",
"9 c #6C1909",
"0 c #6C190A",
"q c #7C1B07",
"w c #7D1C07",
"e c #612B17",
"r c #622C17",
"t c #622C18",
"y c #622D19",
"u c #652E18",
"i c #6C321A",
"p c #881D06",
"a c #891E06",
"s c #8C1E05",
"d c #8D1F05",
"f c #B32601",
"g c #B32701",
"h c #BB2B01",
"j c #CD5109",
"k c #CE5109",
"l c #D2570B",
"z c #D2580B",
"x c #D7640D",
"c c #D8640D",
"v c #D8650D",
"b c #DB6B0F",
"n c #DB6C0F",
"m c #DC6C0F",
"M c #DC6E10",
"N c #DD6E10",
"B c #E48016",
"V c #E58116",
"C c #E78B1D",
"Z c #E78C1D",
"A c #E78C1E",
"S c #E88B1D",
"D c #E88C1D",
"F c #E88C1E",
"G c #EC9E27",
"H c #EC9F27",
"J c #ED9F27",
"K c #EFA62C",
"L c #F0A72C",
"P c #F1AE2F",
"I c #F1AE30",
"U c #F3B232",
"Y c #F6BF39",
"T c #F7C23B",
"R c #F7C33B",
"E c #FEDD4A",
"W c #FEE163",
"Q c #FEE263",
"! c #FEE264",
"~ c #FFE364",
"^ c #FFE56C",
"/ c #FFE77A",
"( c #FEE780",
") c #FFE880",
"_ c #FFEA8B",
"` c #FFEE9F",
"' c #FEFDFD",
"] c #FEFEFD",
"[ c #FFFEFD",
"{ c white",
"} c None",
/* pixels */
"}}}}}}}}}}}}}}}}}}}}}}}}}}}}}}}}}}}}}}}}}}}}}}}}}}}}}}}}}}}}}}}}",
"}}}}}}}}}}}}}}}}}}}}}}}}}}}}}}}}}}}}}}}}}}}}}}}}}}}}}}}}}}}}}}}}",
"}}}}}}}}}}}}}}}}}}}}}}}}}}}}}}}}}}}}}}}}}}}}}}}}}}}}}}}}}}}}}}}}",
"}}}}}}}}}}}}}}}}}}}}}}}}}}}}}}}}}}}}}}}}}}}}}}}}}}}}}}}}}}}}}}}}",
"}}}}}}}}}}}}}}}}}}}}}}}}}}}}}}}}}}}}}}}}}}}}}}}}}}}}}}}}}}}}}}}}",
"}}}}}}}}}}}}}}}}}}}}}}}}}}}}}}}}}}}}}}}}}}}}}}}}}}}}}}}}}}}}}}}}",
"}}}}}}}}}}}}}}}}}}}}}}}}}}}}}}}}}}}}}}}}}}}}}}}}}}}}}}}}}}}}}}}}",
"}}}}}}}}}}}}}}}}}}}}}}}}}}}}}}}}}}}}}}}}}}}}}}}}}}}}}}}}}}}}}}}}",
"}}}}}}}}}}}}}}}}}}}}}}}}}}}}}}}}}}}}}}}}}}}}}}}}}}}}}}}}}}}}}}}}",
"}}}}}}}}}}}}}}}}}}}}}}}}}}}}}}}}}}}}}}}}}}}}}}}}}}}}}}}}}}}}}}}}",
"}}}}}}}}}}}}}}}}}}}}}}}}}}}}}}}}}}}}}}}}}}}}}}}}}}}}}}}}}}}}}}}}",
"}}}}}}}}}}}}}}}}}}}}}}} }}}}}}}}}}}}}}}}}}}}}}}}}}}}}}}}}}}}}}}}",
"}}}}}}}}}}}}}}}}}}}}}}}}}}}}}}}}}}}}}}}}}}}}}}}}}}}}}}}}}}}}}}}}",
"}}}}}}}}}}}}}}}}}}}}}}}}}}}  }}}}}}}}}}}}}}}}}}}}}}}}}}}}}}}}}}}",
"}}}}}}}}}}}}}}}}}}}}}}}}}}   }}}}}}}}}}}}}}}}}}}}}}}}}}}}}}}}}}}",
"}}}}}}}}}}}}}}}}}}}}}}}}}}}   }}}}.  }}}}}}}}}}}}}}}}}}}}}}}}}}}",
"}}}}}}}}}}}}}}}}}}}}}}}}}}    }}....}}}}}}}}}}}}}}}}}}}}}}}}}}}}",
"}}}}}}}}}}}}}}}}}}}}}}}}}}}   }}....}}}}}}}}}}}}}}}}}}}}}}}}}}}}",
"}}}}}}}}}}}}}}}}}}}}}}}}}}    }.......}}}}}}}}}}}}}}}}}}}}}}}}}}",
"}}}}}}}}}}}}}}}}}}}}}}}}}}   }}......}}}}}}}}}}}}}}}}}}}}}}}}}}}",
"}}}}}}}}}}}}}}}{}}}}}}}}}}   }.......}}}}}}}}}}}}}}}}}}}}}}}}}}}",
"}}}}}}}}}}}}}}}}}}}}}}}}}}    .%%....}}}}}}}}}}}}}}}}}}}}}}}}}}}",
"}}}}}}}}}}}}}}}}{}}}}}}}}}   }.%,,,.}}}}}}}}}}}}}}}}}}}}}}}}}}}}",
"}}}}}}}}}}}}}}}}}{}}}}}}}}   }.%,,,,}}}}}}}}}}}}}}}}}}}}}}}}}}}}",
"}}}}}}}}}}}}}}}}}}{}}}}}}}  }}%%,,,.},,,}}}}}}}}}}}}}}}}}}}}}}}}",
"}}}}}}}}}}}}}}}}}}}{}}}}}}   :%%%,.}},,,}}}}}}}}}}}}}}}}}}}}}}}}",
"}}}}}}}}}}}}}}}}}}}hh2222}   ::%%%.}},,}}}}}}}}}}}}}888}}}}}}}}}",
"}}}}}}}}}}}}}}}}}}hhh22222   ::%%%.}}}}}}}}}}}}}}}}}888}}}}}}}}}",
"}}}}}}}}}}}}}}}}}}hhh22222   ::%%%}}}}}}}}}}}}}}}}}}888}}}}}}}}}",
"}}}}}}}}}}}}}}}}}}hhh2222h  ::=%%.}}}}}}}}}}}}}}}}}}}}}}}}}}}}}}",
"}}}}}}}}}}}}}}}}}}hhhh22hh  ::=%%}}}}}}}}}}}}}}}}}}}}}}}}}}}}}}}",
"}}}}}}}}}}}}}}}}}}hhhhhhh  :===%%}}}}}}}}}}}}}}}}}}}}}}}}}}}}}}}",
"}}}}}}}}}}}}}}}}}}}hhhhhh  :===%@}}}}}}}}}}}}}}}}}}}}}}}}}}}}}}}",
"}}}}}}}}}}}}}}}}}}}}hhh    :==FFFFFSqqq}}}}}}}}}}}}}}}}}}}}}}}}}",
"}}}}}}}}}}}}}}}}}}}}}}}    ==FFFFFFFSqqq}}}}}}}}}}}}}}}}}}}}}}}}",
"}}}}}}}}}}}}}}}}}}}}}}}   @kkFFFFFFFSqqqq}}}}}}}}}}}}}}}}}}}}}}}",
"}}}}}}}}}}}}}}}}}}}}}}  <kkkkFFFFFFFFSqqq}}}}}}}}}}}}}}}}}}}}}}}",
"}}}}}}}}}}}}}}}}}}}}}}  <kkkkFFFFFFFFSqqq}}}}}}}}}}}}}}}}}}}}}}}",
"}}}}}}}}}}}}}}}}}}}}}}  kkkkkFFFFFFFFCqwmmmm}}}}}}}}}}}}}}}}}}}}",
"}}}}}}}}}}}}}}}}}}}}}   kkkkkFFFFFFFSqmmmmmmmm}}}}}}}}}}}}}}}}}}",
"}}}}}}}}}}}}}}}}}}}}}   kkkkkkNNNNFCC}mmmmmmmm}}}}}}}}}}}}}}}}}}",
"}}}}}}}}}}}}}}}}}}}}}  }@kkkkNNNNNN<<mmmmmmmmmm}}}}}}}}}}}}}}}}}",
"}}}}}}}}}}}}}}}}}}}}}FF}@6kkkNNNNNNNpmmmmmmmmmm}}}}}}}}}}}}}}}}}",
"}}}}}}}}}}}}}}}}}}}FFFF{Zt55dNNNNNNNpmmmmmmmmmm}}}}}}}}}}}}}}}}}",
"}}}}}}}}}}}}}}}}}}}FFFFF{t55dNNNNNNNVmmmmmmmmmm}}}}}}}}}}}}}}}}}",
"}}}}}}}}}}}}}}}}}}FFFFFFF{65dVNNNNNVVVmmmmmmmm}}}}}}}}}}}}}}}}}}",
"}}}}}}}}}}}}}}}}}}SFFFFFC9{5dVVlllzVVVmnmmmmmm}}}}}}}}}}}}}}}}}}",
"}}}}}}}}}}}}}}}}}}}FFFFFC8x@VPPPPRRRzVV2mnnb}}}}}}}}}}}}}}}}}}}}",
"}}}}}}}}}}}}}}}}}}}ZCCCCC9cPPPPRRRRRRzV2};;;}}}}}}}}}}}}}}}}}}}}",
"}}}}}}}}}}}}}}}}}}}t48889ccPPPPRRRRRRRlN}>;;}}}}}}}}}}}}}}}}}}}}",
"}}}}}}}}}}}}}}}}}}}}4cccccPI______PPRRlN}>>>}}}}}}}}}}}}}}}}}}}}",
"}}}}}}}}}}}}}}}}}}}}@fccUUP________PPRlN}>>>}}}}}}}}}}}}}}}}}}}}",
"}}}}}}}}}}}}}}}}}}@@effUUYY____//////JJN}}}}}}}}}}}}}}}}}}}}}}}}",
"}}}}}}}}}}}}}}}}}@eeefUUYYY___////////JJ}}}}}}}}}}}}}}}}}}}}}}}}",
"}}}}}}}}}}}}}}}}}@eeerUYYYY___////////JJJ}}}}}}}}}}}}}}}}}}}}}}}",
"}}}}}}}}}}}}}}}}X@@@NNUYYYY_______/////JJ }}}}}}}}}}}}}}}}}}}}}}",
"}}}}}}}}}}}}}}}XXXX@NNNYYYY________////~J** }}}}}}}}}}}}}}}}}}}}",
"}}}}}}}}}}}}}}}XXXXNNNNYYEEE_______////~~**** }}}}}}}}}}}}}}}}}}",
"}}}}}}}}}}}}}}}XXuuNNNNYE))))______///~~~~*****}}}}}}}}}}}}}}}}}",
"}}}}}}}}}}}}}}}}XuuNNNNY)))))______///~~~~*****}}}}}}}}}}}}}}}}}",
"}}}}}}}}}}}}}}}}XuuNNNNY)))^^^____//~~~~~~******}}}}}}}}}}}}}}}}",
"}}}}}}}}}}}}}}}}XuuuNNNN)))^^^^^^^``~~~~~W*******}}}}}}}}}}}}}}}",
"}}}}}}}}}}}}}}}}}XuuNNNN))^^^^^^^^^``~~~Wii*****}}}}}}}}}}}}}}}}",
"}}}}}}}}}}}}}}}}}}}XXNNN()^^^^^^^^^```LLKiii*}}}}}}}}}}}}}}}}}}}"
};
