/* XPM */
static const char *ZW5lbXlfOQ__[] = {
/* columns rows colors chars-per-pixel */
"64 64 49 1 ",
"  c #150606",
". c #1A0807",
"X c #200A09",
"o c #250C0A",
"O c #2A0E0B",
"+ c #2C0F0B",
"@ c #2F100C",
"# c #32120D",
"$ c #39140E",
"% c #3D160F",
"& c #48110D",
"* c #4C120D",
"= c #53130C",
"- c #57140C",
"; c #411810",
": c #4B1E12",
"> c #6B1809",
", c #7C1B07",
"< c #612B17",
"1 c #71351B",
"2 c #783A1C",
"3 c #7B3B1D",
"4 c #821C07",
"5 c #9A2104",
"6 c #A22303",
"7 c #AD2501",
"8 c #B12501",
"9 c #C53F05",
"0 c #CA4807",
"q c #CB4B08",
"w c #DD6E10",
"e c #EB9622",
"r c #EC9924",
"t c #F0A72C",
"y c #F3B232",
"u c #F5B936",
"i c #F6BF39",
"p c #FCD545",
"a c #FDD847",
"s c #FEDF50",
"d c #FFE050",
"f c #FFE25B",
"g c #FFE364",
"h c #FFE77A",
"j c #FFE880",
"k c #FFED98",
"l c #FFEEA2",
"z c white",
"x c None",
/* pixels */
"xxxxxxxxxxxxxxxxxxxxxxxxxxxxxxxxxxxxxxxxxxxxxxxxxxxxxxxxxxxxxxxx",
"xxxxxxxxxxxxxxxxxxxxxxxxxxxxxxxxxxxxxxxxxxxxxxxxxxxxxxxxxxxxxxxx",
"xxxxxxxxxxxxxxxxxxxxxxxxxxxxxxxxxxxxxxxxxxxxxxxxxxxxxxxxxxxxxxxx",
"xxxxxxxxxxxxxxxxxxxxxxxxxxxxxxxxxxxxxxxxxxxxxxxxxxxxxxxxxxxxxxxx",
"xxxxxxxxxxxxxxxxxxxxxxxxxxxxxxxxxxxxxxxxxxxxxxxxxxxxxxxxxxxxxxxx",
"xxxxxxxxxxxxxxxxxxxxxxxxxxxxxxxxxxxxxxxxxxxxxxxxxxxxxxxxxxxxxxxx",
"xxxxxxxxxxxxxxxxxxxxxxxxxxxxxxxxxxxxxxxxxxxxxxxxxxxxxxxxxxxxxxxx",
"xxxxxxxxxxxxxxxxxxxxxxxxxxxxxxxxxxxxxxxxxxxxxxxxxxxxxxxxxxxxxxxx",
"xxxxxxxxxxxxxxxxxxxxxxxxxxxxxxxxxxxxxxxxxxxxxxxxxxxxxxxxxxxxxxxx",
"xxxxxxxxxxxxxxxxxxxxxxxxxxxxxxxx  xxxxxxxxxxxxxxxxxxxxxxxxxxxxxx",
"xxxxxxxxxxxxxxxxxxxxxxxx xxxxxxx xxxxxxxxxxxxxxxxxxxxxxxxxxxxxxx",
"xxxxxxxxxxxxxxxxxxxxxxx    xxxxxx xxxxxxxxxxxxxxxxxxxxxxxxxxxxxx",
"xxxxxxxxxxxxxxxxxxxxxxxx   xxxxxxxxxxxxxxxxxxxxxxxxxxxxxxxxxxxxx",
"xxxxxxxxxxxxxxxxxxxxxxxx   xxx  xxxxxxxxxxxxxxxxxxxxxxxxxxxxxxxx",
"xxxxxxxxxxxxxxxxxxxxxxxxx   x   xxxxxxxxxxxxxxxxxxxxxxxxxxxxxxxx",
"xxxxxxxxxxxxxxxxxxxxxxxxx  xxx   xxxxxxxxxxxxxxxxxxxxxxxxxxxxxxx",
"xxxxxxxxxxxxxxxxxxxxxxxxxxxxxX  xxxxxxxxxxxxxxxxxxxxxxxxxxxxxxxx",
"xxxxxxxxxxxxxxxxxxxxxxxxxxxxXXX xxx   xxxxxxxxxxxxxxxxxxxxxxxxxx",
"xxxxxxxxxxxxxxxxxxxxxxxxxxxXXX  xooo xxxxxxxxxxxxxxxxxxxxxxxxxxx",
"xxxxxxxxxxxxxxxxxxxxxxxxxxxXXX ooooooxxxxxxxxxxxxxxxxxxxxxxxxxxx",
"xxxxxxxxxxxxxxxxxxxxxxxxxxxXXXXooooooxxxxxxxxxxxxxxxxxxxxxxxxxxx",
"xxxxxxxxxxxxxxxxxxxxxxxxxxxXXXxxoo==oxxxxxxxxxxxxxxxxxxxxxxxxxxx",
"xxxxxxxxxxxxxxxxxxxxxxxxxxxXXXxxo====xxxxxxxxxxxxxxxxxxxxxxxxxxx",
"xxxxxxxxxxxxxxxxxxxxxxxxxxXXXXxo=====xxxxxxxxxxxxxxxxxxxxxxxxxxx",
"xxxxxxxxxxxxxxxxxxxxxxxxxxXXXXxo=====xxxxxxxxxxxxxxxxxxxxxxxxxxx",
"xxxxxxxxxxxxxxxxxxxxxxxxxxXXXXo##====xxxxxxxxxxxxxxxxxxxxxxxxxxx",
"xxxxxxxxxxxxxxxxxxxxxxxxxxXXXXo##oooxx>xxxxxxxxxxxxxxxxxxxxxxxxx",
"xxxxxxxxxxxxxxxxxxxxxxxxxxXXXXo##ooox>>>>xxxxxxxxxxxxxxxxxxxxxxx",
"xxxxxxxxxxxxxxxxxxxxxxxxx,,XX.###ooo>>>>>xxxxxxxxxxxxxxxxxxxxxxx",
"xxxxxxxxxxxxxxxxxxxxxxx,,,,,Xx####oxx>>>>xxxxxxxxxxx5xxxxxxxxxxx",
"xxxxxxxxxxxxxxxxxxxxxxx,,,,,,.####oxx>>>xxxxxxxxxxx555xxxxxxxxxx",
"xxxxxxxxxxxxxxxxxxxxxx,,,,,,,;;###oxxxxxxxxxxxxxxx55555xxxxxxxxx",
"xxxxxxxxxxxxxxxxxxxxxx,,,,,,,q;###xxxxxxxxxxxxxxxxx555xxxxxxxxxx",
"xxxxxxxxxxxxxxxxxxxxxqq,,,z,,q;###oxxxxxxxxxxxxxxxxx5xxxxxxxxxxx",
"xxxxxxxxxxxxxxxxxxxxxqqq,,,zqq%%#O xxxxxxxxxxxxxxxxxxxxxxxxxxxxx",
"xxxxxxxxxxxxxxxxxxxxxqqqqqqwzw%%#O xxx888xxxxxxxxxxxxxxxxxxxxxxx",
"xxxxxxxxxxxxxxxxxxxxxxqqqwwwzwww#OOO888888xxxxxxxxxxxxxxxxxxxxxx",
"xxxxxxxxxxxxxxxxxxxxxxqqqwwwwzyyyyyO8888888xxxxxxxxxxxxxxxxxxxxx",
"xxxxxxxxxxxxxxxxxxxxx  qwwwwwyzyyyyy8888888xxxxxxxxxxxxxxxxxxxxx",
"xxxxxxxxxxxxxxxxxxxxx   wwwwyyyyyyyyy888888xxxxxxxxxxxxxxxxxxxxx",
"xxxxxxxxxxxxxxxxxxxx    wwwwyyyyyyyyy8888wwwxxxxxxxxxxxxxxxxxxxx",
"xxxxxxxxxxxxxxxxxxx      wwwyyyyyyyyy8ttttwwwwxxxxxxxxxxxxxxxxxx",
"xxxxxxxxxxxxxxxxx      777wwyyyyyyyytttttttwwwxxxxxxxxxxxxxxxxxx",
"xxxxxxxxxxxxxxxxx    777777wyyyyyyytttttttttwwwxxxxxxxxxxxxxxxxx",
"xxxxxxxxxxxxxxxx     77777777yyrrrrtttttttttwwwxxxxxxxxxxxxxxxxx",
"xxxxxxxxxxxxxxxx    7777777777rrrrtttttttttttwwxxxxxxxxxxxxxxxxx",
"xxxxxxxxxxxxxxxxx   77iiiiii77rrrrtttttttttttwxxxxxxxxxxxxxxxxxx",
"xxxxxxxxxxxxxxxxxxxx77iiiiii69eeeeeeettttttttwxxxxxxxxxxxxxxxxxx",
"xxxxxxxxxxxxxxxxxxxx47iiiiiiieeppppeeettttttt&xxxxxxxxxxxxxxxxxx",
"xxxxxxxxxxxxxxxxxxxx44iiiiiiepzppppppeettttt&&xxxxxxxxxxxxxxxxxx",
"xxxxxxxxxxxxxxxxxxx+22iiiiiiappzpppppeettttt**xxxxxxxxxxxxxxxxxx",
"xxxxxxxxxxxxxxxxxxxx@@iiiiihhhhpzpppppettt****xxxxxxxxxxxxxxxxxx",
"xxxxxxxxxxxxxxxxxx@@@10riihhhhhhzpppppttrr***xxxxxxxxxxxxxxxxxxx",
"xxxxxxxxxxxxxxxxxx@@@rrrrhhhhhhhhzkjjjttruxxxxxxxxxxxxxxxxxxxxxx",
"xxxxxxxxxxxxxxxxxo@@rrrrhhhhhhhhhdzdddddtuXXxxxxxxxxxxxxxxxxxxxx",
"xxxxxxxxxxxxxxxoooo@rrrrhhhhhhhhddddddddtu-XXXxxxxxxxxxxxxxxxxxx",
"xxxxxxxxxxxxxxxoooorrrrrhhhhhllddddddddddu-%XXXXxxxxxxxxxxxxxxxx",
"xxxxxxxxxxxxxxxoooorrrrrhhhllllddddddddddd-%%%XXXxxxxxxxxxxxxxxx",
"xxxxxxxxxxxxxxxooOOrrrrrrhhlllgddddddddddd%%%%%XXxxxxxxxxxxxxxxx",
"xxxxxxxxxxxxxxxOOOOrrrrrrhllllgddddddddddd%%%%%%Xxxxxxxxxxxxxxxx",
"xxxxxxxxxxxxxxxxoOoOrrrrrrllllgdddddddddds%%%%%%%xxxxxxxxxxxxxxx",
"xxxxxxxxxxxxxxxxooo22rrrrrllllgdddddddddd%%%%%%%xxxxxxxxxxxxxxxx",
"xxxxxxxxxxxxxxxxxooo2rrrrrulllldddddddddd:%%%%xxxxxxxxxxxxxxxxxx",
"xxxxxxxxxxxxxxxxxxooooo$$<uulllggdddddddf:::xxxxxxxxxxxxxxxxxxxx"
};
