/* XPM */
static const char *ZW5lbXlfMw__[] = {
/* columns rows colors chars-per-pixel */
"64 64 52 1 ",
"  c #150606",
". c #180707",
"X c #1F0A08",
"o c #200A09",
"O c #240C09",
"+ c #2A0E0B",
"@ c #2C0F0B",
"# c #2E100C",
"$ c #32130F",
"% c #34130F",
"& c #3F110E",
"* c #211611",
"= c #271510",
"- c #4C120D",
"; c #53130C",
": c #481C12",
"> c #6B1809",
", c #7F1C07",
"< c #4F2013",
"1 c #652E18",
"2 c #942004",
"3 c #B32601",
"4 c #BB2B01",
"5 c #C53F05",
"6 c #85411F",
"7 c #CD4E09",
"8 c #CE5109",
"9 c #D65F0C",
"0 c #DB6C0F",
"q c #DC6C0F",
"w c #DD6E10",
"e c #E17411",
"r c #E47C14",
"t c #E88B1D",
"y c #E88C1D",
"u c #EB9622",
"i c #EC9924",
"p c #F0A72C",
"a c #F3B433",
"s c #F6BF39",
"d c #F7C33B",
"f c #F8C73E",
"g c #FDD747",
"h c #FDD847",
"j c #FEDA48",
"k c #FEDD4A",
"l c #FFE673",
"z c #FFE674",
"x c #FFE986",
"c c #FFFFFE",
"v c white",
"b c None",
/* pixels */
"bbbbbbbbbbbbbbbbbbbbbbbbbbbbbbbbbbbbbbbbbbbbbbbbbbbbbbbbbbbbbbbb",
"bbbbbbbbbbbbbbbbbbbbbbbbbbbbbbbbbbbbbbbbbbbbbbbbbbbbbbbbbbbbbbbb",
"bbbbbbbbbbbbbbbbbbbbbbbbbbbbbbbbbbbbbbbbbbbbbbbbbbbbbbbbbbbbbbbb",
"bbbbbbbbbbbbbbbbbbbbbbbbbbbbbbbbbbbbbb;bbbbbbbbbbbbbbbbbbbbbbbbb",
"bbbbbbbbbbbbbbbbbbbbbbbbbbbbbbbbbbbbb;;;;bbbbbbbbbbbbbbbbbbbbbbb",
"bbbbbbbbbbbbbbbbbbbbbbbbbbbbbbbbbbbb;;;;;bbbbbbbbbbbbbbbbbbbbbbb",
"bbbbbbbbbbbbbbbbbbbbbbbbbbbbbbbbbbbbb;;;;bbbbbbbbbbbbbbbbbbbbbbb",
"bbbbbbbbbbbbbbbbbbbbbbbbbbbbbbbbbbbbb;;;bbbbbbbbbbbbbbbbbbbbbbbb",
"bbbbbbbbbbbbbbbbbbbbbbbbbbbbbbbbbbbbbbbbbbbbbbbbbbbbbbbbbbbbbbbb",
"bbbbbbbbbbbbbbbbbbbbbbbbbbbbbbbbbbbbbbbbbbbbbbbbbbbbbbbbbbbbbbbb",
"bbbbbbbbbbbbbbbbbbbbbbbbbbbbbbbbbbbbbbbbbbbbbbbbbbbbbbbbbbbbbbbb",
"bbbbbbbbbbbbbbbbbbbbbbbbbbbbbbbbbbbbbbbbbbbbbbbbbbbbbbbbbbbbbbbb",
"bbbbbbbbbbbbbbbbbbbbbbbbbbbbbbbbbbbbbbbbbbbbbbbbbbbbbbbbbbbbbbbb",
"bbbbbbbbbbbbbbbbbbbbbbbbbbbbbbbbb bbbbbbbbbbbbbbbbbbbbbbbbbbbbbb",
"bbbbbbbbbbbbbbbbbbbbbbbbbbbbbbbbbb$$bbbbbbbbbbbbbbbbbbbbbbbbbbbb",
"bbbbbbbbbbbbbbbbbbbbbbbbbbbbbbbb  $bbbbbbbbbbbbbbbbbbbbbbbbbbbbb",
"bbbbbbbbbbbbbbbbbbbbbbbbbbbbb bOOObbbbbbbbbbbbbbbbbbbbbbbbbbbbbb",
"bbbbbbbbbbbbbbbbbbbbbbbbXbb  bbOOObbbbbbbbbbbbbbbbbbbbbbbbbbbbbb",
"bbbbbbbbbbbbbbbbbbbbbbbbbXX   OOOObbbbbbbbbbbbbbbbbbbbbbbbbbbbbb",
"bbbbbbbbbbbbbbbbbbbbbbbbbXX  bOOObbbbbbbbbbbbbbbbbbbbbbbbbbbbbbb",
"bbbbbbbbbbbbbbbbbbbbbbbbbXX  bOOOObbbbbbbbbbbbbbbbbbbbbbbbbbbbbb",
"bbbbbbbbbbbbbbbbbbbbbbbbbXX  bOOOObbbbbbbbbbbbbbbbbbbbbbbbbbbbbb",
"bbbbbbbbbbbbbbbbbbbbbbbbbXX  O@OObbbbbbbbbbbbbbbbbbbbbbbbbbbbbbb",
"bbbbbbbbbbbbbbbbbbbbbbbbbX   b@@Obbbbbbbbbbbbbbbbbbbbbbbbbbbbbbb",
"bbbbbbbbbbbbbbbbbbbbbbbbbX   b@@Obbbbbbbbbbbbbbbbbbbbbbbbbbbbbbb",
"bbbbbbbbbbbbbbbbbbbbbbbbbXX X@@@Obbb---bbbbbbbbbbbbbbbbbbbbbbbbb",
"bbbbbbbbbbbbbbbbbbbbbbbbXXX @@@@bbbb----bbbbbbbbbbbbbbbbbbbbbbbb",
"bbbbbbbbbbbbbbbbbbbbbbbbXX X@@@@bbbb----bbbbbbbbbbbbbbbbbbbbbbbb",
"bbbbbbbbbbbbbbbbbbbbbbbbXXXX@@@@bbbbb--bbbbbbbbbbbbbbbbbbbbbbbbb",
"bbbbbbbbbbbbbbbbbbbbbbbbXXXX@@@@44444bbbbbbbbbbbbbbbbbbbbbbbbbbb",
"bbbbbbbbbbbbbbbbbbbbbbbbXXXX@@@4444444bbbbbbbbbbbbbbbbbbbbbbbbbb",
"bbbbbbbbbbbbbbbbbbbbbbbbXXX+@@@44444444bbbbbbbbbbbbbbbbbbbbbbbbb",
"bbbbbbbbbbbbbbbbbbbbbbbbXXX+@@@44444444bbbbbbbb*bbb&bbbbbbbbbbbb",
"bbbbbbbbbbbbbbbbbbbbbbbbXXX+@@@44444444bbbbbbbbbbb&&&bbbbbbbbbbb",
"bbbbbbbbbbbbbbbbbbbbbbbXXXX+@@@4444444XXbbbbbbbbbbb&&bbbbbbbbbbb",
"bbbbbbbbbbbbbbbbbbbbbbbXXXX::@@.444444#Xbbbbbbbbbbbbbbbbbbbbbbbb",
"bbbbbbbbbbbbbbbbbbbbbbbXXXoX:+@::444###Xbbbbbbbbbbbbbbbbbbbbbbbb",
"bbbbbbbbbbbbbbbbbbbbbbXXXXo@:+@:::333##Xb=bbbbbbbbbbbbbbbbbbbbbb",
"bbbbbbbbbbbbbbbbbbbbbbbXXXX:::@::33333##XXbbbbbbbbbbbbbbbbbbbbbb",
"bbbbbbbbbbbbbbbbbbbbbbXXXX,,,:.:3333333#XXbbbbbbbbbbbbbbbbbbbbbb",
"bbbbbbbbbbbbbbbbbbbbbb%%b,,999>:3333333#XXbbbbbbbbbbbbbbbbbbbbbb",
"bbbbbbbbbbbbbbbbbbbbbb%b,999999944eeeee#XXbbbbbbbbbbbbbbbbbbbbbb",
"bbbbbbbbbbbbbbbbbbbbbbbb,9999rrrreeeeeeeXXXbbbbbbbbbbbbbbbbbbbbb",
"bbbbbbbbbbbbbbbbbbbbbbbb999rrrrrrreeeeeee2Xbbbbbbbbbbbbbbbbbbbbb",
"bbbbbbbbbbbbbbbbbbbbbbbb99rrrrrrrrrriiiie2bbbbbbbbbbbbbbbbbbbbbb",
"bbbbbbbbbbbbbbbbbbbbbbb%99rrrrrrrriiiiiiiiXbbbyyybbbbbbbbbbbbbbb",
"bbbbbbbbbbbbbbbbbbbbb8888rrrrrrrrriiiiiiiii77yyyyybbbbbbbbbbbbbb",
"bbbbbbbbbbbbbbbbbbb%88888rrrrrrrriiiiiiiiiv7yyyyyybbbbbbbbbbbbbb",
"bbbbbbbbbbbbbbbbbb%%88888rfffjjjjiiiiiiiivi7yyyyyybbbbbbbbbbbbbb",
"bbbbbbbbbbbbbbbbbb%%8888ffffjjjjjjrrrraavai7yyyyyybbbbbbbbbbbbbb",
"bbbbbbbbbbbbbbbb%%%%888fffkkkkjjjjjdaaaaaaa77yyyttbbbbbbbbbbbbbb",
"bbbbbbbbbbbbbbbb%%%%%88ffkkkkkkkjsssssaaaaaa7777bbbbbbbbbbbbbbbb",
"bbbbbbbbbbbbbbbb%%%%%%ffkkkkkkkkkssssssppaaa7777bbbbbbbbbbbbbbbb",
"bbbbbbbbbbbbbbbb%%%%%%fkkkkkkkkkkkskkkkkppaaa775bbbbbbbbbbbbbbbb",
"bbbbbbbbbbbbbbbbbbbbbbfkkkkkkkkkkkkxxxxxkpaaa555bbbbbbbbbbbbbbbb",
"bbbbbbbbbbbbbbbbbbbbb1fkkkkkkkkkkkxxxxxxxppaa555bbbbbbbbbbbbbbbb",
"bbbbbbbbbbbbbbbbbbbb111kkkkkkkkkkkllxxxxxxpua55bbbbbbbbbbbbbbbbb",
"bbbbbbbbbbbbbbbbbbbbb111kkkkkkkkkllllxxxxxpuqbbbbbbbbbbbbbbbbbbb",
"bbbbbbbbbbbbbbbbbbbbb111kkkkkkkkkllllxxxxxpuubbbbbbbbbbbbbbbbbbb",
"bbbbbbbbbbbbbbbbbbb<<<<<<kkkkkkklllllxxxxppuu:bbbbbbbbbbbbbbbbbb",
"bbbbbbbbbbbbbbbbbbb<<<<<<<kkkklllllllxxxxpuuq:::bbbbbbbbbbbbbbbb",
"bbbbbbbbbbbbbbbbbbb<<<<<<<wllllllllllxxhppuuq::::bbbbbbbbbbbbbbb",
"bbbbbbbbbbbbbbbbbb<<<<<<<44xlllllzzllhhpuuqqq::::bbbbbbbbbbbbbbb",
"bbbbbbbbbbbbbbbbbb<<<<<<<444lvvvvvvlhggqq0006::::bbbbbbbbbbbbbbb"
};
