/* XPM */
static char *wall1711326195[] = {
/* columns rows colors chars-per-pixel */
"64 64 164 2 ",
"   c #23150E",
".  c #2D241C",
"X  c #34261F",
"o  c #342720",
"O  c #392722",
"+  c #362A22",
"@  c #3B2D23",
"#  c #352E2B",
"$  c #3C2F28",
"%  c #3F3226",
"&  c #37312D",
"*  c #39322D",
"=  c #373432",
"-  c #3A3532",
";  c #3E3833",
":  c #3D3B3A",
">  c #42342C",
",  c #47382A",
"<  c #4A3A2B",
"1  c #473830",
"2  c #4B3C33",
"3  c #423E3C",
"4  c #44423E",
"5  c #4B483E",
"6  c #544133",
"7  c #5D4B37",
"8  c #55443A",
"9  c #56493E",
"0  c #5C4B3D",
"q  c #604D3F",
"w  c #62513D",
"e  c #454443",
"r  c #494743",
"t  c #464847",
"y  c #4C4947",
"u  c #454648",
"i  c #4D4B49",
"p  c #544E45",
"a  c #5C4B40",
"s  c #514F4B",
"d  c #5D5143",
"f  c #545048",
"g  c #5E5A53",
"h  c #634D42",
"j  c #655345",
"k  c #6A5546",
"l  c #6A5843",
"z  c #655549",
"x  c #6A5648",
"c  c #67594D",
"v  c #6B5A4C",
"b  c #635D56",
"n  c #6E5D51",
"m  c #635E58",
"M  c #73614E",
"N  c #6A6155",
"B  c #66625A",
"V  c #6A645B",
"C  c #6D695E",
"Z  c #736454",
"A  c #796754",
"S  c #766853",
"D  c #7B6956",
"F  c #74675A",
"G  c #766A5C",
"H  c #7C6B5A",
"J  c #706760",
"K  c #7D6E63",
"L  c #7E7265",
"P  c #78706B",
"I  c #836E5A",
"U  c #85725E",
"Y  c #89745E",
"T  c #837363",
"R  c #8A7664",
"E  c #877965",
"W  c #8B7966",
"Q  c #84766A",
"!  c #88766B",
"~  c #86796B",
"^  c #8C7B6C",
"/  c #917C67",
"(  c #927E6B",
")  c #8D7D71",
"_  c #94826D",
"`  c #98846E",
"'  c #8E8173",
"]  c #948373",
"[  c #998672",
"{  c #9C8975",
"}  c #948479",
"|  c #95897C",
" . c #9D8B7B",
".. c #A18D77",
"X. c #A18E7B",
"o. c #A5927D",
"O. c #A8937D",
"+. c #B49B7F",
"@. c #9D8D82",
"#. c #9F9082",
"$. c #A39384",
"%. c #AB9683",
"&. c #AD9985",
"*. c #A49789",
"=. c #A99689",
"-. c #AB9B8C",
";. c #B59E86",
":. c #BB9F87",
">. c #B39D8A",
",. c #B99F88",
"<. c #AD9D90",
"1. c #B09F92",
"2. c #B6A087",
"3. c #BAA185",
"4. c #B5A18C",
"5. c #BBA38D",
"6. c #BFA88D",
"7. c #B5A492",
"8. c #BCA691",
"9. c #BEA993",
"0. c #B6A699",
"q. c #BDAC99",
"w. c #BEB3A0",
"e. c #C1A68D",
"r. c #C2A98F",
"t. c #C1A792",
"y. c #C2AC95",
"u. c #C4AE99",
"i. c #C8AF9B",
"p. c #C6B096",
"a. c #C8B195",
"s. c #C6B19B",
"d. c #CAB49E",
"f. c #CDB89F",
"g. c #C5B5A3",
"h. c #CBB6A1",
"j. c #C6B9A5",
"k. c #CEBAA4",
"l. c #C0B6A9",
"z. c #C6BAA9",
"x. c #CCBCAA",
"c. c #D0B7A0",
"v. c #D1BCA6",
"b. c #D2BEA9",
"n. c #CABEB1",
"m. c #D1BCB0",
"M. c #CCC2AF",
"N. c #D4C1A7",
"B. c #D5C1AB",
"V. c #D9C5AE",
"C. c #DCC8AF",
"Z. c #D6C4B1",
"A. c #D9C6B1",
"S. c #D5C9B6",
"D. c #DCCAB4",
"F. c #DDCCB9",
"G. c #E0CCB1",
"H. c #E2CFBB",
"J. c #E2D1BB",
"K. c #DFD3C1",
"L. c #E3D6C1",
"P. c #E6D9C3",
"I. c #E9DCC6",
"U. c #ECE0CA",
/* pixels */
"u t u e 4 e r t t y i s y t i s i f s f i y r e t 4 5 f c B V C C V V V V V B V N J m m m J n V V m B m b m b m m b Z m F g 4 e ",
"u e 4 p | l.j.z.z.z.z.z.z.x.z.z.x.k.x.z.j.s.1.L # f M.K.U.I.I.I.I.I.P.I.I.P.P.P.P.P.P.P.P.L.P.P.L.L.L.L.K.L.P.L.L.L.J.P.L.K.r : ",
"e 4 C M.S.b.v.v.v.c.v.v.k.v.N.k.v.k.b.c.k.k.f.-.# ' K.J.G.C.G.C.V.C.C.C.V.V.V.V.G.C.C.C.A.C.C.C.C.C.A.A.G.G.A.G.A.C.C.G.F.D.n 3 ",
"4 P x.N.c.c.d.h.d.d.d.d.f.d.d.f.s.s.i.h.s.d.p.9.% #.J.C.V.V.b.V.V.B.N.N.V.V.b.B.N.N.b.V.b.m.b.b.b.V.m.V.b.b.b.b.m.b.b.b.b.B.G ; ",
"J n.k.h.d.d.i.s.i.i.i.i.d.s.s.d.i.s.s.s.s.s.s.9.% -.F.V.V.N.N.b.B.B.N.N.b.b.N.b.b.b.b.b.b.b.b.b.b.b.b.b.b.b.b.b.v.v.v.b.N.N.T * ",
"@.g.i.h.i.i.s.i.g.g.g.h.d.p.d.d.s.i.h.s.h.p.s.7., -.D.B.B.N.V.b.b.b.b.b.b.b.b.V.b.b.b.b.b.m.b.b.b.b.b.m.b.b.c.v.v.v.v.b.b.V.^ - ",
"*.q.i.i.i.u.i.i.i.i.i.i.i.i.s.i.i.i.i.i.h.i.q.1.* -.D.V.b.v.b.v.b.b.v.b.b.b.b.b.b.b.b.b.b.b.m.c.b.b.c.b.b.c.c.m.v.v.k.v.v.v.) - ",
"*.8.8.t.t.u.u.y.i.y.u.y.y.q.8.8.0.8.u.y.8.8.4.| X <.D.N.b.v.v.b.b.B.b.b.b.b.b.b.m.c.b.b.b.b.m.v.b.b.m.c.b.v.b.b.v.v.k.c.v.c.' - ",
"T W W W R ( ]  . .@.=.>.>.1.1.8.q.s.g.g.g.g.7.j   <.D.M.b.x.N.k.b.N.x.b.v.x.b.x.v.x.b.k.v.v.v.v.x.k.x.k.k.k.b.k.c.c.k.c.c.c.' = ",
"g.Z.F.H.H.F.F.F.F.F.S.Z.Z.Z.Z.Z.Z.B.B.N.b.v.h.q.9  .D.B.v.v.k.N.b.x.N.k.v.v.k.b.v.k.x.k.x.k.k.x.k.k.k.k.k.k.k.k.k.k.h.c.k.c.E = ",
"x.v.v.v.b.b.v.N.v.v.k.k.k.v.b.z.j.d.h.s.p.a.p.s.z ] V.v.v.k.k.k.v.k.k.x.v.v.c.k.k.k.k.k.v.k.m.k.k.z.h.x.k.h.k.h.k.k.d.h.c.c.E = ",
"x.b.v.k.c.h.f.k.k.h.k.k.k.h.h.h.f.f.f.d.d.d.a.y.z [ D.v.c.v.k.N.k.M.k.k.h.m.k.m.k.k.v.v.c.h.h.k.v.h.k.h.h.k.h.k.h.h.s.d.h.h.E = ",
"v.v.c.k.d.f.k.k.k.k.k.h.h.h.h.s.h.s.h.d.h.p.p.u.v ] Z.k.k.N.f.k.k.z.k.k.k.k.k.h.k.k.k.h.k.h.k.h.h.k.h.h.h.h.h.h.d.k.d.d.h.c.T = ",
"k.v.c.h.d.k.k.d.d.h.d.k.h.h.h.h.h.s.g.s.s.s.p.y.c ] A.x.f.f.k.N.k.v.k.k.k.k.k.h.k.h.h.k.m.h.c.h.h.d.h.h.h.h.d.s.d.d.d.d.d.c.G - ",
"x.c.h.h.d.k.h.d.d.h.d.f.d.d.s.s.h.d.h.s.s.s.y.u.c } D.k.f.f.k.k.v.v.k.v.k.k.h.k.h.h.h.h.h.h.h.h.h.h.h.h.d.h.f.d.f.d.d.d.f.v.Z - ",
"k.k.c.c.d.d.f.h.d.d.d.k.f.d.h.h.s.s.s.p.s.p.y.y.z [ F.k.v.v.c.c.v.k.k.k.k.k.k.k.k.h.k.h.h.h.h.h.h.h.s.h.h.d.f.d.f.d.d.d.k.k.Z = ",
"k.k.c.h.s.d.d.d.d.d.d.d.d.d.d.d.s.s.d.p.p.p.y.9.d } F.v.v.c.v.v.k.k.k.k.k.k.h.h.k.k.k.h.h.f.f.h.h.k.d.h.d.d.d.f.s.f.a.d.c.v.c * ",
"h.c.c.h.d.d.d.d.d.d.d.y.d.y.s.p.s.p.y.d.i.y.y.8.9 } D.v.v.c.c.v.k.N.k.k.k.k.k.f.h.h.h.h.h.j.d.d.d.d.f.d.d.d.d.d.s.s.f.f.f.f.9 = ",
"g.h.h.c.a.d.d.a.d.a.i.i.a.i.i.i.s.y.y.y.i.y.t.>.8 ) D.B.v.v.v.N.v.v.N.f.k.f.k.k.k.h.k.h.h.d.s.f.c.c.d.c.c.h.d.f.f.f.d.f.k.h.6 = ",
"! t.d.d.d.d.d.d.i.i.i.i.i.a.i.a.p.i.d.y.y.t.5.&.< ^ V.v.v.v.v.c.v.f.f.N.f.k.k.h.k.h.h.h.h.s.f.f.f.d.d.d.d.d.d.d.f.k.k.k.d.&.; = ",
", x ( @.......{ { { } { [ { ( {  .o. .[ / ` ( ( 2 J g.9.u.9.9.9.9.q.q.q.q.9.9.9.9.q.q.q.q.q.q.q.9.q.9.7.4.7.5.7.7.>.&.&._ , . = ",
"q.g.h.h.h.z.g.z.z.k.b.x.m.m.Z.S.F.F.F.F.m.d.` 2 2 @ S {  .] ] _ _ _ _ ^ ( ' ^ W E W T T H v 6 8 a 2 < 0 n F T ^ [ {  . . .| r : ",
"L.K.H.H.H.D.F.F.F.S.D.F.F.F.F.F.F.S.A.A.B.A.V.=.o <.P.J.H.J.H.F.F.D.F.D.F.F.F.D.D.D.D.V.V.Z.z.a 0 R 9.M.Z.B.N.b.k.v.v.N.M.x.N & ",
"F.A.A.A.m.A.A.m.Z.b.Z.Z.m.b.b.b.b.N.b.B.b.b.v.>.+ q.H.G.D.D.A.V.D.V.V.V.A.Z.Z.B.V.V.V.V.N.V.g.n *.z.N.k.b.k.x.v.v.v.v.v.v.N.F - ",
"F.A.m.b.b.B.m.V.b.b.b.b.m.b.b.b.x.b.v.v.b.b.b.-.X g.D.D.A.V.B.V.N.B.B.b.B.V.b.m.N.v.N.N.N.N.%.-.m.v.v.c.m.k.k.k.k.k.m.c.c.k.G - ",
"D.A.V.V.Z.B.V.m.m.b.b.b.b.b.b.b.b.b.b.v.v.b.N.4.+ g.D.V.A.B.V.b.b.B.b.b.b.b.V.b.B.b.N.b.M.k._ x.v.c.v.c.h.k.k.h.k.k.h.h.c.k.L * ",
"V.V.b.m.b.b.B.b.b.b.m.b.v.v.m.b.v.b.v.k.v.b.v.7.X l.D.V.B.B.B.N.B.B.x.B.b.b.b.b.b.b.B.M.N.g._ N.k.h.h.k.k.h.h.h.h.h.h.h.h.d.L & ",
"A.V.V.m.B.N.b.b.m.m.b.b.v.h.m.b.v.v.b.k.x.v.v.0.% j.D.V.N.B.N.N.b.N.N.x.V.b.b.b.N.v.v.N.k.9.&.M.v.h.h.h.k.h.h.h.h.h.h.h.d.s.Q & ",
"V.b.V.b.b.b.b.b.b.b.b.c.m.c.v.v.v.x.k.k.k.v.c.0.% z.D.V.b.B.B.v.b.b.b.v.b.b.v.b.k.N.z.z.x.&.7.x.k.k.d.f.k.h.h.i.h.s.s.d.f.s.Q # ",
"A.B.N.b.b.B.b.b.b.b.m.c.c.m.k.v.v.c.v.k.h.v.k.0.$ z.A.A.B.v.v.v.k.x.b.v.v.v.v.b.N.N.N.N.v._ i.k.k.k.k.h.h.h.h.h.h.h.h.h.d.s.T & ",
"A.B.b.b.b.b.b.v.b.v.v.v.v.k.c.k.k.k.v.c.c.k.h.7.> b.D.B.b.N.N.v.b.k.v.v.v.b.v.v.z.k.k.k.s._ h.k.k.h.d.k.h.s.s.h.s.g.s.s.f.d.T & ",
"Z.B.b.b.b.b.c.v.v.v.v.v.k.v.k.k.k.k.h.h.c.v.h.1.% x.D.b.v.v.v.v.x.N.v.v.v.v.v.v.N.N.k.M.O.&.k.h.h.h.h.h.h.h.h.h.s.s.p.s.s.s.L & ",
"V.b.b.b.v.v.v.v.k.k.k.v.k.c.k.k.k.h.c.d.d.k.h.<.> M.V.N.v.v.N.v.k.v.v.v.k.v.k.k.M.f.f.N._ f.k.d.k.h.h.h.d.s.g.s.h.s.i.s.s.s.Q * ",
"A.V.b.b.v.v.k.k.h.k.k.k.k.h.h.k.h.k.k.f.d.d.h.<.> M.V.N.k.N.f.v.b.k.k.v.v.v.v.v.f.N.M.O.{ N.d.k.g.f.h.h.h.h.d.s.g.s.s.s.s.d.E - ",
"A.B.b.v.v.v.k.k.c.k.k.h.h.h.h.z.h.h.c.d.c.d.h.=.> Z.V.N.v.v.k.k.k.k.k.v.N.k.v.k.M.f.d.U w.N.f.f.f.h.h.d.s.h.h.s.i.s.i.s.s.p.~ = ",
"V.B.v.v.v.v.k.k.k.k.k.h.h.h.h.h.h.d.d.c.d.d.d.*.> x.V.N.k.k.N.v.v.v.k.k.k.k.N.N.N.f.H O.f.f.j.f.h.f.h.d.h.d.d.g.s.s.u.u.p.i.Q = ",
"Z.N.k.k.v.c.k.k.k.h.h.h.h.h.h.h.d.h.d.d.d.k.p.*.> Z.V.k.f.v.f.f.k.h.f.v.z.k.N.f.N._ _ N.k.h.k.h.h.h.f.f.f.s.f.s.d.h.d.s.s.s.Q - ",
"V.b.v.v.k.k.k.f.h.h.h.h.d.h.d.s.s.d.d.s.d.d.h.*.> m.V.k.v.v.k.v.f.N.k.z.N.k.N.j.o.H d.j.k.k.h.f.k.k.f.f.h.h.h.s.s.s.p.p.s.s.K ; ",
"B.N.c.k.k.f.h.k.h.h.h.g.f.s.h.s.a.d.d.d.d.d.d.$.> M.V.N.f.f.f.k.k.k.k.N.M.k.-.S 7 &.9.q.k.h.j.k.k.k.k.k.k.k.h.s.h.g.s.p.s.q.V - ",
"B.v.c.k.c.h.h.s.h.h.h.i.s.s.s.s.d.d.d.d.s.d.s.$.> B.B.N.f.v.v.v.z.N.z.h.{ w 7 _ o.[ E W _ _ [ _ _ ` [ [ ] { [ _ W R U Y H M + # ",
"M.k.c.d.f.f.d.d.h.s.s.s.s.s.s.s.p.d.d.i.y.p.s.$.> B.V.v.f.v.k.v.V.z.[ l A 4.k.N.x.v.b.N.k.k.h.d.q.9.7.-.4.-.4.-.4.4.4.7.9.9.V - ",
"b.k.d.d.d.d.d.d.s.s.s.s.s.s.u.s.p.d.d.d.d.d.i.@.> M.V.N.N.v.k.N.q.H _ s.h.z.z.k.k.z.g.h.f.s.p.9.6.q.q.q.q.9.q.9.q.9.9.6.7.q.L ; ",
"b.h.d.d.d.d.f.d.s.p.s.p.s.s.u.i.i.s.s.s.i.u.i.@.< B.V.V.b.b.N.o.U 7.s.s.i.p.i.s.p.y.y.y.q.y.6.9.q.p.9.9.8.9.9.q.9.y.9.t.6.7.L ; ",
"v.h.d.d.d.p.d.d.s.s.s.i.s.i.u.u.p.p.s.s.p.i.y.} 1 v.C.V.b.B.o.K h.d.q.q.y.u.y.q.9.8.9.9.9.9.9.t.9.6.8.9.8.8.9.9.7.7.5.7.5.6.L ; ",
"v.h.s.s.a.d.p.p.i.u.q.p.u.i.y.i.u.s.p.i.u.p.s.} < M.V.y.o.{ 0 &.s.s.y.y.y.t.t.t.8.y.8.y.9.8.9.7.4.8.9.9.5.9.9.9.9.8.5.4.5.7.L ; ",
"v.h.s.p.i.y.y.i.i.y.y.y.y.y.u.u.u.p.p.y.u.i.q.@.# G c 0 v 8 v h.p.6.r.t.9.y.y.y.y.y.9.y.7.8.9.u.q.9.9.6.q.q.q.9.9.q.y.9.5.5.Z * ",
"k.h.p.u.p.y.y.u.y.u.y.y.y.q.q.i.p.p.s.i.y.q.p.#.. @ 1 2 < % < H ^ _ ( ^ _ R T T ^ W T D M M D Y { -.>.9.y.9.4.>.&.O._ Y Y ` d # ",
"h.i.p.u.y.y.y.y.y.y.y.y.y.y.u.i.s.s.p.y.y.y.u. .C S.S.B.j.w.$.| $.%.&.&.7.7.7.8.q.q.y.q.s.g.h.q.` _ &.>.%.;.4.%.E Y >.x.V.N.L * ",
"h.p.u.y.y.y.y.y.9.y.y.y.y.y.y.p.y.p.p.y.y.t.9.| L F.D.D.V.V.V.V.A.B.b.Z.B.B.B.b.N.v.v.M.N.N.k.k.f.+.L 4.p.q.9._ 7.N.k.v.f.y.H - ",
"s.i.y.9.9.y.y.y.6.y.9.y.y.y.u.u.y.y.u.9.y.9.i.@.K v.v.v.v.b.N.N.N.B.b.v.N.b.b.v.N.v.v.v.k.k.N.h.f.M...M 4.q.o.o.N.N.f.f.p.p.S ; ",
"d.y.y.t.y.y.t.y.y.9.y.t.y.9.y.y.y.p.y.9.9.t.p.@.K v.v.v.b.b.b.b.b.b.v.v.x.k.v.k.k.k.k.k.k.k.k.f.j.j.f...w >._ w.d.s.s.p.y.a.H * ",
"s.y.y.9.6.y.9.t.9.6.9.9.q.y.8.8.9.t.t.t.5.5.9.$.T b.b.N.b.v.v.c.v.k.v.x.v.v.m.c.k.k.k.k.k.h.h.k.f.s.f.s..., ' d.j.s.p.p.a.r.S - ",
"s.u.y.8.t.t.9.9.8.y.t.8.8.t.8.8.8.t.t.5.e.8.q.@.Q b.b.b.v.v.c.m.k.k.x.v.k.k.k.k.k.c.k.k.k.k.k.h.f.f.s.s.w.U w d.d.d.d.a.r.e.S * ",
"i.y.y.9.9.t.t.9.8.8.8.8.8.8.q.t.t.8.9.5.:.8.8.@.Q b.v.k.v.v.m.k.k.v.v.h.h.k.h.h.z.h.h.k.h.h.g.h.d.d.p.w.q.4.H q.p.d.d.a.y.r.Z * ",
"i.y.8.y.9.t.6.6.t.8.8.8.8.8.8.8.8.8.8.:.8.:.y.@.Q c.k.k.k.k.h.h.h.h.k.h.h.h.h.h.h.h.h.h.h.h.h.g.d.s.f.p.q.4.` 9.s.u.y.y.r.r.v - ",
"y.y.t.8.5.t.9.9.t.8.8.8.8.8.t.8.8.8.8.8.:.8.:. .) m.x.k.h.k.k.h.h.h.h.h.h.k.h.h.h.h.h.h.d.g.s.s.w.p.q.p.p.6.o.O.s.i.y.y.r.5.l - ",
"p.y.t.6.5.t.t.5.8.8.8.8.8.8.5.8.5.5.5.5.5.5.8.| ! v.k.h.h.h.h.h.h.h.h.h.h.h.h.h.h.s.h.h.i.s.s.p.s.p.p.p.y.5.,...p.u.y.y.e.:.7 - ",
"y.t.t.5.t.5.9.t.8.9.9.5.8.5.,.5.4.5.5.5.3.4.8.| ) v.v.h.h.h.h.h.h.h.s.h.h.h.h.s.g.h.h.s.g.s.s.s.q.p.q.9.y.9.5.X.9.u.y.y.r.+.j * ",
"9.y.t.9.6.8.t.8.8.t.5.9.8.5.>.8.5.5.5.>.4.4.5.@.! b.k.h.h.i.h.i.h.s.h.g.h.s.s.i.s.s.s.s.i.i.u.p.p.9.9.p.9.6.8.X.>.t.y.t.r.3.U & ",
"9.t.t.6.t.t.5.t.5.5.5.5.5.4.>.5.4.4.5.3.4.3.4. .! b.k.k.h.h.h.h.i.h.h.i.h.i.g.h.g.s.s.s.s.p.s.q.9.p.9.9.7.6.5...&.8.5.5.e.3.U & ",
"u.t.t.5.t.5.e.5.5.5.4.,.4.3.4.4.3.4.4.;.2.;.4.} ^ m.d.s.h.h.h.h.s.i.i.i.i.s.s.i.s.s.u.u.p.q.p.y.9.q.9.9.8.5.,.X.%.8.5.e.3.+.R # ",
"8.8.e.t.5.5.8.5.5.5.5.5.4.5.4.3.4.5.5.;.2.2.>.} K h.h.h.i.h.h.i.h.h.g.i.s.s.s.s.p.p.u.s.s.s.y.y.p.9.q.6.8.t.8.X.%.e.5.5.e.+.Y # ",
"8.5.5.5.,.5.5.5.5.:.4.5.,.:.:.:.4.4.>.;.;.2.4.] a >.5.8.1.:.8.t.y.q.t.q.8.q.y.8.9.t.6.9.9.7.8.8.8.9.6.6.:.e.:./ ( t.4.e.3.3.U # ",
"X.>.:.%.>.5.>.5.5.,.>.5.,.>.;.4.>.>.>.>.-.&.$.! O 8 0 0 h h z x z h j z x j j j k z k k j q k x h l l l k k k q 2 I O.;.3.;.D # "
};
