/* XPM */
static char *wall31711326196[] = {
/* columns rows colors chars-per-pixel */
"64 64 221 2 ",
"   c #281F1C",
".  c #2E2824",
"X  c #312723",
"o  c #342B26",
"O  c #392E26",
"+  c #342D29",
"@  c #3A2F29",
"#  c #33312D",
"$  c #3C322C",
"%  c #3A3531",
"&  c #3A3838",
"*  c #41342D",
"=  c #46382E",
"-  c #5A3C21",
";  c #433F3D",
":  c #623F23",
">  c #44403C",
",  c #63442D",
"<  c #69482B",
"1  c #7A572D",
"2  c #664B33",
"3  c #6E4E33",
"4  c #724F31",
"5  c #6F5237",
"6  c #755334",
"7  c #7A5635",
"8  c #7D5A36",
"9  c #72553B",
"0  c #7B5739",
"q  c #75593E",
"w  c #7D5A3B",
"e  c #443F42",
"r  c #464244",
"t  c #4B4747",
"y  c #4C4545",
"u  c #534946",
"i  c #524B4C",
"p  c #67584B",
"a  c #745A42",
"s  c #7C5D43",
"d  c #775C4A",
"f  c #7D6147",
"g  c #7D614B",
"h  c #6C645C",
"j  c #7E6653",
"k  c #786758",
"l  c #716C67",
"z  c #7B7269",
"x  c #835D34",
"c  c #835E3C",
"v  c #886236",
"b  c #85613C",
"n  c #8B643D",
"m  c #8E693E",
"M  c #93693E",
"N  c #825E42",
"B  c #856343",
"V  c #8B6543",
"C  c #8D6944",
"Z  c #82654B",
"A  c #8A6649",
"S  c #85684B",
"D  c #8D6B4A",
"F  c #926B45",
"G  c #966B44",
"H  c #936E4A",
"J  c #986F49",
"K  c #967146",
"L  c #9B7346",
"P  c #9F7847",
"I  c #96724B",
"U  c #9B744C",
"Y  c #9E794E",
"T  c #836652",
"R  c #856B54",
"E  c #8A6D54",
"W  c #866D5A",
"Q  c #8B6F59",
"!  c #926E51",
"~  c #8E7055",
"^  c #87705C",
"/  c #8C725D",
"(  c #957352",
")  c #9B7551",
"_  c #9D7953",
"`  c #94755C",
"'  c #9A7758",
"]  c #96785E",
"[  c #9C7B5A",
"{  c #A17646",
"}  c #A27A4E",
"|  c #A37C54",
" . c #AA7F52",
".. c #A37E5A",
"X. c #867667",
"o. c #8C7462",
"O. c #917662",
"+. c #957A63",
"@. c #9A7C64",
"#. c #957C69",
"$. c #997E6A",
"%. c #867C73",
"&. c #9E805E",
"*. c #A68156",
"=. c #AA8355",
"-. c #A6815B",
";. c #AB845B",
":. c #AE895D",
">. c #B1865A",
",. c #B28A5E",
"<. c #B98F5E",
"1. c #9D8067",
"2. c #92806C",
"3. c #9C826C",
"4. c #8D8579",
"5. c #9C8472",
"6. c #9F8875",
"7. c #91887A",
"8. c #A58463",
"9. c #AB8661",
"0. c #AE8A63",
"q. c #A2846A",
"w. c #A5886D",
"e. c #AC8B6B",
"r. c #B38D63",
"t. c #B88E63",
"y. c #B28D6A",
"u. c #B69165",
"i. c #BA9366",
"p. c #B5926A",
"a. c #BB956A",
"s. c #BE996D",
"d. c #A18672",
"f. c #A58B75",
"g. c #AA8E74",
"h. c #A58C79",
"j. c #A98E79",
"k. c #AB937A",
"l. c #AD937C",
"z. c #B59472",
"x. c #BA9771",
"c. c #BC9A72",
"v. c #B2967D",
"b. c #B4997E",
"n. c #BC9C7C",
"m. c #C09768",
"M. c #C29B6D",
"N. c #C39D73",
"B. c #C09E79",
"V. c #C7A06E",
"C. c #C6A174",
"Z. c #CAA375",
"A. c #C5A37B",
"S. c #CBA57B",
"D. c #CDA97C",
"F. c #D2AB7D",
"G. c #988E81",
"H. c #9C948B",
"J. c #AD9581",
"K. c #AE9984",
"L. c #A79B8E",
"P. c #B19681",
"I. c #B49B83",
"U. c #BA9D83",
"Y. c #B59D8A",
"T. c #BA9F8A",
"R. c #A99E91",
"E. c #B69F90",
"W. c #BDA285",
"Q. c #B4A18B",
"!. c #BCA38B",
"~. c #BBA48A",
"^. c #ADA396",
"/. c #B3A493",
"(. c #B9A894",
"). c #BDA994",
"_. c #B5AB9B",
"`. c #BAAE9A",
"'. c #BCB29C",
"]. c #BAB3A4",
"[. c #C1A485",
"{. c #C8A580",
"}. c #CDAB83",
"|. c #C2A68B",
" X c #C4A98D",
".X c #CAAD8C",
"XX c #D2AE83",
"oX c #CEB189",
"OX c #D5B183",
"+X c #D4B38B",
"@X c #DAB589",
"#X c #C4AB92",
"$X c #C2AB96",
"%X c #C9AE93",
"&X c #C7B196",
"*X c #CBB196",
"=X c #C3B29B",
"-X c #CCB49B",
";X c #D6B891",
":X c #DDBB94",
">X c #D1B69A",
",X c #D3BA9D",
"<X c #E0BE98",
"1X c #C3B5A2",
"2X c #CBB6A1",
"3X c #CDBAA3",
"4X c #C3BBAB",
"5X c #CDBDA8",
"6X c #D2BCA4",
"7X c #D2BFAA",
"8X c #DCC4A5",
"9X c #D6C2A9",
"0X c #D6C3AB",
"qX c #DBC6AC",
"wX c #DAC8B4",
"eX c #DCCAB4",
"rX c #E2C9AB",
"tX c #E1CEB7",
"yX c #E2CFBA",
"uX c #E3D3BC",
"iX c #E6DACA",
/* pixels */
"r l H.L.H.L.R._._.].].].4X4X4X4X0X]._.G.p ^._._._._._.`.).].=X`.`._._./._.^.^.L.L.H.z z 4.7.7.7.7.4.4.4.4.4.4.%.%.%.%.%.%.z h ; ",
"l iXiXuXiXyXeXeXwXeXeX9X7X7X5X7X3X9X4X=X2.0X0X9X3X6X9X9X7X7X9X0X9X9X0X0X9X0X0X0X0X0X0X2XeX0XeX7X0XeXqX0X0X9X0X3X=X(.`.=X=X(.^.; ",
"z 9X3X6X6X3X6X3X2X2X-X*X%X*X%X%X#X X X~.o.,X=X-X>X*X*X*X*X%X#X%X%X#X#X#XI.T.I.P.P.l.P.1.).!.T. X X/.!.).I.T.P.j.J.K.l.I.I.k.f.% ",
"h 9X,X-X>X*X*X%X$X$X%X$X X X X!. X[.[.W.^ -X*X*X%X#X#X#X X$X$X#X#X X#Xj.j.P.j.j.l.j.f.#.!.Y.T.Y.T.I.P.P.P.J.v.$.d.l.v.k.k.h.f.% ",
"h ,X>X*X*X>X*X%X#X#X#X#X X X|. X[. X[.~.j &X&X&X#X$X X X$X|.#X X X).~.1.j.J.l.j.j.j.h.5.Q.Q.K.Q.Y.Y.J.J.J.j.l.o.6.l.K.l.h.w.h.$ ",
"p *X).~.!..X%X*X.X X X X|.W.~.|. X~..X Xf -X&X).$X$X X#X$X!.|.$X).).5.h.j.j.j.j.h.j.5.6.(.Q./.Q.Y.Y.Y.K.K.K.K.W f.K.l.h.h.f.j.# ",
"u 9X3X'.$XK.f.I.b.z.1.+XA.oXA.:.0.p.p.0.&.z.z.b.v.b.U.b.P.U.b.b.U.f.W 1.@.$.@.@.@.] Z / k.k.6.f.h.f.h.h.h.d.q.a W W W R W W k $ ",
"i uXyX9X9X0X3XR ,X Xp.OXM.C.s.s.Z.M.i.M.D.N.s.s.N.N.N.x.B.c.x.x.' b }.D.S.D.A.A.A.A.B.x.p.z.0.0.z.z.y.y.e.e.! s 1.W f.l.l.j.6.& ",
"i tX9X3X7X3X3Xf.rX+X=.=.{ { { =.*.*.v :.r.:.*.*.*.*.0.0.p.i.p.[ , ;.r.=.*.I *.*.K *.K *.*.*.*.*._ _ U F F G _ g.1.` ] f.k.6.h.% ",
"i eX9X6X3X5X-Xj.qXoX:.<.M.OXD.s.Z.V.r.s.*.u.D.V.i.i.:.=.*.r.;.a.a.<.:.i.C.c.p.i.p.u.u.p.u.u.*.*.;.v n Y =.| H e.1.~ ] 1.f.k.h.% ",
"i qX7X6X6X3X2Xk.8XoXu.i.L i.V.V.V.,.V.:.Z.:.*.i.V.V.M.V.r.u.Y m.F.i.c.N.:.-.:.:.C.V.V.V.V.V.u.=.K _ ) F | *.U [ f.5 ] ] f.f.h.% ",
"i qX7X3X6X2X=Xk.8X+Xu.,.,.=.V.V.s.V.D.8 u.s.:.*.L =.M.S.M.a.;.;.Z.,.N.C 1 *.1 V.C.&.K m f u.u.m r.r.U ..F ) Y D 1.1.~ ` &.6.h.% ",
"i 0X9X2X3X,X=XJ.8XoXa.=.Z.M V.V.V.C.C.s.K i.a.s.-.*.i.*.D.N.0.;.F.>.a.n :.C.K s.:.u.c.c.u.8 *.*.p.r.K ;.w _ L [ ~ q.@.S R ` w.% ",
"i qX3X3X,X3X2Xl.8XoXN.m Z.i.,.V.:.i.r.Y U :.:.C.N.I i.V.S.=.;.;.Z.=.N.m :.i.:.:.*.D.V.s.s.*.&.c.0.p.K 0.A I L ;.~ q.1.1./ q 6.$ ",
"i 0X6X3X3X3X,XK.8X+XV.D -.V.P 0.) b C C w 8 _ Z.Z.U _ i.S.;.N.,.F.} M.C.:.*.*.m C.A.i.i.u.m c.:.:.0.I i.C A C ;.' $.1.3.w.S / % ",
"i 0X9X-X3X2X2XP.8X+Xs.D C i.D.Y -.Y 0.*.8.q 0.V.a.p.p.p.S.a.a.r.F.>.,.Z.D.Z.N.K oXC.u.i.c.*.C.*.a._ -.:.H c C ;.' g 1.3.w.1.d o ",
"i 6X6X,X2X2X3XI.8X+XN.B ( i.D.V.U K u.K [ 0 a.V.a.p.D.S.C.Z.t.r.Z.*.:.K *.M ,.,.@XZ.K i.s.m C.&.N.K c.=.H w | ;.' g @.w.@.@.$.o ",
"t 0X6X2X2X3X3X~.,X;Xs.8 C.u.s.F.Y C 0.U C 0.V.C.r.9.a.r.;.;.| r.F.*.p.p.*.r.s.i.OXF.-.:.p.I c.:.e._ c.:.D 0 ) ;.' Z $.` @.' @.o ",
"t 7X6X-X3X3X3X!.,X+Xr. .s.V.i.C.x.U ) ( -.N.V.Z.! }.XXS.N.N.N.a.V.*.u.0.-.c.:.:.C.OXD.U u.&.y.c.Y c.s.K [ 7 U 9.' Z 1.+.$.' @.O ",
"t 6X6X6X2X-X3XT.-X;X;.r.<.V.Y C F.C.*.Y r.Z.s.*.J D.Z.S.C.Z.N. .V.i.:.*.&.i.s.a.*.C.D.C.Y *.&.Y c.p.:.K -.7 ) 0.( g q.$.@.' @.O ",
"t 7X6X,X3X6X2X(.*X;X=.,.M.V.:.Y a.OXr.I Y *.:.u.9.a.N.N.m.S.N.,.i.D.M.i.;.n m v 8 m V.A.C.;.D p.A.:.,.:.C B | r.D Z q.+.[ ( @.O ",
"t 7X6X6X2X2X3X$X X;X*.,.M.r.S.C.m D.@X0.U 0.s.s.r...B.Z.N.M.M.t.:.a.D.S.s.9.c.c.i.*.m u.9.;.I N.:.u.:.:.< C | 9.[ Z 1.+.$.` @.O ",
"t 5X).(./.h.Y.7X%X;XY <.M.a.Z.M.s.*.D.@X-.r.s.s.;.8.U B.N.y.N.s.x.C M.<.P r.=.m.s.i.*.8 ;._ :.r.:.,.U , f I _ ;.8.D @.' +.` @.O ",
"t p Y.Q.6.o.wXyXW.:X| ,.<.Z.M.V.=.:.=.F.}.[ u.;.| y._ c U ) J N F 9.} :.a.=.K m.s.i.*.v s.I ,.;.&.8 C &.( V -.| 8.Z q.` @.` ` O ",
"t X.iXuXyXrXwX#Xg.@X..>.m.S.N.>.m *.U :.F.}.I } ;._ J N.M.N.S.F.}.F.N.=.{ n >.t.m.;.| m r.C Y m } ..N.M.y.N ..| 8.Z q.@.$.' R X ",
"r R.tX,X-X-X%X#Xz.<X..| M.>.Z.m D.Y ;.-.=.}.B._ ..A A.XXXXXXXXF.XXF.F.S.M.N.m.t.=.0.Y | Y ) | i.a.) r.m.x.| ....e.B 1.@.@.@.@.O ",
"e `.rX>X%X%X%X|.y.:X| | a.K S.;.@Xa.r.N.x ;.S.S.J ;.S.Z.Z.F.F.S.N.m.<.>.r.<.,.i.t.a.V 9.b ..;.M.a.| M M.m...| | 0.Z q.@.@.@.@.$ ",
"e ).,X>X%X#X#X Xg.:X.. .>...U B.D.D.,.<.P :.;.S.Z.=.N.S.S.m.=...t.a.a.N.M.N.N.Z.r.n N J i.:.,.i.r.J c m.p.) ....e.B 3.@.@.[ @.O ",
"e 1X,X>X%X%X X|.e.<X) | M.N.} XXC.S.C.} ;.n F i.,.r.i.N.t.,.r.p.J J | | ....| V G ' .. .i.;.V :...} U a.M.J ..! y.N q.@.q.] @.O ",
"e 4X,X*X%X.X%X Xe.<XU t.N.:.a.>.;.i.Z.N.;.Y N.Z.a.t...p.a.J a.r.| ....| G C J } ) J ..r.t.a.} | 9.| r.a.t.D ..| e.s q.@.q.] @.O ",
"e 4X>X%X.X%X X|.e.<XJ a.,.M.a.t.=.P | N.N.S.N.S.D.N.c.| 0.0.a.>.| J G  .p.i.p.t.t.a. .G r.m.a.r.} r.i.y...| J y.y.s q.$.@.+.' O ",
"e 7X>X%X X X XT.q.<XJ N.S.N.,.<.>.} U a.N.c.a.u.,.r.a.p.G ;...}  .9...i.N.N.M.M.a.m.m.0.} r.t.a.M.i.r.i.H ..H r.8.s @.@.@.' +.O ",
"e 7X*X%X X X|.W.e.<XL C.N.m a.;.;.8.}.oX+X+XS.F.{.S.Z.;.9.;.| J J r.} U U } | | x.t.a.a.;.V J 9.t.t.t.} ! ..H y...N $.@.@.' +.* ",
"e 7X.X X|. X|.W.w.:XI N.Z.r.K :.-.Z.;X+X+X}.+XXX+X}.y.b ..0...G r.9.C r.;.r.9.|  .N.N.t.r.J | N ,.t.U N ! ..G y...s @.@.@.` ` O ",
"e 3X%X|.!.|.|.U.w.:XI u.N.s.a.| _ ;X}.XXA.XX+X}.A.8.8 N J G J 0.;.F a.N.a.,.;.:.;.;.,.a.p.J ..G N.0...| J ..G y...N #.+.@.' ] * ",
"e 5X.X|.|.!.W.W.8.;XH I ,.i.N.t.a.+XS.+X;X+X}.n.H b 0 V r.| V ..U N.p...;.;.:.,.,.U C r.t.| J C N. ...| N | N t.e.N $.+.+.` ` O ",
"e 0X.X XW.|.!.U.8.+XH -.*.:.r.| S.N.S.}.+X+Xe.D c N c .. .m } | a.r.;.;.;...8.:...| 9.y. .) x 9.a.) ) J N | N t...N $.` +.` ] * ",
"e 3X X|.[.~.W.U.8.+XF ;.,.J ,.*.N.c.D.+X}._ c v A F J | J x.p...9.9.p.0...H ( ....' H ) c V ..t. .) | N N | N t.9.N @.+.+.` ` X ",
"e 3X.X[.W.[.U.U.8.XXY r.;.F | u.C.S.}.XX) b B J J n | ) a.U C ! c ;.[ I | -.U B N V A } M.y.:.y.) N ) G A ..c 0...N @.] ] ` ] O ",
"; 3X%X[.W.[.W.U.w.{.Y :.| F K A.x.D.+X( B V J J c b y.8.N...U V B 0 H r.s.t.t.a.) c J V M...;.I J ) J | G ) N ....N @.] +.Q @.O ",
"; K.b.b.b.b.v.k.e.D._ *.F L u.c.C.}.[ D F J H c _ 0 D ;.:.:...V 6 J x.t.<.;.t.<.i.) ! B | _ | ;... .) V J ) N | ..N @.` @.` ` X ",
"e /.~.Q.v.j.#.~ g.}.| I v ;.c.x.}.z.b U J G c _ p.( A.}.D.S.N.A.x.N.u.-.*.| } >.,...D A -.| C ;...|  .J ) | N J ..N +.+.@.@.Q o ",
"y =X~.~.I.I.Q.j.b.A.Y _ V :.p.A.B.w I K U c ;.-.p.S 9.-.*.P a.a.s.i.;.| _ ' | ,.:.H D b 9.8.x 6 J | ..| G ) V | e.N +.$.@.Q d o ",
"y Q.W.b.U.U.Q.l.W.A.Y *.I r.r.D.' Y I G c ) 8.) x.I S B.a.i.;.M F n n c 8 ) r.r.U B 7 C | J r.x...c  .J A | V ) ..N @.#.Q T T o ",
"y Q.U.U.P.Q.I.l.B.A.I _ :.,.,.i.G Y C B F p.r.s.) z.B &.N.m.t.,.=.n a.B.x.I 9.-.c 3 -.t.t.t.a.a.0.| ..G V ) F ..9.c +.T E T T X ",
"y I.U.U.U.I.U.k.W.A.Y L :.-.N.Y Y I n 1 p.a.a.s.m Z.N.! c | p.N.-.+XC.>.,.t.U _ 4 b y.r.a.9.t.;.L } G N J J C 9...s N R Q s T . ",
"y Q.U.U.I.I.I.k.W.A.Y Y u.:.s.-.| I _ e.p.p.a.u.r.S.N.}...8 0.;.D.N.,.t.,.:.;.V w ..9.t.-.V 8.) n V J ( ' A N | ..N Z Q T E o.. ",
"t I.U.U.Q.I.I.h.W.A.Y :.*.=.:.Y U m C C I r.9.:.=.r.r.-.r.a.t. .XX,.>.=.<.,.:.H w ;.:.r.V U c B ( N 0 6 - 4 ' | ..0 T T / O.o.. ",
"r I.Q.U.I.I.v.f.W.A.K B.*.*.*.K F :.s.c.:.m -.t.;.L r.1 r.a.| r.M.>.>.>.<.u.,.[ < 9. ...( } ;.G w D H ( ! 6 N J ' 0 T Q O.+.o.X ",
"y b.Q.b.b.Q.I.f.W.A.I V.;.*.*.n >.i.<.<.u.;.F :.;...r.J x.>.,. .m.=.>.} :.,.r.[ , ..;.F A C 9...C ) *.| ) x A A G a T O.] ] o.X ",
"y K.n.b.Q.n.b.f.W.A.m ;.s.-.*.C <.,.<.<.>.;.U  .,.C 6 } ,.{ { c >.v =.=.,.=.;.9 , J ..J D J >.J B x | | ) N A ! N N T O.+.O.o.. ",
"y I.n.b.b.Q.K.g.z.x.b 8 :.a.I Y M } =.{ M m | } t.t.;.9...M c >.=.v } =.=.-.B 4 ( ( ! ! Z ..0...V ! 8 } J c N ) 4 Q a Q O.#.^ + ",
"y b.b.v.v.b.I.h.` c.b 1 K r.0.Y C v Y m m _ Y | t.r.0...c x ;.} M ,.J  ...) 4 @.( A w w N 9.9...< ) N ! J 0 4 ! < R a O.+.+.Q X ",
"y l.b.K.b.l.K.l.~ z.! S B Y a.:.I *.b 8 _ Y | a.i.| F c M  .,.r.,.=...D N c ) J V J -...| ..N < 6 0 x c N ! a : B Z a / +.+.Q o ",
"y v.v.v.J.l.l.l.k.e.` ~ ( C -.,.:.r.y.-.-.| p._ V 7 0 ( | ....) C V V 0 0 ! A 0 ) J ) ) ) c N N A A V V N N : a Q Z g ` O.+.o.+ ",
"y v.v.v.l.v.J.l.v.k.q - 8.&.I ) _ ) I ) H F C C ) ) ..( A V F H ....) ( U } N G ) C G c J U J C N V V V N 0 / ` Q a E / O.+.Q + ",
"y v.v.v.j.v.l.j.v.k.R R .X[.n.n.{.n.x.x.p.x.c.A.A.A.B.z.n.z.z.e.9.r.e.0.9.-.9.9.0.e.9...Z ( ) ) ( ' [ _ -.~ 9 f a R / o.+.#./ # ",
"u v.v.l.P.j.v.v.k.k.2.g q q q 2 2 9 9 q d 2 f R E E R E T T N T Z s Z d g s a f s d d 9 9 s a 0 q q 9 9 2 , g q 2 g j T R R g # ",
"u v.b.l.l.P.I.l.v.f.3.Q.$X$X X).T.T.I.I.l.j Q.Q.Y.K.I.P.P.P.E.P.J.J.J.J.J.J.l.h.d.d.o.O.$.3.5.5.3.3.3.3.3.5.3.#.#.O./ / o./ k # ",
"u K.l.k.h.l.P.l.g.S k.v.k.k.k.k.j.j.j.g.l.T j.g.d.f.f.f.d.f.$.h.d.5.$.5.$.3.3.3.#.#.^ o.$.$.$.@.3.3.2.3.3.2.$.$.$.#.#.#.#.2.X.. ",
"u l.l.v.v.P.J.l.$.f.l.j.l.l.l.l.P.l.l.j.h.d f.f.h.f.h.f.h.$.h.5.h.$.$.G.5.$.5.$.#.$.o.O.q.$.5.$.3.3.2.3.1.#.1.1.1.$.$.$.$.$.o.o ",
"u v.v.j.j.j.j.j.j.g.g.j.k.g.j.l.j.h.j.h.h.g d.h.h.f.f.h.5.h.$.h.$.J.$.$.5.$.$.#.#.#.o.#.$.$.$.$.3.$.3.$.$.#.#.#.#.$.@.$.#.+.X.+ ",
"u K.l.k.h.f.j.h.d.d.f.d.f.5.d.d.$.5.d.$.$.p h.6.d.6.5.6.5.5.5.$.5.5.$.#.#.#.%.#.#.#.W o.#.$.#.$.$.$.#.#.$.3.#.$.#.+.@.O.O.O.k # ",
"& = = $ * % * @ @ @ $ o @ @ o o o @ o o o   O $ @ @ @ @ @ @ @ @ @ $ o o . @ @ + o X . o @ @ $ $ $ $ * $ * * $ $ $ @ $ $ o . . & "
};
