/* XPM */
static char *wall51711326194[] = {
/* columns rows colors chars-per-pixel */
"64 64 189 2 ",
"   c #160700",
".  c #170A01",
"X  c #190800",
"o  c #210B02",
"O  c #261200",
"+  c #291404",
"@  c #28170A",
"#  c #2B1D0E",
"$  c #291D14",
"%  c #2F210E",
"&  c #2D2319",
"*  c #342514",
"=  c #352817",
"-  c #3B2B12",
";  c #34271B",
":  c #39271A",
">  c #352A1D",
",  c #3C2C1C",
"<  c #362B22",
"1  c #3A2D23",
"2  c #3C3125",
"3  c #373129",
"4  c #3C322A",
"5  c #3F3630",
"6  c #3B3A35",
"7  c #3E3D39",
"8  c #402917",
"9  c #412F1B",
"0  c #42311D",
"q  c #4B371F",
"w  c #402E22",
"e  c #443424",
"r  c #493622",
"t  c #4B3A26",
"y  c #41352B",
"u  c #44392B",
"i  c #4C3C2B",
"p  c #533F27",
"a  c #513E2A",
"s  c #423A31",
"d  c #4D3E31",
"f  c #433E3A",
"g  c #513E30",
"h  c #53422D",
"j  c #58422B",
"k  c #4E4233",
"l  c #45433E",
"z  c #4D443B",
"x  c #544433",
"c  c #584632",
"v  c #5C4934",
"b  c #5A4738",
"n  c #54483C",
"m  c #5D4C3C",
"M  c #624D36",
"N  c #624F3C",
"B  c #64513D",
"V  c #6B553E",
"C  c #454543",
"Z  c #484643",
"A  c #464843",
"S  c #494945",
"D  c #4C4C4A",
"F  c #524F48",
"G  c #575654",
"H  c #614F40",
"J  c #645342",
"K  c #6A5643",
"L  c #6C5A45",
"P  c #64574A",
"I  c #65594C",
"U  c #6B5B4A",
"Y  c #715D45",
"T  c #715D49",
"R  c #74634E",
"E  c #7A644C",
"W  c #79684D",
"Q  c #756553",
"!  c #7A6654",
"~  c #7D6A54",
"^  c #736A5C",
"/  c #7C6B5A",
"(  c #7C7463",
")  c #816C55",
"_  c #816E5B",
"`  c #85725D",
"'  c #8B755E",
"]  c #857462",
"[  c #897563",
"{  c #857867",
"}  c #8C7A65",
"|  c #8D7C69",
" . c #927D66",
".. c #927E6A",
"X. c #917F70",
"o. c #8F806C",
"O. c #938067",
"+. c #94826D",
"@. c #9A856D",
"#. c #878171",
"$. c #8B8577",
"%. c #968472",
"&. c #998572",
"*. c #9C8A74",
"=. c #9E8C79",
"-. c #A28D75",
";. c #A18E7A",
":. c #A49077",
">. c #A5927C",
",. c #AA967D",
"<. c #AB997F",
"1. c #A69481",
"2. c #AA9782",
"3. c #AE9A83",
"4. c #A49B8A",
"5. c #AE9E8A",
"6. c #B29D85",
"7. c #B29E89",
"8. c #A89D92",
"9. c #B5A186",
"0. c #B9A287",
"q. c #B5A28A",
"w. c #BAA58C",
"e. c #BDA98E",
"r. c #A9A292",
"t. c #B7A691",
"y. c #BAA691",
"u. c #BEAA91",
"i. c #B4AB99",
"p. c #BDAD9B",
"a. c #BBB29F",
"s. c #C1AA8F",
"d. c #C2AD93",
"f. c #C1AF99",
"g. c #C5B196",
"h. c #C9B297",
"j. c #C5B39A",
"k. c #CAB59C",
"l. c #CCB99E",
"z. c #D0B99D",
"x. c #C5B5A2",
"c. c #CAB6A1",
"v. c #CDBBA2",
"b. c #C5BEAC",
"n. c #CFBFA9",
"m. c #D1BEA4",
"M. c #D2BFA9",
"N. c #CEC0A6",
"B. c #CFC0A8",
"V. c #D4C0A6",
"C. c #D5C3AA",
"Z. c #D9C6AD",
"A. c #DAC9AF",
"S. c #CDC2B2",
"D. c #D5C5B1",
"F. c #D9C6B0",
"G. c #D5C9B5",
"H. c #DCCBB3",
"J. c #D4C6B9",
"K. c #D5CCBB",
"L. c #DECEBA",
"P. c #DFD0B9",
"I. c #E1CEB6",
"U. c #E1CFBB",
"Y. c #E1D1B7",
"T. c #E3D3BB",
"R. c #E9D7BF",
"E. c #E8D8BF",
"W. c #DCD4C3",
"Q. c #DEDACD",
"!. c #E5D6C0",
"~. c #E8D7C2",
"^. c #EBDAC4",
"/. c #E4DECD",
"(. c #EDDECA",
"). c #F1DEC8",
"_. c #EFE2CE",
"`. c #F3E3CC",
"'. c #F8E5CD",
"]. c #F9E9CF",
"[. c #EDE3D3",
"{. c #F2E6D4",
"}. c #F5E9D4",
"|. c #FAEBD4",
" X c #F4ECDB",
".X c #FAEEDD",
"XX c #FFF1DD",
"oX c #FDF4E3",
"OX c #F8F6ED",
/* pixels */
"S D D S S f 6 6 7 l C C D D D D D F A A A l D D D S A S C G S C D D A A A Z S Z S D Z Z S F Z S Z Z l l A l l A A A A A A A S A ",
"3 $.W. XoXoXoX.X X X#.^ 4 Q. X X{.[.}. X X X[./._.}..XW.I 4.r.S.K.K.K.G.J.S.B.S.b.x.t.4.4.k 3 (.[. X X}.}.[.[.Q.Q.K.a.i.( 5 < < ",
"OX!.T.T.T.Y.H.H.C.I.H.&.XX!.K.V.N.N.N.l.C.C.H.V.k.v.m.m.C.T |.Y.R.R.E.R.T.Y.T.R.T.I.Z.Z.F.C.! G.H.A.B.N.N.N.C.C.G.G.A.P.H.P.F.B.",
" XP.H.P.H.L.H.H.C.F.V.R oXP.C.n.k.l.a.l.C.c.v.N.V.k.f.h.v.i }.Y.H.I.C.C.C.H.C.C.H.M.A.A.C.M.) I.C.N.v.v.l.j.N.l.l.l.k.l.l.g.k.x.",
"J.L.I.I.I.H.H.F.C.Z.j.R |.H.C.A.k.w.p.l.j.u.l.V.l.g.d.j.l.0 }.H.H.C.C.C.v.C.C.Z.Z.v.m.m.k.v.` I.N.v.m.m.l.k.l.k.l.l.j.k.k.z.V.j.",
"p.H.H.I.H.Z.Z.C.V.m.f.` ).H.Z.A.k.e.g.j.j.e.l.g.k.h.l.l.N., }.F.D.A.Z.C.m.m.V.V.C.m.m.m.v.m.) T.V.V.m.z.l.l.l.l.l.l.k.k.l.l.v.{ ",
"8.G.H.F.Z.Z.C.C.v.v.j.&.C.l.V.v.k.u.l.j.u.k.g.p.u.g.g.j.O.t }.H.Z.Z.C.V.N.l.C.V.V.V.m.l.k.m.[ R.N.l.l.k.l.v.k.l.l.k.k.l.k.k.j._ ",
"1.J.H.C.Z.V.Z.C.k.v.k...x.c.j.k.d.g.p.p.u.g.u.e.u.u.w.' +.h }.H.C.A.V.m.N.N.V.V.V.M.m.v.l.M.&.T.l.k.l.k.l.k.k.l.k.j.h.k.k.k.j.U ",
"^ H.A.C.F.C.D.V.k.l.k.&.*.c.7.' O.' O.' ~ ) W Y Y Y Y Y ! t |.A.V.C.V.N.m.V.v.v.V.v.z.l.l.C...I.l.h.z.l.l.j.j.l.k.j.g.j.j.l.j.Y ",
"z P.C.N.C.V.C.N.k.k.j.=.] B ^.|.|.XX].|.].].`.].].].'.'.`.e ].D.V.C.V.V.m.m.v.V.c.v.l.k.f.C.! H.l.j.l.j.l.g.a.k.j.u.l.a.l.u.w.L ",
"> H.C.V.C.C.V.v.j.k.x.*.M `.I.C.u.q.q.a.k.V.v.g.d.e.e.e.e., `.C.m.V.V.v.v.c.v.v.v.v.k.k.k.m.Q H.l.j.j.j.u.u.a.u.a.u.w.q.t.e.t.Y ",
"& A.C.B.C.B.c.k.j.u.u.=.~ I.T.C.V.V.N.k.l.k.h.g.d.d.d.e.u.0 _.V.m.N.V.v.v.l.v.c.k.k.j.j.j.x.L A.l.l.l.j.u.a.u.u.e.w.q.t.9.9.5.m ",
"> C.V.B.C.V.c.x.j.w.p.5.[ Z.H.m.N.v.v.v.k.g.g.h.d.d.e.e.w., _.V.N.v.m.l.v.l.l.k.k.k.d.j.g.q.B C.l.k.k.e.u.p.u.q.2.6.t.q.5.<.4.B ",
"< C.V.N.V.v.k.c.p.w.u.3.K C.C.v.v.v.v.v.i.g.p.p.g.u.e.e.u., ^.N.V.k.m.m.v.l.k.k.k.j.j.j.p.2.m D.l.l.q.q.e.6.>.<.3.5.3.3.<.5.5.m ",
"< V.C.v.V.v.k.k.w.w.u.q.v m.m.v.l.k.l.p.g.g.g.g.g.e.d.u.u.e _.B.v.l.N.l.l.k.k.j.k.d.j.j.j.} H n ~ ~ / ` ~ / / ` #.' { ] ` / W B ",
"< N.B.c.N.v.c.x.w.q.u.3.M v.v.m.v.l.h.u.g.p.g.g.d.f.f.e.u.i (.v.l.l.l.l.l.j.k.k.f.d.j.f.u./ J / p.A.l.a.a.t.<.%.O.` ` o.O.O.( L ",
"4 B.N.l.v.N.m.w.7.7.w._ v c.c.m.z.j.f.g.u.j.g.u.d.f.h.d.q.g ).v.l.l.v.k.j.j.j.j.d.d.f.j.3.! J '.A.A.A.A.Z.H.A.Z.A.A.F.C.C.C.H.m ",
"6 C.v.c.c.v.m.3.6.6.7.v M m.h.m.k.d.h.d.j.f.d.u.d.h.d.d.7.i (.v.l.l.l.l.j.j.k.g.d.f.g.f.2.Q H ).V.j.g.h.k.k.j.f.k.j.j.k.N.V.A.m ",
"4 B.c.j.k.v.w.3.3.3.6.9 } M.z.d.u.d.f.f.f.j.e.w.w.d.d.e.7.b L.k.l.l.k.g.p.p.g.g.e.f.f.u.2.J b ^.k.k.h.h.f.k.c.f.k.j.g.k.v.c.k.Q ",
"6 V.j.j.k.v.6.,.-.,. .c d.7.z.s.d.d.s.s.w.u.e.u.s.s.7.s.q.U G.j.h.p.k.0.u.e.u.f.u.d.w.u.3.N N ~.k.g.g.p.h.v.k.k.j.j.j.j.j.j.g.*.",
"u k.l.m.v.h.,.-.>.&.N Y 6.9.s.h.d.d.w.w.0.0.e.w.3.3.6.0.5.J N d.p.9.e.<.h.u.u.j.h.u.w.u.3.b N I.g.u.d.d.d.j.d.u.u.j.p.p.u.u.p.>.",
"6 ~ E Y L M V V M j N V M M L E )  .@. ._ [ 1. ._ ..@.-.K m = :.:.' B t B | B j r 9 9 q p a e r j M W =.3.;.3.1.3.3.u.q.u.p.t.+.",
"2 {.{.~.L.v.m.H.G.G.D.n.j.c.v.i.,.=.| _ ! e i N %.p.p.a.x.x.v.v.v.3.n U { r T.`.).).^.R.R.).).).`.`.`.Y.D.1.t K ^.^.t.% * x 0 b ",
"2 T.Y.Y.L.Y.G.C.L.!.T.~.T.R.T.T.!.^.^.^.G.w.- U.I.T.T.Y.R.T.T.T.^.T.Y._.! (.v.A.Z.C.V.V.M.M.M.Z.N.V.A.V.Z.C.^.M C.v.D.C.v.j.C.m ",
"3 T.C.C.V.m.V.H.C.B.v.D.N.l.l.V.m.k.k.c.h.u.* H.C.m.l.l.l.z.k.l.k.h.k.c.k !.Z.C.m.m.m.m.m.z.v.m.m.m.m.m.m.C.m.t F.v.N.v.v.p.g.h ",
"< P.C.C.Z.V.V.v.v.C.C.C.l.v.l.c.l.k.l.v.l.q.= Y.Z.l.l.m.z.l.h.j.l.h.k.g.N !.Z.V.m.m.z.m.m.m.k.k.l.z.z.M.k.c.c.L P.B.c.v.c.u.q., ",
"< P.F.B.C.M.m.m.v.V.V.v.v.c.v.l.c.l.v.v.k.t.9 T.C.z.z.v.l.k.k.h.k.g.g.j.~ (.H.Z.m.m.m.c.z.v.v.f.j.v.z.l.k.k.k./ P.n.c.v.k.y.6.B ",
"< G.V.v.C.N.v.N.N.C.v.c.k.k.c.v.l.l.j.j.f.q.9 !.V.l.l.l.l.k.k.j.j.g.s.u.} ^.H.V.M.m.z.v.z.v.z.h.k.l.l.d.k.h.f.] n.v.v.v.l.u.3.+.",
"> C.N.v.v.v.v.v.N.V.l.k.l.v.k.k.k.k.d.d.d.6., ^.z.l.l.l.l.h.k.j.g.s.u.e.+.~.F.F.Z.v.v.z.l.m.k.d.f.k.k.k.k.h.f.| 1.n.c.c.v.t.9.5.",
"> D.V.v.v.v.v.v.v.l.j.k.l.l.j.k.k.d.d.e.u.3.e T.z.l.k.l.k.k.k.j.d.g.e.t.%.H.F.C.m.z.v.z.k.c.d.k.k.h.d.h.k.k.k./ t.v.k.k.j.5.6.w.",
"> C.N.m.v.v.v.l.v.k.k.j.k.k.h.h.f.d.d.d.w.*.k R.l.l.k.h.k.g.h.h.d.s.e.q.X.^.M.M.m.m.l.h.k.f.k.k.k.k.k.h.j.j.j.m Y.c.c.k.f.w.6.q.",
"< v.v.v.v.k.v.l.k.h.h.j.j.j.j.f.d.d.s.d.w.@.h Y.z.l.h.h.h.g.g.g.s.s.e.7.| U.m.z.m.l.k.k.k.d.f.h.h.k.h.h.h.d.p.e I.k.l.l.f.0.6.7.",
"2 v.c.l.l.l.h.g.k.k.k.k.h.h.d.e.d.d.w.w.d.+.x H.z.j.h.g.h.d.h.d.s.e.s.<.+.G.N.l.l.k.l.k.h.g.u.u.h.j.h.h.u.q.7., H.k.k.k.j.t.3.7.",
"2 v.v.v.l.h.d.g.h.h.j.h.j.s.e.u.g.e.e.s.u.} e F.k.g.g.g.h.e.f.s.e.u.e.,.*.P.v.k.l.h.k.h.j.g.u.e.e.w.w.q.u.u.q.e H.x.x.j.u.q.,.7.",
"< B.v.l.l.h.g.g.g.h.g.u.e.e.e.d.g.s.e.g.d.[ e C.k.g.g.e.g.6.s.s.e.e.u.:.;.D.l.k.k.k.h.h.h.u.w.u.d.q.q.u.e.w.6.0 H.k.j.j.w.6.3.6.",
"1 N.c.k.k.f.g.g.g.u.w.e.e.w.e.e.e.e.s.u.0./ e V.k.u.g.h.w.9.s.w.e.e.e.-.4.x.l.k.l.j.h.k.g.q.w.w.7.q.q.q.w.q.<., H.k.u.u.w.6.3.3.",
"3 B.c.j.g.u.h.u.e.u.u.e.u.u.e.9.0.0.w.0.w.o.= N.g.d.g.d.6.d.s.w.0.s.w.:.>.1.k.k.k.h.g.s.e.9.5.<.6.6.6.6.6.6.,.0 F.d.y.7.6.6.1.,.",
"< v.k.g.e.d.j.9.q.e.w.w.w.q.9.w.e.e.e.9.6./ % v.g.s.s.s.s.w.s.w.0.s.6.6.>.i l.k.k.w.w.6.6.9.<.3.,.,.6.6.6.,.-.0 M.d.7.s.6.6.,.>.",
"4 B.c.j.u.j.j.q.u.e.q.e.u.t.q.w.t.p.e.q.6.t 2 g.e.w.d.0.d.f.d.7.*.O.6.u./ r f.u.u.e.w.6.<.<.<.2.3.<.,.3.3.3.>.1 M.u.u.7.3.6.>.-.",
"f n r i i h h k h h k i i i t i i t t i h e c c h q h j a a i a x v d e u d 0.6.q.q.5.6.2.>.3.3.<.,.:.1.7.7.=., M.7.w.7.6.7.7.-.",
"l _.`._.R.R.P.P.H.H.H.H.H.R.Z.H.C.V.m.v.f.u.j.u.d.w.d.u.u.8.] F P P I I n I +.L h c h h h h q h p c B L m K J L L K a : # + O X ",
"l B.V.Z.m.Z.m.m.m.m.V.Z.m.V.Z.M.M.m.m.m.m.M.Z.C.M.M.m.h.0.w.v.d / O.{ / R R / =.5.5.P.P.P.Y.A.C.v.Z.M.d.j.d.q.7.y.w.c.I.l.v.v.*.",
"l D.V.C.V.m.m.v.V.m.m.M.m.k.u.d.d.d.d.s.e.e.d.d.h.h.s.s.0.s.k.m C.z.H.E.A.Y.H.A.z.l.k.l.z.N.V.V.Z.Z.m.M.v.m.m.m.M.m.c.f.7.u.s.%.",
"l P.Z.V.C.V.m.V.M.z.m.h.e.e.d.d.h.d.d.d.d.e.e.w.s.s.7.s.d.s.f.N A.z.V.N.l.s.V.k.z.l.z.l.k.k.z.l.k.k.h.s.s.d.d.d.d.0.s.s.6.7.y.! ",
"f Z.k.s.e.d.d.h.k.k.d.d.d.d.d.s.f.d.u.u.e.w.w.w.w.y.7.7.e.w.f.m A.z.l.V.V.l.h.h.k.k.j.z.z.g.l.k.g.e.d.e.d.d.s.s.e.w.w.0.6.s.y.g ",
"C H.k.d.f.d.d.d.d.s.d.d.d.d.y.s.s.s.0.e.w.w.w.u.s.s.s.7.w.u.u.H H.l.h.V.z.h.g.g.u.u.g.g.j.g.l.g.w.s.w.e.d.d.e.e.w.0.y.q.,.s.y.8 ",
"f C.k.d.d.d.d.u.d.d.d.d.d.s.d.u.s.u.e.w.w.e.w.w.7.7.s.s.7.0.u.m A.h.h.V.g.h.h.g.g.g.g.g.g.g.g.e.d.e.e.e.s.d.e.e.w.e.u.w.-.y.t.: ",
"s C.f.s.d.u.u.s.s.d.s.f.s.s.d.s.u.w.t.0.u.u.e.q.7.7.w.7.s.7.t.H Z.z.h.h.g.s.g.g.g.e.e.e.u.0.e.e.s.e.e.e.0.e.w.0.0.7.u.7.-.w.7.  ",
"4 M.d.d.s.w.s.d.d.s.d.u.y.s.d.y.e.e.e.d.u.e.w.w.w.w.q.7.<.6.e.H Z.j.h.h.h.s.s.d.s.d.e.e.e.e.u.u.e.w.e.d.e.e.w.e.w.w.e.q.9.5.2.. ",
"1 M.s.d.s.w.s.s.d.s.d.y.w.s.y.d.w.e.0.e.e.w.w.0.q.0.6.6.6.0.7.H Z.g.g.g.g.g.d.g.u.d.e.s.w.w.e.u.e.w.e.w.w.9.0.w.w.w.t.6.w.t.%.. ",
"1 M.d.s.y.s.w.w.s.s.d.d.s.s.s.y.e.w.u.w.0.w.0.0.w.q.6.6.6.6.5.b Z.d.d.g.d.d.d.d.e.s.e.w.e.w.w.e.e.e.e.w.w.w.9.q.0.w.w.9.6.i.{ o ",
"1 v.s.s.s.w.s.s.y.s.s.d.s.w.y.w.u.u.0.e.y.7.w.w.0.7.3.6.6.q.7.g Z.d.e.g.g.s.e.d.e.e.w.w.w.e.u.0.w.w.9.w.e.w.9.q.9.w.w.9.3.3.| + ",
"3 M.s.s.s.s.w.w.s.w.s.s.w.w.w.w.u.w.0.e.w.w.9.6.7.6.6.3.<.9.u.w m.k.d.s.h.u.e.u.e.e.w.w.w.e.w.q.w.q.w.q.q.e.q.9.q.q.0.q.5.%. .9 ",
"< M.s.w.y.y.w.w.7.s.w.7.y.7.w.w.w.q.w.0.q.0.6.<.3.6.3.,.,.<.p., V.h.s.d.e.u.e.e.e.e.9.w.e.w.0.w.w.9.q.q.q.q.q.6.q.q.q.7.3.[  .K ",
"< M.s.s.w.w.w.w.s.w.w.0.w.7.w.y.0.0.q.0.0.q.3.6.6.,.3.3.<.<.u., Z.f.d.d.e.e.e.e.w.e.w.w.e.w.t.w.w.q.q.9.q.9.6.6.6.q.7.0.6.] ` ) ",
"< M.7.w.7.w.0.w.w.7.w.7.w.w.s.7.6.q.9.9.q.q.3.6.3.3.6.6.,.<.7.: Z.s.s.e.e.e.w.q.e.9.w.9.w.7.w.q.9.q.9.9.9.6.3.q.6.6.6.7.1.! ! ' ",
"y c.0.w.0.w.w.e.7.7.<.s.6.s.6.7.w.7.6.0.w.q.6.3.3.3.3.3.,.,.7., M.d.s.7.s.0.0.7.w.q.0.q.7.7.0.0.q.9.6.6.6.3.6.3.3.6.6.3.>./ ! @.",
"1 c.w.0.0.0.w.0.s.7.s.6.<.6.6.6.6.6.7.0.q.7.3.<.6.6.6.3.>.>.5.w v.s.s.7.s.0.s.0.6.9.w.6.0.7.7.6.6.6.6.3.<.6.3.3.6.3.3.3.&./ ! [ ",
"y c.0.w.0.0.0.6.0.s.6.6.6.6.6.6.6.6.7.6.q.3.6.6.3.3.,.,.-.,.2.w v.s.7.s.0.7.7.7.6.9.6.6.7.q.6.6.6.6.<.6.3.<.3.6.3.6.6.3. ./ / ! ",
"4 j.e.e.6.7.w.0.6.6.<.6.6.,.,.6.6.6.6.6.6.6.6.-.3.3.,.,.-.,.;.1 v.7.7.7.7.s.7.6.6.6.9.6.6.9.6.6.6.3.6.3.6.9.6.6.,.<.6.,.] / _ 8 ",
"y j.7.6.<.<.0.6.,.6.6.3.,.,.,.<.6.6.6.6.6.6.,.-.<.,.,.,. .;.1., M.e.6.6.<.<.<.s.9.3.6.6.6.6.7.3.6.6.6.,.3.6.3.,.,.2.3.&.] ] / + ",
"s d.6.3.3.6.9.,.,.3.-.-.,.,.,.,.3.3.3.6.6.6.,.&.-.:.,.-.+.*.;., m.0.6.3.<.s.0.<.9.6.9.3.6.2.,.*.;.6.6.6.6.>.-.@... . . .&.] ^ @ ",
"z t.7.6.9.q.3.2.,.@...&.&.&.-.3.3.3.1.2.2.1.;.%.%.%.&.&.%.&.&.1 F.q.1.6.7.s.0.w.9.6.q.3.:.3.3.5.7.5.3.;.-.=.=.-.-.&.-.X.| { d $ ",
"F f 4 : , 1 e u i u y w w 1 : 8 # * , 1 < , 1 1 > 1 : 1 1 1 ; $ w * : e y e i t 2 1 2 u d i d i d i i g g d u d g i u u 4 , ; $ "
};
