/* XPM */
static const char *aWRsZV82[] = {
/* columns rows colors chars-per-pixel */
"64 64 167 2 ",
"   c #2A1D0D",
".  c #301F0F",
"X  c #2D1F10",
"o  c #34200E",
"O  c #2F2112",
"+  c #322414",
"@  c #362718",
"#  c #372819",
"$  c #3A2B1B",
"%  c #3E2F21",
"&  c #3F3022",
"*  c #482B17",
"=  c #422D1B",
"-  c #4B2F1A",
";  c #562B11",
":  c #5B2E13",
">  c #42311F",
",  c #5E3116",
"<  c #633216",
"1  c #643519",
"2  c #65391C",
"3  c #6F391E",
"4  c #743B1F",
"5  c #402F22",
"6  c #413122",
"7  c #4A3627",
"8  c #4A3925",
"9  c #4C3929",
"0  c #5E3C2A",
"q  c #553E28",
"w  c #663F2C",
"e  c #7B3F24",
"r  c #3A4A32",
"t  c #56402D",
"y  c #59412C",
"u  c #5C4531",
"i  c #5E4C38",
"p  c #6D422F",
"a  c #6F4527",
"s  c #7F4126",
"d  c #79422A",
"f  c #73492B",
"g  c #614933",
"h  c #684E37",
"j  c #694F38",
"k  c #664A34",
"l  c #764531",
"z  c #6A5135",
"x  c #6B5239",
"c  c #72563D",
"v  c #76583D",
"b  c #785A3F",
"n  c #7F5F43",
"m  c #4B644A",
"M  c #536E54",
"N  c #5D7E5D",
"B  c #636348",
"V  c #7A6547",
"C  c #85452A",
"Z  c #8D492E",
"A  c #814227",
"S  c #944D32",
"D  c #984F34",
"F  c #885D3A",
"G  c #9A5136",
"H  c #9C543A",
"J  c #A3553B",
"K  c #A7583D",
"L  c #AC5B3F",
"P  c #88603F",
"I  c #AD5B40",
"U  c #836244",
"Y  c #8C6746",
"T  c #8A6748",
"R  c #8E6A4A",
"E  c #87694A",
"W  c #946E4D",
"Q  c #9D6D44",
"!  c #96714F",
"~  c #99724F",
"^  c #8A7D5A",
"/  c #947453",
"(  c #9C7552",
")  c #9E7955",
"_  c #9C7F59",
"`  c #A86346",
"'  c #A27B56",
"]  c #A57E59",
"[  c #A87F59",
"{  c #AE7E52",
"}  c #B97554",
"|  c #5A8664",
" . c #569672",
".. c #608264",
"X. c #768764",
"o. c #749370",
"O. c #A68057",
"+. c #AB835C",
"@. c #B1875E",
"#. c #B2885F",
"$. c #808563",
"%. c #AF8E68",
"&. c #AC8862",
"*. c #B38B62",
"=. c #BA8E64",
"-. c #BC9265",
";. c #B39169",
":. c #BC9469",
">. c #BB996F",
",. c #BD9B71",
"<. c #8DA47B",
"1. c #BFA073",
"2. c #BCA57B",
"3. c #C4865F",
"4. c #C29365",
"5. c #C39669",
"6. c #C5996B",
"7. c #CA9D6E",
"8. c #D39266",
"9. c #C99F71",
"0. c #D4A16E",
"q. c #C3A277",
"w. c #CEA172",
"e. c #CBAA7D",
"r. c #CBA578",
"t. c #D3A473",
"y. c #DAAA76",
"u. c #D0AA7A",
"i. c #DCAD7A",
"p. c #D1A479",
"a. c #DCB27F",
"s. c #E3B27D",
"d. c #E8B67F",
"f. c #5CA982",
"g. c #6CA680",
"h. c #78BF93",
"j. c #7DD3A4",
"k. c #74EBB9",
"l. c #75F4C1",
"z. c #DEAE80",
"x. c #CFB182",
"c. c #D3B485",
"v. c #DBB381",
"b. c #DBBD8C",
"n. c #DABF90",
"m. c #E3B580",
"M. c #E9B780",
"N. c #EDBA82",
"B. c #E8BF89",
"V. c #E3BA85",
"C. c #F2BE85",
"Z. c #DCC18F",
"A. c #DDC694",
"S. c #E4C28D",
"D. c #F5C187",
"F. c #F5C48A",
"G. c #F5C98F",
"H. c #E3C692",
"J. c #EFC790",
"K. c #E8CB98",
"L. c #F5CC93",
"P. c #EBD19D",
"I. c #F5D29A",
"U. c #F5DDA6",
"Y. c #F5DCA5",
"T. c None",
"R. c black",
/* pixels */
"T.T.T.T.T.T.T.T.T.T.T.T.T.T.T.T.T.T.T.T.T.T.T.T.T.T.T.T.T.T.T.T.T.T.T.T.T.T.T.T.T.T.T.T.T.T.T.T.T.T.T.T.T.T.T.T.T.T.T.T.T.T.T.T.",
"T.T.T.T.T.T.T.T.T.T.T.T.T.T.T.T.T.T.T.T.T.T.T.T.T.T.T.T.T.T.T.T.T.T.T.T.T.T.T.T.T.T.T.T.T.T.T.T.T.T.T.T.T.T.T.T.T.T.T.T.T.T.T.T.",
"T.T.T.T.T.T.T.T.T.T.T.T.T.T.T.T.T.T.T.T.T.T.T.T.T.T.T.T.T.T.T.T.T.T.T.T.T.T.T.T.T.T.T.T.T.T.T.T.T.T.T.T.T.T.T.T.T.T.T.T.T.T.T.T.",
"T.T.T.T.T.T.T.T.T.T.T.T.T.T.T.T.T.T.T.T.T.T.T.T.T.T.T.T.T.T.T.T.T.T.T.T.T.T.T.T.T.T.T.T.T.T.T.T.T.T.T.T.T.T.T.T.T.T.T.T.T.T.T.T.",
"T.T.T.T.T.T.T.T.T.T.T.T.T.T.T.T.T.T.T.T.T.T.T.T.T.T.T.T.T.T.T.T.T.T.T.T.T.T.T.T.T.T.T.T.T.T.T.T.T.T.T.T.T.T.T.T.T.T.T.T.T.T.T.T.",
"T.T.T.T.T.T.T.T.T.T.T.T.T.T.T.T.T.T.T.T.T.T.T.T.T.T.T.T.T.T.T.T.T.T.T.T.T.T.T.T.T.T.T.T.T.T.T.T.T.T.T.T.T.T.T.T.T.T.T.T.T.T.T.T.",
"T.T.T.T.T.T.T.T.T.T.T.T.T.T.T.T.T.T.T.T.T.T.T.T.T.T.T.T.T.T.T.T.T.T.T.T.T.T.T.T.T.T.T.T.T.T.T.T.T.T.T.T.T.T.T.T.T.T.T.T.T.T.T.T.",
"T.T.T.T.T.T.T.T.T.T.T.T.T.T.T.T.T.T.T.T.T.T.T.T.T.T.T.T.T.T.T.T.T.T.T.T.T.T.T.T.T.T.T.T.T.T.T.T.T.T.T.T.T.T.T.T.T.T.T.T.T.T.T.T.",
"T.T.T.T.T.T.T.T.T.T.T.T.T.T.T.T.T.T.T.T.T.T.T.T.T.T.T.T.T.T.T.T.T.T.T.T.T.T.T.T.T.T.T.T.T.T.T.T.T.T.T.T.T.T.T.T.T.T.T.T.T.T.T.T.",
"T.T.T.T.T.T.T.T.T.T.T.T.T.T.T.T.T.T.T.T.T.T.T.T.T.T.T.T.T.T.T.T.T.T.T.T.T.T.T.T.T.T.T.T.T.T.T.T.T.T.T.T.T.T.T.T.T.T.T.T.T.T.T.T.",
"T.T.T.T.T.T.T.T.T.T.T.T.T.T.T.T.T.T.T.T.T.T.T.T.T.T.T.T.T.T.T.T.T.T.T.T.T.T.T.T.T.T.T.T.T.T.T.T.T.T.T.T.T.T.T.T.T.T.T.T.T.T.T.T.",
"T.T.T.T.T.T.T.T.T.T.T.T.T.T.T.T.T.T.T.T.T.T.T.T.T.T.T.T.T.T.T.T.T.T.T.T.T.T.T.T.T.T.T.T.T.T.T.T.T.T.T.T.T.T.T.T.T.T.T.T.T.T.T.T.",
"T.T.T.T.T.T.T.T.T.T.T.T.T.T.T.T.T.T.T.T.T.T.T.T.T.T.T.T.T.T.T.T.T.T.T.T.T.T.T.T.T.T.T.T.T.T.T.T.T.T.T.T.T.T.T.T.T.T.T.T.T.T.T.T.",
"T.T.T.T.T.T.T.T.T.T.T.T.T.6 T.T.T.T.T.T.T.T.T.T.T.T.T.T.T.T.T.T.T.T.T.T.T.T.T.T.T.T.T.T.T.T.T.T.T.T.T.T.T.T.T.T.T.T.T.T.T.T.T.T.",
"T.T.T.T.T.T.T.T.T.T.T.T.T.+ $ T.T.T.T.T.T.T.( ) Z.U.P.&.T.T.T.T.T.T.T.T.T.T.T.T.T.T.T.T.T.T.T.T.T.T.T.T.T.T.T.T.T.T.T.T.T.T.T.T.",
"T.T.T.T.T.T.T.T.T.T.T.T.T.  @ $ T.T.T.T.T.r.;.( q.c.x.q.c.T.T.T.T.T.T.T.T.T.T.T.T.T.T.T.T.T.T.T.T.T.T.T.T.T.T.T.T.T.T.T.T.T.T.T.",
"T.T.T.T.T.T.T.T.T.T.T.T.T.T.  + % T.T.T.N.L.b.] ) ' *.K.Y.Y.T.T.T.T.T.T.T.T.% % T.T.T.T.T.T.T.T.T.T.T.T.T.T.T.T.T.T.T.T.T.T.T.T.",
"T.T.T.T.T.T.T.T.T.T.T.T.T.T.T.X + $ T.T.+.i.J.H.*.>.H.G.G.G.T.T.T.T.T.T.T.5 @ O T.T.T.T.T.T.T.T.T.T.T.T.T.T.T.T.T.T.T.T.T.T.T.T.",
"T.T.T.T.T.T.T.T.T.T.T.T.T.T.T.T.. * ; a ~ =.9.e.9.a.L.F.i.7.T.T.T.T.T.T.$ # z ' C.I.U.T.T.T.T.T.T.T.T.T.T.T.T.T.T.T.T.T.T.T.T.T.",
"T.T.T.T.T.T.T.T.T.T.T.T.T.T.T.T.T.; ; 2 W +.] Y 4.0.0.0.4.+.T.T.T.T.T.$ > q O.s.s.S.H.H.T.T.T.T.T.T.T.T.T.T.T.T.T.T.T.T.T.T.T.T.",
"T.T.T.T.T.T.T.T.T.T.T.T.T.T.T.T.; ; ; 2 W x.1., 1 1 1 1 { N.T.T.T.T.& # 8 7.-.] ] ] ] +.s.L.U.T.T.T.T.T.T.T.U.U.U.T.T.T.T.T.T.T.",
"T.T.T.T.T.T.T.T.T.T.T.T.T.T.T.A ; ; ; 0 W c.2.- d Z Z Z 3.D.D.D.t.W > z +.-.*.T.T.T.T.T.-.i.L.T.T.T.T.T.T.F.L.v.,.T.T.T.T.T.T.T.",
"T.T.T.T.T.T.T.T.T.T.T.T.T.T.I S 3 : - u ! c.2.6 l H I I 8.F.L.m.w.;.V _ t.] T.T.T.T.T.T.( 4.i.T.T.T.T.T.F.C.i.-.( T.T.T.T.T.T.T.",
"T.T.T.T.T.T.T.T.T.T.T.T.T.L I L I T.T.T.( c.2.6 6 p L L 8.G.Y.,.,.U.U.e.( T.T.T.T.T.T.T.T.T.&.P.Y.Y.Y.G.C.M.+.T.T.T.T.T.T.T.T.T.",
"T.T.T.T.T.T.T.T.T.T.T.T.I I I L T.T.T.N.i.B.u.U q 7 0 0 %.H.:.w.m.L.Y.p.` T.T.T.T.T.T.T.T.T.T.;.;.;.;.=.*.*.T.T.T.T.T.T.T.T.T.T.",
"T.T.T.T.T.T.T.T.T.T.T.L I I I G T.T.4.N.t.w.7.5.U h x E ;.e.5.V.L.L.z.3.I I T.T.T.T.T.T.T.T.T.( ( ( ( ( ( ( T.T.T.T.T.T.T.T.T.T.",
"T.T.T.T.T.T.T.T.T.T.T.I I I K C ; ; Q t.+.+.:.d.=.[ @.i.6.=.C.H.A.n.} I I I I T.T.T.T.T.T.T.T.T.T.T.T.T.T.T.T.T.T.T.T.T.T.T.T.T.",
"T.T.T.T.T.T.T.T.T.T.I I I I e , ; ; 1 F y.S.c.+.t.d.i.*.7.M.D./ i g H I I I I I T.T.T.T.T.T.T.T.T.T.T.T.T.T.T.T.T.T.T.T.T.T.T.T.",
"T.T.T.T.T.T.T.T.T.T.L I J s < ; ; ; ; 2 R e.B.7.6.6.6.7.s.i.( u 6 6 w d C K I I I T.T.T.T.T.T.T.T.T.T.T.T.T.T.T.T.T.T.T.T.T.T.T.",
"T.T.T.T.T.T.T.T.T.T.I L S ; ; ; ; ; ; ; 6 ) 7.7.( U R :.7.+.7 6 6 6 6 * : Z D H I T.T.T.T.T.T.T.T.T.T.T.T.T.T.T.T.T.T.T.T.T.T.T.",
"T.T.T.T.T.T.T.T.T.T.T.T.T.T.T.T.T.T.T.T.T.7 7 7 7 7 7 7 7 7 6 6 6 6 6 # o ; : 4 L L I T.T.T.T.T.T.T.T.T.T.T.T.T.T.T.T.T.T.T.T.T.",
"T.T.T.T.T.T.T.T.T.T.T.T.T.T.T.T.T.T.T.T.T.T.T.T.5 6 6 6 6 6 6 6 6 6 6 @   T.T.1 4 G I I T.T.T.T.T.T.T.T.T.T.T.T.T.T.T.T.T.T.T.T.",
"T.T.T.T.T.T.T.T.T.T.T.T.T.T.T.T.T.T.T.T.T.T.T.T.T.$ $ % 6 6 6 6 6 6 $ +   T.T.T.; G I I T.T.T.T.T.T.T.T.T.T.T.T.T.T.T.T.T.T.T.T.",
"T.T.T.T.T.T.T.T.T.T.T.T.T.T.T.T.T.T.T.T.T.T.T.T.T.T.X $ % % % % % % O     T.T.T.T.L I I T.T.T.T.T.T.T.T.T.T.T.T.T.T.T.T.T.T.T.T.",
"T.T.T.T.T.T.T.T.T.T.T.T.T.T.T.T.T.T.T.T.T.T.T.T.T.T.  O O O O O O O       T.T.T.T.L I I T.T.T.T.T.T.T.T.T.T.T.T.T.T.T.T.T.T.T.T.",
"T.T.T.T.T.T.T.T.T.T.T.T.T.T.T.T.T.T.T.T.T.T.T.T.T.v y +                   T.T.T.T.L I I T.T.T.T.T.T.T.T.T.T.T.T.T.T.T.T.T.T.T.T.",
"T.T.T.T.T.T.T.T.T.T.T.T.T.T.T.T.T.T.T.T.T.T.T.T.! _ ^ 7 +             + = T.T.T.T.I K H T.T.T.T.T.T.T.T.T.T.T.T.T.T.T.T.T.T.T.T.",
"T.T.T.T.T.T.T.T.T.T.T.T.T.T.T.T.T.T.T.T.T.T.T.6 U <.j.^ y             y R ( T.T.I I S < T.T.T.T.T.T.T.T.T.T.T.T.T.T.T.T.T.T.T.T.",
"T.T.T.T.T.T.T.T.T.T.T.T.T.T.T.T.T.T.T.T.T.T.6 6 u B ../ U B  . .N x | X.( ( v p I I G T.T.T.T.T.T.T.T.T.T.T.T.T.T.T.T.T.T.T.T.T.",
"T.T.T.T.T.T.T.T.T.T.T.T.T.T.T.T.T.T.T.T.T.t y y 7 6 7 b U $.k.l.h.V g.o.U U x p S S S T.T.T.T.T.T.T.T.T.T.T.T.T.T.T.T.T.T.T.T.T.",
"T.T.T.T.T.T.T.T.T.T.T.T.T.T.T.T.T.T.T.T.6 b ( ( y 6 6 6 6 m k.l.f.O % 6 6 6 v P ; ; ; T.T.T.T.T.T.T.T.T.T.T.T.T.T.T.T.T.T.T.T.T.",
"T.T.T.T.T.T.T.T.T.T.T.T.T.T.T.T.T.T.T.T.-.w.y.y.6.' n n n V M m r   O $ 7 v Y W F f T.T.T.T.T.T.T.T.T.T.T.T.T.T.T.T.T.T.T.T.T.T.",
"T.T.T.T.T.T.T.T.T.T.T.T.T.T.T.T.T.T.T.D.D.G.L.L.L.v.=.' ( U 7 +       @ 9 W ( ( ( ( T.T.T.T.T.T.T.T.T.T.T.T.T.T.T.T.T.T.T.T.T.T.",
"T.T.T.T.T.T.T.T.T.T.T.T.T.T.T.T.T.T.F.D.F.I.U.U.U.I.M.@.) T 9 @       + 9 R ( ( ( ( ( T.T.T.T.T.T.T.T.T.T.T.T.T.T.T.T.T.T.T.T.T.",
"T.T.T.T.T.T.T.T.T.T.T.T.T.T.T.T.T.T.F.G.I.Y.U.U.U.I.C.d.-./ T t @       = Y ( ( ( ( ( T.T.T.T.T.T.T.T.T.T.T.T.T.T.T.T.T.T.T.T.T.",
"T.T.T.T.T.T.T.T.T.T.T.T.T.T.T.T.T.T.F.G.Y.U.U.U.U.I.D.D.6.( ( g $       $ Y ( ( ( ( ( T.T.T.T.T.T.T.T.T.T.T.T.T.T.T.T.T.T.T.T.T.",
"T.T.T.T.T.T.T.T.T.T.T.T.T.T.T.T.T.T.F.G.Y.U.U.U.U.I.D.D.6.( ( g $       $ Y ( ( ( ( ( ( T.T.T.T.T.T.T.T.T.T.T.T.T.T.T.T.T.T.T.T.",
"T.T.T.T.T.T.T.T.T.T.T.T.T.T.T.T.T.T.F.G.Y.U.U.U.U.I.D.D.6.( ( g $       $ Y ( ( ( ( ( ( ( T.T.T.T.T.T.T.T.T.T.T.T.T.T.T.T.T.T.T.",
"T.T.T.T.T.T.T.T.T.T.T.T.T.T.T.T.T.T.F.G.Y.U.U.U.I.G.N.7.+.( ( g $       $ Y ( ( ( ( ( ( ( ( T.T.T.T.T.T.T.T.T.T.T.T.T.T.T.T.T.T.",
"T.T.T.T.T.T.T.T.T.T.T.T.T.T.T.T.T.F.G.L.Y.U.U.U.G.D.M.+.( ( ( g $       $ Y ( ( ( ( ( ( ( ( T.T.T.T.T.T.T.T.T.T.T.T.T.T.T.T.T.T.",
"T.T.T.T.T.T.T.T.T.T.T.T.T.T.T.T.T.F.L.U.U.U.U.U.G.D.M.+.( ( ( g $       $ Y ( ( ( ( ( ( ( ( ( T.T.T.T.T.T.T.T.T.T.T.T.T.T.T.T.T.",
"T.T.T.T.T.T.T.T.T.T.T.T.T.T.T.T.T.F.F.L.Y.U.I.L.F.y.#.' ( ( ( g $       + T.( ( ( ( ( ( ( ( ( T.T.T.T.T.T.T.T.T.T.T.T.T.T.T.T.T.",
"T.T.T.T.T.T.T.T.T.T.T.T.T.T.T.T.T.t.s.F.I.I.L.D.y.=.( ( ( ( ( t $         T.T.( ( ( ( ( ( T c T.T.T.T.T.T.T.T.T.T.T.T.T.T.T.T.T.",
"T.T.T.T.T.T.T.T.T.T.T.T.T.T.T.T.T.( 5.N.D.D.C.M.@.( ( T.T.T.T.& $         T.T.T.( ( ( ( W j 6 6 T.T.T.T.T.T.T.T.T.T.T.T.T.T.T.T.",
"T.T.T.T.T.T.T.T.T.T.T.T.T.T.T.T.T.( ] -.N.D.i.+.' ( ( T.T.T.T.& $         T.T.T.T.( ( ! g 7 6 6 T.T.T.T.T.T.T.T.T.T.T.T.T.T.T.T.",
"T.T.T.T.T.T.T.T.T.T.T.T.T.T.T.T.T.( ( ] 5.6.=.( ( ( T.T.T.T.T.& $     T.T.T.T.T.T.T.U h 7 6 6 6 T.T.T.T.T.T.T.T.T.T.T.T.T.T.T.T.",
"T.T.T.T.T.T.T.T.T.T.T.T.T.T.T.T.T.( ( ( ( Y U U W T.T.T.T.T.T.6 $   T.T.T.T.T.T.T.T.T.6 6 6 % $ T.T.T.T.T.T.T.T.T.T.T.T.T.T.T.T.",
"T.T.T.T.T.T.T.T.T.T.T.T.T.T.T.T.T.( ( ( ( y + + T.T.T.T.T.T.T.T.T.T.T.T.T.T.T.T.T.T.T.T.& 6 $ O T.T.T.T.T.T.T.T.T.T.T.T.T.T.T.T.",
"T.T.T.T.T.T.T.T.T.T.T.T.T.T.T.T.T.T.T.T.T.$     T.T.T.T.T.T.T.T.T.T.T.T.T.T.T.T.T.T.T.T.T.# +     T.T.T.T.T.T.T.T.T.T.T.T.T.T.T.",
"T.T.T.T.T.T.T.T.T.T.T.T.T.T.T.T.T.T.T.T.T.@ + + T.T.T.T.T.T.T.T.T.T.T.T.T.T.T.T.T.T.T.T.T.T.        T.T.T.T.T.T.T.T.T.T.T.T.T.T.",
"T.T.T.T.T.T.T.T.T.T.T.T.T.T.T.T.T.T.T.T.6 6 6 & T.T.T.T.T.T.T.T.T.T.T.T.T.T.T.T.T.T.T.T.T.T.T.        T.T.T.T.T.T.T.T.T.T.T.T.T.",
"T.T.T.T.T.T.T.T.T.T.T.T.T.T.T.T.T.T.T.6 & 6 6 & T.T.T.T.T.T.T.T.T.T.T.T.T.T.T.T.T.T.T.T.T.T.T.          T.T.T.T.T.T.T.T.T.T.T.T.",
"T.T.T.T.T.T.T.T.T.T.T.T.T.T.T.T.T.T.T.& & & & 6 T.T.T.T.T.T.T.T.T.T.T.T.T.T.T.T.T.T.T.T.T.T.T.T.        T.T.T.T.T.T.T.T.T.T.T.T.",
"T.T.T.T.T.T.T.T.T.T.T.T.T.T.T.T.T.T.T.T.T.T.T.T.T.T.T.T.T.T.T.T.T.T.T.T.T.T.T.T.T.T.T.T.T.T.T.T.T.T.T.T.T.T.T.T.T.T.T.T.T.T.T.T."
};
