/* XPM */
static const char *aWRsZV83[] = {
/* columns rows colors chars-per-pixel */
"64 64 168 2 ",
"   c #2A1D0D",
".  c #2D1F10",
"X  c #2D200F",
"o  c #2E2111",
"O  c #332415",
"+  c #3A2A17",
"@  c #362819",
"#  c #3B2B1C",
"$  c #382716",
"%  c #3A331F",
"&  c #3F2F21",
"*  c #3F3022",
"=  c #373926",
"-  c #43250F",
";  c #572B0F",
":  c #4E2B14",
">  c #452F1C",
",  c #4C2D18",
"<  c #562B11",
"1  c #5A2C11",
"2  c #48341F",
"3  c #5C3014",
"4  c #633116",
"5  c #643318",
"6  c #6A361B",
"7  c #6B3A1E",
"8  c #713A1F",
"9  c #402F22",
"0  c #403022",
"q  c #493624",
"w  c #4D3A26",
"e  c #4E3B2A",
"r  c #533E2B",
"t  c #5E3C2A",
"y  c #683E20",
"u  c #613C26",
"i  c #773C22",
"p  c #7A3F24",
"a  c #38412B",
"s  c #5B442E",
"d  c #5C4531",
"f  c #60492F",
"g  c #6D4527",
"h  c #75492A",
"j  c #624A34",
"k  c #694F37",
"l  c #674F38",
"z  c #6A5038",
"x  c #695136",
"c  c #72563C",
"v  c #785639",
"b  c #575C45",
"n  c #635B42",
"m  c #7B5D41",
"M  c #436347",
"N  c #4D6C51",
"B  c #5A7659",
"V  c #6F6144",
"C  c #7B6040",
"Z  c #7F6C50",
"A  c #747E5E",
"S  c #854529",
"D  c #8A472C",
"F  c #924B2F",
"G  c #8B4C34",
"H  c #874C35",
"J  c #964E33",
"K  c #835836",
"L  c #9B5439",
"P  c #A4563B",
"I  c #A6583D",
"U  c #AC5B3F",
"Y  c #805F41",
"T  c #AD5B40",
"R  c #846344",
"E  c #8F6746",
"W  c #8C6A4A",
"Q  c #926D4C",
"!  c #996B43",
"~  c #96714E",
"^  c #8D7858",
"/  c #847A59",
"(  c #957351",
")  c #9C7552",
"_  c #9B7852",
"`  c #AE6849",
"'  c #A5754B",
"]  c #A37B56",
"[  c #A57E58",
"{  c #A87F59",
"}  c #B97252",
"|  c #588163",
" . c #7E9570",
".. c #61A17B",
"X. c #95825F",
"o. c #AB835C",
"O. c #A6805B",
"+. c #B48155",
"@. c #B1865C",
"#. c #B5895E",
"$. c #948E68",
"%. c #88906A",
"&. c #AB8760",
"*. c #AF8C64",
"=. c #A28D69",
"-. c #B38B62",
";. c #BA8F64",
":. c #BC9166",
">. c #B4936A",
",. c #B9956C",
"<. c #BE986D",
"1. c #BE9C72",
"2. c #BCA57C",
"3. c #C29366",
"4. c #C39669",
"5. c #C6996B",
"6. c #CB9D6E",
"7. c #CD936C",
"8. c #D29165",
"9. c #C39E71",
"0. c #CE9F70",
"q. c #D4A26E",
"w. c #C5A275",
"e. c #CEA070",
"r. c #C6A679",
"t. c #D2A473",
"y. c #D7A875",
"u. c #D9A977",
"i. c #DDAE79",
"p. c #E3B27C",
"a. c #6ED2A4",
"s. c #75F4C1",
"d. c #82AF85",
"f. c #87B98E",
"g. c #83BB90",
"h. c #D3B586",
"j. c #DBB382",
"k. c #DBBC8A",
"l. c #DDB884",
"z. c #E7B781",
"x. c #E9B780",
"c. c #E2B984",
"v. c #EDBB83",
"b. c #E4BE8A",
"n. c #E9BF89",
"m. c #F2BF85",
"M. c #83C598",
"N. c #DDC08F",
"B. c #DEC290",
"V. c #E6C18C",
"C. c #ECC28C",
"Z. c #F5C187",
"A. c #F5C38A",
"S. c #F5C88F",
"D. c #E2C794",
"F. c #EDC993",
"G. c #E6CC98",
"H. c #F5CB92",
"J. c #EBD19C",
"K. c #F5D29A",
"L. c #F5D69E",
"P. c #F5D39C",
"I. c #F5D097",
"U. c #F0D7A0",
"Y. c #F5DDA6",
"T. c #F5DCA5",
"R. c None",
"E. c black",
/* pixels */
"R.R.R.R.R.R.R.R.R.R.R.R.R.R.R.R.R.R.R.R.R.R.R.R.R.R.R.R.R.R.R.R.R.R.R.R.R.R.R.R.R.R.R.R.R.R.R.R.R.R.R.R.R.R.R.R.R.R.R.R.R.R.R.R.",
"R.R.R.R.R.R.R.R.R.R.R.R.R.R.R.R.R.R.R.R.R.R.R.R.R.R.R.R.R.R.R.R.R.R.R.R.R.R.R.R.R.R.R.R.R.R.R.R.R.R.R.R.R.R.R.R.R.R.R.R.R.R.R.R.",
"R.R.R.R.R.R.R.R.R.R.R.R.R.R.R.R.R.R.R.R.R.R.R.R.R.R.R.R.R.R.R.R.R.R.R.R.R.R.R.R.R.R.R.R.R.R.R.R.R.R.R.R.R.R.R.R.R.R.R.R.R.R.R.R.",
"R.R.R.R.R.R.R.R.R.R.R.R.R.R.R.R.R.R.R.R.R.R.R.R.R.R.R.R.R.R.R.R.R.R.R.R.R.R.R.R.R.R.R.R.R.R.R.R.R.R.R.R.R.R.R.R.R.R.R.R.R.R.R.R.",
"R.R.R.R.R.R.R.R.R.R.R.R.R.R.R.R.R.R.R.R.R.R.R.R.R.R.R.R.R.R.R.R.R.R.R.R.R.R.R.R.R.R.R.R.R.R.R.R.R.R.R.R.R.R.R.R.R.R.R.R.R.R.R.R.",
"R.R.R.R.R.R.R.R.R.R.R.R.R.R.R.R.R.R.R.R.R.R.R.R.R.R.R.R.R.R.R.R.R.R.R.R.R.R.R.R.R.R.R.R.R.R.R.R.R.R.R.R.R.R.R.R.R.R.R.R.R.R.R.R.",
"R.R.R.R.R.R.R.R.R.R.R.R.R.R.R.R.R.R.R.R.R.R.R.R.R.R.R.R.R.R.R.R.R.R.R.R.R.R.R.R.R.R.R.R.R.R.R.R.R.R.R.R.R.R.R.R.R.R.R.R.R.R.R.R.",
"R.R.R.R.R.R.R.R.R.R.R.R.R.R.R.R.R.R.R.R.R.R.R.R.R.R.R.R.R.R.R.R.R.R.R.R.R.R.R.R.R.R.R.R.R.R.R.R.R.R.R.R.R.R.R.R.R.R.R.R.R.R.R.R.",
"R.R.R.R.R.R.R.R.R.R.R.R.R.R.R.R.R.R.R.R.R.R.R.R.R.R.R.R.R.R.R.R.R.R.R.R.R.R.R.R.R.R.R.R.R.R.R.R.R.R.R.R.R.R.R.R.R.R.R.R.R.R.R.R.",
"R.R.R.R.R.R.R.R.R.R.R.R.R.R.R.R.R.R.R.R.R.R.R.R.R.R.R.R.R.R.R.R.R.R.R.R.R.R.R.R.R.R.R.R.R.R.R.R.R.R.R.R.R.R.R.R.R.R.R.R.R.R.R.R.",
"R.R.R.R.R.R.R.R.R.R.R.R.R.R.R.R.R.R.R.R.R.R.R.R.R.R.R.R.R.R.R.R.R.R.R.R.R.R.R.R.R.R.R.R.R.R.R.R.R.R.R.R.R.R.R.R.R.R.R.R.R.R.R.R.",
"R.R.R.R.R.R.R.R.R.R.R.R.R.R.R.R.R.R.R.R.R.R.R.R.R.R.R.R.R.R.R.R.R.R.R.R.R.R.R.R.R.R.R.R.R.R.R.R.R.R.R.R.R.R.R.R.R.R.R.R.R.R.R.R.",
"R.R.R.R.R.R.R.R.R.R.R.R.R.R.R.R.R.R.R.R.R.R.R.R.R.R.R.R.R.R.R.R.R.R.R.R.R.R.R.R.R.R.R.R.R.R.R.R.R.R.R.R.R.R.R.R.R.R.R.R.R.R.R.R.",
"R.R.R.R.R.R.R.R.R.R.R.R.R.0 R.R.R.R.R.R.R.) ) _ N.Y.J.&.R.R.R.R.R.R.R.R.R.R.R.R.R.R.R.R.R.R.R.R.R.R.R.R.R.R.R.R.R.R.R.R.R.R.R.R.",
"R.R.R.R.R.R.R.R.R.R.R.R.R.O # R.R.R.R.R.Z.b.r.) -.,.1.h.G.Y.R.R.R.R.R.R.R.0 R.R.R.R.R.R.R.R.R.R.R.R.R.R.R.R.R.R.R.R.R.R.R.R.R.R.",
"R.R.R.R.R.R.R.R.R.R.R.R.R.  O # R.R.R.R.t.V.V.1.O.&.r.F.K.K.R.R.R.R.R.R.R.@ R.R.R.R.R.R.R.R.R.R.R.R.R.R.R.R.R.R.R.R.R.R.R.R.R.R.",
"R.R.R.R.R.R.R.R.R.R.R.R.R.R.  O & R.R.R.) 6.C.J.,.r.L.S.m.v.R.R.R.R.R.& # X R.R.R.R.R.R.R.R.R.R.R.R.R.R.R.R.R.R.R.R.R.R.R.R.R.R.",
"R.R.R.R.R.R.R.R.R.R.R.R.R.R.R.. O : < y ~ { o.*.y.v.S.Z.e.o.R.R.R.R.9 @ o R.R.R.R.R.R.R.R.R.R.R.R.R.R.R.R.R.R.R.R.R.Z.Z.R.R.R.R.",
"R.R.R.R.R.R.R.R.R.R.R.R.R.R.R.R.- < < 7 Q ,.*.v ! ' ' ' #.6.R.R.R.& @ f _ i.K.Y.Y.Y.P.R.R.R.R.R.R.R.R.R.R.R.R.R.R.R.S.Z.R.R.R.R.",
"R.R.R.R.R.R.R.R.R.R.R.R.R.R.R.6 < < < u Q h.w.< 5 6 6 6 +.Z.R.R.R.# w ~ p.p.b.D.D.D.C.Z.R.R.R.R.R.R.R.R.R.R.R.R.R.D.c.p.R.R.R.R.",
"R.R.R.R.R.R.R.R.R.R.R.R.R.R.T D < < , r Q h.2.0 G I I I 8.Z.R.9 @ $ ;.5.] ] { { { { 4.Z.L.R.R.R.R.R.R.R.R.R.R.R.D.o.] ] R.R.R.R.",
"R.R.R.R.R.R.R.R.R.R.R.R.R.T T P D 6 $ q Q h.2.0 t H T T 8.Z.Z.( W o.;.-.R.R.R.R.R.R.#.4.n.K.R.R.R.R.R.R.R.R.Z.S.c.] ) R.R.R.R.R.",
"R.R.R.R.R.R.R.R.R.R.R.R.T T T T T R.x C >.k.r.d q u G G 3.C.y.4.0.m.w.,.R.R.R.R.R.R.R.] e.b.K.R.R.R.R.R.R.R.Z.p.e.] R.R.R.R.R.R.",
"R.R.R.R.R.R.R.R.R.R.R.U T T T T R.R.m.S.U.H.y.) d 0 0 q =.B.] y.Z.Z.L.U.R.R.R.R.R.R.R.R.) 5.m.m.R.R.R.R.R.m.m.5.) R.R.R.R.R.R.R.",
"R.R.R.R.R.R.R.R.R.R.R.U T T R.R.R.; +.z.,.-.4.y.) R W :.,.<.u.v.S.K.7.} T R.R.R.R.R.R.R.R.@.-.-.{ ) ) ) { -.-.o.R.R.R.R.R.R.R.R.",
"R.R.R.R.R.R.R.R.R.R.R.T T T S R.R.< K +.3.9.w.e.5.4.4.6.5.e.m.H.l.-.` T T R.R.R.R.R.R.R.R.R.) ) ) ) ) ) ) ) ) R.R.R.R.R.R.R.R.R.",
"R.R.R.R.R.R.R.R.R.R.U T T T 8 < < < < h q.F.k.o.y.x.p.-.t.n.i.k.-.1 G I T R.R.R.R.R.R.R.R.R.R.R.R.R.R.R.R.R.R.R.R.R.R.R.R.R.R.R.",
"R.R.R.R.R.R.R.R.R.R.U T T T 8 < < < < 3 g 3.Z.p.;.o.-.N.J.h.l g y < 4 S T T R.R.R.R.R.R.R.R.R.R.R.R.R.R.R.R.R.R.R.R.R.R.R.R.R.R.",
"R.R.R.R.R.R.R.R.R.R.U T T T 8 < < < R.< , v ( ( c z c ^ X.Z q > : < ; 8 S I T R.R.R.R.R.R.R.R.R.R.R.R.R.R.R.R.R.R.R.R.R.R.R.R.R.",
"R.R.R.R.R.R.R.R.R.R.T T T T i < < R.R.R.* 0 0 0 0 0 0 0 0 0 0 0 > < R.R.5 F P T R.R.R.R.R.R.R.R.R.R.R.R.R.R.R.R.R.R.R.R.R.R.R.R.",
"R.R.R.R.R.R.R.R.R.R.R.T T T R.R.R.R.R.R.* 0 0 0 0 0 0 0 0 0 0 0 0 0 R.R.R.1 D T T R.R.R.R.R.R.R.R.R.R.R.R.R.R.R.R.R.R.R.R.R.R.R.",
"R.R.R.R.R.R.R.R.R.R.R.R.R.R.R.R.R.R.R.R.R.O @ 0 0 0 0 0 0 0 0 0 # O R.R.R.R.8 S U T R.R.R.R.R.R.R.R.R.R.R.R.R.R.R.R.R.R.R.R.R.R.",
"R.R.R.R.R.R.R.R.R.R.R.R.R.R.R.R.R.R.R.R.R.R.O @ @ # 0 0 0 0 0 # O   R.R.R.R.R.i U T U R.R.R.R.R.R.R.R.R.R.R.R.R.R.R.R.R.R.R.R.R.",
"R.R.R.R.R.R.R.R.R.R.R.R.R.R.R.R.R.R.R.R.R.R.R.    O & & & & 9 O     R.R.R.R.R.R.U T U R.R.R.R.R.R.R.R.R.R.R.R.R.R.R.R.R.R.R.R.R.",
"R.R.R.R.R.R.R.R.R.R.R.R.R.R.R.R.R.R.R.R.R.R.R.      o o o o o       R.R.R.R.R.R.U T U R.R.R.R.R.R.R.R.R.R.R.R.R.R.R.R.R.R.R.R.R.",
"R.R.R.R.R.R.R.R.R.R.R.R.R.R.R.R.R.R.R.R.R.R.R.s s 2                 R.R.R.R.R.R.U T U R.R.R.R.R.R.R.R.R.R.R.R.R.R.R.R.R.R.R.R.R.",
"R.R.R.R.R.R.R.R.R.R.R.R.R.R.R.R.R.R.R.R.R.R.R.) X.V +     o + + % a R.R.R.R.R.R.T P L R.R.R.R.R.R.R.R.R.R.R.R.R.R.R.R.R.R.R.R.R.",
"R.R.R.R.R.R.R.R.R.R.R.R.R.R.R.R.R.R.R.R.R.0 j _ M.d.Y +   > R W %.a.$.R.R.R.R.T T p 4 R.R.R.R.R.R.R.R.R.R.R.R.R.R.R.R.R.R.R.R.R.",
"R.R.R.R.R.R.R.R.R.R.R.R.R.R.R.R.R.R.R.R.* * e l B A ~ c B ..g.$./ | n m R.R.U T T S R.R.R.R.R.R.R.R.R.R.R.R.R.R.R.R.R.R.R.R.R.R.",
"R.R.R.R.R.R.R.R.R.R.R.R.R.R.R.R.R.R.R.R.s s s s q d R ( f.s.s. .z 0 0 z ) R.L J J R.R.R.R.R.R.R.R.R.R.R.R.R.R.R.R.R.R.R.R.R.R.R.",
"R.R.R.R.R.R.R.R.R.R.R.R.R.R.R.R.R.R.R.R.( ( ( ( s 0 e W f.s.s.B 0 0 0 z ) ) h 1 1 R.R.R.R.R.R.R.R.R.R.R.R.R.R.R.R.R.R.R.R.R.R.R.",
"R.R.R.R.R.R.R.R.R.R.R.R.R.R.R.R.R.R.R.v.y.j.k.k.9.] m j b N M = @ 0 0 z ) ) E K R.R.R.R.R.R.R.R.R.R.R.R.R.R.R.R.R.R.R.R.R.R.R.R.",
"R.R.R.R.R.R.R.R.R.R.R.R.R.R.R.R.R.R.Z.Z.H.L.Y.Y.K.j.-.c r #     o @ & d m ( ) ) R.R.R.R.R.R.R.R.R.R.R.R.R.R.R.R.R.R.R.R.R.R.R.R.",
"R.R.R.R.R.R.R.R.R.R.R.R.R.R.R.R.R.Z.Z.H.U.Y.Y.Y.T.I.x.o.z #         # 0 e Q ) ) ) R.R.R.R.R.R.R.R.R.R.R.R.R.R.R.R.R.R.R.R.R.R.R.",
"R.R.R.R.R.R.R.R.R.R.R.R.R.R.R.R.R.Z.H.U.Y.Y.Y.Y.H.A.x.o.z #         # 0 e Q ) ) ) ) R.R.R.R.R.R.R.R.R.R.R.R.R.R.R.R.R.R.R.R.R.R.",
"R.R.R.R.R.R.R.R.R.R.R.R.R.R.R.R.Z.Z.H.Y.Y.Y.Y.Y.S.p.4.] z #         O # e Q ) ) ) ) ) R.R.R.R.R.R.R.R.R.R.R.R.R.R.R.R.R.R.R.R.R.",
"R.R.R.R.R.R.R.R.R.R.R.R.R.R.R.R.Z.S.K.Y.Y.Y.T.L.S.e.) ) z #           O e Q ) ) ) ) ) R.R.R.R.R.R.R.R.R.R.R.R.R.R.R.R.R.R.R.R.R.",
"R.R.R.R.R.R.R.R.R.R.R.R.R.R.R.R.Z.L.Y.Y.Y.Y.L.A.Z.e.) ) z #           O e Q ) ) ) ) ) ) R.R.R.R.R.R.R.R.R.R.R.R.R.R.R.R.R.R.R.R.",
"R.R.R.R.R.R.R.R.R.R.R.R.R.R.R.R.A.U.Y.Y.Y.K.S.Z.e.@.) ) z #           O e Q ) ) ) ) ) ) R.R.R.R.R.R.R.R.R.R.R.R.R.R.R.R.R.R.R.R.",
"R.R.R.R.R.R.R.R.R.R.R.R.R.R.R.y.Z.K.L.L.L.S.v.y.o.) ) ) z #           O e Q ) ) ) ) ) ( R.R.R.R.R.R.R.R.R.R.R.R.R.R.R.R.R.R.R.R.",
"R.R.R.R.R.R.R.R.R.R.R.R.R.R.) :.Z.Z.Z.Z.Z.Z.y.) ) ) ) ) z #           O e Q ) ) ) ) ) Q r & R.R.R.R.R.R.R.R.R.R.R.R.R.R.R.R.R.R.",
"R.R.R.R.R.R.R.R.R.R.R.R.R.R.) { :.x.Z.Z.Z.e.o.) ) ) ) ) z #           O e Q ) ) ) ) ) Q r & R.R.R.R.R.R.R.R.R.R.R.R.R.R.R.R.R.R.",
"R.R.R.R.R.R.R.R.R.R.R.R.R.R.) ) ] 5.t.t.t.@.) ) ) ) ) ) d #           O e Q ) ) ) ) W c w & R.R.R.R.R.R.R.R.R.R.R.R.R.R.R.R.R.R.",
"R.R.R.R.R.R.R.R.R.R.R.R.R.R.) ) ) ) ) ) ) ) ) ) R.R.R.R.* #           O e W ) ) ) ~ c 0 0 & R.R.R.R.R.R.R.R.R.R.R.R.R.R.R.R.R.R.",
"R.R.R.R.R.R.R.R.R.R.R.R.R.R.) ) ) ) ) ) ) R.R.R.R.R.R.R.* #   R.R.R.  O 0 R.) ) ) k w 0 0 & R.R.R.R.R.R.R.R.R.R.R.R.R.R.R.R.R.R.",
"R.R.R.R.R.R.R.R.R.R.R.R.R.R.R.) ) ) ) ) ) R.R.R.R.R.R.R.* # o R.R.R.R.R.R.R.z z z e 0 0 0 & R.R.R.R.R.R.R.R.R.R.R.R.R.R.R.R.R.R.",
"R.R.R.R.R.R.R.R.R.R.R.R.R.R.R.R.( R R R R R.R.R.R.R.R.R.R.0 R.R.R.R.R.R.R.R.R.* * * 0 0 0 & R.R.R.R.R.R.R.R.R.R.R.R.R.R.R.R.R.R.",
"R.R.R.R.R.R.R.R.R.R.R.R.R.R.R.R.R.O O O O R.R.R.R.R.R.R.R.R.R.R.R.R.R.R.R.R.R.R.R.0 0 0 0 & R.R.R.R.R.R.R.R.R.R.R.R.R.R.R.R.R.R.",
"R.R.R.R.R.R.R.R.R.R.R.R.R.R.R.R.R.R.      R.R.R.R.R.R.R.R.R.R.R.R.R.R.R.R.R.R.R.R.R.@ O O O   R.R.R.R.R.R.R.R.R.R.R.R.R.R.R.R.R.",
"R.R.R.R.R.R.R.R.R.R.R.R.R.R.R.R.R.R.@ O O R.R.R.R.R.R.R.R.R.R.R.R.R.R.R.R.R.R.R.R.R.R.        R.R.R.R.R.R.R.R.R.R.R.R.R.R.R.R.R.",
"R.R.R.R.R.R.R.R.R.R.R.R.R.R.R.R.R.0 0 0 0 R.R.R.R.R.R.R.R.R.R.R.R.R.R.R.R.R.R.R.R.R.R.R.        R.R.R.R.R.R.R.R.R.R.R.R.R.R.R.R.",
"R.R.R.R.R.R.R.R.R.R.R.R.R.R.R.R.0 0 0 0 0 R.R.R.R.R.R.R.R.R.R.R.R.R.R.R.R.R.R.R.R.R.R.R.            R.R.R.R.R.R.R.R.R.R.R.R.R.R.",
"R.R.R.R.R.R.R.R.R.R.R.R.R.R.R.R.* * * * * R.R.R.R.R.R.R.R.R.R.R.R.R.R.R.R.R.R.R.R.R.R.R.R.        R.R.R.R.R.R.R.R.R.R.R.R.R.R.R.",
"R.R.R.R.R.R.R.R.R.R.R.R.R.R.R.R.R.R.R.R.R.R.R.R.R.R.R.R.R.R.R.R.R.R.R.R.R.R.R.R.R.R.R.R.R.R.R.R.R.R.R.R.R.R.R.R.R.R.R.R.R.R.R.R."
};
