/* XPM */
static const char *aWRsZV81[] = {
/* columns rows colors chars-per-pixel */
"64 64 171 2 ",
"   c #2A1D0D",
".  c #2D1F10",
"X  c #34200E",
"o  c #2F2112",
"O  c #332414",
"+  c #372816",
"@  c #362718",
"#  c #372819",
"$  c #3A2A1B",
"%  c #3F2F21",
"&  c #3F3122",
"*  c #422E1C",
"=  c #4B2F1A",
"-  c #462914",
";  c #562B10",
":  c #5A2D12",
">  c #4F331F",
",  c #44321F",
"<  c #5D3216",
"1  c #643519",
"2  c #65391C",
"3  c #6E381D",
"4  c #683519",
"5  c #723A1E",
"6  c #402F22",
"7  c #413122",
"8  c #4A3625",
"9  c #4C3926",
"0  c #4D3A29",
"q  c #523D26",
"w  c #513D2B",
"e  c #5E3C2A",
"r  c #5A3D27",
"t  c #6A3F22",
"y  c #663F2C",
"u  c #773C21",
"i  c #3A4A32",
"p  c #57412D",
"a  c #58412B",
"s  c #5C4531",
"d  c #5E4C38",
"f  c #6E4527",
"g  c #6E422F",
"h  c #79422A",
"j  c #7C4025",
"k  c #614933",
"l  c #624D38",
"z  c #764531",
"x  c #685034",
"c  c #6D5339",
"v  c #74563C",
"b  c #76583C",
"n  c #7A5C3E",
"m  c #7F5F43",
"M  c #4B644A",
"N  c #536E54",
"B  c #5D7E5D",
"V  c #636348",
"C  c #7A6547",
"Z  c #83452A",
"A  c #8D492E",
"S  c #89472C",
"D  c #8D4B33",
"F  c #934D32",
"G  c #984F34",
"H  c #8A5B37",
"J  c #9A5136",
"K  c #9C543A",
"L  c #A7583D",
"P  c #AC5B3F",
"I  c #A2553A",
"U  c #AD5B40",
"Y  c #846345",
"T  c #8C6746",
"R  c #886749",
"E  c #87694A",
"W  c #8D6A4A",
"Q  c #926747",
"!  c #946E4C",
"~  c #9D6D44",
"^  c #96714F",
"/  c #99724F",
"(  c #8A7D5A",
")  c #927655",
"_  c #9C7552",
"`  c #9E7955",
"'  c #9B7F59",
"]  c #A96245",
"[  c #A27A56",
"{  c #A47F5A",
"}  c #A87F59",
"|  c #AE7E52",
" . c #B97554",
".. c #5A8664",
"X. c #569672",
"o. c #608264",
"O. c #768864",
"+. c #749470",
"@. c #AB835C",
"#. c #B0865E",
"$. c #B2895F",
"%. c #808563",
"&. c #AF8E68",
"*. c #AC8762",
"=. c #B48B62",
"-. c #BB8F64",
";. c #BC9165",
":. c #B49269",
">. c #BC946A",
",. c #BB996F",
"<. c #BD9B71",
"1. c #8DA47B",
"2. c #BFA073",
"3. c #BCA57B",
"4. c #C4865F",
"5. c #C19365",
"6. c #C29669",
"7. c #C6996B",
"8. c #CA9D6E",
"9. c #D39266",
"0. c #C99F71",
"q. c #D4A16E",
"w. c #C3A277",
"e. c #CEA272",
"r. c #CAAA7D",
"t. c #CBA578",
"y. c #D4A473",
"u. c #D9A976",
"i. c #D0AA7A",
"p. c #DEAE7A",
"a. c #D2A479",
"s. c #DCB27F",
"d. c #E4B37D",
"f. c #E8B67F",
"g. c #5CA982",
"h. c #6CA781",
"j. c #78BF93",
"k. c #7DD3A4",
"l. c #74EBB9",
"z. c #75F4C1",
"x. c #DEAF80",
"c. c #CFB182",
"v. c #D3B485",
"b. c #DABD8B",
"n. c #E3B580",
"m. c #EDBA82",
"M. c #E6BE89",
"N. c #E8BF89",
"B. c #E3BA85",
"V. c #F2BE85",
"C. c #DDC18F",
"Z. c #DCC392",
"A. c #EAC38E",
"S. c #F5C187",
"D. c #F5C48A",
"F. c #F5C88F",
"G. c #E3C693",
"H. c #EFC790",
"J. c #E8CB97",
"K. c #E7CD99",
"L. c #E8CC98",
"P. c #F5CC93",
"I. c #F5D39B",
"U. c #F5D7A0",
"Y. c #F5D9A2",
"T. c #F3DBA4",
"R. c #F5DDA6",
"E. c #F5DDA5",
"W. c #F5DCA5",
"Q. c None",
"!. c black",
/* pixels */
"Q.Q.Q.Q.Q.Q.Q.Q.Q.Q.Q.Q.Q.Q.Q.Q.Q.Q.Q.Q.Q.Q.Q.Q.Q.Q.Q.Q.Q.Q.Q.Q.Q.Q.Q.Q.Q.Q.Q.Q.Q.Q.Q.Q.Q.Q.Q.Q.Q.Q.Q.Q.Q.Q.Q.Q.Q.Q.Q.Q.Q.Q.Q.Q.",
"Q.Q.Q.Q.Q.Q.Q.Q.Q.Q.Q.Q.Q.Q.Q.Q.Q.Q.Q.Q.Q.Q.Q.Q.Q.Q.Q.Q.Q.Q.Q.Q.Q.Q.Q.Q.Q.Q.Q.Q.Q.Q.Q.Q.Q.Q.Q.Q.Q.Q.Q.Q.Q.Q.Q.Q.Q.Q.Q.Q.Q.Q.Q.Q.",
"Q.Q.Q.Q.Q.Q.Q.Q.Q.Q.Q.Q.Q.Q.Q.Q.Q.Q.Q.Q.Q.Q.Q.Q.Q.Q.Q.Q.Q.Q.Q.Q.Q.Q.Q.Q.Q.Q.Q.Q.Q.Q.Q.Q.Q.Q.Q.Q.Q.Q.Q.Q.Q.Q.Q.Q.Q.Q.Q.Q.Q.Q.Q.Q.",
"Q.Q.Q.Q.Q.Q.Q.Q.Q.Q.Q.Q.Q.Q.Q.Q.Q.Q.Q.Q.Q.Q.Q.Q.Q.Q.Q.Q.Q.Q.Q.Q.Q.Q.Q.Q.Q.Q.Q.Q.Q.Q.Q.Q.Q.Q.Q.Q.Q.Q.Q.Q.Q.Q.Q.Q.Q.Q.Q.Q.Q.Q.Q.Q.",
"Q.Q.Q.Q.Q.Q.Q.Q.Q.Q.Q.Q.Q.Q.Q.Q.Q.Q.Q.Q.Q.Q.Q.Q.Q.Q.Q.Q.Q.Q.Q.Q.Q.Q.Q.Q.Q.Q.Q.Q.Q.Q.Q.Q.Q.Q.Q.Q.Q.Q.Q.Q.Q.Q.Q.Q.Q.Q.Q.Q.Q.Q.Q.Q.",
"Q.Q.Q.Q.Q.Q.Q.Q.Q.Q.Q.Q.Q.Q.Q.Q.Q.Q.Q.Q.Q.Q.Q.Q.Q.Q.Q.Q.Q.Q.Q.Q.Q.Q.Q.Q.Q.Q.Q.Q.Q.Q.Q.Q.Q.Q.Q.Q.Q.Q.Q.Q.Q.Q.Q.Q.Q.Q.Q.Q.Q.Q.Q.Q.",
"Q.Q.Q.Q.Q.Q.Q.Q.Q.Q.Q.Q.Q.Q.Q.Q.Q.Q.Q.Q.Q.Q.Q.Q.Q.Q.Q.Q.Q.Q.Q.Q.Q.Q.Q.Q.Q.Q.Q.Q.Q.Q.Q.Q.Q.Q.Q.Q.Q.Q.Q.Q.Q.Q.Q.Q.Q.Q.Q.Q.Q.Q.Q.Q.",
"Q.Q.Q.Q.Q.Q.Q.Q.Q.Q.Q.Q.Q.Q.Q.Q.Q.Q.Q.Q.Q.Q.Q.Q.Q.Q.Q.Q.Q.Q.Q.Q.Q.Q.Q.Q.Q.Q.Q.Q.Q.Q.Q.Q.Q.Q.Q.Q.Q.Q.Q.Q.Q.Q.Q.Q.Q.Q.Q.Q.Q.Q.Q.Q.",
"Q.Q.Q.Q.Q.Q.Q.Q.Q.Q.Q.Q.Q.Q.Q.Q.Q.Q.Q.Q.Q.Q.Q.Q.Q.Q.Q.Q.Q.Q.Q.Q.Q.Q.Q.Q.Q.Q.Q.Q.Q.Q.Q.Q.Q.Q.Q.Q.Q.Q.Q.Q.Q.Q.Q.Q.Q.Q.Q.Q.Q.Q.Q.Q.",
"Q.Q.Q.Q.Q.Q.Q.Q.Q.Q.Q.Q.Q.Q.Q.Q.Q.Q.Q.Q.Q.Q.Q.Q.Q.Q.Q.Q.Q.Q.Q.Q.Q.Q.Q.Q.Q.Q.Q.Q.Q.Q.Q.Q.Q.Q.Q.Q.Q.Q.Q.Q.Q.Q.Q.Q.Q.Q.Q.Q.Q.Q.Q.Q.",
"Q.Q.Q.Q.Q.Q.Q.Q.Q.Q.Q.Q.Q.Q.Q.Q.Q.Q.Q.Q.Q.Q.Q.Q.Q.Q.Q.Q.Q.Q.Q.Q.Q.Q.Q.Q.Q.Q.Q.Q.Q.Q.Q.Q.Q.Q.Q.Q.Q.Q.Q.Q.Q.Q.Q.Q.Q.Q.Q.Q.Q.Q.Q.Q.",
"Q.Q.Q.Q.Q.Q.Q.Q.Q.Q.Q.Q.Q.Q.Q.Q.Q.Q.Q.Q.Q.Q.Q.Q.Q.Q.Q.Q.Q.Q.Q.Q.Q.Q.Q.Q.Q.Q.Q.Q.Q.Q.Q.Q.Q.Q.Q.Q.Q.Q.Q.Q.Q.Q.Q.Q.Q.Q.Q.Q.Q.Q.Q.Q.",
"Q.Q.Q.Q.Q.Q.Q.Q.Q.Q.Q.Q.Q.Q.Q.Q.Q.Q.Q.Q.Q.Q.Q.Q.Q.Q.Q.Q.Q.Q.Q.Q.Q.Q.Q.Q.Q.Q.Q.Q.Q.Q.Q.Q.Q.Q.Q.Q.Q.Q.Q.Q.Q.Q.Q.Q.Q.Q.Q.Q.Q.Q.Q.Q.",
"Q.Q.Q.Q.Q.Q.Q.Q.Q.Q.Q.Q.Q.7 Q.Q.Q.Q.Q.Q.Q.Q.Q.Q.Q.Q.Q.Q.Q.Q.Q.Q.Q.Q.Q.Q.Q.Q.Q.Q.Q.Q.Q.Q.Q.Q.Q.Q.Q.Q.Q.Q.Q.Q.Q.Q.Q.Q.Q.Q.Q.Q.Q.Q.",
"Q.Q.Q.Q.Q.Q.Q.Q.Q.Q.Q.Q.Q.O $ Q.Q.Q.Q.Q.Q.Q._ ` C.R.K.*.Q.Q.Q.Q.Q.Q.Q.Q.Q.Q.Q.Q.Q.Q.Q.Q.Q.Q.Q.Q.Q.Q.Q.Q.Q.Q.Q.Q.Q.Q.Q.Q.Q.Q.Q.Q.",
"Q.Q.Q.Q.Q.Q.Q.Q.Q.Q.Q.Q.Q.  @ $ Q.Q.Q.Q.Q.t.:._ w.v.c.w.v.Q.Q.Q.Q.Q.Q.Q.Q.Q.Q.Q.Q.Q.Q.Q.Q.Q.Q.Q.Q.Q.Q.Q.Q.Q.Q.Q.Q.Q.Q.Q.Q.Q.Q.Q.",
"Q.Q.Q.Q.Q.Q.Q.Q.Q.Q.Q.Q.Q.Q.  O % Q.Q.Q.m.P.b.{ ` [ =.J.Y.Y.Q.Q.Q.Q.Q.Q.Q.Q.% % Q.Q.Q.Q.Q.Q.Q.Q.Q.Q.Q.Q.Q.Q.Q.Q.Q.Q.Q.Q.Q.Q.Q.Q.",
"Q.Q.Q.Q.Q.Q.Q.Q.Q.Q.Q.Q.Q.Q.Q.. O $ Q.Q.@.p.H.G.=.,.G.F.F.F.Q.Q.Q.Q.Q.Q.Q.6 @ o Q.Q.Q.Q.Q.Q.Q.Q.Q.Q.Q.Q.Q.Q.Q.Q.Q.Q.Q.Q.Q.Q.Q.Q.",
"Q.Q.Q.Q.Q.Q.Q.Q.Q.Q.Q.Q.Q.Q.Q.Q.- = ; f / =.0.r.0.s.P.D.p.7.Q.Q.Q.Q.Q.Q.$ @ O Q.Q.Q.Q.Q.Q.Q.Q.Q.Q.Q.Q.Q.Q.R.R.R.U.D.Q.Q.Q.Q.Q.Q.",
"Q.Q.Q.Q.Q.Q.Q.Q.Q.Q.Q.Q.Q.Q.Q.3 ; ; ; 2 ! @.{ T 5.q.q.q.5.@.Q.Q.Q.Q.Q.$ * q n Q.Q.Q.Q.Q.Q.Q.Q.Q.Q.Q.Q.Q.K.G.G.G.G.D.Q.Q.Q.Q.Q.Q.",
"Q.Q.Q.Q.Q.Q.Q.Q.Q.Q.Q.Q.Q.Q.U S ; ; ; 2 ! c.2.< 1 2 2 2 | m.Q.Q.Q.Q.& # 8 8.m.F.R.Q.Q.Q.Q.Q.Q.Q.Q.Q.Q.R.v.{ { { { Q.Q.Q.Q.Q.Q.Q.",
"Q.Q.Q.Q.Q.Q.Q.Q.Q.Q.Q.Q.Q.U U J Q.Q.= r ! v.3.= h A A A 4.S.S.S.y.! , x @.;.;.>.<.C.Q.Q.Q.Q.Q.Q.Q.Q.W.r.:.Q.Q.Q.Q.Q.Q.Q.Q.Q.Q.Q.",
"Q.Q.Q.Q.Q.Q.Q.Q.Q.Q.Q.Q.U U U P Q.Q.Q.s ^ v.3.7 z K U U 9.D.P.n.e.:.C ' y.} _ _ _ r.C.Q.Q.Q.Q.Q.Q.N.b.:.Q.Q.Q.Q.Q.Q.Q.Q.Q.Q.Q.Q.",
"Q.Q.Q.Q.Q.Q.Q.Q.Q.Q.Q.U U U U U Q.Q.Q.Q._ v.3.7 7 g P P 9.F.Y.<.<.R.R.r._ Q.Q.Q.Q._ <.T.T.P.V.V.V.u._ Q.Q.Q.Q.Q.Q.Q.Q.Q.Q.Q.Q.Q.",
"Q.Q.Q.Q.Q.Q.Q.Q.Q.Q.U U U U Q.Q.Q.Q.Q.m.p.N.i.Y w 8 e e &.G.>.e.n.P.Y.a.] Q.Q.Q.Q.Q.*.:.:.=.=.=.=.$.Q.Q.Q.Q.Q.Q.Q.Q.Q.Q.Q.Q.Q.Q.",
"Q.Q.Q.Q.Q.Q.Q.Q.Q.Q.P U U U Z Q.Q.Q.5.m.y.e.8.6.Y l c E :.r.6.B.P.P.x.4.U P Q.Q.Q.Q.Q._ _ _ _ _ _ Q.Q.Q.Q.Q.Q.Q.Q.Q.Q.Q.Q.Q.Q.Q.",
"Q.Q.Q.Q.Q.Q.Q.Q.Q.Q.P U P I 3 ; ; ; ~ y.@.@.>.f.-.} #.p.7.-.V.G.Z.Z. .U U U P Q.Q.Q.Q.Q.Q.Q.Q.Q.Q.Q.Q.Q.Q.Q.Q.Q.Q.Q.Q.Q.Q.Q.Q.Q.",
"Q.Q.Q.Q.Q.Q.Q.Q.Q.P U U G 4 : ; ; ; 1 H u.A.v.@.y.d.p.=.8.m.S.) d l K U U U U U Q.Q.Q.Q.Q.Q.Q.Q.Q.Q.Q.Q.Q.Q.Q.Q.Q.Q.Q.Q.Q.Q.Q.Q.",
"Q.Q.Q.Q.Q.Q.Q.Q.Q.U U U F ; ; ; ; ; ; 2 W r.N.8.7.7.7.8.d.p._ s 7 7 y h Z L U U U Q.Q.Q.Q.Q.Q.Q.Q.Q.Q.Q.Q.Q.Q.Q.Q.Q.Q.Q.Q.Q.Q.Q.",
"Q.Q.Q.Q.Q.Q.Q.Q.Q.P P P F ; ; ; ; ; ; ; 7 ` 8.8._ Y W >.8.@.8 7 7 7 7 * : A G K U Q.Q.Q.Q.Q.Q.Q.Q.Q.Q.Q.Q.Q.Q.Q.Q.Q.Q.Q.Q.Q.Q.Q.",
"Q.Q.Q.Q.Q.Q.Q.Q.Q.Q.Q.Q.Q.Q.Q.Q.Q.Q.Q.Q.Q.8 8 8 8 8 8 8 8 8 7 7 7 7 7 # X ; : 5 P P P Q.Q.Q.Q.Q.Q.Q.Q.Q.Q.Q.Q.Q.Q.Q.Q.Q.Q.Q.Q.Q.",
"Q.Q.Q.Q.Q.Q.Q.Q.Q.Q.Q.Q.Q.Q.Q.Q.Q.Q.Q.Q.Q.Q.Q.Q.6 7 7 & 7 7 7 7 7 7 7 @   Q.Q.Z U U P Q.Q.Q.Q.Q.Q.Q.Q.Q.Q.Q.Q.Q.Q.Q.Q.Q.Q.Q.Q.Q.",
"Q.Q.Q.Q.Q.Q.Q.Q.Q.Q.Q.Q.Q.Q.Q.Q.Q.Q.Q.Q.Q.Q.Q.Q.Q.6 7 7 7 7 7 7 7 7 $ O   Q.Q.Q.P U P Q.Q.Q.Q.Q.Q.Q.Q.Q.Q.Q.Q.Q.Q.Q.Q.Q.Q.Q.Q.Q.",
"Q.Q.Q.Q.Q.Q.Q.Q.Q.Q.Q.Q.Q.Q.Q.Q.Q.Q.Q.Q.Q.Q.Q.Q.Q.Q.% % % % % % % % o     Q.Q.Q.P U P Q.Q.Q.Q.Q.Q.Q.Q.Q.Q.Q.Q.Q.Q.Q.Q.Q.Q.Q.Q.Q.",
"Q.Q.Q.Q.Q.Q.Q.Q.Q.Q.Q.Q.Q.Q.Q.Q.Q.Q.Q.Q.Q.Q.Q.Q.Q.Q.o o o o o o o o       Q.Q.Q.P U P Q.Q.Q.Q.Q.Q.Q.Q.Q.Q.Q.Q.Q.Q.Q.Q.Q.Q.Q.Q.Q.",
"Q.Q.Q.Q.Q.Q.Q.Q.Q.Q.Q.Q.Q.Q.Q.Q.Q.Q.Q.Q.Q.Q.Q.Q.Q.b a O                 O D Q.U U F Z Q.Q.Q.Q.Q.Q.Q.Q.Q.Q.Q.Q.Q.Q.Q.Q.Q.Q.Q.Q.Q.",
"Q.Q.Q.Q.Q.Q.Q.Q.Q.Q.Q.Q.Q.Q.Q.Q.Q.Q.Q.Q.Q.Q.Q.Q.^ ' ( 8 O             O > K U P K 5 ; Q.Q.Q.Q.Q.Q.Q.Q.Q.Q.Q.Q.Q.Q.Q.Q.Q.Q.Q.Q.Q.",
"Q.Q.Q.Q.Q.Q.Q.Q.Q.Q.Q.Q.Q.Q.Q.Q.Q.Q.Q.Q.Q.Q.Q.7 Y 1.k.( a             a Q U U J 1 Q.Q.Q.Q.Q.Q.Q.Q.Q.Q.Q.Q.Q.Q.Q.Q.Q.Q.Q.Q.Q.Q.Q.",
"Q.Q.Q.Q.Q.Q.Q.Q.Q.Q.Q.Q.Q.Q.Q.Q.Q.Q.Q.Q.Q.Q.7 7 s V o.) Y V X.X.B c ..O.! Z j u Q.Q.Q.Q.Q.Q.Q.Q.Q.Q.Q.Q.Q.Q.Q.Q.Q.Q.Q.Q.Q.Q.Q.Q.",
"Q.Q.Q.Q.Q.Q.Q.Q.Q.Q.Q.Q.Q.Q.Q.Q.Q.Q.Q.Q.Q.& 8 p p 0 8 n Y %.l.z.j.C h.+.n f t t Q.Q.Q.Q.Q.Q.Q.Q.Q.Q.Q.Q.Q.Q.Q.Q.Q.Q.Q.Q.Q.Q.Q.Q.",
"Q.Q.Q.Q.Q.Q.Q.Q.Q.Q.Q.Q.Q.Q.Q.Q.Q.Q.Q.Q.Q.& s _ _ v 7 7 7 M l.z.g.o % 7 w T _ _ Q.Q.Q.Q.Q.Q.Q.Q.Q.Q.Q.Q.Q.Q.Q.Q.Q.Q.Q.Q.Q.Q.Q.Q.",
"Q.Q.Q.Q.Q.Q.Q.Q.Q.Q.Q.Q.Q.Q.Q.Q.Q.Q.Q.Q.Q.;.7.u.u.8.=.R m C N M i   o # 0 ! _ _ _ Q.Q.Q.Q.Q.Q.Q.Q.Q.Q.Q.Q.Q.Q.Q.Q.Q.Q.Q.Q.Q.Q.Q.",
"Q.Q.Q.Q.Q.Q.Q.Q.Q.Q.Q.Q.Q.Q.Q.Q.Q.Q.Q.Q.Q.S.D.P.P.P.A.8.@.Y 8 O       @ 0 ! _ _ _ Q.Q.Q.Q.Q.Q.Q.Q.Q.Q.Q.Q.Q.Q.Q.Q.Q.Q.Q.Q.Q.Q.Q.",
"Q.Q.Q.Q.Q.Q.Q.Q.Q.Q.Q.Q.Q.Q.Q.Q.Q.Q.Q.Q.S.D.P.R.R.R.Y.F.8.T 0 @       O 0 W _ _ _ Q.Q.Q.Q.Q.Q.Q.Q.Q.Q.Q.Q.Q.Q.Q.Q.Q.Q.Q.Q.Q.Q.Q.",
"Q.Q.Q.Q.Q.Q.Q.Q.Q.Q.Q.Q.Q.Q.Q.Q.Q.Q.Q.Q.S.P.Y.R.R.R.Y.F.m.8.T p @       * T _ _ _ _ Q.Q.Q.Q.Q.Q.Q.Q.Q.Q.Q.Q.Q.Q.Q.Q.Q.Q.Q.Q.Q.Q.",
"Q.Q.Q.Q.Q.Q.Q.Q.Q.Q.Q.Q.Q.Q.Q.Q.Q.Q.Q.Q.S.I.R.R.R.R.Y.F.S.p.[ k #       $ T _ _ _ _ _ Q.Q.Q.Q.Q.Q.Q.Q.Q.Q.Q.Q.Q.Q.Q.Q.Q.Q.Q.Q.Q.",
"Q.Q.Q.Q.Q.Q.Q.Q.Q.Q.Q.Q.Q.Q.Q.Q.Q.Q.Q.Q.S.I.R.R.R.R.Y.F.S.p.[ k #       $ T _ _ _ _ _ _ Q.Q.Q.Q.Q.Q.Q.Q.Q.Q.Q.Q.Q.Q.Q.Q.Q.Q.Q.Q.",
"Q.Q.Q.Q.Q.Q.Q.Q.Q.Q.Q.Q.Q.Q.Q.Q.Q.Q.Q.Q.S.I.R.R.R.R.Y.F.S.p.[ k #       $ T _ _ _ _ _ _ _ Q.Q.Q.Q.Q.Q.Q.Q.Q.Q.Q.Q.Q.Q.Q.Q.Q.Q.Q.",
"Q.Q.Q.Q.Q.Q.Q.Q.Q.Q.Q.Q.Q.Q.Q.Q.Q.Q.Q.D.S.I.R.R.R.I.P.D.u.=._ k #       $ T _ _ _ _ _ _ _ _ Q.Q.Q.Q.Q.Q.Q.Q.Q.Q.Q.Q.Q.Q.Q.Q.Q.Q.",
"Q.Q.Q.Q.Q.Q.Q.Q.Q.Q.Q.Q.Q.Q.Q.Q.Q.Q.D.D.P.I.R.R.R.I.S.S.7._ _ k #       $ T _ _ _ _ _ _ _ Y Q.Q.Q.Q.Q.Q.Q.Q.Q.Q.Q.Q.Q.Q.Q.Q.Q.Q.",
"Q.Q.Q.Q.Q.Q.Q.Q.Q.Q.Q.Q.Q.Q.Q.Q.Q.Q.D.F.Y.R.R.R.R.I.S.S.7._ _ k #       $ T _ _ _ _ _ _ _ c & Q.Q.Q.Q.Q.Q.Q.Q.Q.Q.Q.Q.Q.Q.Q.Q.Q.",
"Q.Q.Q.Q.Q.Q.Q.Q.Q.Q.Q.Q.Q.Q.Q.Q.Q.Q.D.D.F.I.R.R.P.F.m.5.} _ _ k #       $ T _ _ _ _ _ _ _ c & Q.Q.Q.Q.Q.Q.Q.Q.Q.Q.Q.Q.Q.Q.Q.Q.Q.",
"Q.Q.Q.Q.Q.Q.Q.Q.Q.Q.Q.Q.Q.Q.Q.Q.Q.Q.y.u.V.P.I.I.F.d.8.{ _ _ _ p #       @ Y _ _ _ _ _ _ m s 7 Q.Q.Q.Q.Q.Q.Q.Q.Q.Q.Q.Q.Q.Q.Q.Q.Q.",
"Q.Q.Q.Q.Q.Q.Q.Q.Q.Q.Q.Q.Q.Q.Q.Q.Q.Q._ @.d.V.S.S.m.7._ _ Q.Q.Q.& #         Q._ _ _ _ _ R w 7 7 7 Q.Q.Q.Q.Q.Q.Q.Q.Q.Q.Q.Q.Q.Q.Q.Q.",
"Q.Q.Q.Q.Q.Q.Q.Q.Q.Q.Q.Q.Q.Q.Q.Q.Q.Q._ ` @.u.S.V.5.{ _ _ Q.Q.Q.& #         Q.Q.Q._ _ m 0 7 7 7 7 Q.Q.Q.Q.Q.Q.Q.Q.Q.Q.Q.Q.Q.Q.Q.Q.",
"Q.Q.Q.Q.Q.Q.Q.Q.Q.Q.Q.Q.Q.Q.Q.Q.Q.Q._ _ _ =.7.7.} _ _ _ Q.Q.Q.& #     Q.Q.Q.Q.Q.Q.b s 7 7 7 7 7 Q.Q.Q.Q.Q.Q.Q.Q.Q.Q.Q.Q.Q.Q.Q.Q.",
"Q.Q.Q.Q.Q.Q.Q.Q.Q.Q.Q.Q.Q.Q.Q.Q.Q.Q.Q._ _ _ _ _ R T _ Q.Q.Q.Q.7 #   Q.Q.Q.Q.Q.Q.Q.7 & 7 7 7 7 7 $ Q.Q.Q.Q.Q.Q.Q.Q.Q.Q.Q.Q.Q.Q.Q.",
"Q.Q.Q.Q.Q.Q.Q.Q.Q.Q.Q.Q.Q.Q.Q.Q.Q.Q.Q.Q._ _ _ _ 9 + Q.Q.Q.Q.Q.Q.Q.Q.Q.Q.Q.Q.Q.Q.Q.Q.Q.Q.& 7 7 7 O   Q.Q.Q.Q.Q.Q.Q.Q.Q.Q.Q.Q.Q.Q.",
"Q.Q.Q.Q.Q.Q.Q.Q.Q.Q.Q.Q.Q.Q.Q.Q.Q.Q.Q.Q.Q.Q.v q @   Q.Q.Q.Q.Q.Q.Q.Q.Q.Q.Q.Q.Q.Q.Q.Q.Q.Q.Q.Q.Q.O o     Q.Q.Q.Q.Q.Q.Q.Q.Q.Q.Q.Q.Q.",
"Q.Q.Q.Q.Q.Q.Q.Q.Q.Q.Q.Q.Q.Q.Q.Q.Q.Q.Q.Q.Q.Q.# O O O Q.Q.Q.Q.Q.Q.Q.Q.Q.Q.Q.Q.Q.Q.Q.Q.Q.Q.Q.Q.Q.          Q.Q.Q.Q.Q.Q.Q.Q.Q.Q.Q.Q.",
"Q.Q.Q.Q.Q.Q.Q.Q.Q.Q.Q.Q.Q.Q.Q.Q.Q.Q.Q.Q.Q.& 7 7 7 % Q.Q.Q.Q.Q.Q.Q.Q.Q.Q.Q.Q.Q.Q.Q.Q.Q.Q.Q.Q.Q.Q.          Q.Q.Q.Q.Q.Q.Q.Q.Q.Q.Q.",
"Q.Q.Q.Q.Q.Q.Q.Q.Q.Q.Q.Q.Q.Q.Q.Q.Q.Q.Q.Q.& 7 7 7 7 % Q.Q.Q.Q.Q.Q.Q.Q.Q.Q.Q.Q.Q.Q.Q.Q.Q.Q.Q.Q.Q.Q.            Q.Q.Q.Q.Q.Q.Q.Q.Q.Q.",
"Q.Q.Q.Q.Q.Q.Q.Q.Q.Q.Q.Q.Q.Q.Q.Q.Q.Q.Q.Q.% & & & & Q.Q.Q.Q.Q.Q.Q.Q.Q.Q.Q.Q.Q.Q.Q.Q.Q.Q.Q.Q.Q.Q.Q.Q.        Q.Q.Q.Q.Q.Q.Q.Q.Q.Q.Q.",
"Q.Q.Q.Q.Q.Q.Q.Q.Q.Q.Q.Q.Q.Q.Q.Q.Q.Q.Q.Q.Q.Q.Q.Q.Q.Q.Q.Q.Q.Q.Q.Q.Q.Q.Q.Q.Q.Q.Q.Q.Q.Q.Q.Q.Q.Q.Q.Q.Q.Q.Q.Q.Q.Q.Q.Q.Q.Q.Q.Q.Q.Q.Q.Q."
};
