/* XPM */
static const char *aWRsZV8xKyUyODIlMjk_[] = {
/* columns rows colors chars-per-pixel */
"64 64 174 2 ",
"   c #2A1D0D",
".  c #2C1F10",
"X  c #2E2010",
"o  c #342516",
"O  c #392916",
"+  c #362718",
"@  c #37281A",
"#  c #3B2C1D",
"$  c #3F2F21",
"%  c #3F3324",
"&  c #353924",
"*  c #572B0F",
"=  c #492E1B",
"-  c #492914",
";  c #562B11",
":  c #5B2D12",
">  c #44321D",
",  c #583019",
"<  c #603015",
"1  c #6F391D",
"2  c #69351A",
"3  c #70391E",
"4  c #402F22",
"5  c #413022",
"6  c #493626",
"7  c #4D3A29",
"8  c #523D2B",
"9  c #553A28",
"0  c #603D2B",
"q  c #753C21",
"w  c #7B3F24",
"e  c #3D4D36",
"r  c #54412E",
"t  c #5A422B",
"y  c #4B4E3A",
"u  c #5B4430",
"i  c #514330",
"p  c #4C543F",
"a  c #61482E",
"s  c #694129",
"d  c #7E4126",
"f  c #724627",
"g  c #654C35",
"h  c #6A4F38",
"j  c #66533B",
"k  c #6D5239",
"l  c #71553B",
"z  c #795B3E",
"x  c #76583E",
"c  c #5E5F46",
"v  c #6A5840",
"b  c #7B5C41",
"n  c #586548",
"m  c #676245",
"M  c #75674A",
"N  c #797555",
"B  c #814227",
"V  c #844429",
"C  c #8E4A2F",
"Z  c #904B2F",
"A  c #8A4D36",
"S  c #954D32",
"D  c #855633",
"F  c #9B5136",
"G  c #9F553A",
"H  c #A15439",
"J  c #AA593F",
"K  c #95663F",
"L  c #AD5B40",
"P  c #846445",
"I  c #896647",
"U  c #896748",
"Y  c #8D6A4A",
"T  c #876749",
"R  c #916947",
"E  c #96714F",
"W  c #8C795A",
"Q  c #817A58",
"!  c #947552",
"~  c #9C7552",
"^  c #9E7854",
"/  c #987D5A",
"(  c #A06645",
")  c #B06145",
"_  c #A17A55",
"`  c #A67D58",
"'  c #548462",
"]  c #88815E",
"[  c #97825E",
"{  c #9E825E",
"}  c #AB835C",
"|  c #A58158",
" . c #B48256",
".. c #B0875F",
"X. c #8A8460",
"o. c #9F8A66",
"O. c #968B65",
"+. c #809973",
"@. c #919971",
"#. c #AC8761",
"$. c #AD8862",
"%. c #A28D68",
"&. c #B48C63",
"*. c #BA8F64",
"=. c #BD9166",
"-. c #B49168",
";. c #B9966C",
":. c #B7986E",
">. c #85A57D",
",. c #B8A176",
"<. c #C18D65",
"1. c #C19569",
"2. c #C6996B",
"3. c #C99C6D",
"4. c #C09367",
"5. c #D29065",
"6. c #C19E72",
"7. c #CE9F70",
"8. c #C3A376",
"9. c #CDA171",
"0. c #C6A679",
"q. c #CBAA7C",
"w. c #C8A87B",
"e. c #D3A373",
"r. c #DAAA77",
"t. c #DCAC79",
"y. c #D5A979",
"u. c #DCB17F",
"i. c #E0AF7B",
"p. c #E4B27D",
"a. c #E8B67F",
"s. c #7CAA82",
"d. c #68BD93",
"f. c #75C499",
"g. c #72CDA0",
"h. c #6DDCAD",
"j. c #74D5A7",
"k. c #7AE2B1",
"l. c #75F4C1",
"z. c #C5AF83",
"x. c #CEAF81",
"c. c #CFB182",
"v. c #D2B485",
"b. c #DFB688",
"n. c #D7B989",
"m. c #DCBD8A",
"M. c #D9B685",
"N. c #E0B787",
"B. c #E4BC87",
"V. c #EEBA82",
"C. c #E5BD88",
"Z. c #F1BE85",
"A. c #82C99B",
"S. c #E6C38E",
"D. c #ECC08B",
"F. c #F5C187",
"G. c #F4C38A",
"H. c #F5C88F",
"J. c #E3C592",
"K. c #E5CA96",
"L. c #E9CE99",
"P. c #F5CC93",
"I. c #F0CF98",
"U. c #EED59F",
"Y. c #EBD19D",
"T. c #F4D29A",
"R. c #F5D59D",
"E. c #F5D59D",
"W. c #EFD6A0",
"Q. c #F3D7A0",
"!. c #F5DAA2",
"~. c #F5DCA5",
"^. c None",
"/. c black",
/* pixels */
"^.^.^.^.^.^.^.^.^.^.^.^.^.^.^.^.^.^.^.^.^.^.^.^.^.^.^.^.^.^.^.^.^.^.^.^.^.^.^.^.^.^.^.^.^.^.^.^.^.^.^.^.^.^.^.^.^.^.^.^.^.^.^.^.",
"^.^.^.^.^.^.^.^.^.^.^.^.^.^.^.^.^.^.^.^.^.^.^.^.^.^.^.^.^.^.^.^.^.^.^.^.^.^.^.^.^.^.^.^.^.^.^.^.^.^.^.^.^.^.^.^.^.^.^.^.^.^.^.^.",
"^.^.^.^.^.^.^.^.^.^.^.^.^.^.^.^.^.^.^.^.^.^.^.^.^.^.^.^.^.^.^.^.^.^.^.^.^.^.^.^.^.^.^.^.^.^.^.^.^.^.^.^.^.^.^.^.^.^.^.^.^.^.^.^.",
"^.^.^.^.^.^.^.^.^.^.^.^.^.^.^.^.^.^.^.^.^.^.^.^.^.^.^.^.^.^.^.^.^.^.^.^.^.^.^.^.^.^.^.^.^.^.^.^.^.^.^.^.^.^.^.^.^.^.^.^.^.^.^.^.",
"^.^.^.^.^.^.^.^.^.^.^.^.^.^.^.^.^.^.^.^.^.^.^.^.^.^.^.^.^.^.^.^.^.^.^.^.^.^.^.^.^.^.^.^.^.^.^.^.^.^.^.^.^.^.^.^.^.^.^.^.^.^.^.^.",
"^.^.^.^.^.^.^.^.^.^.^.^.^.^.^.^.^.^.^.^.^.^.^.^.^.^.^.^.^.^.^.^.^.^.^.^.^.^.^.^.^.^.^.^.^.^.^.^.^.^.^.^.^.^.^.^.^.^.^.^.^.^.^.^.",
"^.^.^.^.^.^.^.^.^.^.^.^.^.^.^.^.^.^.^.^.^.^.^.~ ~ &.Y.~.K.} ^.^.^.^.^.^.^.^.^.^.^.^.^.^.^.^.^.^.^.^.^.^.^.^.^.^.^.^.^.^.^.^.^.^.",
"^.^.^.^.^.^.^.^.^.^.^.^.^.^.^.^.^.^.^.^.^.^.u.8.#.} q.c.x.8.v.^.^.^.^.^.^.^.^.^.^.^.^.^.^.^.^.^.^.^.^.^.^.^.^.^.^.^.^.^.^.^.^.^.",
"^.^.^.^.^.^.^.^.^.^.^.$ ^.^.^.^.^.^.^.^.^.V.G.!.0._ ~ _ -.L.!.!.^.^.^.^.^.^.^.^.^.^.^.^.^.^.^.^.^.^.^.^.^.^.^.^.^.^.^.^.^.^.^.^.",
"^.^.^.^.^.^.^.^.^.^.^.o # ^.^.^.^.^.^.^.^.&.2.G.S.x.` 6.J.H.H.P.^.^.^.^.^.^.5 ^.^.^.^.^.^.^.^.^.^.^.^.^.^.^.^.^.^.^.^.^.^.^.^.^.",
"^.^.^.^.^.^.^.^.^.^.^.  + @ ^.^.^.^.^.^.^.~ } 9.y.q.1.M.P.G.p.e.^.^.^.^.^.^.@ @ ^.^.^.^.^.^.^.^.^.^.^.^.^.^.^.^.^.^.^.^.^.^.^.^.",
"^.^.^.^.^.^.^.^.^.^.^.^.  o 5 ^.^.^.^.^.^.~ ~ _ ~ } p.V.V.V.2._ ^.^.^.^.^.# X   ^.^.^.^.^.^.^.^.^.^.^.^.^.^.^.^.^.^.^.^.^.^.^.^.",
"^.^.^.^.^.^.^.^.^.^.^.^.^.- ; ; ^.^.^.^.^.~ $.n.~ f D D D D  .r.^.^.^.5 @ o ^.^.^.^.^.^.^.^.^.^.^.^.^.^.^.^.^.^.^.^.^.^.^.^.^.^.",
"^.^.^.^.^.^.^.^.^.^.^.^.^.* ; ; ; ^.^.^.^.~ -.U.! , q q q q  .F.^.^.^.# o   ^.^.^.^.^.^.^.^.^.^.^.^.^.^.^.^.^.^.^.^.^.^.^.^.^.^.",
"^.^.^.^.^.^.^.^.^.^.^.^.; ; ; ; ; 5 ^.^.^.~ -.U.W 9 G L L L 5.F.^.^.# o X ^.^.^.~.~.T.F.F.F.F.T.~.^.^.^.^.^.^.^.^.^.^.^.^.^.^.^.",
"^.^.^.^.^.^.^.^.^.^.^.^.; ; ; ; = 5 + ^.^.~ -.U.W 6 0 A L L 5.F.F.P > ~ 3.V...#.:.:.6.^.^.9.*.;.q.~.^.^.^.^.^.^.^.^.^.^.^.^.^.^.",
"^.^.^.^.^.^.^.^.^.^.^.^.w 2 ; ^.^.@ X O ^.-.w.I.{ r 5 s A A <.H.t.` z 1.r.e.} ~ ~ ~ ^.^.^.^.~ ~ -.n.J.^.^.^.^.^.^.^.^.^.^.^.^.^.",
"^.^.^.^.^.^.^.^.^.^.^.L J C ; ^.^.    6 E v.R.G.1.P 6 5 5 5 o.K.$.2.a.} ~ ~ ~ ~ ^.^.^.^.^.^.^.^.^.~ n.~.^.^.^.^.F.F.F.2.~ ^.^.^.",
"^.^.^.^.^.^.^.^.^.^.^.L L G ^.^.^.^.[ ,.v.0.;.=.3.1.P b T } ;.6.e.B.I.m.w.^.^.^.^.^.^.^.^.^.^.^.^.~ &.8.Z.F.G.F.9.=.=.} ~ ^.^.^.",
"^.^.^.^.^.^.^.^.^.^.^.L L L ^.^.^.^.T.R.R.q.*.-.9.e.*.&.=.e.3.1.C.D.b.N.y.^.^.^.^.^.^.^.^.^.^.^.^.~ ~ &.Z.p.r.r.&.~ ~ ~ ~ ^.^.^.",
"^.^.^.^.^.^.^.^.^.^.^.L L L ^.^.^.G.G.G.G.Z.H.Q.8.&.a.Z.i.} 3.G.R.e.) ) L L ^.^.^.^.^.^.^.^.^.^.^.^.^.^.^._ _ _ ~ ~ ~ ^.^.^.^.^.",
"^.^.^.^.^.^.^.^.^.^.L L L L ^.^.^.K K R T q.R.~.B.7.1.=.1.9.B.S.| ( L L L L L ^.^.^.^.^.^.^.^.^.^.^.^.^.^.^.^.^.^.^.^.^.^.^.^.^.",
"^.^.^.^.^.^.^.^.^.L L L L H ^.^.; ; ; ; 5 W z.z.8.&.Y ^ 6.D.m.:.s q S S H L L L ^.^.^.^.^.^.^.^.^.^.^.^.^.^.^.^.^.^.^.^.^.^.^.^.",
"^.^.^.^.^.^.^.^.^.L L L L Z ; ; ; ; ; ; 5 6 7 7 7 7 6 %.W.!.o.7 ; : : : B L L L L ^.^.^.^.^.^.^.^.^.^.^.^.^.^.^.^.^.^.^.^.^.^.^.",
"^.^.^.^.^.^.^.^.^.L L L L C ; ; ; ; ; ; 5 5 5 5 5 5 5 v W W j 5 = ; ; ; 1 B H L L L ^.^.^.^.^.^.^.^.^.^.^.^.^.^.^.^.^.^.^.^.^.^.",
"^.^.^.^.^.^.^.^.^.L L L L C ; ; ; ; ; - 5 5 5 5 5 5 5 5 5 5 5 5 5 = ; ^.^.< C H L L L ^.^.^.^.^.^.^.^.^.^.^.^.^.^.^.^.^.^.^.^.^.",
"^.^.^.^.^.^.^.^.^.L L L L C ; ; ; ^.^.^.5 5 5 5 5 5 5 5 5 5 5 5 5 5 5 ^.^.^.< B L L L L ^.^.^.^.^.^.^.^.^.^.^.^.^.^.^.^.^.^.^.^.",
"^.^.^.^.^.^.^.^.^.^.S d d 3 ; ; ^.^.^.^.^.@ @ $ 5 5 5 5 5 5 5 5 5 # + ^.^.^.^.1 B H L L ^.^.^.^.^.^.^.^.^.^.^.^.^.^.^.^.^.^.^.^.",
"^.^.^.^.^.^.^.^.^.^.^.; ; ; ; ^.^.^.^.^.^.^.X # # # 5 5 5 5 5 $ # o   ^.^.^.^.^.< F L L ^.^.^.^.^.^.^.^.^.^.^.^.^.^.^.^.^.^.^.^.",
"^.^.^.^.^.^.^.^.^.^.^.^.^.^.^.^.^.^.^.^.^.^.^.X X o $ 5 5 5 5 # o     ^.^.^.^.^.^.J L L ^.^.^.^.^.^.^.^.^.^.^.^.^.^.^.^.^.^.^.^.",
"^.^.^.^.^.^.^.^.^.^.^.^.^.^.^.^.^.^.^.^.^.^.^.      o + + + + o       ^.^.^.^.^.^.L L L ^.^.^.^.^.^.^.^.^.^.^.^.^.^.^.^.^.^.^.^.",
"^.^.^.^.^.^.^.^.^.^.^.^.^.^.^.^.^.^.^.^.^.^.^.# # O                   ^.^.^.^.^.^.L L L ^.^.^.^.^.^.^.^.^.^.^.^.^.^.^.^.^.^.^.^.",
"^.^.^.^.^.^.^.^.^.^.^.^.^.^.^.^.^.^.^.^.^.^.^.I I l o                 ^.^.^.^.^.^.L L L ^.^.^.^.^.^.^.^.^.^.^.^.^.^.^.^.^.^.^.^.",
"^.^.^.^.^.^.^.^.^.^.^.^.^.^.^.^.^.^.^.^.^.^.g ! @.+.j >     > a a n ' Q ^.^.^.^.L L F V ^.^.^.^.^.^.^.^.^.^.^.^.^.^.^.^.^.^.^.^.",
"^.^.^.^.^.^.^.^.^.^.^.^.^.^.^.^.^.^.^.^.^.5 r U s.f.[ g # & m [ ^ >.f.] Y ^.^.^.L L C ; ^.^.^.^.^.^.^.^.^.^.^.^.^.^.^.^.^.^.^.^.",
"^.^.^.^.^.^.^.^.^.^.^.^.^.^.^.^.^.^.^.^.4 5 6 8 y c ! Y N d.j.A.O.M p i 8 ^.^.^.L L H ^.^.^.^.^.^.^.^.^.^.^.^.^.^.^.^.^.^.^.^.^.",
"^.^.^.^.^.^.^.^.^.^.^.^.^.^.^.^.^.^.^.^.k h h h 8 7 k U O.k.l.j.N u % 5 t ^.^.^.V V V ^.^.^.^.^.^.^.^.^.^.^.^.^.^.^.^.^.^.^.^.^.",
"^.^.^.^.^.^.^.^.^.^.^.^.^.^.^.^.^.^.^.^.` ` ` ` l 6 5 k X.g.h.d.y 5 5 6 k ~ ^.^.; ; ; ^.^.^.^.^.^.^.^.^.^.^.^.^.^.^.^.^.^.^.^.^.",
"^.^.^.^.^.^.^.^.^.^.^.^.^.^.^.^.^.^.^.V.p.i.i.i.} x 6 7 r e e e % 5 6 z Y ~ ^.^.^.^.^.^.^.^.^.^.^.^.^.^.^.^.^.^.^.^.^.^.^.^.^.^.",
"^.^.^.^.^.^.^.^.^.^.^.^.^.^.^.^.^.^.F.G.P.P.P.G.r.} l 8 # X   X # 5 7 U ~ ~ ^.^.^.^.^.^.^.^.^.^.^.^.^.^.^.^.^.^.^.^.^.^.^.^.^.^.",
"^.^.^.^.^.^.^.^.^.^.^.^.^.^.^.^.^.F.G.P.~.~.R.G.G.i.` h # X   X # 5 7 U ~ ~ ^.^.^.^.^.^.^.^.^.^.^.^.^.^.^.^.^.^.^.^.^.^.^.^.^.^.",
"^.^.^.^.^.^.^.^.^.^.^.^.^.^.^.^.F.F.P.!.~.~.~.R.P.i.` h # X   X # 5 7 U ~ ~ ~ ^.^.^.^.^.^.^.^.^.^.^.^.^.^.^.^.^.^.^.^.^.^.^.^.^.",
"^.^.^.^.^.^.^.^.^.^.^.^.^.^.^.G.G.P.R.~.~.~.!.T.H.i.` h # X   X # 5 7 U ~ ~ ~ ~ ^.^.^.^.^.^.^.^.^.^.^.^.^.^.^.^.^.^.^.^.^.^.^.^.",
"^.^.^.^.^.^.^.^.^.^.^.^.^.^.^.G.P.~.~.~.~.~.R.G.Z.t.` h # X   X # % 7 U ~ ~ ~ ~ ~ ^.^.^.^.^.^.^.^.^.^.^.^.^.^.^.^.^.^.^.^.^.^.^.",
"^.^.^.^.^.^.^.^.^.^.^.^.^.^.G.F.P.~.~.~.~.~.R.G.e...^ h # X     X @ 7 U ~ ~ ~ ~ ~ ^.^.^.^.^.^.^.^.^.^.^.^.^.^.^.^.^.^.^.^.^.^.^.",
"^.^.^.^.^.^.^.^.^.^.^.^.^.^.F.H.T.~.~.~.~.R.P.G.1.~ ~ h # X       + 7 U ~ ~ ~ ~ ~ ~ ^.^.^.^.^.^.^.^.^.^.^.^.^.^.^.^.^.^.^.^.^.^.",
"^.^.^.^.^.^.^.^.^.^.^.^.^.^.F.R.~.~.~.~.~.P.F.F.1.~ ~ h # X       + 7 U ~ ~ ~ ~ ~ ~ ~ ^.^.^.^.^.^.^.^.^.^.^.^.^.^.^.^.^.^.^.^.^.",
"^.^.^.^.^.^.^.^.^.^.^.^.^.^.F.R.~.~.~.Q.P.G.p.=.} ~ ~ h # X       + 7 U ~ ~ ~ ~ ~ ~ ~ ^.^.^.^.^.^.^.^.^.^.^.^.^.^.^.^.^.^.^.^.^.",
"^.^.^.^.^.^.^.^.^.^.^.^.^.e.F.P.R.R.R.P.G.p.3._ ~ ~ ~ h # X       + 7 U ~ ~ ~ ~ ~ ~ Y ^.^.^.^.^.^.^.^.^.^.^.^.^.^.^.^.^.^.^.^.^.",
"^.^.^.^.^.^.^.^.^.^.^.^.~ =.F.F.F.F.F.F.F.4.~ ~ ~ ~ ~ h # X       + 7 U ~ ~ ~ ~ ~ ~ z 5 ^.^.^.^.^.^.^.^.^.^.^.^.^.^.^.^.^.^.^.^.",
"^.^.^.^.^.^.^.^.^.^.^.^.~ ` =.p.F.F.F.p.=.} ~ ~ ~ ~ ~ h # X       + 7 U ~ ~ ~ ~ ~ ~ z 5 ^.^.^.^.^.^.^.^.^.^.^.^.^.^.^.^.^.^.^.^.",
"^.^.^.^.^.^.^.^.^.^.^.^.~ ~ ~ 2.r.r.r.3.^ ~ ~ ~ ~ ~ ~ g # X       + 7 U ~ ~ ~ ~ ! U g 5 ^.^.^.^.^.^.^.^.^.^.^.^.^.^.^.^.^.^.^.^.",
"^.^.^.^.^.^.^.^.^.^.^.^.~ ~ ~ ^ _ _ _ ^ ~ ~ ~ ^.^.^.^.5 # X       + 7 U ~ ~ ~ ~ E u 5 5 ^.^.^.^.^.^.^.^.^.^.^.^.^.^.^.^.^.^.^.^.",
"^.^.^.^.^.^.^.^.^.^.^.^.~ ~ ~ ~ ~ ~ ~ ~ ^.^.^.^.^.^.^.5 # X   ^.  + 6 z ~ ~ ~ P g 6 5 5 ^.^.^.^.^.^.^.^.^.^.^.^.^.^.^.^.^.^.^.^.",
"^.^.^.^.^.^.^.^.^.^.^.^.~ ~ ~ ~ ~ ~ ~ ~ ^.^.^.^.^.^.^.5 # X ^.^.  + 5 ^.^.P P g 5 5 5 5 ^.^.^.^.^.^.^.^.^.^.^.^.^.^.^.^.^.^.^.^.",
"^.^.^.^.^.^.^.^.^.^.^.^.^.^.~ ~ ~ ~ ~ ~ ^.^.^.^.^.^.^.5 5 ^.^.^.^.^.^.^.^.6 6 5 5 5 5 5 ^.^.^.^.^.^.^.^.^.^.^.^.^.^.^.^.^.^.^.^.",
"^.^.^.^.^.^.^.^.^.^.^.^.^.^.t t t t x ^.^.^.^.^.^.^.^.^.^.^.^.^.^.^.^.^.^.^.^.5 5 5 # + ^.^.^.^.^.^.^.^.^.^.^.^.^.^.^.^.^.^.^.^.",
"^.^.^.^.^.^.^.^.^.^.^.^.^.^.        ^.^.^.^.^.^.^.^.^.^.^.^.^.^.^.^.^.^.^.^.^.^.4 # +   ^.^.^.^.^.^.^.^.^.^.^.^.^.^.^.^.^.^.^.^.",
"^.^.^.^.^.^.^.^.^.^.^.^.^.^.^.      ^.^.^.^.^.^.^.^.^.^.^.^.^.^.^.^.^.^.^.^.^.^.^..         ^.^.^.^.^.^.^.^.^.^.^.^.^.^.^.^.^.^.",
"^.^.^.^.^.^.^.^.^.^.^.^.^.^.$ @ + + ^.^.^.^.^.^.^.^.^.^.^.^.^.^.^.^.^.^.^.^.^.^.^.^.          ^.^.^.^.^.^.^.^.^.^.^.^.^.^.^.^.^.",
"^.^.^.^.^.^.^.^.^.^.^.^.^.^.5 5 5 5 ^.^.^.^.^.^.^.^.^.^.^.^.^.^.^.^.^.^.^.^.^.^.^.^.^.        ^.^.^.^.^.^.^.^.^.^.^.^.^.^.^.^.^.",
"^.^.^.^.^.^.^.^.^.^.^.^.5 5 5 5 5 5 ^.^.^.^.^.^.^.^.^.^.^.^.^.^.^.^.^.^.^.^.^.^.^.^.^.            ^.^.^.^.^.^.^.^.^.^.^.^.^.^.^.",
"^.^.^.^.^.^.^.^.^.^.^.^.^.^.^.^.^.^.^.^.^.^.^.^.^.^.^.^.^.^.^.^.^.^.^.^.^.^.^.^.^.^.^.^.^.^.^.^.^.^.^.^.^.^.^.^.^.^.^.^.^.^.^.^.",
"^.^.^.^.^.^.^.^.^.^.^.^.^.^.^.^.^.^.^.^.^.^.^.^.^.^.^.^.^.^.^.^.^.^.^.^.^.^.^.^.^.^.^.^.^.^.^.^.^.^.^.^.^.^.^.^.^.^.^.^.^.^.^.^."
};
