/* XPM */
static const char *cnVuXzY_[] = {
/* columns rows colors chars-per-pixel */
"64 64 166 2 ",
"   c #2A1D0D",
".  c #2E2211",
"X  c #322414",
"o  c #3F2715",
"O  c #3F2816",
"+  c #362718",
"@  c #3B2B1A",
"#  c #3F2F21",
"$  c #373724",
"%  c #3F3022",
"&  c #343925",
"*  c #572C0F",
"=  c #402817",
"-  c #4B2810",
";  c #402E1A",
":  c #572B10",
">  c #592D11",
",  c #45321E",
"<  c #5E3014",
"1  c #633116",
"2  c #6A361A",
"3  c #663A1C",
"4  c #6C3B1E",
"5  c #70391E",
"6  c #402F22",
"7  c #403022",
"8  c #493525",
"9  c #4E3A24",
"0  c #423A2A",
"q  c #523C25",
"w  c #583826",
"e  c #533D2B",
"r  c #5A3623",
"t  c #683E20",
"y  c #653E2C",
"u  c #7B3F24",
"i  c #45432C",
"p  c #56412E",
"a  c #5C442C",
"s  c #5F4732",
"d  c #5E4933",
"f  c #49593F",
"g  c #61482E",
"h  c #68432C",
"j  c #71402B",
"k  c #79462A",
"l  c #644C35",
"z  c #6F4A30",
"x  c #7E4C32",
"c  c #6A543A",
"v  c #6A5133",
"b  c #72563C",
"n  c #755A3F",
"m  c #7D5A3D",
"M  c #7C5D41",
"N  c #725E44",
"B  c #7D7757",
"V  c #86452A",
"C  c #8D4D35",
"Z  c #824A34",
"A  c #9B5136",
"S  c #98593D",
"D  c #975337",
"F  c #A3563B",
"G  c #AD5B3F",
"H  c #AD5B40",
"J  c #B05F43",
"K  c #826244",
"L  c #8A6747",
"P  c #896846",
"I  c #8D6A4A",
"U  c #926E4D",
"Y  c #9F7047",
"T  c #95714F",
"R  c #937351",
"E  c #9C7552",
"W  c #9C7956",
"Q  c #A86245",
"!  c #A36748",
"~  c #B26345",
"^  c #B76C4C",
"/  c #A4754C",
"(  c #A8784D",
")  c #A37B57",
"_  c #A57E59",
"`  c #A87F59",
"'  c #BE7351",
"]  c #C17753",
"[  c #95815D",
"{  c #A78059",
"}  c #AB825C",
"|  c #B2865C",
" . c #968963",
".. c #91956E",
"X. c #AB8660",
"o. c #AD8963",
"O. c #B48B62",
"+. c #B98E64",
"@. c #A8906A",
"#. c #BA9065",
"$. c #B5926A",
"%. c #B9966D",
"&. c #BD9B71",
"*. c #C1976A",
"=. c #C5996A",
"-. c #CB9D6E",
";. c #C49266",
":. c #D69568",
">. c #D9996B",
",. c #D69C6D",
"<. c #C09F74",
"1. c #CDA16F",
"2. c #D6A36F",
"3. c #C2A276",
"4. c #CDA271",
"5. c #CBAA7C",
"6. c #D3A473",
"7. c #D3A877",
"8. c #D9AA76",
"9. c #D4AC7B",
"0. c #DCAC79",
"q. c #D9A571",
"w. c #DEB17E",
"e. c #E0AF7A",
"r. c #E4B37D",
"t. c #5FAA84",
"y. c #60B88F",
"u. c #72C69A",
"i. c #74CEA1",
"p. c #69D0A3",
"a. c #79E9B8",
"s. c #75F4C0",
"d. c #86BE92",
"f. c #CDAE80",
"g. c #D3B383",
"h. c #DCB381",
"j. c #DBBE8C",
"k. c #DBB987",
"l. c #EEBC83",
"z. c #E2BA85",
"x. c #F2BE85",
"c. c #83C296",
"v. c #E9C18B",
"b. c #E4C18C",
"n. c #F5C187",
"m. c #F5C48B",
"M. c #F5C88F",
"N. c #E2C794",
"B. c #E8C792",
"V. c #EECA93",
"C. c #E9CF9B",
"Z. c #E5C894",
"A. c #F4CC93",
"S. c #F5CF98",
"D. c #ECD29D",
"F. c #F5D29A",
"G. c #F5D198",
"H. c #F5D59E",
"J. c #F5D39B",
"K. c #F5D7A0",
"L. c #F5D9A2",
"P. c #F5DDA6",
"I. c #F4DCA4",
"U. c #F5DCA4",
"Y. c None",
"T. c black",
/* pixels */
"Y.Y.Y.Y.Y.Y.Y.Y.Y.Y.Y.Y.Y.Y.Y.Y.Y.Y.Y.Y.Y.Y.Y.Y.Y.Y.Y.Y.Y.Y.Y.Y.Y.Y.Y.Y.Y.Y.Y.Y.Y.Y.Y.Y.Y.Y.Y.Y.Y.Y.Y.Y.Y.Y.Y.Y.Y.Y.Y.Y.Y.Y.Y.Y.",
"Y.Y.Y.Y.Y.Y.Y.Y.Y.Y.Y.Y.Y.Y.Y.Y.Y.Y.Y.Y.Y.Y.Y.Y.Y.Y.Y.Y.Y.Y.Y.Y.Y.Y.Y.Y.Y.Y.Y.Y.Y.Y.Y.Y.Y.Y.Y.Y.Y.Y.Y.Y.Y.Y.Y.Y.Y.Y.Y.Y.Y.Y.Y.Y.",
"Y.Y.Y.Y.Y.Y.Y.Y.Y.Y.Y.Y.Y.Y.Y.Y.Y.Y.Y.Y.Y.Y.Y.Y.Y.Y.Y.Y.Y.Y.Y.Y.Y.Y.Y.Y.Y.Y.Y.Y.Y.Y.Y.Y.Y.Y.Y.Y.Y.Y.Y.Y.Y.Y.Y.Y.Y.Y.Y.Y.Y.Y.Y.Y.",
"Y.Y.Y.Y.Y.Y.Y.Y.Y.Y.Y.Y.Y.Y.Y.Y.Y.Y.Y.Y.Y.Y.Y.Y.Y.Y.Y.Y.Y.Y.Y.Y.Y.Y.Y.Y.Y.Y.Y.Y.Y.Y.Y.Y.Y.Y.Y.Y.Y.Y.Y.Y.Y.Y.Y.Y.Y.Y.Y.Y.Y.Y.Y.Y.",
"Y.Y.Y.Y.Y.Y.Y.Y.Y.Y.Y.Y.Y.Y.Y.Y.Y.Y.Y.Y.Y.Y.Y.Y.Y.Y.Y.Y.Y.Y.Y.Y.Y.Y.Y.Y.Y.Y.Y.Y.Y.Y.Y.Y.Y.Y.Y.Y.Y.Y.Y.Y.Y.Y.Y.Y.Y.Y.Y.Y.Y.Y.Y.Y.",
"Y.Y.Y.Y.Y.Y.Y.Y.Y.Y.Y.Y.Y.Y.Y.Y.Y.Y.Y.Y.Y.Y.Y.Y.Y.Y.Y.Y.Y.Y.Y.Y.Y.Y.Y.Y.Y.Y.Y.Y.Y.Y.Y.Y.Y.Y.Y.Y.Y.Y.Y.Y.Y.Y.Y.Y.Y.Y.Y.Y.Y.Y.Y.Y.",
"Y.Y.Y.Y.Y.Y.Y.Y.Y.Y.Y.Y.Y.Y.Y.Y.Y.Y.Y.Y.Y.Y.Y.Y.Y.Y.Y.Y.Y.Y.Y.Y.Y.Y.Y.Y.Y.Y.Y.Y.Y.Y.Y.Y.Y.Y.Y.Y.Y.Y.Y.Y.Y.Y.Y.Y.Y.Y.Y.Y.Y.Y.Y.Y.",
"Y.Y.Y.Y.Y.Y.Y.Y.Y.Y.Y.Y.Y.Y.Y.Y.Y.Y.Y.Y.Y.Y.Y.Y.Y.Y.Y.Y.Y.Y.Y.Y.Y.Y.Y.Y.Y.Y.Y.Y.Y.Y.Y.Y.Y.Y.Y.Y.Y.Y.Y.Y.Y.Y.Y.Y.Y.Y.Y.Y.Y.Y.Y.Y.",
"Y.Y.Y.Y.Y.Y.Y.Y.Y.Y.Y.Y.Y.Y.Y.Y.Y.Y.Y.Y.Y.Y.Y.Y.Y.Y.Y.Y.Y.Y.Y.Y.Y.Y.Y.Y.Y.Y.Y.Y.Y.Y.Y.Y.Y.Y.Y.Y.Y.Y.Y.Y.Y.Y.Y.Y.Y.Y.Y.Y.Y.Y.Y.Y.",
"Y.Y.Y.Y.Y.Y.Y.Y.Y.Y.Y.Y.Y.Y.Y.Y.Y.Y.Y.Y.Y.Y.Y.Y.Y.Y.Y.Y.Y.Y.Y.Y.Y.Y.Y.Y.Y.Y.Y.Y.Y.Y.Y.Y.Y.Y.Y.Y.Y.Y.Y.Y.Y.Y.Y.Y.Y.Y.Y.Y.Y.Y.Y.Y.",
"Y.Y.Y.Y.Y.Y.Y.Y.Y.Y.Y.Y.Y.Y.Y.Y.Y.Y.Y.Y.Y.Y.Y.Y.Y.Y.Y.Y.Y.Y.Y.Y.Y.Y.Y.Y.Y.  Y.Y.Y.Y.Y.Y.Y.Y.Y.Y.Y.Y.Y.Y.Y.Y.Y.Y.Y.Y.Y.Y.Y.Y.Y.Y.",
"Y.Y.Y.Y.Y.Y.Y.Y.Y.Y.Y.Y.Y.Y.Y.Y.Y.Y.Y.Y.Y.Y.Y.Y.Y.Y.Y.Y.Y.Y.Y.Y.Y.Y.Y.Y.Y.  Y.Y.Y.Y.Y.Y.Y.Y.Y.Y.Y.Y.Y.Y.Y.Y.Y.Y.Y.Y.Y.Y.Y.Y.Y.Y.",
"Y.Y.Y.Y.Y.Y.Y.Y.Y.Y.Y.Y.Y.Y.Y.Y.Y.Y.Y.Y.Y.Y.Y.Y.Y.Y.Y.Y.Y.Y.Y.Y.Y.Y.Y.Y.Y.  Y.Y.Y.Y.Y.Y.Y.Y.Y.Y.Y.Y.Y.Y.Y.Y.Y.Y.Y.Y.Y.Y.Y.Y.Y.Y.",
"Y.Y.Y.Y.Y.Y.Y.Y.Y.Y.Y.Y.Y.Y.Y.Y.Y.Y.Y.Y.Y.Y.Y.Y.Y.Y.Y.Y.Y.Y.Y.Y.Y.Y.Y.Y.Y.  Y.Y.Y.Y.Y.Y.E E o.D.P.j.E Y.Y.Y.Y.Y.Y.Y.Y.Y.Y.Y.Y.Y.",
"Y.Y.Y.Y.Y.Y.Y.Y.Y.Y.Y.Y.Y.Y.Y.Y.Y.Y.Y.Y.Y.Y.Y.Y.Y.Y.L.m.n.n.n.n.n.x.' V : - Y.Y.Y.Y.Y.m.j.&.) $.%.3.j.D.Y.Y.Y.Y.Y.Y.Y.Y.Y.Y.Y.Y.",
"Y.Y.Y.Y.Y.Y.Y.Y.Y.Y.Y.Y.Y.Y.Y.Y.Y.Y.Y.Y.Y.Y.Y.Y.Y.H.A.8.6.6.6.,.>.:.^ V : : Y.Y.Y.Y.Y.6.V.k.%.) O.9.G.G.G.Y.Y.Y.Y.Y.Y.Y.Y.Y.Y.Y.",
"Y.Y.Y.Y.Y.Y.Y.Y.Y.Y.Y.Y.Y.Y.Y.Y.Y.Y.Y.Y.Y.Y.Y.Y.L.A.r.} E E E Q H H ~ D 3 > Y.Y.Y.Y.Y.) 0.A.Z.} g.G.n.l.l.Y.Y.Y.Y.Y.Y.Y.Y.Y.Y.Y.",
"Y.Y.Y.Y.Y.Y.Y.Y.Y.Y.Y.Y.Y.Y.Y.Y.Y.Y.Y.Y.Y.Y.Y.P.A.8.} Y.Y.Y.Q H H J >.h.3.t Y.Y.Y.Y.Y.E } 6.m.r.l.m.n.*.} Y.Y.Y.Y.Y.Y.Y.Y.Y.Y.Y.",
"Y.Y.Y.Y.Y.Y.Y.Y.Y.Y.Y.Y.Y.Y.Y.Y.Y.Y.Y.Y.Y.Y.H.A.8.#.Y.Y.Y.H H H H ~ ;.w.h.h R H.n.J.3.) <.4.=.=.| / / / Y.Y.Y.Y.Y.Y.Y.Y.Y.Y.Y.Y.",
"Y.Y.Y.Y.Y.Y.Y.Y.Y.Y.Y.Y.Y.Y.Y.Y.Y.Y.Y.Y.Y.L.V.r.O.Y.Y.Y.G H H F A Y.E O.O.e @.G.m.G.g.` N.g.} E x 2 2 Y.Y.Y.Y.Y.Y.Y.Y.Y.Y.Y.Y.Y.",
"Y.Y.Y.Y.Y.Y.Y.Y.Y.Y.Y.Y.Y.Y.Y.Y.Y.Y.Y.Y.P.A.0.) Y.Y.Y.Y.G H H u < Y.Y., @ 7 } A.L.A.6.` N.A.0._ ! F F Y.Y.Y.Y.Y.Y.Y.      Y.Y.Y.",
"Y.Y.Y.Y.Y.Y.Y.Y.Y.Y.Y.Y.Y.Y.Y.Y.Y.Y.Y.L.A.7.+.Y.Y.Y.Y.Y.G F u 1 4 G G C j 8 l I &.z.6.` N.A.r._ m x H Y.Y.Y.Y.Y.    Y.Y.Y.Y.Y.Y.",
"Y.Y.Y.Y.Y.Y.Y.Y.Y.Y.Y.Y.Y.Y.Y.Y.Y.Y.S.V.0.+.Y.Y.Y.Y.Y.Y.Y.A > 2 V H H H F j r z O.4.4.&.B.A.r._ l w C Y.Y.Y.Y.      Y.Y.Y.Y.Y.Y.",
"Y.Y.Y.Y.Y.Y.Y.Y.Y.Y.Y.Y.Y.P.P.G.x.x.x.r.) Y.Y.Y.Y.Y.Y.Y.Y.Y.Y.H G G G H H H H ] x.+.&.K.m.n.r.` l 7 8 Y.Y.# . Y.Y.Y.Y.Y.Y.Y.Y.Y.",
"Y.Y.Y.Y.Y.Y.Y.Y.Y.Y.Y.Y.Y.Y.&.O.O.O.O.O.Y.Y.Y.Y.Y.Y.Y.Y.Y.Y.Y.Y.Y.Y.y Z H H H ] x.b.f.$.O.9.A.w.` R =.c % Y.Y.Y.Y.Y.Y.Y.Y.Y.Y.Y.",
"Y.Y.Y.Y.Y.Y.Y.Y.Y.Y.Y.Y.Y.Y.Y.E E E E Y.Y.Y.Y.Y.Y.Y.Y.Y.Y.Y.Y.Y.Y.Y.7 w k F H ^ -.v.z.3.3.5.5.4.=.-.n.n Y.Y.Y.Y.Y.Y.Y.Y.Y.Y.Y.Y.",
"Y.Y.Y.Y.Y.Y.Y.Y.Y.Y.Y.Y.Y.Y.Y.Y.Y.Y.Y.Y.Y.Y.Y.Y.Y.Y.Y.Y.Y.Y.Y.Y.Y.7 7 + = C A S I -.v.C.C.5.` ` -.q.Y.Y.Y.Y.Y.Y.Y.Y.Y.Y.Y.Y.Y.Y.",
"Y.Y.Y.Y.Y.Y.Y.Y.Y.Y.Y.Y.Y.Y.Y.Y.Y.Y.Y.Y.Y.Y.Y.Y.Y.Y.Y.Y.Y.Y.Y.7 7 7 7 # @ O o O @ K } X.X.-.r.r.Y 4 : Y.Y.Y.Y.Y.Y.Y.Y.Y.Y.Y.Y.Y.",
"Y.Y.Y.Y.Y.Y.Y.Y.Y.Y.Y.Y.Y.Y.Y.Y.Y.Y.Y.Y.Y.Y.Y.Y.Y.Y.Y.Y.Y.% % 7 7 7 7 7 @ .       9 P -.-.e.r.( k : : : Y.Y.Y.Y.Y.Y.Y.Y.Y.Y.Y.Y.",
"Y.Y.Y.Y.Y.Y.Y.Y.Y.Y.Y.Y.Y.Y.Y.Y.Y.Y.Y.Y.Y.Y.Y.Y.Y.Y.Y.Y.e e 7 7 7 7 @ @ +           l =.=.8.2.3 : : : : > Y.Y.Y.Y.Y.Y.Y.Y.Y.Y.Y.",
"Y.Y.Y.Y.Y.Y.Y.Y.Y.Y.Y.Y.Y.Y.Y.Y.Y.Y.Y.Y.Y.Y.Y.Y.Y.Y.Y.7 b K 8 7 7 # X               . X X ; Y.Y.Y.Y.: : : : Y.Y.Y.Y.Y.Y.Y.Y.Y.Y.",
"Y.Y.Y.Y.Y.Y.Y.Y.Y.Y.Y.Y.Y.Y.Y.Y.Y.Y.Y.Y.Y.Y.Y.Y.Y.n.6.p b K + X X X                   Y.Y.Y.Y.Y.Y.Y.Y.: : : * Y.Y.Y.Y.Y.Y.Y.Y.Y.",
"Y.Y.Y.Y.Y.Y.Y.Y.Y.Y.Y.Y.Y.Y.Y.Y.Y.Y.Y.Y.Y.Y.Y.Y.n.n.0.d b L e f f q q ;             Y.Y.Y.Y.Y.Y.Y.Y.Y.Y.: > 5 V Y.Y.Y.Y.Y.Y.Y.Y.",
"Y.Y.Y.Y.Y.Y.Y.Y.Y.Y.Y.Y.Y.Y.Y.Y.Y.Y.Y.Y.Y.Y.Y.n.n.n.0.l b T T c.c.E W c .       Y.Y.Y.Y.Y.Y.Y.Y.Y.Y.Y.Y.Y.1 A H H Y.Y.Y.Y.Y.Y.Y.",
"Y.Y.Y.Y.Y.Y.Y.Y.Y.Y.Y.Y.Y.Y.Y.Y.Y.Y.Y.Y.% O.n.n.n.n.l.6.I p p B  .W d.u.y.Y.Y.Y.Y.Y.Y.Y.Y.Y.Y.Y.Y.Y.Y.Y.Y.Y.G H H Y.Y.Y.Y.Y.Y.Y.",
"Y.Y.Y.Y.Y.Y.Y.Y.Y.Y.Y.Y.Y.Y.Y.Y.Y.Y.Y.d T 6.n.n.n.n.n.n.*.R R O.} N i.s.a...Y.Y.Y.Y.Y.Y.Y.Y.Y.Y.Y.Y.Y.Y.Y.H H H H Y.Y.Y.Y.Y.Y.Y.",
"Y.Y.Y.Y.Y.Y.Y.Y.Y.Y.Y.Y.Y.Y.Y.Y.Y.Y.7 l r.n.n.m.m.m.n.n.n.n.n.n.O.0 t.p.u.[ E Y.Y.Y.Y.Y.Y.Y.Y.Y.Y.Y.Y.H H H G G H Y.Y.Y.Y.Y.Y.Y.",
"Y.Y.Y.Y.Y.Y.Y.Y.Y.Y.Y.Y.Y.Y.Y.Y.Y.6 7 l r.n.A.L.L.A.n.n.n.n.n.n.O.% $ & i I E E E E E E E Y.Y.Y.G G H G H H Y.Y.Y.Y.Y.Y.Y.Y.Y.Y.",
"Y.Y.Y.Y.Y.Y.Y.Y.Y.Y.Y.Y.Y.Y.Y.# # 7 n #.l.A.H.P.P.G.n.n.n.n.n.6.R # .   @ I E E E E E E E E E E Q H H H H Y.Y.Y.Y.Y.Y.Y.Y.Y.Y.Y.",
"Y.Y.Y.Y.Y.Y.Y.Y.Y.Y.Y.Y.Y.Y.7 7 8 c +.n.M.H.P.P.K.A.n.n.n.l.0.O.M # .   @ I E E E E E E E E E E ! Q Q Q Q Y.Y.Y.Y.Y.Y.Y.Y.Y.Y.Y.",
"Y.Y.Y.Y.Y.Y.Y.Y.Y.Y.Y.Y.Y.6 % 7 e 4.x.m.L.P.P.P.A.n.n.n.n.e.) E M # .   @ I E E E E E E E E E E E E E E E Y.Y.Y.Y.Y.Y.Y.Y.Y.Y.Y.",
"Y.Y.Y.Y.Y.Y.Y.Y.Y.Y.Y.Y.% 7 7 @ , 4.n.m.L.P.H.A.n.n.n.n.6.| E b 9 X     @ I E E E E E E E E E E E E E E E Y.Y.Y.Y.Y.Y.Y.Y.Y.Y.Y.",
"Y.Y.Y.Y.Y.Y.Y.Y.Y.Y.Y.7 # + + X @ 1.n.m.G.G.A.n.n.n.x.8.O.E E l +     @ g U E E E E E E E E E E E E E E E Y.Y.Y.Y.Y.Y.Y.Y.Y.Y.Y.",
"Y.Y.Y.Y.Y.Y.Y.Y.Y.Y.7 # +     X 9 6.n.n.n.n.n.n.n.x.r.} E E E s +     a E E E E E E E E E E E E E E E E E E Y.Y.Y.Y.Y.Y.Y.Y.Y.Y.",
"Y.Y.Y.Y.Y.Y.Y.6 % 7 % + .     v 4.l.n.n.n.n.n.n.n.6.} W E Y.Y.8 +     @ Y.Y.Y.Y.Y.E E E E E E E E E E E E E Y.Y.Y.Y.Y.Y.Y.Y.Y.Y.",
"Y.Y.Y.Y.Y.Y.Y.Y.# # # X     m +.n.n.n.n.n.n.n.n.6.O.E E Y.Y.Y.7 +     Y.Y.Y.Y.Y.Y.E E E E E E E E E E E E E Y.Y.Y.Y.Y.Y.Y.Y.Y.Y.",
"Y.Y.Y.Y.Y.Y.Y.Y.Y.Y.Y.Y.Y.Y.n.n.n.n.n.n.n.n.x.r.| E E Y.Y.Y.@ @ +   Y.Y.Y.Y.Y.Y.Y.E E E E E E E E E E E E E Y.Y.Y.Y.Y.Y.Y.Y.Y.Y.",
"Y.Y.Y.Y.Y.Y.Y.Y.Y.Y.Y.Y.Y.Y.n.n.n.n.n.n.n.n.0._ E E Y.Y.Y.          Y.Y.Y.Y.Y.Y.Y.Y.Y.E E E E E E E E E E Y.Y.Y.Y.Y.Y.Y.Y.Y.Y.Y.",
"Y.Y.Y.Y.Y.Y.Y.Y.Y.Y.Y.Y.Y.Y.n.n.n.n.n.n.n.6.+.Y.Y.Y.Y.Y.          Y.Y.Y.Y.Y.Y.Y.Y.Y.Y.Y.E E E E E E E E Y.Y.Y.Y.Y.Y.Y.Y.Y.Y.Y.Y.",
"Y.Y.Y.Y.Y.Y.Y.Y.Y.Y.Y.Y.Y.Y.n.n.n.n.r.8.8.+.Y.Y.Y.Y.Y.Y.          Y.Y.Y.Y.Y.Y.Y.Y.Y.Y.Y.K K K K K K E Y.Y.Y.Y.Y.Y.Y.Y.Y.Y.Y.Y.Y.",
"Y.Y.Y.Y.Y.Y.Y.Y.Y.Y.Y.Y.Y.n.n.n.n.n.=.E E Y.Y.Y.Y.Y.Y.            Y.Y.Y.Y.Y.Y.Y.Y.Y.Y.Y.% 7 7 7 % 7 Y.Y.Y.Y.Y.Y.Y.Y.Y.Y.Y.Y.Y.Y.",
"Y.Y.Y.Y.Y.Y.Y.Y.Y.Y.Y.Y.Y.n.n.0.O.O.} E Y.Y.Y.Y.Y.Y.Y.Y.Y.Y.Y.Y.Y.Y.Y.Y.Y.Y.Y.Y.Y.Y.Y.Y.% 7 7 7 6 Y.Y.Y.Y.Y.Y.Y.Y.Y.Y.Y.Y.Y.Y.Y.",
"Y.Y.Y.Y.Y.Y.Y.Y.Y.Y.Y.Y.Y.6.6.#.E E E Y.Y.Y.Y.Y.Y.Y.Y.Y.Y.Y.Y.Y.Y.Y.Y.Y.Y.Y.Y.Y.Y.Y.Y.Y.7 7 7 7 Y.Y.Y.Y.Y.Y.Y.Y.Y.Y.Y.Y.Y.Y.Y.Y.",
"Y.Y.Y.Y.Y.Y.Y.Y.Y.Y.Y.Y.Y.U E E E E Y.Y.Y.Y.Y.Y.Y.Y.Y.Y.Y.Y.Y.Y.Y.Y.Y.Y.Y.Y.Y.Y.Y.% 7 7 7 7 7 Y.Y.Y.Y.Y.Y.Y.Y.Y.Y.Y.Y.Y.Y.Y.Y.Y.",
"Y.Y.Y.Y.Y.Y.Y.Y.Y.Y.Y.Y.8 e K E E Y.Y.Y.Y.Y.Y.Y.Y.Y.Y.Y.Y.Y.Y.Y.Y.Y.Y.Y.Y.Y.Y.Y.Y.% 7 7 7 7 Y.Y.Y.Y.Y.Y.Y.Y.Y.Y.Y.Y.Y.Y.Y.Y.Y.Y.",
"Y.Y.Y.Y.Y.Y.Y.Y.Y.Y.Y.% 7 7 s n Y.Y.Y.Y.Y.Y.Y.Y.Y.Y.Y.Y.Y.Y.Y.Y.Y.Y.Y.Y.Y.Y.Y.Y.Y.Y.# 7 7 7 Y.Y.Y.Y.Y.Y.Y.Y.Y.Y.Y.Y.Y.Y.Y.Y.Y.Y.",
"Y.Y.Y.Y.Y.Y.Y.Y.Y.Y.Y.7 7 7 6 Y.Y.Y.Y.Y.Y.Y.Y.Y.Y.Y.Y.Y.Y.Y.Y.Y.Y.Y.Y.Y.Y.Y.Y.Y.Y.Y.Y.% % % 7 Y.Y.Y.Y.Y.Y.Y.Y.Y.Y.Y.Y.Y.Y.Y.Y.Y.",
"Y.Y.Y.Y.Y.Y.Y.Y.Y.Y.7 7 7 7 Y.Y.Y.Y.Y.Y.Y.Y.Y.Y.Y.Y.Y.Y.Y.Y.Y.Y.Y.Y.Y.Y.Y.Y.Y.Y.Y.Y.Y.Y.Y.Y.Y.Y.Y.Y.Y.Y.Y.Y.Y.Y.Y.Y.Y.Y.Y.Y.Y.Y.",
"Y.Y.Y.Y.Y.Y.Y.Y.Y.7 7 7 7 Y.Y.Y.Y.Y.Y.Y.Y.Y.Y.Y.Y.Y.Y.Y.Y.Y.Y.Y.Y.Y.Y.Y.Y.Y.Y.Y.Y.Y.Y.Y.Y.Y.Y.Y.Y.Y.Y.Y.Y.Y.Y.Y.Y.Y.Y.Y.Y.Y.Y.Y.",
"Y.Y.Y.Y.Y.Y.Y.Y.Y.% % 7 7 Y.Y.Y.Y.Y.Y.Y.Y.Y.Y.Y.Y.Y.Y.Y.Y.Y.Y.Y.Y.Y.Y.Y.Y.Y.Y.Y.Y.Y.Y.Y.Y.Y.Y.Y.Y.Y.Y.Y.Y.Y.Y.Y.Y.Y.Y.Y.Y.Y.Y.Y.",
"Y.Y.Y.Y.Y.Y.Y.Y.Y.Y.7 7 7 7 Y.Y.Y.Y.Y.Y.Y.Y.Y.Y.Y.Y.Y.Y.Y.Y.Y.Y.Y.Y.Y.Y.Y.Y.Y.Y.Y.Y.Y.Y.Y.Y.Y.Y.Y.Y.Y.Y.Y.Y.Y.Y.Y.Y.Y.Y.Y.Y.Y.Y.",
"Y.Y.Y.Y.Y.Y.Y.Y.Y.Y.Y.% 7 7 Y.Y.Y.Y.Y.Y.Y.Y.Y.Y.Y.Y.Y.Y.Y.Y.Y.Y.Y.Y.Y.Y.Y.Y.Y.Y.Y.Y.Y.Y.Y.Y.Y.Y.Y.Y.Y.Y.Y.Y.Y.Y.Y.Y.Y.Y.Y.Y.Y.Y.",
"Y.Y.Y.Y.Y.Y.Y.Y.Y.Y.Y.Y.% % Y.Y.Y.Y.Y.Y.Y.Y.Y.Y.Y.Y.Y.Y.Y.Y.Y.Y.Y.Y.Y.Y.Y.Y.Y.Y.Y.Y.Y.Y.Y.Y.Y.Y.Y.Y.Y.Y.Y.Y.Y.Y.Y.Y.Y.Y.Y.Y.Y.Y.",
"Y.Y.Y.Y.Y.Y.Y.Y.Y.Y.Y.Y.Y.Y.Y.Y.Y.Y.Y.Y.Y.Y.Y.Y.Y.Y.Y.Y.Y.Y.Y.Y.Y.Y.Y.Y.Y.Y.Y.Y.Y.Y.Y.Y.Y.Y.Y.Y.Y.Y.Y.Y.Y.Y.Y.Y.Y.Y.Y.Y.Y.Y.Y.Y."
};
