/* XPM */
static char *_83a781e89a34580f0d15e951cca5daexbdNA1BVv3XR9gHT[] = {
/* columns rows colors chars-per-pixel */
"64 64 158 2 ",
"   c None",
".  c #2A1D0D",
"X  c #3E230E",
"o  c #2E2111",
"O  c #322414",
"+  c #362718",
"@  c #37291A",
"#  c #3B2B1B",
"$  c #3F2F21",
"%  c #323420",
"&  c #3F3022",
"*  c #572B0F",
"=  c #582B0F",
"-  c #402E1B",
";  c #572B10",
":  c #5A2D12",
">  c #46331E",
",  c #51311D",
"<  c #612F16",
"1  c #6B351A",
"2  c #65381A",
"3  c #412F22",
"4  c #403022",
"5  c #4B3623",
"6  c #4B3826",
"7  c #4C3928",
"8  c #513727",
"9  c #5E3B2A",
"0  c #603723",
"q  c #653C26",
"w  c #603D2B",
"e  c #773D22",
"r  c #4A412F",
"t  c #54402D",
"y  c #5D442C",
"u  c #474A37",
"i  c #5E4631",
"p  c #6F4222",
"a  c #60462E",
"s  c #6A402D",
"d  c #62492F",
"f  c #644B34",
"g  c #6B4F34",
"h  c #6C5136",
"j  c #6B5138",
"k  c #735639",
"l  c #75593D",
"z  c #7C5838",
"x  c #7C5E41",
"c  c #566144",
"v  c #497758",
"b  c #85452A",
"n  c #8C492E",
"m  c #894C36",
"M  c #934C31",
"N  c #875834",
"B  c #865432",
"V  c #9C5136",
"C  c #945139",
"Z  c #9D543A",
"A  c #925A3C",
"S  c #A3563B",
"D  c #AC5B3F",
"F  c #92633D",
"G  c #805F43",
"H  c #915D41",
"J  c #AD5B40",
"K  c #B05F43",
"L  c #836344",
"P  c #846748",
"I  c #8D6A4A",
"U  c #936F4D",
"Y  c #96714E",
"T  c #887351",
"R  c #9C7552",
"E  c #9F7854",
"W  c #A46546",
"Q  c #AC6547",
"!  c #A46F4A",
"~  c #B26244",
"^  c #B26548",
"/  c #A37C56",
"(  c #A37D59",
")  c #A87F59",
"_  c #BD7654",
"`  c #B57452",
"'  c #C17753",
"]  c #7E9B75",
"[  c #A6825B",
"{  c #AB835C",
"}  c #B18257",
"|  c #B2875F",
" . c #978560",
".. c #AB8660",
"X. c #AE8A63",
"o. c #B48B62",
"O. c #B39067",
"+. c #BD9266",
"@. c #B49169",
"#. c #BE956A",
"$. c #BD9B71",
"%. c #C48561",
"&. c #D18F64",
"*. c #C09467",
"=. c #C29669",
"-. c #C5996B",
";. c #CA9C6D",
":. c #D8986A",
">. c #C39F72",
",. c #C89E70",
"<. c #D3A16E",
"1. c #CDA172",
"2. c #C6A67A",
"3. c #CBAB7D",
"4. c #C5A175",
"5. c #D2A373",
"6. c #DBA371",
"7. c #D9A976",
"8. c #D3AB7B",
"9. c #DDAC79",
"0. c #DDB07C",
"q. c #E5A877",
"w. c #E4B27D",
"e. c #E9B67F",
"r. c #6DD4A6",
"t. c #CFAF80",
"y. c #DEAF80",
"u. c #D2B484",
"i. c #DEB481",
"p. c #D7B989",
"a. c #DABE8D",
"s. c #E3B681",
"d. c #E9B780",
"f. c #E5B985",
"g. c #ECBA82",
"h. c #E6BE89",
"j. c #ECBF88",
"k. c #F2BE85",
"l. c #DEC18F",
"z. c #ECC48D",
"x. c #E4C18D",
"c. c #F5C187",
"v. c #F5C48B",
"b. c #E2C794",
"n. c #ECC791",
"m. c #EBC993",
"M. c #E6CC98",
"N. c #F5CD95",
"B. c #EED29E",
"V. c #F5D097",
"C. c #F5D49D",
"Z. c #F5D39C",
"A. c #F5D89F",
"S. c #F5D7A0",
"D. c #F5DAA2",
"F. c #F5DDA6",
"G. c #F5DEA6",
"H. c #F5DBA4",
/* pixels */
"                                                                                                                                ",
"                                                                                                                                ",
"                                                                                                                                ",
"                                                                                                                                ",
"                                                                                                                                ",
"                                                                                                                                ",
"                                                                                                                                ",
"                                                                                                                                ",
"                                                                                                                                ",
"                                                                                                                                ",
"                                                                                                                                ",
"                                                                          .                                                     ",
"                                                                          .                                                     ",
"                                                                          .                                                     ",
"                                                                          .             R R X.B.F.a.R                           ",
"                                                                          X             4.X.[ 3.u.3.>.a.                        ",
"                                                                    J b ; ;           g.Z.3.( R / $.D.D.D.                      ",
"                                                              D D J J b ; ;           o.f.n.p.( 2.m.v.v.v.                      ",
"                                                  Z.c.c.c.q.~ J J J D   ; ;           / +.i.z.1.f.N.c.7.-.                      ",
"                                                C.N.c.c.e.:.K J ^ _       ;         O.R ..,.w.w.7.<.<.{                         ",
"                    c.c.c.              F.N.c.c.c.c.c.c.&.~ J J %.B.      3       F.u.( l.2./ / z 2 2                           ",
"                    +.9.v.F.        V.s.>.#.+.+.+.+.+.+.` J J n ! N.A. .o $     F.N.8.( b.x.-./ A n n                 . .       ",
"                    R -.s.C.D.    C.h.1./ R R R R R R R W S M 1 B 6.y.E , 4 # T p.j.5.( b.N.w./ H C D               . . .       ",
"                      R o.k.Z.H.S.v.-.R                 J V : : e J J J Z 8 + 5 R 7.5.[ b.N.w./ f w D         . . .             ",
"                          o.o.@.@.o.{                         n V J J J D C m W 9.=.>.l.v.v.w./ f 5 9     $ o                   ",
"                          R R R R R                             D D m C J J J ' c.8.2.t.1.s.z.-.I l I f   $ o                   ",
"                                                                    4 s Z D J _ e.N.p.{ { 2.m.g.=.+.c.l 3                       ",
"                                                                  4 & - , Z J Q { 0.n.M.M.2.{ { 1.s.                            ",
"                                                                4 4 4 # # 0 q q y / >.2.2.4.;.;.} F :                           ",
"                                                              4 4 4 4 4 # o . . . f U | | 5.g.<.N ; ;                           ",
"        . O & & & & & & 4                                   4 4 4 4 4 4 # o . . . o l k.k.k.6.p : ; ; ; ;                       ",
"          O O O O + $ 4 & 4                           4 & 4 4 4 4 $ + O O . . . . . > k k Y       ; ; ; ; ;                     ",
"            . . . o @ @ # 4 3                         i 6 @ @ @ @ @ o . . . . . . . . . .           = ; ; ;                     ",
"                    . . O $ $ $ 4 4 4               t I a o . . . . . . . . . . . . .                 ; * : : <                 ",
"                          o o + 4 4 4 & & & & & & P +.j j h o . . . . . . . . .                         ; : n S J               ",
"                          . . O + + + + + + + @ x #.d.[ L j a y y y y c v % .                             1 S J D               ",
"                                . . . . . . O - =.c.c.c.[ j I I I I I ] r.                                  D J D               ",
"                                              I 7.c.c.c.d.+.t 7 7 7 7 r u                             D D D D J D               ",
"                                              R 9.c.c.c.c.w.{ [ [ [ [ [ {                         D J J J J J                   ",
"                                            R R ;.e.c.c.c.c.c.c.c.c.c.c.c.                      D J J J J J                     ",
"                                          R R R R =.c.c.c.c.c.c.c.c.c.c.c.c.c.c.                D J J J J                       ",
"                                        R R R R R ) =.g.c.c.c.c.c.c.N.C.Z.c.c.c.c.                                              ",
"                                        R R R R R R / ;.5.9.k.c.c.c.N.S.D.N.v.c.c.c.                                            ",
"                                        R R R R R R R R Y { e.k.c.c.c.N.F.F.N.c.c.c.c.                                          ",
"                                      R R R R R R R R R h y { 9.c.c.c.N.F.F.N.c.c.c.c.                                          ",
"                                    R R R R R R R R R R a > Y 7.c.c.c.v.Z.H.C.N.c.c.c.                                          ",
"                                    R R R R R R R R R R a - L =.d.c.c.c.v.C.D.C.c.c.c.c.                                        ",
"                                  R R R R R R R R R R R y . + x =.c.c.c.c.c.Z.C.c.c.c.c.                                        ",
"                                R R R R R R R R R R U d # . . k { =.e.c.c.c.v.N.c.c.c.c.                                        ",
"                              G R R R R R R R R R I h + . . . k R E ;.e.c.c.c.c.c.c.g.7.                                        ",
"                          & 4 f R R R R R R R R R g . . . . . k R R R -.c.c.c.c.c.c.5.R                                         ",
"                  & & & 4 4 4 f R R R R R R R R d # . . . # l L R R R ) *.g.c.c.c.;.{ R                                         ",
"                  4 4 4 4 4 4 f R R R R R R R R h y y y y f Y     R R R / ;.5.5.5.{ R R                                         ",
"                  4 4 & & &           R R R R R R R R R R R         R R R R R R R R R R                                         ",
"                  4 4 4                   R R R R R R R R             R R R R R R R R R                                         ",
"                  3 &                                                   R R R R R R R R                                         ",
"                  3                                                       R R R R R R R                                         ",
"                                                                                R R R                                           ",
"                                                                                f f f                                           ",
"                                                                                & 4 4                                           ",
"                                                                                4 4 4 4 4 4 &                                   ",
"                                                                                  4 4 4 4 3                                     ",
"                                                                                  & 4 & 4                                       ",
"                                                                                  & 4 &                                         "
};
