/* XPM */
static const char *cnVuX3I4[] = {
/* columns rows colors chars-per-pixel */
"64 64 185 2 ",
"   c #2A1D0D",
".  c #2F210F",
"X  c #2D2111",
"o  c #2F2917",
"O  c #322414",
"+  c #3A2715",
"@  c #382815",
"#  c #342A1A",
"$  c #3B2B1C",
"%  c #362816",
"&  c #3E2E20",
"*  c #3F3022",
"=  c #343824",
"-  c #572B0F",
";  c #4F2910",
":  c #442D1C",
">  c #572B10",
",  c #592D12",
"<  c #47341E",
"1  c #54321E",
"2  c #5C3014",
"3  c #633317",
"4  c #6A361C",
"5  c #663419",
"6  c #713A1E",
"7  c #402F22",
"8  c #413022",
"9  c #493626",
"0  c #4E3923",
"q  c #493728",
"w  c #4C3828",
"e  c #533C26",
"r  c #5B3925",
"t  c #533D2A",
"y  c #563622",
"u  c #663C28",
"i  c #773D22",
"p  c #7A3E23",
"a  c #39422C",
"s  c #45452E",
"d  c #52422B",
"f  c #5A432C",
"g  c #5F4A2F",
"h  c #5C4531",
"j  c #5E4832",
"k  c #44583E",
"l  c #5A563E",
"z  c #6E4122",
"x  c #78452B",
"c  c #7F512F",
"v  c #634C33",
"b  c #694F34",
"n  c #744530",
"m  c #7F4731",
"M  c #754C36",
"N  c #6D5236",
"B  c #6D573D",
"V  c #70543A",
"C  c #75583C",
"Z  c #7A5D3D",
"A  c #7D573D",
"S  c #7C5E42",
"D  c #775C40",
"F  c #486448",
"G  c #58674A",
"H  c #496F51",
"J  c #547657",
"K  c #7C6043",
"L  c #7E6848",
"P  c #786F50",
"I  c #697455",
"U  c #84452A",
"Y  c #80472B",
"T  c #8E4C34",
"R  c #804C33",
"E  c #954E33",
"W  c #865A3B",
"Q  c #8E5C3D",
"!  c #9C5136",
"~  c #96523A",
"^  c #9A533A",
"/  c #995838",
"(  c #945C3F",
")  c #A3563C",
"_  c #AC5A3F",
"`  c #93653F",
"'  c #825E42",
"]  c #915F43",
"[  c #AD5B40",
"{  c #826244",
"}  c #8C6A4A",
"|  c #836F4E",
" . c #926D4C",
".. c #976B45",
"X. c #96714F",
"o. c #9C7552",
"O. c #9D7A55",
"+. c #A26243",
"@. c #A96545",
"#. c #B36D4C",
"$. c #A3724D",
"%. c #AF744D",
"&. c #B7704D",
"*. c #A37A55",
"=. c #A57E58",
"-. c #A87F5A",
";. c #A67852",
":. c #608866",
">. c #6F8B68",
",. c #7B8563",
"<. c #6A9672",
"1. c #AC845C",
"2. c #AD895E",
"3. c #B1865E",
"4. c #B38A5F",
"5. c #BB845B",
"6. c #8D8662",
"7. c #988963",
"8. c #87936E",
"9. c #AB8660",
"0. c #AE8962",
"q. c #B38B63",
"w. c #B98E63",
"e. c #BE9266",
"r. c #BD966B",
"t. c #BD996D",
"y. c #B7946B",
"u. c #BE9E72",
"i. c #80A17A",
"p. c #B8A075",
"a. c #C08F5F",
"s. c #C0865C",
"d. c #C58F64",
"f. c #C29365",
"g. c #C39569",
"h. c #C4996B",
"j. c #CC9D6E",
"k. c #D3986A",
"l. c #C39E72",
"z. c #D19F70",
"x. c #D1A16F",
"c. c #C4A275",
"v. c #CDA273",
"b. c #CAA678",
"n. c #CCAB7D",
"m. c #D3A474",
"M. c #DAAA76",
"N. c #D0A778",
"B. c #D3AB7B",
"V. c #DBAE7B",
"C. c #D6A876",
"Z. c #D7B07F",
"A. c #DDB07C",
"S. c #E1AE7A",
"D. c #E2B27D",
"F. c #E8B67F",
"G. c #64A780",
"H. c #6AB68D",
"J. c #70B088",
"K. c #6ABC91",
"L. c #CEAF81",
"P. c #CFB081",
"I. c #D4B384",
"U. c #DBB483",
"Y. c #DCBB8A",
"T. c #D8B987",
"R. c #E9B780",
"E. c #E6BA85",
"W. c #ECBB83",
"Q. c #E2BE8B",
"!. c #EBBF88",
"~. c #F1BE85",
"^. c #EBC28C",
"/. c #E6C28D",
"(. c #F5C187",
"). c #F5C389",
"_. c #F5C88F",
"`. c #EAC591",
"'. c #E9CB96",
"]. c #F5CA91",
"[. c #ECD39E",
"{. c #F5D59D",
"}. c #F6D9A2",
"|. c None",
" X c black",
/* pixels */
"|.|.|.|.|.|.|.|.|.|.|.|.|.|.|.|.|.|.|.|.|.|.|.|.|.|.|.|.|.|.|.|.|.|.|.|.|.|.|.|.|.|.|.|.|.|.|.|.|.|.|.|.|.|.|.|.|.|.|.|.|.|.|.|.",
"|.|.|.|.|.|.|.|.|.|.|.|.|.|.|.|.|.|.|.|.|.|.|.|.|.|.|.|.|.|.|.|.|.|.|.|.|.|.|.|.|.|.|.|.|.|.|.|.|.|.|.|.|.|.|.|.|.|.|.|.|.|.|.|.",
"|.|.|.|.|.|.|.|.|.|.|.|.|.|.|.|.|.|.|.|.|.|.|.|.|.|.|.|.|.|.|.|.|.|.|.|.|.|.|.|.|.|.|.|.|.|.|.|.|.|.|.|.|.|.|.|.|.|.|.|.|.|.|.|.",
"|.|.|.|.|.|.|.|.|.|.|.|.|.|.|.|.|.|.|.|.|.|.|.|.|.|.|.|.|.|.|.|.|.|.|.|.|.|.|.|.|.|.|.|.|.|.|.|.|.|.|.|.|.|.|.|.|.|.|.|.|.|.|.|.",
"|.|.|.|.|.|.|.|.|.|.|.|.|.|.|.|.|.|.|.|.|.|.|.|.|.|.|.|.|.|.|.|.|.|.|.|.|.|.|.|.|.|.|.|.|.|.|.|.|.|.|.|.|.|.|.|.|.|.|.|.|.|.|.|.",
"|.|.|.|.|.|.|.|.|.|.|.|.|.|.|.|.|.|.|.|.|.|.|.|.|.|.|.|.|.|.|.|.|.|.|.|.|.|.|.|.|.|.|.|.|.|.|.|.|.|.|.|.|.|.|.|.|.|.|.|.|.|.|.|.",
"|.|.|.|.|.|.|.|.|.|.|.|.|.|.|.|.|.|.|.|.|.|.|.|.|.|.|.|.|.|.|.|.|.|.|.|.|.|.|.|.|.|.|.|.|.|.|.|.|.|.|.|.|.|.|.|.|.|.|.|.|.|.|.|.",
"|.|.|.|.|.|.|.|.|.|.|.|.|.|.|.|.|.|.|.|.|.|.|.|.|.|.|.|.|.|.|.|.|.|.|.|.|.|.|.|.|.|.|.|.|.|.|.|.|.|.|.|.|.|.|.|.|.|.|.|.|.|.|.|.",
"|.|.|.|.|.|.|.|.|.|.|.|.|.|.|.|.|.|.|.|.|.|.|.|.|.|.|.|.|.|.|.|.|.|.|.|.|.|.|.|.|.|.|.|.|.|.|.|.|.|.|.|.|.|.|.|.|.|.|.|.|.|.|.|.",
"|.|.|.|.|.|.|.|.|.|.|.|.|.|.|.|.|.|.|.|.|.|.|.|.|.|.|.|.|.|.|.|.|.|.|.|.|.|.|.|.|.|.|.|.|.|.|.|.|.|.|.|.|.|.|.|.|.|.|.|.|.|.|.|.",
"|.|.|.|.|.|.|.|.|.|.|.|.|.|.|.|.|.|.|.|.|.|.|.|.|.|.|.|.|.|.|.|.|.|.|.|.|.|.|.|.|.|.|.|.|.|.|.|.|.|.|.|.|.|.|.|.|.|.|.|.|.|.|.|.",
"|.|.|.|.|.|.|.|.|.|.|.|.|.|.|.|.|.|.|.|.|.|.|.|.|.|.|.|.|.|.|.|.|.|.|.|.|.|.|.|.|.|.|.|.|.|.|.|.|.|.|.|.|.|.|.|.|.|.|.|.|.|.|.|.",
"|.|.|.|.|.|.|.|.|.|.|.|.|.|.|.|.|.|.|.|.|.|.|.|.|.|.|.|.|.|.|.|.|.|.|.|.|.|.|.|.|.|.|.|.|.|.|.|.|.|.|.|.|.|.|.|.|.|.|.|.|.|.|.|.",
"|.|.|.|.|.|.|.|.|.|.|.|.|.|.u.c.I.n.q.9.y.|.|.|.|.|.|.|.|.|.|.|.|.|.|.|.|.|.|.|.|.|.|.|.|.|.|.|.|.|.|.|.|.|.|.|.|.|.|.|.|.|.|.|.",
"|.|.|.|.|.|.|.|.|.|.|.|.|.[.'.T.t.9.=.q.I.`.|.|.|.|.|.; > 5 T |.|.|.|.|.|.|.|.|.|.|.|.|.|.|.|.|.|.|.|.|.|.|.|.|.|.|.|.|.|.|.|.|.",
"|.|.|.|.|.|.|.|.|.|.|.|.|.'.{.Q.t.0.q.h.U./.|.|.|.|.|.> > 4 E [ |.|.|.|.|.|.|.|.|.|.|.|.|.|.|.|.|.|.|.|.|.|.|.|.|.|.|.|.|.|.|.|.",
"|.|.|.|.|.|.|.|.|.|.|.|.|.U.^.!.V.B.Z.Z.N.v.|.|.|.|.|.> > 4 E [ _ _ |.|.|.|.|.|.|.|.|.|.|.|.|.`.T.L.L.I.Y.|.|.|.|.|.|.|.|.|.|.|.",
"|.|.|.|.|.|.|.|.|.|.|.|.|.j.x.x.v.b.Z.V.v.h.t.|.|.|.|.|.|.|.! [ [ _ _ |.|.|.|.|.|.|.|.|.|.|.^.Q.I.n.n.P.Y.|.|.|.|.|.|.|.|.|.|.|.",
"|.|.|.|.|.|.|.|.|.|.|.|.|.|.` ` ..*.q.t.b.n.P.P.|.|.|.|.|.|.|.|.[ [ [ [ |.|.|.|.|.|.|.|.).W.V.B.c.|.|.|.|.|.|.|.|.|.|.|.|.|.|.|.",
"|.|.|.|.|.|.|.|.|.|.|.|.|.|.x R W ..1.t.L.T.I.I.|.|.|.|.|.|.|.|.! ! ) _ _ |.|.|.|.|.|.|.W.D.m.h.|.|.|.|.|.|.|.|.|.|.|.|.|.|.|.|.",
"|.|.|.|.|.  |.|.|.|.|.|.|.|.~ ^ ( $.g.V.T.T.U.V.T.p.B : : 1 |.|.p U E ) ) |.|.|.|.|.|.W.D.m.g.|.|.|.|.|.|.|.|.|.|.|.|.|.|.|.|.|.",
"|.|.|.|.|.  |.|.|.|.|.|.|.|.~ ~ Q $.z.E.Q.Y.B.C.I.u.S r u u T E p Y ^ @.&.|.|.|.|.|.E.D.m.j.|.|.|.|.|.|.|.|.|.|.|.|.|.|.|.|.|.|.",
"|.|.|.|.|.|.|.|.|.|.|.|.|.|.n M M  .j.E.^.Q.B.v.N.e.] m T ~ ) ) E / %.s.k.S.`.}.{.`.V.v.h.|.|.|.|.|.|.|.|.|.|.|.|.|.|.|.|.|.|.|.",
"|.|.|.|.|.|.|.|.|.|.|.|.|.|.A ' ' O.b.E.U.Z.b.b.N.d.+.~ ) ) ^ ~ ! +.5.f.j.m.U.T.T.I.v.h.|.|.|.|.|.|.|.|.|.|.|.|.|.|.|.|.|.|.|.|.",
"|.|.|.|.|.|.|.|.|.|.|.|.|.C q.g.4.r.T.Y.l.t.n.U.A.k.#.) ) ~ n u |.|.|.|.1.1.0.0.0.q.q.|.|.|.|.|.|.|.|.|.|.|.|.|.|.|.|.|.|.|.|.|.",
"|.|.|.|.|.|.|.|.|.|.|.|.|.S g.m.h.v.U.I.t.y.n.B.v.5.@.~ T x e 8 |.|.|.|.o.o.o.o.o.o.|.|.|.|.|.|.|.|.|.|.|.|.|.|.|.|.|.|.|.|.|.|.",
"|.|.|.|.|.|.|.|.|.|.|.|.|.|.|.$.3.e.v.b.c.c.b.t.o.W R x r y 8 * 8 |.|.|.|.|.|.|.|.|.|.|.|.|.|.|.|.|.|.|.|.|.|.|.|.|.|.|.|.|.|.|.",
"|.|.|.|.|.|.|.|.|.|.|.|.|.|., x ..;.f.v.B.b.r.O.N r r 1 : $ & * 8 8 |.|.|.|.|.|.|.|.|.|.|.|.|.|.|.|.|.|.|.|.|.|.|.|.|.|.|.|.|.|.",
"|.|.|.|.|.|.|.|.|.|.|.|.|.> , 3 z Q f.M.D.v.O.C 0 + + + $ $ & * * 8 8 8 |.|.|.|.|.|.|.|.|.|.|.|.|.|.|.|.|.|.8 8 8 $ O   |.|.|.|.",
"|.|.|.|.|.|.|.|.|.|.|.|.- > > , 2 c a.M.j.1.Z e @     X % $ $ $ & & & & & |.|.|.|.|.|.|.|.|.|.|.|.|.|.|.|.|.& & $ % O   |.|.|.|.",
"|.|.|.|.|.|.|.|.|.|.|.|., > > > |.|.|.|.C f < @ .       X O O % % $ $ $ $ 8 |.|.|.|.|.|.|.|.|.|.|.|.|.|.* & $ $ % % |.|.|.|.|.|.",
"|.|.|.|.|.|.|.|.|.|.|.3 , > > |.|.|.|.|.|.                    O O % 8 q q e v |.|.|.|.|.|.|.|.|.|.|.|.$ $ $ % % O |.|.|.|.|.|.|.",
"|.|.|.|.|.|.|.|.|.! U i 3 > |.|.|.|.|.|.|.|.|.|.|.              X $ f N b b v h w 8 8 * 8 & $ % % O O O % O O |.|.|.|.|.|.|.|.|.",
"|.|.|.|.|.|.|.|.|.) E U 6 |.|.|.|.|.|.|.|.|.|.|.|.|.    X X X o = s v V V C S S V j q & $ % % % O O O O O O |.|.|.|.|.|.|.|.|.|.",
"|.|.|.|.|.|.|.|.[ _ ) ! |.|.|.|.|.|.|.|.|.|.|.|.|.|.|.|.# # # a H J l h h D 1.r.1.} f $ O X O |.|.|.|.|.|.|.|.|.|.|.|.|.|.|.|.|.",
"|.|.|.|.|.|.|.|.[ [ [ [ |.|.|.|.|.|.|.|.|.|.|.|.|.|.|.|.F F k F :.>.P K K o.v.D.j.O.j % X   |.|.|.|.|.|.|.|.|.|.|.|.|.|.|.|.|.|.",
"|.|.|.|.|.|.|.|.|.[ [ [ [ _ |.|.|.|.|.|.|.|.|.|.|.|.|.|.K.H.G.<.,.7.r.v.v.C.R.R.N.1.v O |.|.|.|.|.|.|.|.|.|.|.|.|.|.|.|.|.|.|.|.",
"|.|.|.|.|.|.|.|.|.|.|.[ [ [ [ [ |.|.|.|.|.|.|.|.|.|.|.8.J.H.J.i.7.e.D.).).).).W.A.g.|.|.|.|.|.|.|.|.|.|.|.|.|.|.|.|.|.|.|.|.|.|.",
"|.|.|.|.|.|.|.|.|.|.|.|.[ [ [ [ [ |.|.|.|.|.|.|.|.|.o.| G G I 6.u.D.W.)._.].).(.W.V.|.|.|.|.|.|.|.|.|.|.|.|.|.|.|.|.|.|.|.|.|.|.",
"|.|.|.|.|.|.|.|.|.|.|.|.|.[ [ [ |.|.|.|.|.|.|.|.|.|.o.{ d d L 0.V.~.(._.].]._.).).).|.|.|.|.|.|.|.|.|.|.|.|.|.|.|.|.|.|.|.|.|.|.",
"|.|.|.|.|.|.|.|.|.|.|.|.|.|.|.|.|.|.|.|.|.|.|.|.o.o.o.{ e g 2.V.W.(.)._.{.{._.).(.(.|.|.|.|.|.|.|.|.|.|.|.|.|.|.|.|.|.|.|.|.|.|.",
"|.|.|.|.|.|.|.|.|.|.|.|.|.|.|.|.|.|.|.|.|.|.|.o.o.o.o.{ 0 v h.(.(.).).].{.{._.).).(.|.|.|.|.|.|.|.|.|.|.|.|.|.|.|.|.|.|.|.|.|.|.",
"|.|.|.|.|.|.|.|.|.|.|.|.|.|.|.|.|.|.|.|.|.|.o.o.o.o.o.{ 0 v h.(.(.).).].{.{.].).).(.(.|.|.|.|.|.|.|.|.|.|.|.|.|.|.|.|.|.|.|.|.|.",
"|.|.|.|.|.|.|.|.|.|.|.|.|.|.|.|.|.|.|.|.|.|.o.o.o.o.o.{ e b h.~.(.).).].{.{.].).(.(.(.(.|.|.|.|.|.|.|.|.|.|.|.|.|.|.|.|.|.|.|.|.",
"|.|.|.|.|.|.|.|.|.|.|.|.|.|.|.|.|.|.|.|.|.|.o.o.o.o.o.{ f N g.~.~.).).].{.{.].).(.(.(.(.|.|.|.|.|.|.|.|.|.|.|.|.|.|.|.|.|.|.|.|.",
"|.|.|.|.|.|.|.|.|.|.|.|.|.|.|.|.|.|.|.|.|.o.o.o.o.o.o.} b Z e.S.W.~.)._.{.{._.).(.(.(.(.|.|.|.|.|.|.|.|.|.|.|.|.|.|.|.|.|.|.|.|.",
"|.|.|.|.|.|.|.|.|.|.|.|.|.|.|.|.|.|.|.|.o.o.o.o.o.o.o.X.}  .1.h.V.W.(.).].].).(.(.(.(.(.(.(.|.|.|.|.|.|.|.|.|.|.|.|.|.|.|.|.|.|.",
"|.|.|.|.|.|.|.|.|.|.|.|.|.|.|.|.|.|.|.|.o.o.o.o.o.o.o.o.o.o.*.3.h.V.W.).).).).(.(.(.(.(.(.(.|.|.|.|.|.|.|.|.|.|.|.|.|.|.|.|.|.|.",
"|.|.|.|.|.|.|.|.|.|.|.|.|.|.|.|.|.|.|.|.o.o.o.o.o.o.o.o.o.o.o.*.1.g.D.).).).(.(.(.(.(.).(.(.|.|.|.|.|.|.|.|.|.|.|.|.|.|.|.|.|.|.",
"|.|.|.|.|.|.|.|.|.|.|.|.|.|.|.|.|.|.|.|.o.o.o.o.o.o.o.o.o.o.o.o.o.3.m.D.R.W.~.(.(.(.(.(.(.(.~.|.|.|.|.|.|.|.|.|.|.|.|.|.|.|.|.|.",
"|.|.|.|.|.|.|.|.|.|.|.|.|.|.|.|.|.|.|.|.o.o.o.o.o.o.o.o.o.o.|.|.o.=.q.g.m.D.W.(.(.(.(.(.(.~.R.m.|.|.|.|.|.|.|.|.|.|.|.|.|.|.|.|.",
"|.|.|.|.|.|.|.|.|.|.|.|.|.|.|.|.|.|.|.|.o.o.o.o.o.o.o.o.o.o.|.|.|.|.*.1.e.j.M.F.~.(.(.~.F.S.M.r.{ q |.|.|.|.|.|.|.|.|.|.|.|.|.|.",
"|.|.|.|.|.|.|.|.|.|.|.|.|.|.|.|.|.|.|.|.o.o.o.o.o.o.o.o.o.|.|.|.|.|.|.*.-.3.w.j.F.(.(.F.v.e.w.O.v 8 8 8 8 7 8 |.|.|.|.|.|.|.|.|.",
"|.|.|.|.|.|.|.|.|.|.|.|.|.|.|.|.|.|.|.|.o.o.o.o.o.o.o.o.|.|.|.|.|.|.|.|.o.*.=.w.m.V.S.m.w.1.-.} h 8 8 8 8 8 7 7 |.|.|.|.|.|.|.|.",
"|.|.|.|.|.|.|.|.|.|.|.|.|.|.|.|.|.|.|.|.o.o.o.o.o.o.o.|.|.|.|.|.|.|.|.|.|.o.*.=.1.4.q.3.-.=.|.|.|.|.8 8 8 8 8 * |.|.|.|.|.|.|.|.",
"|.|.|.|.|.|.|.|.|.|.|.|.|.|.|.|.|.|.|.|.o.X. . .X.o.|.|.|.|.|.|.|.|.|.|.|.|.o.o.o.o.o.o.o.|.|.|.|.|.|.8 * * * 8 |.|.|.|.|.|.|.|.",
"|.|.|.|.|.|.|.|.|.|.|.|.|.|.|.|.|.|.|.|.|.S C C |.|.|.|.|.|.|.|.|.|.|.|.|.|.|.o.o.o.|.|.|.|.|.|.|.|.|.|.|.* * 8 |.|.|.|.|.|.|.|.",
"|.|.|.|.|.|.|.|.|.|.|.|.|.|.|.|.|.|.|.|.|.t h h |.|.|.|.|.|.|.|.|.|.|.|.|.|.|.|.|.|.|.|.|.|.|.|.|.|.|.|.|.|.8 |.|.|.|.|.|.|.|.|.",
"|.|.|.|.|.|.|.|.|.|.|.|.|.|.|.|.|.|.7 8 8 8 q q |.|.|.|.|.|.|.|.|.|.|.|.|.|.|.|.|.|.|.|.|.|.|.|.|.|.|.|.|.|.|.|.|.|.|.|.|.|.|.|.",
"|.|.|.|.|.|.|.|.|.|.|.|.|.|.|.|.|.|.8 8 * 7 8 8 |.|.|.|.|.|.|.|.|.|.|.|.|.|.|.|.|.|.|.|.|.|.|.|.|.|.|.|.|.|.|.|.|.|.|.|.|.|.|.|.",
"|.|.|.|.|.|.|.|.|.|.|.|.|.|.|.|.|.|.7 8 7 8 8 |.|.|.|.|.|.|.|.|.|.|.|.|.|.|.|.|.|.|.|.|.|.|.|.|.|.|.|.|.|.|.|.|.|.|.|.|.|.|.|.|.",
"|.|.|.|.|.|.|.|.|.|.|.|.|.|.|.|.|.|.|.|.8 8 |.|.|.|.|.|.|.|.|.|.|.|.|.|.|.|.|.|.|.|.|.|.|.|.|.|.|.|.|.|.|.|.|.|.|.|.|.|.|.|.|.|.",
"|.|.|.|.|.|.|.|.|.|.|.|.|.|.|.|.|.|.|.|.|.|.|.|.|.|.|.|.|.|.|.|.|.|.|.|.|.|.|.|.|.|.|.|.|.|.|.|.|.|.|.|.|.|.|.|.|.|.|.|.|.|.|.|.",
"|.|.|.|.|.|.|.|.|.|.|.|.|.|.|.|.|.|.|.|.|.|.|.|.|.|.|.|.|.|.|.|.|.|.|.|.|.|.|.|.|.|.|.|.|.|.|.|.|.|.|.|.|.|.|.|.|.|.|.|.|.|.|.|."
};
