/* XPM */
static const char *cnVuX3I1[] = {
/* columns rows colors chars-per-pixel */
"64 64 156 2 ",
"   c #2A1D0D",
".  c #3C230E",
"X  c #2E2111",
"o  c #322414",
"O  c #362718",
"+  c #372819",
"@  c #3A2B1D",
"#  c #3F2F21",
"$  c #3F3022",
"%  c #44250F",
"&  c #572C0F",
"*  c #412C1A",
"=  c #572B10",
"-  c #5A2D12",
";  c #4A311F",
":  c #5E3215",
">  c #633719",
",  c #6C371C",
"<  c #66391B",
"1  c #723A1F",
"2  c #412F21",
"3  c #413122",
"4  c #493727",
"5  c #4C3924",
"6  c #4B3D2C",
"7  c #523727",
"8  c #5C3520",
"9  c #513D2B",
"0  c #5E3D2A",
"q  c #663A25",
"w  c #6B3F20",
"e  c #763D22",
"r  c #7B3F24",
"t  c #723F29",
"y  c #56412E",
"u  c #5B442A",
"i  c #474936",
"p  c #5E4631",
"a  c #5E4833",
"s  c #5A5439",
"d  c #585A3F",
"f  c #61432C",
"g  c #7F4227",
"h  c #624A33",
"j  c #684E37",
"k  c #7C4832",
"l  c #6E5136",
"z  c #6D5138",
"x  c #72553B",
"c  c #755A3A",
"v  c #7B5C3E",
"b  c #7D5E41",
"n  c #4E7D5D",
"m  c #7F6245",
"M  c #834429",
"N  c #88462C",
"B  c #8C492E",
"V  c #80522E",
"C  c #824A34",
"Z  c #8D4C33",
"A  c #954F34",
"S  c #8C5139",
"D  c #8C5C3D",
"F  c #9A5035",
"G  c #96523A",
"H  c #9F553B",
"J  c #A3563B",
"K  c #AC5A3F",
"L  c #AD5B40",
"P  c #836345",
"I  c #8A6749",
"U  c #8C694A",
"Y  c #946746",
"T  c #936D4C",
"R  c #996D4C",
"E  c #97714F",
"W  c #937351",
"Q  c #9C7552",
"!  c #9F7C57",
"~  c #A06F4D",
"^  c #B16145",
"/  c #B86C4C",
"(  c #AC714F",
")  c #A4754B",
"_  c #A47250",
"`  c #A47C57",
"'  c #AB7B50",
"]  c #A47E59",
"[  c #A6825B",
"{  c #AB835D",
"}  c #B4865D",
"|  c #B9825A",
" . c #B2895F",
".. c #858361",
"X. c #818F6B",
"o. c #AD8962",
"O. c #B58C62",
"+. c #B98D63",
"@. c #BC9165",
"#. c #B7946B",
"$. c #BF9568",
"%. c #BB996F",
"&. c #B79D73",
"*. c #BE9D72",
"=. c #CF8F64",
"-. c #C49567",
";. c #C39669",
":. c #C5996B",
">. c #C99C6E",
",. c #D69568",
"<. c #C09F73",
"1. c #CB9F71",
"2. c #D5A26F",
"3. c #C4A275",
"4. c #C6A579",
"5. c #CBAA7C",
"6. c #D1A373",
"7. c #D7A876",
"8. c #D9AA77",
"9. c #DDAD79",
"0. c #D4AC7B",
"q. c #DBB17F",
"w. c #E1AF7A",
"e. c #E4B37D",
"r. c #E9B47E",
"t. c #6ECEA2",
"y. c #D0AF80",
"u. c #D3B585",
"i. c #DFB682",
"p. c #DBBF8E",
"a. c #E8B780",
"s. c #E7B883",
"d. c #EDBB83",
"f. c #E0BD8A",
"g. c #F1BE84",
"h. c #DCC08F",
"j. c #E6C48F",
"k. c #ECC38D",
"l. c #F5C187",
"z. c #F5C48A",
"x. c #F5C88F",
"c. c #E1C693",
"v. c #EEC790",
"b. c #E7C894",
"n. c #EDC993",
"m. c #E7CC99",
"M. c #F5CB92",
"N. c #EED29D",
"B. c #F5D29A",
"V. c #F4D7A0",
"C. c #F5DAA3",
"Z. c #F5D9A2",
"A. c #F5DDA6",
"S. c #F5DCA5",
"D. c None",
"F. c black",
/* pixels */
"D.D.D.D.D.D.D.D.D.D.D.D.D.D.D.D.D.D.D.D.D.D.D.D.D.D.D.D.D.D.D.D.D.D.D.D.D.D.D.D.D.D.D.D.D.D.D.D.D.D.D.D.D.D.D.D.D.D.D.D.D.D.D.D.",
"D.D.D.D.D.D.D.D.D.D.D.D.D.D.D.D.D.D.D.D.D.D.D.D.D.D.D.D.D.D.D.D.D.D.D.D.D.D.D.D.D.D.D.D.D.D.D.D.D.D.D.D.D.D.D.D.D.D.D.D.D.D.D.D.",
"D.D.D.D.D.D.D.D.D.D.D.D.D.D.D.D.D.D.D.D.D.D.D.D.D.D.D.D.D.D.D.D.D.D.D.D.D.D.D.D.D.D.D.D.D.D.D.D.D.D.D.D.D.D.D.D.D.D.D.D.D.D.D.D.",
"D.D.D.D.D.D.D.D.D.D.D.D.D.D.D.D.D.D.D.D.D.D.D.D.D.D.D.D.D.D.D.D.D.D.D.D.D.D.D.D.D.D.D.D.D.D.D.D.D.D.D.D.D.D.D.D.D.D.D.D.D.D.D.D.",
"D.D.D.D.D.D.D.D.D.D.D.D.D.D.D.D.D.D.D.D.D.D.D.D.D.D.D.D.D.D.D.D.D.D.D.D.D.D.D.D.D.D.D.D.D.D.D.D.D.D.D.D.D.D.D.D.D.D.D.D.D.D.D.D.",
"D.D.D.D.D.D.D.D.D.D.D.D.D.D.D.D.D.D.D.D.D.D.D.D.D.D.D.D.D.D.D.D.D.D.D.D.D.D.D.D.D.D.D.D.D.D.D.D.D.D.D.D.D.D.D.D.D.D.D.D.D.D.D.D.",
"D.D.D.D.D.D.D.D.D.D.D.D.D.D.D.D.D.D.D.D.D.D.D.D.D.D.D.D.D.D.D.D.D.D.D.D.D.D.D.D.D.D.D.D.D.D.D.D.D.D.D.D.D.D.D.D.D.D.D.D.D.D.D.D.",
"D.D.D.D.D.D.D.D.D.D.D.D.D.D.D.D.D.D.D.D.D.D.D.D.D.D.D.D.D.D.D.D.D.D.D.D.D.D.D.D.D.D.D.D.D.D.D.D.D.D.D.D.D.D.D.D.D.D.D.D.D.D.D.D.",
"D.D.D.D.D.D.D.D.D.D.D.D.D.D.D.D.D.D.D.D.D.D.D.D.D.D.D.D.D.D.D.D.D.D.D.D.D.D.D.D.D.D.D.D.D.D.D.D.D.D.D.D.D.D.D.D.D.D.D.D.D.D.D.D.",
"D.D.D.D.D.D.D.D.D.D.D.D.D.D.D.D.D.D.D.D.D.D.D.D.D.D.D.D.D.D.D.D.D.D.D.D.D.D.D.D.D.D.D.D.D.D.D.D.D.D.D.D.D.D.D.D.D.D.D.D.D.D.D.D.",
"D.D.D.D.D.D.D.D.D.D.D.D.D.D.D.D.D.D.D.D.D.D.D.D.D.D.D.D.D.D.D.D.D.D.D.D.D.D.D.D.D.D.D.D.D.D.D.D.D.D.D.D.D.D.D.D.D.D.D.D.D.D.D.D.",
"D.D.D.D.D.D.D.D.D.D.D.D.D.D.D.D.D.D.D.D.D.D.D.D.D.D.D.D.D.D.D.D.D.D.D.D.D.D.D.D.D.D.D.D.D.D.D.D.D.D.D.D.D.D.D.D.D.D.D.D.D.D.D.D.",
"D.D.D.D.D.D.D.D.D.D.D.D.D.D.D.D.D.D.D.D.D.D.D.D.D.D.D.  D.D.D.D.D.D.D.D.D.D.D.D.D.D.D.D.D.D.D.D.D.D.D.D.D.D.D.D.D.D.D.D.D.D.D.D.",
"D.D.D.D.D.D.D.D.D.D.D.D.D.D.D.D.D.D.D.D.D.D.D.D.D.D.D.  D.D.D.D.D.D.D.D.D.D.D.D.D.D.D.D.D.D.D.D.D.D.D.D.D.D.D.D.D.D.D.D.D.D.D.D.",
"D.D.D.D.D.D.D.D.D.D.D.D.D.D.D.<.A.A.5.Q Q D.D.D.D.D.D.  D.D.D.D.D.D.D.D.D.D.D.D.D.D.D.D.D.D.D.D.D.D.D.D.D.D.D.D.D.D.D.D.D.D.D.D.",
"D.D.D.D.D.D.D.D.D.D.D.D.D.D.5.4.u.u.#.] *.0.D.D.D.D.D.. % D.D.D.D.D.D.D.D.D.D.D.D.D.D.D.D.D.D.D.D.D.D.D.D.D.D.D.D.D.D.D.D.D.D.D.",
"D.D.D.D.D.D.D.D.D.D.D.D.D.C.C.u.] Q ` #.N.k.d.D.D.D.D.= = , K D.D.D.D.D.D.D.D.D.D.D.D.D.D.D.D.D.D.D.D.D.D.D.D.D.D.D.D.D.D.D.D.D.",
"D.D.D.D.D.D.D.D.D.D.D.D.D.x.x.v.h.{ <.b.x.>.{ D.D.D.D.= = , K L K L D.D.D.D.D.D.D.D.D.D.D.D.D.D.D.D.D.D.D.D.D.D.D.D.D.D.D.D.D.D.",
"D.D.D.D.D.D.D.D.D.D.D.D.D.:.r.x.M.6.i.k.1.{ Q D.D.D.D.= = D.D.L L L L D.D.D.D.D.D.D.B.z.z.z.x.S.D.D.D.D.D.D.D.D.D.D.D.D.D.D.D.D.",
"D.D.D.D.D.D.D.D.D.D.D.D.D.Q -.2.2.9.e.7.O.] ] D.D.D.D.= D.D.D.L L L L L D.D.D.D.D.V.n.e.e.e.s.B.C.D.D.D.D.D.D.D.D.D.D.D.D.D.D.D.",
"D.D.D.D.D.D.D.D.D.D.D.D.D.D.< < w R ` O.m.%.#.A.D.D.D.3 D.D.D.D.D.L L K L D.D.D.A.M.7.` ` ` O.d.B.A.D.D.D.D.D.D.D.D.D.D.D.D.D.D.",
"D.D.D.D.D.    D.D.D.D.D.D.D.B B Z R +.q.V.*.@.M.B.D.D.$ + D.D.D.D.r J L K D.D.B.M.6.O.D.D.D.[ @.i.M.D.D.D.D.D.D.D.D.D.D.D.D.D.D.",
"D.D.D.D.D.    D.D.D.D.D.D.D.K H S R >.x.C.*.+.l.f.&.D.# ; 8 D.D.e - M H ^ D.B.n.8.O.D.D.D.D.D.Q :.8.D.D.D.D.D.D.D.D.D.D.D.D.D.D.",
"D.D.D.D.D.D.D.      D.D.D.D.K C 4 I >.x.C.*.+.g.O.l o @ k L L L Z - - g / r.g.9.Q D.D.D.D.D.D.D.Q Q D.D.D.D.D.D.D.D.D.D.D.D.D.D.",
"D.D.D.D.D.D.D.D.D.D.  + 3 D.0 7 4 I >.z.x.j.y.O.6.| Z Z H L L L J A D Y _  .O. .D.D.D.D.D.D.D.D.D.D.D.D.D.D.D.D.D.D.D.D.D.D.D.D.",
"D.D.D.D.D.D.D.D.D.D.  + 2 D.P m x  .q.k.6.5.5.3.s.,.L L L J C G K L ~ Q Q Q Q D.D.D.D.D.D.D.D.D.D.D.D.D.D.D.D.D.D.D.D.D.D.D.D.D.",
"D.D.D.D.D.D.D.D.D.D.D.D.D.3 $.6.{ 9.k.p.o.[ <.C.k.=.L L J C 3 D.D.D.D.D.D.D.D.D.D.D.D.D.D.D.D.D.D.D.D.D.D.D.D.D.D.D.D.D.D.D.D.D.",
"D.D.D.D.D.D.D.D.D.D.D.D.D.D.D.D.w.O.{ #.c.m.n.z.$.( L L t * 3 3 3 D.D.D.D.D.D.D.D.D.D.D.D.D.D.D.D.D.D.D.D.D.D.D.D.D.D.D.D.D.D.D.",
"D.D.D.D.D.D.D.D.D.D.D.D.D.D.D.V ) -.>.1.4.4.3.;.v f q q ; + $ 3 3 2 D.D.D.D.D.D.D.D.D.D.D.D.D.D.D.D.D.D.D.D.D.D.D.D.D.D.D.D.D.D.",
"D.D.D.D.D.D.D.D.D.D.D.D.D.D.= = > | w.r.O. .` b *       O 3 3 3 3 3 D.D.D.D.D.D.D.D.D.D.D.D.D.D.D.D.D.D.D.D.D.D.D.D.D.D.D.D.D.D.",
"D.D.D.D.D.D.D.D.D.D.D.D.D.= = = - : ' l.g.g. .o         O 3 3 3 3 3 3 2 D.D.D.D.D.D.D.D.D.D.D.D.D.D.D.D.D.D.D.D.D.D.D.D.D.D.D.D.",
"D.D.D.D.D.D.D.D.D.D.D.D.= = = = D.D.D.D.c x u           X o o @ 3 3 3 3 $ $ D.D.D.D.D.D.D.D.D.D.D.D.D.D.D.D.D.D.D.D.D.D.D.D.D.D.",
"D.D.D.D.D.D.D.D.D.D.D.= = = = D.D.D.D.D.                      o + + + 5 h h y D.D.D.D.D.D.D.D.D.D.D.D.D.D.D.D.D.D.D.D.D.D.D.D.D.",
"D.D.D.D.D.D.D.D.D.D.- - = = D.D.D.D.D.D.D.D.D.                    o o f E E j 4 D.D.D.D.D.D.D.D.D.D.D.D.D.D.D.D.D.D.D.D.D.D.D.D.",
"D.D.D.D.D.D.D.D.D.K F 1 & D.D.D.D.D.D.D.D.D.D.D.D.              ; P P z y y x I Q p D.D.D.D.D.D.D.D.D.D.D.D.D.D.D.D.D.D.D.D.D.D.",
"D.D.D.D.D.D.D.D.D.L L N D.D.D.D.D.D.D.D.D.D.D.D.D.D.    5 s n d h x x P W W P x x 9 3 D.D.D.D.D.D.D.D.D.D.D.D.D.D.D.D.D.D.D.D.D.",
"D.D.D.D.D.D.D.D.D.L L L D.D.D.D.D.D.D.D.D.D.D.D.D.D.D.D.U ..t.X.b a a [ l.l.! a a 4 @ @ D.D.D.D.D.D.D.D.D.D.D.D.D.D.D.D.D.D.D.D.",
"D.D.D.D.D.D.D.D.D.L L L K K D.D.D.D.D.D.D.D.D.D.D.D.D.D.6 6 i 6 m 9.9.a.l.l.r.9.9.h X X @ $ $ $ $ $ $ $ $ $ $ $ $ $ o   D.D.D.D.",
"D.D.D.D.D.D.D.D.D.D.D.L L L L K L D.D.D.D.D.D.D.D.D.D.D.[ [ [ [ :.l.l.l.l.l.l.l.l.@.P D.o o o o @ 3 3 3 3 3 3 3 @ O X D.D.D.D.D.",
"D.D.D.D.D.D.D.D.D.D.D.D.L L L L K D.D.D.D.D.D.D.D.D.D.D.z.l.l.l.z.x.z.l.l.l.l.l.l.l.l.D.        O @ @ @ @ @ @ @ +   D.D.D.D.D.D.",
"D.D.D.D.D.D.D.D.D.D.D.D.D.K L L K D.D.D.D.D.D.D.D.D.D.D.z.l.l.l.M.S.x.l.l.l.l.l.l.l.l.D.D.D.D.D.                  D.D.D.D.D.D.D.",
"D.D.D.D.D.D.D.D.D.D.D.D.D.D.D.D.D.D.D.D.D.D.D.D.D.D.D.D.z.l.l.l.M.A.B.M.l.l.l.l.l.l.l.D.D.D.D.D.D.D.D.D.D.D.D.D.D.D.D.D.D.D.D.D.",
"D.D.D.D.D.D.D.D.D.D.D.D.D.D.D.D.D.D.D.D.D.D.D.D.D.D.D.D.z.l.l.l.M.A.A.B.l.l.l.l.l.l.l.D.D.D.D.D.D.D.D.D.D.D.D.D.D.D.D.D.D.D.D.D.",
"D.D.D.D.D.D.D.D.D.D.D.D.D.D.D.D.D.D.D.D.D.D.D.D.D.D.D.D.z.l.l.l.M.A.A.B.l.l.l.l.l.l.l.D.D.D.D.D.D.D.D.D.D.D.D.D.D.D.D.D.D.D.D.D.",
"D.D.D.D.D.D.D.D.D.D.D.D.D.D.D.D.D.D.D.D.D.D.D.D.D.D.D.D.z.l.l.l.M.A.A.B.l.l.l.l.l.l.l.D.D.D.D.D.D.D.D.D.D.D.D.D.D.D.D.D.D.D.D.D.",
"D.D.D.D.D.D.D.D.D.D.D.D.D.D.D.D.D.D.D.D.D.D.D.D.D.D.D.D.z.l.l.l.x.B.C.B.l.l.l.l.l.7.>.D.D.D.D.D.D.D.D.D.D.D.D.D.D.D.D.D.D.D.D.D.",
"D.D.D.D.D.D.D.D.D.D.D.D.D.D.D.D.D.D.D.D.D.D.D.D.D.D.D.D.e.r.l.l.l.z.B.M.l.l.l.l.l.+.Q D.D.D.D.D.D.D.D.D.D.D.D.D.D.D.D.D.D.D.D.D.",
"D.D.D.D.D.D.D.D.D.D.D.D.D.D.D.D.D.D.D.D.D.D.D.D.D.D.D.D.` +.g.l.l.l.z.z.l.l.l.l.l.+.Q D.D.D.D.D.D.D.D.D.D.D.D.D.D.D.D.D.D.D.D.D.",
"D.D.D.D.D.D.D.D.D.D.D.D.D.D.D.D.D.D.D.D.D.D.D.D.D.D.D.D.Q ` @.e.l.l.l.l.l.l.l.r.;.] Q D.D.D.D.D.D.D.D.D.D.D.D.D.D.D.D.D.D.D.D.D.",
"D.D.D.D.D.D.D.D.D.D.D.D.D.D.D.D.D.D.D.D.D.D.D.D.D.D.D.D.D.Q Q ;.e.l.l.l.l.l.r.>.Q Q Q D.D.D.D.D.D.D.D.D.D.D.D.D.D.D.D.D.D.D.D.D.",
"D.D.D.D.D.D.D.D.D.D.D.D.D.D.D.D.D.D.D.D.D.D.D.D.D.D.D.D.D.D.Q Q +.l.l.l.l.l.;.Q Q Q Q D.D.D.D.D.D.D.D.D.D.D.D.D.D.D.D.D.D.D.D.D.",
"D.D.D.D.D.D.D.D.D.D.D.D.D.D.D.D.D.D.D.D.D.D.D.D.D.D.D.D.D.D.D.Q ` +.r.l.l.l.;.Q Q Q Q D.D.D.D.D.D.D.D.D.D.D.D.D.D.D.D.D.D.D.D.D.",
"D.D.D.D.D.D.D.D.D.D.D.D.D.D.D.D.D.D.D.D.D.D.D.D.D.D.D.D.D.D.D.Q Q Q ;.6.6.6. .Q Q Q Q D.D.D.D.D.D.D.D.D.D.D.D.D.D.D.D.D.D.D.D.D.",
"D.D.D.D.D.D.D.D.D.D.D.D.D.D.D.D.D.D.D.D.D.D.D.D.D.D.D.D.D.D.D.Q Q Q Q Q Q Q Q Q T T T D.D.D.D.D.D.D.D.D.D.D.D.D.D.D.D.D.D.D.D.D.",
"D.D.D.D.D.D.D.D.D.D.D.D.D.D.D.D.D.D.D.D.D.D.D.D.D.D.D.D.D.D.D.D.D.Q Q Q Q Q Q P 9 9 9 D.D.D.D.D.D.D.D.D.D.D.D.D.D.D.D.D.D.D.D.D.",
"D.D.D.D.D.D.D.D.D.D.D.D.D.D.D.D.D.D.D.D.D.D.D.D.D.D.D.D.D.D.D.D.D.Q Q Q Q Q P h 3 3 3 D.D.D.D.D.D.D.D.D.D.D.D.D.D.D.D.D.D.D.D.D.",
"D.D.D.D.D.D.D.D.D.D.D.D.D.D.D.D.D.D.D.D.D.D.D.D.D.D.D.D.D.D.D.D.D.D.P P P P h $ 3 3 3 $ D.D.D.D.D.D.D.D.D.D.D.D.D.D.D.D.D.D.D.D.",
"D.D.D.D.D.D.D.D.D.D.D.D.D.D.D.D.D.D.D.D.D.D.D.D.D.D.D.D.D.D.D.D.D.D.4 4 4 4 D.D.$ 3 3 $ D.D.D.D.D.D.D.D.D.D.D.D.D.D.D.D.D.D.D.D.",
"D.D.D.D.D.D.D.D.D.D.D.D.D.D.D.D.D.D.D.D.D.D.D.D.D.D.D.D.D.D.D.D.D.D.$ 3 3 3 D.D.$ 3 $ D.D.D.D.D.D.D.D.D.D.D.D.D.D.D.D.D.D.D.D.D.",
"D.D.D.D.D.D.D.D.D.D.D.D.D.D.D.D.D.D.D.D.D.D.D.D.D.D.D.D.D.D.D.D.D.D.3 3 $ $ D.D.$ $ D.D.D.D.D.D.D.D.D.D.D.D.D.D.D.D.D.D.D.D.D.D.",
"D.D.D.D.D.D.D.D.D.D.D.D.D.D.D.D.D.D.D.D.D.D.D.D.D.D.D.D.D.D.D.D.D.3 3 3 $ D.D.D.3 D.D.D.D.D.D.D.D.D.D.D.D.D.D.D.D.D.D.D.D.D.D.D.",
"D.D.D.D.D.D.D.D.D.D.D.D.D.D.D.D.D.D.D.D.D.D.D.D.D.D.D.D.D.D.D.D.3 3 3 3 $ D.D.D.D.D.D.D.D.D.D.D.D.D.D.D.D.D.D.D.D.D.D.D.D.D.D.D.",
"D.D.D.D.D.D.D.D.D.D.D.D.D.D.D.D.D.D.D.D.D.D.D.D.D.D.D.D.D.D.D.D.$ $ $ $ D.D.D.D.D.D.D.D.D.D.D.D.D.D.D.D.D.D.D.D.D.D.D.D.D.D.D.D.",
"D.D.D.D.D.D.D.D.D.D.D.D.D.D.D.D.D.D.D.D.D.D.D.D.D.D.D.D.D.D.D.D.D.D.D.D.D.D.D.D.D.D.D.D.D.D.D.D.D.D.D.D.D.D.D.D.D.D.D.D.D.D.D.D."
};
