/* XPM */
static char *f440556577874f94a0edbaca05c9e0d5UmieYoKNFsr4RMn8[] = {
/* columns rows colors chars-per-pixel */
"64 64 156 2 ",
"   c None",
".  c #2A1D0D",
"X  c #2C200F",
"o  c #37220E",
"O  c #2F2111",
"+  c #332414",
"@  c #392916",
"#  c #362718",
"$  c #37281A",
"%  c #3A2B1C",
"&  c #3E2E20",
"*  c #3F3022",
"=  c #432E1C",
"-  c #482F1E",
";  c #572B10",
":  c #5A2D12",
">  c #42301C",
",  c #5B3116",
"<  c #53301D",
"1  c #643217",
"2  c #663319",
"3  c #412F21",
"4  c #403022",
"5  c #493623",
"6  c #4F3A25",
"7  c #4B3928",
"8  c #513727",
"9  c #513B25",
"0  c #513D2B",
"q  c #683A25",
"w  c #723A20",
"e  c #7D3F25",
"r  c #57412C",
"t  c #5C442C",
"y  c #5D4531",
"u  c #60462E",
"i  c #6A412E",
"p  c #62482F",
"a  c #714323",
"s  c #7C4025",
"d  c #764827",
"f  c #73422B",
"g  c #7E462F",
"h  c #784929",
"j  c #7E502E",
"k  c #614732",
"l  c #624A32",
"z  c #684E37",
"x  c #694F38",
"c  c #724430",
"v  c #7C4832",
"b  c #6D5137",
"n  c #695038",
"m  c #74563A",
"M  c #785A3D",
"N  c #755B40",
"B  c #7B5C41",
"V  c #844429",
"C  c #8C492E",
"Z  c #864B35",
"A  c #8D4E37",
"S  c #944E33",
"D  c #8A5234",
"F  c #865A37",
"G  c #845E3B",
"H  c #9B5136",
"J  c #9E553B",
"K  c #A4573D",
"L  c #A6583D",
"P  c #AC5B3F",
"I  c #985C41",
"U  c #AD5B40",
"Y  c #826244",
"T  c #886945",
"R  c #866849",
"E  c #8D694A",
"W  c #9D6B46",
"Q  c #926D4C",
"!  c #97714F",
"~  c #98714F",
"^  c #9C7552",
"/  c #9E7C56",
"(  c #A36944",
")  c #B16144",
"_  c #B06D4C",
"`  c #A27A56",
"'  c #AC7953",
"]  c #A57E59",
"[  c #A87F59",
"{  c #BE7554",
"}  c #B77B57",
"|  c #C67E59",
" . c #A6815C",
".. c #AC845C",
"X. c #B58659",
"o. c #AE8A63",
"O. c #B58C62",
"+. c #B98E64",
"@. c #BD9266",
"#. c #B7956C",
"$. c #B8966C",
"%. c #BF9E73",
"&. c #C6805A",
"*. c #C8815B",
"=. c #C68762",
"-. c #C09467",
";. c #C19569",
":. c #C4996C",
">. c #CA9D6E",
",. c #C49F73",
"<. c #C4A074",
"1. c #CCA273",
"2. c #C5A579",
"3. c #CAAA7C",
"4. c #D3A473",
"5. c #D7A976",
"6. c #DBAA76",
"7. c #D3AE7C",
"8. c #DDAE79",
"9. c #E0AF7A",
"0. c #E5B37D",
"q. c #EBB37D",
"w. c #CFB082",
"e. c #D1B384",
"r. c #DBB684",
"t. c #D8B887",
"y. c #DBBD8C",
"u. c #E2B783",
"i. c #E7BB85",
"p. c #EDBA82",
"a. c #E6BF8A",
"s. c #E8BE88",
"d. c #F2BE85",
"f. c #DDC08F",
"g. c #E5C18D",
"h. c #ECC48E",
"j. c #F5C187",
"k. c #F5C48A",
"l. c #F5C98F",
"z. c #E4C693",
"x. c #E4C996",
"c. c #F5CC93",
"v. c #ECD29D",
"b. c #F5D097",
"n. c #F5D69F",
"m. c #F5D39B",
"M. c #F5D7A0",
"N. c #F4D9A2",
"B. c #F4DBA3",
"V. c #F4DDA5",
"C. c #F5DDA5",
"Z. c #F4DCA5",
"A. c #F5DDA7",
"S. c #F6DDA6",
"D. c #F6DCA7",
"F. c #F5DCA5",
/* pixels */
"                                                                                                                                ",
"                                                                                                                                ",
"                                                                                                                                ",
"                                                                                                                                ",
"                                                                                                                                ",
"                                                                                                                                ",
"                                                                                                                                ",
"                                                                                                                                ",
"                                                                                                                                ",
"                                                                                .                                               ",
"                                                                                .                                               ",
"                                                                                .             ^ ^ #.C.C.e.^                     ",
"                                                                                o             #. .o.y.y.3.$.                    ",
"                                                                          U e ; ;           l.B.%.^ ^ ^ <.C.C.                  ",
"                                                                    U P U P s ; ;           :.h.g.2.^ 3.g.c.c.                  ",
"                                                                    U U ) | ' G :           ] >.a.a.-.g.c.d.6.                  ",
"                                                                  U U ) { q.c.3.,         ] ^ ] 4.p.p.0.0.6. .                  ",
"                                                              P U U U *.q.d.j.:.5       C.2...f.,.....F d h                     ",
"                                                              { U L C (      .M 4 / c.B.b.2.o.v.r.@.^ D V V                 . . ",
"                                                            M.=.L S 2 2     < = 4 / 7.z.j.>.o.v.c.6.^ I J U               . . . ",
"                                                          n.k.&.S : : e P P L Z 4 % k ..0.>.o.v.c.6.^ k c U         . . .       ",
"                                                      j.l.s.;.}     V H U U U K Z g W 4.;.2.t.c.l.6.^ y 8 i     % .             ",
"                                                      j.0.1.`       U P L A J U U U *.d.,.3.t.5.s.u.+.B n B   3 % .             ",
"                                                    j.d.:.^               4 v L U U *.j.n.3.^ ^ e.m.d.O.;.8.l                   ",
"                                            C.C.l.j.p.@...              * 4 - q L U _ +.i.h.f.f.2.O.O.4.8.                      ",
"                                            x.w.1.1.>. .              * 4 4 $ = f f f m +.3.w.w.<.;.;.X.W                       ",
"                                              ^ ^ ^ ^               4 4 4 4 4 % . . . + M ^ [ [ 5.p.6.j ; ;                     ",
"                                                                  4 * 4 4 4 4 % . . . . @ Q 0.0.p.>.a , ; ; ;                   ",
"                                                            3 * 4 4 4 4 & # # + . . . . . r T T O.      ; ; ; ;                 ",
"                                                            r 4 % % % % $ . . . . . . . . . . .           ; ; ; ;               ",
"                      * * * * * * * * * * * * * * 4     ^ ^ ~ 9 . . . . . . . . . . . . . .                 ; ; ; ;             ",
"              4 * % . O + + + + + + + # & 4 4 4 4 4 * * 0 k k b m m m m m m m u . . .                         ; 1 C J           ",
"              $ $ # . . . . . . . . . O $ $ $ $ & 4 7 N Y Y Y B B B B B B B B b X .                             w L U P         ",
"        . . . . . . . . .         . . . . . . . $ & r 5.j.j.j.R 7 7 7 7 7 7 7 7                                   U U P         ",
"                                                O O 5 5.j.j.j.6.>.>.>.>.>.>.>.4.j.                          U P U U U P         ",
"                                                t t m 8.j.j.j.j.j.j.c.c.c.c.c.c.j.j.                      U U U U U P           ",
"                                                ^ ^ ] 6.p.j.j.j.j.j.b.B.C.C.C.n.l.j.j.                P U U U U U               ",
"            4                           ^ ^ ^ ^ ^ ^ ^ ] 4.j.j.j.j.j.k.b.C.C.C.C.B.l.j.j.j.j.j.        P U U U U                 ",
"          4 3 4           ^ ^ ^ ^ ^ ^ ^ ^ ^ ^ ^ ^ ^ ^ ^ >.j.j.j.j.j.j.l.c.c.c.c.c.k.j.j.j.j.j.j.j.j.j.                          ",
"        * 4 4 4 3         ^ ^ ^ ^ ^ ^ ^ ^ ^ ^ ^ ^ ^ ^ ^ @.0.j.j.j.j.j.j.j.j.j.j.j.j.j.j.j.j.j.j.j.j.j.                          ",
"      4 * 4 4 4 4 0 Q ^ ^ ^ ^ ^ ^ ^ ^ ^ ^ ^ ^ ^ ^ ^ ^ ^ ^ O.d.j.j.j.j.j.j.j.j.j.j.j.j.j.j.j.j.j.j.j.j.j.j.                      ",
"    4 4 4 4   4 4 0 Q ^ ^ ^ ^ ^ Q t r y y y y y E ^ ^ ^ ^ ` O.9.j.j.j.j.j.j.j.j.j.j.j.j.j.j.j.j.j.j.j.>.+.                      ",
"    * * *       4 0 Q ^ ^ ^ ^ ^ Q k 5 $ $ % 4 4 x B B B B Y ^ -.4.4.4.4.4.4.4.4.4.4.9.j.j.j.j.j.j.p.4...^                       ",
"                  0 Q ^ ^ ^ ^ ^ ^ ^ l + + $ & & & & & & & 0 E Q Q Q ^ ^ ^ ^ ^ ^ ^ ^ @.p.p.p.p.p.p.5.^ ! Q                       ",
"                      ^ ^ ^ ^ ^ ^ ^ Q Y Y 6 O O O O O O O + = > > >             ^ ^ ` ............ .^ z 7 4                     ",
"                        ^ ^ ^ ^ ^ ^ ^ ^ ^ M p p = . . . . . . . .                 ^ ^ ^ ^ ^ ^ ^ ^ ^ ^ y 4 4 4                   ",
"                          ^ ^ ^ ^ ^ ^ ^ ^ ^ ^ ^                                         ^ ^ ^ ^ ^ ^ ^ y 4 4 4 4     4 *         ",
"                                ^ ^ ^ ^ ^ ^ ^                                                             4 4 * * * * *         ",
"                                                                                                            4 4 4 4 4 *         ",
"                                                                                                            3 * 4 * 4           ",
"                                                                                                                  4             ",
"                                                                                                                                ",
"                                                                                                                                ",
"                                                                                                                                ",
"                                                                                                                                ",
"                                                                                                                                ",
"                                                                                                                                ",
"                                                                                                                                ",
"                                                                                                                                ",
"                                                                                                                                ",
"                                                                                                                                ",
"                                                                                                                                ",
"                                                                                                                                ",
"                                                                                                                                "
};
