/* XPM */
static char *df8fc56789e14c55cf8ae059ac96f7cfdGwMECQLK58ZY0eY[] = {
/* columns rows colors chars-per-pixel */
"64 64 154 2 ",
"   c None",
".  c #2A1D0D",
"X  c #2C200F",
"o  c #2F2112",
"O  c #332514",
"+  c #3F2715",
"@  c #3B2916",
"#  c #362718",
"$  c #37281A",
"%  c #3A2A1B",
"&  c #3F2F21",
"*  c #3F3022",
"=  c #582B0F",
"-  c #492610",
";  c #4F2910",
":  c #4C2E19",
">  c #572B10",
",  c #582B10",
"<  c #43311D",
"1  c #5E3216",
"2  c #56331F",
"3  c #623116",
"4  c #633518",
"5  c #6B361B",
"6  c #713A1E",
"7  c #402F22",
"8  c #403022",
"9  c #493727",
"0  c #4D3928",
"q  c #523C25",
"w  c #523D2C",
"e  c #603723",
"r  c #6E3C20",
"t  c #613C29",
"y  c #683C28",
"u  c #7A3F24",
"i  c #38462F",
"p  c #56412D",
"a  c #5B432B",
"s  c #5E4632",
"d  c #47553E",
"f  c #6C422E",
"g  c #7F4126",
"h  c #7D4F2D",
"j  c #6F4631",
"k  c #644B32",
"l  c #684E36",
"z  c #794631",
"x  c #6D5136",
"c  c #6D523A",
"v  c #705337",
"b  c #77593D",
"n  c #795A3D",
"m  c #72553B",
"M  c #4C5B43",
"N  c #7F5F41",
"B  c #854529",
"V  c #83482F",
"C  c #8C4E36",
"Z  c #944D32",
"A  c #9A5035",
"S  c #935039",
"D  c #9B533A",
"F  c #A5573D",
"G  c #A55A3E",
"H  c #AC5A3F",
"J  c #91623C",
"K  c #AD5B40",
"L  c #B05F42",
"P  c #816144",
"I  c #8D6645",
"U  c #8A6749",
"Y  c #8C694A",
"T  c #936042",
"R  c #926947",
"E  c #936E4D",
"W  c #9E6F4E",
"Q  c #96714F",
"!  c #937351",
"~  c #9C7552",
"^  c #957855",
"/  c #9F7854",
"(  c #A46848",
")  c #A5754D",
"_  c #A8794E",
"`  c #A27B56",
"'  c #A57E58",
"]  c #A87F59",
"[  c #528D6C",
"{  c #A4805A",
"}  c #AC835C",
"|  c #B2885F",
" . c #AB8660",
".. c #AE8962",
"X. c #B38B63",
"o. c #BA8E64",
"O. c #B69067",
"+. c #BA9166",
"@. c #B7956C",
"#. c #BC946A",
"$. c #BE986D",
"%. c #BE9D72",
"&. c #C0825C",
"*. c #C19467",
"=. c #CB9967",
"-. c #C39669",
";. c #C5996A",
":. c #CA9C6D",
">. c #D69568",
",. c #C39C70",
"<. c #C89E70",
"1. c #C2A176",
"2. c #CFA171",
"3. c #CDA778",
"4. c #C7A87B",
"5. c #CCAB7D",
"6. c #D3A473",
"7. c #DAA976",
"8. c #D0AE7F",
"9. c #DCAE7A",
"0. c #DFB27E",
"q. c #E5B37D",
"w. c #7BCB9E",
"e. c #D5B584",
"r. c #DFB581",
"t. c #D8BB8A",
"y. c #E7B680",
"u. c #E9B780",
"i. c #E6B883",
"p. c #EDBA82",
"a. c #E0BD8A",
"s. c #E9BF8A",
"d. c #F2BE85",
"f. c #DDC08F",
"g. c #EDC18A",
"h. c #F5C187",
"j. c #F5C48A",
"k. c #F5C88F",
"l. c #E4C592",
"z. c #E9C792",
"x. c #E3C895",
"c. c #E9CF9B",
"v. c #F4CD94",
"b. c #EDD19B",
"n. c #F5D097",
"m. c #F3D099",
"M. c #F5D199",
"N. c #F5D49D",
"B. c #EFD5A0",
"V. c #F5D7A0",
"C. c #F4DAA3",
"Z. c #F5DDA6",
"A. c #F5DEA7",
"S. c #F5DBA4",
/* pixels */
"                                                                                                                                ",
"                                                                                                                                ",
"                                                                                                                                ",
"                                                                                                                                ",
"                                                                                                                                ",
"                                                                                                                                ",
"                                                                                                                                ",
"                                                                                                                                ",
"                                                                                                                                ",
"                                                                                                                                ",
"                                                                        .                                                       ",
"                                                                        .                                                       ",
"                                                                        .                                                       ",
"                                                                        .             ~ ~ 4.Z.Z.%.~                             ",
"                                                                  H 5 ; -           s.e.} } @.@.5.l.Z.                          ",
"                                                                K H 5 > ,         6.r.v.5...' %.a.M.M.                          ",
"                                                            K K K H 5 > ,         ~ o.p.N.5.X.b.v.d.p.                          ",
"                                h.                        K K K K     > ,         ~ ` X.i.p.y.j.h.9.}                           ",
"                                h.h.                    H K K K         :         ....4.<.:.*._ ) )                             ",
"                                q.d.j.                H K H A         % 8       V.@.%.B.$.' R r 5 5                             ",
"                                } q.v.Z.              H K A 3       . O 8   Z.N.j.o.%.C.g.;.W G F F               . . .         ",
"                                  o.9.v.C.            H Z 6 , B H H V t & o ! 3.h.o.%.C.j.:.E j S H         . . .               ",
"                                  ~ *.0.m.            H g 3 6 A K K K C t 2 I -.7.,.8.M.j.:.U 9 f C         . . .               ",
"                                      } p.                  H K K H K K K K >.9.` t.m.d.h.:.Y 0 8 8   8 $ .                     ",
"                                        X.e.              7.) ( z t D K K K >.g.f.1.X.+.z.g.:.Y } { 8                           ",
"                                        ~ 1.e.          7.;.`   * 8 y C K K &.9.M.e.1.1.5.3.:.-.7.#.8                           ",
"                                          ~ o.u.u.u.u.u.-.!   * 8 & O e D D T ' q.z.c.x.O.] | 7.                                ",
"                                              } } } } } }   8 8 8 8 % % + + @ a ] }  .X.7.q.:.h 4 ,                             ",
"                                                        l 8 * 8 8 8 8 # . . . @ a } :.2.p.=.J 1 > > ,                           ",
"                                                        8 8 8 8 & % % O . . . . . Q ;.:.q.) > > , > >                           ",
"                                                    * * * 8 8 8 $ . . . . . . . . O O O         > > > , >                       ",
"                                                    m % O O O O o . . . . . . . . .               > > > > ,                     ",
"                                                  ` b a q q q q q q M i . . . . .                   = > 3 u                     ",
"                                                h.} p U Q Q Q Q Q ^ w.[ . .                           > u K K                   ",
"                                              h.h.q.+.c p p p p p p M d                                 Z K K                   ",
"                                            h.h.h.h.u.{ ! ! ! ! ! ! ! ..                                K K K                   ",
"                                          p.h.h.h.h.h.h.h.h.h.j.j.j.j.j.j.                          K K K H K                   ",
"                                        ~ 6.h.h.h.h.h.h.h.h.h.M.C.C.C.C.C.Z.v.h.              K H K K K K                       ",
"                                & & & s ! 6.h.h.h.h.h.h.h.h.h.v.M.Z.Z.Z.Z.Z.N.v.h.h.h.h.      H K K H K                         ",
"                              8 & % % 0 E -.q.h.h.h.h.h.h.h.h.h.k.N.N.N.N.N.N.n.h.h.h.h.      L H H K                           ",
"                          7 * 8 & o . < E ~ o.h.h.h.h.h.h.h.h.h.h.h.h.h.h.h.h.h.h.h.h.h.h.h.h.                                  ",
"      8 * * * * * * * * * 8 8 % O   k N ! ~ ' o.q.h.h.h.h.h.h.h.h.h.h.h.h.h.h.h.h.h.h.h.h.h.h.h.                                ",
"      7 % $ $ $ $ $ $ $ $ $ $ O O   ~ ~ ~ ~ ~ ~ -.6.6.6.q.h.h.h.u.6.6.6.7.d.h.h.h.h.h.h.h.h.h.h.                                ",
"        . . . . . . . . . . . .   ~ ~ ~ ~ ~ ~ ~ ~ ~ ~ ~ :.p.p.u.:.E ~ ~ } q.p.p.p.d.h.h.h.d.p.p.                                ",
"                                  ~ ~ ~ ~ ~ ~ ~ ~ ~ ~ ~ ' } } P k w   ~ / } } } } 9.h.h.h.6.} }                                 ",
"                                ~ ~ ~ ~ ~ ~ ~ ~ ~ ~ E x k k c w 8       ~ ~ ~ ~ ~ o.:.:.:.X.~ ~                                 ",
"                                ~ ~ ~ ~ ~ ~ ~ ~ ~ E b @ . o & 8 *         ~ ~ ~ ~ ~ ~ ~ ~ ~ ~                                   ",
"                                ~ ~ ~ ~ ~ ~ ~ ~ ~ v O . . o &               ~ ~ ~ ~ ~ ~ ~ ~ ~                                   ",
"                                ~ ~ ~ ~ ~ ~ P p p < . . . X                 ~ ~ ~ ~ ~ ~ ~ ~                                     ",
"                              ~ ~ ~ ~ ~ ~ ~ b . . . . . . .                 P P P P P P E                                       ",
"                            ~ ~ ~ ~ ~ ~ ~ ~ b . . . . .                     & 8 8 8 8 8                                         ",
"                            ~ ~ ~ ~ ~ ~ ~ ~ E b                             & 8 8 8 8                                           ",
"                            ~ ~ ~ ~ ~ ~ ~ ~ ~ ~                             8 8 8 7                                             ",
"                            Y Q ~ ~ ~ ~ ~ ~ ~                           8 8 8 8 8                                               ",
"                          8 0 c ~ ~ ~ ~                                 8 8 8 8                                                 ",
"                          * 8 w c Y                                     8 * 8 8 8                                               ",
"                          * 8 8 *                                         8 * * 8                                               ",
"                      8 8 8 8 8                                                                                                 ",
"                    8 8 8 8 8                                                                                                   ",
"                    8 8 8 8 *                                                                                                   ",
"                      8 8 8 8 *                                                                                                 ",
"                          8 8 *                                                                                                 ",
"                          7 *                                                                                                   ",
"                                                                                                                                "
};
