/* XPM */
static const char *cnVuXzU_[] = {
/* columns rows colors chars-per-pixel */
"64 64 156 2 ",
"   c #2A1D0D",
".  c #3C230E",
"X  c #2E2111",
"o  c #322414",
"O  c #362718",
"+  c #372819",
"@  c #3A2B1D",
"#  c #3F2F21",
"$  c #3F3022",
"%  c #44250F",
"&  c #572C0F",
"*  c #412C1A",
"=  c #572B10",
"-  c #5A2D12",
";  c #4A311F",
":  c #5E3215",
">  c #633719",
",  c #6C371C",
"<  c #66391B",
"1  c #723A1F",
"2  c #412F21",
"3  c #413122",
"4  c #493727",
"5  c #4C3924",
"6  c #4B3D2C",
"7  c #523727",
"8  c #5C3520",
"9  c #513D2B",
"0  c #5E3D2A",
"q  c #663A25",
"w  c #6B3F20",
"e  c #763D22",
"r  c #7B3F24",
"t  c #723F29",
"y  c #56412E",
"u  c #5B442A",
"i  c #474936",
"p  c #5E4631",
"a  c #5E4833",
"s  c #5A5439",
"d  c #585A3F",
"f  c #61432C",
"g  c #7F4227",
"h  c #624A33",
"j  c #684E37",
"k  c #7C4832",
"l  c #6E5136",
"z  c #6D5138",
"x  c #72553B",
"c  c #755A3A",
"v  c #7B5C3E",
"b  c #7D5E41",
"n  c #4E7D5D",
"m  c #7F6245",
"M  c #834429",
"N  c #88462C",
"B  c #8C492E",
"V  c #80522E",
"C  c #824A34",
"Z  c #8D4C33",
"A  c #954F34",
"S  c #8C5139",
"D  c #8C5C3D",
"F  c #9A5035",
"G  c #96523A",
"H  c #9F553B",
"J  c #A3563B",
"K  c #AC5A3F",
"L  c #AD5B40",
"P  c #836445",
"I  c #8A6749",
"U  c #8C694A",
"Y  c #946746",
"T  c #936D4C",
"R  c #996D4C",
"E  c #97714F",
"W  c #937351",
"Q  c #9C7552",
"!  c #9F7C57",
"~  c #A06F4D",
"^  c #B16145",
"/  c #B86C4C",
"(  c #AC714F",
")  c #A4754B",
"_  c #A47250",
"`  c #A47C57",
"'  c #AB7B50",
"]  c #A47E59",
"[  c #A6825B",
"{  c #AB835D",
"}  c #B4865D",
"|  c #B9825A",
" . c #B2895F",
".. c #858361",
"X. c #818F6B",
"o. c #AD8962",
"O. c #B58C62",
"+. c #B98D63",
"@. c #BC9165",
"#. c #B7946B",
"$. c #BF9568",
"%. c #BB996F",
"&. c #B79D73",
"*. c #BE9D72",
"=. c #CF8F64",
"-. c #C49567",
";. c #C39669",
":. c #C5996B",
">. c #C99C6E",
",. c #D69568",
"<. c #C09F73",
"1. c #CB9F71",
"2. c #D5A26F",
"3. c #C4A275",
"4. c #C6A579",
"5. c #CBAA7C",
"6. c #D1A373",
"7. c #D7A876",
"8. c #D9AA77",
"9. c #DDAD79",
"0. c #D4AC7B",
"q. c #DBB17F",
"w. c #E1AF7A",
"e. c #E4B37D",
"r. c #E9B47E",
"t. c #6ECEA2",
"y. c #D0AF80",
"u. c #D3B585",
"i. c #DFB682",
"p. c #DBBF8E",
"a. c #E8B780",
"s. c #E7B883",
"d. c #EDBB83",
"f. c #E0BD8A",
"g. c #F1BE84",
"h. c #DCC08F",
"j. c #E6C48F",
"k. c #ECC38D",
"l. c #F5C187",
"z. c #F5C48A",
"x. c #F5C88F",
"c. c #E1C693",
"v. c #EEC790",
"b. c #E7C894",
"n. c #EDC993",
"m. c #E7CC99",
"M. c #F5CB92",
"N. c #EED29D",
"B. c #F5D29A",
"V. c #F4D7A0",
"C. c #F5DAA3",
"Z. c #F5D9A2",
"A. c #F5DDA6",
"S. c #F5DCA5",
"D. c None",
"F. c black",
/* pixels */
"D.D.D.D.D.D.D.D.D.D.D.D.D.D.D.D.D.D.D.D.D.D.D.D.D.D.D.D.D.D.D.D.D.D.D.D.D.D.D.D.D.D.D.D.D.D.D.D.D.D.D.D.D.D.D.D.D.D.D.D.D.D.D.D.",
"D.D.D.D.D.D.D.D.D.D.D.D.D.D.D.D.D.D.D.D.D.D.D.D.D.D.D.D.D.D.D.D.D.D.D.D.D.D.D.D.D.D.D.D.D.D.D.D.D.D.D.D.D.D.D.D.D.D.D.D.D.D.D.D.",
"D.D.D.D.D.D.D.D.D.D.D.D.D.D.D.D.D.D.D.D.D.D.D.D.D.D.D.D.D.D.D.D.D.D.D.D.D.D.D.D.D.D.D.D.D.D.D.D.D.D.D.D.D.D.D.D.D.D.D.D.D.D.D.D.",
"D.D.D.D.D.D.D.D.D.D.D.D.D.D.D.D.D.D.D.D.D.D.D.D.D.D.D.D.D.D.D.D.D.D.D.D.D.D.D.D.D.D.D.D.D.D.D.D.D.D.D.D.D.D.D.D.D.D.D.D.D.D.D.D.",
"D.D.D.D.D.D.D.D.D.D.D.D.D.D.D.D.D.D.D.D.D.D.D.D.D.D.D.D.D.D.D.D.D.D.D.D.D.D.D.D.D.D.D.D.D.D.D.D.D.D.D.D.D.D.D.D.D.D.D.D.D.D.D.D.",
"D.D.D.D.D.D.D.D.D.D.D.D.D.D.D.D.D.D.D.D.D.D.D.D.D.D.D.D.D.D.D.D.D.D.D.D.D.D.D.D.D.D.D.D.D.D.D.D.D.D.D.D.D.D.D.D.D.D.D.D.D.D.D.D.",
"D.D.D.D.D.D.D.D.D.D.D.D.D.D.D.D.D.D.D.D.D.D.D.D.D.D.D.D.D.D.D.D.D.D.D.D.D.D.D.D.D.D.D.D.D.D.D.D.D.D.D.D.D.D.D.D.D.D.D.D.D.D.D.D.",
"D.D.D.D.D.D.D.D.D.D.D.D.D.D.D.D.D.D.D.D.D.D.D.D.D.D.D.D.D.D.D.D.D.D.D.D.D.D.D.D.D.D.D.D.D.D.D.D.D.D.D.D.D.D.D.D.D.D.D.D.D.D.D.D.",
"D.D.D.D.D.D.D.D.D.D.D.D.D.D.D.D.D.D.D.D.D.D.D.D.D.D.D.D.D.D.D.D.D.D.D.D.D.D.D.D.D.D.D.D.D.D.D.D.D.D.D.D.D.D.D.D.D.D.D.D.D.D.D.D.",
"D.D.D.D.D.D.D.D.D.D.D.D.D.D.D.D.D.D.D.D.D.D.D.D.D.D.D.D.D.D.D.D.D.D.D.D.D.D.D.D.D.D.D.D.D.D.D.D.D.D.D.D.D.D.D.D.D.D.D.D.D.D.D.D.",
"D.D.D.D.D.D.D.D.D.D.D.D.D.D.D.D.D.D.D.D.D.D.D.D.D.D.D.D.D.D.D.D.D.D.D.D.D.D.D.D.D.D.D.D.D.D.D.D.D.D.D.D.D.D.D.D.D.D.D.D.D.D.D.D.",
"D.D.D.D.D.D.D.D.D.D.D.D.D.D.D.D.D.D.D.D.D.D.D.D.D.D.D.D.D.D.D.D.D.D.D.D.D.D.D.D.D.D.D.D.D.D.D.D.D.D.D.D.D.D.D.D.D.D.D.D.D.D.D.D.",
"D.D.D.D.D.D.D.D.D.D.D.D.D.D.D.D.D.D.D.D.D.D.D.D.D.D.D.D.D.D.D.D.D.D.D.D.  D.D.D.D.D.D.D.D.D.D.D.D.D.D.D.D.D.D.D.D.D.D.D.D.D.D.D.",
"D.D.D.D.D.D.D.D.D.D.D.D.D.D.D.D.D.D.D.D.D.D.D.D.D.D.D.D.D.D.D.D.D.D.D.D.  D.D.D.D.D.D.D.D.D.D.D.D.D.D.D.D.D.D.D.D.D.D.D.D.D.D.D.",
"D.D.D.D.D.D.D.D.D.D.D.D.D.D.D.D.D.D.D.D.D.D.D.D.D.D.D.D.D.D.D.D.D.D.D.D.  D.D.D.D.D.D.Q Q 5.A.A.<.D.D.D.D.D.D.D.D.D.D.D.D.D.D.D.",
"D.D.D.D.D.D.D.D.D.D.D.D.D.D.D.D.D.D.D.D.D.D.D.D.D.D.D.D.D.D.D.D.D.D.D.% . D.D.D.D.D.0.*.] #.u.u.4.5.D.D.D.D.D.D.D.D.D.D.D.D.D.D.",
"D.D.D.D.D.D.D.D.D.D.D.D.D.D.D.D.D.D.D.D.D.D.D.D.D.D.D.D.D.D.D.D.D.K , = = D.D.D.D.d.k.N.#.` Q ] u.Z.Z.D.D.D.D.D.D.D.D.D.D.D.D.D.",
"D.D.D.D.D.D.D.D.D.D.D.D.D.D.D.D.D.D.D.D.D.D.D.D.D.D.D.D.D.D.L K L K , = = D.D.D.D.{ >.x.b.<.{ h.v.x.x.D.D.D.D.D.D.D.D.D.D.D.D.D.",
"D.D.D.D.D.D.D.D.D.D.D.D.D.D.D.D.S.x.l.l.l.B.D.D.D.D.D.D.D.L L L L D.D.= = D.D.D.D.Q { 1.k.i.6.M.x.e.:.D.D.D.D.D.D.D.D.D.D.D.D.D.",
"D.D.D.D.D.D.D.D.D.D.D.D.D.D.D.Z.B.s.e.e.e.n.V.D.D.D.D.D.L L L L L D.D.D.= D.D.D.D.] ] O.7.e.9.2.2.-.Q D.D.D.D.D.D.D.D.D.D.D.D.D.",
"D.D.D.D.D.D.D.D.D.D.D.D.D.D.A.B.d.O.` ` ` 7.M.A.D.D.D.L K L L D.D.D.D.D.3 D.D.D.A.#.%.m.O.` R w < < D.D.D.D.D.D.D.D.D.D.D.D.D.D.",
"D.D.D.D.D.D.D.D.D.D.D.D.D.D.M.i.@.[ D.D.D.O.6.M.B.D.D.K L J r D.D.D.D.+ $ D.D.B.M.@.*.V.q.+.R Z B B D.D.D.D.D.D.D.    D.D.D.D.D.",
"D.D.D.D.D.D.D.D.D.D.D.D.D.D.8.:.Q D.D.D.D.D.O.8.n.B.D.^ H M - e D.D.8 ; # D.&.f.l.+.*.Z.x.>.R S H K D.D.D.D.D.D.D.    D.D.D.D.D.",
"D.D.D.D.D.D.D.D.D.D.D.D.D.D.Q Q D.D.D.D.D.D.D.Q 9.g.r./ g - - Z L L L k @ o l O.g.+.*.Z.x.>.I 4 C K D.D.D.D.      D.D.D.D.D.D.D.",
"D.D.D.D.D.D.D.D.D.D.D.D.D.D.D.D.D.D.D.D.D.D.D.D. .O.} _ Y D A J L L L H Z Z | 6.O.y.j.x.l.>.I 4 7 0 D.3 +   D.D.D.D.D.D.D.D.D.D.",
"D.D.D.D.D.D.D.D.D.D.D.D.D.D.D.D.D.D.D.D.D.D.D.D.D.Q Q Q Q ~ L K G C J L L L ,.s.3.5.5.6.k.q. .x m P D.2 +   D.D.D.D.D.D.D.D.D.D.",
"D.D.D.D.D.D.D.D.D.D.D.D.D.D.D.D.D.D.D.D.D.D.D.D.D.D.D.D.D.D.D.D.D.3 C J L L =.k.Z.<.[ o.p.j.9.{ 6.$.3 D.D.D.D.D.D.D.D.D.D.D.D.D.",
"D.D.D.D.D.D.D.D.D.D.D.D.D.D.D.D.D.D.D.D.D.D.D.D.D.D.D.D.D.D.D.3 3 3 * t L L ( $.z.n.m.c.#.{ O.w.D.D.D.D.D.D.D.D.D.D.D.D.D.D.D.D.",
"D.D.D.D.D.D.D.D.D.D.D.D.D.D.D.D.D.D.D.D.D.D.D.D.D.D.D.D.D.D.2 3 3 $ + ; q q f v ;.3.4.4.1.>.-.) V D.D.D.D.D.D.D.D.D.D.D.D.D.D.D.",
"D.D.D.D.D.D.D.D.D.D.D.D.D.D.D.D.D.D.D.D.D.D.D.D.D.D.D.D.D.D.3 3 3 3 3 O       * b ` } O.e.w.| > = = D.D.D.D.D.D.D.D.D.D.D.D.D.D.",
"D.D.D.D.D.D.D.D.D.D.D.D.D.D.D.D.D.D.D.D.D.D.D.D.D.D.D.D.2 3 3 3 3 3 3 O         o  .g.g.l.' : - = = = D.D.D.D.D.D.D.D.D.D.D.D.D.",
"D.D.D.D.D.D.D.D.D.D.D.D.D.D.D.D.D.D.D.D.D.D.D.D.D.D.$ $ 3 3 3 3 @ o o X           u x c D.D.D.D.= = = = D.D.D.D.D.D.D.D.D.D.D.D.",
"D.D.D.D.D.D.D.D.D.D.D.D.D.D.D.D.D.D.D.D.D.D.D.D.D.y h h 4 + + + o                       D.D.D.D.D.= = = = D.D.D.D.D.D.D.D.D.D.D.",
"D.D.D.D.D.D.D.D.D.D.D.D.D.D.D.D.D.D.D.D.D.D.D.D.4 j E E f o o                     D.D.D.D.D.D.D.D.D.= = - - D.D.D.D.D.D.D.D.D.D.",
"D.D.D.D.D.D.D.D.D.D.D.D.D.D.D.D.D.D.D.D.D.D.p Q I x y y z P P ;               D.D.D.D.D.D.D.D.D.D.D.D.& 1 F K D.D.D.D.D.D.D.D.D.",
"D.D.D.D.D.D.D.D.D.D.D.D.D.D.D.D.D.D.D.D.D.3 9 x x P W W P x x h d n s 5     D.D.D.D.D.D.D.D.D.D.D.D.D.D.N L L D.D.D.D.D.D.D.D.D.",
"D.D.D.D.D.D.D.D.D.D.D.D.D.D.D.D.D.D.D.D.@ @ 4 a a ! l.l.[ a a b X.t...U D.D.D.D.D.D.D.D.D.D.D.D.D.D.D.D.L L L D.D.D.D.D.D.D.D.D.",
"D.D.D.D.  o $ $ $ $ $ $ $ $ $ $ $ $ $ @ X X h 9.9.e.l.l.a.9.9.m 6 i 6 6 D.D.D.D.D.D.D.D.D.D.D.D.D.D.K K L L L D.D.D.D.D.D.D.D.D.",
"D.D.D.D.D.X O @ 3 3 3 3 3 3 3 @ o o o o D.I @.l.l.l.l.l.l.l.l.:.[ [ [ [ D.D.D.D.D.D.D.D.D.D.D.L K L L L L D.D.D.D.D.D.D.D.D.D.D.",
"D.D.D.D.D.D.  + @ @ @ @ @ @ @ O         D.l.l.l.l.l.l.l.l.l.x.z.l.l.l.l.D.D.D.D.D.D.D.D.D.D.D.K L L L L D.D.D.D.D.D.D.D.D.D.D.D.",
"D.D.D.D.D.D.D.                  D.D.D.D.D.l.l.l.l.l.l.l.l.x.S.M.l.l.l.l.D.D.D.D.D.D.D.D.D.D.D.K L L K D.D.D.D.D.D.D.D.D.D.D.D.D.",
"D.D.D.D.D.D.D.D.D.D.D.D.D.D.D.D.D.D.D.D.D.l.l.l.l.l.l.l.M.B.A.M.l.l.l.l.D.D.D.D.D.D.D.D.D.D.D.D.D.D.D.D.D.D.D.D.D.D.D.D.D.D.D.D.",
"D.D.D.D.D.D.D.D.D.D.D.D.D.D.D.D.D.D.D.D.D.l.l.l.l.l.l.l.B.A.A.M.l.l.l.l.D.D.D.D.D.D.D.D.D.D.D.D.D.D.D.D.D.D.D.D.D.D.D.D.D.D.D.D.",
"D.D.D.D.D.D.D.D.D.D.D.D.D.D.D.D.D.D.D.D.D.l.l.l.l.l.l.l.B.A.A.M.l.l.l.l.D.D.D.D.D.D.D.D.D.D.D.D.D.D.D.D.D.D.D.D.D.D.D.D.D.D.D.D.",
"D.D.D.D.D.D.D.D.D.D.D.D.D.D.D.D.D.D.D.D.D.l.l.l.l.l.l.l.B.A.A.M.l.l.l.l.D.D.D.D.D.D.D.D.D.D.D.D.D.D.D.D.D.D.D.D.D.D.D.D.D.D.D.D.",
"D.D.D.D.D.D.D.D.D.D.D.D.D.D.D.D.D.D.D.D.D.>.7.l.l.l.l.l.B.Z.B.x.l.l.l.l.D.D.D.D.D.D.D.D.D.D.D.D.D.D.D.D.D.D.D.D.D.D.D.D.D.D.D.D.",
"D.D.D.D.D.D.D.D.D.D.D.D.D.D.D.D.D.D.D.D.D.Q +.l.l.l.l.l.M.B.l.l.l.l.r.e.D.D.D.D.D.D.D.D.D.D.D.D.D.D.D.D.D.D.D.D.D.D.D.D.D.D.D.D.",
"D.D.D.D.D.D.D.D.D.D.D.D.D.D.D.D.D.D.D.D.D.Q +.l.l.l.l.l.l.l.l.l.l.g.+.` D.D.D.D.D.D.D.D.D.D.D.D.D.D.D.D.D.D.D.D.D.D.D.D.D.D.D.D.",
"D.D.D.D.D.D.D.D.D.D.D.D.D.D.D.D.D.D.D.D.D.Q ] ;.e.l.l.l.l.l.l.l.e.@.` Q D.D.D.D.D.D.D.D.D.D.D.D.D.D.D.D.D.D.D.D.D.D.D.D.D.D.D.D.",
"D.D.D.D.D.D.D.D.D.D.D.D.D.D.D.D.D.D.D.D.D.Q Q Q >.e.l.l.l.l.l.e.;.Q Q D.D.D.D.D.D.D.D.D.D.D.D.D.D.D.D.D.D.D.D.D.D.D.D.D.D.D.D.D.",
"D.D.D.D.D.D.D.D.D.D.D.D.D.D.D.D.D.D.D.D.D.Q Q Q Q ;.l.l.l.l.l.+.Q Q D.D.D.D.D.D.D.D.D.D.D.D.D.D.D.D.D.D.D.D.D.D.D.D.D.D.D.D.D.D.",
"D.D.D.D.D.D.D.D.D.D.D.D.D.D.D.D.D.D.D.D.D.Q Q Q Q ;.l.l.l.e.+.` Q D.D.D.D.D.D.D.D.D.D.D.D.D.D.D.D.D.D.D.D.D.D.D.D.D.D.D.D.D.D.D.",
"D.D.D.D.D.D.D.D.D.D.D.D.D.D.D.D.D.D.D.D.D.Q Q Q Q  .6.6.6.;.Q Q Q D.D.D.D.D.D.D.D.D.D.D.D.D.D.D.D.D.D.D.D.D.D.D.D.D.D.D.D.D.D.D.",
"D.D.D.D.D.D.D.D.D.D.D.D.D.D.D.D.D.D.D.D.D.T T T Q Q Q Q Q Q Q Q Q D.D.D.D.D.D.D.D.D.D.D.D.D.D.D.D.D.D.D.D.D.D.D.D.D.D.D.D.D.D.D.",
"D.D.D.D.D.D.D.D.D.D.D.D.D.D.D.D.D.D.D.D.D.9 9 9 I Q Q Q Q Q Q D.D.D.D.D.D.D.D.D.D.D.D.D.D.D.D.D.D.D.D.D.D.D.D.D.D.D.D.D.D.D.D.D.",
"D.D.D.D.D.D.D.D.D.D.D.D.D.D.D.D.D.D.D.D.D.3 3 3 h P Q Q Q Q Q D.D.D.D.D.D.D.D.D.D.D.D.D.D.D.D.D.D.D.D.D.D.D.D.D.D.D.D.D.D.D.D.D.",
"D.D.D.D.D.D.D.D.D.D.D.D.D.D.D.D.D.D.D.D.$ 3 3 3 $ h I I I I D.D.D.D.D.D.D.D.D.D.D.D.D.D.D.D.D.D.D.D.D.D.D.D.D.D.D.D.D.D.D.D.D.D.",
"D.D.D.D.D.D.D.D.D.D.D.D.D.D.D.D.D.D.D.D.$ 3 3 $ D.D.4 4 4 4 D.D.D.D.D.D.D.D.D.D.D.D.D.D.D.D.D.D.D.D.D.D.D.D.D.D.D.D.D.D.D.D.D.D.",
"D.D.D.D.D.D.D.D.D.D.D.D.D.D.D.D.D.D.D.D.D.$ 3 $ D.D.3 3 3 $ D.D.D.D.D.D.D.D.D.D.D.D.D.D.D.D.D.D.D.D.D.D.D.D.D.D.D.D.D.D.D.D.D.D.",
"D.D.D.D.D.D.D.D.D.D.D.D.D.D.D.D.D.D.D.D.D.D.$ $ D.D.$ $ 3 3 D.D.D.D.D.D.D.D.D.D.D.D.D.D.D.D.D.D.D.D.D.D.D.D.D.D.D.D.D.D.D.D.D.D.",
"D.D.D.D.D.D.D.D.D.D.D.D.D.D.D.D.D.D.D.D.D.D.D.3 D.D.D.$ 3 3 3 D.D.D.D.D.D.D.D.D.D.D.D.D.D.D.D.D.D.D.D.D.D.D.D.D.D.D.D.D.D.D.D.D.",
"D.D.D.D.D.D.D.D.D.D.D.D.D.D.D.D.D.D.D.D.D.D.D.D.D.D.D.$ 3 3 3 3 D.D.D.D.D.D.D.D.D.D.D.D.D.D.D.D.D.D.D.D.D.D.D.D.D.D.D.D.D.D.D.D.",
"D.D.D.D.D.D.D.D.D.D.D.D.D.D.D.D.D.D.D.D.D.D.D.D.D.D.D.D.$ $ $ $ D.D.D.D.D.D.D.D.D.D.D.D.D.D.D.D.D.D.D.D.D.D.D.D.D.D.D.D.D.D.D.D.",
"D.D.D.D.D.D.D.D.D.D.D.D.D.D.D.D.D.D.D.D.D.D.D.D.D.D.D.D.D.D.D.D.D.D.D.D.D.D.D.D.D.D.D.D.D.D.D.D.D.D.D.D.D.D.D.D.D.D.D.D.D.D.D.D."
};
