/* XPM */
static const char *cnVuX3Ix[] = {
/* columns rows colors chars-per-pixel */
"64 64 159 2 ",
"   c #2A1D0D",
".  c #3C230E",
"X  c #2E2011",
"o  c #322414",
"O  c #362718",
"+  c #372819",
"@  c #3A2B1D",
"#  c #3F3022",
"$  c #44250F",
"%  c #572C0F",
"&  c #412C1A",
"*  c #572B10",
"=  c #592D11",
"-  c #41301F",
";  c #4A311F",
":  c #5E3215",
">  c #583318",
",  c #633719",
"<  c #6C371C",
"1  c #66391B",
"2  c #723A1F",
"3  c #412F21",
"4  c #413022",
"5  c #493727",
"6  c #4C3823",
"7  c #4B3D2C",
"8  c #523727",
"9  c #5C3520",
"0  c #523E2B",
"q  c #5E3D2A",
"w  c #663A25",
"e  c #6B3F20",
"r  c #763D22",
"t  c #7D3F25",
"y  c #723F29",
"u  c #56412E",
"i  c #5B442A",
"p  c #474936",
"a  c #5D4630",
"s  c #5E4832",
"d  c #5A5439",
"f  c #585A3F",
"g  c #61432C",
"h  c #624A33",
"j  c #7C4832",
"k  c #6E5136",
"l  c #6D5138",
"z  c #72563B",
"x  c #765A3D",
"c  c #7B5C3E",
"v  c #7D5E41",
"b  c #4E7D5D",
"n  c #7F6245",
"m  c #88462C",
"M  c #8C492E",
"N  c #834429",
"B  c #80522E",
"V  c #824A34",
"C  c #8D4C33",
"Z  c #954D32",
"A  c #8C5139",
"S  c #825C39",
"D  c #9A5035",
"F  c #96523A",
"G  c #9F553B",
"H  c #A3563B",
"J  c #AC5A3F",
"K  c #AD5B40",
"L  c #846445",
"P  c #8A6749",
"I  c #8D6A4A",
"U  c #936D4C",
"Y  c #996D4C",
"T  c #96714E",
"R  c #937351",
"E  c #9C7552",
"W  c #A76447",
"Q  c #B16144",
"!  c #BA6D4D",
"~  c #A2724D",
"^  c #AC714F",
"/  c #A27B56",
"(  c #AB7B50",
")  c #A57E59",
"_  c #A87F59",
"`  c #C67F59",
"'  c #A5815A",
"]  c #AB835C",
"[  c #B3865D",
"{  c #B9825A",
"}  c #B2895F",
"|  c #818F6B",
" . c #858361",
".. c #AD8962",
"X. c #B58C62",
"o. c #B98E63",
"O. c #BB9165",
"+. c #B7946B",
"@. c #BF9568",
"#. c #BB996F",
"$. c #BE9D72",
"%. c #C8815A",
"&. c #CF8F64",
"*. c #C49567",
"=. c #CC9367",
"-. c #C29669",
";. c #C49A6C",
":. c #C99C6D",
">. c #D69568",
",. c #C09F73",
"<. c #CB9F71",
"1. c #D5A26F",
"2. c #C4A275",
"3. c #CFA070",
"4. c #C6A579",
"5. c #C9A779",
"6. c #CBAA7C",
"7. c #D3A573",
"8. c #D7A976",
"9. c #DAAB77",
"0. c #DDAD79",
"q. c #D4AC7B",
"w. c #DBB17F",
"e. c #E4A876",
"r. c #E1AF7A",
"t. c #E6B47E",
"y. c #6ECEA2",
"u. c #D0AF80",
"i. c #D3B585",
"p. c #DFB682",
"a. c #DBBF8E",
"s. c #E9B780",
"d. c #E7B882",
"f. c #EBB981",
"g. c #E3BE8A",
"h. c #E9BF89",
"j. c #F1BE84",
"k. c #DCC08F",
"l. c #E6C48F",
"z. c #ECC38D",
"x. c #F5C187",
"c. c #F5C38A",
"v. c #F5C98F",
"b. c #E3C692",
"n. c #EEC790",
"m. c #E7C894",
"M. c #E7CC99",
"N. c #EBCA94",
"B. c #F4CC93",
"V. c #EED29D",
"C. c #F5D097",
"Z. c #F5D39B",
"A. c #F4D7A0",
"S. c #F5DAA3",
"D. c #F5D8A1",
"F. c #F5DDA6",
"G. c #F5DCA5",
"H. c None",
"J. c black",
/* pixels */
"H.H.H.H.H.H.H.H.H.H.H.H.H.H.H.H.H.H.H.H.H.H.H.H.H.H.H.H.H.H.H.H.H.H.H.H.H.H.H.H.H.H.H.H.H.H.H.H.H.H.H.H.H.H.H.H.H.H.H.H.H.H.H.H.",
"H.H.H.H.H.H.H.H.H.H.H.H.H.H.H.H.H.H.H.H.H.H.H.H.H.H.H.H.H.H.H.H.H.H.H.H.H.H.H.H.H.H.H.H.H.H.H.H.H.H.H.H.H.H.H.H.H.H.H.H.H.H.H.H.",
"H.H.H.H.H.H.H.H.H.H.H.H.H.H.H.H.H.H.H.H.H.H.H.H.H.H.H.H.H.H.H.H.H.H.H.H.H.H.H.H.H.H.H.H.H.H.H.H.H.H.H.H.H.H.H.H.H.H.H.H.H.H.H.H.",
"H.H.H.H.H.H.H.H.H.H.H.H.H.H.H.H.H.H.H.H.H.H.H.H.H.H.H.H.H.H.H.H.H.H.H.H.H.H.H.H.H.H.H.H.H.H.H.H.H.H.H.H.H.H.H.H.H.H.H.H.H.H.H.H.",
"H.H.H.H.H.H.H.H.H.H.H.H.H.H.H.H.H.H.H.H.H.H.H.H.H.H.H.H.H.H.H.H.H.H.H.H.H.H.H.H.H.H.H.H.H.H.H.H.H.H.H.H.H.H.H.H.H.H.H.H.H.H.H.H.",
"H.H.H.H.H.H.H.H.H.H.H.H.H.H.H.H.H.H.H.H.H.H.H.H.H.H.H.H.H.H.H.H.H.H.H.H.H.H.H.H.H.H.H.H.H.H.H.H.H.H.H.H.H.H.H.H.H.H.H.H.H.H.H.H.",
"H.H.H.H.H.H.H.H.H.H.H.H.H.H.H.H.H.H.H.H.H.H.H.H.H.H.H.H.H.H.H.H.H.H.H.H.H.H.H.H.H.H.H.H.H.H.H.H.H.H.H.H.H.H.H.H.H.H.H.H.H.H.H.H.",
"H.H.H.H.H.H.H.H.H.H.H.H.H.H.H.H.H.H.H.H.H.H.H.H.H.H.H.H.H.H.H.H.H.H.H.H.H.H.H.H.H.H.H.H.H.H.H.H.H.H.H.H.H.H.H.H.H.H.H.H.H.H.H.H.",
"H.H.H.H.H.H.H.H.H.H.H.H.H.H.H.H.H.H.H.H.H.H.H.H.H.H.H.H.H.H.H.H.H.H.H.H.H.H.H.H.H.H.H.H.H.H.H.H.H.H.H.H.H.H.H.H.H.H.H.H.H.H.H.H.",
"H.H.H.H.H.H.H.H.H.H.H.H.H.H.H.H.H.H.H.H.H.H.H.H.H.H.H.H.H.H.H.H.H.H.H.H.H.H.H.H.H.H.H.H.H.H.H.H.H.H.H.H.H.H.H.H.H.H.H.H.H.H.H.H.",
"H.H.H.H.H.H.H.H.H.H.H.H.H.H.H.H.H.H.H.H.H.H.H.H.H.H.H.H.H.H.H.H.H.H.H.H.H.H.H.H.H.H.H.H.H.H.H.H.H.H.H.H.H.H.H.H.H.H.H.H.H.H.H.H.",
"H.H.H.H.H.H.H.H.H.H.H.H.H.H.H.H.H.H.H.H.H.H.H.H.H.H.H.H.H.H.H.H.H.H.H.H.H.H.H.H.H.H.H.H.H.H.H.H.H.H.H.H.H.H.H.H.H.H.H.H.H.H.H.H.",
"H.H.H.H.H.H.H.H.H.H.H.H.H.H.H.H.H.H.H.H.H.H.H.H.H.H.H.  H.H.H.H.H.H.H.H.H.H.H.H.H.H.H.H.H.H.H.H.H.H.H.H.H.H.H.H.H.H.H.H.H.H.H.H.",
"H.H.H.H.H.H.H.H.H.H.H.H.H.H.H.H.H.H.H.H.H.H.H.H.H.H.H.  H.H.H.H.H.H.H.H.H.H.H.H.H.H.H.H.H.H.H.H.H.H.H.H.H.H.H.H.H.H.H.H.H.H.H.H.",
"H.H.H.H.H.H.H.H.H.H.H.H.H.H.H.,.F.F.6.E E H.H.H.H.H.H.  H.H.H.H.H.H.H.H.H.H.H.H.H.H.H.H.H.H.H.H.H.H.H.H.H.H.H.H.H.H.H.H.H.H.H.H.",
"H.H.H.H.H.H.H.H.H.H.H.H.H.H.5.4.i.i.+.) $.q.H.H.H.H.H.. $ H.H.H.H.H.H.H.H.H.H.H.H.H.H.H.H.H.H.H.H.H.H.H.H.H.H.H.H.H.H.H.H.H.H.H.",
"H.H.H.H.H.H.H.H.H.H.H.H.H.S.S.i.) E / +.V.z.f.H.H.H.H.* * < J H.H.H.H.H.H.H.H.H.H.H.H.H.H.H.H.H.H.H.H.H.H.H.H.H.H.H.H.H.H.H.H.H.",
"H.H.H.H.H.H.H.H.H.H.H.H.H.v.v.n.k.] ,.m.v.:.] H.H.H.H.* * < J K J Q e.x.x.x.x.x.x.Z.H.H.H.H.H.H.H.H.H.H.H.H.H.H.H.H.H.H.H.H.H.H.",
"H.H.H.H.H.H.H.H.H.H.H.H.H.;.t.v.B.7.p.z.<.] E H.H.H.H.* S } &.! K K %.=.:.:.:.:.:.g.Z.H.H.H.H.H.H.H.H.H.H.H.H.H.H.H.H.H.H.H.H.H.",
"H.H.H.H.H.H.H.H.H.H.H.H.H.E *.1.1.0.t.8.X.) ) H.H.H.H.> ' b.x.` K K K W ~ E E E E 3.h.A.H.H.H.H.H.H.H.H.H.H.H.H.H.H.H.H.H.H.H.H.",
"H.H.H.H.H.H.H.H.H.H.H.H.H.H.1 1 e Y / X.M.#.+.F.H.H.9.a x ' H.H.H.K K K K H.H.H.H./ -.v.A.H.H.H.H.H.H.H.H.H.H.H.H.H.H.H.H.H.H.H.",
"H.H.H.H.H.    H.H.H.H.H.H.H.M M C Y o.w.A.$.O.B.Z.B.0.s 6 0 H.H.H.t H K J H.H.H.H.H.} -.h.B.H.H.H.H.H.H.H.H.H.H.H.H.H.H.H.H.H.H.",
"H.H.H.H.H.    H.H.H.H.H.H.H.J G A Y :.v.S.$.o.x.g.5.' 0 ; 9 H.H.r = N G J H.H.H.H.H.H.) t.x.H.H.H.H.H.H.H.H.H.H.H.H.H.H.H.H.H.H.",
"H.H.H.H.H.H.H.      H.H.H.H.J V 5 P :.v.S.$.o.j.X.k o @ j K K K C = = t K H.H.H.H.H.H.H.x.x.x.H.H.H.H.H.H.H.H.H.H.H.H.H.H.H.H.H.",
"H.H.H.H.H.H.H.H.H.H.  + 4 H.q 8 5 P :.x.v.l.u.X.7.{ C C G K K K H Z H.H.H.H.H.H.H.H.H.H.X.7.x.x.x.x.H.H.H.H.H.H.H.H.H.H.H.H.H.H.",
"H.H.H.H.H.H.H.H.H.H.  + 3 H.L n z } w.z.7.6.6.2.d.>.K K K H V F J K H.H.H.H.H.H.H.H.H.H.H.O.3.3.r.H.H.H.H.H.H.H.H.H.H.H.H.H.H.H.",
"H.H.H.H.H.H.H.H.H.H.H.H.H.4 @.7.] 0.z.a...] ,.S.z.&.K K H V 4 H.H.H.H.H.H.H.H.H.H.H.H.H.H.H.E E H.H.H.H.H.H.H.H.H.H.H.H.H.H.H.H.",
"H.H.H.H.H.H.H.H.H.H.H.H.H.H.H.H.r.X.] +.b.M.N.c.@.^ K K y & 4 4 4 H.H.H.H.H.H.H.H.H.H.H.H.H.H.H.H.H.H.H.H.H.H.H.H.H.H.H.H.H.H.H.",
"H.H.H.H.H.H.H.H.H.H.H.H.H.H.H.B ~ *.:.<.4.4.2.-.c g w w ; + # 4 4 3 H.H.H.H.H.H.H.H.H.H.H.H.H.H.H.H.H.H.H.H.H.H.H.H.H.H.H.H.H.H.",
"H.H.H.H.H.H.H.H.H.H.H.H.H.H.* * , { r.t.X.} / v &       O 4 4 4 4 4 H.H.H.H.H.H.H.H.H.H.H.H.H.H.H.H.H.H.H.H.H.H.H.H.H.H.H.H.H.H.",
"H.H.H.H.H.H.H.H.H.H.H.H.H.* * * = : ( x.j.j.} o         O 4 4 4 4 4 4 3 H.H.H.H.H.H.H.H.H.H.H.H.H.H.H.H.H.H.H.H.H.H.H.H.H.H.H.H.",
"H.H.H.H.H.H.H.H.H.H.H.H.* * * * H.H.H.H.x z i           X o o @ 4 4 4 4 # # H.H.H.H.H.H.H.H.H.H.H.H.H.H.H.H.H.H.H.H.H.H.H.H.H.H.",
"H.H.H.H.H.H.H.H.H.H.H.* * * * H.H.H.H.H.                      o + + + 5 h h z H.H.H.H.H.H.H.H.H.H.H.H.H.H.H.H.H.H.H.H.H.H.H.H.H.",
"H.H.H.H.H.H.H.H.H.H.= = * * H.H.H.H.H.H.H.H.H.                    o o g T T T T H.H.H.H.H.H.H.H.H.H.H.H.H.H.H.H.H.H.H.H.H.H.H.H.",
"H.H.H.H.H.H.H.H.H.J D 2 % H.H.H.H.H.H.H.H.H.H.H.H.              ; L L l u u u 0 4 # H.H.H.H.H.H.H.H.H.H.H.H.H.H.H.H.H.H.H.H.H.H.",
"H.H.H.H.H.H.H.H.H.K K m H.H.H.H.H.H.H.H.H.H.H.H.H.H.    6 d b f h z z L R R s O O @ 4 H.H.H.H.H.H.H.H.H.H.H.H.H.H.H.H.H.H.H.H.H.",
"H.H.H.H.H.H.H.H.H.K K K H.H.H.H.H.H.H.H.H.H.H.H.H.H.H.H.I  .y.| v s s ' x.x.T 6 6 - @ @ H.H.H.H.H.H.H.H.H.H.H.H.H.H.H.H.H.H.H.H.",
"H.H.H.H.H.H.H.H.H.K K K J J H.H.H.H.H.H.H.H.H.H.H.H.H.H.7 7 p 7 n 0.0.s.x.x.t.9.9.h X X @ # # # # # # # # # # # # # # 4 H.H.H.H.",
"H.H.H.H.H.H.H.H.H.H.H.K K K K J K H.H.H.H.H.H.H.H.H.H.H.' ' ' ' ;.x.x.x.x.x.x.x.x.O.L H.o o o o @ 4 4 4 4 4 4 4 @ O + H.H.H.H.H.",
"H.H.H.H.H.H.H.H.H.H.H.H.K K K K J H.H.H.H.H.H.H.H.H.H.H.x.x.x.x.c.v.v.v.x.x.x.x.x.x.x.H.        O @ @ @ @ @ @ @ +   H.H.H.H.H.H.",
"H.H.H.H.H.H.H.H.H.H.H.H.H.J K K J H.H.H.H.H.H.H.H.H.H.H.x.x.x.x.B.F.F.C.x.x.x.x.x.x.x.H.H.H.H.H.                  H.H.H.H.H.H.H.",
"H.H.H.H.H.H.H.H.H.H.H.H.H.H.H.H.H.H.H.H.H.H.H.H.H.H.H.H.x.x.x.B.Z.F.F.Z.x.x.x.x.x.x.x.H.H.H.H.H.H.H.H.H.H.H.H.H.H.H.H.H.H.H.H.H.",
"H.H.H.H.H.H.H.H.H.H.H.H.H.H.H.H.H.H.H.H.H.H.H.H.H.H.H.H.x.x.x.Z.F.F.F.Z.x.x.x.x.x.0.7.H.H.H.H.H.H.H.H.H.H.H.H.H.H.H.H.H.H.H.H.H.",
"H.H.H.H.H.H.H.H.H.H.H.H.H.H.H.H.H.H.H.H.H.H.H.H.H.H.H.H.x.x.x.Z.F.F.F.Z.x.x.x.x.x.o.E H.H.H.H.H.H.H.H.H.H.H.H.H.H.H.H.H.H.H.H.H.",
"H.H.H.H.H.H.H.H.H.H.H.H.H.H.H.H.H.H.H.H.H.H.H.H.H.H.H.H.x.x.x.Z.F.F.F.Z.x.x.x.x.x.o.E H.H.H.H.H.H.H.H.H.H.H.H.H.H.H.H.H.H.H.H.H.",
"H.H.H.H.H.H.H.H.H.H.H.H.H.H.H.H.H.H.H.H.H.H.H.H.H.H.H.H.x.x.x.Z.F.F.Z.v.x.x.x.s.:.' E H.H.H.H.H.H.H.H.H.H.H.H.H.H.H.H.H.H.H.H.H.",
"H.H.H.H.H.H.H.H.H.H.H.H.H.H.H.H.H.H.H.H.H.H.H.H.H.H.H.H.x.x.x.C.S.Z.v.x.x.x.x.0.E E E H.H.H.H.H.H.H.H.H.H.H.H.H.H.H.H.H.H.H.H.H.",
"H.H.H.H.H.H.H.H.H.H.H.H.H.H.H.H.H.H.H.H.H.H.H.H.H.H.H.H.x.x.x.x.c.c.x.x.x.x.x.0.E E E H.H.H.H.H.H.H.H.H.H.H.H.H.H.H.H.H.H.H.H.H.",
"H.H.H.H.H.H.H.H.H.H.H.H.H.H.H.H.H.H.H.H.H.H.H.H.H.H.H.H.-.:.j.x.x.x.x.x.x.x.8.X.E E E H.H.H.H.H.H.H.H.H.H.H.H.H.H.H.H.H.H.H.H.H.",
"H.H.H.H.H.H.H.H.H.H.H.H.H.H.H.H.H.H.H.H.H.H.H.H.H.H.H.H.H.} 8.f.x.x.x.x.x.x.-.E E E E H.H.H.H.H.H.H.H.H.H.H.H.H.H.H.H.H.H.H.H.H.",
"H.H.H.H.H.H.H.H.H.H.H.H.H.H.H.H.H.H.H.H.H.H.H.H.H.H.H.H.H.H.E 8.x.x.x.x.x.x.-.E E E E H.H.H.H.H.H.H.H.H.H.H.H.H.H.H.H.H.H.H.H.H.",
"H.H.H.H.H.H.H.H.H.H.H.H.H.H.H.H.H.H.H.H.H.H.H.H.H.H.H.H.H.H.H.s.x.x.x.x.f.O.) E E E E H.H.H.H.H.H.H.H.H.H.H.H.H.H.H.H.H.H.H.H.H.",
"H.H.H.H.H.H.H.H.H.H.H.H.H.H.H.H.H.H.H.H.H.H.H.H.H.H.H.H.H.H.H.7.0.x.x.x.t._ E E E E E H.H.H.H.H.H.H.H.H.H.H.H.H.H.H.H.H.H.H.H.H.",
"H.H.H.H.H.H.H.H.H.H.H.H.H.H.H.H.H.H.H.H.H.H.H.H.H.H.H.H.H.H.H.E o.f.f.f.0.) E E U U U H.H.H.H.H.H.H.H.H.H.H.H.H.H.H.H.H.H.H.H.H.",
"H.H.H.H.H.H.H.H.H.H.H.H.H.H.H.H.H.H.H.H.H.H.H.H.H.H.H.H.H.H.H.H.H.] ] ] ' E E L 0 0 0 H.H.H.H.H.H.H.H.H.H.H.H.H.H.H.H.H.H.H.H.H.",
"H.H.H.H.H.H.H.H.H.H.H.H.H.H.H.H.H.H.H.H.H.H.H.H.H.H.H.H.H.H.H.H.H.E E E E E L h 4 4 4 H.H.H.H.H.H.H.H.H.H.H.H.H.H.H.H.H.H.H.H.H.",
"H.H.H.H.H.H.H.H.H.H.H.H.H.H.H.H.H.H.H.H.H.H.H.H.H.H.H.H.H.H.H.H.H.H.L L L L h # 4 4 4 # H.H.H.H.H.H.H.H.H.H.H.H.H.H.H.H.H.H.H.H.",
"H.H.H.H.H.H.H.H.H.H.H.H.H.H.H.H.H.H.H.H.H.H.H.H.H.H.H.H.H.H.H.H.H.H.5 5 5 5 H.H.# 4 4 # H.H.H.H.H.H.H.H.H.H.H.H.H.H.H.H.H.H.H.H.",
"H.H.H.H.H.H.H.H.H.H.H.H.H.H.H.H.H.H.H.H.H.H.H.H.H.H.H.H.H.H.H.H.H.H.# 4 4 4 H.H.# 4 # H.H.H.H.H.H.H.H.H.H.H.H.H.H.H.H.H.H.H.H.H.",
"H.H.H.H.H.H.H.H.H.H.H.H.H.H.H.H.H.H.H.H.H.H.H.H.H.H.H.H.H.H.H.H.H.H.4 4 # # H.H.# # H.H.H.H.H.H.H.H.H.H.H.H.H.H.H.H.H.H.H.H.H.H.",
"H.H.H.H.H.H.H.H.H.H.H.H.H.H.H.H.H.H.H.H.H.H.H.H.H.H.H.H.H.H.H.H.H.4 4 4 # H.H.H.4 H.H.H.H.H.H.H.H.H.H.H.H.H.H.H.H.H.H.H.H.H.H.H.",
"H.H.H.H.H.H.H.H.H.H.H.H.H.H.H.H.H.H.H.H.H.H.H.H.H.H.H.H.H.H.H.H.4 4 4 4 # H.H.H.H.H.H.H.H.H.H.H.H.H.H.H.H.H.H.H.H.H.H.H.H.H.H.H.",
"H.H.H.H.H.H.H.H.H.H.H.H.H.H.H.H.H.H.H.H.H.H.H.H.H.H.H.H.H.H.H.H.# # # # H.H.H.H.H.H.H.H.H.H.H.H.H.H.H.H.H.H.H.H.H.H.H.H.H.H.H.H.",
"H.H.H.H.H.H.H.H.H.H.H.H.H.H.H.H.H.H.H.H.H.H.H.H.H.H.H.H.H.H.H.H.H.H.H.H.H.H.H.H.H.H.H.H.H.H.H.H.H.H.H.H.H.H.H.H.H.H.H.H.H.H.H.H."
};
