/* XPM */
static const char *cnVuX3I3[] = {
/* columns rows colors chars-per-pixel */
"64 64 157 2 ",
"   c #2A1D0D",
".  c #2E200F",
"X  c #2F2112",
"o  c #2E2A18",
"O  c #322415",
"+  c #3A2A17",
"@  c #362819",
"#  c #3B2B1C",
"$  c #3E2F21",
"%  c #3F3022",
"&  c #323521",
"*  c #43250F",
"=  c #572B0F",
"-  c #582C0F",
";  c #4D2E1B",
":  c #572B10",
">  c #592C11",
",  c #43311E",
"<  c #4C311D",
"1  c #5F3014",
"2  c #613116",
"3  c #69351A",
"4  c #6D3A1E",
"5  c #71391F",
"6  c #402F22",
"7  c #403022",
"8  c #493624",
"9  c #423D27",
"0  c #4C3822",
"q  c #513C2B",
"w  c #593A29",
"e  c #523C25",
"r  c #603926",
"t  c #653E2B",
"y  c #7B3F24",
"u  c #3B4E36",
"i  c #3C5139",
"p  c #57412C",
"a  c #5D452C",
"s  c #5C4531",
"d  c #724525",
"f  c #7E4126",
"g  c #7F452E",
"h  c #774928",
"j  c #634B34",
"k  c #6C4E33",
"l  c #714631",
"z  c #6D5239",
"x  c #63593E",
"c  c #73563B",
"v  c #77593D",
"b  c #785A3D",
"n  c #5C5841",
"m  c #6C5E41",
"M  c #7B5C41",
"N  c #4C7758",
"B  c #4B7B5B",
"V  c #547358",
"C  c #7F6245",
"Z  c #697A5A",
"A  c #88472C",
"S  c #8E4E36",
"D  c #81533A",
"F  c #9D5237",
"G  c #945139",
"H  c #9C5C3F",
"J  c #A4563C",
"K  c #A7583E",
"L  c #AC5B3F",
"P  c #805F41",
"I  c #AD5B40",
"U  c #846445",
"Y  c #886546",
"T  c #816949",
"R  c #8D6A4A",
"E  c #916D4C",
"W  c #9B6946",
"Q  c #95704E",
"!  c #9C7552",
"~  c #9E7853",
"^  c #A36344",
"/  c #A26B4B",
"(  c #B66D4C",
")  c #A27A55",
"_  c #A67956",
"`  c #BD7656",
"'  c #BF7A56",
"]  c #749F78",
"[  c #749A74",
"{  c #A7835C",
"}  c #AD835C",
"|  c #B28255",
" . c #B68558",
".. c #BE8E5F",
"X. c #899A73",
"o. c #AB8560",
"O. c #AD8962",
"+. c #B48C62",
"@. c #B98E63",
"#. c #BD9166",
"$. c #B5926A",
"%. c #B9956D",
"&. c #BC9A6F",
"*. c #BD9B70",
"=. c #C8825B",
"-. c #C29669",
";. c #CA9C6E",
":. c #C69768",
">. c #D0956B",
",. c #C09F73",
"<. c #CB9E70",
"1. c #C2A176",
"2. c #CCA172",
"3. c #C6A67A",
"4. c #C8A77A",
"5. c #CBAB7D",
"6. c #D2A372",
"7. c #D6A876",
"8. c #DAAA77",
"9. c #D0AE7F",
"0. c #DCAC79",
"q. c #DEB17C",
"w. c #E0AD77",
"e. c #E1AF7A",
"r. c #E3B27D",
"t. c #ECB77F",
"y. c #5BA882",
"u. c #6DDDAE",
"i. c #71E8B7",
"p. c #75F4C1",
"a. c #D3B383",
"s. c #D8B685",
"d. c #DDB986",
"f. c #DABE8D",
"g. c #E9B780",
"h. c #E7BA84",
"j. c #EDBB83",
"k. c #E0BD8A",
"l. c #F2BE85",
"z. c #ECC28C",
"x. c #F5C187",
"c. c #F5C48B",
"v. c #EFCB94",
"b. c #EECF99",
"n. c #F0C790",
"m. c #F5CB92",
"M. c #ECD29D",
"N. c #F5D097",
"B. c #F5D199",
"V. c #F5D59D",
"C. c #F5D39B",
"Z. c #F5DAA2",
"A. c #F3DBA4",
"S. c #F5DDA6",
"D. c #F5DBA4",
"F. c None",
"G. c black",
/* pixels */
"F.F.F.F.F.F.F.F.F.F.F.F.F.F.F.F.F.F.F.F.F.F.F.F.F.F.F.F.F.F.F.F.F.F.F.F.F.F.F.F.F.F.F.F.F.F.F.F.F.F.F.F.F.F.F.F.F.F.F.F.F.F.F.F.",
"F.F.F.F.F.F.F.F.F.F.F.F.F.F.F.F.F.F.F.F.F.F.F.F.F.F.F.F.F.F.F.F.F.F.F.F.F.F.F.F.F.F.F.F.F.F.F.F.F.F.F.F.F.F.F.F.F.F.F.F.F.F.F.F.",
"F.F.F.F.F.F.F.F.F.F.F.F.F.F.F.F.F.F.F.F.F.F.F.F.F.F.F.F.F.F.F.F.F.F.F.F.F.F.F.F.F.F.F.F.F.F.F.F.F.F.F.F.F.F.F.F.F.F.F.F.F.F.F.F.",
"F.F.F.F.F.F.F.F.F.F.F.F.F.F.F.F.F.F.F.F.F.F.F.F.F.F.F.F.F.F.F.F.F.F.F.F.F.F.F.F.F.F.F.F.F.F.F.F.F.F.F.F.F.F.F.F.F.F.F.F.F.F.F.F.",
"F.F.F.F.F.F.F.F.F.F.F.F.F.F.F.F.F.F.F.F.F.F.F.F.F.F.F.F.F.F.F.F.F.F.F.F.F.F.F.F.F.F.F.F.F.F.F.F.F.F.F.F.F.F.F.F.F.F.F.F.F.F.F.F.",
"F.F.F.F.F.F.F.F.F.F.F.F.F.F.F.F.F.F.F.F.F.F.F.F.F.F.F.F.F.F.F.F.F.F.F.F.F.F.F.F.F.F.F.F.F.F.F.F.F.F.F.F.F.F.F.F.F.F.F.F.F.F.F.F.",
"F.F.F.F.F.F.F.F.F.F.F.F.F.F.F.F.F.F.F.F.F.F.F.F.F.F.F.F.F.F.F.F.F.F.F.F.F.F.F.F.F.F.F.F.F.F.F.F.F.F.F.F.F.F.F.F.F.F.F.F.F.F.F.F.",
"F.F.F.F.F.F.F.F.F.F.F.F.F.F.F.F.F.F.F.F.F.F.F.  F.F.F.F.F.F.F.F.F.F.F.F.F.F.F.F.F.F.F.F.F.F.F.F.F.F.F.F.F.F.F.F.F.F.F.F.F.F.F.F.",
"F.F.F.F.F.F.F.F.F.F.F.F.F.F.F.F.F.F.F.F.F.F.F.  F.F.F.F.F.F.F.F.F.F.F.F.F.F.F.F.F.F.F.F.F.F.F.F.F.F.F.F.F.F.F.F.F.F.F.F.F.F.F.F.",
"F.F.F.F.F.F.F.F.F.F.F.F.F.F.F.F.F.F.F.F.F.F.F.  F.F.F.F.F.F.F.F.F.F.F.F.F.F.F.F.F.F.F.F.F.F.F.F.F.F.F.F.F.F.F.F.F.F.F.F.F.F.F.F.",
"F.F.F.F.F.F.F.F.F.F.! a.S.S.%.! ! F.F.F.F.F.F.  F.F.F.F.F.F.F.F.F.F.F.F.F.F.F.F.F.F.F.F.F.F.F.F.F.F.F.F.F.F.F.F.F.F.F.F.F.F.F.F.",
"F.F.F.F.F.F.F.F.F.M.a.3.1.1.{ +.a.h.F.F.F.F.F.* : y I F.F.F.F.F.F.F.F.F.F.F.F.F.F.F.F.F.F.F.F.F.F.F.F.F.F.F.F.F.F.F.F.F.F.F.F.F.",
"F.F.F.F.F.F.F.F.F.V.V.9.O.! O.5.B.r.F.F.F.F.F.: : f I F.F.F.F.F.F.F.F.F.F.F.F.F.F.F.F.F.F.F.F.F.F.F.F.F.F.F.F.F.F.F.F.F.F.F.F.F.",
"F.F.F.F.F.F.F.F.F.x.x.B.f.! f.B.j.} F.F.F.F.F.: : f I L L I F.F.F.F.F.F.F.F.F.F.F.F.F.F.F.F.F.F.F.F.F.F.F.F.F.F.F.F.F.F.F.F.F.F.",
"F.F.F.F.F.F.F.F.F.-.j.c.z.8.z.q.+.) F.F.F.F.F.: F.F.F.I I I I F.F.F.F.F.F.F.F.V.x.x.x.c.Z.F.F.F.F.F.F.F.F.F.F.F.F.F.F.F.F.F.F.F.",
"F.F.F.F.F.F.F.F.F.)  . ...6.6.2.*.) $.F.F.F.F.; F.F.F.I I I I I F.F.F.F.F.F.V.z.6.6.6.6.a.f.F.F.F.F.F.F.F.F.F.F.F.F.F.F.F.F.F.F.",
"F.F.F.F.F.F.F.F.F.F.1 2 d ! ) 1.M.O.4.Z.F.F.F.7 F.F.F.F.J J I I L F.F.F.F.Z.n.8.! ! ! ! ! 3.M.M.F.F.F.F.F.F.F.F.F.F.F.F.F.F.F.F.",
"      F.F.F.F.F.F.F.F F H ! <.z.M.O.<.m.D.F.F.$ O F.F.F.3 y L I L F.S.S.Z.m.2.} F.F.F.F.F.o.O.O.7.x.F.F.F.F.F.F.F.F.F.F.F.F.F.F.",
"F.F.F.    F.F.F.F.F.L S D ! 8.m.M.O.;.h.5.T @ 7 r g L L 5 2 f F ` D.B.k.4.;.+.F.F.F.F.F.F.F.F.F.F.F.F.F.F.F.F.F.F.F.F.F.F.F.F.F.",
"F.F.F.      F.F.F.F.G t s ! 8.m.b.&.<.7.+.k ; w G I I I A 4 h ^ >.V.h.;.! ! F.F.F.F.F.F.F.F.F.F.F.F.F.F.F.F.F.F.F.F.F.F.F.F.F.F.",
"F.F.F.F.F.F.  # F.F.8 7 s ! 8.x.c.M.4.+.t.' J J L I I I L ( e.t.l.l.+.) F.F.F.F.F.F.F.F.F.F.F.F.F.F.F.F.F.F.F.F.F.F.F.F.F.F.F.F.",
"F.F.F.F.F.F.F.F.F.s { R Q 6.z.d.#.*.5.d.x.=.I I I G l W / _ #.#.#.#.} F.F.F.F.F.F.F.F.F.F.F.F.F.F.F.F.F.F.F.F.F.F.F.F.F.F.F.F.F.",
"F.F.F.F.F.F.F.F.F.j r.;.-.8.s.5.%.%.s.v.0.' I I S t 8 c R ! ! ! ! ! F.F.F.F.F.F.F.F.F.F.F.F.F.F.F.F.F.F.F.F.F.F.F.F.F.F.F.F.F.F.",
"F.F.F.F.F.F.F.F.F.F.F.j.8.~ ! ,.A.A.m.e.) ^ L K ; @ 7 7 F.F.F.F.F.F.F.F.F.F.F.F.F.F.F.F.F.F.F.F.F.F.F.F.F.F.F.F.F.F.F.F.F.F.F.F.",
"F.F.F.F.F.F.F.F.F.F.> d W 0.0.2.$.$.+.~ e < ; ; # # 7 7 7 6 F.F.F.F.F.F.F.F.F.F.F.F.F.F.F.F.F.F.F.F.F.F.F.F.F.F.F.F.F.F.F.F.F.F.",
"F.F.F.F.F.F.F.F.F.: : : d | w.r.-.-.Q a O       # 7 7 7 7 7 F.F.F.F.F.F.F.F.F.F.F.F.F.F.F.F.F.F.F.F.F.F.F.F.F.F.F.F.F.F.F.F.F.F.",
"F.F.F.F.F.F.F.F.> : : : : : :.g.8.8.U           @ # $ 7 7 7 7 7 % F.F.F.F.F.F.F.F.F.F.F.F.F.F.F.F.F.F.F.F.F.F.F.F.F.F.F.F.F.F.F.",
"F.F.F.F.F.F.F.= > : : : F.F.F.F.0 0 +             X O # 7 7 7 7 7 7 F.F.F.F.F.F.F.F.F.F.F.F.F.F.F.F.F.F.F.F.F.F.F.F.F.F.F.F.F.F.",
"F.F.F.F.F.F.: : : > - F.F.F.F.F.F.F.                  O @ @ @ @ 8 c R F.F.F.F.F.7 % % % % % % % % % 7 F.F.F.F.F.F.F.F.F.F.F.F.F.",
"F.F.F.F.F.f 3 > : : F.F.F.F.F.F.F.F.F.                    o u 9 a Y Y M F.F.F.F.7 # # # # # # # $ 7 % F.F.F.F.F.F.F.F.F.F.F.F.F.",
"F.F.F.F.I L J 3 : F.F.F.F.F.F.F.F.F.F.F.F.                u u.X.M 8 8 7 % % % % 7 O             @ 7 7 % % % F.F.F.F.F.F.F.F.F.F.",
"F.F.F.F.L I L F.F.F.F.F.F.F.F.F.F.F.F.F.F.F.F.F.k Z y.y.Z m V n C +.+.+.) , O O O X F.F.F.F.F.F.O O O O O O   F.F.F.F.F.F.F.F.F.",
"F.F.F.F.L I I F.F.F.F.F.F.F.F.F.F.F.F.F.F.F.F.F.b [ p.p.] v C U { x.x.x.q.U c j   F.F.F.F.F.F.F.F.            F.F.F.F.F.F.F.F.F.",
"F.F.F.F.I L I I I I F.F.F.F.F.F.F.F.F.F.F.F.F.! 0 N i.i.B a t.l.x.x.x.x.x.x.x.x.F.F.F.F.F.F.F.F.F.F.F.F.F.F.F.F.F.F.F.F.F.F.F.F.",
"F.F.F.F.F.F.F.I I I I L L F.F.F.F.F.F.F.F.F.! ! Y x i i & 0 { 0.x.x.x.x.x.x.x.x.x.F.F.F.F.F.F.F.F.F.F.F.F.F.F.F.F.F.F.F.F.F.F.F.",
"F.F.F.F.F.F.F.F.I I I I L F.F.F.F.F.F.F.F.! ! ! ! k       @ z } 8.x.x.x.x.m.m.m.x.x.F.F.F.F.F.F.F.F.F.F.F.F.F.F.F.F.F.F.F.F.F.F.",
"F.F.F.F.F.F.F.F.F.L L L I F.F.F.F.! ! ! ! ! ! ! ! c +     X $ c } t.l.x.c.Z.S.V.c.x.x.F.F.F.F.F.F.F.F.F.F.F.F.F.F.F.F.F.F.F.F.F.",
"F.F.F.F.F.F.F.F.F.F.F.F.F.F.! ! ! ! ! ! ! ! ! ! ! Q P +   X $ 8 z } r.x.c.Z.S.S.Z.m.x.x.x.x.x.F.F.F.F.F.F.F.F.F.F.7 F.F.F.F.F.F.",
"F.F.F.F.F.F.F.F.F.F.! ! ! ! ! ! ! ! ! ! ! ! ! ! ! ! R +     O # j ! @.8.x.m.m.B.S.V.B.N.c.x.x.x.x.x.x.F.F.F.F.F.7 6 7 F.F.F.F.F.",
"F.F.F.F.F.F.F.F.F.F.! ! ! ! ! ! ! ! ! ! ! ! ! ! ! ! E p +     @ p U Q @.r.l.x.c.V.Z.S.Z.c.x.x.x.x.x.x.F.F.F.F.6 7 7 7 % F.F.F.F.",
"F.F.F.F.F.F.F.F.F.! ! ! ! ! ! ! ! ! ! ! ! ! ! ! ! ! ! ! a     @ 7 8 Y ! } g.x.x.x.V.S.Z.c.x.x.x.x.x.x.x.6.E q 7 7 7 7 % 7 F.F.F.",
"F.F.F.F.F.F.F.F.F.! ! ! ! ! ! ! ! ! ! ! ! ! ! ! ! ! ! ! a     X @ 7 p M ) +.@.;.x.c.m.m.x.x.x.x.x.x.x.;.} E q 7 7 F.7 7 7 7 F.F.",
"F.F.F.F.F.F.F.F.k M ! ! ! ! ! ! ! ! ! ! ! ! ! ! ! ! ! ! a       X @ @ q b Q ! { 6.6.e.x.x.x.x.x.e.6.6.} ! E q 6 F.F.F.% % % F.F.",
"F.F.F.F.F.F.F.7 7 q E ! ! ! ! ! ! ! ! ! ! ! ! ! ! ! ! F.F.F.            + U E Q ! ! #.j.j.j.j.j.#.! ! ! ! E q F.F.F.F.F.F.F.F.F.",
"F.F.% F.F.F.% 7 7 q E ! ! ! ! ! ! ! ! ! ! ! ! ! F.F.F.F.F.F.F.          . # , a ! ! ) } } } } } ) ! ! ! ! F.F.F.F.F.F.F.F.F.F.F.",
"F.% 7 7 F.% 7 7 7 q E ! ! ! ! ! ! ! ! ! ! ! ! F.F.F.F.F.F.F.F.F.              0 ! ! ! ! ! ! ! ! ! ! ! ! F.F.F.F.F.F.F.F.F.F.F.F.",
"F.% 7 7 7 7 7 7 F.F.F.F.! ! ! ! ! F.F.F.F.F.F.F.F.F.F.F.F.F.F.F.F.F.F.F.F.F.F.F.F.F.F.! ! ! ! ! ! ! ! F.F.F.F.F.F.F.F.F.F.F.F.F.",
"F.% 7 7 7 7 7 F.F.F.F.F.F.F.F.F.F.F.F.F.F.F.F.F.F.F.F.F.F.F.F.F.F.F.F.F.F.F.F.F.F.F.F.F.F.F.F.F.F.F.F.F.F.F.F.F.F.F.F.F.F.F.F.F.",
"F.F.% % % F.F.F.F.F.F.F.F.F.F.F.F.F.F.F.F.F.F.F.F.F.F.F.F.F.F.F.F.F.F.F.F.F.F.F.F.F.F.F.F.F.F.F.F.F.F.F.F.F.F.F.F.F.F.F.F.F.F.F.",
"F.F.F.7 F.F.F.F.F.F.F.F.F.F.F.F.F.F.F.F.F.F.F.F.F.F.F.F.F.F.F.F.F.F.F.F.F.F.F.F.F.F.F.F.F.F.F.F.F.F.F.F.F.F.F.F.F.F.F.F.F.F.F.F.",
"F.F.F.F.F.F.F.F.F.F.F.F.F.F.F.F.F.F.F.F.F.F.F.F.F.F.F.F.F.F.F.F.F.F.F.F.F.F.F.F.F.F.F.F.F.F.F.F.F.F.F.F.F.F.F.F.F.F.F.F.F.F.F.F.",
"F.F.F.F.F.F.F.F.F.F.F.F.F.F.F.F.F.F.F.F.F.F.F.F.F.F.F.F.F.F.F.F.F.F.F.F.F.F.F.F.F.F.F.F.F.F.F.F.F.F.F.F.F.F.F.F.F.F.F.F.F.F.F.F.",
"F.F.F.F.F.F.F.F.F.F.F.F.F.F.F.F.F.F.F.F.F.F.F.F.F.F.F.F.F.F.F.F.F.F.F.F.F.F.F.F.F.F.F.F.F.F.F.F.F.F.F.F.F.F.F.F.F.F.F.F.F.F.F.F.",
"F.F.F.F.F.F.F.F.F.F.F.F.F.F.F.F.F.F.F.F.F.F.F.F.F.F.F.F.F.F.F.F.F.F.F.F.F.F.F.F.F.F.F.F.F.F.F.F.F.F.F.F.F.F.F.F.F.F.F.F.F.F.F.F.",
"F.F.F.F.F.F.F.F.F.F.F.F.F.F.F.F.F.F.F.F.F.F.F.F.F.F.F.F.F.F.F.F.F.F.F.F.F.F.F.F.F.F.F.F.F.F.F.F.F.F.F.F.F.F.F.F.F.F.F.F.F.F.F.F.",
"F.F.F.F.F.F.F.F.F.F.F.F.F.F.F.F.F.F.F.F.F.F.F.F.F.F.F.F.F.F.F.F.F.F.F.F.F.F.F.F.F.F.F.F.F.F.F.F.F.F.F.F.F.F.F.F.F.F.F.F.F.F.F.F.",
"F.F.F.F.F.F.F.F.F.F.F.F.F.F.F.F.F.F.F.F.F.F.F.F.F.F.F.F.F.F.F.F.F.F.F.F.F.F.F.F.F.F.F.F.F.F.F.F.F.F.F.F.F.F.F.F.F.F.F.F.F.F.F.F.",
"F.F.F.F.F.F.F.F.F.F.F.F.F.F.F.F.F.F.F.F.F.F.F.F.F.F.F.F.F.F.F.F.F.F.F.F.F.F.F.F.F.F.F.F.F.F.F.F.F.F.F.F.F.F.F.F.F.F.F.F.F.F.F.F.",
"F.F.F.F.F.F.F.F.F.F.F.F.F.F.F.F.F.F.F.F.F.F.F.F.F.F.F.F.F.F.F.F.F.F.F.F.F.F.F.F.F.F.F.F.F.F.F.F.F.F.F.F.F.F.F.F.F.F.F.F.F.F.F.F.",
"F.F.F.F.F.F.F.F.F.F.F.F.F.F.F.F.F.F.F.F.F.F.F.F.F.F.F.F.F.F.F.F.F.F.F.F.F.F.F.F.F.F.F.F.F.F.F.F.F.F.F.F.F.F.F.F.F.F.F.F.F.F.F.F.",
"F.F.F.F.F.F.F.F.F.F.F.F.F.F.F.F.F.F.F.F.F.F.F.F.F.F.F.F.F.F.F.F.F.F.F.F.F.F.F.F.F.F.F.F.F.F.F.F.F.F.F.F.F.F.F.F.F.F.F.F.F.F.F.F.",
"F.F.F.F.F.F.F.F.F.F.F.F.F.F.F.F.F.F.F.F.F.F.F.F.F.F.F.F.F.F.F.F.F.F.F.F.F.F.F.F.F.F.F.F.F.F.F.F.F.F.F.F.F.F.F.F.F.F.F.F.F.F.F.F.",
"F.F.F.F.F.F.F.F.F.F.F.F.F.F.F.F.F.F.F.F.F.F.F.F.F.F.F.F.F.F.F.F.F.F.F.F.F.F.F.F.F.F.F.F.F.F.F.F.F.F.F.F.F.F.F.F.F.F.F.F.F.F.F.F.",
"F.F.F.F.F.F.F.F.F.F.F.F.F.F.F.F.F.F.F.F.F.F.F.F.F.F.F.F.F.F.F.F.F.F.F.F.F.F.F.F.F.F.F.F.F.F.F.F.F.F.F.F.F.F.F.F.F.F.F.F.F.F.F.F."
};
