/* XPM */
static char *run_rev_s_3[] = {
/* columns rows colors chars-per-pixel */
"32 32 191 2 ",
"   c None",
".  c #291D0D",
"X  c #2A1C0C",
"o  c #2A1D0C",
"O  c #2A1C0D",
"+  c #2B1C0D",
"@  c #2A1D0D",
"#  c #2B1E0D",
"$  c #291D0E",
"%  c #2D1F0E",
"&  c #2D2010",
"*  c #2E2011",
"=  c #2E2111",
"-  c #2F2111",
";  c #2F2214",
":  c #322413",
">  c #322314",
",  c #322315",
"<  c #332515",
"1  c #362614",
"2  c #392917",
"3  c #3B2A17",
"4  c #362718",
"5  c #39291A",
"6  c #39291B",
"7  c #3A2A1C",
"8  c #3D2D1F",
"9  c #3E2D1F",
"0  c #3D2E1F",
"q  c #3F2F21",
"w  c #3E2F23",
"e  c #3F3022",
"r  c #3F3023",
"t  c #48260F",
"y  c #572B0F",
"u  c #562B10",
"i  c #572B10",
"p  c #592C11",
"a  c #47331F",
"s  c #4F311A",
"d  c #4C301E",
"f  c #643319",
"g  c #683419",
"h  c #402F21",
"j  c #402F22",
"k  c #403021",
"l  c #403022",
"z  c #403122",
"x  c #463320",
"c  c #443224",
"v  c #483420",
"b  c #4A3520",
"n  c #493725",
"m  c #483526",
"M  c #4F3A24",
"N  c #4A3728",
"B  c #523E2C",
"V  c #603C28",
"C  c #763D22",
"Z  c #57412E",
"A  c #5B4430",
"S  c #60482C",
"D  c #7D4026",
"F  c #614933",
"G  c #624A34",
"H  c #634A34",
"J  c #6D4F33",
"K  c #754531",
"L  c #764430",
"P  c #6D5137",
"I  c #6B533A",
"U  c #77593B",
"Y  c #76593F",
"T  c #7A5A3D",
"R  c #7B5C40",
"E  c #7B5F43",
"W  c #7C5D41",
"Q  c #7D5E42",
"!  c #7E5F43",
"~  c #804628",
"^  c #944E33",
"/  c #904D35",
"(  c #815031",
")  c #8B5C37",
"_  c #9D5137",
"`  c #9C543B",
"'  c #9E553B",
"]  c #A5573C",
"[  c #AD5C3F",
"{  c #AC5B40",
"}  c #AD5B40",
"|  c #AD5C40",
" . c #8A6747",
".. c #8C6848",
"X. c #946646",
"o. c #966646",
"O. c #936E4C",
"+. c #97704F",
"@. c #97724F",
"#. c #987250",
"$. c #9B7551",
"%. c #9B7552",
"&. c #9B7652",
"*. c #9C7451",
"=. c #9C7551",
"-. c #9C7452",
";. c #9C7552",
":. c #9C7652",
">. c #9F7652",
",. c #9E7753",
"<. c #9B7852",
"1. c #9E7B56",
"2. c #B46647",
"3. c #B66748",
"4. c #A07C57",
"5. c #A57C56",
"6. c #A47C57",
"7. c #A57D57",
"8. c #AD7C51",
"9. c #AF8054",
"0. c #AD825B",
"q. c #B1865E",
"w. c #B2885F",
"e. c #AC8861",
"r. c #B78C62",
"t. c #B68D62",
"y. c #B28E67",
"u. c #B88D63",
"i. c #B98D63",
"p. c #BA9266",
"a. c #BF9265",
"s. c #BB946A",
"d. c #BC9A70",
"f. c #C19264",
"g. c #C7996B",
"h. c #C09A6E",
"j. c #C79A6C",
"k. c #CF996B",
"l. c #C99E6F",
"z. c #CA9E6E",
"x. c #C29C70",
"c. c #CB9F71",
"v. c #CEA272",
"b. c #DDA071",
"n. c #D8A976",
"m. c #D8A77B",
"M. c #D6AE7C",
"N. c #DFAE7A",
"B. c #D9AF7D",
"V. c #DFB07B",
"C. c #E2A674",
"Z. c #E0AE78",
"A. c #E1B17E",
"S. c #ECB47E",
"D. c #CCAD80",
"F. c #CDAE80",
"G. c #CFB082",
"H. c #D3B282",
"J. c #DEB480",
"K. c #DFB581",
"L. c #DDB682",
"P. c #DFB682",
"I. c #D9B786",
"U. c #DEBA87",
"Y. c #DFBA87",
"T. c #D6B888",
"R. c #E1B782",
"E. c #E8B680",
"W. c #EAB781",
"Q. c #E5B883",
"!. c #E7B983",
"~. c #EAB881",
"^. c #EEBB83",
"/. c #E4BE8A",
"(. c #F1BD84",
"). c #E5C38F",
"_. c #F4C186",
"`. c #F5C186",
"'. c #F5C087",
"]. c #F5C187",
"[. c #F5C288",
"{. c #F5C58B",
"}. c #F0C58D",
"|. c #F5C78D",
" X c #E6CA97",
".X c #F5CA91",
"XX c #F1CC95",
"oX c #F5D098",
"OX c #EFD7A1",
"+X c #F5DBA4",
"@X c #F5DDA6",
/* pixels */
"                                                                ",
"                                                                ",
"                                                                ",
"                                                                ",
"                                                                ",
"                      X                                         ",
"        OXG.d.e.U.    t f                                       ",
"        Q.}.x.U.l.    p ( 3.}                                   ",
"          8.f.c.y.F.  s J.C.2.}                                 ",
"X         ^ X.B.F.J.).I J   ~ ] m.                              ",
"    X     L W Q.I.v.>.V ' } D C k.XX                            ",
"        B 4.t./.s.H.b.} ' L       j.].                          ",
"          9.a.h.T.M.X./ d l         l.A. X                      ",
"          y ) Z.g.U % X 8 l l         >.                        ",
"        i i     S 1 X X = 4 8 8 m                               ",
"      g i         X X X b M M M P Y   l j j 7 5 5 5 <           ",
"    } _                 F H H H 1.p.E 8 , , X X   X X ; = X     ",
"    } } [             ].R.J.J.V.^.].<.a                         ",
"        | }       ].]..X+X@XoX].].~.q.>.%.                      ",
"            S.].].].].{.|.|.[.].].n.>.>.>.%.>.>.%.%.    j j     ",
"            W.].].].].].].].].].N.4.>.#.W W E  .>.>.+.m l l l   ",
"            0.W.(.(.N.t.u.u.u.w.>.H A Z w 5 x ..>.>.+.N         ",
"          c W 6.6.6.6.>.      3 3 = = : b T O.>.>.>.            ",
"    r w l l                             %.>.>.>.%.              ",
"    l l r                                                       ",
"                                                                ",
"                                                                ",
"                                                                ",
"                                                                ",
"                                                                ",
"                                                                ",
"                                                                "
};
