/* XPM */
static char *run_rev_s_4[] = {
/* columns rows colors chars-per-pixel */
"32 32 193 2 ",
"   c None",
".  c #291D0C",
"X  c #291D0D",
"o  c #2A1C0C",
"O  c #2A1D0C",
"+  c #2A1D0D",
"@  c #2B1E0E",
"#  c #2D1F10",
"$  c #2D200F",
"%  c #39210D",
"&  c #2F2110",
"*  c #2F2111",
"=  c #312313",
"-  c #312214",
";  c #312314",
":  c #39291B",
">  c #392A1C",
",  c #3A2A1C",
"<  c #3A2B1C",
"1  c #3B2B1C",
"2  c #3A2B1D",
"3  c #3B2B1D",
"4  c #3C2C1D",
"5  c #3D2E21",
"6  c #3F2F21",
"7  c #3F2F22",
"8  c #3F3022",
"9  c #333923",
"0  c #572B0F",
"q  c #422B1B",
"w  c #472C19",
"e  c #552B11",
"r  c #562B10",
"t  c #572B10",
"y  c #582C11",
"u  c #5C2D13",
"i  c #5F2F14",
"p  c #44311D",
"a  c #46321E",
"s  c #6D361C",
"d  c #402F22",
"f  c #403021",
"g  c #403022",
"h  c #443220",
"j  c #4B3323",
"k  c #4B3621",
"l  c #423823",
"z  c #4F3923",
"x  c #4A3824",
"c  c #513D2B",
"v  c #523D2B",
"b  c #603B28",
"n  c #5B432A",
"m  c #5B432B",
"M  c #794225",
"N  c #634930",
"B  c #644A30",
"V  c #674C32",
"C  c #654D36",
"Z  c #694E33",
"A  c #7B4D36",
"S  c #6B5038",
"D  c #6C5139",
"F  c #6F5139",
"G  c #6E533A",
"H  c #71553A",
"J  c #7A5B3E",
"K  c #7E5E3F",
"L  c #7F5F41",
"P  c #686045",
"I  c #804B2D",
"U  c #8E4C34",
"Y  c #974F35",
"T  c #885936",
"R  c #9F5338",
"E  c #9D543C",
"W  c #A4563B",
"Q  c #A3593D",
"!  c #A7583D",
"~  c #A5583E",
"^  c #AC5A3E",
"/  c #AC5B3E",
"(  c #AC5B3F",
")  c #AD5A40",
"_  c #AC5B40",
"`  c #AD5B40",
"'  c #AE5B40",
"]  c #AD5C40",
"[  c #AE5D41",
"{  c #826647",
"}  c #886945",
"|  c #987250",
" . c #9B7452",
".. c #9B7552",
"X. c #9B7553",
"o. c #9C7451",
"O. c #9C7551",
"+. c #9C7452",
"@. c #9C7552",
"#. c #9D7553",
"$. c #9D7652",
"%. c #A26341",
"&. c #A66143",
"*. c #B16446",
"=. c #B16447",
"-. c #A27249",
";. c #B9704F",
":. c #A17B57",
">. c #B57755",
",. c #A9805A",
"<. c #A9815A",
"1. c #AA805A",
"2. c #AC835C",
"3. c #AD835C",
"4. c #AB855E",
"5. c #AB865E",
"6. c #AD855D",
"7. c #AB8660",
"8. c #AD8861",
"9. c #AE8A63",
"0. c #B68B61",
"q. c #B58C63",
"w. c #B48E65",
"e. c #BB9065",
"r. c #BB9166",
"t. c #BC9065",
"y. c #BD9465",
"u. c #BB956C",
"i. c #B9976D",
"p. c #C4976A",
"a. c #C49A6E",
"s. c #CB9E6E",
"d. c #C49C70",
"f. c #C99D70",
"g. c #C0A175",
"h. c #C3A175",
"j. c #CEA271",
"k. c #CFA271",
"l. c #CFA372",
"z. c #CFA373",
"x. c #CAA275",
"c. c #CEA676",
"v. c #C8A87B",
"b. c #CEAD7F",
"n. c #D4A472",
"m. c #D6A573",
"M. c #D2A376",
"N. c #D4A674",
"B. c #D8A876",
"V. c #D9A976",
"C. c #DAAA77",
"Z. c #D8AA78",
"A. c #D8AD7B",
"S. c #DFB27E",
"D. c #E6AB78",
"F. c #E1AF7B",
"G. c #E1B07B",
"H. c #E1B17B",
"J. c #E3B27C",
"K. c #E1B37E",
"L. c #E5B37D",
"P. c #E5B47E",
"I. c #D5B483",
"U. c #DFB580",
"Y. c #D8B584",
"T. c #D9BD8B",
"R. c #DBBC8B",
"E. c #EAB780",
"W. c #E5B984",
"Q. c #ECB981",
"!. c #F0BD84",
"~. c #E5C08C",
"^. c #F5C087",
"/. c #F4C187",
"(. c #F5C187",
"). c #F5C48B",
"_. c #F5C58B",
"`. c #F5C58C",
"'. c #F5C68C",
"]. c #F5C78E",
"[. c #ECCB95",
"{. c #F5C990",
"}. c #F5CB92",
"|. c #F6CB92",
" X c #F5CD94",
".X c #F5D098",
"XX c #F4D19A",
"oX c #F6D39B",
"OX c #F5D69E",
"+X c #F5D7A0",
"@X c #F4D8A1",
"#X c #F5D8A1",
"$X c #F5D9A2",
/* pixels */
"                                                                ",
"                                                                ",
"                                                                ",
"                                                                ",
"                                                                ",
"                                                                ",
"                          .                                     ",
"            i.T.g.8.      %                                     ",
"            .Xg.8.~.k.    e Y                                   ",
"            m.K.S.a.:.    e   =.] D.(..X                        ",
"            M I 2.T.i.+X  4   M.W ;.C.C.C.Y.      {.F.          ",
"      .     ( A p.[.r.c.x b >.%.s Q         f..X#XU.2.          ",
"        # 6 F S k.W.b.Z.&.~ E ~               5.7.,.            ",
"            q.s.x.v.I.A.=.U j                                   ",
"            0 T m.d.w.B w q 6 f                                 ",
"            e y -.y.} . . ; < f f                 6 6 < : &     ",
"        u 0 e       . . . . . ; ; h C         d 6 < =           ",
"        R i             . 9 l p p H 5.{ < < < < ; $             ",
"        ' (                 P F F 5.(.G.n                       ",
"          ] ' '           N.k.k.k.!.(.G.@.                      ",
"            ' (         (.'.{.(.(.(.P.,.@.@.                    ",
"                      (.).#X X(.!.r.,.@.@.@.                    ",
"                      (.{.#X'.(.t.n @.@.@.@.@.                  ",
"                    (.(.OX'.(.L.K k @.@.@.@.@.                  ",
"                    Q.(.).(.K.,.z & V | @.@.@.@.                ",
"                    6.E.(.P.,.@.N & . Z X.@.@.@.c f             ",
"                    @.2.0.,.@.    J J L X.@.@.    f f d         ",
"                    @.@.@.@.        @.@.@.          f 8         ",
"                    X.@.X.                                      ",
"                      c                                         ",
"                  f f f                                         ",
"                    d                                           "
};
