/* XPM */
static char *d1f00b9d37954a3cbe2a2aef08fcce1dyAYrkO477FKzvq8C[] = {
/* columns rows colors chars-per-pixel */
"64 64 159 2 ",
"   c None",
".  c #2A1D0D",
"X  c #3C230E",
"o  c #2E2011",
"O  c #322414",
"+  c #362718",
"@  c #372819",
"#  c #3A2B1D",
"$  c #3F3022",
"%  c #44250F",
"&  c #572C0F",
"*  c #412C1A",
"=  c #572B10",
"-  c #592D11",
";  c #41301F",
":  c #4A311F",
">  c #5E3215",
",  c #583318",
"<  c #633719",
"1  c #6C371C",
"2  c #66391B",
"3  c #723A1F",
"4  c #412F21",
"5  c #413022",
"6  c #493727",
"7  c #4C3823",
"8  c #4B3D2C",
"9  c #523727",
"0  c #5C3520",
"q  c #523E2B",
"w  c #5E3D2A",
"e  c #663A25",
"r  c #6B3F20",
"t  c #763D22",
"y  c #7B3F24",
"u  c #723F29",
"i  c #56412E",
"p  c #5B442A",
"a  c #474936",
"s  c #5D4630",
"d  c #5E4832",
"f  c #5A5439",
"g  c #585A3F",
"h  c #61432C",
"j  c #7F4126",
"k  c #624A33",
"l  c #7C4832",
"z  c #6E5136",
"x  c #6D5138",
"c  c #72563B",
"v  c #765A3D",
"b  c #7B5C3E",
"n  c #7D5E41",
"m  c #4E7D5D",
"M  c #7F6245",
"N  c #88462C",
"B  c #8C492E",
"V  c #834429",
"C  c #80522E",
"Z  c #824A34",
"A  c #8D4C33",
"S  c #954D32",
"D  c #8C5139",
"F  c #825C39",
"G  c #9A5035",
"H  c #96523A",
"J  c #9F553B",
"K  c #A3563B",
"L  c #AC5A3F",
"P  c #AD5B40",
"I  c #846445",
"U  c #8A6749",
"Y  c #8D6A4A",
"T  c #936D4C",
"R  c #996D4C",
"E  c #96714E",
"W  c #937351",
"Q  c #9C7552",
"!  c #A76447",
"~  c #B16144",
"^  c #BA6D4D",
"/  c #A2734D",
"(  c #AC714F",
")  c #A27B56",
"_  c #AB7B50",
"`  c #A57E59",
"'  c #A87F59",
"]  c #C67F59",
"[  c #A5815A",
"{  c #AB835C",
"}  c #B3865D",
"|  c #B9825A",
" . c #B2895F",
".. c #858361",
"X. c #818F6B",
"o. c #AD8962",
"O. c #B58C62",
"+. c #B98E63",
"@. c #BB9165",
"#. c #B7946B",
"$. c #BF9568",
"%. c #BB996F",
"&. c #BE9D72",
"*. c #C8815A",
"=. c #CF8F64",
"-. c #C49567",
";. c #CC9367",
":. c #C29669",
">. c #C59A6C",
",. c #C99C6D",
"<. c #D69568",
"1. c #C09F73",
"2. c #CB9F71",
"3. c #D5A26F",
"4. c #C4A275",
"5. c #CFA070",
"6. c #C6A579",
"7. c #C9A779",
"8. c #CBAA7C",
"9. c #D3A573",
"0. c #D7A976",
"q. c #DAAB77",
"w. c #DDAD79",
"e. c #D4AC7B",
"r. c #DBB17F",
"t. c #E4A876",
"y. c #E1AF7A",
"u. c #E6B47E",
"i. c #6ECEA2",
"p. c #D0AF80",
"a. c #D3B585",
"s. c #DFB682",
"d. c #DBBF8E",
"f. c #E9B780",
"g. c #E7B882",
"h. c #EBB981",
"j. c #E3BE8A",
"k. c #E9BF89",
"l. c #F1BE84",
"z. c #DCC08F",
"x. c #E6C48F",
"c. c #ECC38D",
"v. c #F5C187",
"b. c #F5C38A",
"n. c #F5C98F",
"m. c #E4C692",
"M. c #EEC790",
"N. c #E7C894",
"B. c #E7CC99",
"V. c #EBCA94",
"C. c #F4CC94",
"Z. c #EED29D",
"A. c #F5D097",
"S. c #F5D39B",
"D. c #F4D7A0",
"F. c #F5DAA3",
"G. c #F5D8A1",
"H. c #F5DDA6",
"J. c #F5DCA5",
/* pixels */
"                                                                                                                                ",
"                                                                                                                                ",
"                                                                                                                                ",
"                                                                                                                                ",
"                                                                                                                                ",
"                                                                                                                                ",
"                                                                                                                                ",
"                                                                                                                                ",
"                                                                                                                                ",
"                                                                                                                                ",
"                                                                                                                                ",
"                                                                                                                                ",
"                                                                        .                                                       ",
"                                                                        .                                                       ",
"                                                                        .             Q Q 8.H.H.1.                              ",
"                                                                      % X           e.&.` #.a.a.6.7.                            ",
"                                                                  L 1 = =         h.c.Z.#.) Q ' a.G.G.                          ",
"                                            S.v.v.v.v.v.v.t.~ L P L 1 = =         { ,.n.N.1.{ z.M.b.b.                          ",
"                                          S.j.,.,.,.,.,.;.*.P P ^ =. .F =         Q { 2.c.s.9.C.b.u.>.                          ",
"                                        D.k.5.Q Q Q Q / ! P P P ] v.m.[ ,         ' ` O.0.u.w.9.3.-.Q                           ",
"                                      D.b.:.)         P P P P       [ v s q.    H.#.%.B.O.) R r 2 2                             ",
"                                    C.k.:. .          L P K y       q 7 s w.C.S.C.@.&.D.r.+.R A B B               . .           ",
"                                    v.u.'             L J V - t     0 : q [ 7.j.v.+.&.G.b.,.R D J L               . .           ",
"                                  v.v.v.              P j - - A P P P l # O z O.l.+.&.G.b.,.U 6 Z L         . . .               ",
"                            v.v.v.v.9.O.                    S K P P P J A A | 9.O.p.x.n.v.,.U 6 9 w   5 @ .                     ",
"                              y.5.5.@.                      P L H Z K P P P <.g.4.8.8.9.c.r. .c M I   4 @ .                     ",
"                                Q Q                               5 Z K P P =.c.G.1.{ o.d.x.w.{ 9.$.5                           ",
"                                                              5 5 5 * u P P ( $.b.V.B.m.#.{ O.y.                                ",
"                                                            4 5 5 $ @ : e e h b :.4.6.6.2.,.-./ C                               ",
"                                                            5 5 5 5 5 + . . . * n )  .O.u.y.| < = =                             ",
"                                                        4 5 5 5 5 5 5 + . . . . O  .l.l.v._ > - = = =                           ",
"                                                    $ $ 5 5 5 5 # O O o . . . . . p c v         = = = =                         ",
"                                                  c k k 6 @ @ @ O . . . . . . . . . . .           = = = =                       ",
"                                                E E E E h O O . . . . . . . . . .                   = = - -                     ",
"                                            $ 5 q i i i x I I : . . . . . . .                         & 3 G L                   ",
"                                          5 # + + s W W I c c k g m f 7 . .                             N P P                   ",
"                                        # # ; 7 7 E v.v.[ s s n X.i...Y                                 P P P                   ",
"        5 $ $ $ $ $ $ $ $ $ $ $ $ $ $ # o o k q.q.u.v.v.f.w.w.M 8 a 8 8                             L L P P P                   ",
"          @ + # 5 5 5 5 5 5 5 # O O O O   I @.v.v.v.v.v.v.v.v.>.[ [ [ {                       P L P P P P                       ",
"            . @ # # # # # # # + . . . .   v.v.v.v.v.v.v.b.n.n.b.v.v.v.v.                      L P P P P                         ",
"              . . . . . . . . .           v.v.v.v.v.v.v.A.H.H.C.v.v.v.v.                      L P P L                           ",
"                                          v.v.v.v.v.v.v.S.H.H.S.C.v.v.v.                                                        ",
"                                          9.w.v.v.v.v.v.S.H.H.H.S.v.v.v.                                                        ",
"                                          Q +.v.v.v.v.v.S.H.H.H.S.v.v.v.                                                        ",
"                                          Q +.v.v.v.v.v.S.H.H.H.S.v.v.v.                                                        ",
"                                          Q { ,.f.v.v.v.n.S.H.H.S.v.v.v.                                                        ",
"                                          Q Q Q w.v.v.v.v.b.S.G.A.v.v.v.                                                        ",
"                                          Q Q Q w.v.v.v.v.v.b.b.v.v.v.v.                                                        ",
"                                          Q Q Q O.0.v.v.v.v.v.v.v.l.,.:.                                                        ",
"                                          Q Q Q Q :.v.v.v.v.v.v.h.0. .                                                          ",
"                                          Q Q Q Q :.v.v.v.v.v.v.0.Q                                                             ",
"                                          Q Q Q Q ' @.h.v.v.v.v.f.                                                              ",
"                                          Q Q Q Q Q ' u.v.v.v.w.9.                                                              ",
"                                          T T T Q Q ' w.h.h.h.+.Q                                                               ",
"                                          q q q I Q Q { { { {                                                                   ",
"                                          5 5 5 k I Q Q Q Q Q                                                                   ",
"                                        $ 5 5 5 $ k I I I I                                                                     ",
"                                        $ 5 5 $     6 6 6 6                                                                     ",
"                                          $ 5 $     5 5 5 $                                                                     ",
"                                            $ $     $ $ 5 5                                                                     ",
"                                              5       $ 5 5 5                                                                   ",
"                                                      $ 5 5 5 5                                                                 ",
"                                                        $ $ $ $                                                                 ",
"                                                                                                                                "
};
