/* XPM */
static char *run_s_4[] = {
/* columns rows colors chars-per-pixel */
"32 32 216 2 ",
"   c None",
".  c #281C0C",
"X  c #2A1C0C",
"o  c #2A1D0D",
"O  c #2B1D0E",
"+  c #2C1F0F",
"@  c #2F2110",
"#  c #2E2111",
"$  c #2F2111",
"%  c #302211",
"&  c #302213",
"*  c #302313",
"=  c #312313",
"-  c #312314",
";  c #322415",
":  c #332515",
">  c #342514",
",  c #362818",
"<  c #38291B",
"1  c #382A1B",
"2  c #392A1B",
"3  c #3A2A1C",
"4  c #3A2B1C",
"5  c #3D2D1E",
"6  c #3E2E20",
"7  c #3E2F20",
"8  c #3F2F20",
"9  c #3E2F21",
"0  c #3F2F21",
"q  c #3F3022",
"w  c #363D28",
"e  c #402F1E",
"r  c #452D1C",
"t  c #552A10",
"y  c #572B10",
"u  c #582C11",
"i  c #5A2D12",
"p  c #5B2F13",
"a  c #4D301C",
"s  c #49341F",
"d  c #643217",
"f  c #68341A",
"g  c #403022",
"h  c #493623",
"j  c #4C3722",
"k  c #533725",
"l  c #513B25",
"z  c #523C25",
"x  c #643E2A",
"c  c #793E23",
"v  c #46402A",
"b  c #55402D",
"n  c #56402D",
"m  c #58422E",
"M  c #5B4430",
"N  c #614830",
"B  c #654B31",
"V  c #664C32",
"C  c #634B34",
"Z  c #694F37",
"A  c #6B5035",
"S  c #6C5035",
"D  c #6E5236",
"F  c #6E5338",
"G  c #7F5037",
"H  c #70543A",
"J  c #77583C",
"K  c #75593E",
"L  c #7B583E",
"P  c #795B3E",
"I  c #7A5C3D",
"U  c #7D5D41",
"Y  c #5C7D5E",
"T  c #6C664A",
"R  c #7E6041",
"E  c #894B32",
"W  c #884F30",
"Q  c #934D31",
"!  c #954E33",
"~  c #8E5A3A",
"^  c #8B5D39",
"/  c #9D533B",
"(  c #A15439",
")  c #A0553C",
"_  c #A05A3D",
"`  c #A4583C",
"'  c #A9593D",
"]  c #AC5B3F",
"[  c #AD5B40",
"{  c #AE5B40",
"}  c #806041",
"|  c #8A6B4B",
" . c #936E4D",
".. c #95704E",
"X. c #96704E",
"o. c #97714F",
"O. c #997250",
"+. c #997350",
"@. c #9A7351",
"#. c #9B7451",
"$. c #9B7452",
"%. c #9C7552",
"&. c #9D7552",
"*. c #9D7652",
"=. c #9D7653",
"-. c #9F7754",
";. c #9E7954",
":. c #A46745",
">. c #A46446",
",. c #AE6647",
"<. c #B36446",
"1. c #B4684A",
"2. c #A37653",
"3. c #A27A56",
"4. c #A47C57",
"5. c #B47755",
"6. c #BC7753",
"7. c #A8805A",
"8. c #AB825B",
"9. c #AC835B",
"0. c #AA845C",
"q. c #AC845C",
"w. c #AF855D",
"e. c #AF865E",
"r. c #AF885F",
"t. c #B18054",
"y. c #B0865F",
"u. c #AD8861",
"i. c #B38960",
"p. c #B58B61",
"a. c #B68B62",
"s. c #B68C60",
"d. c #B08B64",
"f. c #B28C64",
"g. c #B28D65",
"h. c #BB9064",
"j. c #BB9065",
"k. c #BE9367",
"l. c #B8946A",
"z. c #B9946B",
"x. c #BF9468",
"c. c #BF9D72",
"v. c #C3976A",
"b. c #C69768",
"n. c #CA976C",
"m. c #C2996B",
"M. c #C3996B",
"N. c #C89D6E",
"B. c #CA9E6F",
"V. c #C39F73",
"C. c #C79F71",
"Z. c #CBA172",
"A. c #CBA173",
"S. c #CBA273",
"D. c #CAA274",
"F. c #C9A779",
"G. c #CBA779",
"H. c #CFA778",
"J. c #C2A87A",
"K. c #C9A87B",
"L. c #CCA97A",
"P. c #CFAD7E",
"I. c #D1A271",
"U. c #D1A373",
"Y. c #D3A372",
"T. c #D2A373",
"R. c #D2A472",
"E. c #D1A474",
"W. c #D4A775",
"Q. c #D8A876",
"!. c #D6AA79",
"~. c #D3AD7D",
"^. c #DEAD79",
"/. c #DFAE7A",
"(. c #E0A372",
"). c #E0AF7B",
"_. c #E0B07B",
"`. c #E4B37D",
"'. c #D4B282",
"]. c #D2B384",
"[. c #D8B281",
"{. c #DDB481",
"}. c #E1B682",
"|. c #E9B680",
" X c #E9B780",
".X c #ECB982",
"XX c #EFBC84",
"oX c #E6BF8A",
"OX c #F3BF86",
"+X c #E5C08C",
"@X c #E7C28D",
"#X c #F4C086",
"$X c #F5C187",
"%X c #F6C187",
"&X c #F5C188",
"*X c #F5C288",
"=X c #F5C389",
"-X c #F6C288",
";X c #F7C388",
":X c #F7C389",
">X c #F6C489",
",X c #F5C58C",
"<X c #F5C68C",
"1X c #F5C68D",
"2X c #F6C88E",
"3X c #EEC891",
"4X c #ECCC97",
"5X c #EECE98",
"6X c #F2C890",
"7X c #F5C990",
"8X c #F7CA91",
"9X c #F5CD95",
"0X c #F7CE96",
"qX c #F5D199",
"wX c #F5D69E",
"eX c #F5D7A0",
/* pixels */
"                                                                ",
"                                                                ",
"                                                                ",
"                                                                ",
"                                                                ",
"                                                                ",
"                                                                ",
"                                            d.c.].K.            ",
"                                [ Q u       [.l.G.3X            ",
"                        0X>X(.<.1.  y     u.C.!.W.U.            ",
"          ^.6X    oX~.U.W.U.6.` n.J.e   5XV.P.a.~ W             ",
"          i.{.4X@XA.7.3.  2._ c >.5.x C D.C.@Xx.G               ",
"            y.f.f.              ( / ( >.U.L.}.A.U P 0           ",
"                                  k E ,.E.'.G.A.v.;.            ",
"                                q 0 r a D l.H.b.^               ",
"    = , 1 0 q               g 0 0 4 = O = I s.t.u y y           ",
"        # : 4 0           Z h - = O O O O #       y u f         ",
"            # : 1 1 1 5 | 0.F j s v w O             d !         ",
"                  +   N R.XXr.J H T Y               ' ]         ",
"                      4.Q.;X.XN.m.m.N.          ] [ [           ",
"                    &.&.w._.#X;X;X7X2X#X          [             ",
"                    &.&.&.7.k.|.;X0XwX<X#X                      ",
"                  &.&.&.&.o.D h.#X<XeX0X;X#X                    ",
"                  &.&.&.&. .l R ^.;X7XqX;X#X                    ",
"                @.&.&.&.o.B # z w.^.#X<X;X|.                    ",
"          q 0 M o.&.&.@.A > > V @.w.).OX`.a.                    ",
"        g g q n   &.&.@.} J P     &.9.h.w.&.                    ",
"        g g           &.  -.        #.#.&.&.                    ",
"                                      #.o.@.                    ",
"                                        m n                     ",
"                                        0 q g                   ",
"                                          g                     "
};
