/* XPM */
static const char *cnVuXzc_[] = {
/* columns rows colors chars-per-pixel */
"64 64 157 2 ",
"   c #2A1D0D",
".  c #2E200F",
"X  c #2F2112",
"o  c #2E2A18",
"O  c #322415",
"+  c #3A2A17",
"@  c #362819",
"#  c #3B2B1C",
"$  c #3E2F21",
"%  c #3F3022",
"&  c #323521",
"*  c #44250F",
"=  c #572B0F",
"-  c #582C0F",
";  c #4D2E1B",
":  c #572B10",
">  c #592C11",
",  c #43311E",
"<  c #4C311D",
"1  c #5F3014",
"2  c #613116",
"3  c #69351A",
"4  c #6D3A1E",
"5  c #71391F",
"6  c #402F22",
"7  c #403022",
"8  c #493624",
"9  c #423D27",
"0  c #4C3822",
"q  c #513C2B",
"w  c #593A29",
"e  c #523C25",
"r  c #603926",
"t  c #653E2B",
"y  c #7B3F24",
"u  c #3B4E36",
"i  c #3C5139",
"p  c #57412C",
"a  c #5D452C",
"s  c #5C4531",
"d  c #724525",
"f  c #7E4126",
"g  c #7F452E",
"h  c #774928",
"j  c #634B34",
"k  c #6C4E33",
"l  c #714631",
"z  c #6D5239",
"x  c #63593E",
"c  c #73563B",
"v  c #77593D",
"b  c #785A3D",
"n  c #5C5841",
"m  c #6C5E41",
"M  c #7B5C41",
"N  c #4C7758",
"B  c #4B7B5B",
"V  c #547358",
"C  c #7F6245",
"Z  c #697A5A",
"A  c #88472C",
"S  c #8E4E36",
"D  c #81533A",
"F  c #9D5237",
"G  c #945139",
"H  c #9C5C3F",
"J  c #A4563C",
"K  c #A7583E",
"L  c #AC5B3F",
"P  c #805F41",
"I  c #AD5B40",
"U  c #846445",
"Y  c #886546",
"T  c #816949",
"R  c #8D6A4A",
"E  c #916D4C",
"W  c #9B6946",
"Q  c #95704E",
"!  c #9C7552",
"~  c #9E7853",
"^  c #A36344",
"/  c #A26B4B",
"(  c #B66D4C",
")  c #A27A55",
"_  c #A67956",
"`  c #BD7656",
"'  c #BF7A56",
"]  c #749F78",
"[  c #749A74",
"{  c #A7835C",
"}  c #AD835C",
"|  c #B28255",
" . c #B68558",
".. c #BE8E5F",
"X. c #899A73",
"o. c #AB8560",
"O. c #AD8962",
"+. c #B48C62",
"@. c #B98E63",
"#. c #BD9166",
"$. c #B5926A",
"%. c #B9956D",
"&. c #BC9A6F",
"*. c #BD9B70",
"=. c #C8825B",
"-. c #C29669",
";. c #CA9C6E",
":. c #C69768",
">. c #D0956B",
",. c #C09F73",
"<. c #CB9E70",
"1. c #C2A176",
"2. c #CCA172",
"3. c #C6A67A",
"4. c #C8A77A",
"5. c #CBAB7D",
"6. c #D2A372",
"7. c #D6A876",
"8. c #DAAA77",
"9. c #D0AE7F",
"0. c #DCAC79",
"q. c #DEB17C",
"w. c #E0AD77",
"e. c #E1AF7A",
"r. c #E3B27D",
"t. c #ECB77F",
"y. c #5BA882",
"u. c #6DDDAE",
"i. c #71E8B7",
"p. c #75F4C1",
"a. c #D3B383",
"s. c #D8B685",
"d. c #DDB986",
"f. c #DABE8D",
"g. c #E9B780",
"h. c #E7BA84",
"j. c #EDBB83",
"k. c #E0BD8A",
"l. c #F2BE85",
"z. c #ECC28C",
"x. c #F5C187",
"c. c #F5C48B",
"v. c #EFCB94",
"b. c #EECF99",
"n. c #F0C790",
"m. c #F5CB92",
"M. c #ECD29D",
"N. c #F5D097",
"B. c #F5D199",
"V. c #F5D59D",
"C. c #F5D39B",
"Z. c #F5DAA2",
"A. c #F3DBA4",
"S. c #F5DDA6",
"D. c #F5DBA4",
"F. c None",
"G. c black",
/* pixels */
"F.F.F.F.F.F.F.F.F.F.F.F.F.F.F.F.F.F.F.F.F.F.F.F.F.F.F.F.F.F.F.F.F.F.F.F.F.F.F.F.F.F.F.F.F.F.F.F.F.F.F.F.F.F.F.F.F.F.F.F.F.F.F.F.",
"F.F.F.F.F.F.F.F.F.F.F.F.F.F.F.F.F.F.F.F.F.F.F.F.F.F.F.F.F.F.F.F.F.F.F.F.F.F.F.F.F.F.F.F.F.F.F.F.F.F.F.F.F.F.F.F.F.F.F.F.F.F.F.F.",
"F.F.F.F.F.F.F.F.F.F.F.F.F.F.F.F.F.F.F.F.F.F.F.F.F.F.F.F.F.F.F.F.F.F.F.F.F.F.F.F.F.F.F.F.F.F.F.F.F.F.F.F.F.F.F.F.F.F.F.F.F.F.F.F.",
"F.F.F.F.F.F.F.F.F.F.F.F.F.F.F.F.F.F.F.F.F.F.F.F.F.F.F.F.F.F.F.F.F.F.F.F.F.F.F.F.F.F.F.F.F.F.F.F.F.F.F.F.F.F.F.F.F.F.F.F.F.F.F.F.",
"F.F.F.F.F.F.F.F.F.F.F.F.F.F.F.F.F.F.F.F.F.F.F.F.F.F.F.F.F.F.F.F.F.F.F.F.F.F.F.F.F.F.F.F.F.F.F.F.F.F.F.F.F.F.F.F.F.F.F.F.F.F.F.F.",
"F.F.F.F.F.F.F.F.F.F.F.F.F.F.F.F.F.F.F.F.F.F.F.F.F.F.F.F.F.F.F.F.F.F.F.F.F.F.F.F.F.F.F.F.F.F.F.F.F.F.F.F.F.F.F.F.F.F.F.F.F.F.F.F.",
"F.F.F.F.F.F.F.F.F.F.F.F.F.F.F.F.F.F.F.F.F.F.F.F.F.F.F.F.F.F.F.F.F.F.F.F.F.F.F.F.F.F.F.F.F.F.F.F.F.F.F.F.F.F.F.F.F.F.F.F.F.F.F.F.",
"F.F.F.F.F.F.F.F.F.F.F.F.F.F.F.F.F.F.F.F.F.F.F.F.F.F.F.F.F.F.F.F.F.F.F.F.F.F.F.F.  F.F.F.F.F.F.F.F.F.F.F.F.F.F.F.F.F.F.F.F.F.F.F.",
"F.F.F.F.F.F.F.F.F.F.F.F.F.F.F.F.F.F.F.F.F.F.F.F.F.F.F.F.F.F.F.F.F.F.F.F.F.F.F.F.  F.F.F.F.F.F.F.F.F.F.F.F.F.F.F.F.F.F.F.F.F.F.F.",
"F.F.F.F.F.F.F.F.F.F.F.F.F.F.F.F.F.F.F.F.F.F.F.F.F.F.F.F.F.F.F.F.F.F.F.F.F.F.F.F.  F.F.F.F.F.F.F.F.F.F.F.F.F.F.F.F.F.F.F.F.F.F.F.",
"F.F.F.F.F.F.F.F.F.F.F.F.F.F.F.F.F.F.F.F.F.F.F.F.F.F.F.F.F.F.F.F.F.F.F.F.F.F.F.F.  F.F.F.F.F.F.! ! %.S.S.a.! F.F.F.F.F.F.F.F.F.F.",
"F.F.F.F.F.F.F.F.F.F.F.F.F.F.F.F.F.F.F.F.F.F.F.F.F.F.F.F.F.F.F.F.F.F.F.F.F.I y : * F.F.F.F.F.j.a.+.{ 1.1.3.a.M.F.F.F.F.F.F.F.F.F.",
"F.F.F.F.F.F.F.F.F.F.F.F.F.F.F.F.F.F.F.F.F.F.F.F.F.F.F.F.F.F.F.F.F.F.F.F.F.I f : : F.F.F.F.F.r.B.5.O.! O.9.V.V.F.F.F.F.F.F.F.F.F.",
"F.F.F.F.F.F.F.F.F.F.F.F.F.F.F.F.F.F.F.F.F.F.F.F.F.F.F.F.F.F.F.F.F.F.I L L I f : : F.F.F.F.F.} j.B.f.! f.B.x.x.F.F.F.F.F.F.F.F.F.",
"F.F.F.F.F.F.F.F.F.F.F.F.F.F.F.F.F.F.F.Z.c.x.x.x.V.F.F.F.F.F.F.F.F.I I I I F.F.F.: F.F.F.F.F.) +.q.z.7.z.c.j.-.F.F.F.F.F.F.F.F.F.",
"F.F.F.F.F.F.F.F.F.F.F.F.F.F.F.F.F.F.f.a.6.6.6.6.z.V.F.F.F.F.F.F.I I I I I F.F.F.; F.F.F.F.$.) *.2.6.6... . .) F.F.F.F.F.F.F.F.F.",
"F.F.F.F.F.F.F.F.F.F.F.F.F.F.F.F.M.M.3.! ! ! ! ! 7.n.Z.F.F.F.F.L I I J J F.F.F.F.7 F.F.F.Z.4.O.M.1.) ! d 2 1 F.F.F.F.F.F.F.F.F.F.",
"F.F.F.F.F.F.F.F.F.F.F.F.F.F.x.7.O.O.o.F.F.F.F.F.} 2.m.Z.S.S.F.L I L y 3 F.F.F.O $ F.F.D.m.<.O.M.z.<.! H F F F.F.F.F.F.F.F.      ",
"F.F.F.F.F.F.F.F.F.F.F.F.F.F.F.F.F.F.F.F.F.F.F.F.F.+.;.4.k.B.D.` F f 2 5 L L g r 7 O T 5.j.;.O.M.m.7.! D S L F.F.F.F.F.    F.F.F.",
"F.F.F.F.F.F.F.F.F.F.F.F.F.F.F.F.F.F.F.F.F.F.F.F.F.F.! ! ;.h.V.>.^ h 4 A I I I G w ; k +.7.<.&.b.m.7.! s t G F.F.F.F.      F.F.F.",
"F.F.F.F.F.F.F.F.F.F.F.F.F.F.F.F.F.F.F.F.F.F.F.F.F.F.F.F.) @.l.l.t.e.( L I I I L J J ' t.+.4.M.c.x.7.! s 7 8 F.F.#   F.F.F.F.F.F.",
"F.F.F.F.F.F.F.F.F.F.F.F.F.F.F.F.F.F.F.F.F.F.F.F.F.F.F.F.F.} #.#.#.#._ / W l G I I I =.x.s.5.*.#.d.z.6.Q R { s F.F.F.F.F.F.F.F.F.",
"F.F.F.F.F.F.F.F.F.F.F.F.F.F.F.F.F.F.F.F.F.F.F.F.F.F.F.F.F.F.! ! ! ! ! R c 8 t S I I ' 0.v.s.%.%.5.s.7.-.;.r.j F.F.F.F.F.F.F.F.F.",
"F.F.F.F.F.F.F.F.F.F.F.F.F.F.F.F.F.F.F.F.F.F.F.F.F.F.F.F.F.F.F.F.F.F.F.F.7 7 O ; K L ^ ) e.m.A.A.,.! ~ 7.j.F.F.F.F.F.F.F.F.F.F.F.",
"F.F.F.F.F.F.F.F.F.F.F.F.F.F.F.F.F.F.F.F.F.F.F.F.F.F.F.F.F.F.F.F.F.F.6 7 7 7 # # ; ; < e ~ +.$.$.2.0.0.W d > F.F.F.F.F.F.F.F.F.F.",
"F.F.F.F.F.F.F.F.F.F.F.F.F.F.F.F.F.F.F.F.F.F.F.F.F.F.F.F.F.F.F.F.F.F.7 7 7 7 7 #       O a Q -.-.r.w.| d : : : F.F.F.F.F.F.F.F.F.",
"F.F.F.F.F.F.F.F.F.F.F.F.F.F.F.F.F.F.F.F.F.F.F.F.F.F.F.F.F.F.F.% 7 7 7 7 7 $ # @           U 7.7.g.:.: : : : : : F.F.F.F.F.F.F.F.",
"F.F.F.F.F.F.F.F.F.F.F.F.F.F.F.F.F.F.F.F.F.F.F.F.F.F.F.F.F.F.7 7 7 7 7 7 # O X             + 0 0 F.F.F.F.: : : : = F.F.F.F.F.F.F.",
"F.F.F.F.F.F.F.F.F.F.F.F.F.7 % % % % % % % % % 7 F.F.F.F.F.R c 8 O O O O O                   F.F.F.F.F.F.F.- : : : : F.F.F.F.F.F.",
"F.F.F.F.F.F.F.F.F.F.F.F.F.% 7 $ # # # # # # # 7 F.F.F.F.M Y Y a 9 u o                     F.F.F.F.F.F.F.F.F.: : > 3 f F.F.F.F.F.",
"F.F.F.F.F.F.F.F.F.F.% % % 7 7 @             O 7 % % % % 7 8 8 M X.u.u                 F.F.F.F.F.F.F.F.F.F.F.F.: 3 J L I F.F.F.F.",
"F.F.F.F.F.F.F.F.F.  O O O O O O F.F.F.F.F.F.X O O O , ) @.@.@.C n V m Z y.y.Z k F.F.F.F.F.F.F.F.F.F.F.F.F.F.F.F.F.L I L F.F.F.F.",
"F.F.F.F.F.F.F.F.F.            F.F.F.F.F.F.F.F.  j c U q.x.x.x.{ U C v ] p.p.[ b F.F.F.F.F.F.F.F.F.F.F.F.F.F.F.F.F.I I L F.F.F.F.",
"F.F.F.F.F.F.F.F.F.F.F.F.F.F.F.F.F.F.F.F.F.F.F.F.x.x.x.x.x.x.x.x.l.t.a B i.i.N 0 ! F.F.F.F.F.F.F.F.F.F.F.F.F.I I I I L I F.F.F.F.",
"F.F.F.F.F.F.F.F.F.F.F.F.F.F.F.F.F.F.F.F.F.F.F.x.x.x.x.x.x.x.x.x.0.} 8 & i i x Y ! ! F.F.F.F.F.F.F.F.F.L L I I I I F.F.F.F.F.F.F.",
"F.F.F.F.F.F.F.F.F.F.F.F.F.F.F.F.F.F.F.F.F.F.x.x.m.m.m.x.x.x.x.7.} z @       k ! ! ! ! F.F.F.F.F.F.F.F.L I I I I F.F.F.F.F.F.F.F.",
"F.F.F.F.F.F.F.F.F.F.F.F.F.F.F.F.F.F.F.F.F.x.x.c.V.S.Z.c.x.l.t.} c $ X     + c ! ! ! ! ! ! ! ! F.F.F.F.I L L L F.F.F.F.F.F.F.F.F.",
"F.F.F.F.F.F.7 F.F.F.F.F.F.F.F.F.F.x.x.x.x.x.m.Z.S.S.Z.c.x.r.} z 8 $ X   + P Q ! ! ! ! ! ! ! ! ! ! ! F.F.F.F.F.F.F.F.F.F.F.F.F.F.",
"F.F.F.F.F.7 6 7 F.F.F.F.F.x.x.x.x.x.x.c.N.B.V.S.B.m.m.x.7.@.! j # O     + R ! ! ! ! ! ! ! ! ! ! ! ! ! ! ! ! F.F.F.F.F.F.F.F.F.F.",
"F.F.F.F.% 7 7 7 6 F.F.F.F.x.x.x.x.x.x.c.Z.S.Z.V.c.x.l.r.@.Q U p @     + p E ! ! ! ! ! ! ! ! ! ! ! ! ! ! ! ! F.F.F.F.F.F.F.F.F.F.",
"F.F.F.7 % 7 7 7 7 q E 6.x.x.x.x.x.x.x.c.Z.S.V.x.x.x.g.} ! Y 8 7 @     a ! ! ! ! ! ! ! ! ! ! ! ! ! ! ! ! ! ! ! F.F.F.F.F.F.F.F.F.",
"F.F.7 7 7 7 F.7 7 q E } ;.x.x.x.x.x.x.x.m.m.c.x.;.@.+.) M p 7 @ X     a ! ! ! ! ! ! ! ! ! ! ! ! ! ! ! ! ! ! ! F.F.F.F.F.F.F.F.F.",
"F.F.% % % F.F.F.6 q E ! } 6.6.e.x.x.x.x.x.e.6.6.} ! Q b q @ @ X       a ! ! ! ! ! ! ! ! ! ! ! ! ! ! ! ! ! ! M j F.F.F.F.F.F.F.F.",
"F.F.F.F.F.F.F.F.F.q E ! ! ! ! #.j.j.j.j.j.#.! ! Q E U +             F.F.F.! ! ! ! ! ! ! ! ! ! ! ! ! ! ! ! E q 7 7 F.F.F.F.F.F.F.",
"F.F.F.F.F.F.F.F.F.F.F.! ! ! ! ) } } } } } ) ! ! a , # .           F.F.F.F.F.F.F.! ! ! ! ! ! ! ! ! ! ! ! ! E q 7 7 % F.F.F.% F.F.",
"F.F.F.F.F.F.F.F.F.F.F.F.! ! ! ! ! ! ! ! ! ! ! ! 8               F.F.F.F.F.F.F.F.F.! ! ! ! ! ! ! ! ! ! ! ! E q 7 7 7 % F.7 7 % F.",
"F.F.F.F.F.F.F.F.F.F.F.F.F.! ! ! ! ! ! ! ! F.F.F.F.F.F.F.F.F.F.F.F.F.F.F.F.F.F.F.F.F.F.F.F.F.F.! ! ! ! ! F.F.F.F.7 7 7 7 7 7 % F.",
"F.F.F.F.F.F.F.F.F.F.F.F.F.F.F.F.F.F.F.F.F.F.F.F.F.F.F.F.F.F.F.F.F.F.F.F.F.F.F.F.F.F.F.F.F.F.F.F.F.F.F.F.F.F.F.F.F.7 7 7 7 7 % F.",
"F.F.F.F.F.F.F.F.F.F.F.F.F.F.F.F.F.F.F.F.F.F.F.F.F.F.F.F.F.F.F.F.F.F.F.F.F.F.F.F.F.F.F.F.F.F.F.F.F.F.F.F.F.F.F.F.F.F.F.% % % F.F.",
"F.F.F.F.F.F.F.F.F.F.F.F.F.F.F.F.F.F.F.F.F.F.F.F.F.F.F.F.F.F.F.F.F.F.F.F.F.F.F.F.F.F.F.F.F.F.F.F.F.F.F.F.F.F.F.F.F.F.F.F.7 F.F.F.",
"F.F.F.F.F.F.F.F.F.F.F.F.F.F.F.F.F.F.F.F.F.F.F.F.F.F.F.F.F.F.F.F.F.F.F.F.F.F.F.F.F.F.F.F.F.F.F.F.F.F.F.F.F.F.F.F.F.F.F.F.F.F.F.F.",
"F.F.F.F.F.F.F.F.F.F.F.F.F.F.F.F.F.F.F.F.F.F.F.F.F.F.F.F.F.F.F.F.F.F.F.F.F.F.F.F.F.F.F.F.F.F.F.F.F.F.F.F.F.F.F.F.F.F.F.F.F.F.F.F.",
"F.F.F.F.F.F.F.F.F.F.F.F.F.F.F.F.F.F.F.F.F.F.F.F.F.F.F.F.F.F.F.F.F.F.F.F.F.F.F.F.F.F.F.F.F.F.F.F.F.F.F.F.F.F.F.F.F.F.F.F.F.F.F.F.",
"F.F.F.F.F.F.F.F.F.F.F.F.F.F.F.F.F.F.F.F.F.F.F.F.F.F.F.F.F.F.F.F.F.F.F.F.F.F.F.F.F.F.F.F.F.F.F.F.F.F.F.F.F.F.F.F.F.F.F.F.F.F.F.F.",
"F.F.F.F.F.F.F.F.F.F.F.F.F.F.F.F.F.F.F.F.F.F.F.F.F.F.F.F.F.F.F.F.F.F.F.F.F.F.F.F.F.F.F.F.F.F.F.F.F.F.F.F.F.F.F.F.F.F.F.F.F.F.F.F.",
"F.F.F.F.F.F.F.F.F.F.F.F.F.F.F.F.F.F.F.F.F.F.F.F.F.F.F.F.F.F.F.F.F.F.F.F.F.F.F.F.F.F.F.F.F.F.F.F.F.F.F.F.F.F.F.F.F.F.F.F.F.F.F.F.",
"F.F.F.F.F.F.F.F.F.F.F.F.F.F.F.F.F.F.F.F.F.F.F.F.F.F.F.F.F.F.F.F.F.F.F.F.F.F.F.F.F.F.F.F.F.F.F.F.F.F.F.F.F.F.F.F.F.F.F.F.F.F.F.F.",
"F.F.F.F.F.F.F.F.F.F.F.F.F.F.F.F.F.F.F.F.F.F.F.F.F.F.F.F.F.F.F.F.F.F.F.F.F.F.F.F.F.F.F.F.F.F.F.F.F.F.F.F.F.F.F.F.F.F.F.F.F.F.F.F.",
"F.F.F.F.F.F.F.F.F.F.F.F.F.F.F.F.F.F.F.F.F.F.F.F.F.F.F.F.F.F.F.F.F.F.F.F.F.F.F.F.F.F.F.F.F.F.F.F.F.F.F.F.F.F.F.F.F.F.F.F.F.F.F.F.",
"F.F.F.F.F.F.F.F.F.F.F.F.F.F.F.F.F.F.F.F.F.F.F.F.F.F.F.F.F.F.F.F.F.F.F.F.F.F.F.F.F.F.F.F.F.F.F.F.F.F.F.F.F.F.F.F.F.F.F.F.F.F.F.F.",
"F.F.F.F.F.F.F.F.F.F.F.F.F.F.F.F.F.F.F.F.F.F.F.F.F.F.F.F.F.F.F.F.F.F.F.F.F.F.F.F.F.F.F.F.F.F.F.F.F.F.F.F.F.F.F.F.F.F.F.F.F.F.F.F.",
"F.F.F.F.F.F.F.F.F.F.F.F.F.F.F.F.F.F.F.F.F.F.F.F.F.F.F.F.F.F.F.F.F.F.F.F.F.F.F.F.F.F.F.F.F.F.F.F.F.F.F.F.F.F.F.F.F.F.F.F.F.F.F.F.",
"F.F.F.F.F.F.F.F.F.F.F.F.F.F.F.F.F.F.F.F.F.F.F.F.F.F.F.F.F.F.F.F.F.F.F.F.F.F.F.F.F.F.F.F.F.F.F.F.F.F.F.F.F.F.F.F.F.F.F.F.F.F.F.F.",
"F.F.F.F.F.F.F.F.F.F.F.F.F.F.F.F.F.F.F.F.F.F.F.F.F.F.F.F.F.F.F.F.F.F.F.F.F.F.F.F.F.F.F.F.F.F.F.F.F.F.F.F.F.F.F.F.F.F.F.F.F.F.F.F."
};
