/* XPM */
static char *run_rev_4[] = {
/* columns rows colors chars-per-pixel */
"32 32 217 2 ",
"   c None",
".  c #281C0C",
"X  c #2A1C0C",
"o  c #2A1D0D",
"O  c #2B1D0E",
"+  c #2C1F0F",
"@  c #2F2110",
"#  c #2E2111",
"$  c #2F2111",
"%  c #302211",
"&  c #302213",
"*  c #302313",
"=  c #312313",
"-  c #312314",
";  c #322415",
":  c #332515",
">  c #342514",
",  c #362818",
"<  c #38291B",
"1  c #382A1B",
"2  c #392A1B",
"3  c #3A2A1C",
"4  c #3A2B1C",
"5  c #3D2D1E",
"6  c #3E2E20",
"7  c #3E2F20",
"8  c #3F2F20",
"9  c #3E2F21",
"0  c #3F2F21",
"q  c #3F3022",
"w  c #363D28",
"e  c #402F1E",
"r  c #452D1C",
"t  c #552A10",
"y  c #572B10",
"u  c #582B10",
"i  c #5A2D12",
"p  c #5B2F13",
"a  c #4D301C",
"s  c #49341F",
"d  c #643217",
"f  c #673419",
"g  c #403022",
"h  c #493623",
"j  c #4C3722",
"k  c #533725",
"l  c #503A25",
"z  c #523C25",
"x  c #643E2A",
"c  c #793E23",
"v  c #46402A",
"b  c #55402D",
"n  c #56402D",
"m  c #58422E",
"M  c #5B4430",
"N  c #614830",
"B  c #654B31",
"V  c #664D33",
"C  c #634B34",
"Z  c #684F37",
"A  c #6B5035",
"S  c #6C5035",
"D  c #6D5136",
"F  c #6E5338",
"G  c #7F5037",
"H  c #70543A",
"J  c #77583C",
"K  c #75593E",
"L  c #7B583E",
"P  c #795B3E",
"I  c #7A5C3D",
"U  c #7D5D41",
"Y  c #7E5F41",
"T  c #5C7D5E",
"R  c #6C664A",
"E  c #894B32",
"W  c #884F30",
"Q  c #934D31",
"!  c #954E33",
"~  c #8E5A3A",
"^  c #8B5D39",
"/  c #9D533B",
"(  c #A05439",
")  c #A0553C",
"_  c #A05A3D",
"`  c #A4583C",
"'  c #A9593D",
"]  c #AC5B3F",
"[  c #AD5B40",
"{  c #AE5B40",
"}  c #806041",
"|  c #8A6B4B",
" . c #936E4D",
".. c #95704E",
"X. c #96704E",
"o. c #97714F",
"O. c #997250",
"+. c #997350",
"@. c #9A7351",
"#. c #9B7451",
"$. c #9B7452",
"%. c #9C7552",
"&. c #9D7552",
"*. c #9D7652",
"=. c #9D7653",
"-. c #9F7754",
";. c #9F7953",
":. c #A46745",
">. c #A46446",
",. c #AD6647",
"<. c #B36446",
"1. c #B4684A",
"2. c #A37653",
"3. c #A27A56",
"4. c #A47C57",
"5. c #B47755",
"6. c #BC7753",
"7. c #A8805A",
"8. c #AB825B",
"9. c #AC835B",
"0. c #AA845C",
"q. c #AC845C",
"w. c #AF855D",
"e. c #AF865E",
"r. c #AF885F",
"t. c #B18054",
"y. c #B0865E",
"u. c #AD8861",
"i. c #B38960",
"p. c #B68B62",
"a. c #B68C60",
"s. c #B68C62",
"d. c #B08B64",
"f. c #B28C64",
"g. c #B28D65",
"h. c #BA8F64",
"j. c #BB9065",
"k. c #BE9367",
"l. c #B9946A",
"z. c #B9946B",
"x. c #BF9D72",
"c. c #C09468",
"v. c #C59768",
"b. c #CA976C",
"n. c #C2996B",
"m. c #C3996B",
"M. c #C49869",
"N. c #C89D6E",
"B. c #CA9E6F",
"V. c #C39F73",
"C. c #C79F71",
"Z. c #CBA172",
"A. c #CBA173",
"S. c #CAA274",
"D. c #CBA374",
"F. c #CBA779",
"G. c #CFA778",
"H. c #C2A87A",
"J. c #C9A87B",
"K. c #CAA87A",
"L. c #CDA97A",
"P. c #CFAD7E",
"I. c #D0A170",
"U. c #D1A273",
"Y. c #D1A373",
"T. c #D3A372",
"R. c #D1A472",
"E. c #D0A474",
"W. c #D4A775",
"Q. c #D7A875",
"!. c #D6AA79",
"~. c #D3AD7D",
"^. c #DEAD79",
"/. c #DFAE7A",
"(. c #E0A372",
"). c #E0AF7B",
"_. c #E0B07B",
"`. c #E4B37D",
"'. c #D4B282",
"]. c #D2B484",
"[. c #D8B281",
"{. c #DDB481",
"}. c #E2B783",
"|. c #E9B680",
" X c #E9B780",
".X c #ECB982",
"XX c #EFBC84",
"oX c #E7BF8A",
"OX c #F3BF86",
"+X c #F4BF86",
"@X c #E5C08C",
"#X c #E7C28D",
"$X c #F4C086",
"%X c #F5C187",
"&X c #F6C187",
"*X c #F5C188",
"=X c #F5C288",
"-X c #F5C389",
";X c #F6C288",
":X c #F7C388",
">X c #F6C389",
",X c #F7C389",
"<X c #F5C58B",
"1X c #F5C68C",
"2X c #F5C68D",
"3X c #F6C78D",
"4X c #F5C88F",
"5X c #EEC791",
"6X c #ECCC97",
"7X c #EECF98",
"8X c #F2C890",
"9X c #F7CA91",
"0X c #F5CD95",
"qX c #F7CD94",
"wX c #F5D098",
"eX c #F5D69E",
"rX c #F5D79F",
/* pixels */
"                                                                ",
"                                                                ",
"                                                                ",
"                                                                ",
"                                                                ",
"                                                                ",
"                                                                ",
"            J.].x.d.                                            ",
"            5XF.z.[.      i Q {                                 ",
"            U.W.!.C.u.    t   1.<.(.=X0X                        ",
"            W ~ s.P.V.7X  e H.b.` 6.U.W.U.~.oX    8X^.          ",
"              W c.@XC.S.C x 5.:.c _ 2.  3.8.Z.@X6X{.i.          ",
"          6 L U Z.}.L.U.:.) / (               g.g.y.            ",
"            ;.M.S.J.'.E.,.E k                                   ",
"              ^ v.G.z.S a r 6 q                                 ",
"          t t i t.s.I * . * 3 6 6 g               q 6 < , *     ",
"        f u t       @ . . . . * - h Z           6 3 - @         ",
"        ! d             . w v s j F 0.| 5 < < < - @             ",
"        ] '               T R H K r.XXR.N   +                   ",
"          { { ]           B.m.m.B..X=XQ.4.                      ",
"            {           %X2X9X=X=X%X).e.=.=.                    ",
"                      %X2XeX0X=X`.k.8.=.=.=.                    ",
"                    %X=X0XeX2X+Xh.S o.=.=.=.=.                  ",
"                    %X=XwX4X%X^.U l  .=.=.=.=.                  ",
"                     X=X<X%X^.q.z @ B o.=.=.=.O.                ",
"                    p.`.OX).e.O.V > > A O.=.=.o.M 6 q           ",
"                    =.e.j.9.=.    L K } O.=.=.  b q g g         ",
"                    =.=.$.$.        -.  =.          g g         ",
"                    O.o.$.                                      ",
"                    b m                                         ",
"                  g 6 6                                         ",
"                    q                                           "
};
