/* XPM */
static char *run_s_2[] = {
/* columns rows colors chars-per-pixel */
"32 32 205 2 ",
"   c None",
".  c #291C0C",
"X  c #2A1C0C",
"o  c #2A1D0D",
"O  c #2A1E0E",
"+  c #2B1E0E",
"@  c #2F2110",
"#  c #2D2211",
"$  c #2F2213",
"%  c #2B2413",
"&  c #302110",
"*  c #322412",
"=  c #322414",
"-  c #322415",
";  c #332416",
":  c #342515",
">  c #342617",
",  c #362718",
"<  c #39291A",
"1  c #3D2D1A",
"2  c #3B2C1C",
"3  c #3C2C1C",
"4  c #3C2C1E",
"5  c #3D2D1F",
"6  c #3D2E20",
"7  c #3F2F20",
"8  c #3E2F21",
"9  c #3F2F22",
"0  c #3F3022",
"q  c #572A10",
"w  c #572B10",
"e  c #592C11",
"r  c #5A2C11",
"t  c #4A301F",
"y  c #633116",
"u  c #66341A",
"i  c #403022",
"p  c #413022",
"a  c #463525",
"s  c #4A3620",
"d  c #4A3827",
"f  c #4C3826",
"g  c #4C3927",
"h  c #493828",
"j  c #4D3A28",
"k  c #4C3A29",
"l  c #593623",
"z  c #693C27",
"x  c #633D2B",
"c  c #773C21",
"v  c #59432F",
"b  c #5E462E",
"n  c #5F4732",
"m  c #734626",
"M  c #7D4126",
"N  c #794C2B",
"B  c #684430",
"V  c #674C32",
"C  c #664C33",
"Z  c #674D33",
"A  c #684D33",
"S  c #6E5237",
"D  c #665439",
"F  c #705437",
"G  c #73563B",
"H  c #7D593C",
"J  c #7B5B40",
"K  c #7C5F42",
"L  c #4B6348",
"P  c #83472A",
"I  c #8F4A2F",
"U  c #874E35",
"Y  c #894B34",
"T  c #934D35",
"R  c #965135",
"E  c #9E5339",
"W  c #9E553B",
"Q  c #A3553A",
"!  c #A5563B",
"~  c #A6573C",
"^  c #A7583E",
"/  c #A9593E",
"(  c #AA593E",
")  c #AC5A3F",
"_  c #96613D",
"`  c #8F5E41",
"'  c #AD5B40",
"]  c #AE5B40",
"[  c #B05F43",
"{  c #866445",
"}  c #866545",
"|  c #866447",
" . c #876547",
".. c #876647",
"X. c #8A6747",
"o. c #886648",
"O. c #876C4C",
"+. c #886949",
"@. c #88694A",
"#. c #926D4D",
"$. c #9D6C4B",
"%. c #96704F",
"&. c #96724F",
"*. c #837B59",
"=. c #987250",
"-. c #9A7351",
";. c #9A7451",
":. c #9B7451",
">. c #9B7452",
",. c #9B7552",
"<. c #9C7552",
"1. c #9D7552",
"2. c #9E7753",
"3. c #9F7754",
"4. c #9F7854",
"5. c #9E7B57",
"6. c #A7764F",
"7. c #A17955",
"8. c #A57C57",
"9. c #A57D58",
"0. c #A47E58",
"q. c #AA815B",
"w. c #AB835C",
"e. c #AE855D",
"r. c #B08257",
"t. c #B08960",
"y. c #B58A61",
"u. c #B78E64",
"i. c #BA8A60",
"p. c #B88E63",
"a. c #BA8F64",
"s. c #BB9065",
"d. c #BC9166",
"f. c #BF9367",
"g. c #B49168",
"h. c #BC966C",
"j. c #BC986D",
"k. c #BF996D",
"l. c #C89767",
"z. c #C3976A",
"x. c #C4976A",
"c. c #C4986B",
"v. c #C39A6D",
"b. c #C99C6D",
"n. c #CB9D6E",
"m. c #CB9E6F",
"M. c #CC9D6E",
"N. c #CC9E6F",
"B. c #CC9F6F",
"V. c #D29B6D",
"C. c #C09E73",
"Z. c #C69D70",
"A. c #C99E70",
"S. c #C4A174",
"D. c #C4A276",
"F. c #CCA172",
"G. c #CCA576",
"H. c #CBA77A",
"J. c #CAA879",
"K. c #CCA87A",
"L. c #D4A573",
"P. c #DAAA77",
"I. c #D5AA79",
"U. c #D3AC7B",
"Y. c #DCAE7B",
"T. c #DFAE7A",
"R. c #D8AE7C",
"E. c #D9B17F",
"W. c #DBB17F",
"Q. c #E7B57F",
"!. c #D9B685",
"~. c #D9B887",
"^. c #DEBB89",
"/. c #E5B882",
"(. c #E3BB87",
"). c #EAB880",
"_. c #EBB981",
"`. c #EDBA82",
"'. c #EFBC83",
"]. c #EBBE87",
"[. c #E3BC88",
"{. c #F0BA82",
"}. c #F1BE85",
"|. c #F3BF86",
" X c #DFC492",
".X c #E8C18B",
"XX c #F3C086",
"oX c #F5C187",
"OX c #F6C187",
"+X c #F5C287",
"@X c #F6C287",
"#X c #F2C088",
"$X c #F4C188",
"%X c #F5C288",
"&X c #F4C289",
"*X c #F6C288",
"=X c #F6C389",
"-X c #F6C58C",
";X c #EBC690",
":X c #EEC993",
">X c #F5CE95",
",X c #F6D29A",
"<X c #F6D59D",
"1X c #F5D69F",
"2X c #F6D7A0",
/* pixels */
"                                                                ",
"                                                                ",
"                                                                ",
"                                                                ",
"                                                                ",
"                                                                ",
"                                            g. X                ",
"                                Q u       W.k.C.^.              ",
"                              ] ( y     0.v.W.R./.              ",
"                `.          ( !         D.D.Z.6._               ",
"                m..X      ( I c E l k J.I.~.I.` T               ",
"                  F.(.      P R ^ W U i.G.[.T.J B     +         ",
"                    h.      M.$.x Y [ V.!.H.U.u.4.              ",
"                      c.m.m.0.h 9 t z H k.K.A.r.N               ",
"                            k 9 3 , + & F p.l.m w w             ",
"                          g 2 3 > $ + + *       w w r           ",
"                        s.G C A D L % +           r M           ",
"                      @X_.t.+.+.O.*.                ~ ]         ",
"                    M.XX@X|._.].;X:X<X          ] ] ]           ",
"                3 g w.`.*X@X@X-X,X2X<X>X*X@X    ) ]             ",
"    9 9 9   9 3 < b &.x.`.|.@X@X*X#X*X*X@X@X@X{.                ",
"    > ; ; ; ; $ C ;.;.4.y.f.T.Q.z.a.L._.'.*X|._.                ",
"                ;.1.1.1.;.X.| K n   8.q.f.P.M.e.                ",
"                1.1.1.-.| s ; 9       1.1.7.3.;.                ",
"                1.1.-.C 1 + +         | | o.&.                  ",
"              1.1.1.;.S $             a a d                     ",
"              #.1.1.1.;.            i 0 9                       ",
"              v |                   i i                         ",
"            i i                       0                         ",
"          i i i                                                 ",
"            i i                                                 ",
"                                                                "
};
