/* XPM */
static char *run_rev_s_5[] = {
/* columns rows colors chars-per-pixel */
"32 32 161 2 ",
"   c None",
".  c #2A1D0C",
"X  c #2B1D0C",
"o  c #2A1C0D",
"O  c #2A1D0D",
"+  c #2C1F0F",
"@  c #2F2212",
"#  c #302211",
"$  c #312413",
"%  c #332515",
"&  c #352717",
"*  c #352718",
"=  c #392919",
"-  c #3B2B1D",
";  c #3B2C1D",
":  c #3E2C1D",
">  c #3D2D1F",
",  c #3E321D",
"<  c #3E2E20",
"1  c #3F3021",
"2  c #3E3121",
"3  c #3F3022",
"4  c #3F3023",
"5  c #482B19",
"6  c #572B10",
"7  c #592C12",
"8  c #5A2E12",
"9  c #613116",
"0  c #623518",
"q  c #6D371C",
"w  c #402F22",
"e  c #403021",
"r  c #403022",
"t  c #413022",
"y  c #453220",
"u  c #493727",
"i  c #4D3A28",
"p  c #523A24",
"a  c #3E442D",
"s  c #56402E",
"d  c #5A432A",
"f  c #784024",
"g  c #7E4126",
"h  c #75432D",
"j  c #77422C",
"k  c #664D36",
"l  c #684D33",
"z  c #6C4F37",
"x  c #6D5239",
"c  c #7E573D",
"v  c #745A3F",
"b  c #785A3E",
"n  c #695B42",
"m  c #7B5C41",
"M  c #7A5E41",
"N  c #7D5F43",
"B  c #60795C",
"V  c #914B31",
"C  c #944D31",
"Z  c #8A593A",
"A  c #9B543B",
"S  c #9C543A",
"D  c #9D553B",
"F  c #A3553B",
"G  c #A7583E",
"H  c #AA593E",
"J  c #AA593F",
"K  c #AC5A3E",
"L  c #AD5B3E",
"P  c #AC5B40",
"I  c #AD5B40",
"U  c #AC5B41",
"Y  c #AE5B40",
"T  c #816044",
"R  c #8D6D4D",
"E  c #956746",
"W  c #96714F",
"Q  c #9C7552",
"!  c #9D7553",
"~  c #9C7652",
"^  c #9C7653",
"/  c #9E7754",
"(  c #A07249",
")  c #A17955",
"_  c #A27A55",
"`  c #A67955",
"'  c #A88059",
"]  c #AB825B",
"[  c #AA845C",
"{  c #AF855D",
"}  c #B38B5F",
"|  c #AE8C63",
" . c #AF8B64",
".. c #B38860",
"X. c #B08A61",
"o. c #B18B61",
"O. c #B48A60",
"+. c #B68B61",
"@. c #B48B63",
"#. c #B68D62",
"$. c #B78D63",
"%. c #B28E67",
"&. c #B88C63",
"*. c #BA9267",
"=. c #B69168",
"-. c #BD976C",
";. c #BE9E71",
":. c #BF9D72",
">. c #CA845D",
",. c #C09467",
"<. c #C79765",
"1. c #C39669",
"2. c #C99569",
"3. c #C69A6B",
"4. c #C89B6C",
"5. c #CC9D6F",
"6. c #D29C6D",
"7. c #C5A275",
"8. c #CEA171",
"9. c #CEA271",
"0. c #C7A77A",
"q. c #C9A779",
"w. c #D0A271",
"e. c #D6A674",
"r. c #D7A775",
"t. c #D8A876",
"y. c #DDAD78",
"u. c #DEB07C",
"i. c #DFB17D",
"p. c #E2B17C",
"a. c #E6B57E",
"s. c #D5B281",
"d. c #D4B687",
"f. c #DFB683",
"g. c #DABC8B",
"h. c #E1B580",
"j. c #E2B580",
"k. c #E8B680",
"l. c #E8B983",
"z. c #EDBB82",
"x. c #E6BF8A",
"c. c #EABF89",
"v. c #F0BD84",
"b. c #F1BE85",
"n. c #E5C18D",
"m. c #ECC18A",
"M. c #EBC58F",
"N. c #F4C086",
"B. c #F5C187",
"V. c #E0C591",
"C. c #EBC791",
"Z. c #EEC992",
"A. c #EFCA92",
"S. c #F5C990",
"D. c #F5CA91",
"F. c #F5CF97",
"G. c #F6D098",
"H. c #F5D39B",
"J. c #F5D49C",
"K. c #F5D69E",
"L. c #F5D69F",
/* pixels */
"                                                                ",
"                                                                ",
"                                                                ",
"                                                                ",
"                                                                ",
"                                                                ",
"                                                                ",
"              ;.V. .=.                                          ",
"            G.C.%.;.x.      9 H                                 ",
"            @.y.u.h.@.          I I       m.k.Z.                ",
"              f Z *.d.s.        C H     M.#.) 3.Z.              ",
"        O     A c u.g.e.| = h H q g >.c.#.      &.              ",
"          $   z N h.f.7.6.S G S F E ` '                         ",
"              w.4.q.0.n.2.I h t                                 ",
"              0 ( t.-.[ p 5 : t w                               ",
"            6 6 8 <.} d O O * ; t w                             ",
"          8 6         O O O O + % y m s                         ",
"        K V               O , a l b v m x                       ",
"        I I K               n B R o.N.o.m & < 2 2 2 2 2 2       ",
"            I I             8.8.l.N.N.N.a.  @ # - : : : *       ",
"              I             N.N.G.D.N.N.N.      O O O O         ",
"                            N.N.L.L.N.N.N.                      ",
"                            N.N.F.L.N.N.z.                      ",
"                            5.N.N.D.N.N.e.                      ",
"                            / ,.v.N.N.p.'                       ",
"                              ^ 1.v.N.{ ^                       ",
"                                ^ o.@.) W                       ",
"                                ^ ^ ^ T u                       ",
"                                  k k i 2 t                     ",
"                                  2 2   2                       ",
"                                w t                             ",
"                                                                "
};
