/* XPM */
static char *run_s_6[] = {
/* columns rows colors chars-per-pixel */
"32 32 213 2 ",
"   c None",
".  c #291C0C",
"X  c #291D0D",
"o  c #2A1D0D",
"O  c #2C1F10",
"+  c #2E2010",
"@  c #302111",
"#  c #312312",
"$  c #312313",
"%  c #332413",
"&  c #322314",
"*  c #322414",
"=  c #332515",
"-  c #342515",
";  c #302917",
":  c #392917",
">  c #352718",
",  c #3B2B18",
"<  c #392A1B",
"1  c #3C2C19",
"2  c #392B1C",
"3  c #3C2C1D",
"4  c #3C2D1E",
"5  c #3E2E1F",
"6  c #3E2F20",
"7  c #3F2F21",
"8  c #3F2F22",
"9  c #3F3022",
"0  c #562A0F",
"q  c #572B10",
"w  c #572B11",
"e  c #603015",
"r  c #65371A",
"t  c #402F21",
"y  c #403022",
"u  c #423123",
"i  c #453423",
"p  c #463525",
"a  c #473525",
"s  c #4A3625",
"d  c #4F3A26",
"f  c #4B3828",
"g  c #4D3928",
"h  c #553420",
"j  c #503C2A",
"k  c #6B3F28",
"l  c #693F2C",
"z  c #58432F",
"x  c #5F402C",
"c  c #5F5036",
"v  c #7E4126",
"b  c #634A31",
"n  c #654B32",
"m  c #674E37",
"M  c #6D4E36",
"N  c #714933",
"B  c #6A5037",
"V  c #695038",
"C  c #77583D",
"Z  c #77593E",
"A  c #785A3F",
"S  c #7B5D3D",
"D  c #4A7558",
"F  c #686A4D",
"G  c #6C6E4F",
"H  c #834428",
"J  c #844529",
"K  c #8B482D",
"L  c #895137",
"P  c #835937",
"I  c #8B553A",
"U  c #985137",
"Y  c #965038",
"T  c #9F5338",
"R  c #9E5B3C",
"E  c #A7583C",
"W  c #A7583D",
"Q  c #A55C3F",
"!  c #A8593E",
"~  c #AC5A3F",
"^  c #AD5A3F",
"/  c #AD5B3F",
"(  c #955E41",
")  c #AD5B40",
"_  c #816142",
"`  c #886647",
"'  c #866748",
"]  c #896748",
"[  c #826B4C",
"{  c #8B6948",
"}  c #896A48",
"|  c #8D6C4A",
" . c #9B6842",
".. c #9F6C47",
"X. c #91704F",
"o. c #94724E",
"O. c #96724F",
"+. c #987250",
"@. c #9D7351",
"#. c #9C7552",
"$. c #9D7652",
"%. c #9D7653",
"&. c #9B7A55",
"*. c #9C7954",
"=. c #9F7854",
"-. c #947C59",
";. c #9C7C59",
":. c #A66446",
">. c #A96044",
",. c #AA6044",
"<. c #AC6A4B",
"1. c #B56648",
"2. c #B96C4C",
"3. c #A8784E",
"4. c #A87A56",
"5. c #A67E59",
"6. c #A87F59",
"7. c #B97C56",
"8. c #77815E",
"9. c #A6805A",
"0. c #A8835C",
"q. c #AB835C",
"w. c #B48457",
"e. c #B1875F",
"r. c #B2885F",
"t. c #938662",
"y. c #AF8760",
"u. c #B28960",
"i. c #B08A61",
"p. c #B58B61",
"a. c #B48C62",
"s. c #BB8F65",
"d. c #BD9266",
"f. c #B7936A",
"g. c #BE9468",
"h. c #BC976C",
"j. c #C19668",
"k. c #C6996B",
"l. c #C59A6D",
"z. c #C79C6E",
"x. c #C89C6E",
"c. c #C89D6F",
"v. c #DC9D6E",
"b. c #C09C70",
"n. c #C89D70",
"m. c #C89F71",
"M. c #C1A073",
"N. c #C6A275",
"B. c #CCA171",
"V. c #CAA577",
"C. c #CEA676",
"Z. c #C5A579",
"A. c #C9A678",
"S. c #CCA779",
"D. c #CEA97A",
"F. c #CEAA7B",
"G. c #D1A372",
"H. c #D1A373",
"J. c #D3A473",
"K. c #D0A777",
"L. c #D6A674",
"P. c #D6A775",
"I. c #DAAB77",
"U. c #DDA876",
"Y. c #D5AC7A",
"T. c #D1AC7C",
"R. c #D1AF7F",
"E. c #DAAB7A",
"W. c #DBAD79",
"Q. c #DCAD78",
"!. c #DEB37F",
"~. c #E0B07B",
"^. c #E1B27D",
"/. c #E6B57E",
"(. c #E7B57E",
"). c #70AA82",
"_. c #78BC91",
"`. c #DDB683",
"'. c #D9BC8B",
"]. c #E6B781",
"[. c #E3B884",
"{. c #EAB881",
"}. c #ECB981",
"|. c #EFBC84",
" X c #E2BE8A",
".X c #E8BE88",
"XX c #F2BE85",
"oX c #F3BF86",
"OX c #E7C08B",
"+X c #E7C18C",
"@X c #E7C48F",
"#X c #E8C18B",
"$X c #EAC08A",
"%X c #F3C086",
"&X c #F4C087",
"*X c #F5C187",
"=X c #F6C187",
"-X c #F0C188",
";X c #F4C288",
":X c #F5C288",
">X c #F6C288",
",X c #F5C58B",
"<X c #F5C68D",
"1X c #E8C792",
"2X c #F1C891",
"3X c #F5C990",
"4X c #F5CB92",
"5X c #F6CB92",
"6X c #F4CC94",
"7X c #F5D29A",
"8X c #F5D59E",
"9X c #F6D7A0",
"0X c #F5DAA3",
/* pixels */
"                                                                ",
"                                                                ",
"                                                                ",
"                                                                ",
"                                                                ",
"                                                                ",
"                                              Z.'.              ",
"                          .XI.U.v.R q       R.f.A.@X            ",
"                        #Xz.4.<.1.7.P     y.K.Y.!.^.            ",
"                      OXB.  ^ W Q d.X.M.6Xb.V.d... .            ",
"                    +Xc.    W H J L x ;.`.m. Xg.I               ",
"              1X].[.n.        v T ! Y ( c.F.#Xl.M N             ",
"              h.u.p.              l U 2.E.R.F.C.a.&.            ",
"                                9 4 h k } N.S.k.3.              ",
"                            j u t 4 = o : | j.w.r 0             ",
"                          ' B i 2 # o o o 1       q q           ",
"                        *Xq.Z F G c ; o o           e K         ",
"                    9.oX*X~.=.-.t._.).                ^ )       ",
"                  m W.3X3X>X|./.[ D 8.#.  #.      ^ ) )         ",
"              7 z u.2X0X7X>X%XG.V + b #.#.#.#.@.:.,.,.          ",
"            7 4 } -X9X8X<XoXJ.O.d O n #.#.#.#.#.@.@.            ",
"          7 > = o.>X3X,XoXJ.6.Z - , _ #.#.#.#.#.#.#.#.          ",
"        u < # S Q.*X*XoXG.5.  s & %     #.#.#.#.#.#.#.          ",
"              }.*X>XoXL.6.    # +         #.#.#.#.#.#.          ",
"              >X*X/.L.      o o o           ` ` ] +.            ",
"              {.G.r.          o             p p f               ",
"            q.e.=.                        u u 7                 ",
"            g A                           u u                   ",
"          u u                               9                   ",
"          u u                                                   ",
"          u u                                                   ",
"                                                                "
};
