/* XPM */
static char *run_rev_3[] = {
/* columns rows colors chars-per-pixel */
"32 32 205 2 ",
"   c None",
".  c #291C0C",
"X  c #2A1D0D",
"o  c #2B1E0E",
"O  c #2C1F0E",
"+  c #2D1F0F",
"@  c #2C1F10",
"#  c #2E2111",
"$  c #312111",
"%  c #312212",
"&  c #302213",
"*  c #352513",
"=  c #322414",
"-  c #332415",
";  c #332515",
":  c #362615",
">  c #342617",
",  c #372819",
"<  c #3B2B18",
"1  c #392A1B",
"2  c #3E2C1A",
"3  c #3A2B1C",
"4  c #3B2B1C",
"5  c #3A2B1D",
"6  c #3F2E1E",
"7  c #3E2E20",
"8  c #3E2F21",
"9  c #3F2F21",
"0  c #3F3022",
"q  c #562B10",
"w  c #572B10",
"e  c #5B2F13",
"r  c #44321D",
"t  c #46331E",
"y  c #47341F",
"u  c #67331A",
"i  c #6C371C",
"p  c #403021",
"a  c #403022",
"s  c #413122",
"d  c #493727",
"f  c #4B3826",
"g  c #4D3924",
"h  c #4C3928",
"j  c #4F3B29",
"k  c #553623",
"l  c #513B25",
"z  c #513B26",
"x  c #523C26",
"c  c #523D29",
"v  c #55402D",
"b  c #57412D",
"n  c #5E4630",
"m  c #674D35",
"M  c #6D4D31",
"N  c #6A4F35",
"B  c #704630",
"V  c #774833",
"C  c #6D5335",
"Z  c #6C5138",
"A  c #70553B",
"S  c #71553B",
"D  c #73563A",
"F  c #76543A",
"G  c #72563D",
"H  c #70583D",
"J  c #77593E",
"K  c #765B3F",
"L  c #785A3E",
"P  c #785A3F",
"I  c #7A5C3E",
"U  c #7C5D41",
"Y  c #7F5F43",
"T  c #824228",
"R  c #85482C",
"E  c #864A2D",
"W  c #804933",
"Q  c #844931",
"!  c #8E4B31",
"~  c #924F37",
"^  c #895736",
"/  c #9A5136",
"(  c #945138",
")  c #9F563A",
"_  c #A6573C",
"`  c #AC5A3F",
"'  c #AC5B3F",
"]  c #AD5B3F",
"[  c #91633D",
"{  c #AD5B40",
"}  c #AE5B40",
"|  c #AD5D41",
" . c #886446",
".. c #886647",
"X. c #896747",
"o. c #8D6A4A",
"O. c #8E6B4A",
"+. c #966646",
"@. c #976848",
"#. c #906C4C",
"$. c #936E4D",
"%. c #96704E",
"&. c #96714E",
"*. c #9A7351",
"=. c #9A7451",
"-. c #9B7451",
";. c #987552",
":. c #9C7552",
">. c #9D7552",
",. c #9D7652",
"<. c #9D7653",
"1. c #9E7653",
"2. c #9D7955",
"3. c #9F7854",
"4. c #B46648",
"5. c #B46849",
"6. c #A17D56",
"7. c #AF7F54",
"8. c #A67E58",
"9. c #A77F5A",
"0. c #AA8059",
"q. c #A8805A",
"w. c #A9805A",
"e. c #AB825B",
"r. c #AE855D",
"t. c #AF865E",
"y. c #B18257",
"u. c #B48C63",
"i. c #B68E63",
"p. c #B08C65",
"a. c #BF9163",
"s. c #BD9166",
"d. c #BE9267",
"f. c #BF9367",
"g. c #B59269",
"h. c #B89369",
"j. c #BF9D73",
"k. c #C19366",
"l. c #C1976A",
"z. c #CD9068",
"x. c #C29A6C",
"c. c #CD996D",
"v. c #C99C6E",
"b. c #D3986B",
"n. c #CB9F70",
"m. c #DC9F70",
"M. c #C7A275",
"N. c #C9A173",
"B. c #CEA373",
"V. c #C8A274",
"C. c #CBA374",
"Z. c #C9A476",
"A. c #CEA474",
"S. c #C7A578",
"D. c #CAAA7D",
"F. c #CFAE7F",
"G. c #D2A372",
"H. c #D3A473",
"J. c #D1A674",
"K. c #DAAA77",
"L. c #D1AA79",
"P. c #D0AB7A",
"I. c #D7AC7A",
"U. c #D3AD7C",
"Y. c #D5AE7D",
"T. c #D6AE7D",
"R. c #D4AF7F",
"E. c #DBAB78",
"W. c #DAB27F",
"Q. c #E1B07B",
"!. c #E6B47E",
"~. c #E8B67F",
"^. c #D0B081",
"/. c #D6B281",
"(. c #DBB481",
"). c #D8B684",
"_. c #DBB785",
"`. c #E1B681",
"'. c #EFB780",
"]. c #E5BC86",
"[. c #E9B880",
"{. c #EBB881",
"}. c #ECBA82",
"|. c #F2BE85",
" X c #F2BF85",
".X c #F3BF86",
"XX c #EAC18B",
"oX c #EBC28B",
"OX c #F4C187",
"+X c #F5C187",
"@X c #F6C287",
"#X c #F5C288",
"$X c #F5C389",
"%X c #F6C288",
"&X c #F7C388",
"*X c #F6C489",
"=X c #F5C68C",
"-X c #F5C88F",
";X c #F5C98F",
":X c #E0C390",
">X c #E7CD99",
",X c #F5C990",
"<X c #F6D097",
"1X c #F6D9A0",
"2X c #F6DBA2",
/* pixels */
"                                                                ",
"                                                                ",
"                                                                ",
"                                                                ",
"                                                                ",
"            >Xp.                                                ",
"          ^.j.g.Y.      u                                       ",
"        ].XXN.Y.C.      ^ 5.}                                   ",
"          7.a.A.h.S.  M x.m.4.}                                 ",
"X         ! +.U.F.W._.H F   E ) z.                              ",
"          V  .`._.B.0.B ~ _ T E c.XX                            ",
"          ;.u.(.M./.b.| ( V       n.}.                          ",
"          y.k.C.D.Z.@.Q k 8         v.I.:X                      ",
"          e [ H.l.I * $ 4 a a         8.                        ",
"        w w     C < X X # > 4 4 f                               ",
"      i w           X O t l x x N K h 0 0 8 < , , , - 4         ",
"    ] /               t Z S A S 2.u.K 4 > - O X   X X - $       ",
"    ] } }             #XY.P.P.J.{.&X6.g                         ",
"        } ]         +X,X1X1X<X*X#X~.t.%.>.                      ",
"            '.+X+X+X+X=X;X;X#X+X+XH.6.>.>.>.>.>.>.      a a     ",
"            !.+X+X+X+X.X.X.X.X.XK.0.*.$.Y P P  .>.>.$.j 8 a a   ",
"          o.t.Q.{.{.K.s.s.s.s.t.%.m n b a 6 c  .>.>.$.b         ",
"          d Y 0.0.0.8.;.      t 2 $ @ > l A o.>.>.>.            ",
"    0 0 a a     ;.                      $.;.>.>.>.              ",
"    a a a                                                       ",
"                                                                ",
"                                                                ",
"                                                                ",
"                                                                ",
"                                                                ",
"                                                                ",
"                                                                "
};
