/* XPM */
static const char *cnVuX3I2[] = {
/* columns rows colors chars-per-pixel */
"64 64 166 2 ",
"   c #2A1D0D",
".  c #2E2211",
"X  c #322414",
"o  c #3F2715",
"O  c #3F2816",
"+  c #362718",
"@  c #3B2B1A",
"#  c #3F2F21",
"$  c #373724",
"%  c #3F3022",
"&  c #343925",
"*  c #572C0F",
"=  c #402817",
"-  c #4B2810",
";  c #402E1A",
":  c #572B10",
">  c #592D11",
",  c #45321E",
"<  c #5E3014",
"1  c #633116",
"2  c #6A361A",
"3  c #663A1C",
"4  c #6C3B1E",
"5  c #70391E",
"6  c #402F22",
"7  c #403022",
"8  c #493525",
"9  c #4E3A24",
"0  c #423A2A",
"q  c #523C25",
"w  c #583826",
"e  c #533D2B",
"r  c #5A3623",
"t  c #683E20",
"y  c #653E2C",
"u  c #7B3F24",
"i  c #45432C",
"p  c #56412E",
"a  c #5C442C",
"s  c #5F4732",
"d  c #5E4933",
"f  c #49593F",
"g  c #61482E",
"h  c #68432C",
"j  c #71402B",
"k  c #79462A",
"l  c #644C35",
"z  c #6F4A30",
"x  c #7E4C32",
"c  c #6A543A",
"v  c #6A5133",
"b  c #72563C",
"n  c #755A3F",
"m  c #7D5A3D",
"M  c #7C5D41",
"N  c #725E44",
"B  c #7D7757",
"V  c #86452A",
"C  c #8D4D35",
"Z  c #824A34",
"A  c #9B5136",
"S  c #98593D",
"D  c #975337",
"F  c #A3563B",
"G  c #AD5B3F",
"H  c #AD5B40",
"J  c #B05F43",
"K  c #826244",
"L  c #8A6747",
"P  c #896846",
"I  c #8D6A4A",
"U  c #926E4D",
"Y  c #9F7047",
"T  c #95714F",
"R  c #937351",
"E  c #9C7552",
"W  c #9C7956",
"Q  c #A86245",
"!  c #A36748",
"~  c #B26345",
"^  c #B76C4C",
"/  c #A4754C",
"(  c #A8784D",
")  c #A37B57",
"_  c #A57E59",
"`  c #A87F59",
"'  c #BE7351",
"]  c #C17753",
"[  c #95805D",
"{  c #A78059",
"}  c #AB825C",
"|  c #B2865C",
" . c #968963",
".. c #91956E",
"X. c #AB8660",
"o. c #AD8963",
"O. c #B48B62",
"+. c #B98E64",
"@. c #A8906A",
"#. c #BA9065",
"$. c #B5926A",
"%. c #B9966D",
"&. c #BD9B71",
"*. c #C1976A",
"=. c #C5996A",
"-. c #CB9D6E",
";. c #C49266",
":. c #D69568",
">. c #D9996B",
",. c #D69C6D",
"<. c #C09F74",
"1. c #CDA16F",
"2. c #D6A36F",
"3. c #C2A276",
"4. c #CDA271",
"5. c #CBAA7C",
"6. c #D3A473",
"7. c #D3A877",
"8. c #D9AA76",
"9. c #D4AC7B",
"0. c #DCAC79",
"q. c #D9A571",
"w. c #DEB17E",
"e. c #E0AF7A",
"r. c #E4B37D",
"t. c #5FAA84",
"y. c #60B88F",
"u. c #72C69A",
"i. c #74CEA1",
"p. c #69D0A3",
"a. c #79E9B8",
"s. c #75F4C0",
"d. c #86BE92",
"f. c #CDAE80",
"g. c #D3B383",
"h. c #DCB381",
"j. c #DBBE8B",
"k. c #DBB987",
"l. c #EEBC83",
"z. c #E2BA85",
"x. c #F2BE85",
"c. c #83C296",
"v. c #E9C18B",
"b. c #E4C18C",
"n. c #F5C187",
"m. c #F5C48B",
"M. c #F5C88F",
"N. c #E2C794",
"B. c #E8C792",
"V. c #EECA93",
"C. c #E9CF9B",
"Z. c #E5C894",
"A. c #F4CC93",
"S. c #F5CF98",
"D. c #ECD29D",
"F. c #F5D29A",
"G. c #F5D198",
"H. c #F5D59E",
"J. c #F5D39B",
"K. c #F5D7A0",
"L. c #F5D9A2",
"P. c #F5DDA6",
"I. c #F4DCA4",
"U. c #F5DCA4",
"Y. c None",
"T. c black",
/* pixels */
"Y.Y.Y.Y.Y.Y.Y.Y.Y.Y.Y.Y.Y.Y.Y.Y.Y.Y.Y.Y.Y.Y.Y.Y.Y.Y.Y.Y.Y.Y.Y.Y.Y.Y.Y.Y.Y.Y.Y.Y.Y.Y.Y.Y.Y.Y.Y.Y.Y.Y.Y.Y.Y.Y.Y.Y.Y.Y.Y.Y.Y.Y.Y.Y.",
"Y.Y.Y.Y.Y.Y.Y.Y.Y.Y.Y.Y.Y.Y.Y.Y.Y.Y.Y.Y.Y.Y.Y.Y.Y.Y.Y.Y.Y.Y.Y.Y.Y.Y.Y.Y.Y.Y.Y.Y.Y.Y.Y.Y.Y.Y.Y.Y.Y.Y.Y.Y.Y.Y.Y.Y.Y.Y.Y.Y.Y.Y.Y.Y.",
"Y.Y.Y.Y.Y.Y.Y.Y.Y.Y.Y.Y.Y.Y.Y.Y.Y.Y.Y.Y.Y.Y.Y.Y.Y.Y.Y.Y.Y.Y.Y.Y.Y.Y.Y.Y.Y.Y.Y.Y.Y.Y.Y.Y.Y.Y.Y.Y.Y.Y.Y.Y.Y.Y.Y.Y.Y.Y.Y.Y.Y.Y.Y.Y.",
"Y.Y.Y.Y.Y.Y.Y.Y.Y.Y.Y.Y.Y.Y.Y.Y.Y.Y.Y.Y.Y.Y.Y.Y.Y.Y.Y.Y.Y.Y.Y.Y.Y.Y.Y.Y.Y.Y.Y.Y.Y.Y.Y.Y.Y.Y.Y.Y.Y.Y.Y.Y.Y.Y.Y.Y.Y.Y.Y.Y.Y.Y.Y.Y.",
"Y.Y.Y.Y.Y.Y.Y.Y.Y.Y.Y.Y.Y.Y.Y.Y.Y.Y.Y.Y.Y.Y.Y.Y.Y.Y.Y.Y.Y.Y.Y.Y.Y.Y.Y.Y.Y.Y.Y.Y.Y.Y.Y.Y.Y.Y.Y.Y.Y.Y.Y.Y.Y.Y.Y.Y.Y.Y.Y.Y.Y.Y.Y.Y.",
"Y.Y.Y.Y.Y.Y.Y.Y.Y.Y.Y.Y.Y.Y.Y.Y.Y.Y.Y.Y.Y.Y.Y.Y.Y.Y.Y.Y.Y.Y.Y.Y.Y.Y.Y.Y.Y.Y.Y.Y.Y.Y.Y.Y.Y.Y.Y.Y.Y.Y.Y.Y.Y.Y.Y.Y.Y.Y.Y.Y.Y.Y.Y.Y.",
"Y.Y.Y.Y.Y.Y.Y.Y.Y.Y.Y.Y.Y.Y.Y.Y.Y.Y.Y.Y.Y.Y.Y.Y.Y.Y.Y.Y.Y.Y.Y.Y.Y.Y.Y.Y.Y.Y.Y.Y.Y.Y.Y.Y.Y.Y.Y.Y.Y.Y.Y.Y.Y.Y.Y.Y.Y.Y.Y.Y.Y.Y.Y.Y.",
"Y.Y.Y.Y.Y.Y.Y.Y.Y.Y.Y.Y.Y.Y.Y.Y.Y.Y.Y.Y.Y.Y.Y.Y.Y.Y.Y.Y.Y.Y.Y.Y.Y.Y.Y.Y.Y.Y.Y.Y.Y.Y.Y.Y.Y.Y.Y.Y.Y.Y.Y.Y.Y.Y.Y.Y.Y.Y.Y.Y.Y.Y.Y.Y.",
"Y.Y.Y.Y.Y.Y.Y.Y.Y.Y.Y.Y.Y.Y.Y.Y.Y.Y.Y.Y.Y.Y.Y.Y.Y.Y.Y.Y.Y.Y.Y.Y.Y.Y.Y.Y.Y.Y.Y.Y.Y.Y.Y.Y.Y.Y.Y.Y.Y.Y.Y.Y.Y.Y.Y.Y.Y.Y.Y.Y.Y.Y.Y.Y.",
"Y.Y.Y.Y.Y.Y.Y.Y.Y.Y.Y.Y.Y.Y.Y.Y.Y.Y.Y.Y.Y.Y.Y.Y.Y.Y.Y.Y.Y.Y.Y.Y.Y.Y.Y.Y.Y.Y.Y.Y.Y.Y.Y.Y.Y.Y.Y.Y.Y.Y.Y.Y.Y.Y.Y.Y.Y.Y.Y.Y.Y.Y.Y.Y.",
"Y.Y.Y.Y.Y.Y.Y.Y.Y.Y.Y.Y.Y.Y.Y.Y.Y.Y.Y.Y.Y.Y.Y.Y.Y.Y.  Y.Y.Y.Y.Y.Y.Y.Y.Y.Y.Y.Y.Y.Y.Y.Y.Y.Y.Y.Y.Y.Y.Y.Y.Y.Y.Y.Y.Y.Y.Y.Y.Y.Y.Y.Y.Y.",
"Y.Y.Y.Y.Y.Y.Y.Y.Y.Y.Y.Y.Y.Y.Y.Y.Y.Y.Y.Y.Y.Y.Y.Y.Y.Y.  Y.Y.Y.Y.Y.Y.Y.Y.Y.Y.Y.Y.Y.Y.Y.Y.Y.Y.Y.Y.Y.Y.Y.Y.Y.Y.Y.Y.Y.Y.Y.Y.Y.Y.Y.Y.Y.",
"Y.Y.Y.Y.Y.Y.Y.Y.Y.Y.Y.Y.Y.Y.Y.Y.Y.Y.Y.Y.Y.Y.Y.Y.Y.Y.  Y.Y.Y.Y.Y.Y.Y.Y.Y.Y.Y.Y.Y.Y.Y.Y.Y.Y.Y.Y.Y.Y.Y.Y.Y.Y.Y.Y.Y.Y.Y.Y.Y.Y.Y.Y.Y.",
"Y.Y.Y.Y.Y.Y.Y.Y.Y.Y.Y.Y.Y.E j.P.D.o.E E Y.Y.Y.Y.Y.Y.  Y.Y.Y.Y.Y.Y.Y.Y.Y.Y.Y.Y.Y.Y.Y.Y.Y.Y.Y.Y.Y.Y.Y.Y.Y.Y.Y.Y.Y.Y.Y.Y.Y.Y.Y.Y.Y.",
"Y.Y.Y.Y.Y.Y.Y.Y.Y.Y.Y.Y.D.j.3.%.$.) &.j.n.Y.Y.Y.Y.Y.- : V ' x.n.n.n.n.n.M.L.Y.Y.Y.Y.Y.Y.Y.Y.Y.Y.Y.Y.Y.Y.Y.Y.Y.Y.Y.Y.Y.Y.Y.Y.Y.Y.",
"Y.Y.Y.Y.Y.Y.Y.Y.Y.Y.Y.G.G.G.9.O.) %.k.V.7.Y.Y.Y.Y.Y.: : V ^ :.>.,.6.6.6.7.A.H.Y.Y.Y.Y.Y.Y.Y.Y.Y.Y.Y.Y.Y.Y.Y.Y.Y.Y.Y.Y.Y.Y.Y.Y.Y.",
"Y.Y.Y.Y.Y.Y.Y.Y.Y.Y.Y.l.l.n.G.g.} Z.A.0.) Y.Y.Y.Y.Y.> 3 D ~ H H Q E E E } r.A.L.Y.Y.Y.Y.Y.Y.Y.Y.Y.Y.Y.Y.Y.Y.Y.Y.Y.Y.Y.Y.Y.Y.Y.Y.",
"Y.Y.Y.Y.Y.Y.Y.Y.Y.Y.Y.} *.n.m.l.r.n.6.} E Y.Y.Y.Y.Y.t 3.h.>.H H H Q Y.Y.Y.} 7.A.P.Y.Y.Y.Y.Y.Y.Y.Y.Y.Y.Y.Y.Y.Y.Y.Y.Y.Y.Y.Y.Y.Y.Y.",
"Y.Y.Y.Y.Y.Y.Y.Y.Y.Y.Y.Y./ / / | =.=.4.<.) 3.J.n.H.R h h.w.;.Q H H H H Y.Y.Y.#.7.S.H.Y.Y.Y.Y.Y.Y.Y.Y.Y.Y.Y.Y.Y.Y.Y.Y.Y.Y.Y.Y.Y.Y.",
"Y.Y.Y.Y.Y.Y.Y.Y.Y.Y.Y.Y.Y.2 2 x E } g.N.` g.G.M.G.@.e O.O.E Y.A F H H G Y.Y.Y.O.r.V.L.Y.Y.Y.Y.Y.Y.Y.Y.Y.Y.Y.Y.Y.Y.Y.Y.Y.Y.Y.Y.Y.",
"Y.Y.Y.      Y.Y.Y.Y.Y.Y.Y.F F ! ) 0.A.N.` 6.A.L.A.} 7 @ , Y.Y.< u H H G Y.Y.Y.Y.) 0.S.P.Y.Y.Y.Y.Y.Y.Y.Y.Y.Y.Y.Y.Y.Y.Y.Y.Y.Y.Y.Y.",
"Y.Y.Y.Y.Y.Y.    Y.Y.Y.Y.Y.H x m ) r.S.N.` 6.z.&.I l 8 j C G G 4 1 u F G Y.Y.Y.Y.Y.+.7.S.L.Y.Y.Y.Y.Y.Y.Y.Y.Y.Y.Y.Y.Y.Y.Y.Y.Y.Y.Y.",
"Y.Y.Y.Y.Y.Y.      Y.Y.Y.Y.C w l ) r.A.B.&.4.4.O.z r j F H H H V 2 > A Y.Y.Y.Y.Y.Y.Y.+.0.V.S.Y.Y.Y.Y.Y.Y.Y.Y.Y.Y.Y.Y.Y.Y.Y.Y.Y.Y.",
"Y.Y.Y.Y.Y.Y.Y.Y.Y.. # Y.Y.8 7 l ` r.n.m.K.&.+.x.] H H H H G G G H Y.Y.Y.Y.Y.Y.Y.Y.Y.Y.) r.x.x.x.G.P.P.Y.Y.Y.Y.Y.Y.Y.Y.Y.Y.Y.Y.Y.",
"Y.Y.Y.Y.Y.Y.Y.Y.Y.Y.Y.% c =.R { w.A.9.O.$.f.b.x.] H H H Z y Y.Y.Y.Y.Y.Y.Y.Y.Y.Y.Y.Y.Y.Y.O.O.O.O.O.&.Y.Y.Y.Y.Y.Y.Y.Y.Y.Y.Y.Y.Y.Y.",
"Y.Y.Y.Y.Y.Y.Y.Y.Y.Y.Y.Y.n n.-.=.4.5.5.3.3.z.v.-.^ H F k w 7 Y.Y.Y.Y.Y.Y.Y.Y.Y.Y.Y.Y.Y.Y.Y.E E E E Y.Y.Y.Y.Y.Y.Y.Y.Y.Y.Y.Y.Y.Y.Y.",
"Y.Y.Y.Y.Y.Y.Y.Y.Y.Y.Y.Y.Y.Y.q.-.` ` 5.C.C.v.-.I S A C = + 7 7 Y.Y.Y.Y.Y.Y.Y.Y.Y.Y.Y.Y.Y.Y.Y.Y.Y.Y.Y.Y.Y.Y.Y.Y.Y.Y.Y.Y.Y.Y.Y.Y.Y.",
"Y.Y.Y.Y.Y.Y.Y.Y.Y.Y.Y.Y.Y.: 4 Y r.r.-.X.X.} P @ O o O @ # 7 7 7 7 Y.Y.Y.Y.Y.Y.Y.Y.Y.Y.Y.Y.Y.Y.Y.Y.Y.Y.Y.Y.Y.Y.Y.Y.Y.Y.Y.Y.Y.Y.Y.",
"Y.Y.Y.Y.Y.Y.Y.Y.Y.Y.Y.Y.: : : k ( r.e.-.-.P 9       . @ 7 7 7 7 7 % % Y.Y.Y.Y.Y.Y.Y.Y.Y.Y.Y.Y.Y.Y.Y.Y.Y.Y.Y.Y.Y.Y.Y.Y.Y.Y.Y.Y.Y.",
"Y.Y.Y.Y.Y.Y.Y.Y.Y.Y.Y.> : : : : 3 2.8.=.=.l           + @ @ 7 7 7 7 e e Y.Y.Y.Y.Y.Y.Y.Y.Y.Y.Y.Y.Y.Y.Y.Y.Y.Y.Y.Y.Y.Y.Y.Y.Y.Y.Y.Y.",
"Y.Y.Y.Y.Y.Y.Y.Y.Y.Y.: : : : Y.Y.Y.Y.; X X .               X # 7 7 8 K b 7 Y.Y.Y.Y.Y.Y.Y.Y.Y.Y.Y.Y.Y.Y.Y.Y.Y.Y.Y.Y.Y.Y.Y.Y.Y.Y.Y.",
"Y.Y.Y.Y.Y.Y.Y.Y.Y.* : : : Y.Y.Y.Y.Y.Y.Y.Y.                  X X X + K b p 6.n.Y.Y.Y.Y.Y.Y.Y.Y.Y.Y.Y.Y.Y.Y.Y.Y.Y.Y.Y.Y.Y.Y.Y.Y.Y.",
"Y.Y.Y.Y.Y.Y.Y.Y.V 5 > : Y.Y.Y.Y.Y.Y.Y.Y.Y.Y.            ; q q f f e L b d 0.n.n.Y.Y.Y.Y.Y.Y.Y.Y.Y.Y.Y.Y.Y.Y.Y.Y.Y.Y.Y.Y.Y.Y.Y.Y.",
"Y.Y.Y.Y.Y.Y.Y.H H A 1 Y.Y.Y.Y.Y.Y.Y.Y.Y.Y.Y.Y.Y.      . c W E c.c.T T b l 0.n.n.n.Y.Y.Y.Y.Y.Y.Y.Y.Y.Y.Y.Y.Y.Y.Y.Y.Y.Y.Y.Y.Y.Y.Y.",
"Y.Y.Y.Y.Y.Y.Y.H H G Y.Y.Y.Y.Y.Y.Y.Y.Y.Y.Y.Y.Y.Y.Y.Y.Y.y.u.d.W  .B p p I 6.l.n.n.n.n.O.% Y.Y.Y.Y.Y.Y.Y.Y.Y.Y.Y.Y.Y.Y.Y.Y.Y.Y.Y.Y.",
"Y.Y.Y.Y.Y.Y.Y.H H H H Y.Y.Y.Y.Y.Y.Y.Y.Y.Y.Y.Y.Y.Y.Y...a.s.i.N } O.R R *.n.n.n.n.n.n.6.T d Y.Y.Y.Y.Y.Y.Y.Y.Y.Y.Y.Y.Y.Y.Y.Y.Y.Y.Y.",
"Y.Y.Y.Y.Y.Y.Y.H G G H H H Y.Y.Y.Y.Y.Y.Y.Y.Y.Y.Y.Y.E [ u.p.t.0 O.n.n.n.n.n.n.m.M.M.n.n.r.l 7 Y.Y.Y.Y.Y.Y.Y.Y.Y.Y.Y.Y.Y.Y.Y.Y.Y.Y.",
"Y.Y.Y.Y.Y.Y.Y.Y.Y.Y.H H G H G G Y.Y.Y.E E E E E E E I i & $ % O.n.n.n.n.n.n.S.L.L.A.n.r.l 7 6 Y.Y.Y.Y.Y.Y.Y.Y.Y.Y.Y.Y.Y.Y.Y.Y.Y.",
"Y.Y.Y.Y.Y.Y.Y.Y.Y.Y.Y.H H H H Q E E E E E E E E E E I @   . # R 6.n.n.n.n.n.G.P.P.H.A.l.#.n 7 # # Y.Y.Y.Y.Y.Y.Y.Y.Y.Y.Y.Y.Y.Y.Y.",
"Y.Y.Y.Y.Y.Y.Y.Y.Y.Y.Y.Q Q Q Q ! E E E E E E E E E E I @   . # M O.0.l.n.n.n.S.K.P.P.H.M.n.O.c 8 7 7 Y.Y.Y.Y.Y.Y.Y.Y.Y.Y.Y.Y.Y.Y.",
"Y.Y.Y.Y.Y.Y.Y.Y.Y.Y.Y.E E E E E E E E E E E E E E E I @   . # M E ) e.n.n.n.n.A.P.P.P.L.M.x.4.e 7 % 6 Y.Y.Y.Y.Y.Y.Y.Y.Y.Y.Y.Y.Y.",
"Y.Y.Y.Y.Y.Y.Y.Y.Y.Y.Y.E E E E E E E E E E E E E E E I @     X 9 b E | 7.n.n.n.n.A.H.P.L.M.n.4., @ 7 7 % Y.Y.Y.Y.Y.Y.Y.Y.Y.Y.Y.Y.",
"Y.Y.Y.Y.Y.Y.Y.Y.Y.Y.Y.E E E E E E E E E E E E E E E U g @     + l E E O.8.x.n.n.n.S.G.G.m.n.1.@ X + + # 7 Y.Y.Y.Y.Y.Y.Y.Y.Y.Y.Y.",
"Y.Y.Y.Y.Y.Y.Y.Y.Y.Y.E E E E E E E E E E E E E E E E E E a     + s E E E } r.x.n.n.n.n.n.n.n.6.9 X     + # 7 Y.Y.Y.Y.Y.Y.Y.Y.Y.Y.",
"Y.Y.Y.Y.Y.Y.Y.Y.Y.Y.E E E E E E E E E E E E E Y.Y.Y.Y.Y.@     + 8 Y.Y.E W } 7.n.n.n.n.n.n.n.l.4.v     . + % 7 % 6 Y.Y.Y.Y.Y.Y.Y.",
"Y.Y.Y.Y.Y.Y.Y.Y.Y.Y.E E E E E E E E E E E E E Y.Y.Y.Y.Y.Y.    + 7 Y.Y.Y.E E O.7.n.n.n.n.n.n.n.n.O.m     X # # # Y.Y.Y.Y.Y.Y.Y.Y.",
"Y.Y.Y.Y.Y.Y.Y.Y.Y.Y.E E E E E E E E E E E E E Y.Y.Y.Y.Y.Y.Y.  + @ @ Y.Y.Y.E E | r.l.n.n.n.n.n.n.n.n.Y.Y.Y.Y.Y.Y.Y.Y.Y.Y.Y.Y.Y.Y.",
"Y.Y.Y.Y.Y.Y.Y.Y.Y.Y.Y.E E E E E E E E E E Y.Y.Y.Y.Y.Y.Y.Y.Y.          Y.Y.Y.E E ) 0.n.n.n.n.n.n.n.n.Y.Y.Y.Y.Y.Y.Y.Y.Y.Y.Y.Y.Y.Y.",
"Y.Y.Y.Y.Y.Y.Y.Y.Y.Y.Y.Y.E E E E E E E E Y.Y.Y.Y.Y.Y.Y.Y.Y.Y.Y.          Y.Y.Y.Y.Y.+.6.n.n.n.n.n.n.n.Y.Y.Y.Y.Y.Y.Y.Y.Y.Y.Y.Y.Y.Y.",
"Y.Y.Y.Y.Y.Y.Y.Y.Y.Y.Y.Y.Y.E P K K K K K Y.Y.Y.Y.Y.Y.Y.Y.Y.Y.Y.          Y.Y.Y.Y.Y.Y.+.8.8.r.n.n.n.n.Y.Y.Y.Y.Y.Y.Y.Y.Y.Y.Y.Y.Y.Y.",
"Y.Y.Y.Y.Y.Y.Y.Y.Y.Y.Y.Y.Y.Y.7 % 7 7 7 % Y.Y.Y.Y.Y.Y.Y.Y.Y.Y.Y.            Y.Y.Y.Y.Y.Y.E E =.n.n.n.n.n.Y.Y.Y.Y.Y.Y.Y.Y.Y.Y.Y.Y.Y.",
"Y.Y.Y.Y.Y.Y.Y.Y.Y.Y.Y.Y.Y.Y.Y.6 7 7 7 % Y.Y.Y.Y.Y.Y.Y.Y.Y.Y.Y.Y.Y.Y.Y.Y.Y.Y.Y.Y.Y.Y.Y.Y.E } O.O.0.n.n.Y.Y.Y.Y.Y.Y.Y.Y.Y.Y.Y.Y.Y.",
"Y.Y.Y.Y.Y.Y.Y.Y.Y.Y.Y.Y.Y.Y.Y.Y.7 7 7 7 Y.Y.Y.Y.Y.Y.Y.Y.Y.Y.Y.Y.Y.Y.Y.Y.Y.Y.Y.Y.Y.Y.Y.Y.Y.E E E #.6.6.Y.Y.Y.Y.Y.Y.Y.Y.Y.Y.Y.Y.Y.",
"Y.Y.Y.Y.Y.Y.Y.Y.Y.Y.Y.Y.Y.Y.Y.Y.Y.7 7 7 7 7 % Y.Y.Y.Y.Y.Y.Y.Y.Y.Y.Y.Y.Y.Y.Y.Y.Y.Y.Y.Y.Y.Y.Y.E E E E U Y.Y.Y.Y.Y.Y.Y.Y.Y.Y.Y.Y.Y.",
"Y.Y.Y.Y.Y.Y.Y.Y.Y.Y.Y.Y.Y.Y.Y.Y.Y.Y.7 7 7 7 % Y.Y.Y.Y.Y.Y.Y.Y.Y.Y.Y.Y.Y.Y.Y.Y.Y.Y.Y.Y.Y.Y.Y.Y.E E P e 8 Y.Y.Y.Y.Y.Y.Y.Y.Y.Y.Y.Y.",
"Y.Y.Y.Y.Y.Y.Y.Y.Y.Y.Y.Y.Y.Y.Y.Y.Y.Y.7 7 7 # Y.Y.Y.Y.Y.Y.Y.Y.Y.Y.Y.Y.Y.Y.Y.Y.Y.Y.Y.Y.Y.Y.Y.Y.Y.Y.n s 7 7 % Y.Y.Y.Y.Y.Y.Y.Y.Y.Y.Y.",
"Y.Y.Y.Y.Y.Y.Y.Y.Y.Y.Y.Y.Y.Y.Y.Y.Y.7 % % % Y.Y.Y.Y.Y.Y.Y.Y.Y.Y.Y.Y.Y.Y.Y.Y.Y.Y.Y.Y.Y.Y.Y.Y.Y.Y.Y.Y.6 7 7 7 Y.Y.Y.Y.Y.Y.Y.Y.Y.Y.Y.",
"Y.Y.Y.Y.Y.Y.Y.Y.Y.Y.Y.Y.Y.Y.Y.Y.Y.Y.Y.Y.Y.Y.Y.Y.Y.Y.Y.Y.Y.Y.Y.Y.Y.Y.Y.Y.Y.Y.Y.Y.Y.Y.Y.Y.Y.Y.Y.Y.Y.Y.7 # 7 7 Y.Y.Y.Y.Y.Y.Y.Y.Y.Y.",
"Y.Y.Y.Y.Y.Y.Y.Y.Y.Y.Y.Y.Y.Y.Y.Y.Y.Y.Y.Y.Y.Y.Y.Y.Y.Y.Y.Y.Y.Y.Y.Y.Y.Y.Y.Y.Y.Y.Y.Y.Y.Y.Y.Y.Y.Y.Y.Y.Y.Y.Y.7 7 7 7 Y.Y.Y.Y.Y.Y.Y.Y.Y.",
"Y.Y.Y.Y.Y.Y.Y.Y.Y.Y.Y.Y.Y.Y.Y.Y.Y.Y.Y.Y.Y.Y.Y.Y.Y.Y.Y.Y.Y.Y.Y.Y.Y.Y.Y.Y.Y.Y.Y.Y.Y.Y.Y.Y.Y.Y.Y.Y.Y.Y.Y.7 7 % % Y.Y.Y.Y.Y.Y.Y.Y.Y.",
"Y.Y.Y.Y.Y.Y.Y.Y.Y.Y.Y.Y.Y.Y.Y.Y.Y.Y.Y.Y.Y.Y.Y.Y.Y.Y.Y.Y.Y.Y.Y.Y.Y.Y.Y.Y.Y.Y.Y.Y.Y.Y.Y.Y.Y.Y.Y.Y.Y.Y.7 7 7 7 Y.Y.Y.Y.Y.Y.Y.Y.Y.Y.",
"Y.Y.Y.Y.Y.Y.Y.Y.Y.Y.Y.Y.Y.Y.Y.Y.Y.Y.Y.Y.Y.Y.Y.Y.Y.Y.Y.Y.Y.Y.Y.Y.Y.Y.Y.Y.Y.Y.Y.Y.Y.Y.Y.Y.Y.Y.Y.Y.Y.Y.7 7 % Y.Y.Y.Y.Y.Y.Y.Y.Y.Y.Y.",
"Y.Y.Y.Y.Y.Y.Y.Y.Y.Y.Y.Y.Y.Y.Y.Y.Y.Y.Y.Y.Y.Y.Y.Y.Y.Y.Y.Y.Y.Y.Y.Y.Y.Y.Y.Y.Y.Y.Y.Y.Y.Y.Y.Y.Y.Y.Y.Y.Y.Y.% % Y.Y.Y.Y.Y.Y.Y.Y.Y.Y.Y.Y.",
"Y.Y.Y.Y.Y.Y.Y.Y.Y.Y.Y.Y.Y.Y.Y.Y.Y.Y.Y.Y.Y.Y.Y.Y.Y.Y.Y.Y.Y.Y.Y.Y.Y.Y.Y.Y.Y.Y.Y.Y.Y.Y.Y.Y.Y.Y.Y.Y.Y.Y.Y.Y.Y.Y.Y.Y.Y.Y.Y.Y.Y.Y.Y.Y."
};
