/* XPM */
static char *run_rev_8[] = {
/* columns rows colors chars-per-pixel */
"64 64 185 2 ",
"   c None",
".  c #2A1D0D",
"X  c #2F210F",
"o  c #2D2111",
"O  c #2F2917",
"+  c #322414",
"@  c #3A2715",
"#  c #382815",
"$  c #342A1A",
"%  c #3B2B1C",
"&  c #362817",
"*  c #3E2F20",
"=  c #3F3022",
"-  c #343824",
";  c #572B0F",
":  c #4F2910",
">  c #442D1C",
",  c #572B10",
"<  c #592D12",
"1  c #47341E",
"2  c #54321F",
"3  c #5C3014",
"4  c #633317",
"5  c #6B361C",
"6  c #663419",
"7  c #713A1E",
"8  c #402F22",
"9  c #413022",
"0  c #493626",
"q  c #4E3923",
"w  c #493728",
"e  c #4C3828",
"r  c #533C26",
"t  c #5B3925",
"y  c #533D2A",
"u  c #563622",
"i  c #663C28",
"p  c #773D22",
"a  c #7A3E23",
"s  c #39422C",
"d  c #45452E",
"f  c #52432B",
"g  c #5A432C",
"h  c #5F4A2F",
"j  c #5D4531",
"k  c #5E4832",
"l  c #44583E",
"z  c #5A563E",
"x  c #6E4122",
"c  c #78452B",
"v  c #7F512F",
"b  c #634C33",
"n  c #694F34",
"m  c #744530",
"M  c #7F4731",
"N  c #754C36",
"B  c #6D5236",
"V  c #6D573D",
"C  c #70543A",
"Z  c #75583C",
"A  c #7A5D3D",
"S  c #7D573D",
"D  c #7C5E42",
"F  c #775C40",
"G  c #486448",
"H  c #58674A",
"J  c #496F51",
"K  c #547657",
"L  c #7C6043",
"P  c #7E6848",
"I  c #786F50",
"U  c #697455",
"Y  c #804127",
"T  c #84452A",
"R  c #804C2E",
"E  c #8E4C34",
"W  c #804C33",
"Q  c #954E33",
"!  c #865A3B",
"~  c #8E5C3D",
"^  c #9C5136",
"/  c #96523A",
"(  c #9A533A",
")  c #995838",
"_  c #945C3F",
"`  c #A3563C",
"'  c #AC5A3F",
"]  c #94653F",
"[  c #825E42",
"{  c #915F43",
"}  c #AD5B40",
"|  c #826244",
" . c #8C6A4A",
".. c #836F4E",
"X. c #926D4C",
"o. c #976B45",
"O. c #96714F",
"+. c #9C7552",
"@. c #9D7A55",
"#. c #A26243",
"$. c #A96545",
"%. c #B36D4C",
"&. c #A3724D",
"*. c #AF744D",
"=. c #B7704D",
"-. c #A37A55",
";. c #A57E58",
":. c #A87F5A",
">. c #A77852",
",. c #608866",
"<. c #6F8B68",
"1. c #7B8563",
"2. c #6A9672",
"3. c #AC845C",
"4. c #AD895E",
"5. c #B1865E",
"6. c #B48A5F",
"7. c #BB855B",
"8. c #8D8662",
"9. c #988963",
"0. c #87936E",
"q. c #AB8660",
"w. c #AE8962",
"e. c #B38B63",
"r. c #B98E63",
"t. c #BE9266",
"y. c #BD966B",
"u. c #BD996D",
"i. c #B7946B",
"p. c #BE9E72",
"a. c #80A17A",
"s. c #B8A075",
"d. c #C08F5F",
"f. c #C0865C",
"g. c #C58F64",
"h. c #C29365",
"j. c #C39569",
"k. c #C4996B",
"l. c #CC9D6E",
"z. c #D3986A",
"x. c #C39E72",
"c. c #D19F70",
"v. c #D1A16F",
"b. c #C5A275",
"n. c #CDA273",
"m. c #CAA678",
"M. c #CCAB7D",
"N. c #D3A474",
"B. c #DAAA76",
"V. c #D0A778",
"C. c #D3AB7B",
"Z. c #DBAE7B",
"A. c #D6A876",
"S. c #D7B07F",
"D. c #DDB07C",
"F. c #E1AE7A",
"G. c #E2B27D",
"H. c #E8B67F",
"J. c #64A780",
"K. c #6AB68D",
"L. c #70B088",
"P. c #6ABC91",
"I. c #CEAF81",
"U. c #CFB081",
"Y. c #D4B384",
"T. c #DBB483",
"R. c #DCBB8A",
"E. c #D8B987",
"W. c #E9B780",
"Q. c #E6BA85",
"!. c #ECBB83",
"~. c #E2BE8B",
"^. c #EBBF88",
"/. c #F1BE85",
"(. c #EBC28C",
"). c #E6C28D",
"_. c #F5C187",
"`. c #F5C389",
"'. c #F5C88F",
"]. c #EAC591",
"[. c #E9CB96",
"{. c #F5CA91",
"}. c #ECD39E",
"|. c #F5D59D",
" X c #F6D9A2",
/* pixels */
"                                                                                                                                ",
"                                                                                                                                ",
"                                                                                                                                ",
"                                                                                                                                ",
"                                                                                                                                ",
"                                                                                                                                ",
"                                                                                                                                ",
"                                                                                                                                ",
"                                                                                                                                ",
"                                                                                                                                ",
"                                                                                                                                ",
"                                                                                                                                ",
"                                                                                                                                ",
"                            p.b.Y.M.e.q.i.                                                                                      ",
"                          }.[.E.u.q.;.e.Y.].          : , 6 E                                                                   ",
"                          [.|.~.u.w.e.k.T.).          , , 5 Q }                                                                 ",
"                          T.(.^.Z.C.S.S.V.n.          , , 5 Q } } '                           ].E.I.I.Y.R.                      ",
"                          l.v.v.n.m.S.Z.n.k.u.              ^ } } } '                       (.~.Y.M.M.U.R.                      ",
"                            ] ] o.-.e.u.m.M.U.U.                } } } }                 `.!.Z.C.b.                              ",
"                            c R ! o.3.u.I.E.Y.Y.                ^ ^ ` ' '               !.G.N.k.                                ",
"          .                 / ( _ &.j.Z.E.E.T.Z.E.s.V > > 2     a Y Q ` `             !.G.N.j.                                  ",
"          .                 / / ~ &.c.Q.~.R.C.A.Y.p.D t i i E Q a Y ) $.=.          Q.G.N.l.                                    ",
"                            m N N X.l.Q.(.~.C.n.V.t.{ M E / ` ` Q ) *.f.z.F.]. X|.].Z.n.k.                                      ",
"                            S [ [ @.m.Q.T.S.m.m.V.g.#./ ` ` ( / ^ #.7.h.l.N.T.E.E.Y.n.k.                                        ",
"                          Z e.j.6.y.E.R.x.u.M.T.D.z.%.` ` / m i         3.3.w.w.w.e.e.                                          ",
"                          D j.N.k.n.T.Y.u.i.M.C.n.7.$./ E c r 9         +.+.+.+.+.+.                                            ",
"                              &.5.t.n.m.b.b.m.u.+.! W c t u 9 = 9                                                               ",
"                            < c o.>.h.n.C.m.y.@.B t t 2 > % * = 9 9                                                             ",
"                          , < 4 x ~ h.B.G.n.@.Z q @ @ @ % % * = = 9 9 9                                     9 9 9 % + .         ",
"                        ; , , < 3 v d.B.l.3.A r # . . o & % % % * * * * *                                   * * % & + .         ",
"                        < , , ,         Z g 1 # X . . . o + + & & % % % % 9                             = * % % & &             ",
"                      4 < , ,             . . . . . . . . . . + + & 9 w w r b                         % % % & & +               ",
"                  ^ T p 4 ,                       . . . . . . . o % g B n n b j e 9 9 = 9 * % & & + + + & + +                   ",
"                  ` Q T 7                           . . o o o O - d b C C Z D D C k w * % & & & + + + + + +                     ",
"                } ' ` ^                                 $ $ $ s J K z j j F 3.y.3. .g % + o +                                   ",
"                } } } }                                 G G l G ,.<.I L L +.n.G.l.@.k & o .                                     ",
"                  } } } } '                             P.K.J.2.1.9.y.n.n.A.W.W.V.3.b +                                         ",
"                      } } } } }                       0.L.K.L.a.9.t.G.`.`.`.`.!.D.j.                                            ",
"                        } } } } }                   +...H H U 8.p.G.!.`.'.{.`._.!.Z.                                            ",
"                          } } }                     +.| f f P w.Z./._.'.{.{.'.`.`.`.                                            ",
"                                                +.+.+.| r h 4.Z.!._.`.'.|.|.'.`._._.                                            ",
"                                              +.+.+.+.| q b k._._.`.`.{.|.|.'.`.`._.                                            ",
"                                            +.+.+.+.+.| q b k._._.`.`.{.|.|.{.`.`._._.                                          ",
"                                            +.+.+.+.+.| r n k./._.`.`.{.|.|.{.`._._._._.                                        ",
"                                            +.+.+.+.+.| g B j././.`.`.{.|.|.{.`._._._._.                                        ",
"                                          +.+.+.+.+.+. .n A t.F.!./.`.'.|.|.'.`._._._._.                                        ",
"                                        +.+.+.+.+.+.+.O. .X.3.k.Z.!._.`.{.{.`._._._._._._._.                                    ",
"                                        +.+.+.+.+.+.+.+.+.+.-.5.k.Z.!.`.`.`.`._._._._._._._.                                    ",
"                                        +.+.+.+.+.+.+.+.+.+.+.-.3.j.G.`.`.`._._._._._.`._._.                                    ",
"                                        +.+.+.+.+.+.+.+.+.+.+.+.+.5.N.G.W.!./._._._._._._._./.                                  ",
"                                        +.+.+.+.+.+.+.+.+.+.    +.;.e.j.N.G.!._._._._._._./.W.N.                                ",
"                                        +.+.+.+.+.+.+.+.+.+.        -.3.t.l.B.H./._._./.H.F.B.y.| w                             ",
"                                        +.+.+.+.+.+.+.+.+.            -.:.5.r.l.H._._.H.n.t.r.@.b 9 9 9 9 8 9                   ",
"                                        +.+.+.+.+.+.+.+.                +.-.;.r.N.Z.F.N.r.3.:. .j 9 9 9 9 9 8 8                 ",
"                                        +.+.+.+.+.+.+.                    +.-.;.3.6.e.5.:.;.        9 9 9 9 9 =                 ",
"                                        +.O.X.X.O.+.                        +.+.+.+.+.+.+.            9 = = = 9                 ",
"                                          D Z Z                               +.+.+.                      = = 9                 ",
"                                          y j j                                                             9                   ",
"                                    8 9 9 9 w w                                                                                 ",
"                                    9 9 = 8 9 9                                                                                 ",
"                                    8 9 8 9 9                                                                                   ",
"                                        9 9                                                                                     ",
"                                                                                                                                ",
"                                                                                                                                "
};
