/* XPM */
static char *run_rev_s_2[] = {
/* columns rows colors chars-per-pixel */
"32 32 185 2 ",
"   c None",
".  c #2A1D0C",
"X  c #2A1C0D",
"o  c #2A1D0D",
"O  c #291E0D",
"+  c #2A1E0C",
"@  c #2A1E0E",
"#  c #2C1E0F",
"$  c #2C1F0F",
"%  c #2E200F",
"&  c #2F2112",
"*  c #312311",
"=  c #302313",
"-  c #312313",
";  c #332413",
":  c #312414",
">  c #322514",
",  c #332515",
"<  c #382A1B",
"1  c #392A1B",
"2  c #3C2B18",
"3  c #3B2C1E",
"4  c #3D2E20",
"5  c #3E2E20",
"6  c #3F2F20",
"7  c #3F2F21",
"8  c #3F3022",
"9  c #572C0F",
"0  c #582B0F",
"q  c #432D1C",
"w  c #572A10",
"e  c #572B10",
"r  c #582B10",
"t  c #45311D",
"y  c #5F3014",
"u  c #5F3016",
"i  c #673518",
"p  c #6A3C1E",
"a  c #402F21",
"s  c #402F22",
"d  c #403121",
"f  c #403022",
"g  c #403023",
"h  c #403123",
"j  c #423123",
"k  c #473525",
"l  c #493525",
"z  c #4C3927",
"x  c #523320",
"c  c #553827",
"v  c #533C25",
"b  c #503C2A",
"n  c #533E2C",
"m  c #5E3D2A",
"M  c #6D3D27",
"N  c #5F462D",
"B  c #784927",
"V  c #6B4F35",
"C  c #6B5037",
"Z  c #6A5038",
"A  c #745337",
"S  c #715638",
"D  c #74563A",
"F  c #74593C",
"G  c #745A3F",
"H  c #745A40",
"J  c #7B5D42",
"K  c #547F5F",
"L  c #776A4D",
"P  c #814327",
"I  c #844932",
"U  c #8F4E36",
"Y  c #924C31",
"T  c #885634",
"R  c #995034",
"E  c #A5563B",
"W  c #A1553C",
"Q  c #A7583D",
"!  c #A4583E",
"~  c #A9593E",
"^  c #AA583F",
"/  c #AB593F",
"(  c #AC5A3F",
")  c #AC5B3F",
"_  c #AD5C3F",
"`  c #915E42",
"'  c #AC5A40",
"]  c #AD5A40",
"[  c #AC5B40",
"{  c #AD5B40",
"}  c #886646",
"|  c #8D694A",
" . c #8E6A4A",
".. c #8E6B4A",
"X. c #8E6B4B",
"o. c #9A6C47",
"O. c #976B4A",
"+. c #977150",
"@. c #997350",
"#. c #9A7351",
"$. c #9B7452",
"%. c #9C7451",
"&. c #9C7551",
"*. c #9C7552",
"=. c #B56647",
"-. c #A27A55",
";. c #A47D57",
":. c #A57D57",
">. c #A77E58",
",. c #AB865E",
"<. c #B6875B",
"1. c #B0875F",
"2. c #B48960",
"3. c #B78C62",
"4. c #B08E66",
"5. c #B28E67",
"6. c #B38F67",
"7. c #B78E64",
"8. c #B88D63",
"9. c #B98E63",
"0. c #B98F64",
"q. c #B39068",
"w. c #BD9368",
"e. c #BF9368",
"r. c #BC986D",
"t. c #BD996E",
"y. c #C08F63",
"u. c #C09367",
"i. c #C19467",
"p. c #C09468",
"a. c #C39669",
"s. c #C6996B",
"d. c #C79A6B",
"f. c #C59A6C",
"g. c #C79B6D",
"h. c #C99D6D",
"j. c #CA9C6D",
"k. c #CD9F6E",
"l. c #C59E71",
"z. c #D3A26E",
"x. c #C9A072",
"c. c #C9A97C",
"v. c #CAAA7C",
"b. c #D1A271",
"n. c #D7A172",
"m. c #D5A674",
"M. c #D6A775",
"N. c #D9A875",
"B. c #DFAE7A",
"V. c #DCAF7C",
"C. c #DFB07B",
"Z. c #E4B27D",
"A. c #D0B081",
"S. c #DFB683",
"D. c #DBB785",
"F. c #D9B887",
"G. c #D9BC8A",
"H. c #EFBC84",
"J. c #EFBE86",
"K. c #E3BE89",
"L. c #E5BD88",
"P. c #F0BD84",
"I. c #F1BD84",
"U. c #F1BE84",
"Y. c #F2BF85",
"T. c #F4BF87",
"R. c #E0C08C",
"E. c #EBC48E",
"W. c #F4C086",
"Q. c #F5C086",
"!. c #F5C186",
"~. c #F4C187",
"^. c #F5C187",
"/. c #F6C287",
"(. c #F5C389",
"). c #F1C58F",
"_. c #F5C68C",
"`. c #EDC892",
"'. c #F5CF97",
"]. c #F5D39B",
"[. c #F6D39B",
"{. c #F6D49C",
"}. c #F4D69D",
"|. c #F5D9A2",
" X c #F6DDA6",
/* pixels */
"                                                                ",
"                                                                ",
"                                                                ",
"                                                                ",
"                                                                ",
"                                                                ",
"              4. X4.                                            ",
"            }.R.q.4.K.      u ^                                 ",
"            k.J.S.L.p.      u ^ {                               ",
"              T o.w.c.A.        E {           J.                ",
"    o o       W ` V.G.M.A.3 x   i Y         `.u.                ",
"          -   m Z C.E.l.y.I ! ( R         ).w.                  ",
"              7.0.D.t.F.n.{ U c O.N.      t.                    ",
"              B <.g.c.x.A M q f f :.h.h.i.                      ",
"            0 w p z.h.S % o 1 5 8 k                             ",
"            w 9     ; # o o o & 1 1 z                           ",
"        ! P r             o K F D D C g.                        ",
"        { ^                 L H F F ,.I.^.                      ",
"          ( { _           }.'.'._.^.^.^.^.s.                    ",
"            { { =.  ^.^.[.|.|.[.(.^.^.^.I.1.l 5                 ",
"                T.^.^.^.^.^.^.^.^.^.^.I.p.#.v , 5 f             ",
"                I.^.^.I.I.M.8.s.I.Z.3.2.*.*.*.  - , , , , ,     ",
"                >.b.B.8.:.-.  b J } X.*.*.*.*.*.                ",
"                  *.*.*.*.      5 # t X.*.*.*.*.                ",
"                  #.X.X.X.        o o 2 N *.*.*.                ",
"                    f f a           o - V *.*.*.*.              ",
"                      f 5 f             $.*.*.*.+.              ",
"                        f f                 $.X.n 8             ",
"                                                8 f             ",
"                                                  f f           ",
"                                                a f             ",
"                                                                "
};
