/* XPM */
static char *run_rev_2[] = {
/* columns rows colors chars-per-pixel */
"64 64 154 2 ",
"   c None",
".  c #2A1D0D",
"X  c #2C200F",
"o  c #2F2112",
"O  c #332514",
"+  c #3F2715",
"@  c #3B2916",
"#  c #362718",
"$  c #37281A",
"%  c #3A2A1B",
"&  c #3F2F21",
"*  c #3F3022",
"=  c #582B0F",
"-  c #492610",
";  c #4F2910",
":  c #4C2E19",
">  c #572B10",
",  c #582B10",
"<  c #43311D",
"1  c #5E3216",
"2  c #56331F",
"3  c #623116",
"4  c #633518",
"5  c #6B361B",
"6  c #713A1E",
"7  c #402F22",
"8  c #403022",
"9  c #493727",
"0  c #4D3928",
"q  c #523C25",
"w  c #523D2C",
"e  c #603723",
"r  c #6E3C20",
"t  c #613C29",
"y  c #683C28",
"u  c #7A3F24",
"i  c #38462F",
"p  c #56412D",
"a  c #5B432B",
"s  c #5E4632",
"d  c #47553E",
"f  c #6C422E",
"g  c #7F4126",
"h  c #7D4F2D",
"j  c #6F4631",
"k  c #644B32",
"l  c #684E36",
"z  c #794631",
"x  c #6D5136",
"c  c #6D523A",
"v  c #705337",
"b  c #77593D",
"n  c #795A3D",
"m  c #72553B",
"M  c #4C5B43",
"N  c #7F5F41",
"B  c #854529",
"V  c #83482F",
"C  c #8C4E36",
"Z  c #944D32",
"A  c #9A5035",
"S  c #935039",
"D  c #9B533A",
"F  c #A5573D",
"G  c #A55A3E",
"H  c #AC5A3F",
"J  c #91623C",
"K  c #AD5B40",
"L  c #B05F42",
"P  c #816144",
"I  c #8D6645",
"U  c #8A6749",
"Y  c #8C694A",
"T  c #936042",
"R  c #926947",
"E  c #936E4D",
"W  c #9E6F4E",
"Q  c #96714F",
"!  c #937351",
"~  c #9C7552",
"^  c #957855",
"/  c #9F7854",
"(  c #A46848",
")  c #A5754D",
"_  c #A8794E",
"`  c #A27B56",
"'  c #A57E58",
"]  c #A87F59",
"[  c #528D6C",
"{  c #A4805A",
"}  c #AC835C",
"|  c #B2885F",
" . c #AB8660",
".. c #AE8962",
"X. c #B38B63",
"o. c #BA8E64",
"O. c #B69067",
"+. c #BA9166",
"@. c #B7956C",
"#. c #BC946A",
"$. c #BE986D",
"%. c #BE9D72",
"&. c #C0825C",
"*. c #C19467",
"=. c #CB9967",
"-. c #C39669",
";. c #C5996A",
":. c #CA9C6D",
">. c #D69568",
",. c #C39C70",
"<. c #C89E70",
"1. c #C2A176",
"2. c #CFA171",
"3. c #CDA778",
"4. c #C6A87B",
"5. c #CCAB7D",
"6. c #D3A473",
"7. c #DAA976",
"8. c #D0AE7F",
"9. c #DCAE7A",
"0. c #DFB27E",
"q. c #E5B37D",
"w. c #7BCB9E",
"e. c #D5B584",
"r. c #DFB581",
"t. c #D8BB8A",
"y. c #E7B680",
"u. c #E9B780",
"i. c #E6B883",
"p. c #EDBA82",
"a. c #E0BD8A",
"s. c #E9BF8A",
"d. c #F2BE85",
"f. c #DDC08F",
"g. c #EDC18A",
"h. c #F5C187",
"j. c #F5C48A",
"k. c #F5C88F",
"l. c #E4C592",
"z. c #E9C792",
"x. c #E3C895",
"c. c #E9CF9B",
"v. c #F4CD94",
"b. c #EDD19B",
"n. c #F5D097",
"m. c #F3D099",
"M. c #F5D199",
"N. c #F5D49D",
"B. c #EFD5A0",
"V. c #F5D7A0",
"C. c #F4DAA3",
"Z. c #F5DDA6",
"A. c #F5DEA7",
"S. c #F5DBA4",
/* pixels */
"                                                                                                                                ",
"                                                                                                                                ",
"                                                                                                                                ",
"                                                                                                                                ",
"                                                                                                                                ",
"                                                                                                                                ",
"                                                                                                                                ",
"                                                                                                                                ",
"                                                                                                                                ",
"                                                                                                                                ",
"                                                      .                                                                         ",
"                                                      .                                                                         ",
"                                                      .                                                                         ",
"                            ~ %.Z.Z.4.~ ~             .                                                                         ",
"                          Z.l.5.@.@.} } e.s.          - ; 5 H                                                                   ",
"                          M.M.a.%.' ..5.v.r.6.        , > 5 H K                                                                 ",
"                          p.d.v.b.X.5.N.p.o.~         , > 5 H K K K                                                             ",
"                          } 9.j.j.y.p.i.X.` ~         , >     K K K K                         j.                                ",
"                            _ ) _ *.;.<.4.....        :         K K K H                     h.h.                                ",
"                            5 5 r R ' $.B.%.@.V.      8 %         A H K H                 k.d.q.                                ",
"        . . .               F F G W ;.g.C.%.o.j.N.Z.  8 # .       3 A K H               Z.v.q.}                                 ",
"              . . .         H S j E :.k.C.%.o.h.3.! o & t V H H B , 6 Z H             C.v.9.o.                                  ",
"              . . .         C f 9 U :.j.M.8.,.7.*.I 2 t C K K K A 6 3 g H             m.0.*.~                                   ",
"                    . $ 8   8 8 0 Y :.h.d.m.t.` 9.>.K K K K H K K H                   p.}                                       ",
"                          8 { } Y :.g.z.+.X.1.f.g.>.K K K D t z ( ) 7.              e.X.                                        ",
"                          8 #.7.*.:.3.5.1.1.e.M.9.&.K K C y 8 *   ` ;.7.          e.1.~                                         ",
"                                7.| ] O.x.c.z.q.' T D D e O & 8 *   ~ *.u.u.u.u.u.o.~                                           ",
"                            , 4 h :.q.7.X. .} ] a @ + + % % 8 8 8 8   } } } } } }                                               ",
"                          , > > 1 J =.p.2.:.} a @ . . . # 8 8 8 8 * 8 l                                                         ",
"                          > > , > > _ q.:.;.Q . . . . . O % % & 8 8 8 8                                                         ",
"                      > , > > >         # # O . . . . . . . . % 8 8 8 * * *                                                     ",
"                    , > > > >               . . . . . . . . . o O O O O % m                                                     ",
"                    u 3 > =                   . . . . . i M q q q q q q a b `                                                   ",
"                  K K u >                           . . [ w.^ Q Q Q Q Q U p } h.                                                ",
"                  K K Z                                 d M p p p p p p c +.q.h.h.                                              ",
"                  K K K                                 ..! ! ! ! ! ! ! { u.h.h.h.j.                                            ",
"                  K H K K K                           k.k.k.k.k.j.h.h.h.h.h.h.h.h.h.p.                                          ",
"                      K K K K H K               h.v.Z.C.C.C.C.C.M.h.h.h.h.h.h.h.h.h.6.~                                         ",
"                        K H K K H       h.h.h.j.v.N.Z.Z.Z.Z.Z.M.v.h.h.h.h.h.h.h.h.h.6.! s & & &                                 ",
"                          K H H L       h.h.h.h.n.N.N.N.N.N.N.k.h.h.h.h.h.h.h.h.h.q.-.E 0 % % & 8                               ",
"                                  h.h.h.h.h.h.h.h.j.j.j.j.j.j.h.h.h.h.h.h.h.h.h.h.o.~ E < . o & 8 * 7                           ",
"                                h.h.h.h.h.h.h.h.h.h.h.h.h.h.h.h.h.h.h.h.h.h.h.q.o.' ~ ~ N k   O % 8 8 * * * * * * * * * 8       ",
"                                h.h.h.h.h.h.h.h.h.h.d.7.6.6.6.u.h.h.h.q.6.6.6.-.~ ~ ~ ~ ~ ~   O # % % % % % % % % % % % 7       ",
"                                p.p.d.h.h.h.d.p.p.p.q.} ~ ~ E :.u.p.p.;.~ ~ ~ ~ ~ ~ ~ ~ ~ ~ ~   . . . . . . . . . . . .         ",
"                                } } 6.h.h.h.9.} } } } / ~   w k P } } ' ~ ~ ~ ~ ~ ~ ~ ~ ~ ~ ~                                   ",
"                                ~ ~ X.:.:.:.o.~ ~ ~ ~ ~       8 w c k k x E ~ ~ ~ ~ ~ ~ ~ ~ ~ ~                                 ",
"                                  ~ ~ ~ ~ ~ ~ ~ ~ ~ ~         * 8 & o . @ n E ~ ~ ~ ~ ~ ~ ~ ~ ~                                 ",
"                                  ~ ~ ~ ~ ~ ~ ~ ~ ~               & o . . O v ~ ~ ~ ~ ~ ~ ~ ~ ~                                 ",
"                                    ~ ~ ~ ~ ~ ~ ~ ~                 X . . . < p p P ~ ~ ~ ~ ~ ~                                 ",
"                                      E P P P P P P                 . . . . . . . b ~ ~ ~ ~ ~ ~ ~                               ",
"                                        8 8 8 8 8 &                     . . . . . n ~ ~ ~ ~ ~ ~ ~ ~                             ",
"                                          8 8 8 8 &                             n E ~ ~ ~ ~ ~ ~ ~ ~                             ",
"                                            7 8 8 8                             ~ ~ ~ ~ ~ ~ ~ ~ ~ ~                             ",
"                                              8 8 8 8 8                           ~ ~ ~ ~ ~ ~ ~ Q Y                             ",
"                                                8 8 8 8                                 ~ ~ ~ ~ c 0 8                           ",
"                                              8 8 8 * 8                                     Y c w 8 *                           ",
"                                              8 * * 8                                         * 8 8 *                           ",
"                                                                                                8 8 8 8 8                       ",
"                                                                                                  8 8 8 8 8                     ",
"                                                                                                  * 8 8 8 8                     ",
"                                                                                                * 8 8 8 8                       ",
"                                                                                                * 8 8                           ",
"                                                                                                  * 7                           ",
"                                                                                                                                "
};
