/* XPM */
static char *run_rev_s_7[] = {
/* columns rows colors chars-per-pixel */
"32 32 198 2 ",
"   c None",
".  c #291D0D",
"X  c #2A1C0C",
"o  c #2A1C0D",
"O  c #2A1D0D",
"+  c #2B1D0D",
"@  c #2B1E0D",
"#  c #2C1F0F",
"$  c #37200E",
"%  c #2E2010",
"&  c #2F2111",
"*  c #322413",
"=  c #302515",
"-  c #332516",
";  c #342516",
":  c #342617",
">  c #3C2514",
",  c #372817",
"<  c #352618",
"1  c #372919",
"2  c #39291B",
"3  c #382A1B",
"4  c #3E2B18",
"5  c #382D1A",
"6  c #3A2B1D",
"7  c #3C2C1E",
"8  c #3D2D1E",
"9  c #3E2F21",
"0  c #3F2F21",
"q  c #3F2F22",
"w  c #333723",
"e  c #3F3022",
"r  c #3F3122",
"t  c #393623",
"y  c #572B0F",
"u  c #562B10",
"i  c #572B10",
"p  c #532B14",
"a  c #5D2F14",
"s  c #44311D",
"d  c #44321C",
"f  c #48341F",
"g  c #5E3215",
"h  c #69351A",
"j  c #402F21",
"k  c #402F22",
"l  c #412F23",
"z  c #403021",
"x  c #403022",
"c  c #403122",
"v  c #473626",
"b  c #483021",
"n  c #483526",
"m  c #4A3727",
"M  c #4E3A29",
"N  c #4F3B2A",
"B  c #5D3724",
"V  c #723A20",
"C  c #484029",
"Z  c #59442E",
"A  c #5D4631",
"S  c #4E5138",
"D  c #7D4125",
"F  c #684D34",
"G  c #6C5035",
"H  c #735539",
"J  c #71563C",
"K  c #76593E",
"L  c #7D5E42",
"P  c #7C5F43",
"I  c #426247",
"U  c #606A4B",
"Y  c #646E4E",
"T  c #7C6042",
"R  c #7D6143",
"E  c #7E6042",
"W  c #8D492E",
"Q  c #8F4A30",
"!  c #884B34",
"~  c #8B4E36",
"^  c #8E5032",
"/  c #99583E",
"(  c #A5583E",
")  c #A8593E",
"_  c #AA5A3F",
"`  c #AC5A3F",
"'  c #AD5A3F",
"]  c #AD5B3F",
"[  c #AC5A40",
"{  c #AD5A40",
"}  c #AC5B40",
"|  c #AE5B40",
" . c #856043",
".. c #866447",
"X. c #916242",
"o. c #906C4B",
"O. c #916F4C",
"+. c #92714C",
"@. c #97724F",
"#. c #98714F",
"$. c #977350",
"%. c #987250",
"&. c #9B7451",
"*. c #9B7452",
"=. c #9B7552",
"-. c #9C7552",
";. c #9D7552",
":. c #9C7553",
">. c #9C7652",
",. c #9C7653",
"<. c #9E7653",
"1. c #9E7B56",
"2. c #AA694A",
"3. c #A6774D",
"4. c #A37A55",
"5. c #A57D57",
"6. c #69906E",
"7. c #A88059",
"8. c #A8815A",
"9. c #AB875B",
"0. c #AB835C",
"q. c #AC835D",
"w. c #AD845C",
"e. c #AD875F",
"r. c #B7805A",
"t. c #B3895F",
"y. c #AB8660",
"u. c #AD8A63",
"i. c #B78C62",
"p. c #B68E63",
"a. c #B08D65",
"s. c #B48D65",
"d. c #B98D63",
"f. c #BB8F64",
"g. c #BB9369",
"h. c #C19364",
"j. c #C39669",
"k. c #C4976A",
"l. c #D89D6E",
"z. c #C09E72",
"x. c #C49E71",
"c. c #D3A36F",
"v. c #C3A377",
"b. c #C7A477",
"n. c #C8A072",
"m. c #D3A271",
"M. c #D3A672",
"N. c #D2A675",
"B. c #D5A674",
"V. c #D5A775",
"C. c #D8A776",
"Z. c #DAAA76",
"A. c #DBAA77",
"S. c #D9AD7B",
"D. c #DFAE7A",
"F. c #DCAC7E",
"G. c #DBB07E",
"H. c #E0B07B",
"J. c #E0B07C",
"K. c #E2B27C",
"L. c #73EEBC",
"P. c #CCAD80",
"I. c #D1B182",
"U. c #D3B182",
"Y. c #D8B180",
"T. c #DEB986",
"R. c #D6B888",
"E. c #D9BC8C",
"W. c #E0B884",
"Q. c #E6BA84",
"!. c #E7BA84",
"~. c #EAB880",
"^. c #EEBB83",
"/. c #EFBC84",
"(. c #EFBF87",
"). c #E6BF8A",
"_. c #F1BD84",
"`. c #ECC58F",
"'. c #F4C086",
"]. c #F5C186",
"[. c #F4C187",
"{. c #F5C187",
"}. c #F6C188",
"|. c #F5C389",
" X c #F5C48A",
".X c #F5C68D",
"XX c #F5C78E",
"oX c #E2C390",
"OX c #F5C990",
"+X c #F5CA92",
"@X c #F6CB92",
"#X c #F5CF97",
"$X c #F2D29A",
"%X c #F5D39A",
"&X c #F5D59D",
"*X c #F5D69E",
"=X c #F5D8A0",
"-X c #F5DBA4",
/* pixels */
"                                                                ",
"                                                                ",
"                                                                ",
"                                                                ",
"                      X                                         ",
"          v.E.y.x.    $                                         ",
"        @X`.a.U.G.    y h [ [                                   ",
"        t.c.B.S.e.    p     [ [       $XH.K.oX                  ",
"          D X.n.P.T.  q     W `     *XN.-.-.u.P.                ",
"    X     ~  .Q.U.B.1.b ! [ V ^ F.W.s.                          ",
"      =   J $.Q.Y.b.l._ ( / 2.m.C.q.                            ",
"          A.k.z.R.).r._ B N E                                   ",
"          g 3.A.g.O.4 > 8 x x                                   ",
"        u u u h.+.d X X ; 6 x x k                               ",
"      a y         X X X X # = t F ..    q 8 8 8 q r             ",
"    [ Q               X C I S 6.L E Z 3 < X X X 1 3 3           ",
"    ` [ `               U L.Y p.K.{.M.9.                        ",
"        ` `           -.E w 5 8.^.{. X.X{.                      ",
"                =.-.-.-.o.f # N 0./.#X-X@X|.{.                  ",
"          -.-.-.-.-.-.-.-.G & ; K d./.@X=X*X|.{.{.{.    k k     ",
"        -.-.-.-.-.-.-.-.-.=.d & x L f.A..X%X|.{.{.~.8.m r x x   ",
"        A %.-.-.-.-.-.-.-.=.  X & , H =.p.D._._.j.e.@.m         ",
"      x v #.-.-.-.=.=.-.        X X * f =.4.5.5.-.-.            ",
"  x x x                                                         ",
"  x                                                             ",
"                                                                ",
"                                                                ",
"                                                                ",
"                                                                ",
"                                                                ",
"                                                                ",
"                                                                "
};
