/* XPM */
static char *run_rev_6[] = {
/* columns rows colors chars-per-pixel */
"32 32 218 2 ",
"   c None",
".  c #291C0C",
"X  c #291D0D",
"o  c #2A1D0D",
"O  c #2C1F10",
"+  c #2E2010",
"@  c #302111",
"#  c #312312",
"$  c #312313",
"%  c #332413",
"&  c #322314",
"*  c #322414",
"=  c #332515",
"-  c #342515",
";  c #302917",
":  c #3A2917",
">  c #352718",
",  c #3B2B18",
"<  c #392A1B",
"1  c #3C2C19",
"2  c #392B1C",
"3  c #3C2C1D",
"4  c #3C2D1E",
"5  c #3E2E1F",
"6  c #3E2F20",
"7  c #3F2F21",
"8  c #3F2F22",
"9  c #3F3022",
"0  c #562A0F",
"q  c #572B10",
"w  c #572B12",
"e  c #603015",
"r  c #65371A",
"t  c #402F21",
"y  c #403022",
"u  c #423123",
"i  c #453423",
"p  c #463525",
"a  c #473525",
"s  c #4A3625",
"d  c #4F3A26",
"f  c #4B3828",
"g  c #4D3A28",
"h  c #553420",
"j  c #503C2A",
"k  c #6B3F28",
"l  c #693F2C",
"z  c #57422F",
"x  c #5F402C",
"c  c #5F5036",
"v  c #7E4126",
"b  c #634A31",
"n  c #654C32",
"m  c #674E37",
"M  c #6C4E36",
"N  c #714933",
"B  c #6A5037",
"V  c #695038",
"C  c #77583D",
"Z  c #77593E",
"A  c #795B3F",
"S  c #7A5C3D",
"D  c #4A7558",
"F  c #686A4D",
"G  c #6C6E4F",
"H  c #834428",
"J  c #844529",
"K  c #8B482D",
"L  c #895137",
"P  c #835937",
"I  c #8A5539",
"U  c #985137",
"Y  c #965038",
"T  c #9F5338",
"R  c #9E5B3C",
"E  c #A7583C",
"W  c #A35C3F",
"Q  c #A8583D",
"!  c #A8593E",
"~  c #AC5A3F",
"^  c #AD5A3F",
"/  c #AD5B3F",
"(  c #955E41",
")  c #AD5B40",
"_  c #816142",
"`  c #886647",
"'  c #866748",
"]  c #826B4C",
"[  c #896948",
"{  c #8A6848",
"}  c #8C6A49",
"|  c #8D6C4A",
" . c #9B6842",
".. c #9F6C47",
"X. c #91704F",
"o. c #94724E",
"O. c #96724F",
"+. c #997350",
"@. c #9D7351",
"#. c #9C7552",
"$. c #9D7652",
"%. c #9D7653",
"&. c #9B7A55",
"*. c #9C7954",
"=. c #9F7854",
"-. c #947C59",
";. c #9C7D59",
":. c #A66446",
">. c #A96044",
",. c #AA6044",
"<. c #AD6A4B",
"1. c #B46547",
"2. c #B96C4C",
"3. c #A8784E",
"4. c #A87A56",
"5. c #A67F59",
"6. c #A87F59",
"7. c #B97C56",
"8. c #77815E",
"9. c #A6805A",
"0. c #A88059",
"q. c #A8835C",
"w. c #AB845C",
"e. c #B48457",
"r. c #B1885F",
"t. c #B2885F",
"y. c #938662",
"u. c #AF8760",
"i. c #AF8961",
"p. c #B28960",
"a. c #B58B61",
"s. c #B48C62",
"d. c #BA8F65",
"f. c #BD9166",
"g. c #B7936A",
"h. c #BE9368",
"j. c #BC976C",
"k. c #C19668",
"l. c #C6996B",
"z. c #C49A6C",
"x. c #C69C6E",
"c. c #C89C6D",
"v. c #C89D6F",
"b. c #DC9D6E",
"n. c #C09C70",
"m. c #C89E70",
"M. c #C89F71",
"N. c #C1A074",
"B. c #C6A275",
"V. c #CAA072",
"C. c #CAA577",
"Z. c #CEA676",
"A. c #C5A579",
"S. c #C9A678",
"D. c #CCA779",
"F. c #CEA97A",
"G. c #CEAA7A",
"H. c #D1A372",
"J. c #D1A373",
"K. c #D1A473",
"L. c #D3A473",
"P. c #D3A573",
"I. c #D0A777",
"U. c #D5A674",
"Y. c #D6A674",
"T. c #DDA876",
"R. c #D6AB7A",
"E. c #D1AC7C",
"W. c #DAAB78",
"Q. c #DBAD79",
"!. c #D9AC7A",
"~. c #DCAD78",
"^. c #DEB37F",
"/. c #E0B07B",
"(. c #E1B27D",
"). c #E6B57E",
"_. c #E7B57E",
"`. c #70AA82",
"'. c #78BC91",
"]. c #D1AF80",
"[. c #DDB683",
"{. c #D9BC8B",
"}. c #E6B781",
"|. c #E3B984",
" X c #EAB881",
".X c #EBB981",
"XX c #EFBC84",
"oX c #E2BF8B",
"OX c #E7BF89",
"+X c #F2BE85",
"@X c #F2BF86",
"#X c #F3BF86",
"$X c #E6C08B",
"%X c #E7C08C",
"&X c #E7C28E",
"*X c #E7C48F",
"=X c #EAC08A",
"-X c #F3C086",
";X c #F4C087",
":X c #F5C187",
">X c #F0C289",
",X c #F5C288",
"<X c #F4C289",
"1X c #F5C389",
"2X c #F6C288",
"3X c #F7C288",
"4X c #F5C68C",
"5X c #F5C68D",
"6X c #E8C792",
"7X c #F1C891",
"8X c #F5CA90",
"9X c #F6CC93",
"0X c #F5CC94",
"qX c #F4CD94",
"wX c #F5D39B",
"eX c #F5D59E",
"rX c #F6D8A0",
"tX c #F5DAA3",
/* pixels */
"                                                                ",
"                                                                ",
"                                                                ",
"                                                                ",
"                                                                ",
"                                                                ",
"              {.A.                                              ",
"            *XS.g.E.      w R b.T.!.OX                          ",
"            (.^.R.I.u.    P 7.1.<.4.x.$X                        ",
"             ...f.C.n.qXN.X.d.W ! ~   V.%X                      ",
"              I h.oXM.[.;.x L J H E     c.%X                    ",
"            N M z.=XF.c.( Y ! T v         M.|.}.6X              ",
"            &.s.Z.F.].!.2.U l               a.p.j.              ",
"              3.l.D.B.} k h 5 9                                 ",
"            0 r e.k.| : o * 5 t y j                             ",
"          w w       1 o o o @ 2 i B '                           ",
"        K e           o o ; c G F C q.;X                        ",
"      ) ~                 `.'.y.-.*./.,X+X9.                    ",
"        ) ) ~       #.  #.8.D ] _.XX,XqX9XQ.m                   ",
"          >.>.:.@.#.#.#.#.b O V J.-X,XwXtX7Xi.z 8               ",
"            @.@.#.#.#.#.#.n O d O.K.-X4XeXtX>X{ 5 8             ",
"          #.#.#.#.#.#.#.#._ , - A 0.K.+X4X8X,Xo.* > 8           ",
"          #.#.#.#.#.#.#.    % & s   5.K.+X;X;X~.S @ , y         ",
"          #.#.#.#.#.#.        + @     6.U.+X,X;X X              ",
"            +.{ ` `           o o o       U._.;X,X              ",
"              f a a             o           t.J. X              ",
"                8 9 y                         *.t.w.            ",
"                  y y                           A g             ",
"                  9                               y y           ",
"                                                  y y           ",
"                                                  y y           ",
"                                                                "
};
