/* XPM */
static const char *cnVuXzg_[] = {
/* columns rows colors chars-per-pixel */
"64 64 185 2 ",
"   c #2A1D0D",
".  c #2F210F",
"X  c #2D2111",
"o  c #2F2917",
"O  c #322414",
"+  c #3A2715",
"@  c #382815",
"#  c #342A1A",
"$  c #3B2B1C",
"%  c #362816",
"&  c #3E2E20",
"*  c #3F3022",
"=  c #343824",
"-  c #572B0F",
";  c #4F2910",
":  c #442D1C",
">  c #572B10",
",  c #592D12",
"<  c #47341E",
"1  c #54321E",
"2  c #5C3014",
"3  c #633317",
"4  c #6A361C",
"5  c #663419",
"6  c #713A1E",
"7  c #402F22",
"8  c #413022",
"9  c #493626",
"0  c #4E3923",
"q  c #493728",
"w  c #4C3828",
"e  c #533C26",
"r  c #5B3925",
"t  c #533D2A",
"y  c #563622",
"u  c #663C28",
"i  c #773D22",
"p  c #7A3E23",
"a  c #39422C",
"s  c #45452E",
"d  c #52432B",
"f  c #5A432C",
"g  c #5F4A2F",
"h  c #5C4531",
"j  c #5E4832",
"k  c #44583E",
"l  c #5A563E",
"z  c #6E4122",
"x  c #78452B",
"c  c #7F512F",
"v  c #634C33",
"b  c #694F34",
"n  c #744530",
"m  c #7F4731",
"M  c #754C36",
"N  c #6D5236",
"B  c #6D573D",
"V  c #70543A",
"C  c #75583C",
"Z  c #7A5D3D",
"A  c #7D573D",
"S  c #7C5E42",
"D  c #775C40",
"F  c #486448",
"G  c #58674A",
"H  c #496F51",
"J  c #547657",
"K  c #7C6043",
"L  c #7E6848",
"P  c #786F50",
"I  c #697455",
"U  c #804127",
"Y  c #84452A",
"T  c #804C2E",
"R  c #8E4C34",
"E  c #804C33",
"W  c #954E33",
"Q  c #865A3B",
"!  c #8E5C3D",
"~  c #9C5136",
"^  c #96523A",
"/  c #9A533A",
"(  c #995838",
")  c #945C3F",
"_  c #A3563C",
"`  c #AC5A3F",
"'  c #93653F",
"]  c #825E42",
"[  c #915F43",
"{  c #AD5B40",
"}  c #826244",
"|  c #8C6A4A",
" . c #836F4E",
".. c #926D4C",
"X. c #976B45",
"o. c #96714F",
"O. c #9C7552",
"+. c #9D7A55",
"@. c #A26243",
"#. c #A96545",
"$. c #B36D4C",
"%. c #A3724D",
"&. c #AF744D",
"*. c #B7704D",
"=. c #A37A55",
"-. c #A67E58",
";. c #A87F5A",
":. c #A67852",
">. c #608866",
",. c #6F8B68",
"<. c #7B8563",
"1. c #6A9672",
"2. c #AC845C",
"3. c #AD895E",
"4. c #B1865E",
"5. c #B8865C",
"6. c #8D8662",
"7. c #988963",
"8. c #87936E",
"9. c #AB8660",
"0. c #AE8962",
"q. c #B38B62",
"w. c #B98E63",
"e. c #BE9266",
"r. c #BD966B",
"t. c #BD996D",
"y. c #B7946B",
"u. c #BE9E72",
"i. c #80A17A",
"p. c #B8A075",
"a. c #C08F5F",
"s. c #C0865C",
"d. c #C58F64",
"f. c #C29365",
"g. c #C39569",
"h. c #C4996B",
"j. c #CC9D6E",
"k. c #D3986A",
"l. c #C39E72",
"z. c #D19F70",
"x. c #D1A16F",
"c. c #C4A275",
"v. c #CDA273",
"b. c #CAA678",
"n. c #CCAB7D",
"m. c #D3A474",
"M. c #DAAA76",
"N. c #D0A778",
"B. c #D3AB7B",
"V. c #DBAE7B",
"C. c #D6A876",
"Z. c #D7B07F",
"A. c #DDB07C",
"S. c #E1AE7A",
"D. c #E2B27D",
"F. c #E8B67F",
"G. c #64A780",
"H. c #6AB68D",
"J. c #70B088",
"K. c #6ABC91",
"L. c #CEAF81",
"P. c #CFB081",
"I. c #D4B384",
"U. c #DBB483",
"Y. c #DCBB8A",
"T. c #D8B987",
"R. c #E9B780",
"E. c #E6BA85",
"W. c #ECBB83",
"Q. c #E2BE8B",
"!. c #EBBF88",
"~. c #F1BE85",
"^. c #EBC28C",
"/. c #E6C28D",
"(. c #F5C187",
"). c #F5C389",
"_. c #F5C88F",
"`. c #EAC591",
"'. c #E9CB96",
"]. c #F5CA91",
"[. c #ECD39E",
"{. c #F5D59D",
"}. c #F6D9A2",
"|. c None",
" X c black",
/* pixels */
"|.|.|.|.|.|.|.|.|.|.|.|.|.|.|.|.|.|.|.|.|.|.|.|.|.|.|.|.|.|.|.|.|.|.|.|.|.|.|.|.|.|.|.|.|.|.|.|.|.|.|.|.|.|.|.|.|.|.|.|.|.|.|.|.",
"|.|.|.|.|.|.|.|.|.|.|.|.|.|.|.|.|.|.|.|.|.|.|.|.|.|.|.|.|.|.|.|.|.|.|.|.|.|.|.|.|.|.|.|.|.|.|.|.|.|.|.|.|.|.|.|.|.|.|.|.|.|.|.|.",
"|.|.|.|.|.|.|.|.|.|.|.|.|.|.|.|.|.|.|.|.|.|.|.|.|.|.|.|.|.|.|.|.|.|.|.|.|.|.|.|.|.|.|.|.|.|.|.|.|.|.|.|.|.|.|.|.|.|.|.|.|.|.|.|.",
"|.|.|.|.|.|.|.|.|.|.|.|.|.|.|.|.|.|.|.|.|.|.|.|.|.|.|.|.|.|.|.|.|.|.|.|.|.|.|.|.|.|.|.|.|.|.|.|.|.|.|.|.|.|.|.|.|.|.|.|.|.|.|.|.",
"|.|.|.|.|.|.|.|.|.|.|.|.|.|.|.|.|.|.|.|.|.|.|.|.|.|.|.|.|.|.|.|.|.|.|.|.|.|.|.|.|.|.|.|.|.|.|.|.|.|.|.|.|.|.|.|.|.|.|.|.|.|.|.|.",
"|.|.|.|.|.|.|.|.|.|.|.|.|.|.|.|.|.|.|.|.|.|.|.|.|.|.|.|.|.|.|.|.|.|.|.|.|.|.|.|.|.|.|.|.|.|.|.|.|.|.|.|.|.|.|.|.|.|.|.|.|.|.|.|.",
"|.|.|.|.|.|.|.|.|.|.|.|.|.|.|.|.|.|.|.|.|.|.|.|.|.|.|.|.|.|.|.|.|.|.|.|.|.|.|.|.|.|.|.|.|.|.|.|.|.|.|.|.|.|.|.|.|.|.|.|.|.|.|.|.",
"|.|.|.|.|.|.|.|.|.|.|.|.|.|.|.|.|.|.|.|.|.|.|.|.|.|.|.|.|.|.|.|.|.|.|.|.|.|.|.|.|.|.|.|.|.|.|.|.|.|.|.|.|.|.|.|.|.|.|.|.|.|.|.|.",
"|.|.|.|.|.|.|.|.|.|.|.|.|.|.|.|.|.|.|.|.|.|.|.|.|.|.|.|.|.|.|.|.|.|.|.|.|.|.|.|.|.|.|.|.|.|.|.|.|.|.|.|.|.|.|.|.|.|.|.|.|.|.|.|.",
"|.|.|.|.|.|.|.|.|.|.|.|.|.|.|.|.|.|.|.|.|.|.|.|.|.|.|.|.|.|.|.|.|.|.|.|.|.|.|.|.|.|.|.|.|.|.|.|.|.|.|.|.|.|.|.|.|.|.|.|.|.|.|.|.",
"|.|.|.|.|.|.|.|.|.|.|.|.|.|.|.|.|.|.|.|.|.|.|.|.|.|.|.|.|.|.|.|.|.|.|.|.|.|.|.|.|.|.|.|.|.|.|.|.|.|.|.|.|.|.|.|.|.|.|.|.|.|.|.|.",
"|.|.|.|.|.|.|.|.|.|.|.|.|.|.|.|.|.|.|.|.|.|.|.|.|.|.|.|.|.|.|.|.|.|.|.|.|.|.|.|.|.|.|.|.|.|.|.|.|.|.|.|.|.|.|.|.|.|.|.|.|.|.|.|.",
"|.|.|.|.|.|.|.|.|.|.|.|.|.|.|.|.|.|.|.|.|.|.|.|.|.|.|.|.|.|.|.|.|.|.|.|.|.|.|.|.|.|.|.|.|.|.|.|.|.|.|.|.|.|.|.|.|.|.|.|.|.|.|.|.",
"|.|.|.|.|.|.|.|.|.|.|.|.|.|.|.|.|.|.|.|.|.|.|.|.|.|.|.|.|.|.|.|.|.|.|.|.|.|.|.|.|.|.|.y.9.q.n.I.c.u.|.|.|.|.|.|.|.|.|.|.|.|.|.|.",
"|.|.|.|.|.|.|.|.|.|.|.|.|.|.|.|.|.|.|.|.|.|.|.|.|.|.|.|.|.|.|.|.|.R 5 > ; |.|.|.|.|.`.I.q.-.9.t.T.'.[.|.|.|.|.|.|.|.|.|.|.|.|.|.",
"|.|.|.|.|.|.|.|.|.|.|.|.|.|.|.|.|.|.|.|.|.|.|.|.|.|.|.|.|.|.|.|.{ W 4 > > |.|.|.|.|./.U.h.q.0.t.Q.{.'.|.|.|.|.|.|.|.|.|.|.|.|.|.",
"|.|.|.|.|.|.|.|.|.|.|.Y.I.L.L.T.`.|.|.|.|.|.|.|.|.|.|.|.|.|.` { { W 4 > > |.|.|.|.|.v.N.Z.Z.N.V.!.^.U.|.|.|.|.|.|.|.|.|.|.|.|.|.",
"|.|.|.|.|.|.|.|.|.|.|.Y.P.n.n.I.Q.^.|.|.|.|.|.|.|.|.|.|.|.` { { { ~ |.|.|.|.|.|.|.r.h.v.V.Z.b.v.x.x.j.|.|.|.|.|.|.|.|.|.|.|.|.|.",
"|.|.|.|.|.|.|.|.|.|.|.|.|.|.|.c.N.V.W.).|.|.|.|.|.|.|.|.{ { { { |.|.|.|.|.|.|.|.P.P.n.b.t.q.=.X.' ' |.|.|.|.|.|.|.|.|.|.|.|.|.|.",
"|.|.|.|.|.|.|.|.|.|.|.|.|.|.|.|.h.m.D.W.|.|.|.|.|.|.|.` ` _ ~ ~ |.|.|.|.|.|.|.|.T.T.T.L.t.2.X.Q T x |.|.|.|.|.|.|.|.|.|.|.|.|.|.",
"|.|.|.|.|.|.|.|.|.|.|.|.|.|.|.|.|.g.C.D.W.|.|.|.|.|.|._ _ W U i |.|.1 : : B p.Y.V.U.Y.Y.V.g.%.) / / |.|.|.|.|.|.|.|.  |.|.|.|.|.",
"|.|.|.|.|.|.|.|.|.|.|.|.|.|.|.|.|.|.j.C.D.E.|.|.|.|.|.*.#.( U p W R u u r S u.I.C.B.Y.Q.E.z.%.! ^ ^ |.|.|.|.|.|.|.|.  |.|.|.|.|.",
"|.|.|.|.|.|.|.|.|.|.|.|.|.|.|.|.|.|.|.h.v.V.`.{.}.`.S.k.s.&.( W _ _ ^ R m [ e.m.v.N.Q.^.E.j...M M n |.|.|.|.|.|.|.|.|.|.|.|.|.|.",
"|.|.|.|.|.|.|.|.|.|.|.|.|.|.|.|.|.|.|.|.h.v.I.Y.Y.U.C.j.f.5.@.~ ^ / _ _ ^ @.d.m.b.b.Z.U.E.b.+.] ] A |.|.|.|.|.|.|.|.|.|.|.|.|.|.",
"|.|.|.|.|.|.|.|.|.|.|.|.|.|.|.|.|.|.|.|.|.q.q.0.0.0.2.2.|.|.|.|.u n ^ _ _ $.k.A.U.n.t.l.Y.Y.e.q.g.q.C |.|.|.|.|.|.|.|.|.|.|.|.|.",
"|.|.|.|.|.|.|.|.|.|.|.|.|.|.|.|.|.|.|.|.|.|.O.O.O.O.O.O.|.|.|.|.8 e x R ^ #.5.v.B.n.y.t.I.U.v.h.m.f.S |.|.|.|.|.|.|.|.|.|.|.|.|.",
"|.|.|.|.|.|.|.|.|.|.|.|.|.|.|.|.|.|.|.|.|.|.|.|.|.|.|.|.|.|.|.8 * 8 y r x E Q O.r.b.c.c.b.v.e.5.%.|.|.|.|.|.|.|.|.|.|.|.|.|.|.|.",
"|.|.|.|.|.|.|.|.|.|.|.|.|.|.|.|.|.|.|.|.|.|.|.|.|.|.|.|.|.|.8 8 * & $ : 1 r r N +.e.b.N.v.f.:.X.x , |.|.|.|.|.|.|.|.|.|.|.|.|.|.",
"|.|.|.|.  O $ 8 8 8 |.|.|.|.|.|.|.|.|.|.|.|.|.|.|.|.|.|.8 8 8 * * & $ $ + @ @ 0 C +.v.D.M.f.! z 3 , > |.|.|.|.|.|.|.|.|.|.|.|.|.",
"|.|.|.|.  O $ $ & & |.|.|.|.|.|.|.|.|.|.|.|.|.|.|.|.|.& & & & & $ $ $ % X     @ e Z 2.j.C.a.c 2 , > > - |.|.|.|.|.|.|.|.|.|.|.|.",
"|.|.|.|.|.|.% # $ $ & * |.|.|.|.|.|.|.|.|.|.|.|.|.|.8 $ $ $ $ $ % O O X       . @ < f C |.|.|.|., > > , |.|.|.|.|.|.|.|.|.|.|.|.",
"|.|.|.|.|.|.|.O # $ $ $ $ |.|.|.|.|.|.|.|.|.|.|.|.v e 9 9 8 $ O O                     |.|.|.|.|.|.> > , 3 |.|.|.|.|.|.|.|.|.|.|.",
"|.|.|.|.|.|.|.|.|.O O % O O O % # $ & 8 * 8 8 w h v b b b f $ X               |.|.|.|.|.|.|.|.|.|.|.> 3 i Y ~ |.|.|.|.|.|.|.|.|.",
"|.|.|.|.|.|.|.|.|.|.O O O O O O % # $ $ & 9 j V S S C V V v s = o X X X     |.|.|.|.|.|.|.|.|.|.|.|.|.6 Y W _ |.|.|.|.|.|.|.|.|.",
"|.|.|.|.|.|.|.|.|.|.|.|.|.|.|.|.|.O X O $ f | 2.e.2.D h h l J H a # # # |.|.|.|.|.|.|.|.|.|.|.|.|.|.|.|.~ _ ` { |.|.|.|.|.|.|.|.",
"|.|.|.|.|.|.|.|.|.|.|.|.|.|.|.|.|.|.  X $ j +.j.D.v.O.K K P ,.>.F k F F |.|.|.|.|.|.|.|.|.|.|.|.|.|.|.|.{ { { { |.|.|.|.|.|.|.|.",
"|.|.|.|.|.|.|.|.|.|.|.|.|.|.|.|.|.|.|.|.O v 2.m.R.R.C.v.v.r.7.<.1.G.H.K.|.|.|.|.|.|.|.|.|.|.|.|.|.|.` { { { { |.|.|.|.|.|.|.|.|.",
"|.|.|.|.|.|.|.|.|.|.|.|.|.|.|.|.|.|.|.|.|.|.f.A.W.).).).).D.e.7.i.J.H.H.8.|.|.|.|.|.|.|.|.|.|.|.{ { { { { |.|.|.|.|.|.|.|.|.|.|.",
"|.|.|.|.|.|.|.|.|.|.|.|.|.|.|.|.|.|.|.|.|.|.V.W.(.).]._.).W.D.u.6.I G G  .O.|.|.|.|.|.|.|.|.|.{ { { { { |.|.|.|.|.|.|.|.|.|.|.|.",
"|.|.|.|.|.|.|.|.|.|.|.|.|.|.|.|.|.|.|.|.|.|.).).)._.].]._.(.~.V.0.L d d } O.|.|.|.|.|.|.|.|.|.|.{ { { |.|.|.|.|.|.|.|.|.|.|.|.|.",
"|.|.|.|.|.|.|.|.|.|.|.|.|.|.|.|.|.|.|.|.|.|.(.(.)._.{.{._.).(.W.V.3.g e } O.O.O.|.|.|.|.|.|.|.|.|.|.|.|.|.|.|.|.|.|.|.|.|.|.|.|.",
"|.|.|.|.|.|.|.|.|.|.|.|.|.|.|.|.|.|.|.|.|.|.(.).).].{.{.].).).(.(.h.v 0 } O.O.O.O.|.|.|.|.|.|.|.|.|.|.|.|.|.|.|.|.|.|.|.|.|.|.|.",
"|.|.|.|.|.|.|.|.|.|.|.|.|.|.|.|.|.|.|.|.|.(.(.).).].{.{.].).).(.(.h.v 0 } O.O.O.O.O.|.|.|.|.|.|.|.|.|.|.|.|.|.|.|.|.|.|.|.|.|.|.",
"|.|.|.|.|.|.|.|.|.|.|.|.|.|.|.|.|.|.|.|.).(.(.(.).].{.{.].).).(.~.h.b e } O.O.O.O.O.|.|.|.|.|.|.|.|.|.|.|.|.|.|.|.|.|.|.|.|.|.|.",
"|.|.|.|.|.|.|.|.|.|.|.|.|.|.|.|.|.|.|.|.(.(.(.(.).].{.{.].).).~.~.g.N f } O.O.O.O.O.|.|.|.|.|.|.|.|.|.|.|.|.|.|.|.|.|.|.|.|.|.|.",
"|.|.|.|.|.|.|.|.|.|.|.|.|.|.|.|.|.|.|.|.(.(.(.(.)._.{.{._.).~.W.S.e.Z b | O.O.O.O.O.O.|.|.|.|.|.|.|.|.|.|.|.|.|.|.|.|.|.|.|.|.|.",
"|.|.|.|.|.|.|.|.|.|.|.|.|.|.|.|.|.|.(.(.(.(.(.(.(.).].].).(.W.V.h.2...| o.O.O.O.O.O.O.O.|.|.|.|.|.|.|.|.|.|.|.|.|.|.|.|.|.|.|.|.",
"|.|.|.|.|.|.|.|.|.|.|.|.|.|.|.|.|.|.(.(.(.(.(.(.(.).).).).W.V.h.4.=.O.O.O.O.O.O.O.O.O.O.|.|.|.|.|.|.|.|.|.|.|.|.|.|.|.|.|.|.|.|.",
"|.|.|.|.|.|.|.|.|.|.|.|.|.|.|.|.|.|.(.(.).(.(.(.(.(.).).).D.g.2.=.O.O.O.O.O.O.O.O.O.O.O.|.|.|.|.|.|.|.|.|.|.|.|.|.|.|.|.|.|.|.|.",
"|.|.|.|.|.|.|.|.|.|.|.|.|.|.|.|.|.~.(.(.(.(.(.(.(.~.W.R.D.m.4.O.O.O.O.O.O.O.O.O.O.O.O.O.|.|.|.|.|.|.|.|.|.|.|.|.|.|.|.|.|.|.|.|.",
"|.|.|.|.|.|.|.|.|.|.|.|.|.|.|.|.C.R.~.(.(.(.(.(.(.W.D.m.g.q.-.O.|.|.O.O.O.O.O.O.O.O.O.O.|.|.|.|.|.|.|.|.|.|.|.|.|.|.|.|.|.|.|.|.",
"|.|.|.|.|.|.|.|.|.|.|.|.|.|.q } e.C.S.F.~.(.(.~.F.C.j.e.2.=.|.|.|.|.O.O.O.O.O.O.O.O.O.O.|.|.|.|.|.|.|.|.|.|.|.|.|.|.|.|.|.|.|.|.",
"|.|.|.|.|.|.|.|.|.8 7 8 8 8 8 v +.w.e.v.F.(.(.F.j.w.4.;.=.|.|.|.|.|.|.O.O.O.O.O.O.O.O.O.|.|.|.|.|.|.|.|.|.|.|.|.|.|.|.|.|.|.|.|.",
"|.|.|.|.|.|.|.|.7 7 8 8 8 8 8 h | ;.2.w.C.S.V.m.w.-.=.O.|.|.|.|.|.|.|.|.O.O.O.O.O.O.O.O.|.|.|.|.|.|.|.|.|.|.|.|.|.|.|.|.|.|.|.|.",
"|.|.|.|.|.|.|.|.* 8 8 8 8 8 |.|.|.|.-.;.4.q.4.2.-.=.O.|.|.|.|.|.|.|.|.|.|.O.O.O.O.O.O.O.|.|.|.|.|.|.|.|.|.|.|.|.|.|.|.|.|.|.|.|.",
"|.|.|.|.|.|.|.|.8 * * * 8 |.|.|.|.|.|.O.O.O.O.O.O.O.|.|.|.|.|.|.|.|.|.|.|.|.O.o.....o.O.|.|.|.|.|.|.|.|.|.|.|.|.|.|.|.|.|.|.|.|.",
"|.|.|.|.|.|.|.|.8 * * |.|.|.|.|.|.|.|.|.|.|.O.O.O.|.|.|.|.|.|.|.|.|.|.|.|.|.|.|.C C S |.|.|.|.|.|.|.|.|.|.|.|.|.|.|.|.|.|.|.|.|.",
"|.|.|.|.|.|.|.|.|.8 |.|.|.|.|.|.|.|.|.|.|.|.|.|.|.|.|.|.|.|.|.|.|.|.|.|.|.|.|.|.h h t |.|.|.|.|.|.|.|.|.|.|.|.|.|.|.|.|.|.|.|.|.",
"|.|.|.|.|.|.|.|.|.|.|.|.|.|.|.|.|.|.|.|.|.|.|.|.|.|.|.|.|.|.|.|.|.|.|.|.|.|.|.|.9 9 8 8 8 7 |.|.|.|.|.|.|.|.|.|.|.|.|.|.|.|.|.|.",
"|.|.|.|.|.|.|.|.|.|.|.|.|.|.|.|.|.|.|.|.|.|.|.|.|.|.|.|.|.|.|.|.|.|.|.|.|.|.|.|.8 8 7 * 8 8 |.|.|.|.|.|.|.|.|.|.|.|.|.|.|.|.|.|.",
"|.|.|.|.|.|.|.|.|.|.|.|.|.|.|.|.|.|.|.|.|.|.|.|.|.|.|.|.|.|.|.|.|.|.|.|.|.|.|.|.|.8 8 7 8 7 |.|.|.|.|.|.|.|.|.|.|.|.|.|.|.|.|.|.",
"|.|.|.|.|.|.|.|.|.|.|.|.|.|.|.|.|.|.|.|.|.|.|.|.|.|.|.|.|.|.|.|.|.|.|.|.|.|.|.|.|.|.8 8 |.|.|.|.|.|.|.|.|.|.|.|.|.|.|.|.|.|.|.|.",
"|.|.|.|.|.|.|.|.|.|.|.|.|.|.|.|.|.|.|.|.|.|.|.|.|.|.|.|.|.|.|.|.|.|.|.|.|.|.|.|.|.|.|.|.|.|.|.|.|.|.|.|.|.|.|.|.|.|.|.|.|.|.|.|.",
"|.|.|.|.|.|.|.|.|.|.|.|.|.|.|.|.|.|.|.|.|.|.|.|.|.|.|.|.|.|.|.|.|.|.|.|.|.|.|.|.|.|.|.|.|.|.|.|.|.|.|.|.|.|.|.|.|.|.|.|.|.|.|.|."
};
