/* XPM */
static char *run_s_8[] = {
/* columns rows colors chars-per-pixel */
"32 32 211 2 ",
"   c None",
".  c #2A1D0D",
"X  c #2B1E0E",
"o  c #2C1E0E",
"O  c #2D2010",
"+  c #2D2312",
"@  c #302212",
"#  c #302213",
"$  c #312313",
"%  c #342413",
"&  c #332515",
"*  c #342615",
"=  c #3A2A17",
"-  c #352818",
";  c #362919",
":  c #392919",
">  c #39291A",
",  c #392A1B",
"<  c #3E2C19",
"1  c #3B2B1C",
"2  c #3B2C1D",
"3  c #3C2D1E",
"4  c #3E2E20",
"5  c #3F2E20",
"6  c #3F2F20",
"7  c #3F2F22",
"8  c #3C3724",
"9  c #572B0F",
"0  c #572B10",
"q  c #592D11",
"w  c #5B2E13",
"e  c #643318",
"r  c #653318",
"t  c #69351A",
"y  c #402F22",
"u  c #413021",
"i  c #433121",
"p  c #403022",
"a  c #413022",
"s  c #443323",
"d  c #463425",
"f  c #4B3725",
"g  c #4F3B27",
"h  c #503421",
"j  c #603825",
"k  c #643E2A",
"l  c #683F28",
"z  c #58422E",
"x  c #404E37",
"c  c #5F4732",
"v  c #5D4831",
"b  c #42543B",
"n  c #60482E",
"m  c #7E502F",
"M  c #604930",
"N  c #654C32",
"B  c #694E37",
"V  c #6A4F37",
"C  c #6D4F36",
"Z  c #6A5035",
"A  c #6A5036",
"S  c #72573C",
"D  c #72573D",
"F  c #785A3D",
"G  c #785B3D",
"H  c #5F6245",
"J  c #5B7354",
"K  c #726246",
"L  c #85452A",
"P  c #86462B",
"I  c #894930",
"U  c #8A4C34",
"Y  c #8E4F37",
"T  c #954E34",
"R  c #944F37",
"E  c #875837",
"W  c #83583E",
"Q  c #805C3E",
"!  c #975138",
"~  c #9A5739",
"^  c #A15439",
"/  c #A2543A",
"(  c #A5563C",
")  c #A15B3D",
"_  c #A8583D",
"`  c #AC5A3F",
"'  c #92603D",
"]  c #975C40",
"[  c #A35F42",
"{  c #AD5B40",
"}  c #AE5B40",
"|  c #886647",
" . c #896647",
".. c #886849",
"X. c #8D6A4A",
"o. c #886E4E",
"O. c #996746",
"+. c #956E4D",
"@. c #95704E",
"#. c #9E714C",
"$. c #997350",
"%. c #997351",
"&. c #9A7451",
"*. c #9C7552",
"=. c #9D7552",
"-. c #9D7652",
";. c #9D7653",
":. c #9F7753",
">. c #B66F4D",
",. c #A27A55",
"<. c #A07B56",
"1. c #A27C57",
"2. c #AC7D55",
"3. c #A67E58",
"4. c #A97F59",
"5. c #B67E56",
"6. c #6D9873",
"7. c #67A57E",
"8. c #8D835E",
"9. c #A9805A",
"0. c #AA825B",
"q. c #AC835C",
"w. c #AC865F",
"e. c #B2885F",
"r. c #9B9069",
"t. c #AD8760",
"y. c #B38960",
"u. c #B68B62",
"i. c #B28C64",
"p. c #B48F65",
"a. c #BC9065",
"s. c #BD9267",
"d. c #BA9268",
"f. c #BD9468",
"g. c #BC9569",
"h. c #BE996E",
"j. c #C19568",
"k. c #C0966A",
"l. c #C69468",
"z. c #C69768",
"x. c #C49A6B",
"c. c #C7986C",
"v. c #C79B6D",
"b. c #CB9E6E",
"n. c #CF9D6E",
"m. c #C99F71",
"M. c #C3A175",
"N. c #C4A174",
"B. c #C6A477",
"V. c #CAA173",
"C. c #CEA070",
"Z. c #CFA171",
"A. c #CEA273",
"S. c #CAA476",
"D. c #CEA574",
"F. c #CEA576",
"G. c #CEA97A",
"H. c #CFAD7D",
"J. c #D2A573",
"K. c #D0A575",
"L. c #D7A976",
"P. c #D8AA77",
"I. c #D0A878",
"U. c #D0A97A",
"Y. c #D4A878",
"T. c #D6AB78",
"R. c #D4AB7A",
"E. c #D6AC7A",
"W. c #D3AF7F",
"Q. c #DEAD7A",
"!. c #DEAE7A",
"~. c #DFAE7A",
"^. c #D9B17F",
"/. c #DEB07C",
"(. c #E3B47F",
"). c #E5B47E",
"_. c #D0B082",
"`. c #D2B282",
"'. c #D3B282",
"]. c #D7B281",
"[. c #DCB684",
"{. c #DDBA88",
"}. c #DEBA88",
"|. c #DFBB89",
" X c #E9B780",
".X c #E8B781",
"XX c #EAB982",
"oX c #ECBB83",
"OX c #EFBD85",
"+X c #E3BD89",
"@X c #E0BF8C",
"#X c #F1BF86",
"$X c #F3C086",
"%X c #F2C187",
"&X c #F4C086",
"*X c #F4C187",
"=X c #F5C187",
"-X c #F3C289",
";X c #F5C288",
":X c #F5C389",
">X c #F7C389",
",X c #F4C48A",
"<X c #F5C78D",
"1X c #F5C78E",
"2X c #F6C78E",
"3X c #F5C88E",
"4X c #F5C88F",
"5X c #F6CA91",
"6X c #F5D299",
"7X c #F5D29A",
"8X c #F5D39B",
/* pixels */
"                                                                ",
"                                                                ",
"                                                                ",
"                                                                ",
"                                                                ",
"                                                                ",
"                                            i.B.                ",
"                                R r       ].d.h.@X              ",
"            `.`.+X            } / t       D.U.V.Y.              ",
"                Y..X        _ /         `.H.f.#.'               ",
"                  L.(.    >.) P I j C M.^.{.Z.O.Y               ",
"                    K.{.{.n.5.~ ! R ] v.U.[.Y.+.W               ",
"                      t.w.0.    k U [ z.G.N.W.j.y.              ",
"                              7 i h l Q p.S.m.2.E               ",
"    @ 1 7                   7 7 3 > % < F f.z.m q 9             ",
"      - > 2               f i > @ + X o = n     0 q             ",
"          * & & - 2 s c D A v 8 + X X             r P           ",
"                  @ g ,.a...K J b x                 ( _         ",
"                    M v.XX/.D.r.6.7.            } } }           ",
"                      oX,X5X-XE.8.H o.          } }             ",
"                      ;X<X8X<X%Xx.N  .*.                        ",
"                    =X=X3X8X3X;XJ.A  .*.*.                      ",
"                    =X=X<X8X<X#Xb.F X.*.*.                      ",
"                  =X=X=X;X<X%XP.e.@.$.*.*.*.                    ",
"                  =X;X=X=XOX~.y.*.*.*.*.*.*.                    ",
"              D Z..X=X=X).Z.u.    *.*.*.*.*.                    ",
"        y i y z 1.j.~.~.a.4.        *.*.*.*.                    ",
"        i i i     3.q.0.,.            &.@.$.                    ",
"        i                               V V                     ",
"                                        d i i                   ",
"                                          i                     ",
"                                                                "
};
