/* XPM */
static char *run_rev_4[] = {
/* columns rows colors chars-per-pixel */
"64 64 158 2 ",
"   c None",
".  c #2A1D0D",
"X  c #3E230E",
"o  c #2E2111",
"O  c #322414",
"+  c #362718",
"@  c #37291A",
"#  c #3B2B1B",
"$  c #3F2F21",
"%  c #323420",
"&  c #3F3022",
"*  c #572B0F",
"=  c #582B0F",
"-  c #402E1B",
";  c #572B10",
":  c #5A2D12",
">  c #46331E",
",  c #51311D",
"<  c #612F16",
"1  c #6B351A",
"2  c #65381A",
"3  c #412F22",
"4  c #403022",
"5  c #4B3623",
"6  c #4B3826",
"7  c #4C3928",
"8  c #513727",
"9  c #5E3B2A",
"0  c #603723",
"q  c #653C26",
"w  c #603D2B",
"e  c #773D22",
"r  c #4A412F",
"t  c #54402D",
"y  c #5D442C",
"u  c #474A37",
"i  c #5E4631",
"p  c #6F4222",
"a  c #60462E",
"s  c #6A402D",
"d  c #62492F",
"f  c #644B34",
"g  c #6B4F34",
"h  c #6C5136",
"j  c #6B5138",
"k  c #735639",
"l  c #75593D",
"z  c #7C5838",
"x  c #7C5E41",
"c  c #566144",
"v  c #497758",
"b  c #85452A",
"n  c #8C492E",
"m  c #894C36",
"M  c #934C31",
"N  c #875834",
"B  c #865432",
"V  c #9C5136",
"C  c #945139",
"Z  c #9D543A",
"A  c #925A3C",
"S  c #A3563B",
"D  c #AC5B3F",
"F  c #92633D",
"G  c #805F43",
"H  c #915D41",
"J  c #AD5B40",
"K  c #B05F43",
"L  c #836344",
"P  c #846748",
"I  c #8C6A4A",
"U  c #936F4D",
"Y  c #96714E",
"T  c #887351",
"R  c #9C7552",
"E  c #9F7854",
"W  c #A46546",
"Q  c #AC6547",
"!  c #A46F4A",
"~  c #B26244",
"^  c #B26548",
"/  c #A37C56",
"(  c #A37D59",
")  c #A87F59",
"_  c #BD7654",
"`  c #B57452",
"'  c #C17753",
"]  c #7E9B75",
"[  c #A6825B",
"{  c #AB835C",
"}  c #B18257",
"|  c #B2875F",
" . c #B58A5F",
".. c #978560",
"X. c #AB8660",
"o. c #AE8A63",
"O. c #B48B62",
"+. c #B39067",
"@. c #BD9266",
"#. c #B49169",
"$. c #BE956A",
"%. c #BD9B71",
"&. c #C48561",
"*. c #D18F64",
"=. c #C09467",
"-. c #C29669",
";. c #C5996B",
":. c #CA9C6D",
">. c #D8986A",
",. c #C39F72",
"<. c #C89E70",
"1. c #D3A16E",
"2. c #CDA172",
"3. c #C6A67A",
"4. c #CBAB7D",
"5. c #C5A175",
"6. c #D2A373",
"7. c #DBA371",
"8. c #D9A976",
"9. c #D3AB7B",
"0. c #DDAC79",
"q. c #DDB07C",
"w. c #E5A877",
"e. c #E4B27D",
"r. c #E9B67F",
"t. c #6DD4A6",
"y. c #CFAF80",
"u. c #DEAF80",
"i. c #D2B484",
"p. c #DEB481",
"a. c #D7B989",
"s. c #DABE8D",
"d. c #E3B681",
"f. c #E9B780",
"g. c #E5B985",
"h. c #ECBA82",
"j. c #E6BE89",
"k. c #ECBF88",
"l. c #F2BE85",
"z. c #DEC18F",
"x. c #ECC48D",
"c. c #E4C18D",
"v. c #F5C187",
"b. c #F5C48B",
"n. c #E2C794",
"m. c #ECC791",
"M. c #EBC993",
"N. c #E6CC98",
"B. c #F5CD95",
"V. c #EED29E",
"C. c #F5D097",
"Z. c #F5D39C",
"A. c #F5D89F",
"S. c #F5D7A0",
"D. c #F5DAA2",
"F. c #F5DDA6",
"G. c #F5DEA6",
"H. c #F5DBA4",
/* pixels */
"                                                                                                                                ",
"                                                                                                                                ",
"                                                                                                                                ",
"                                                                                                                                ",
"                                                                                                                                ",
"                                                                                                                                ",
"                                                                                                                                ",
"                                                                                                                                ",
"                                                                                                                                ",
"                                                                                                                                ",
"                                                                                                                                ",
"                                                    .                                                                           ",
"                                                    .                                                                           ",
"                                                    .                                                                           ",
"                          R s.G.V.o.R R             .                                                                           ",
"                        s.,.4.i.4.[ o.5.            X                                                                           ",
"                      D.D.D.%./ R ( 4.Z.h.          ; ; b J                                                                     ",
"                      b.b.b.M.3.( a.m.g.O.          ; ; b J J D D                                                               ",
"                      :.6.v.B.g.2.x.p.@./           ; ;   D J J J ~ w.v.v.v.C.                                                  ",
"                        { 1.1.8.e.e.<.X.R +.        ;       _ ^ J K >.r.v.v.B.Z.                                                ",
"                          2 2 z / / 3.z.( i.G.      3       V.&.J J ~ *.v.v.v.v.v.v.B.G.              v.v.v.                    ",
"      . .                 n n A / :.c.n.( 9.B.G.    $ o ..A.B.! n J J ` @.@.@.@.@.@.$.,.f.C.        G.b.0.@.                    ",
"      . . .               D C H / e.B.n.( 6.k.a.T # 4 , E u.7.B 1 M S W R R R R R R R / 2.j.Z.    D.Z.d.;.R                     ",
"            . . .         D w f / e.B.n.[ 6.8.R 5 + 8 Z J J J e ; : V J                 R ;.b.S.H.Z.l. .R                       ",
"                  o $     9 5 f / e.b.b.z.<.-.8.W m C D J J J V n                         { O.#.#.O.O.                          ",
"                  o $   f I l I ;.x.d.2.y.3.9.l.' J J J C m D D                             R R R R R                           ",
"                      3 l v.@.-.h.M.4.{ { a.B.r._ J D Z s 4                                                                     ",
"                            f.2.{ { 4.N.N.m.q.{ Q J Z , - & 4                                                                   ",
"                          ; F } :.<.5.3.3.<./ y q q 0 # # 4 4 4                                                                 ",
"                          ; ; N 1.h.6.| | U f . . . o # 4 4 4 4 4                                                               ",
"                      ; ; ; ; : p 7.l.l.l.l o . . . o # 4 4 4 4 4 4                                   4 & & & & & & O .         ",
"                    ; ; ; ; ;       Y k k > . . . . . O O + $ 4 4 4 4 & 4                           4 & 4 $ + O O O O           ",
"                    ; ; ; =           . . . . . . . . . . o @ @ @ @ @ 6 i                         3 4 # @ @ o . . .             ",
"                < : ; * ;                 . . . . . . . . . . . . . o a I t               4 4 4 $ $ $ O . .                     ",
"              J S n : ;                         . . . . . . . . . o h j j @.P & & & & & & 4 4 4 + o o                           ",
"              D J S 1                             . % v c y y y y a j L [ f.$.x @ + + + + + + + O . .                           ",
"              D J D                                   t.] I I I I I j [ v.v.v.-.- O . . . . . .                                 ",
"              D J D D D D                             u r 7 7 7 7 t @.f.v.v.v.8.I                                               ",
"                  J J J J J D                         { [ [ [ [ [ { e.v.v.v.v.0.R                                               ",
"                    J J J J J D                       v.v.v.v.v.v.v.v.v.v.v.e.:.R R                                             ",
"                      J J J J D                 v.v.v.v.v.v.v.v.v.v.v.v.v.v.-.R R R R                                           ",
"                                              v.v.v.v.C.Z.B.v.v.v.v.v.v.h.-.) R R R R R                                         ",
"                                            v.v.v.b.B.D.S.B.v.v.v.l.0.6.:./ R R R R R R                                         ",
"                                          v.v.v.v.B.G.G.B.v.v.v.l.r.{ Y R R R R R R R R                                         ",
"                                          v.v.v.v.B.G.G.B.v.v.v.0.{ y h R R R R R R R R R                                       ",
"                                          v.v.v.B.Z.H.C.b.v.v.v.6.Y > y R R R R R R R R R R                                     ",
"                                        v.v.v.v.Z.D.Z.b.v.v.v.f.-.L - y R R R R R R R R R R                                     ",
"                                        v.v.v.v.Z.C.v.v.v.v.v.-.x + . y R R R R R R R R R R R                                   ",
"                                        v.v.v.v.B.b.v.v.v.r.-.{ k . . # d U R R R R R R R R R R                                 ",
"                                        8.h.v.v.v.v.v.v.e.:.E R k . . . + h I R R R R R R R R R G                               ",
"                                        R 6.v.v.v.v.v.v.;.R R R k . . . . . g R R R R R R R R R f 4 &                           ",
"                                        R { :.v.v.v.h.=.) R R R P l # . . . # d R R R R R R R R f 4 4 4 & & &                   ",
"                                        R R { 6.6.6.:./ R R R     Y f y y y y h R R R R R R R R f 4 4 4 4 4 4                   ",
"                                        R R R R R R R R R R         R R R R R R R R R R R           & & & 4 4                   ",
"                                        R R R R R R R R R             R R R R R R R R                   4 4 4                   ",
"                                        R R R R R R R R                                                   & 3                   ",
"                                        R R R R R R R                                                       3                   ",
"                                          R R R                                                                                 ",
"                                          f f f                                                                                 ",
"                                          4 4 &                                                                                 ",
"                                  & 4 4 4 4 4 4                                                                                 ",
"                                    3 4 4 4 4                                                                                   ",
"                                      4 & 4 &                                                                                   ",
"                                        & 4 &                                                                                   "
};
