/* XPM */
static const char *cnVuX3Iz[] = {
/* columns rows colors chars-per-pixel */
"64 64 155 2 ",
"   c #2A1D0D",
".  c #2C200F",
"X  c #37220E",
"o  c #2F2111",
"O  c #332414",
"+  c #392916",
"@  c #362718",
"#  c #37281A",
"$  c #3A2B1C",
"%  c #3E2E20",
"&  c #3F3022",
"*  c #432E1C",
"=  c #482F1E",
"-  c #572B10",
";  c #5A2D12",
":  c #42301C",
">  c #5B3116",
",  c #53301D",
"<  c #643217",
"1  c #663318",
"2  c #412F21",
"3  c #403022",
"4  c #493623",
"5  c #4F3A25",
"6  c #4B3928",
"7  c #513727",
"8  c #513B25",
"9  c #513D2B",
"0  c #683A25",
"q  c #723A20",
"w  c #7D3F25",
"e  c #57412C",
"r  c #5C442C",
"t  c #5D4531",
"y  c #60462E",
"u  c #6A412E",
"i  c #62482F",
"p  c #714323",
"a  c #7C4025",
"s  c #764827",
"d  c #73422B",
"f  c #7E462F",
"g  c #784929",
"h  c #7E502E",
"j  c #614732",
"k  c #624A32",
"l  c #684E37",
"z  c #694F38",
"x  c #724430",
"c  c #7C4832",
"v  c #6D5137",
"b  c #695038",
"n  c #74563A",
"m  c #785A3D",
"M  c #755B40",
"N  c #7B5C41",
"B  c #844429",
"V  c #8C492E",
"C  c #864B35",
"Z  c #8D4E37",
"A  c #944E33",
"S  c #8A5234",
"D  c #865A37",
"F  c #845E3B",
"G  c #9B5136",
"H  c #9E553B",
"J  c #A4573D",
"K  c #A6583D",
"L  c #AC5B3F",
"P  c #985C41",
"I  c #AD5B40",
"U  c #826244",
"Y  c #886945",
"T  c #866849",
"R  c #8D694A",
"E  c #9D6A46",
"W  c #926D4C",
"Q  c #97714F",
"!  c #98714F",
"~  c #9C7552",
"^  c #9E7C56",
"/  c #A36944",
"(  c #B16144",
")  c #B06D4C",
"_  c #A27A56",
"`  c #AC7953",
"'  c #A57E59",
"]  c #A87F59",
"[  c #BE7554",
"{  c #B77B57",
"}  c #C67E59",
"|  c #A6815C",
" . c #AC835C",
".. c #B58659",
"X. c #AE8A63",
"o. c #B58C62",
"O. c #B98E64",
"+. c #BD9266",
"@. c #B7956C",
"#. c #B8966C",
"$. c #BF9E73",
"%. c #C6805A",
"&. c #C8815B",
"*. c #C68762",
"=. c #C09367",
"-. c #C19569",
";. c #C4996C",
":. c #CA9D6E",
">. c #C49F73",
",. c #C4A074",
"<. c #CCA273",
"1. c #C5A579",
"2. c #CAAA7C",
"3. c #D3A473",
"4. c #D7A976",
"5. c #DAAA76",
"6. c #D3AE7C",
"7. c #DDAE79",
"8. c #E0AF7A",
"9. c #E5B37D",
"0. c #EBB37D",
"q. c #CFB082",
"w. c #D1B384",
"e. c #DBB684",
"r. c #D8B887",
"t. c #DBBD8C",
"y. c #E2B783",
"u. c #E7BB85",
"i. c #EDBA82",
"p. c #E6BF8A",
"a. c #E8BE88",
"s. c #F2BE85",
"d. c #DDC08F",
"f. c #E5C18D",
"g. c #ECC48E",
"h. c #F5C187",
"j. c #F4C48A",
"k. c #F5C98F",
"l. c #E4C693",
"z. c #E4C996",
"x. c #F5CC93",
"c. c #ECD29D",
"v. c #F5D097",
"b. c #F5D49D",
"n. c #F5D7A0",
"m. c #F4D9A2",
"M. c #F4DBA3",
"N. c #F5DDA5",
"B. c #F4DDA5",
"V. c #F5DDA7",
"C. c #F6DDA6",
"Z. c #F6DCA7",
"A. c #F5DCA5",
"S. c None",
"D. c black",
/* pixels */
"S.S.S.S.S.S.S.S.S.S.S.S.S.S.S.S.S.S.S.S.S.S.S.S.S.S.S.S.S.S.S.S.S.S.S.S.S.S.S.S.S.S.S.S.S.S.S.S.S.S.S.S.S.S.S.S.S.S.S.S.S.S.S.S.",
"S.S.S.S.S.S.S.S.S.S.S.S.S.S.S.S.S.S.S.S.S.S.S.S.S.S.S.S.S.S.S.S.S.S.S.S.S.S.S.S.S.S.S.S.S.S.S.S.S.S.S.S.S.S.S.S.S.S.S.S.S.S.S.S.",
"S.S.S.S.S.S.S.S.S.S.S.S.S.S.S.S.S.S.S.S.S.S.S.S.S.S.S.S.S.S.S.S.S.S.S.S.S.S.S.S.S.S.S.S.S.S.S.S.S.S.S.S.S.S.S.S.S.S.S.S.S.S.S.S.",
"S.S.S.S.S.S.S.S.S.S.S.S.S.S.S.S.S.S.S.S.S.S.S.S.S.S.S.S.S.S.S.S.S.S.S.S.S.S.S.S.S.S.S.S.S.S.S.S.S.S.S.S.S.S.S.S.S.S.S.S.S.S.S.S.",
"S.S.S.S.S.S.S.S.S.S.S.S.S.S.S.S.S.S.S.S.S.S.S.S.S.S.S.S.S.S.S.S.S.S.S.S.S.S.S.S.S.S.S.S.S.S.S.S.S.S.S.S.S.S.S.S.S.S.S.S.S.S.S.S.",
"S.S.S.S.S.S.S.S.S.S.S.S.S.S.S.S.S.S.S.S.S.S.S.S.S.S.S.S.S.S.S.S.S.S.S.S.S.S.S.S.S.S.S.S.S.S.S.S.S.S.S.S.S.S.S.S.S.S.S.S.S.S.S.S.",
"S.S.S.S.S.S.S.S.S.S.S.S.S.S.S.S.S.S.S.S.S.S.S.S.S.S.S.S.S.S.S.S.S.S.S.S.S.S.S.S.S.S.S.S.S.S.S.S.S.S.S.S.S.S.S.S.S.S.S.S.S.S.S.S.",
"S.S.S.S.S.S.S.S.S.S.S.S.S.S.S.S.S.S.S.S.S.S.S.S.S.S.S.S.S.S.S.S.S.S.S.S.S.S.S.S.S.S.S.S.S.S.S.S.S.S.S.S.S.S.S.S.S.S.S.S.S.S.S.S.",
"S.S.S.S.S.S.S.S.S.S.S.S.S.S.S.S.S.S.S.S.S.S.S.S.S.S.S.S.S.S.S.S.S.S.S.S.S.S.S.S.S.S.S.S.S.S.S.S.S.S.S.S.S.S.S.S.S.S.S.S.S.S.S.S.",
"S.S.S.S.S.S.S.S.S.S.S.S.S.S.S.S.S.S.S.S.S.S.S.  S.S.S.S.S.S.S.S.S.S.S.S.S.S.S.S.S.S.S.S.S.S.S.S.S.S.S.S.S.S.S.S.S.S.S.S.S.S.S.S.",
"S.S.S.S.S.S.S.S.S.S.S.S.S.S.S.S.S.S.S.S.S.S.S.  S.S.S.S.S.S.S.S.S.S.S.S.S.S.S.S.S.S.S.S.S.S.S.S.S.S.S.S.S.S.S.S.S.S.S.S.S.S.S.S.",
"S.S.S.S.S.S.S.S.S.S.~ w.B.B.@.~ ~ S.S.S.S.S.S.  S.S.S.S.S.S.S.S.S.S.S.S.S.S.S.S.S.S.S.S.S.S.S.S.S.S.S.S.S.S.S.S.S.S.S.S.S.S.S.S.",
"S.S.S.S.S.S.S.S.S.S.#.2.t.t.X.| @.S.S.S.S.S.S.X S.S.S.S.S.S.S.S.S.S.S.S.S.S.S.S.S.S.S.S.S.S.S.S.S.S.S.S.S.S.S.S.S.S.S.S.S.S.S.S.",
"S.S.S.S.S.S.S.S.S.B.B.,.~ ~ ~ $.m.j.S.S.S.S.S.- - w I S.S.S.S.S.S.S.S.S.S.S.S.S.S.S.S.S.S.S.S.S.S.S.S.S.S.S.S.S.S.S.S.S.S.S.S.S.",
"S.S.S.S.S.S.S.S.S.x.x.f.2.~ 1.f.g.;.S.S.S.S.S.- - a L I L I S.S.S.S.S.S.S.S.S.S.S.S.S.S.S.S.S.S.S.S.S.S.S.S.S.S.S.S.S.S.S.S.S.S.",
"S.S.S.S.S.S.S.S.S.4.s.x.f.=.p.p.:.' S.S.S.S.S.; F ` } ( I I S.S.S.S.S.S.S.S.S.S.S.S.S.S.S.S.S.S.S.S.S.S.S.S.S.S.S.S.S.S.S.S.S.S.",
"S.S.S.S.S.S.S.S.S.| 5.9.9.i.i.3.' ~ ' S.S.S.S.> 2.x.0.[ ( I I S.S.S.S.S.S.S.S.S.S.S.S.S.S.S.S.S.S.S.S.S.S.S.S.S.S.S.S.S.S.S.S.S.",
"S.S.S.S.S.S.S.S.S.S.g s D  . .>.d. .1.B.S.S.S.4 ;.j.s.0.&.I I I L S.S.S.S.S.S.S.S.S.S.S.S.S.S.S.S.S.S.S.S.S.S.S.S.S.S.S.S.S.S.S.",
"    S.S.S.S.S.S.S.S.B B S ~ +.e.c.X.<.v.m.x.^ 3 m | S.S./ V L I [ S.S.S.S.S.S.S.S.S.S.S.S.S.S.S.S.S.S.S.S.S.S.S.S.S.S.S.S.S.S.S.",
"      S.S.S.S.S.S.S.I H P ~ 4.x.c.X.:.j.l.6.^ 3 * , S.S.< 1 A K *.n.S.S.S.S.S.S.S.S.S.S.S.S.S.S.S.S.S.S.S.S.S.S.S.S.S.S.S.S.S.S.",
"S.S.S.      S.S.S.S.I x j ~ 4.x.c.X.:.9. .k $ 3 C K L L w ; ; A %.j.b.S.S.S.S.S.S.S.S.S.S.S.S.S.S.S.S.S.S.S.S.S.S.S.S.S.S.S.S.S.",
"S.S.S.S.S.S.  $ S.S.u 7 t ~ 4.j.x.r.<.-.3.E f C J I I I G B S.S.{ -.a.k.j.S.S.S.S.S.S.S.S.S.S.S.S.S.S.S.S.S.S.S.S.S.S.S.S.S.S.S.",
"S.S.S.S.S.S.  $ 2 S.N b N o.y.a.4.r.2.>.s.&.I I I H Z K L I S.S.S._ <.9.h.S.S.S.S.S.S.S.S.S.S.S.S.S.S.S.S.S.S.S.S.S.S.S.S.S.S.S.",
"S.S.S.S.S.S.S.S.S.k 7.-.o.s.b.w.~ ~ 2.b.j.&.I I L c 3 S.S.S.S.S.S.S.~ ;.s.h.S.S.S.S.S.S.S.S.S.S.S.S.S.S.S.S.S.S.S.S.S.S.S.S.S.S.",
"S.S.S.S.S.S.S.S.S.S.S.7.3.o.o.1.d.d.g.u.O.) I L 0 = 3 & S.S.S.S.S.S.S. .+.i.h.k.B.B.S.S.S.S.S.S.S.S.S.S.S.S.S.S.S.S.S.S.S.S.S.S.",
"S.S.S.S.S.S.S.S.S.S.S.E ..-.-.,.q.q.2.O.n d d d * $ 3 3 & S.S.S.S.S.S.S.| :.<.<.q.z.S.S.S.S.S.S.S.S.S.S.S.S.S.S.S.S.S.S.S.S.S.S.",
"S.S.S.S.S.S.S.S.S.S.- - h 5.i.4.] ] ~ m O       $ 3 3 3 3 3 S.S.S.S.S.S.S.~ ~ ~ ~ S.S.S.S.S.S.S.S.S.S.S.S.S.S.S.S.S.S.S.S.S.S.S.",
"S.S.S.S.S.S.S.S.S.- - - > p :.i.9.9.W +         $ 3 3 3 3 & 3 S.S.S.S.S.S.S.S.S.S.S.S.S.S.S.S.S.S.S.S.S.S.S.S.S.S.S.S.S.S.S.S.S.",
"S.S.S.S.S.S.S.S.- - - - S.S.S.o.Y Y e           O @ @ % 3 3 3 3 & 2 S.S.S.S.S.S.S.S.S.S.S.S.S.S.S.S.S.S.S.S.S.S.S.S.S.S.S.S.S.S.",
"S.S.S.S.S.S.S.- - - - S.S.S.S.S.                      $ $ $ $ $ 3 e S.S.S.S.S.S.S.S.S.S.S.S.S.S.S.S.S.S.S.S.S.S.S.S.S.S.S.S.S.S.",
"S.S.S.S.S.S.- - - - S.S.S.S.S.S.S.S.                            8 ! ~ ~ S.S.3 & & & & & & & & & & & & & & S.S.S.S.S.S.S.S.S.S.S.",
"S.S.S.S.S.H V < - S.S.S.S.S.S.S.S.S.S.S.S.      y n n n n n n n v k k 9 & & 3 3 3 3 3 % @ O O O O O O O o   $ & 3 S.S.S.S.S.S.S.",
"S.S.S.S.L I L q S.S.S.S.S.S.S.S.S.S.S.S.S.S.  . v N N N N N N N N U U U M 6 3 % $ $ $ # o                   @ $ # S.S.S.S.S.S.S.",
"S.S.S.S.L I I S.S.S.S.S.S.S.S.S.S.S.S.S.S.S.S.S.6 6 6 6 6 6 6 6 T h.h.h.4.e % $               S.S.S.S.                  S.S.S.S.",
"S.S.S.S.L I I I L I S.S.S.S.S.S.S.S.S.S.S.S.S.h.3.:.:.:.:.:.:.:.4.h.h.h.4.4 o o S.S.S.S.S.S.S.S.S.S.S.S.S.S.S.S.S.S.S.S.S.S.S.S.",
"S.S.S.S.S.L I I I I I S.S.S.S.S.S.S.S.S.S.S.h.h.x.x.x.x.x.x.j.h.h.h.h.h.7.n r r S.S.S.S.S.S.S.S.S.S.S.S.S.S.S.S.S.S.S.S.S.S.S.S.",
"S.S.S.S.S.S.S.I I I I I L S.S.S.S.S.S.S.S.h.h.j.b.B.B.B.m.b.j.h.h.h.h.i.4.' ~ ~ S.S.S.S.S.S.S.S.S.S.S.S.S.S.S.S.S.S.S.S.S.S.S.S.",
"S.S.S.S.S.S.S.S.I I I I L S.S.S.S.h.h.h.h.h.k.m.B.B.B.B.b.j.h.h.h.h.h.3.' ~ ~ ~ ~ ~ ~ ~ S.S.S.S.S.S.S.S.S.S.S.S.S.3 S.S.S.S.S.S.",
"S.S.S.S.S.S.S.S.S.S.S.S.S.h.h.h.h.h.h.h.h.h.j.x.x.x.x.x.j.h.h.h.h.h.h.:.~ ~ ~ ~ ~ ~ ~ ~ ~ ~ ~ ~ ~ ~ ~ S.S.S.S.S.3 2 3 S.S.S.S.S.",
"S.S.S.S.S.S.S.S.S.S.S.S.S.h.h.h.h.h.h.h.h.h.h.h.h.h.h.h.h.h.h.h.h.h.9.+.~ ~ ~ ~ ~ ~ ~ ~ ~ ~ ~ ~ ~ ~ ~ S.S.S.S.2 3 3 3 & S.S.S.S.",
"S.S.S.S.S.S.S.S.S.S.S.h.h.h.h.h.h.h.h.h.h.h.h.h.h.h.h.h.h.h.h.h.h.s.o.~ ~ ~ ~ ~ ~ ~ ~ ~ ~ ~ ~ ~ ~ ~ ~ ~ ~ W 9 3 3 3 3 & 3 S.S.S.",
"S.S.S.S.S.S.S.S.S.S.S.o.:.h.h.h.h.h.h.h.h.h.h.h.h.h.h.h.h.h.h.h.8.o._ ~ ~ ~ ~ R t t t t t e r W ~ ~ ~ ~ ~ W 9 3 3 S.3 3 3 3 S.S.",
"S.S.S.S.S.S.S.S.S.S.S.~  .3.i.h.h.h.h.h.h.8.3.3.3.3.3.3.3.3.3.3.=.~ U N N N N z 3 3 $ $ $ 4 k W ~ ~ ~ ~ ~ W 9 3 S.S.S.& & & S.S.",
"S.S.S.S.S.S.S.S.S.S.S.W Q ~ 4.i.i.i.i.i.i.+.~ ~ ~ ~ ~ ~ ~ ~ W W W R 9 % % % % % % % $ O O l ~ ~ ~ ~ ~ ~ ~ W 9 S.S.S.S.S.S.S.S.S.",
"S.S.S.S.S.S.S.S.S.S.3 6 l ~ |  . . . . . ._ ~ ~ S.S.S.S.S.S.: : : * O o o o o o o o 5 U U W ~ ~ ~ ~ ~ ~ ~ S.S.S.S.S.S.S.S.S.S.S.",
"S.S.S.S.S.S.S.S.S.3 3 3 t ~ ~ ~ ~ ~ ~ ~ ~ ~ ~ S.S.S.S.S.S.S.S.                * i i m ~ ~ ~ ~ ~ ~ ~ ~ ~ S.S.S.S.S.S.S.S.S.S.S.S.",
"S.S.S.S.& 3 S.S.3 3 3 3 t ~ ~ ~ ~ ~ ~ ~ S.S.S.S.S.S.S.S.S.S.S.S.S.S.S.S.S.S.S.S.~ ~ ~ ~ ~ ~ ~ ~ ~ ~ ~ S.S.S.S.S.S.S.S.S.S.S.S.S.",
"S.S.S.S.& & & & & 3 3 S.S.S.S.S.S.S.S.S.S.S.S.S.S.S.S.S.S.S.S.S.S.S.S.S.S.S.S.S.S.~ ~ ~ ~ ~ ~ ~ S.S.S.S.S.S.S.S.S.S.S.S.S.S.S.S.",
"S.S.S.S.& 3 3 3 3 3 S.S.S.S.S.S.S.S.S.S.S.S.S.S.S.S.S.S.S.S.S.S.S.S.S.S.S.S.S.S.S.S.S.S.S.S.S.S.S.S.S.S.S.S.S.S.S.S.S.S.S.S.S.S.",
"S.S.S.S.S.3 & 3 & 2 S.S.S.S.S.S.S.S.S.S.S.S.S.S.S.S.S.S.S.S.S.S.S.S.S.S.S.S.S.S.S.S.S.S.S.S.S.S.S.S.S.S.S.S.S.S.S.S.S.S.S.S.S.S.",
"S.S.S.S.S.S.3 S.S.S.S.S.S.S.S.S.S.S.S.S.S.S.S.S.S.S.S.S.S.S.S.S.S.S.S.S.S.S.S.S.S.S.S.S.S.S.S.S.S.S.S.S.S.S.S.S.S.S.S.S.S.S.S.S.",
"S.S.S.S.S.S.S.S.S.S.S.S.S.S.S.S.S.S.S.S.S.S.S.S.S.S.S.S.S.S.S.S.S.S.S.S.S.S.S.S.S.S.S.S.S.S.S.S.S.S.S.S.S.S.S.S.S.S.S.S.S.S.S.S.",
"S.S.S.S.S.S.S.S.S.S.S.S.S.S.S.S.S.S.S.S.S.S.S.S.S.S.S.S.S.S.S.S.S.S.S.S.S.S.S.S.S.S.S.S.S.S.S.S.S.S.S.S.S.S.S.S.S.S.S.S.S.S.S.S.",
"S.S.S.S.S.S.S.S.S.S.S.S.S.S.S.S.S.S.S.S.S.S.S.S.S.S.S.S.S.S.S.S.S.S.S.S.S.S.S.S.S.S.S.S.S.S.S.S.S.S.S.S.S.S.S.S.S.S.S.S.S.S.S.S.",
"S.S.S.S.S.S.S.S.S.S.S.S.S.S.S.S.S.S.S.S.S.S.S.S.S.S.S.S.S.S.S.S.S.S.S.S.S.S.S.S.S.S.S.S.S.S.S.S.S.S.S.S.S.S.S.S.S.S.S.S.S.S.S.S.",
"S.S.S.S.S.S.S.S.S.S.S.S.S.S.S.S.S.S.S.S.S.S.S.S.S.S.S.S.S.S.S.S.S.S.S.S.S.S.S.S.S.S.S.S.S.S.S.S.S.S.S.S.S.S.S.S.S.S.S.S.S.S.S.S.",
"S.S.S.S.S.S.S.S.S.S.S.S.S.S.S.S.S.S.S.S.S.S.S.S.S.S.S.S.S.S.S.S.S.S.S.S.S.S.S.S.S.S.S.S.S.S.S.S.S.S.S.S.S.S.S.S.S.S.S.S.S.S.S.S.",
"S.S.S.S.S.S.S.S.S.S.S.S.S.S.S.S.S.S.S.S.S.S.S.S.S.S.S.S.S.S.S.S.S.S.S.S.S.S.S.S.S.S.S.S.S.S.S.S.S.S.S.S.S.S.S.S.S.S.S.S.S.S.S.S.",
"S.S.S.S.S.S.S.S.S.S.S.S.S.S.S.S.S.S.S.S.S.S.S.S.S.S.S.S.S.S.S.S.S.S.S.S.S.S.S.S.S.S.S.S.S.S.S.S.S.S.S.S.S.S.S.S.S.S.S.S.S.S.S.S.",
"S.S.S.S.S.S.S.S.S.S.S.S.S.S.S.S.S.S.S.S.S.S.S.S.S.S.S.S.S.S.S.S.S.S.S.S.S.S.S.S.S.S.S.S.S.S.S.S.S.S.S.S.S.S.S.S.S.S.S.S.S.S.S.S.",
"S.S.S.S.S.S.S.S.S.S.S.S.S.S.S.S.S.S.S.S.S.S.S.S.S.S.S.S.S.S.S.S.S.S.S.S.S.S.S.S.S.S.S.S.S.S.S.S.S.S.S.S.S.S.S.S.S.S.S.S.S.S.S.S.",
"S.S.S.S.S.S.S.S.S.S.S.S.S.S.S.S.S.S.S.S.S.S.S.S.S.S.S.S.S.S.S.S.S.S.S.S.S.S.S.S.S.S.S.S.S.S.S.S.S.S.S.S.S.S.S.S.S.S.S.S.S.S.S.S.",
"S.S.S.S.S.S.S.S.S.S.S.S.S.S.S.S.S.S.S.S.S.S.S.S.S.S.S.S.S.S.S.S.S.S.S.S.S.S.S.S.S.S.S.S.S.S.S.S.S.S.S.S.S.S.S.S.S.S.S.S.S.S.S.S.",
"S.S.S.S.S.S.S.S.S.S.S.S.S.S.S.S.S.S.S.S.S.S.S.S.S.S.S.S.S.S.S.S.S.S.S.S.S.S.S.S.S.S.S.S.S.S.S.S.S.S.S.S.S.S.S.S.S.S.S.S.S.S.S.S."
};
