/* XPM */
static char *run_rev_2[] = {
/* columns rows colors chars-per-pixel */
"32 32 204 2 ",
"   c None",
".  c #291C0C",
"X  c #2A1C0C",
"o  c #2A1D0D",
"O  c #2A1E0E",
"+  c #2B1E0E",
"@  c #2F2110",
"#  c #2D2211",
"$  c #2B2413",
"%  c #302110",
"&  c #322412",
"*  c #312314",
"=  c #322414",
"-  c #342515",
";  c #342516",
":  c #352617",
">  c #362718",
",  c #39291A",
"<  c #3D2D1A",
"1  c #3B2C1C",
"2  c #3C2C1C",
"3  c #3C2C1E",
"4  c #3D2D1F",
"5  c #3D2E1F",
"6  c #3D2E20",
"7  c #3F2F20",
"8  c #3E2F21",
"9  c #3F2F21",
"0  c #3F2F22",
"q  c #3F3022",
"w  c #572A10",
"e  c #572B10",
"r  c #592C11",
"t  c #5A2C11",
"y  c #4A301F",
"u  c #633116",
"i  c #66341A",
"p  c #403022",
"a  c #413022",
"s  c #463525",
"d  c #4A3620",
"f  c #4A3827",
"g  c #4C3826",
"h  c #4C3927",
"j  c #4A3828",
"k  c #4D3A28",
"l  c #4C3A29",
"z  c #593623",
"x  c #693C27",
"c  c #633D2B",
"v  c #773C21",
"b  c #59432F",
"n  c #5E462E",
"m  c #5F4732",
"M  c #734626",
"N  c #7D4126",
"B  c #794C2B",
"V  c #684430",
"C  c #664C33",
"Z  c #674C33",
"A  c #674D33",
"S  c #684D33",
"D  c #6F5237",
"F  c #665439",
"G  c #705437",
"H  c #73563B",
"J  c #7D593C",
"K  c #7B5B40",
"L  c #7C5F42",
"P  c #4B6248",
"I  c #83472A",
"U  c #8F4A2F",
"Y  c #874E35",
"T  c #894B34",
"R  c #934D35",
"E  c #965135",
"W  c #9E5339",
"Q  c #9E553B",
"!  c #A3553A",
"~  c #A5563B",
"^  c #A6573C",
"/  c #A7583E",
"(  c #A9593E",
")  c #AA593E",
"_  c #AC5A3F",
"`  c #97613E",
"'  c #8F5E41",
"]  c #AD5B40",
"[  c #AE5B40",
"{  c #B05F43",
"}  c #856545",
"|  c #866445",
" . c #866447",
".. c #876547",
"X. c #876647",
"o. c #8A6747",
"O. c #886648",
"+. c #876C4C",
"@. c #886949",
"#. c #88694A",
"$. c #926D4D",
"%. c #9D6C4B",
"&. c #96704F",
"*. c #837B59",
"=. c #987250",
"-. c #9A7351",
";. c #9B7451",
":. c #9B7452",
">. c #9C7552",
",. c #9D7552",
"<. c #9E7753",
"1. c #9F7754",
"2. c #9F7854",
"3. c #9E7B57",
"4. c #A6764E",
"5. c #A17955",
"6. c #A57C57",
"7. c #A57D58",
"8. c #A57E58",
"9. c #AA815B",
"0. c #AB835C",
"q. c #AE855D",
"w. c #B08257",
"e. c #B08960",
"r. c #B58A61",
"t. c #B78D63",
"y. c #BA8A60",
"u. c #B88E63",
"i. c #BA8F64",
"p. c #BB9065",
"a. c #BC9166",
"s. c #BF9267",
"d. c #B49168",
"f. c #BC966C",
"g. c #BC986D",
"h. c #BF996D",
"j. c #C89867",
"k. c #C3976A",
"l. c #C4976A",
"z. c #C4986B",
"x. c #C39A6D",
"c. c #C59D6F",
"v. c #C99C6D",
"b. c #CB9D6E",
"n. c #CB9E6F",
"m. c #CC9D6D",
"M. c #CC9E6F",
"N. c #CC9F6F",
"B. c #D29B6E",
"V. c #C09E73",
"C. c #C99E70",
"Z. c #C4A174",
"A. c #C4A276",
"S. c #CCA172",
"D. c #CCA576",
"F. c #CBA77A",
"G. c #CAA879",
"H. c #CCA87A",
"J. c #D4A573",
"K. c #DAAA77",
"L. c #D5AA79",
"P. c #D5AB7A",
"I. c #D3AC7B",
"U. c #DEAD79",
"Y. c #DCAE7B",
"T. c #D8AE7C",
"R. c #D9B17F",
"E. c #DAB17F",
"W. c #E7B57F",
"Q. c #D9B685",
"!. c #D9B887",
"~. c #DEBB89",
"^. c #E5B882",
"/. c #E3BB87",
"(. c #EAB880",
"). c #EBB981",
"_. c #EDBA82",
"`. c #EDBB83",
"'. c #EFBC83",
"]. c #EBBE87",
"[. c #E3BC88",
"{. c #F0BA82",
"}. c #F1BE85",
"|. c #F3BF86",
" X c #DFC492",
".X c #E8C18B",
"XX c #F3C086",
"oX c #F5C187",
"OX c #F6C187",
"+X c #F6C287",
"@X c #F2C289",
"#X c #F4C288",
"$X c #F5C389",
"%X c #F6C288",
"&X c #F4C38A",
"*X c #F6C48A",
"=X c #F6C58C",
"-X c #EBC892",
";X c #EECB95",
":X c #F5CE96",
">X c #F6D29A",
",X c #F5D79F",
"<X c #F6D69E",
"1X c #F6D8A0",
/* pixels */
"                                                                ",
"                                                                ",
"                                                                ",
"                                                                ",
"                                                                ",
"                                                                ",
"                 Xd.                                            ",
"              ~.V.g.R.      i !                                 ",
"              ^.T.R.x.7.    u ( [                               ",
"              ` 4.c.Z.Z.        ~ (           _.                ",
"              R ' P.!.P.G.k z W v U (       .Xn.                ",
"        O     V K Y.[.D.y.Y Q / E I       /.S.                  ",
"              3.t.I.F.Q.B.{ T c %.M.      f.                    ",
"              B w.n.H.g.J x y 6 j 7.n.n.z.                      ",
"            e e M j.u.G % O > 4 6 k                             ",
"          r e e       & O O # - 4 1 g                           ",
"          N r           O $ P F S A H p.                        ",
"        [ ^                 *.+.#.#.e.(.#X                      ",
"          [ [ [           ,X;X-X].(.|.OXXXM.                    ",
"            [ _     OX#X:X,X1X>X=XOXOX#X_.0.g 4                 ",
"                {.OXOXOX*X#X@X#XOXOX|._.l.=.n , 4 6   6 6 6     ",
"                (.|.#X'.(.J.i.k.W.Y.a.r.3.>.:.A * - - - - -     ",
"                q.M.K.a.9.6.  m L ..o.:.>.>.>.:.                ",
"                :.3.5.>.>.      6 & d ..=.>.>.>.                ",
"                  &.O.....        O O < A =.>.>.                ",
"                    f s s             # D :.>.>.>.              ",
"                      6 p p             :.>.>.>.$.              ",
"                        p p                   ..b               ",
"                        q                       p p             ",
"                                                p p p           ",
"                                                p p             ",
"                                                                "
};
