/* XPM */
static char *run_rev_5[] = {
/* columns rows colors chars-per-pixel */
"32 32 181 2 ",
"   c None",
".  c #291C0C",
"X  c #291C0D",
"o  c #291D0D",
"O  c #2A1D0D",
"+  c #2C1E0E",
"@  c #2D1F0F",
"#  c #2D2010",
"$  c #2D2011",
"%  c #312314",
"&  c #322414",
"*  c #342616",
"=  c #352718",
"-  c #382918",
";  c #392A1B",
":  c #392A1C",
">  c #3B2C1D",
",  c #3B2C1E",
"<  c #3C2C1C",
"1  c #3C2E1F",
"2  c #3D2E1F",
"3  c #3F3021",
"4  c #3F3022",
"5  c #53290F",
"6  c #562A0F",
"7  c #422E1D",
"8  c #4D2F1C",
"9  c #572B10",
"0  c #5F3015",
"q  c #653318",
"w  c #66391A",
"e  c #6A3C1E",
"r  c #413021",
"t  c #403022",
"y  c #413122",
"u  c #453425",
"i  c #4D3525",
"p  c #413924",
"a  c #4E3925",
"s  c #4D3826",
"d  c #4E3B29",
"f  c #503826",
"g  c #533E2C",
"h  c #763E23",
"j  c #56412D",
"k  c #5E422A",
"l  c #5C442B",
"z  c #454A32",
"x  c #5F4730",
"c  c #72422C",
"v  c #76432D",
"b  c #624A34",
"n  c #674D36",
"m  c #694F37",
"M  c #6B5038",
"N  c #78553C",
"B  c #76593D",
"V  c #7A5C40",
"C  c #7B5F42",
"Z  c #7C5D41",
"A  c #6A6146",
"S  c #697356",
"D  c #85482C",
"F  c #874D2F",
"G  c #8D492E",
"H  c #8D4C35",
"J  c #944D32",
"K  c #855A3F",
"L  c #99553B",
"P  c #9E553A",
"I  c #9E553C",
"U  c #A5563B",
"Y  c #A0553C",
"T  c #A4573C",
"R  c #A6573C",
"E  c #A65A3F",
"W  c #AC5A3F",
"Q  c #AD5B40",
"!  c #AE5B40",
"~  c #856648",
"^  c #8A694A",
"/  c #936242",
"(  c #966443",
")  c #9D6D46",
"_  c #916C4C",
"`  c #8F704F",
"'  c #987250",
"]  c #9A7351",
"[  c #997651",
"{  c #9B7452",
"}  c #9B7552",
"|  c #9F7854",
" . c #A07854",
".. c #A17A55",
"X. c #A27B56",
"o. c #A47F56",
"O. c #A87C57",
"+. c #A9845D",
"@. c #AA855F",
"#. c #AE845D",
"$. c #AD865D",
"%. c #B0875E",
"&. c #B48A60",
"*. c #B58A61",
"=. c #B78C62",
"-. c #B98E64",
";. c #B99065",
":. c #BA9065",
">. c #B49169",
",. c #B79368",
"<. c #BC9469",
"1. c #BE996E",
"2. c #BE9A6F",
"3. c #C0805A",
"4. c #C59166",
"5. c #C69267",
"6. c #C39464",
"7. c #C29568",
"8. c #C39669",
"9. c #C29769",
"0. c #C39A6C",
"q. c #C49A6C",
"w. c #C49A6D",
"e. c #C59B6D",
"r. c #C59B6F",
"t. c #C79E6F",
"y. c #C4A074",
"u. c #CEA070",
"i. c #CCA576",
"p. c #CCA678",
"a. c #C9A87B",
"s. c #CCA879",
"d. c #CDAB7D",
"f. c #D0A270",
"g. c #D2A372",
"h. c #D3A674",
"j. c #D2A675",
"k. c #D7AC7B",
"l. c #D3AE7E",
"z. c #DEAD79",
"x. c #DFAF7A",
"c. c #D9AE7D",
"v. c #DCB17F",
"b. c #E2B27D",
"n. c #E4B37D",
"m. c #CEAF80",
"M. c #D5B787",
"N. c #D9B381",
"B. c #DAB381",
"V. c #DCB885",
"C. c #DCBA88",
"Z. c #E3B680",
"A. c #E2B984",
"S. c #EBB881",
"D. c #EDBA82",
"F. c #EDBB82",
"G. c #EEBB82",
"H. c #EEBB83",
"J. c #E6BF8A",
"K. c #E8BE88",
"L. c #E6C28E",
"P. c #E9C48E",
"I. c #EDC68F",
"U. c #F4C086",
"Y. c #F5C187",
"T. c #F6C187",
"R. c #F6C287",
"E. c #F5C288",
"W. c #F5C389",
"Q. c #F6C288",
"!. c #F6C389",
"~. c #F7C389",
"^. c #F7C489",
"/. c #F5C48A",
"(. c #F5C88F",
"). c #F5CC93",
"_. c #F5CF97",
"`. c #F6D199",
"'. c #F5D39B",
"]. c #F5D49C",
"[. c #F5D69E",
/* pixels */
"                                                                ",
"                                                                ",
"                                                                ",
"                                                                ",
"                                                                ",
"                                                                ",
"                                                                ",
"              m.M.>.1.                                          ",
"              L.1.y.B.    5 q U                                 ",
"              f.h.k.<.@.        Q Q       K.b.I.                ",
"              F ( r.d.l.        J T     J.r.%.t.P.              ",
"              H K c.C.h.>.f c T h D 3.A.r.      ;.              ",
"          & s N ^ v.B.s.4.L Y I P / O.*.                        ",
"              $.9.p.a.V.4.E v i                                 ",
"              w ) u.i.@.k 8 7 t t                               ",
"            9 6 e 6.o.l o o * > 4 t u                           ",
"          0 9         @ o o o @ - s M b                         ",
"          G               @ p z x B ~ V n                       ",
"          W Q               A S ` ;.n.;.V 2 : 2 4       2       ",
"            Q Q             0.r.Z.E.T.T.x.[ $ % - > > > =       ",
"              Q             ^.E.`.).T.T.E.T.      $   $         ",
"                            E.E.'.[.E.T.T.                      ",
"                            E.E._.[.E.T.S.                      ",
"                            u.G.^.(.E.T.f.                      ",
"                            ..9.G.E.T.x.$.                      ",
"                              ..9.G.G.=.[                       ",
"                                | *.-..._                       ",
"                                [ ' ' Z g d                     ",
"                                  m m j t t                     ",
"                                  t t   t                       ",
"                                t t                             ",
"                                4 t                             "
};
