/* XPM */
static char *run_rev_7[] = {
/* columns rows colors chars-per-pixel */
"64 64 157 2 ",
"   c None",
".  c #2A1D0D",
"X  c #2E200F",
"o  c #2F2112",
"O  c #2E2A18",
"+  c #322415",
"@  c #3A2A17",
"#  c #362819",
"$  c #3B2B1C",
"%  c #3E2F21",
"&  c #3F3022",
"*  c #323521",
"=  c #43250F",
"-  c #572B0F",
";  c #582C0F",
":  c #4D2E1B",
">  c #572B10",
",  c #592C11",
"<  c #43311E",
"1  c #4C311D",
"2  c #5F3014",
"3  c #613116",
"4  c #69351A",
"5  c #6D3A1E",
"6  c #71391F",
"7  c #402F22",
"8  c #403022",
"9  c #493624",
"0  c #423D27",
"q  c #4C3822",
"w  c #513C2B",
"e  c #593A29",
"r  c #523C25",
"t  c #603926",
"y  c #653E2B",
"u  c #7B3F24",
"i  c #3B4E36",
"p  c #3C5139",
"a  c #57412C",
"s  c #5D452C",
"d  c #5C4531",
"f  c #724525",
"g  c #7E4126",
"h  c #7F452E",
"j  c #774928",
"k  c #634B34",
"l  c #6C4E33",
"z  c #714631",
"x  c #6D5239",
"c  c #63593E",
"v  c #73563B",
"b  c #77593D",
"n  c #785A3D",
"m  c #5C5841",
"M  c #6C5E41",
"N  c #7B5C41",
"B  c #4C7758",
"V  c #4B7B5B",
"C  c #547358",
"Z  c #7F6245",
"A  c #697B5A",
"S  c #88472C",
"D  c #8E4E36",
"F  c #81533A",
"G  c #9D5237",
"H  c #945139",
"J  c #9C5C3F",
"K  c #A4563C",
"L  c #A7583E",
"P  c #AC5B3F",
"I  c #805F41",
"U  c #AD5B40",
"Y  c #846445",
"T  c #886546",
"R  c #816949",
"E  c #8D6A4B",
"W  c #916D4C",
"Q  c #9B6946",
"!  c #95704E",
"~  c #9C7552",
"^  c #9E7853",
"/  c #A46344",
"(  c #A26B4B",
")  c #B66D4C",
"_  c #A27A55",
"`  c #A67956",
"'  c #BD7656",
"]  c #BF7B56",
"[  c #749F78",
"{  c #749A74",
"}  c #A7835C",
"|  c #AD835C",
" . c #B28255",
".. c #B68558",
"X. c #BE8E5F",
"o. c #899A73",
"O. c #AB8560",
"+. c #AD8962",
"@. c #B48C62",
"#. c #B98E63",
"$. c #BD9166",
"%. c #B5926A",
"&. c #B9956D",
"*. c #BC9A6F",
"=. c #BD9B70",
"-. c #C8825B",
";. c #C29669",
":. c #C6996C",
">. c #CA9C6E",
",. c #C59463",
"<. c #D0956B",
"1. c #C09F73",
"2. c #CB9E70",
"3. c #C2A176",
"4. c #CCA172",
"5. c #C6A67A",
"6. c #C8A77A",
"7. c #CBAB7D",
"8. c #D2A372",
"9. c #D6A876",
"0. c #DAAA77",
"q. c #D0AE7F",
"w. c #DCAC79",
"e. c #DEB17C",
"r. c #E0AD77",
"t. c #E1AF7A",
"y. c #E3B27D",
"u. c #ECB77F",
"i. c #5BA882",
"p. c #6DDDAE",
"a. c #71E8B7",
"s. c #75F4C1",
"d. c #D3B383",
"f. c #D8B685",
"g. c #DDB986",
"h. c #DABE8D",
"j. c #E9B780",
"k. c #E7BA84",
"l. c #EDBB83",
"z. c #E0BD8A",
"x. c #F2BE85",
"c. c #ECC28C",
"v. c #F5C187",
"b. c #F5C48B",
"n. c #EFCB94",
"m. c #EECF99",
"M. c #F0C790",
"N. c #F5CB92",
"B. c #ECD29D",
"V. c #F5D097",
"C. c #F5D199",
"Z. c #F5D59D",
"A. c #F5D39B",
"S. c #F5DAA2",
"D. c #F3DBA4",
"F. c #F5DDA6",
"G. c #F5DBA4",
/* pixels */
"                                                                                                                                ",
"                                                                                                                                ",
"                                                                                                                                ",
"                                                                                                                                ",
"                                                                                                                                ",
"                                                                                                                                ",
"                                                                                                                                ",
"                                              .                                                                                 ",
"                                              .                                                                                 ",
"                                              .                                                                                 ",
"                    ~ d.F.F.&.~ ~             .                                                                                 ",
"                  B.d.5.3.3.} @.d.k.          = > u U                                                                           ",
"                  Z.Z.q.+.~ +.7.C.y.          > > g U                                                                           ",
"                  v.v.C.h.~ h.C.l.|           > > g U P P U                                                                     ",
"                  ;.l.b.c.0.c.e.@._           >       U U U U                 Z.v.v.v.b.S.                                      ",
"                  _ ....X.8.8.4.=._ %.        :       U U U U U             Z.c.8.8.8.8.d.h.                                    ",
"                    2 3 f ~ _ 3.B.+.6.S.      8         K K U U P         S.M.0.~ ~ ~ ~ ~ 5.B.B.                                ",
". . .               G G J ~ 2.c.B.+.2.N.G.    % +       4 u P U P   F.F.S.N.4.|           O.+.+.9.v.                            ",
"      . .           P D F ~ 0.N.B.+.>.k.7.R # 8 t h P P 6 3 g G ' G.C.z.6.>.@.                                                  ",
"      . . .         H y d ~ 0.N.m.*.2.9.@.l : e H U U U S 5 j / <.Z.k.:.~ ~                                                     ",
"            . $     9 8 d ~ 0.v.b.B.6.@.u.] K K P U U U P ) t.u.x.x.@._                                                         ",
"                  d } E ! 8.c.g.$.=.7.g.v.-.U U U H z Q ( ` $.$.$.$.|                                                           ",
"                  k y.>.;.0.f.7.&.&.f.n.w.] U U D y 9 v E ~ ~ ~ ~ ~                                                             ",
"                      l.0.^ ~ 1.D.D.N.t._ / P L : # 8 8                                                                         ",
"                    , f Q w.w.4.%.%.@.^ r 1 : : $ $ 8 8 8 7                                                                     ",
"                  > > > f  .r.y.;.;.! s + . . . $ 8 8 8 8 8                                                                     ",
"                , > > > > > ,.j.0.0.Y . . . . . # $ % 8 8 8 8 8 &                                                               ",
"              - , > > >         q q @ . . . . . . o + $ 8 8 8 8 8 8                                                             ",
"            > > > , ;               . . . . . . . . . + # # # # 9 v E           8 & & & & & & & & & 8                           ",
"          g 4 , > >                   . . . . . . . . . . O i 0 s T T N         8 $ $ $ $ $ $ $ % 8 &                           ",
"        U P K 4 >                         . . . . . . . . i p.o.N 9 9 8 & & & & 8 + . . . . . . # 8 8 & & &                     ",
"        P U P                                   l A i.i.A M C m Z @.@.@._ < + + + o             + + + + + + .                   ",
"        P U U                                   n { s.s.[ b Z Y } v.v.v.e.Y v k .                 . . . . . .                   ",
"        U P U U U U                           ~ q B a.a.V s u.x.v.v.v.v.v.v.v.v.                                                ",
"              U U U U P P                   ~ ~ T c p p * q } w.v.v.v.v.v.v.v.v.v.                                              ",
"                U U U U P                 ~ ~ ~ ~ l . . . # x | 0.v.v.v.v.N.N.N.v.v.                                            ",
"                  P P P U         ~ ~ ~ ~ ~ ~ ~ ~ v @ . . o % v | u.x.v.b.S.F.Z.b.v.v.                                          ",
"                            ~ ~ ~ ~ ~ ~ ~ ~ ~ ~ ~ ! I @ . o % 9 x | y.v.b.S.F.F.S.N.v.v.v.v.v.                    8             ",
"                    ~ ~ ~ ~ ~ ~ ~ ~ ~ ~ ~ ~ ~ ~ ~ ~ E @ . . + $ k ~ #.0.v.N.N.C.F.Z.C.V.b.v.v.v.v.v.v.          8 7 8           ",
"                    ~ ~ ~ ~ ~ ~ ~ ~ ~ ~ ~ ~ ~ ~ ~ ~ W a @ . . # a Y ! #.y.x.v.b.Z.S.F.S.b.v.v.v.v.v.v.        7 8 8 8 &         ",
"                  ~ ~ ~ ~ ~ ~ ~ ~ ~ ~ ~ ~ ~ ~ ~ ~ ~ ~ ~ s . . # 8 9 T ~ | j.v.v.v.Z.F.S.b.v.v.v.v.v.v.v.8.W w 8 8 8 8 & 8       ",
"                  ~ ~ ~ ~ ~ ~ ~ ~ ~ ~ ~ ~ ~ ~ ~ ~ ~ ~ ~ s . . o # 8 a N _ @.#.>.v.b.N.N.v.v.v.v.v.v.v.>.| W w 8 8   8 8 8 8     ",
"                l N ~ ~ ~ ~ ~ ~ ~ ~ ~ ~ ~ ~ ~ ~ ~ ~ ~ ~ s . . . o # # w n ! ~ } 8.8.t.v.v.v.v.v.t.8.8.| ~ W w 7       & & &     ",
"              8 8 w W ~ ~ ~ ~ ~ ~ ~ ~ ~ ~ ~ ~ ~ ~ ~ ~       . . . . . . @ Y W ! ~ ~ $.l.l.l.l.l.$.~ ~ ~ ~ W w                   ",
"    &       & 8 8 w W ~ ~ ~ ~ ~ ~ ~ ~ ~ ~ ~ ~ ~               . . . . . X $ < s ~ ~ _ | | | | | _ ~ ~ ~ ~                       ",
"  & 8 8   & 8 8 8 w W ~ ~ ~ ~ ~ ~ ~ ~ ~ ~ ~ ~                   . . . . . . . q ~ ~ ~ ~ ~ ~ ~ ~ ~ ~ ~ ~                         ",
"  & 8 8 8 8 8 8         ~ ~ ~ ~ ~                                                     ~ ~ ~ ~ ~ ~ ~ ~                           ",
"  & 8 8 8 8 8                                                                                                                   ",
"    & & &                                                                                                                       ",
"      8                                                                                                                         ",
"                                                                                                                                ",
"                                                                                                                                ",
"                                                                                                                                ",
"                                                                                                                                ",
"                                                                                                                                ",
"                                                                                                                                ",
"                                                                                                                                ",
"                                                                                                                                ",
"                                                                                                                                ",
"                                                                                                                                ",
"                                                                                                                                ",
"                                                                                                                                ",
"                                                                                                                                ",
"                                                                                                                                "
};
