/* XPM */
static char *run_rev_1[] = {
/* columns rows colors chars-per-pixel */
"32 32 190 2 ",
"   c None",
".  c #291C0C",
"X  c #291C0D",
"o  c #291D0D",
"O  c #2A1D0D",
"+  c #2C1E0E",
"@  c #2D1F0E",
"#  c #2D1F0F",
"$  c #2D2010",
"%  c #2D2011",
"&  c #312314",
"*  c #322414",
"=  c #342516",
"-  c #362719",
";  c #382918",
":  c #392A1B",
">  c #392A1C",
",  c #3B2B1C",
"<  c #3B2B1D",
"1  c #3B2C1D",
"2  c #3B2C1E",
"3  c #3D2D1E",
"4  c #3D2E1F",
"5  c #3E2F21",
"6  c #3F2F21",
"7  c #3F3022",
"8  c #53290F",
"9  c #562A0F",
"0  c #422D1D",
"q  c #4D2F1C",
"w  c #572B10",
"e  c #5F3014",
"r  c #66391B",
"t  c #6B3A1E",
"y  c #6A3C1E",
"u  c #402F22",
"i  c #413021",
"p  c #403022",
"a  c #413022",
"s  c #463525",
"d  c #4D3525",
"f  c #4D3726",
"g  c #413924",
"h  c #4D3825",
"j  c #4F3B29",
"k  c #533E2C",
"l  c #763D22",
"z  c #56412D",
"x  c #5E422A",
"c  c #5C442B",
"v  c #5B452F",
"b  c #454A32",
"n  c #5F4830",
"m  c #6A4325",
"M  c #72422C",
"N  c #76432D",
"B  c #684E37",
"V  c #684F37",
"C  c #6C4F36",
"Z  c #6E5239",
"A  c #71563A",
"S  c #71573C",
"D  c #78563C",
"F  c #76593D",
"G  c #7C5E41",
"H  c #7D5E41",
"J  c #6A6146",
"K  c #697356",
"L  c #834429",
"P  c #874D2F",
"I  c #8D492E",
"U  c #8D4C35",
"Y  c #954D32",
"T  c #855A3F",
"R  c #9F5338",
"E  c #99553A",
"W  c #9E553C",
"Q  c #A1553B",
"!  c #A1553C",
"~  c #A5573C",
"^  c #A65A3F",
"/  c #A85B3F",
"(  c #AC5A40",
")  c #AD5B40",
"_  c #A85E41",
"`  c #836547",
"'  c #8A694A",
"]  c #966443",
"[  c #9C6D46",
"{  c #926D4C",
"}  c #8F704F",
"|  c #94734F",
" . c #9B7451",
".. c #997651",
"X. c #9C7552",
"o. c #9D7652",
"O. c #B16043",
"+. c #A07952",
"@. c #A07955",
"#. c #A47C57",
"$. c #A47F57",
"%. c #BD7854",
"&. c #A9815A",
"*. c #AA815B",
"=. c #AB825B",
"-. c #A8845D",
";. c #AA855F",
":. c #AD865C",
">. c #AE865D",
",. c #BD8C62",
"<. c #B99065",
"1. c #BB9065",
"2. c #B49168",
"3. c #BC9469",
"4. c #BD976B",
"5. c #BE996E",
"6. c #BE9A6F",
"7. c #C8865F",
"8. c #C59266",
"9. c #C69267",
"0. c #C39464",
"q. c #C19568",
"w. c #C29669",
"e. c #C3976A",
"r. c #C2996B",
"t. c #C49A6C",
"y. c #C49B6E",
"u. c #CB9D6E",
"i. c #CD9F6F",
"p. c #C4A074",
"a. c #CEA070",
"s. c #CCA273",
"d. c #CEA575",
"f. c #CCA576",
"g. c #CCA678",
"h. c #CAA97B",
"j. c #CCA879",
"k. c #CDAB7D",
"l. c #D0A270",
"z. c #D2A473",
"x. c #D2A675",
"c. c #D3A775",
"v. c #DAAA77",
"b. c #D2AE7E",
"n. c #DBAB78",
"m. c #D8AD7B",
"M. c #DFAF7A",
"N. c #D9AF7C",
"B. c #DCB17E",
"V. c #E0AF7B",
"C. c #E0B07B",
"Z. c #E3B27C",
"A. c #E3B27D",
"S. c #CDAE80",
"D. c #D5B787",
"F. c #D9B381",
"G. c #DAB381",
"H. c #DCB886",
"J. c #DCBB88",
"K. c #E3B681",
"L. c #E8B780",
"P. c #EAB880",
"I. c #ECB981",
"U. c #EDBB83",
"Y. c #F0BD84",
"T. c #F1BE85",
"R. c #F2BF85",
"E. c #F2BF86",
"W. c #E6C28D",
"Q. c #ECC58E",
"!. c #F5C186",
"~. c #F5C187",
"^. c #F6C187",
"/. c #F5C288",
"(. c #F5C389",
"). c #F6C288",
"_. c #F7C388",
"`. c #F5C48B",
"'. c #F5C58C",
"]. c #F7C68D",
"[. c #F6C78D",
"{. c #EBC690",
"}. c #F5CB92",
"|. c #F2CC94",
" X c #F5CC94",
".X c #F5D199",
"XX c #F5D59C",
"oX c #F5D69F",
"OX c #F6D69E",
"+X c #F5DCA5",
/* pixels */
"                                                                ",
"                                                                ",
"                                                                ",
"                                                                ",
"                                                                ",
"                                                                ",
"                                                                ",
"              S.D.2.5.                                          ",
"              W.5.p.G.    8 t /     U.U.                        ",
"              l.c.m.3.;.  m +.7.O.%.,.<.a.{.                    ",
"              P ] y.k.b.|.| S   Y ~ _     f.Q.                  ",
"              U T N.J.c.3.C M Q l L         L.                  ",
"          * d D ' B.G.j.8.E ! W R           i.v.P.              ",
"              >.w.g.h.H.8.^ N d                                 ",
"              r [ a.f.;.x q 0 p p                               ",
"            w 9 y 0.$.c o o = 1 5 p s                           ",
"          e w         # o o o # ; h Z H                         ",
"          I               # g b n F ` v 3                       ",
"          ) )               J K } <.Z.>.A > > 3 7       5       ",
"            ) )             r.y.K.'._.~.V...% & ; 1 1 > -       ",
"              )             _.'.oXoX_.~.~.Y.      %   %         ",
"                            ~.}.+XoX_._.M.                      ",
"                            ~.}.+X.X_.Y.w.                      ",
"                            Y.'. X`.~.C.$.                      ",
"                            u.Z.~.~.Y.w.X.                      ",
"                              z.Y._.V.*.X.                      ",
"                                n.P.w...{                       ",
"                                *.*.@.H k j                     ",
"                                  V V z u p                     ",
"                                  p p   p                       ",
"                                p p                             ",
"                                7 7                             "
};
