/* XPM */
static char *run_rev_s_1[] = {
/* columns rows colors chars-per-pixel */
"32 32 167 2 ",
"   c None",
".  c #2A1D0C",
"X  c #2B1D0C",
"o  c #2A1C0D",
"O  c #2A1D0D",
"+  c #2C1F0F",
"@  c #2F2212",
"#  c #302211",
"$  c #312413",
"%  c #332515",
"&  c #352717",
"*  c #352718",
"=  c #3B2B1D",
"-  c #3B2C1D",
";  c #3E2C1D",
":  c #3C2C1F",
">  c #3D2D1F",
",  c #3E321D",
"<  c #3E2E20",
"1  c #3F3021",
"2  c #3E3121",
"3  c #3F3022",
"4  c #3F3023",
"5  c #482B19",
"6  c #572B10",
"7  c #592C12",
"8  c #5A2E12",
"9  c #613116",
"0  c #623518",
"q  c #6D371C",
"w  c #653C1E",
"e  c #402F22",
"r  c #403021",
"t  c #403022",
"y  c #413022",
"u  c #453220",
"i  c #493727",
"p  c #4D3A28",
"a  c #4E3B28",
"s  c #523A24",
"d  c #3E442D",
"f  c #5A432A",
"g  c #59432D",
"h  c #784024",
"j  c #7E4125",
"k  c #75432D",
"l  c #77422C",
"z  c #664D36",
"x  c #684D33",
"c  c #6C4F37",
"v  c #6E5339",
"b  c #7E573D",
"n  c #72583A",
"m  c #745A3F",
"M  c #785A3E",
"N  c #695B42",
"B  c #7B5C41",
"V  c #7D5F43",
"C  c #60795C",
"Z  c #914B31",
"A  c #944D31",
"S  c #8A593A",
"D  c #9B543B",
"F  c #9C543A",
"G  c #9D553B",
"H  c #A3553A",
"J  c #A7583E",
"K  c #A9593E",
"L  c #AA593E",
"P  c #AA593F",
"I  c #AC5A3E",
"U  c #AD5B3E",
"Y  c #AC5B40",
"T  c #AD5B40",
"R  c #AE5B40",
"E  c #AD5C40",
"W  c #AC5D41",
"Q  c #816044",
"!  c #8D6D4D",
"~  c #906B4B",
"^  c #96714F",
"/  c #9B7451",
"(  c #9C7552",
")  c #9D7652",
"_  c #9C7955",
"`  c #A07249",
"'  c #A07854",
"]  c #A47C57",
"[  c #A77E58",
"{  c #A87F59",
"}  c #BA7552",
"|  c #A88359",
" . c #AA845C",
".. c #AD8A5F",
"X. c #B4875E",
"o. c #B38B5F",
"O. c #AF8B64",
"+. c #B18B61",
"@. c #B48860",
"#. c #B48A60",
"$. c #B48B63",
"%. c #B28E67",
"&. c #BA8F64",
"*. c #B39066",
"=. c #BA9267",
"-. c #BE9266",
";. c #B69168",
":. c #BD976C",
">. c #BE9E71",
",. c #BF9D72",
"<. c #CF8C63",
"1. c #C79765",
"2. c #C3976A",
"3. c #C4976A",
"4. c #C99569",
"5. c #C89B6C",
"6. c #C89B6D",
"7. c #D29C6D",
"8. c #C89D70",
"9. c #C5A275",
"0. c #CEA171",
"q. c #CEA271",
"w. c #C7A77A",
"e. c #C9A779",
"r. c #D0A271",
"t. c #D6A674",
"y. c #D8A876",
"u. c #DDAD78",
"i. c #DEAD79",
"p. c #DEB07C",
"a. c #DFB17D",
"s. c #E0AF7A",
"d. c #E1AF7A",
"f. c #E4B37D",
"g. c #E6B57E",
"h. c #D5B281",
"j. c #D4B687",
"k. c #DFB683",
"l. c #DABC8B",
"z. c #E1B580",
"x. c #E2B580",
"c. c #E9B680",
"v. c #EAB880",
"b. c #E8BA83",
"n. c #EEBB84",
"m. c #E6BF8A",
"M. c #F0BC84",
"N. c #F1BD84",
"B. c #F2BE85",
"V. c #E5C18D",
"C. c #F5C187",
"Z. c #F5C289",
"A. c #F5C48A",
"S. c #F5C58B",
"D. c #E0C591",
"F. c #EBC791",
"G. c #F5CA91",
"H. c #F1CD96",
"J. c #F5CD95",
"K. c #F1CF99",
"L. c #F4D097",
"P. c #F6D098",
"I. c #F5D29A",
"U. c #F5D69E",
"Y. c #F5D69F",
"T. c #F5D79F",
"R. c #F5DDA6",
/* pixels */
"                                                                ",
"                                                                ",
"                                                                ",
"                                                                ",
"                                                                ",
"                                                                ",
"                                                                ",
"              >.D.O.;.                                          ",
"            P.F.%.>.m.      9 L                                 ",
"            $.u.p.z.$.    w ..<.W } X.$.8.K.                    ",
"              h S =.j.h.L._ v   A L W     0.H.                  ",
"        O     D b p.l.t.*.g k L q j         B.                  ",
"          $   c V z.k.9.7.F J F H           -.s.n.              ",
"              r.5.e.w.V.4.T k y               )                 ",
"              0 ` y.:. .s 5 ; y e                               ",
"            6 6 8 1.o.f O O * - y e                             ",
"          8 6         O O O O + % u B ~                         ",
"        I Z               O , d x M m a ;                       ",
"        T T I               N C ! +.C.| n & < 2 2 2 2 2 2       ",
"            T T             0.0.v.S.C.C.g.  @ # = ; ; ; *       ",
"              T             C.S.Y.Y.C.C.C.      O O O O         ",
"                            C.G.R.Y.C.C.s.                      ",
"                            C.G.R.P.C.B.5.                      ",
"                            C.S.J.Z.C.c.)                       ",
"                            &.v.C.C.C.&.)                       ",
"                              2.C.C.f.{ )                       ",
"                                u.B.3./ ^                       ",
"                                [ ] ' Q i                       ",
"                                  z z a 2 y                     ",
"                                  2 2   2                       ",
"                                e y                             ",
"                                                                "
};
