/* XPM */
static char *run_s_5[] = {
/* columns rows colors chars-per-pixel */
"32 32 181 2 ",
"   c None",
".  c #291C0C",
"X  c #291C0D",
"o  c #291D0D",
"O  c #2A1D0D",
"+  c #2C1E0E",
"@  c #2D1F0F",
"#  c #2D2010",
"$  c #2D2011",
"%  c #312314",
"&  c #322414",
"*  c #342616",
"=  c #352718",
"-  c #382918",
";  c #392A1B",
":  c #392A1C",
">  c #3B2C1D",
",  c #3B2C1E",
"<  c #3C2C1C",
"1  c #3C2E1F",
"2  c #3D2E1F",
"3  c #3F3021",
"4  c #3F3022",
"5  c #53290F",
"6  c #562A0F",
"7  c #422E1D",
"8  c #4D2F1C",
"9  c #572B10",
"0  c #5F3015",
"q  c #653318",
"w  c #66391A",
"e  c #6A3C1E",
"r  c #403021",
"t  c #413021",
"y  c #403022",
"u  c #413122",
"i  c #453425",
"p  c #4D3525",
"a  c #413924",
"s  c #4D3925",
"d  c #4D3826",
"f  c #4E3B29",
"g  c #503826",
"h  c #533F2C",
"j  c #763E23",
"k  c #56412D",
"l  c #5E422A",
"z  c #5C442B",
"x  c #454A32",
"c  c #5F4730",
"v  c #72422C",
"b  c #76432D",
"n  c #624A34",
"m  c #674D36",
"M  c #6B5038",
"N  c #6B5039",
"B  c #77553C",
"V  c #75593D",
"C  c #7A5C40",
"Z  c #7B5F42",
"A  c #7D5E42",
"S  c #6A6146",
"D  c #697356",
"F  c #85482C",
"G  c #874D2F",
"H  c #8D492E",
"J  c #8D4C35",
"K  c #944D32",
"L  c #855A3F",
"P  c #99553B",
"I  c #9E553A",
"U  c #9E553C",
"Y  c #A5563B",
"T  c #A0553C",
"R  c #A4573C",
"E  c #A6573C",
"W  c #A65A3F",
"Q  c #AC5A3F",
"!  c #AD5B40",
"~  c #AE5B40",
"^  c #856648",
"/  c #8A694A",
"(  c #936242",
")  c #966443",
"_  c #9D6D46",
"`  c #916C4C",
"'  c #8F704F",
"]  c #997350",
"[  c #9A7451",
"{  c #9B7552",
"}  c #9A7752",
"|  c #9C7552",
" . c #9F7854",
".. c #A07854",
"X. c #A17A55",
"o. c #A37B56",
"O. c #A47E56",
"+. c #A97C56",
"@. c #A9845D",
"#. c #AA855F",
"$. c #AD845D",
"%. c #AD865D",
"&. c #B0875E",
"*. c #B48A60",
"=. c #B58A61",
"-. c #B78C62",
";. c #B98E64",
":. c #B89064",
">. c #B99165",
",. c #BA9065",
"<. c #B49169",
"1. c #B79368",
"2. c #BC9469",
"3. c #BE996E",
"4. c #BE9A6F",
"5. c #C1805A",
"6. c #C59166",
"7. c #C69267",
"8. c #C39464",
"9. c #C29568",
"0. c #C29669",
"q. c #C39669",
"w. c #C3996B",
"e. c #C49A6C",
"r. c #C49A6D",
"t. c #C59B6D",
"y. c #C59B6F",
"u. c #C79E6F",
"i. c #CE9F70",
"p. c #C4A074",
"a. c #CDA070",
"s. c #CFA270",
"d. c #CCA576",
"f. c #CBA678",
"g. c #C9A87B",
"h. c #CCA879",
"j. c #CDAB7D",
"k. c #D2A372",
"l. c #D3A674",
"z. c #D2A675",
"x. c #D7AC7B",
"c. c #D3AE7D",
"v. c #DDAC79",
"b. c #D9AE7C",
"n. c #DCB17E",
"m. c #E0AF7A",
"M. c #E2B17C",
"N. c #E4B37D",
"B. c #CEAF80",
"V. c #D5B787",
"C. c #D9B281",
"Z. c #DAB381",
"A. c #DCB885",
"S. c #DCBA88",
"D. c #E3B680",
"F. c #E2B883",
"G. c #EBB881",
"H. c #EDBA82",
"J. c #EEBB83",
"K. c #E8BD87",
"L. c #E6BF8A",
"P. c #E6C28D",
"I. c #E9C48E",
"U. c #EDC68F",
"Y. c #F4C086",
"T. c #F5C187",
"R. c #F6C187",
"E. c #F6C287",
"W. c #F5C288",
"Q. c #F5C389",
"!. c #F6C288",
"~. c #F7C388",
"^. c #F7C389",
"/. c #F5C38A",
"(. c #F5C78E",
"). c #F5CB92",
"_. c #F5CF97",
"`. c #F6D198",
"'. c #F5D39B",
"]. c #F5D49C",
"[. c #F5D69E",
/* pixels */
"                                                                ",
"                                                                ",
"                                                                ",
"                                                                ",
"                                                                ",
"                                                                ",
"                                                                ",
"                                          4.1.V.B.              ",
"                                Y q 5     C.p.4.P.              ",
"                U.M.K.      ~ ~         @.2.x.z.s.              ",
"              I.u.&.t.L.    E K         c.j.t.) G               ",
"              ,.      t.F.5.F j E v g 1.z.S.b.L J               ",
"                        *.+.( I U T P 7.h.C.n./ B s &           ",
"                                p b W 7.A.g.f.q.$.              ",
"                              t t 7 8 l @.d.s._ w               ",
"                          i t 3 , * . . z O.8.e 9 9             ",
"                        n N s ; + . . . +         9 0           ",
"                      m Z ^ V c x a +               H           ",
"      1       3 1 : 1 Z ,.M.,.' D S               ~ Q           ",
"      = , , , ; % # { m.T.T./.D.t.w.            ~ ~             ",
"        #   #       T./.T.T.).'././.            ~               ",
"                      T.T./.].'./.T.                            ",
"                      G.T./.]._./.T.                            ",
"                      k.T./.(./.J.i.                            ",
"                      $.v.T.T.J.q.o.                            ",
"                      | -.J.J.q.o.                              ",
"                      ` o.;.*. .                                ",
"                    f h A ] { {                                 ",
"                    t t k N N                                   ",
"                      t   t t                                   ",
"                            t t                                 ",
"                            3 3                                 "
};
