/* XPM */
static char *run_s_7[] = {
/* columns rows colors chars-per-pixel */
"32 32 210 2 ",
"   c None",
".  c #291B0C",
"X  c #281C0C",
"o  c #291C0C",
"O  c #291D0D",
"+  c #2B1C0D",
"@  c #2A1D0D",
"#  c #2B1E0E",
"$  c #2F1F0F",
"%  c #2C1F10",
"&  c #2D2011",
"*  c #2E2010",
"=  c #2E2111",
"-  c #2F2112",
";  c #322312",
":  c #332413",
">  c #322415",
",  c #342617",
"<  c #362717",
"1  c #352718",
"2  c #312919",
"3  c #362819",
"4  c #37291A",
"5  c #3C2B1A",
"6  c #3A2B1C",
"7  c #3A2B1D",
"8  c #3B2C1D",
"9  c #3D2C1C",
"0  c #3E2D1F",
"q  c #3E2E20",
"w  c #3E2E21",
"e  c #3E2F21",
"r  c #3F2F21",
"t  c #3F2F22",
"y  c #3F3022",
"u  c #562A0F",
"i  c #442A18",
"p  c #572B10",
"a  c #47341F",
"s  c #48341F",
"d  c #49341F",
"f  c #4B341F",
"g  c #623116",
"h  c #66351C",
"j  c #673A1D",
"k  c #6F391E",
"l  c #6B3E1F",
"z  c #403022",
"x  c #403123",
"c  c #453322",
"v  c #453424",
"b  c #4A3721",
"n  c #403824",
"m  c #4E3A29",
"M  c #573825",
"N  c #533E2A",
"B  c #543E28",
"V  c #553E2A",
"C  c #543F2D",
"Z  c #643B28",
"A  c #3B462F",
"S  c #41412C",
"D  c #49462F",
"F  c #7F4327",
"G  c #624A32",
"H  c #624934",
"J  c #634B34",
"K  c #6F5338",
"L  c #72563B",
"P  c #75573D",
"I  c #795B3F",
"U  c #505D42",
"Y  c #755F42",
"T  c #7B5C40",
"R  c #47664A",
"E  c #6A7757",
"W  c #66795A",
"Q  c #6B7958",
"!  c #884B2E",
"~  c #8D492E",
"^  c #8F4A2F",
"/  c #814933",
"(  c #854A33",
")  c #9E553B",
"_  c #98583D",
"`  c #9B5C3C",
"'  c #A0563C",
"]  c #A6563C",
"[  c #A7573C",
"{  c #A7583D",
"}  c #A4593E",
"|  c #A9593E",
" . c #AD5B3F",
".. c #AD5B40",
"X. c #AA5F42",
"o. c #AE5C41",
"O. c #846245",
"+. c #8B6346",
"@. c #856848",
"#. c #8D6949",
"$. c #8C6B4A",
"%. c #996846",
"&. c #906C4C",
"*. c #916D4C",
"=. c #936E4D",
"-. c #956F4E",
";. c #93714E",
":. c #96744F",
">. c #997250",
",. c #997451",
"<. c #9A7451",
"1. c #9B7451",
"2. c #9C7552",
"3. c #9D7552",
"4. c #9C7652",
"5. c #9D7653",
"6. c #9F7754",
"7. c #9D7955",
"8. c #A66C4A",
"9. c #A07149",
"0. c #A27B56",
"q. c #A27D56",
"w. c #A57E58",
"e. c #A67E58",
"r. c #BA7352",
"t. c #B67F59",
"y. c #A5815B",
"u. c #AA815A",
"i. c #AB825B",
"p. c #AC835C",
"a. c #AB855D",
"s. c #AD845C",
"d. c #B0865E",
"f. c #B38F67",
"g. c #B88D63",
"h. c #B98E63",
"j. c #B98E64",
"k. c #BA8F64",
"l. c #B89167",
"z. c #BE9165",
"x. c #B7946B",
"c. c #BE976C",
"v. c #BD996F",
"b. c #C29265",
"n. c #C59767",
"m. c #CB9166",
"M. c #C4986A",
"N. c #C89969",
"B. c #C89A6C",
"V. c #CB9F6F",
"C. c #C6A275",
"Z. c #C8A073",
"A. c #CAA273",
"S. c #CDA070",
"D. c #CEA071",
"F. c #CBA476",
"G. c #CEAA7B",
"H. c #CAA97C",
"J. c #CBAA7D",
"K. c #CBAB7D",
"L. c #D1A372",
"P. c #D1A676",
"I. c #D3AA79",
"U. c #D4AA79",
"Y. c #D0AC7C",
"T. c #D4AF7F",
"R. c #DAAB78",
"E. c #DBAB78",
"W. c #DBA87A",
"Q. c #D9AC79",
"!. c #DCAD79",
"~. c #D9AE7C",
"^. c #E5B37D",
"/. c #E8B67F",
"(. c #68C79C",
"). c #CFB082",
"_. c #D0B081",
"`. c #D7B281",
"'. c #DFB380",
"]. c #DAB481",
"[. c #D8B584",
"{. c #D9B987",
"}. c #DEB986",
"|. c #E0B582",
" X c #EBB881",
".X c #EBB982",
"XX c #ECB981",
"oX c #EBBC85",
"OX c #F1BD84",
"+X c #E8C28C",
"@X c #F4C086",
"#X c #F5C187",
"$X c #F6C288",
"%X c #F5C38A",
"&X c #F5C48A",
"*X c #F6C48A",
"=X c #F0C48D",
"-X c #F7C68C",
";X c #F9C58A",
":X c #F8CA8F",
">X c #EDC791",
",X c #ECCA94",
"<X c #F0C790",
"1X c #F5CB93",
"2X c #F6CC93",
"3X c #F5CE95",
"4X c #F5D098",
"5X c #F5D39B",
"6X c #F5D69E",
"7X c #F5D8A0",
/* pixels */
"                                                                ",
"                                                                ",
"                                                                ",
"                                                                ",
"                                                                ",
"                                      h       Z.f.).K.          ",
"                                    } k       ~.G.v.+X<X        ",
"                  {.Q.!.>X      ......        z.U.V.N.          ",
"                K.x.  p.I.,X  r.] ~         `.K.F.%.!           ",
"                          c.}.W.` F ] ( M y.P.[.|.+./     #     ",
"                            g.D.b.8._ ' } m.Y.T.'.7.I           ",
"                                0.O.B Z ) t.]._.C.M.z.          ",
"                                  q q 9 i d ;.Z.L.9.j           ",
"                              v 0 q 7 > # # b :.n.l u p         ",
"            x q 8 7 7 q     P G S 2 # . # # #         p g       ",
"          1 3 3 = = = , 8 J $.@.W U R D $               ~ |     ",
"          # #           q.D.OX!.a.Q (.E                 o...    ",
"                      ;X:X-X%X.Xe.n A Y 1.          ....        ",
"                    %X1X7X3XXXs.N % d $.2.2.2.2.    X.          ",
"    x x       #X#X*X4X6X2XoXz.L , ; K 2.2.2.2.2.2.2.2.          ",
"  x x q m 0.^.#X#X*X4X=XW.j.T c = d *.2.2.2.2.2.2.2.2.          ",
"        C *.d.B./..XW.g.1.K 5 = # a >.2.2.2.2.2.2.2.-.J         ",
"            1.6.u.u.e.-.B : # #         2.2.2.2.2.2.*.m q   x   ",
"              2.  1.                            2.      x x x y ",
"                                                            y   ",
"                                                                ",
"                                                                ",
"                                                                ",
"                                                                ",
"                                                                ",
"                                                                ",
"                                                                "
};
