/* XPM */
static char *run_rev_s_8[] = {
/* columns rows colors chars-per-pixel */
"32 32 232 2 ",
"   c None",
".  c #291D0D",
"X  c #2B1D0D",
"o  c #2C1E0E",
"O  c #2D1F10",
"+  c #2B200E",
"@  c #2E220F",
"#  c #2C2211",
"$  c #2F2212",
"%  c #312313",
"&  c #342312",
"*  c #322314",
"=  c #322415",
"-  c #332416",
";  c #362614",
":  c #3A2A17",
">  c #342618",
",  c #382919",
"<  c #38291A",
"1  c #382A1C",
"2  c #3B2B1C",
"3  c #3C2D1D",
"4  c #3D2D1E",
"5  c #3C2D1F",
"6  c #3D2E1F",
"7  c #39331F",
"8  c #3E2E20",
"9  c #3F2F21",
"0  c #3F2F22",
"q  c #3F3123",
"w  c #572B0F",
"e  c #582A11",
"r  c #582C10",
"t  c #5A2E13",
"y  c #5F3015",
"u  c #623118",
"i  c #653218",
"p  c #412F22",
"a  c #412F23",
"s  c #403020",
"d  c #403021",
"f  c #403121",
"g  c #403022",
"h  c #413022",
"j  c #423022",
"k  c #423123",
"l  c #423223",
"z  c #433223",
"x  c #473323",
"c  c #413124",
"v  c #453324",
"b  c #4C3120",
"n  c #4C3927",
"m  c #5D3623",
"M  c #503A23",
"N  c #553F2E",
"B  c #603C2A",
"V  c #683D28",
"C  c #3A4831",
"Z  c #5A452B",
"A  c #5D462C",
"S  c #404C34",
"D  c #594430",
"F  c #56573C",
"G  c #7E4226",
"H  c #794C29",
"J  c #634832",
"K  c #654D34",
"L  c #6A4F37",
"P  c #6C5235",
"I  c #6E5239",
"U  c #6F543A",
"Y  c #7C523A",
"T  c #7A593C",
"R  c #785C3D",
"E  c #6B5C41",
"W  c #5B7D5C",
"Q  c #7C6043",
"!  c #85462A",
"~  c #914F36",
"^  c #845733",
"/  c #8C5B38",
"(  c #9D5337",
")  c #96533A",
"_  c #92573D",
"`  c #985239",
"'  c #985438",
"]  c #9E553A",
"[  c #9E583A",
"{  c #A4563A",
"}  c #A4573B",
"|  c #A4563C",
" . c #A7573E",
".. c #A8593D",
"X. c #AD5B3F",
"o. c #A55F41",
"O. c #AB5A40",
"+. c #AB5B41",
"@. c #AD5B40",
"#. c #AE5B40",
"$. c #AE5B41",
"%. c #AE5C40",
"&. c #8B6749",
"*. c #8E6B4A",
"=. c #8D6E4D",
"-. c #9A6747",
";. c #916D4B",
":. c #996D48",
">. c #95704E",
",. c #95704F",
"<. c #897D59",
"1. c #9A7351",
"2. c #9A7451",
"3. c #9A7452",
"4. c #9B7452",
"5. c #9B7552",
"6. c #9B7453",
"7. c #9B7553",
"8. c #9C7452",
"9. c #9C7552",
"0. c #9D7552",
"q. c #9C7553",
"w. c #9F7853",
"e. c #B56C4A",
"r. c #A17754",
"t. c #A37A56",
"y. c #A37D57",
"u. c #AE7F55",
"i. c #A67E58",
"p. c #A77E59",
"a. c #A87F59",
"s. c #6FA17C",
"d. c #A7815B",
"f. c #A7825B",
"g. c #AA815B",
"h. c #A9825D",
"j. c #B1875F",
"k. c #BA8258",
"l. c #B1885F",
"z. c #B2885F",
"x. c #998B64",
"c. c #B18D66",
"v. c #B48F66",
"b. c #BA8F64",
"n. c #B99065",
"m. c #BF9266",
"M. c #B79268",
"N. c #B79269",
"B. c #BB9B6F",
"V. c #BE9B70",
"C. c #C09266",
"Z. c #C09669",
"A. c #C3996C",
"S. c #C79C6C",
"D. c #CC9C6A",
"F. c #C89A6C",
"G. c #CC9B6C",
"H. c #C89D6E",
"J. c #D59F6F",
"K. c #CA9F70",
"L. c #CFA371",
"P. c #CBA275",
"I. c #C9A477",
"U. c #CFA475",
"Y. c #CFA675",
"T. c #CDA677",
"R. c #C9A87B",
"E. c #CFAC7D",
"W. c #CFAE7F",
"Q. c #D0A171",
"!. c #D4A373",
"~. c #D2A472",
"^. c #D3A575",
"/. c #D2A676",
"(. c #D6AA77",
"). c #D8A875",
"_. c #DBAC77",
"`. c #D5A979",
"'. c #D5AE7C",
"]. c #D4AE7D",
"[. c #DBAB78",
"{. c #D8AD7B",
"}. c #DAAE7A",
"|. c #DDAF7B",
" X c #E2B17B",
".X c #E3B17C",
"XX c #E3B27C",
"oX c #E2B37E",
"OX c #E7B67F",
"+X c #6AB58C",
"@X c #CFAF82",
"#X c #D2B183",
"$X c #D1B282",
"%X c #D2B485",
"&X c #D9B584",
"*X c #DEB784",
"=X c #DCB987",
"-X c #DCBA88",
";X c #E8B981",
":X c #EAB880",
">X c #EABA83",
",X c #ECBA83",
"<X c #EDBB83",
"1X c #E0BD8C",
"2X c #E0BE8C",
"3X c #F0BD84",
"4X c #F1BE84",
"5X c #F2BF85",
"6X c #F3C086",
"7X c #F2C087",
"8X c #F4C084",
"9X c #F4C086",
"0X c #F5C086",
"qX c #F5C186",
"wX c #F4C187",
"eX c #F5C187",
"rX c #F5C286",
"tX c #F2C188",
"yX c #F6C188",
"uX c #F5C288",
"iX c #F5C48A",
"pX c #F5C58C",
"aX c #F5C68C",
"sX c #F5C68D",
"dX c #F5C78D",
"fX c #E2C290",
"gX c #E7C390",
"hX c #F5CB92",
"jX c #ECD099",
"kX c #F5D29A",
"lX c #F5D59D",
"zX c #F5D69F",
/* pixels */
"                                                                ",
"                                                                ",
"                                                                ",
"                                                                ",
"                                                                ",
"                                                                ",
"              B.%Xc.                                            ",
"            jXfXN.v.=X      y (                                 ",
"            `.|.Y.].P.      u } %.            gX#X@X            ",
"              / :.n.W.#X         ...        :X^.                ",
"              ) -.^.-X].R.J m   G [ e.    :X).                  ",
"              Y &.{.*XY.F._ ` ] ' k.J.2X2XY.                    ",
"              C.Z.&XV.W.G.o.~ B     p.f.h.                      ",
"              ^ u.K.I.N.T V b h c                               ",
"            w t H D.H.R : & 2 6 0 h                   0 6 @     ",
"            t e     M ; o X O % , h x               6 2 >       ",
"        } ! i             X + # 7 K I U D h 6 , - * -           ",
"        O. .                C S W E Q A.f.n #                   ",
"          #.#.X.            +Xs.x.(.oX,XS.                      ",
"            O.#.          =.F <.{.tXhXiX,X                      ",
"                        7.*.Z L.5XsXlXsXyX                      ",
"                      9.9.*.A _.wXsXlXsXwXyX                    ",
"                      7.9.;.P ~.5XsXkXsXwXwX                    ",
"                    7.9.9.7.,.l.[.7XsXyXwXwXwX                  ",
"                    9.9.9.9.9.w.j.oX5XwXwXwXwX                  ",
"                    9.9.9.9.7.    l.Q.OX7XwX:X!.                ",
"                    7.9.9.9.        p.b. XoXm.y.N h h p         ",
"                    1.,.7.            r.a.g.t.    h 0 q         ",
"                      L                               h         ",
"                  p h v                                         ",
"                  h h                                           ",
"                                                                "
};
