/* XPM */
static char *run_s_1[] = {
/* columns rows colors chars-per-pixel */
"32 32 192 2 ",
"   c None",
".  c #291C0C",
"X  c #291C0D",
"o  c #291D0D",
"O  c #2A1D0D",
"+  c #2C1E0E",
"@  c #2D1F0E",
"#  c #2D1F0F",
"$  c #2D2010",
"%  c #2D2011",
"&  c #312314",
"*  c #322414",
"=  c #342516",
"-  c #362719",
";  c #382918",
":  c #392A1B",
">  c #392A1C",
",  c #3B2B1C",
"<  c #3B2B1D",
"1  c #3B2C1D",
"2  c #3B2C1E",
"3  c #3D2D1E",
"4  c #3D2E1F",
"5  c #3E2F21",
"6  c #3F2F21",
"7  c #3F3022",
"8  c #53290F",
"9  c #562A0F",
"0  c #422D1D",
"q  c #4D2F1C",
"w  c #572B10",
"e  c #5F3014",
"r  c #66391B",
"t  c #6B3A1E",
"y  c #6A3C1E",
"u  c #402F22",
"i  c #413021",
"p  c #403022",
"a  c #413022",
"s  c #463525",
"d  c #4D3525",
"f  c #4D3726",
"g  c #413924",
"h  c #4D3825",
"j  c #4F3B29",
"k  c #533E2C",
"l  c #763D22",
"z  c #56412D",
"x  c #5E422A",
"c  c #5C442B",
"v  c #5B442F",
"b  c #454A32",
"n  c #5F4730",
"m  c #6A4325",
"M  c #72422C",
"N  c #76432D",
"B  c #684E37",
"V  c #684F37",
"C  c #6C4F36",
"Z  c #6E5239",
"A  c #71563A",
"S  c #71573C",
"D  c #78563C",
"F  c #76593D",
"G  c #7C5E41",
"H  c #7D5F41",
"J  c #6B6146",
"K  c #697356",
"L  c #844429",
"P  c #874D2F",
"I  c #8D492E",
"U  c #8D4C35",
"Y  c #944D32",
"T  c #855A3F",
"R  c #9F5338",
"E  c #99553A",
"W  c #9E553C",
"Q  c #A1553B",
"!  c #A1553C",
"~  c #A5573C",
"^  c #A65A3F",
"/  c #A85B3F",
"(  c #AC5A40",
")  c #AD5B40",
"_  c #A85E41",
"`  c #836547",
"'  c #8A694A",
"]  c #966443",
"[  c #9C6D46",
"{  c #926D4C",
"}  c #8F704E",
"|  c #94724F",
" . c #9B7451",
".. c #997651",
"X. c #9C7552",
"o. c #9D7652",
"O. c #B16043",
"+. c #A07952",
"@. c #A17A55",
"#. c #A47C57",
"$. c #A47F57",
"%. c #BD7854",
"&. c #A9815A",
"*. c #AB825B",
"=. c #A8845D",
"-. c #AB855F",
";. c #AD865C",
":. c #AE865D",
">. c #BD8C62",
",. c #B99064",
"<. c #BB9065",
"1. c #B49168",
"2. c #BC9469",
"3. c #BD976B",
"4. c #BE996E",
"5. c #BF9A6F",
"6. c #C8865F",
"7. c #C59166",
"8. c #C69167",
"9. c #C39464",
"0. c #C19568",
"q. c #C39669",
"w. c #C29769",
"e. c #C4976A",
"r. c #C3996B",
"t. c #C49A6C",
"y. c #C49B6E",
"u. c #CB9D6E",
"i. c #CD9F6F",
"p. c #D0A16F",
"a. c #C4A074",
"s. c #CEA070",
"d. c #CCA273",
"f. c #CEA474",
"g. c #CCA576",
"h. c #CBA678",
"j. c #CAA97B",
"k. c #CCA879",
"l. c #CDAB7D",
"z. c #CDAE7F",
"x. c #D2A473",
"c. c #D2A775",
"v. c #D3A775",
"b. c #DAAA77",
"n. c #D2AE7E",
"m. c #DBAB78",
"M. c #D9AC7A",
"N. c #D8AD7B",
"B. c #DFAF7A",
"V. c #DCB17E",
"C. c #E0AF7B",
"Z. c #E0B07B",
"A. c #E3B27C",
"S. c #E3B27D",
"D. c #D5B787",
"F. c #D9B380",
"G. c #DAB381",
"H. c #DCB885",
"J. c #DCB987",
"K. c #E3B681",
"L. c #E8B780",
"P. c #EAB880",
"I. c #ECB981",
"U. c #EDBB83",
"Y. c #F0BD84",
"T. c #F1BE85",
"R. c #F2BF85",
"E. c #F2BF86",
"W. c #E6C08C",
"Q. c #EDC48E",
"!. c #F5C186",
"~. c #F5C187",
"^. c #F6C187",
"/. c #F5C288",
"(. c #F5C289",
"). c #F5C389",
"_. c #F6C288",
"`. c #F7C388",
"'. c #F5C38A",
"]. c #F5C58C",
"[. c #F6C68C",
"{. c #F7C68D",
"}. c #EBC590",
"|. c #F5CB92",
" X c #F5CC93",
".X c #F2CC94",
"XX c #F5D199",
"oX c #F5D49C",
"OX c #F5D69F",
"+X c #F6D69E",
"@X c #F5DBA4",
"#X c #F5DCA5",
/* pixels */
"                                                                ",
"                                                                ",
"                                                                ",
"                                                                ",
"                                                                ",
"                                                                ",
"                                                                ",
"                                          5.1.D.z.              ",
"                        I.I.    / t 8     F.a.5.W.              ",
"                    }.d.<.>.%.O.6.+.m   =.3.M.c.p.              ",
"                  Q.f.    _ ~ Y   S | .Xn.l.t.] P               ",
"                  L.        L l Q M C 3.c.H.M.T U               ",
"              P.b.i.          R W ! E 8.k.F.V.' D f *           ",
"                                f N ^ 8.H.j.h.q.;.              ",
"                              i i 0 q x =.f.d.[ r               ",
"                          s i 6 2 = . . c #.9.y 9 w             ",
"                        G Z h : + . . . +         w e           ",
"                      4 v ` F n b g +               I           ",
"      6       7 4 < < A ;.S.<.} K J               ) )           ",
"      - < 2 2 : & $  .C._._.[.K.t.r.            ) )             ",
"        $   $       E.~.~._.+X+X[._.            )               ",
"                      B._._.+X#X|.~.                            ",
"                      e.E._.XX@X|.~.                            ",
"                      #.Z.~._. X[.E.                            ",
"                      o.q.E.~.~.S.u.                            ",
"                      o.*.Z._.E.x.                              ",
"                      {  .q.P.m.                                ",
"                    j k G @.*.*.                                ",
"                    i u z V V                                   ",
"                      i   i i                                   ",
"                            i i                                 ",
"                            7 7                                 "
};
