/* XPM */
static char *run_s_3[] = {
/* columns rows colors chars-per-pixel */
"32 32 209 2 ",
"   c None",
".  c #291C0C",
"X  c #2A1D0D",
"o  c #2B1E0E",
"O  c #2C1F0E",
"+  c #2D1F0F",
"@  c #2C1F10",
"#  c #2E2111",
"$  c #312111",
"%  c #312212",
"&  c #302213",
"*  c #352513",
"=  c #312314",
"-  c #322415",
";  c #332515",
":  c #332516",
">  c #362615",
",  c #342617",
"<  c #372819",
"1  c #3B2B18",
"2  c #392A1B",
"3  c #3E2C1A",
"4  c #3A2B1C",
"5  c #3B2B1C",
"6  c #3A2B1D",
"7  c #3E2D1D",
"8  c #3E2E20",
"9  c #3E2F21",
"0  c #3F2F21",
"q  c #3F3022",
"w  c #562B10",
"e  c #572B10",
"r  c #5B2F13",
"t  c #44321D",
"y  c #46331E",
"u  c #47341F",
"i  c #67331A",
"p  c #6C371C",
"a  c #402F21",
"s  c #403022",
"d  c #413122",
"f  c #493727",
"g  c #4B3826",
"h  c #4D3824",
"j  c #4C3928",
"k  c #4F3B29",
"l  c #543523",
"z  c #513B25",
"x  c #503B26",
"c  c #513B26",
"v  c #513C27",
"b  c #523C26",
"n  c #55402D",
"m  c #57412D",
"M  c #5E4630",
"N  c #674D35",
"B  c #6D4D31",
"V  c #6A4E35",
"C  c #704630",
"Z  c #774833",
"A  c #6D5335",
"S  c #6C5138",
"D  c #70553B",
"F  c #71553B",
"G  c #73563A",
"H  c #765439",
"J  c #70573D",
"K  c #72563D",
"L  c #76583E",
"P  c #765B3F",
"I  c #78593E",
"U  c #785A3F",
"Y  c #7A5C3E",
"T  c #7C5D41",
"R  c #7F5F43",
"E  c #824328",
"W  c #85482C",
"Q  c #864A2D",
"!  c #834830",
"~  c #804933",
"^  c #8E4B31",
"/  c #924F37",
"(  c #895736",
")  c #995035",
"_  c #935038",
"`  c #9E5539",
"'  c #A6573C",
"]  c #AB5B3F",
"[  c #AC5A3F",
"{  c #AD5B3F",
"}  c #91633D",
"|  c #AC5B40",
" . c #AD5B40",
".. c #AE5B40",
"X. c #AC5C41",
"o. c #876546",
"O. c #896446",
"+. c #896747",
"@. c #8D6A4A",
"#. c #8E6B4A",
"$. c #976746",
"%. c #976848",
"&. c #906C4C",
"*. c #936E4D",
"=. c #96704E",
"-. c #96714E",
";. c #9A7351",
":. c #9A7451",
">. c #9B7451",
",. c #987552",
"<. c #9C7552",
"1. c #9D7552",
"2. c #9D7652",
"3. c #9D7653",
"4. c #9E7653",
"5. c #9D7955",
"6. c #9F7854",
"7. c #B46648",
"8. c #B46849",
"9. c #A17D56",
"0. c #AF7F54",
"q. c #A67E58",
"w. c #A77F5A",
"e. c #AA8059",
"r. c #A8805A",
"t. c #A9805A",
"y. c #AB825B",
"u. c #AE855D",
"i. c #AF865E",
"p. c #B18257",
"a. c #B0875E",
"s. c #B48C63",
"d. c #B68D63",
"f. c #B08C65",
"g. c #BF9163",
"h. c #BD9166",
"j. c #BE9267",
"k. c #BF9367",
"l. c #B59269",
"z. c #B89369",
"x. c #BF9D72",
"c. c #C19366",
"v. c #C1976A",
"b. c #CD9068",
"n. c #C39A6C",
"m. c #CD996D",
"M. c #C99C6E",
"N. c #D3976B",
"B. c #CB9F70",
"V. c #DC9F70",
"C. c #C7A275",
"Z. c #C9A173",
"A. c #C8A174",
"S. c #CBA374",
"D. c #CDA374",
"F. c #C9A476",
"G. c #CEA474",
"H. c #C6A679",
"J. c #CAAA7D",
"K. c #CFAE7F",
"L. c #D2A372",
"P. c #D3A473",
"I. c #D2A574",
"U. c #DAAA77",
"Y. c #D1AA79",
"T. c #D0AB7A",
"R. c #D7AC7A",
"E. c #D4AD7C",
"W. c #D5AE7D",
"Q. c #D7AF7D",
"!. c #DBAB78",
"~. c #E1B07B",
"^. c #E6B57E",
"/. c #E8B67F",
"(. c #D1B081",
"). c #D4B180",
"_. c #D6B281",
"`. c #D9B280",
"'. c #DCB481",
"]. c #D8B684",
"[. c #DBB785",
"{. c #E3B782",
"}. c #EFB780",
"|. c #E6BC86",
" X c #EAB880",
".X c #EBB881",
"XX c #ECBA82",
"oX c #F2BE85",
"OX c #F2BF85",
"+X c #F3BF86",
"@X c #EAC18B",
"#X c #EBC28B",
"$X c #F4C187",
"%X c #F5C187",
"&X c #F6C287",
"*X c #F5C288",
"=X c #F6C288",
"-X c #F7C389",
";X c #F5C48A",
":X c #F5C68C",
">X c #F8C388",
",X c #F5C88F",
"<X c #F5C98F",
"1X c #E0C390",
"2X c #E8CD99",
"3X c #F5CB91",
"4X c #F7D096",
"5X c #F6D9A1",
"6X c #F7DBA2",
/* pixels */
"                                                                ",
"                                                                ",
"                                                                ",
"                                                                ",
"                                                                ",
"                                                f.2X            ",
"                                      i       _.l.x.(.          ",
"                                   .8.(       A.Q.Z.#X|.        ",
"                                 .7.V.n.B   H.z.G.g.0.          ",
"                              b.` W   H J ].`.K.Q.$.^         o ",
"                            #Xm.W E ' / C t.D.].{.+.Z           ",
"                          XXB.      ! _ X.N._.C.'.d.>.          ",
"                      1XR.M.        0 l ! %.F.J.A.c.p.          ",
"                        w.        s 0 4 & * Y v.P.} r           ",
"                              g 4 4 > # o o 2 A     w w         ",
"        4 ; < < < 2 0 0 q j L V b x x u + o           w p       ",
"      & = o o   o + ; ; 4 T d.6.K G K S t               ) ]     ",
"                        h 9.=X XI.Y.Y.Q.=X             . .[     ",
"                      <.-.a./.=X=X4X6X6X3X%X        [  .        ",
"    s s       <.<.<.<.<.<.6.L.%X%X;X,X,X:X%X%X%X%XXX            ",
"  s s 0 j &.<.<.+.I I T &.;.t.!.OXOXOXOXOX%X%X%X%X^.            ",
"        n &.<.<.o.v 7 s n M N -.u.h.h.h.h.U. X X~.u.#.          ",
"            <.<.<.#.G x > @ & 3 y       >.w.t.t.t.T f           ",
"              <.<.<.>.&.                      >.    s s q q     ",
"                                                      s s s     ",
"                                                                ",
"                                                                ",
"                                                                ",
"                                                                ",
"                                                                ",
"                                                                ",
"                                                                "
};
