/* XPM */
static char *run_rev_5[] = {
/* columns rows colors chars-per-pixel */
"64 64 156 2 ",
"   c None",
".  c #2A1D0D",
"X  c #3C230E",
"o  c #2E2111",
"O  c #322414",
"+  c #362718",
"@  c #372819",
"#  c #3A2B1D",
"$  c #3F2F21",
"%  c #3F3022",
"&  c #44250F",
"*  c #572C0F",
"=  c #412C1A",
"-  c #572B10",
";  c #5A2D12",
":  c #4A311F",
">  c #5E3215",
",  c #633719",
"<  c #6C371C",
"1  c #66391B",
"2  c #723A1F",
"3  c #412F21",
"4  c #413122",
"5  c #493727",
"6  c #4C3924",
"7  c #4B3D2C",
"8  c #523727",
"9  c #5C3520",
"0  c #513D2B",
"q  c #5E3D2A",
"w  c #663A25",
"e  c #6B3F20",
"r  c #763D22",
"t  c #7B3F24",
"y  c #723F29",
"u  c #56412E",
"i  c #5B442A",
"p  c #474936",
"a  c #5E4631",
"s  c #5E4833",
"d  c #5A5439",
"f  c #585A3F",
"g  c #61432C",
"h  c #7F4227",
"j  c #624A33",
"k  c #684E37",
"l  c #7C4832",
"z  c #6E5136",
"x  c #6D5138",
"c  c #72553B",
"v  c #755A3A",
"b  c #7B5C3E",
"n  c #7D5E41",
"m  c #4E7D5D",
"M  c #7F6245",
"N  c #834429",
"B  c #88462C",
"V  c #8C492E",
"C  c #80522E",
"Z  c #824A34",
"A  c #8D4C33",
"S  c #954F34",
"D  c #8C5139",
"F  c #8C5C3D",
"G  c #9A5035",
"H  c #96523A",
"J  c #9F553B",
"K  c #A3563B",
"L  c #AC5A3F",
"P  c #AD5B40",
"I  c #846445",
"U  c #8A6749",
"Y  c #8C694A",
"T  c #946746",
"R  c #936D4C",
"E  c #996D4C",
"W  c #97714F",
"Q  c #937351",
"!  c #9C7552",
"~  c #9F7C57",
"^  c #A06F4D",
"/  c #B16145",
"(  c #B86C4C",
")  c #AC714F",
"_  c #A4754B",
"`  c #A47250",
"'  c #A47C57",
"]  c #AB7B50",
"[  c #A47E59",
"{  c #A6825B",
"}  c #AB845D",
"|  c #B4865D",
" . c #B9825A",
".. c #B2895F",
"X. c #858361",
"o. c #818F6B",
"O. c #AD8962",
"+. c #B58C62",
"@. c #B98E63",
"#. c #BC9165",
"$. c #B7946B",
"%. c #BF9568",
"&. c #BB996F",
"*. c #B79D73",
"=. c #BE9D72",
"-. c #CF8F64",
";. c #C49567",
":. c #C39669",
">. c #C5996B",
",. c #C99C6E",
"<. c #D69568",
"1. c #C09F73",
"2. c #CB9F71",
"3. c #D5A26F",
"4. c #C4A275",
"5. c #C6A579",
"6. c #CBAA7C",
"7. c #D1A373",
"8. c #D7A876",
"9. c #D9AA77",
"0. c #DDAD79",
"q. c #D4AC7B",
"w. c #DBB17F",
"e. c #E1AF7A",
"r. c #E4B37D",
"t. c #E9B47E",
"y. c #6ECEA2",
"u. c #D0AF80",
"i. c #D3B585",
"p. c #DFB682",
"a. c #DBBF8E",
"s. c #E8B780",
"d. c #E7B883",
"f. c #EDBB83",
"g. c #E0BD8A",
"h. c #F1BE84",
"j. c #DCC08F",
"k. c #E6C48F",
"l. c #ECC38D",
"z. c #F5C187",
"x. c #F5C48A",
"c. c #F5C88F",
"v. c #E1C693",
"b. c #EEC790",
"n. c #E7C894",
"m. c #EDC993",
"M. c #E7CC99",
"N. c #F5CB92",
"B. c #EED29D",
"V. c #F5D79F",
"C. c #F5D29A",
"Z. c #F4D7A0",
"A. c #F5DAA3",
"S. c #F5D9A2",
"D. c #F5DDA6",
"F. c #F5DCA5",
/* pixels */
"                                                                                                                                ",
"                                                                                                                                ",
"                                                                                                                                ",
"                                                                                                                                ",
"                                                                                                                                ",
"                                                                                                                                ",
"                                                                                                                                ",
"                                                                                                                                ",
"                                                                                                                                ",
"                                                                                                                                ",
"                                                                                                                                ",
"                                                                                                                                ",
"                                                      .                                                                         ",
"                                                      .                                                                         ",
"                              1.D.D.6.! !             .                                                                         ",
"                            6.5.i.i.$.[ =.q.          X &                                                                       ",
"                          A.A.i.[ ! ' $.B.l.f.        - - < L                                                                   ",
"                          c.c.b.j.} 1.n.c.,.}         - - < L P L P                                                             ",
"                          >.t.c.N.7.p.l.2.} !         - -     P P P P               C.x.x.x.c.F.                                ",
"                          ! ;.3.3.0.r.8.+.[ [         -       P P P P P           Z.m.r.r.r.d.C.A.                              ",
"                            1 1 e E ' +.M.&.$.D.      4           P P L P       D.N.8.' ' ' +.f.C.D.                            ",
"          . .               V V A E @.w.Z.=.#.N.V.    % @         t K P L     V.N.7.+.      { #.p.N.                            ",
"          . .               L J D E ,.c.A.=.@.z.g.*.  $ : 9     r ; N J /   C.m.9.+.          ! >.9.                            ",
"              . . .         L Z 5 U ,.c.A.=.@.h.+.z O # l P P P A ; ; h ( t.h.0.!               ! !                             ",
"                    . @ 4   q 8 5 U ,.x.c.k.u.+.7. .A A J P P P K S F T ` ..+...                                                ",
"                    . @ 3   I M c ..w.l.7.6.6.4.d.<.P P P K Z H L P ^ ! ! ! !                                                   ",
"                          4 %.7.} 0.l.a.O.{ 1.A.l.-.P P K Z 4                                                                   ",
"                                e.+.} $.v.M.m.x.%.) P P y = 4 4 4                                                               ",
"                              C _ ;.,.2.5.5.4.:.b g w w : @ % 4 4 3                                                             ",
"                            - - ,  .e.t.+...' n = . . . + 4 4 4 4 4                                                             ",
"                          - - - ; > ] z.h.h...O . . . . + 4 4 4 4 4 4 3                                                         ",
"                        - - - -         v c i . . . . . o O O # 4 4 4 4 % %                                                     ",
"                      - - - -           . . . . . . . . . . . O @ @ @ 6 j j u                                                   ",
"                    ; ; - -                   . . . . . . . . . . O O g W W k 5                                                 ",
"                  L G 2 *                         . . . . . . . : I I x u u c U ! a                                             ",
"                  P P B                             . . 6 d m f j c c I Q Q I c c 0 4                                           ",
"                  P P P                                 Y X.y.o.n s s { z.z.~ s s 5 # #                                         ",
"                  P P P L L                             7 7 p 7 M 0.0.s.z.z.t.0.0.j o o # % % % % % % % % % % % % % O .         ",
"                      P P P P L P                       { { { { >.z.z.z.z.z.z.z.z.#.I   O O O O # 4 4 4 4 4 4 4 # + o           ",
"                        P P P P L                       x.z.z.z.x.c.x.z.z.z.z.z.z.z.z.  . . . . + # # # # # # # @ .             ",
"                          L P P L                       x.z.z.z.N.F.c.z.z.z.z.z.z.z.z.          . . . . . . . . .               ",
"                                                        x.z.z.z.N.D.V.N.z.z.z.z.z.z.z.                                          ",
"                                                        x.z.z.z.N.D.D.C.z.z.z.z.z.z.z.                                          ",
"                                                        x.z.z.z.N.D.D.C.z.z.z.z.z.z.z.                                          ",
"                                                        x.z.z.z.N.D.D.C.z.z.z.z.z.z.z.                                          ",
"                                                        x.z.z.z.c.C.A.C.z.z.z.z.z.8.,.                                          ",
"                                                        r.t.z.z.z.x.C.N.z.z.z.z.z.@.!                                           ",
"                                                        ' @.h.z.z.z.x.x.z.z.z.z.z.@.!                                           ",
"                                                        ! ' #.r.z.z.z.z.z.z.z.t.:.[ !                                           ",
"                                                          ! ! :.r.z.z.z.z.z.t.,.! ! !                                           ",
"                                                            ! ! @.z.z.z.z.z.:.! ! ! !                                           ",
"                                                              ! ' @.t.z.z.z.:.! ! ! !                                           ",
"                                                              ! ! ! :.7.7.7...! ! ! !                                           ",
"                                                              ! ! ! ! ! ! ! ! ! R R R                                           ",
"                                                                  ! ! ! ! ! ! I 0 0 0                                           ",
"                                                                  ! ! ! ! ! I j 4 4 4                                           ",
"                                                                    I I I I j % 4 4 4 %                                         ",
"                                                                    5 5 5 5     % 4 4 %                                         ",
"                                                                    % 4 4 4     % 4 %                                           ",
"                                                                    4 4 % %     % %                                             ",
"                                                                  4 4 4 %       4                                               ",
"                                                                4 4 4 4 %                                                       ",
"                                                                % % % %                                                         ",
"                                                                                                                                "
};
