/* XPM */
static char *run_rev_s_6[] = {
/* columns rows colors chars-per-pixel */
"32 32 216 2 ",
"   c None",
".  c #291D0C",
"X  c #2A1C0C",
"o  c #2A1D0C",
"O  c #2A1C0D",
"+  c #2A1D0D",
"@  c #291D0E",
"#  c #2A1F0F",
"$  c #2B1F0F",
"%  c #2C1E0E",
"&  c #2C1E0F",
"*  c #2C1F0F",
"=  c #2D200F",
"-  c #2E2010",
";  c #2E2011",
":  c #312313",
">  c #332412",
",  c #352513",
"<  c #312314",
"1  c #332516",
"2  c #342516",
"3  c #3B2B17",
"4  c #362718",
"5  c #38291B",
"6  c #3A2B1C",
"7  c #3C2C1C",
"8  c #3D2E1F",
"9  c #3E2E20",
"0  c #3E2F20",
"q  c #3F2F21",
"w  c #3F2F22",
"e  c #3F3022",
"r  c #532A10",
"t  c #572A10",
"y  c #572B10",
"u  c #582B10",
"i  c #5C2E12",
"p  c #5F3216",
"a  c #402F21",
"s  c #402F22",
"d  c #403021",
"f  c #403022",
"g  c #403122",
"h  c #403023",
"j  c #413023",
"k  c #453425",
"l  c #4D3422",
"z  c #4E3A27",
"x  c #4C3828",
"c  c #4D3A29",
"v  c #523220",
"b  c #613C2A",
"n  c #6C3F28",
"m  c #7A3E23",
"M  c #55422E",
"N  c #59412D",
"B  c #67402D",
"V  c #7C4024",
"C  c #654A30",
"Z  c #634B35",
"A  c #654E34",
"S  c #795231",
"D  c #715638",
"F  c #70573C",
"G  c #7A5B3F",
"H  c #7D5F42",
"J  c #7E5E42",
"K  c #4D7A5C",
"L  c #7B6245",
"P  c #6E7253",
"I  c #6F7353",
"U  c #767C5A",
"Y  c #814227",
"T  c #914C30",
"R  c #8A5A36",
"E  c #8E5439",
"W  c #8F5F3B",
"Q  c #91563C",
"!  c #9A533B",
"~  c #9F543B",
"^  c #9F5A3B",
"/  c #A3563B",
"(  c #A75A3F",
")  c #A9583D",
"_  c #AA5A3D",
"`  c #AA5A3E",
"'  c #AE5B3E",
"]  c #AC5A40",
"[  c #AD5A40",
"{  c #AC5B40",
"}  c #AA5E42",
"|  c #AE5C41",
" . c #816144",
".. c #876645",
"X. c #8A6747",
"o. c #8B6B47",
"O. c #866D4E",
"+. c #8E6A4A",
"@. c #8E6B4A",
"#. c #8D6D4B",
"$. c #8F6C4C",
"%. c #8D6E4D",
"&. c #946F4E",
"*. c #90704E",
"=. c #9D7350",
"-. c #9B7452",
";. c #9B7552",
":. c #9B7652",
">. c #9D7551",
",. c #9C7452",
"<. c #9D7452",
"1. c #9C7552",
"2. c #9C7653",
"3. c #927856",
"4. c #997853",
"5. c #9F7B53",
"6. c #9F7854",
"7. c #A76447",
"8. c #A86245",
"9. c #B46748",
"0. c #A9794E",
"q. c #A27A55",
"w. c #A37A56",
"e. c #A07D57",
"r. c #A2815A",
"t. c #A6825B",
"y. c #AB815B",
"u. c #AA825B",
"i. c #AB825B",
"p. c #AC835C",
"a. c #B58457",
"s. c #B0865E",
"d. c #BF8059",
"f. c #AB8760",
"g. c #AD8962",
"h. c #B38A60",
"j. c #B68B61",
"k. c #B58E64",
"l. c #B98F64",
"z. c #BB9166",
"x. c #BC9165",
"c. c #BD9267",
"v. c #B69269",
"b. c #BE9C72",
"n. c #C09469",
"m. c #C29669",
"M. c #C5986A",
"N. c #C7996B",
"B. c #CC9E6E",
"V. c #C4A175",
"C. c #C9A679",
"Z. c #CAA678",
"A. c #C7AA7C",
"S. c #C9A87A",
"D. c #CFAD7E",
"F. c #D2A472",
"G. c #D5A573",
"H. c #D1A676",
"J. c #D4A574",
"K. c #D5A674",
"L. c #D6A674",
"P. c #D6A775",
"I. c #D7A775",
"U. c #D8A974",
"Y. c #DAB17F",
"T. c #E3A675",
"R. c #E1AE7A",
"E. c #E0AF7B",
"W. c #E2B17D",
"Q. c #E7B57E",
"!. c #6EB78C",
"~. c #78D3A4",
"^. c #CDAE80",
"/. c #CFAE80",
"(. c #DBB380",
"). c #D8B684",
"_. c #E9B780",
"`. c #E3B883",
"'. c #EAB881",
"]. c #EBB881",
"[. c #EDBB82",
"{. c #EFBB83",
"}. c #E2BD89",
"|. c #F3BF86",
" X c #EDC28A",
".X c #EBC28C",
"XX c #EBC38C",
"oX c #EDC68F",
"OX c #F3C086",
"+X c #F4C086",
"@X c #F5C186",
"#X c #F4C087",
"$X c #F5C087",
"%X c #F5C187",
"&X c #F6C087",
"*X c #F6C187",
"=X c #F5C288",
"-X c #F4C38A",
";X c #F5C38A",
":X c #F5C48A",
">X c #F1C68E",
",X c #EAC690",
"<X c #ECC790",
"1X c #EACA95",
"2X c #ECCD97",
"3X c #E8CD99",
"4X c #F3C990",
"5X c #F5C990",
"6X c #F5CA92",
"7X c #F5CC93",
"8X c #F6CD93",
"9X c #F3D69E",
"0X c #F5D49D",
"qX c #F5D69F",
"wX c #F5DBA4",
"eX c #F5DCA4",
/* pixels */
"                                                                ",
"                                                                ",
"                                                                ",
"                                                                ",
"                                                                ",
"                                                                ",
"              3X^.;.      .                                     ",
"            2Xb.f.).W.    r ^ T.E.E..X                          ",
"            Q..XY.H.6.    S d.| 7.=.x.,X                        ",
"            R W j.^.v.8XA.*.m.( _ ]   x.oX                      ",
"    .       _ Q m.1Xz.}.r.l   V Y _     l.<X                    ",
"        *   B N M.>XD.B.E ! ] / m         l. X|.9X              ",
"            t.h.(.V.S.`.9.~ b               y.y.g.              ",
"              0.M.Z.Z...n v 8 f                                 ",
"            u p a.F.5.> . 1 9 f f c                             ",
"          y y     , ; . . . * 5 8 G F                           ",
"        T i             . . A I I  .e.%X                        ",
"        ]                 !.~.3.O.$.'.%X%X4.                    ",
"        ' ] ]       2.2.;.U K L %X%X%X8X6X[.M                   ",
"            } 8.2.2.2.2.2.C * Z P.OX%X0XwX4Xk.c f               ",
"            2.2.2.2.2.2.2.C * z &.P.%X-X0XeX-X#.9 f             ",
"          2.2.2.2.2.2.2.2.X.3 < J q.P.%X:X6X-Xo.: 4 9           ",
"          2.2.2.2.2.2.      ; < c   q.P.%X%X%X_.D . 6 s         ",
"          2.2.2.2.2.2.        = 2     q.P.%X%X%X%X              ",
"            ;.$.+.+.            . .       U.'.%X%X              ",
"              s f f             . .         y.G.[.%X            ",
"                e f s                         2.s.p.            ",
"                  f f                           J k             ",
"                                                  f f           ",
"                                                  e e 9         ",
"                                                  f f           ",
"                                                                "
};
