/* XPM */
static char *run_rev_6[] = {
/* columns rows colors chars-per-pixel */
"64 64 166 2 ",
"   c None",
".  c #2A1D0D",
"X  c #2E2211",
"o  c #322414",
"O  c #3F2715",
"+  c #3F2817",
"@  c #362718",
"#  c #3B2B1A",
"$  c #3F2F21",
"%  c #373724",
"&  c #3F3022",
"*  c #343925",
"=  c #572C0F",
"-  c #402817",
";  c #4B2810",
":  c #402E1A",
">  c #572B10",
",  c #592D11",
"<  c #45321E",
"1  c #5E3014",
"2  c #633116",
"3  c #6A361A",
"4  c #663A1D",
"5  c #6C3B1E",
"6  c #70391E",
"7  c #402F22",
"8  c #403022",
"9  c #493525",
"0  c #4E3A24",
"q  c #423A2A",
"w  c #523C25",
"e  c #583826",
"r  c #533D2B",
"t  c #5A3623",
"y  c #683E20",
"u  c #653E2C",
"i  c #7B3F24",
"p  c #45432C",
"a  c #56412E",
"s  c #5C442C",
"d  c #5F4732",
"f  c #5E4933",
"g  c #49593F",
"h  c #61482E",
"j  c #68432C",
"k  c #71402B",
"l  c #79462A",
"z  c #644C35",
"x  c #6F4A30",
"c  c #7E4C32",
"v  c #6A543A",
"b  c #6A5133",
"n  c #72563C",
"m  c #755A3F",
"M  c #7D5A3D",
"N  c #7C5D41",
"B  c #725E44",
"V  c #7D7757",
"C  c #86452A",
"Z  c #8D4D35",
"A  c #824A34",
"S  c #9B5136",
"D  c #98593D",
"F  c #975337",
"G  c #A3563B",
"H  c #AD5B3F",
"J  c #AD5B40",
"K  c #B05F43",
"L  c #826244",
"P  c #8A6747",
"I  c #896846",
"U  c #8D6B4A",
"Y  c #926E4D",
"T  c #9F7047",
"R  c #95714F",
"E  c #937351",
"W  c #9C7552",
"Q  c #9C7956",
"!  c #A86245",
"~  c #A36748",
"^  c #B26345",
"/  c #B76C4C",
"(  c #A4754C",
")  c #A8784D",
"_  c #A37B57",
"`  c #A57E59",
"'  c #A87F59",
"]  c #BE7351",
"[  c #C17753",
"{  c #95805D",
"}  c #A78059",
"|  c #AB825C",
" . c #B2865C",
".. c #968963",
"X. c #91956E",
"o. c #AB8660",
"O. c #AD8963",
"+. c #B48B62",
"@. c #B98E64",
"#. c #A8906A",
"$. c #BA9065",
"%. c #B5926A",
"&. c #B9966D",
"*. c #BD9B71",
"=. c #C1976A",
"-. c #C5996A",
";. c #CB9D6E",
":. c #C49266",
">. c #D69568",
",. c #D9996B",
"<. c #D69C6D",
"1. c #C09F74",
"2. c #CDA16F",
"3. c #D6A36F",
"4. c #C2A276",
"5. c #CDA271",
"6. c #CBAA7C",
"7. c #D3A473",
"8. c #D3A877",
"9. c #D9AA76",
"0. c #D4AC7B",
"q. c #DCAC79",
"w. c #D9A571",
"e. c #DEB17E",
"r. c #E0AF7A",
"t. c #E4B37D",
"y. c #5FAA84",
"u. c #60B88F",
"i. c #72C69A",
"p. c #74CEA1",
"a. c #69D0A3",
"s. c #79E9B8",
"d. c #75F4C0",
"f. c #86BE92",
"g. c #CDAE80",
"h. c #D3B383",
"j. c #DCB481",
"k. c #DBB987",
"l. c #DBBE8B",
"z. c #EEBC83",
"x. c #E1BF8B",
"c. c #E3B580",
"v. c #F2BE85",
"b. c #83C296",
"n. c #E9C18B",
"m. c #E4C18C",
"M. c #F5C187",
"N. c #F5C48B",
"B. c #F5C88F",
"V. c #E2C794",
"C. c #E8C792",
"Z. c #EECA93",
"A. c #E9CF9B",
"S. c #E5C894",
"D. c #F4CC93",
"F. c #F5CF98",
"G. c #ECD29D",
"H. c #F5D29A",
"J. c #F5D198",
"K. c #F5D59E",
"L. c #F5D39B",
"P. c #F5D7A0",
"I. c #F5D9A2",
"U. c #F5DDA6",
"Y. c #F4DCA4",
"T. c #F5DCA4",
/* pixels */
"                                                                                                                                ",
"                                                                                                                                ",
"                                                                                                                                ",
"                                                                                                                                ",
"                                                                                                                                ",
"                                                                                                                                ",
"                                                                                                                                ",
"                                                                                                                                ",
"                                                                                                                                ",
"                                                                                                                                ",
"                                                    .                                                                           ",
"                                                    .                                                                           ",
"                                                    .                                                                           ",
"                          W l.U.G.O.W W             .                                                                           ",
"                        G.l.4.&.%._ *.l.M.          ; > C ] v.M.M.M.M.M.B.I.                                                    ",
"                      J.J.J.0.+._ &.k.Z.8.          > > C / >.,.<.7.7.7.8.D.K.                                                  ",
"                      z.z.M.J.h.| S.D.q._           , 4 F ^ J J ! W W W | t.D.I.                                                ",
"                      | =.M.N.z.t.M.7.| W           y 4.j.,.J J J !       | 8.D.U.                                              ",
"                        ( ( (  .-.-.5.1._ 4.L.M.K.E j j.e.:.! J J J J       $.8.F.K.                                            ",
"                          3 3 c W | h.V.' h.J.B.J.#.r +.+.W   S G J J H       +.t.Z.I.                                          ",
"      . . .               G G ~ _ q.D.V.' 7.D.I.D.| 8 # <     1 i J J H         _ q.F.U.                                        ",
"            . .           J c M _ t.F.V.' 7.c.*.U z 9 k Z H H 5 2 i G H           @.8.F.I.                                      ",
"            . . .         Z e z _ t.D.C.*.5.5.+.x t k G J J J C 3 , S               @.q.Z.F.                                    ",
"                  X $     9 8 z ' t.M.N.P.*.@.v.[ J J J J H H H J                     _ t.v.v.v.J.U.U.                          ",
"                      & v -.E } e.D.0.+.%.g.m.v.[ J J J A u                             +.+.+.+.+.*.                            ",
"                        m M.;.-.5.6.6.4.4.x.n.;./ J G l e 8                               W W W W                               ",
"                            w.;.' ' 6.A.A.n.;.U D S Z - @ 8 8                                                                   ",
"                          > 5 T t.t.;.o.o.| I # + O + # $ 8 8 8 8                                                               ",
"                        > > > l ) t.r.;.;.I 0 . . . X # 8 8 8 8 8 & &                                                           ",
"                      , > > > > 4 3.9.-.-.z . . . . . @ # # 8 8 8 8 r r                                                         ",
"                    > > > >         : o o X . . . . . . . o $ 8 8 9 L n 8                                                       ",
"                  = > > >                 . . . . . . . . . o o o @ L n a 7.M.                                                  ",
"                C 6 , >                     . . . . . . : w w g g r P n f q.M.M.                                                ",
"              J J S 2                           . . . X v Q W b.b.R R n z q.M.M.M.                                              ",
"              J J H                                   u.i.f.Q ..V a a U 7.z.M.M.M.M.+.&                                         ",
"              J J J J                               X.s.d.p.B | +.E E =.M.M.M.M.M.M.7.R f                                       ",
"              J H H J J J                         W { i.a.y.q +.M.M.M.M.M.M.N.B.B.M.M.t.z 8                                     ",
"                    J J H J H H       W W W W W W W U p * % & +.M.M.M.M.M.M.F.I.I.D.M.t.z 8 7                                   ",
"                      J J J J ! W W W W W W W W W W U # . X $ E 7.M.M.M.M.M.J.U.U.K.D.z.$.m 8 $ $                               ",
"                      ! ! ! ! ~ W W W W W W W W W W U # . X $ N +.q.z.M.M.M.F.P.U.U.K.B.M.+.v 9 8 8                             ",
"                      W W W W W W W W W W W W W W W U # . X $ N W _ r.M.M.M.M.D.U.U.U.I.B.v.5.r 8 & 7                           ",
"                      W W W W W W W W W W W W W W W U # . . o 0 n W  .8.M.M.M.M.D.K.U.I.B.M.5.< # 8 8 &                         ",
"                      W W W W W W W W W W W W W W W Y h # . . @ z W W +.9.v.M.M.M.F.J.J.N.M.2.# o @ @ $ 8                       ",
"                    W W W W W W W W W W W W W W W W W W s . . @ d W W W | t.v.M.M.M.M.M.M.M.7.0 o . . @ $ 8                     ",
"                    W W W W W W W W W W W W W           # . . @ 9     W Q | 8.M.M.M.M.M.M.M.z.5.b . . X @ & 8 & 7               ",
"                    W W W W W W W W W W W W W             . . @ 8       W W +.8.M.M.M.M.M.M.M.M.+.M . . o $ $ $                 ",
"                    W W W W W W W W W W W W W               . @ # #       W W  .t.z.M.M.M.M.M.M.M.M.                            ",
"                      W W W W W W W W W W                   . . . . .       W W _ q.M.M.M.M.M.M.M.M.                            ",
"                        W W W W W W W W                       . . . . .           @.7.M.M.M.M.M.M.M.                            ",
"                          W I L L L L L                       . . . . .             @.9.9.t.M.M.M.M.                            ",
"                            8 & 8 8 8 &                       . . . . . .             W W -.M.M.M.M.M.                          ",
"                              7 8 8 8 &                                                 W | +.+.q.M.M.                          ",
"                                8 8 8 8                                                   W W W $.7.7.                          ",
"                                  8 8 8 8 8 &                                               W W W W Y                           ",
"                                    8 8 8 8 &                                                 W W I r 9                         ",
"                                    8 8 8 $                                                     m d 8 8 &                       ",
"                                  8 & & &                                                         7 8 8 8                       ",
"                                                                                                    8 $ 8 8                     ",
"                                                                                                      8 8 8 8                   ",
"                                                                                                      8 8 & &                   ",
"                                                                                                    8 8 8 8                     ",
"                                                                                                    8 8 &                       ",
"                                                                                                    & &                         ",
"                                                                                                                                "
};
