/* XPM */
static char *result[] = {
/* columns rows colors chars-per-pixel */
"64 64 256 2 ",
"   c #030202",
".  c #0B0402",
"X  c #0B0905",
"o  c #040609",
"O  c #030B0B",
"+  c #0B0C0B",
"@  c #050807",
"#  c #120401",
"$  c #150B03",
"%  c #1C0C03",
"&  c #170803",
"*  c #13130D",
"=  c #1B1209",
"-  c #070E12",
";  c #031313",
":  c #05151C",
">  c #021C1C",
",  c #0B1618",
"<  c #151A17",
"1  c #0A100E",
"2  c #2A0600",
"3  c #230B01",
"4  c #2B0D02",
"5  c #240400",
"6  c #330C01",
"7  c #3C0C01",
"8  c #320601",
"9  c #2C1304",
"0  c #261709",
"q  c #351303",
"w  c #3B1502",
"e  c #3D1A04",
"r  c #361B08",
"t  c #281B14",
"y  c #05211D",
"u  c #1B2319",
"i  c #372208",
"p  c #252616",
"a  c #382919",
"s  c #2C2510",
"d  c #021D21",
"f  c #081922",
"g  c #101922",
"h  c #012324",
"j  c #01252A",
"k  c #012B2B",
"l  c #082725",
"z  c #172727",
"x  c #012D32",
"c  c #072D39",
"v  c #003334",
"b  c #00333A",
"n  c #013B3C",
"m  c #053736",
"M  c #1B3837",
"N  c #00322F",
"B  c #2A2D28",
"V  c #460C00",
"C  c #431402",
"Z  c #4B1601",
"A  c #431C04",
"S  c #4C1B03",
"D  c #421E0B",
"F  c #531C01",
"G  c #5C1D01",
"H  c #561501",
"J  c #661A01",
"K  c #741F00",
"L  c #4B2204",
"P  c #4D2409",
"I  c #452407",
"U  c #542505",
"Y  c #5C2303",
"T  c #5B2B03",
"R  c #552908",
"E  c #5C330A",
"W  c #563716",
"Q  c #4E2D14",
"!  c #632302",
"~  c #632B03",
"^  c #6B2B03",
"/  c #692604",
"(  c #772A02",
")  c #6B3405",
"_  c #6B3509",
"`  c #6C3B0C",
"'  c #653408",
"]  c #733304",
"[  c #7D3404",
"{  c #773908",
"}  c #723B14",
"|  c #483A26",
" . c #01413C",
".. c #1B423C",
"X. c #334233",
"o. c #7A440A",
"O. c #714414",
"+. c #5E4B2A",
"@. c #705630",
"#. c #685729",
"$. c #023B43",
"%. c #023847",
"&. c #0F3D49",
"*. c #034448",
"=. c #164847",
"-. c #034A53",
";. c #044D5B",
":. c #094856",
">. c #134B54",
",. c #01535C",
"<. c #075558",
"1. c #0D5252",
"2. c #2D504D",
"3. c #035565",
"4. c #055867",
"5. c #055368",
"6. c #056369",
"7. c #076976",
"8. c #07747A",
"9. c #146E77",
"0. c #256775",
"q. c #205D63",
"w. c #757457",
"e. c #4C6A67",
"r. c #50706B",
"t. c #506051",
"y. c #823B03",
"u. c #863706",
"i. c #8E3404",
"p. c #A33F03",
"a. c #854A0B",
"s. c #884608",
"d. c #944C05",
"f. c #964808",
"g. c #965205",
"h. c #95520A",
"j. c #9B5508",
"k. c #895716",
"l. c #9A5915",
"z. c #884E0F",
"x. c #A94B04",
"c. c #A85907",
"v. c #B85A05",
"b. c #A75C12",
"n. c #AB640A",
"m. c #B6670A",
"M. c #BA740B",
"N. c #AA6817",
"B. c #B96B11",
"V. c #BA7417",
"C. c #945C29",
"Z. c #946A2B",
"A. c #A66D26",
"S. c #B97926",
"D. c #AD7830",
"F. c #96631C",
"G. c #C65B08",
"H. c #C34E00",
"J. c #C56A07",
"K. c #C8790D",
"L. c #C67B18",
"P. c #D9730B",
"I. c #EC7702",
"U. c #C67A26",
"Y. c #E15E00",
"T. c #977049",
"R. c #08807E",
"E. c #BD8528",
"W. c #BE9C15",
"Q. c #CB8217",
"!. c #D68919",
"~. c #D7870B",
"^. c #CA8828",
"/. c #D78B23",
"(. c #D99627",
"). c #CA8D36",
"_. c #E39C29",
"`. c #D9A938",
"'. c #E8A32C",
"]. c #E8A735",
"[. c #F2B330",
"{. c #EF9E0A",
"}. c #FECA13",
"|. c #FCC927",
" X c #A78D60",
".X c #CA9548",
"XX c #D5A455",
"oX c #ECB54D",
"OX c #D1B06F",
"+X c #EDB876",
"@X c #D59C6E",
"#X c #F6CC58",
"$X c #FBCE4C",
"%X c #FAC965",
"&X c #F9D77A",
"*X c #F5D16F",
"=X c #FDE871",
"-X c #D7C472",
";X c #077A85",
":X c #157A85",
">X c #11788D",
",X c #2C7A86",
"<X c #4B7591",
"1X c #098489",
"2X c #14868B",
"3X c #178A97",
"4X c #1A939C",
"5X c #098F97",
"6X c #248997",
"7X c #2D9194",
"8X c #1A97A6",
"9X c #239CAC",
"0X c #269BA7",
"qX c #2E99AB",
"wX c #1BA3AE",
"eX c #28A5AD",
"rX c #2AA5B5",
"tX c #33AAB6",
"yX c #36B3BB",
"uX c #35A5AF",
"iX c #4996A4",
"pX c #43A5AF",
"aX c #3CB6C2",
"sX c #35ACC9",
"dX c #46BBC8",
"fX c #57B6C6",
"gX c #55C8D5",
"hX c #50C4CF",
"jX c #6AD9EA",
"kX c #BCAF8A",
"lX c #DED08A",
"zX c #F4D79A",
"xX c #EFD391",
"cX c #FEE986",
"vX c #FCE596",
"bX c #FFF799",
"nX c #F4F290",
"mX c #FDE9AD",
"MX c #FFFAB8",
"NX c #F9EFAE",
"BX c #E4CEB5",
"VX c #A4CED6",
"CX c #FDF9C7",
"ZX c #FEFCD3",
"AX c #FBF9DA",
"SX c #FAEBCC",
"DX c #FFFCE4",
"FX c #FEFCEB",
"GX c #F9F6E5",
"HX c #FDFDF4",
"JX c #FFFFFC",
"KX c #F7FBF9",
"LX c #F1EEE3",
"PX c #E0D8CB",
"IX c #DCBE9B",
"UX c None",
/* pixels */
"UXUXUXUXUXUXUXUXUXUXUXUXUXUXUXUXUXUXUXUXUXUXUXUXUXUXUXUXUXUXUXUXUXUXUXUXUXUXUXUXUXUXUXUXUXUXUXUXUXUXUXUXUXUXUXUXUXUXUXUXUXUXUXUX",
"UXUXUXUXUXUXUXUXUXUXUXUXUXUXUXUXUXUXUXUXUXUXUXUXUXUXUXUXUXUXUXUXUXUXUXUXUXUXUXUXUXUXUXUXUXUXUXUXUXUXUXUXUXUXUXUXUXUXUXUXUXUXUXUX",
"UXUXUXUXUXUXUXUXUXUXUXUXUXUXUXUXUXUXUXUXUXUXUXUXUXUXUXUXUXUXzXzXzXzXzXUXUXUXUXUXUXUXUXUXUXUXUXUXUXUXUXUXUXUXUXUXUXUXUXUXUXUXUXUX",
"UXUXUXUXUXUXUXUXUXUXUXUXUXUXUXUXUXUXUXUXUXUXUXUXUXXXvXAXAXZXZXSXSXFXHXJXJXJXHXOXUXUXUXUXUXUXUXUXUXUXUXUXUXUXUXUXUXUXUXUXUXUXUXUX",
"UXUXUXUXUXUXUXUXUXUXUXUXUXUXUXUXUXUXUXUXUXUX(.NXMX=Xu.i.p.x.x.B.H.v.v.H.G.G.+XJXJXFX@XUXUXUXUXUXUXUXUXUXUXUXUXUXUXUXUXUXUXUXUXUX",
"UXUXUXUXUXUXUXUXUXUXUXUXUXUXUXUXUXUXUXUX&XMX&XJ [ J.!.'.[.oXoXFXHXG.MXMXNXbX|.P.H..XJXJXBXUXUXUXUXUXUXUXUXUXUXUXUXUXUXUXUXUXUXUX",
"UXUXUXUXUXUXUXUXUXUXUXUXUXUXUXUXUXUX*XMX{ J c.Q.(.].oX#X=X#X'.i.x.~.bXMXCXMXCXCXbX}.Y.G.JXJX@XUXUXUXUXUXUXUXUXUXUXUXUXUXUXUXUXUX",
"UXUXUXUXUXUXUXUXUXUXvX&XUXUXUXUXXXMX{ J v.Q.(.].oX^.^ ^ Z J y.u.u.u.i.( ( s.cXZXFXFXAX#X{.G.JXJXxXUXUXUXUXCXMXUXUXUXUXUXUXUXUXUX",
"UXUXUXUXUXUXUXUXmXmXvX].vXUXUXcXxXJ f.!.(.(.].Z Z H i.w               . S ( ( K J cXFXFXZX|.I.XXJXNXUXUXAXcXmXHXDXUXUXUXUXUXUXUX",
"UXUXUXUXUXUXUXUXc.LX' @.XXO.*XJ H !.!.(.^.e V [ q   . . X * u | W 0 * + O   . & u.J H `.FXDXMX~.v.FXFX Xx.r JXc.`.UXUXUXUXUXUXUX",
"UXUXUXUXUXUXUXUX{ a.PX9 O.*XH y.L.!.Q.2 ! u.    o + z M ,XuXB HXJXKXVXjXpXB * O     { / J =XZXZX}.p.MXFXx.KX@.JXg.UXUXUXUXUXUXUX",
"UXUXUXUXUXUXUXUX) ' 9 A.(.J a.Q.Q.U.R ! .     * >.sXrXrX9X0XM JXJXKXfXhXgXhXjXjX7Xo     u./ ! bXZXK.u.!.HXBXZX`.a.UXUXUXUXUXUXUX",
"UXUXUXUXUXUXUXUX` e 6 (.[ mXU.K.A ~ !     1 4X8X4XrX9X9X8X9X>.k.lXs.yXaXdXdXhXhXfXjXiX    6 ( J bXp.bXi.J.GXZ ~ A.UXUXUXUXUXUXUX",
"UXUXUXUXUXUXUXUXUX& _.[ G AXLXF ! {     q.*.eX1X8X=.wX9X8X4X0.O.OXo.eXtXyXyXaXdXdXdXhXaXO     f.V P.HX=X( v.SXUXUXUXUXUXUXUXUXUX",
"UXUXUXUXUXUXUXUXUX].u.C A 2 J ( ' @ :.8.8.7.;.;X5X4.wX8X4X3X,XO.-Xo.eXeXuXtX*.aXdXdX8XtXaXfX    J.8 }.$XV p.$XzXUXUXUXUXUXUXUXUX",
"UXUXUXUXUXUXUXUXXXc.& L.j.S / y.  KXPX7.8.8.%.wX5X5X:.wX8X3X3X` OXO.4XeXeXtXuXyXaX9X8XyXrX3XJX    x.6 V '.'.J #XUXUXUXUXUXUXUXUX",
"UXUXUXUXUXUXUXUX~.9 B.c.Y Z {   i [ HXDX7.R.8.*.1X5X1.8X8X3X6XW XXO.3XeX9XuXrXtXaX8XsX9X,XJXJXx.    x./ ]._.L.H oXUXUXUXUXUXUXUX",
"UXUXUXUXUXUXUX(.w A.B.[ S f.    @.y.[ LXAX4.1X*.<.5XR.8.5X3X6XQ .XW 3X4X0X;.eXrX;XqXqXuXKXIXv.b.C.    c.u.'._.u.*X].UXUXUXUXUXUX",
"UXUXUXUXUXUXUXU.3 m.f.S i.    o   E y.[  XAX;X4.-.8.1X&.8X3X6XQ .XX.2X7X0X0X9XeX3X3XdXGXC.b.b.C.t 0.  . ( 7 _./.H ].UXUXUXUXUXUX",
"UXUXUXUXUXUXU.4 B.m.U F X   m 8..   E y._ | FX6.<.-.R.6.3X1X>X| W.X.2X4X0.4X8X7.>XtXGX_ h.l.S - sX>X    v.u._.(.( +X).UXUXUXUXUX",
"UXUXUXUXUXUXL.3 n.h.e s.@ @ k v 2X@   E u./ e DX-.,.,.R.=.5X>Xa E.X.3X3X2X3X3X9.4XAXJ j.l.W : sXjX,X,Xo o x.A /.L.q ^.UXUXUXUXUX",
"UXUXUXUXUXS.9 N.n.L Y     *.-.> v 1X@   P y.~ e ZX-.,.7.:.;X>Xa E.=.2X2X3X2X7.:XSXK h.{ +.- rXgX5.:X>X&.  f.R !.L.R ).UXUXUXUXUX",
"UXUXUXUXUXB.= N.c.w o.  y *.j <.y j 8.@   9 [ Y e ZX,.4.8.>.3Xa E.=.9.1.>X7.;XnXK j.L s d rXuX-.6X6X:X>X. % s.A.L.z.C.A.UXUXUXUX",
"UXUXUXUXUXl.' c.{ e .   n k j j *.k > 1X@   . y.Y e MX,.4.<.6Xa V.=.9.9.;X8.lXJ h.w * d qX9.3.4X>X4.;.;Xo   v.a L.V.r A.UXUXUXUX",
"UXUXUXUXF.D n.c.e {   ; *.*.j j k N N y 1Xy   X d.Y I GX5.4.4.B A.1.9.9.4.@.H h.e * c 0X:.7.3X4.5.;.3X;X>X. A r U.V.r V.UXUXUXUX",
"UXUXUXUXN.= b.h.9 {   x k j 6.,.k h k v > 8.2.@ . g.) T.PX4.<.| A.=.5.6.M G l.9 1 0.9.*.1X6.;.:.5.9XpX&.;X+ & l.S.V.o.N.UXUXUXUX",
"UXUXUXUXj.q c.a.9 9   v x x x k x ;Xx k v j  .7XX X f.[ +X4.<.B F.2.>.=.) g.$ * qX&.4.8.;.;.;.8X7X&.-.-.5.o X m.q V.N.' C.UXUXUX",
"UXUXUXUXa.z.g.) P   o x x x b x b x v R.n k k k eXX X s.{ mX` GXDXDXOXZ.u.= 1 uX%.9.;.:.:.eX:.;.;.5.;.5.;.0.X h.% V.m.9 N.UXUXUX",
"UXUXUXUX` h.d.U T   ; x x b b b b b b b b <.,.k k hX$ $ T AXSXG.Y.U.HXFXU , iX%.5.>.5.7X1.3.3.3.5.4.5.5.3.5.  o.9 ^.m.% l.UXUXUX",
"UXUXUXo.S s.s.A _   j x c b b b %.%.$.$.%.*.n *.<.x 1.$  XN.S.FXGXAX#X@XmX<X5.5.5.5.;.4.4.4.4.4.4.4.5.5.;.;.. ' I V.n.4 z.UXUXUX",
"UXUXUX` e oXNXA _   y #X$X-XM M M ....2.2.t.t.t.t.X.p T y.' B.l.d.zXk.xX.XO.M 2.2.e.e.e.r.r.e.e.e.w.AXHXL.W.  E R y.y.U s.UXUXUX",
"UXUXUX} w oXcXS `   0 A A S A A e D L e I L i I A A r a.' W ( = s O.oXz.A.} P H R S S S S F U ! ~ ~ { E.{ ]   E I #XZXD._ UXUXUX",
"UXUXUX_ A J J Z `   i w e A A A i e e e A I A I I i $ o.U W o.#.Z.i E.E k.o.Q Q P P R I P P L L R U T ` S w X T T E.s.i.) UXUXUX",
"UXUXUXU S $X$Xq `   O $ $ $ * 1 * * * u < l l l l z * T ] #.s.Q a Z.O.k.o.I 2.N j u u u < u u p p u p z z f * O.R m.|.S { UXUXUX",
"UXUXUX' S & & q '   O > y N n *.-.<.8.R.<.N N k N k k X { ' +.) ' i R w { 0 M k =. . .*.<.7XyX8X;X7.-.%.j j @ z.L ) L r { UXUXUX",
"UXUXUXUXA { ~ S '   O ; k k y y y y h h k N N -.m k k X R ' k.O.I k.' ) _ z m n n ; iXv *. . . .b b %.4.5.b @ j.i j.d.% { UXUXUX",
"UXUXUXUXC n.s.Y Y $   ; h y h h k k k k m ,. .k k k p L w R ~ ` ) _ _ _ R GXl %.m $.v l ,Xv v n $.n m N $.h @ g.9 j.j.9 T UXUXUX",
"UXUXUXUXA d.f./ w k.O , k h h h k j N -.k > y N v a w P e & # 2 A w & % Y w DXc $.c n n h l -.v v m n v *.<   d.E g.h.U UXUXUXUX",
"UXUXUXUX~ q x.] 9 g.O O h h h h v m y y h k b n +.Z ' q y m 1 , ) i l y 4 U Z FXc %.n n n j h v *.k k v $.< e O.g.g.o.^ UXUXUXUX",
"UXUXUXUXL w J.d.w o.o O ; k k y y > y k x v b  XP R 0 d m l N , o.i k n h 3 U S GXl %.b b b n j h  .n b > - j.t g.g.9 ] UXUXUXUX",
"UXUXUXUXUXC K.f.S S W O ; y > > > j k k k v xXU S . y k v > N > o.I  . .j x . T S NXz b b b x b v l l n ,   j.0 h.g.q U UXUXUXUX",
"UXUXUXUXUXY 4 v.( 4 V.@ O ; y h j k j k j xXP I $ > N v k v l > { i  .h *.j k . ) L lXw.x b x x x b k h , F.I h.g.a./ UXUXUXUXUX",
"UXUXUXUXUXA w M.c.6 T $ @ @ y k y > j k *XI r $ > k k v > v k , ] i n h *.k N k . ] G  XzXk x k k x b : O n.t g.g.. [ UXUXUXUXUX",
"UXUXUXUXUXUXH q m./ 9 /.@ ; O > > k u .Xe w 0 y k k x h v h N * ) s N  .h  .d n O   ) ! Q vXj x k x j - N.i o.g.h.S % UXUXUXUXUX",
"UXUXUXUXUXUXR C B.c.8 8 D.O O ; k a.L w 9 i ; k k j x h v > k + ` s k m k N b y *.@   ~ Y 3 #Xj x x - o n.9 g.h.# ^ UXUXUXUXUXUX",
"UXUXUXUXUXUXUX/ 3 J.y.5 j.X 1 @   r q 0 i O y k h x > k k k k + ` 0 k k N h v k h n O   T Y X S.j O O n.# s.g.d.Y 9 UXUXUXUXUXUX",
"UXUXUXUXUXUXUXw H A.v.H $ '.1 +   r 3 i @ y h j j j h x : k k + ) s k h m h k x h j N ;   F Y . X + ).A 4 j.j.# ^ UXUXUXUXUXUXUX",
"UXUXUXUXUXUXUXUX~ 6 K.v.S $ [.* O . i O h y j > j > j k > k k + ' i k k k N d k k j j h >   Y 9 X A.C.! d.g.4 ~ UXUXUXUXUXUXUXUX",
"UXUXUXUXUXUXUXUXUX^ $ ~.V J 8 [.* <   O O k d j h d k : j j j + ' r k k f k j d j j d d > > 1   R C q +XmXf.7 S UXUXUXUXUXUXUXUX",
"UXUXUXUXUXUXUXUXUX  ( 9 C./ ].2 ].* < - o - h h > h k , j j j + E 0 j k h h k h d j d d > : - E 3 L.r I /.# _ UXUXUXUXUXUXUXUXUX",
"UXUXUXUXUXUXUXUXSXO.  J ^ (.6 ] 8 ].-X- g - O ; y h h h j d j + S = j > y h j j f f d f d : %X6 Z r ~.j.^ R & &XUXUXUXUXUXUXUXUX",
"UXUXUXUXUXUXUXT.U e     G ] h.'.^ V W #X$ z , O O ; y h h d d + 9 % d > h l , f f d f f Z.$XC F i.5 . 7 P   V.i.%XUXUXUXUXUXUXUX",
"UXUXUXUXUXUXUX).i Z.I . o H C ~.g.o.Z 5 #XxXX z < O @ X ; h d X 4 $ : , , g f g f f @.nXG w G f.m.m.3 R   & . oXG UXUXUXUXUXUXUX",
"UXUXUXUXUXUXUXO.AXQ I }     H 7 Q.n.g.~ V 5 vXbXa < g g 1 + X # 3 X , , , , - o BXcX^ C S s.c.M.O.3 [ . A w.w.a C UXUXUXUXUXUXUX",
"UXUXUXUXUXUXUXUXR -XT.t u.    ! Z 2 M.n.d.! A 2 Q CXMXxX@.u < < =   1 0 kXCXcX(.7 V ! s.n.m.K.& 7 [     D Z.mXC R UXUXUXUXUXUXUX",
"UXUXUXUXUXUXUXUXUXD P Q UXUXUXUXw Y 6 F.M.n.g.] ! C 8 2 7 C.@XOXOX@X.Xa.6 2 V Y ^ s.n.M.L.7 q J . UXUXUXUXD r Q UXUXUXUXUXUXUXUX",
"UXUXUXUXUXUXUXUXUXUXUXUXUXUXUXUXUX# Y H 2 } Q.m.m.g.y.y.] / ! ! ! Z Y ! ^ { c.n.M.K.!.4 6 F R   UXUXUXUXUXUXUXUXUXUXUXUXUXUXUXUX",
"UXUXUXUXUXUXUXUXUXUXUXUXUXUXUXUXUXUXUX. Y F 7 2 S.~.m.c.c.c.e '.y.a.N.M.M.K.Q.!.~ 3 q S ^   UXUXUXUXUXUXUXUXUXUXUXUXUXUXUXUXUXUX",
"UXUXUXUXUXUXUXUXUXUXUXUXUXUXUXUXUXUXUXUXUX# Y Y Z C w w s.~.) T ].7 V.L.' 3 6 w 7 ! A   UXUXUXUXUXUXUXUXUXUXUXUXUXUXUXUXUXUXUXUX",
"UXUXUXUXUXUXUXUXUXUXUXUXUXUXUXUXUXUXUXUXUXUXUXUX# G ! H Z w A S A A Z Z H J [ q   . UXUXUXUXUXUXUXUXUXUXUXUXUXUXUXUXUXUXUXUXUXUX",
"UXUXUXUXUXUXUXUXUXUXUXUXUXUXUXUXUXUXUXUXUXUXUXUXUXUXUXUX. . & 6 w q #       UXUXUXUXUXUXUXUXUXUXUXUXUXUXUXUXUXUXUXUXUXUXUXUXUXUX",
"UXUXUXUXUXUXUXUXUXUXUXUXUXUXUXUXUXUXUXUXUXUXUXUXUXUXUXUXUXUXUXUXUXUXUXUXUXUXUXUXUXUXUXUXUXUXUXUXUXUXUXUXUXUXUXUXUXUXUXUXUXUXUXUX",
"UXUXUXUXUXUXUXUXUXUXUXUXUXUXUXUXUXUXUXUXUXUXUXUXUXUXUXUXUXUXUXUXUXUXUXUXUXUXUXUXUXUXUXUXUXUXUXUXUXUXUXUXUXUXUXUXUXUXUXUXUXUXUXUX",
"UXUXUXUXUXUXUXUXUXUXUXUXUXUXUXUXUXUXUXUXUXUXUXUXUXUXUXUXUXUXUXUXUXUXUXUXUXUXUXUXUXUXUXUXUXUXUXUXUXUXUXUXUXUXUXUXUXUXUXUXUXUXUXUX"
};
