/* XPM */
static char *result[] = {
/* columns rows colors chars-per-pixel */
"64 64 256 2 ",
"   c #020203",
".  c #040509",
"X  c #05090E",
"o  c #0A0B0C",
"O  c #0A0503",
"+  c #050B13",
"@  c #070C16",
"#  c #0D1115",
"$  c #0B131C",
"%  c #08141E",
"&  c #13161B",
"*  c #150C07",
"=  c #281606",
"-  c #381604",
";  c #301815",
":  c #322616",
">  c #0B1622",
",  c #0C1B24",
"<  c #0C1D2C",
"1  c #061828",
"2  c #121724",
"3  c #081D32",
"4  c #0C2333",
"5  c #0B253A",
"6  c #0D293E",
"7  c #042337",
"8  c #152737",
"9  c #14292E",
"0  c #2A3437",
"q  c #353738",
"w  c #2C2D28",
"e  c #1E261D",
"r  c #441A03",
"t  c #472407",
"y  c #5B2A06",
"u  c #57330C",
"i  c #6A2D07",
"p  c #693508",
"a  c #763907",
"s  c #712C03",
"d  c #433A30",
"f  c #1F413B",
"g  c #78440B",
"h  c #734715",
"j  c #53432F",
"k  c #6A5531",
"l  c #0D2D43",
"z  c #042846",
"x  c #112E44",
"c  c #0D334B",
"v  c #0A3247",
"b  c #12344C",
"n  c #133447",
"m  c #0C3B54",
"M  c #053856",
"N  c #143B54",
"B  c #133955",
"V  c #012B53",
"C  c #353C44",
"Z  c #2B3B4A",
"A  c #043B6C",
"S  c #001949",
"D  c #0D435D",
"F  c #05425B",
"G  c #16435C",
"H  c #0D444E",
"J  c #324756",
"K  c #034B6B",
"L  c #094766",
"P  c #144D6C",
"I  c #174864",
"U  c #18546C",
"Y  c #044A77",
"T  c #164E72",
"R  c #065879",
"E  c #185677",
"W  c #07526D",
"Q  c #294A64",
"!  c #354763",
"~  c #245976",
"^  c #315672",
"/  c #11647A",
"(  c #326479",
")  c #27615C",
"_  c #434648",
"`  c #444C59",
"'  c #495659",
"]  c #635953",
"[  c #435C7B",
"{  c #4E596D",
"}  c #5B6675",
"|  c #54666D",
" . c #716F6C",
".. c #843B05",
"X. c #902B03",
"o. c #874409",
"O. c #944906",
"+. c #955917",
"@. c #8C5111",
"#. c #A65809",
"$. c #AE590A",
"%. c #AB6614",
"&. c #BB7615",
"*. c #B46910",
"=. c #93662C",
"-. c #B57C35",
";. c #AB6F2B",
":. c #8C5C1E",
">. c #CB7417",
",. c #C35502",
"<. c #608471",
"1. c #B58438",
"2. c #CD8C2F",
"3. c #EF9F33",
"4. c #B2854B",
"5. c #AC9169",
"6. c #9E8D63",
"7. c #CC9251",
"8. c #D3A555",
"9. c #EFBA4F",
"0. c #D3B16D",
"q. c #DDA96C",
"w. c #E5C47C",
"e. c #EFCC6D",
"r. c #EDCD5A",
"t. c #065B84",
"y. c #08528E",
"u. c #225E82",
"i. c #295F8A",
"p. c #076589",
"a. c #176A87",
"s. c #17728A",
"d. c #056998",
"f. c #087599",
"g. c #12779A",
"h. c #226284",
"j. c #246A8B",
"k. c #286788",
"l. c #286C93",
"z. c #2A7496",
"x. c #34789B",
"c. c #2A6E8D",
"v. c #0569A5",
"b. c #0777A5",
"n. c #0970B1",
"m. c #347DA4",
"M. c #2F77A5",
"N. c #095DA8",
"B. c #496E8B",
"V. c #697693",
"C. c #556E95",
"Z. c #0B79CF",
"A. c #0785AB",
"S. c #1288A8",
"D. c #098BB4",
"F. c #0695B8",
"G. c #1294BB",
"H. c #158EB3",
"J. c #3482AA",
"K. c #3983A7",
"L. c #3B89B6",
"P. c #2789B1",
"I. c #18A0B9",
"U. c #758A92",
"Y. c #4689AB",
"T. c #438CB4",
"R. c #4895BA",
"E. c #519CBE",
"W. c #6996AE",
"Q. c #79A4BD",
"!. c #77A39C",
"~. c #139AC3",
"^. c #108BCB",
"/. c #2F92CC",
"(. c #05A6C7",
"). c #09B7D9",
"_. c #15A8D2",
"`. c #33A8D2",
"'. c #15BBE7",
"]. c #36B0EC",
"[. c #119FEB",
"{. c #499BC7",
"}. c #519CC5",
"|. c #55A5CA",
" X c #4DA8D6",
".X c #56ACD5",
"XX c #59B2DC",
"oX c #4DA1CC",
"OX c #71B1D6",
"+X c #59B7E6",
"@X c #51B8F2",
"#X c #68B1DF",
"$X c #08C4DA",
"%X c #0CC8E8",
"&X c #0BDCF7",
"*X c #13D8F5",
"=X c #0DCFED",
"-X c #16E8FB",
";X c #18FAFF",
":X c #0BEAFA",
">X c #26FEFF",
",X c #37FEFE",
"<X c #2DE8FA",
"1X c #25C9DF",
"2X c #4DCDF7",
"3X c #67C7F5",
"4X c #6BCDF7",
"5X c #45FEFE",
"6X c #59FCFE",
"7X c #43E8F6",
"8X c #67FCFD",
"9X c #7BFDFE",
"0X c #6FE9F9",
"qX c #899AAC",
"wX c #AAB1B1",
"eX c #95A4A5",
"rX c #D5B88A",
"tX c #D5B798",
"yX c #DBCB94",
"uX c #EFCC8D",
"iX c #FCE695",
"pX c #EAD1AC",
"aX c #FEEEB2",
"sX c #9AB8CC",
"dX c #92D7F4",
"fX c #ADD0EA",
"gX c #89FEFE",
"hX c #93FDFE",
"jX c #93ECF9",
"kX c #ACFFFF",
"lX c #A4FEFF",
"zX c #B4FEFE",
"xX c #BDFFFE",
"cX c #BAF4FC",
"vX c #B2E9FF",
"bX c #A7CAD4",
"nX c #D3D5CF",
"mX c #F5DEC7",
"MX c #FBE9C5",
"NX c #FEF8C8",
"BX c #FEF7D8",
"VX c #F3E8D6",
"CX c #C6FEFF",
"ZX c #D9FAFE",
"AX c #D7EAF0",
"SX c #FFFDE3",
"DX c #FFFDEC",
"FX c #FCF6E8",
"GX c #E8FDFE",
"HX c #FFFEF4",
"JX c #F4FEFE",
"KX c #FDFEFE",
"LX c #F5F8F7",
"PX c #E8EAEB",
"IX c #CED6E4",
"UX c None",
/* pixels */
"UXUXUXUXUXUXUXUXUXUXUXUXUXUXUXUXUXUXUXUXUXUXUXUXUXUXUXUXUXUXUXUXUXUXUXUXUXUXUXUXUXUXUXUXUXUXUXUXUXUXUXUXUXUXUXUXUXUXUXUXUXUXUXUX",
"UXUXUXUXUXUXUXUXUXUXUXUXUXUXUXUXUXUXUXUXUXUXUXUXUXUXUXUXUXUXUXUXUXUXUXUXUXUXUXUXUXUXUXUXUXUXUXUXUXUXUXUXUXUXUXUXUXUXUXUXUXUXUXUX",
"UXUXUXUXUXUXUXUXUXUXUXUXUXUXUXUXUXUXUXUXUXUXUXUXUXUXUXUXUXUXUXUXJXLXUXUXUXUXUXUXUXUXUXUXUXUXUXUXUXUXUXUXUXUXUXUXUXUXUXUXUXUXUXUX",
"UXUXUXUXUXUXUXUXUXUXUXUXUXUXUXUXUXUXUXUXUXUXUXUXUXUXV.! Q fXKXGXKXKXQ.M.sXeXUXUXUXUXUXUXUXUXUXUXUXUXUXUXUXUXUXUXUXUXUXUXUXUXUXUX",
"UXUXUXUXUXUXUXUXUXUXUXUXUXUXUXUXUXUXUXUXUXUXUXUXqXKXHXKXKXJXLXjXfXKXJXKXHXKXKXV.eXUXUXUXUXUXUXUXUXUXUXUXUXUXUXUXUXUXUXUXUXUXUXUX",
"UXUXUXUXUXUXUXUXUXUXUXUXUXUXUXUXUXUXUXUXUXfXGXGXZX#X^.^.Z.j.PX3X/.JXz ].2X/.LXKXKXKXC.wXUXUXUXUXUXUXUXUXUXUXUXUXUXUXUXUXUXUXUXUX",
"UXUXUXUXUXUXUXUXUXUXUXUXUXUXUXUXUXUXUXsXvX3XZ.^./.C.1 @ ! B.sX4X`.GX Xi.2 2 l.@X@XZXKXKXV.wXUXUXUXUXUXUXUXUXUXUXUXUXUXUXUXUXUXUX",
"UXUXUXUXUXUXUXUXDXiXBXUXUXUXUXUXUXOX4X4XZ./.x . T .X XoXoXM.qX3X`.GX/. X+X+X3Xk.2 u.2X}.KXKXV.sXUXUXUXUXUXDXDXDXUXUXUXUXUXUXUXUX",
"UXUXUXUXUXUXUXiXHXDXiXBXUXUXUXUX@X4Xn.{.. 3 {.{.oXoXoXoX{.c.Q.3X/.GXL. X#XXX#XXX+X+X> Y 0XOXKXAXfXUXUXUXFXFXSXFXiXUXUXUXUXUXUXUX",
"UXUXUXUXUXUXUXO.HXBXBXaXMXUX3XN.]./.+ @ T./.{.{.{.{.}.oX{.~ Q.3X`.GXL. X.XXXXXXXXXXXXX.X5 y.0XKXKXfXUXBXBXyXHXHX>.UXUXUXUXUXUXUX",
"UXUXUXUXUXUXUXUXO.HXHXq.aXNXy.d.c . Y.L.L.T.R.{.{.}.{.{.R.^ W.+X/.GXK.oX.X.X.XOX.X.X X XXX3 B 2XOXQ.VXBXpXHXLX#.UXUXUXUXUXUXUXUX",
"UXUXUXUXUXUXUXUX%.O.DXHX8.aXaXz + M.M.K.L.T.L.R.R.R.R.R.T.~ W.+X~.ZXK.{.|.|.|.|..X.X|.oXoX{.R.4 Q VXBXpXKXHX#.2.UXUXUXUXUXUXUXUX",
"UXUXUXUXUXUXUXUXUX%.o.HXKXq.iXaXh.l.z.x.m.K.Y.Y.L.T.Y.T.K.Q C.3XP.GXc.T.E.|.|.|.|.|.|.E.R.R.J.I BXBXmXHXHX#.*.UXUXUXUXUXUXUXUXUX",
"UXUXUXUXUXUXUXUXUXUX&.O.mXKXuXuXaX~ k.c.x.x.m.x.K.K.K.x.x.Z } JXa.ZXk.L.Y.R.E.E.E.E.E.E.T.K.Q BXBXMXHXHX..>.UXUXUXUXUXUXUXUXUXUX",
"UXUXUXUXUXUXUXUXUXUX  &.O.tXKXpXuXMXU ~ k.c.B.x.x.x.x.c.k.< KXJXKXKXu.B.Y.Y.Y.Y.Y.Y.Y.Y.K.Q BXBXaXDXDX..&.  UXUXUXUXUXUXUXUXUXUX",
"UXUXUXUXUXUXUXUXUXU.. . >.#.rXKXw.uXaXQ k.i.k.k.i.c.k.~ 8 KXKX!.: KXKX( x.x.K.x.x.x.K.c.Q BXBXaXHXFX..*.O @ T.UXUXUXUXUXUXUXUXUX",
"UXUXUXUXUXUXUXUXUXY {.    2.$.5.KX3.9.aX; ~ Q E ~ ~ ~ | KXLXU.n.K q HXDXFXc.z.x.c.k.h.Z HXMXaXDXFXO.$.O   ZX XR.UXUXUXUXUXUXUXUX",
"UXUXUXUXUXUXUXUXY y.M .     2.$.5.KXtXKXKXKXKXHXSXBXKXKX| W.n.kXCXn.nX .KXKXFXwXVXBXSXNXNXpXFXFXX.*.O o $ . dXm.Q.UXUXUXUXUXUXUX",
"UXUXUXUXUXUXUXE t.0X. l 5 X   -.$.6.KX;.7.mXFXKXVXKXnXeX}.N.lXlXgXxXZ.3XwX .HX5.BXKXKXDXBXpXHXO.$.. X ~ x.. fX+XM.UXUXUXUXUXUXUX",
"UXUXUXUXUXUXUXK 2X+ N P P c +   -.#...6.d t d ; u  .k.v.n.8X6X8X8X8XzX0XD.b.J.|  .] ] k k pXO.$.O , ~ x.m.J.  jXM.W.UXUXUXUXUXUX",
"UXUXUXUXUXUXL t.XX7 E h.E T l .   4.1.9 E / s.s.bX<X6XhXgX8XgXhXzXkXlXzXzXzXgX0Xz.z.z.z.0 0.+.* < ~ z.J.J.J.1 Q .Xc.UXUXUXUXUXUX",
"UXUXUXUXUXUXM ].@ E a.k.j.E I 3   = -.9 p.s.s.s.sX:X;X;XhXkXxXxXxXzXzXCXCXCXCXJXa.l.z.s.w rX&.$ G c.J.K.J.J.m.. jXx.UXUXUXUXUXUX",
"UXUXUXUXUXG Y 3X3 h.j.j.j.u.E c X o -.w / s.s.g.!.:X;X;X5XxXxXCXCXCXCXxXlX9XhXJXs.c.s.s.w yX%.v ~ z.J.K.J.J.z.+ T.M.k.UXUXUXUXUX",
"UXUXUXUXUXV y.@ P a.j.j.j.u.u.m #   1.w / s.s.s.x.:X;X,X,XzXlXzXzXxXzX8X9X6XJXJXa.c.c.l.w yX%.H c.J.J.J.J.P.J.c.o @X~ UXUXUXUXUX",
"UXUXUXUXUXM 2X% / j.a.c.j.u.E B % . 1.: / ) / s./ gX;X>X,XlXkXkXzXzX6X6X5X8XJXGXj./ ( / 0 0.&.F / K.K.K.J.J.J.M.. 4Xi.UXUXUXUXUX",
"UXUXUXUXUXV 4X7 E j.j.j.h.u.E B , . 2.: s.) aXVXnXGXgX,X,XhXlXhXlX6X5X5X,XGXJXzXxXxXCXf f aX%.H k.z.z.J.z.J.M.z.X 4Xi.^ UXUXUXUX",
"UXUXUXUXG M u.B E a.h.j.k.u.E B % , r.k / f.A.F.(.(.ZXgX5X,X6X5X6X,X>X>XZXJX6X'._.G.f.n J yXp I ( z.K.z.J.z.x.z.c Y k.I UXUXUXUX",
"UXUXUXUXM A 2 L E E u.u.u.E T B + 1.h <.W f.A.F.(.$X$XCXgX>X>X,X;X>X;XCXZX<X*X)._.(.S.U eX) 4.j / c.z.z.z.z.z.z.u.@ M.I UXUXUXUX",
"UXUXUXUXV Y 2 m T E E E E T B 3 % r.: F / f.A.(.(.).%X=XCX6X;X;X;X;XkXGX;X-X=X'._.~.G.g.H bX' u U h.j.j.l.j.l.j.u.. @XB UXUXUXUX",
"UXUXUXUXo @ 2 c m L L B A B z 1 e.y eXK f.f.A.(.).$X=X*X:XZX;X;X;XkXGX;X-X-X=X_.~.~.G.D./ e H iX;.I P U P P P L L & A B UXUXUXUX",
"UXUXUXqXeXIXAXGXJXKXKXLXKXLX2 iX..4.M R f.A.F.(.%X%X%X=X=X-XZX,XZXCX;X;X;X-X=X_._.G.G.S.S.H MX) e.DXHXKXKXKXKXKXKXKXKXKXPXUXUXUX",
"UXUXUX' ` ` { ! { ^ [ B.B.^ 0 9.3.6 L R p.jXI.F.'.%X=X*X:X&X0XGXgX;X;X-X-X-X*X`.~.H.S.S.S.s.n FXLX+.{ } } } } } } { { }  .UXUXUX",
"UXUXUX` ` ` J ` ` ! ! ! ! ! # g t V L Y R d.f.f.F.&X&X&X&X7XGX<XCXgX:X*X*X%X'.~.H.S.g.s.p.p.W e :.=.^ [ i.[ [ B.B.[ B.} } UXUXUX",
"UXUXUXq d _ _ _ _ _ _ J C C e r g t z K R p.d.d.H.`.ZX:X9XZX-X=X$XxXgX&XhXkX~.S.g.s.p.p.R E dX;.2.U. .{ ` ` ' ' ' ` ] |  .UXUXUX",
"UXUXUX. o . . . . o . . . . . O t +.tXM R t.t.d.f.A.).1X6X$X=X$XG.(.kXxX&X).G.g.g.p.a.R R cX;.g     . . . .   . O   . O UXUXUXUX",
"UXUXUXUX3 A # x m b N N B 5 > . e %.g < L R t.p.f.b.(.6XI.G.(._.F.D.D.2XGX%XH.g.a.p.R R W t i     6 G P P P P P B @ n.N UXUXUXUX",
"UXUXUXUX8 S 1 c B I I G G b l %   u -.j K Y R p.d.f.>XD.A.D.D.F.cXA.A.D.7XKX'.f.s./ R W H ;.6.  4 I T U E T P P x S B b UXUXUXUX",
"UXUXUXUX4 z x.x I I I I Q N b 3 X : 2.j w & 8 E p.f.'.b.f.f.A.A.KXA.A.f.'.F.W ~ ( G 9 % , p :.X m P T E T T T P o Z.B x UXUXUXUX",
"UXUXUXUX@ 8 2X> D G Q I Q G N 8 > = -.j v.v.b.v P p.d.s.p.f.f.A.G.A.d.d.(.A.K D , F F M f p =.1 B P T T U P W P o ].B * UXUXUXUX",
"UXUXUXUXUX4 N.o N G G I I G B x 1 = ;.u d.d.b.l L p.d.p./ p.p.f.I.f.p.p.(.A.W D e R K L 0 p =.4 m P P T T P P L @ [.N UXUXUXUXUX",
"UXUXUXUXUX5 V + l B I I G G N 6 > = :.d p.d.f.7 L p.t.R R p.p.d.S.p./ R F.A.L F e p.W K 0 p =.7 m I P P P L L 3 @ A n UXUXUXUXUX",
"UXUXUXUXUX, 5 3X@ m B I G N B l % = :.d f.d.b.5 L W P L W R R R S.R R R A.A.L F 9 P.R W n a +.7 m D I L I I L . ].B 8 UXUXUXUXUX",
"UXUXUXUXUXUX3 y.. l B B N B N l % = @.q d.v.v.9 W K L F L K K R d.R K K R f.F M 9 CXp.R U a @.7 c D L I L m M @ ^.l UXUXUXUXUXUX",
"UXUXUXUXUXUX> 3 +X+ B b B N c 5 X = h 0 v.b.n.2 M M M M M L F K R K F F M F v z v eXB./  .a a < v m m D D A . E A l UXUXUXUXUXUX",
"UXUXUXUXUXUX+ < y.+ 5 c c c l <   = h u j ] ] | Y.OXZXZX7 V v F K F 6 6 DXHXnXnXVXe LXVXt h p aX3 c M F F M X ^.5 > UXUXUXUXUXUX",
"UXUXUXUXUXUXUX& 3 ].X z z 5 3 @ 7.3.t g a a p p p y t 9 cX!.7 z v 7  .| = u p p u u p g g t NX,.NX1 c c V + /.V 5 UXUXUXUXUXUXUX",
"UXUXUXUXUXUXUXUX@ A P @ 3 1 $ 7.9.rX9.O - r - - t y y y u i.AX7 7 nX& p o.y - - t u y t - aXBXNX#.NX1 v 7 @ y.z UXUXUXUXUXUXUXUX",
"UXUXUXUXUXUXUXUXX > Y % + o -.e.uXr.i ..              = u p b qXLX= O.t                 g s pXBXaX2.aX1 + ].z UXUXUXUXUXUXUXUXUX",
"UXUXUXUXUXUXUXUXUXUXUXN.* %.q.uXe.i o.    o 2 $ > # o     u g w t O.*   # < < 8 < % +     o.a 0.BXw.9.aXR.UXUXUXUXUXUXUXUXUXUXUX",
"UXUXUXUXUXUXUXUXUXUXUXj @.;.uXw.i ..    $ 4 4 l l 5 3 >     u g &.    2 8 n n b n 6 4 < X . %.a 0.BXyXr.aXUXUXUXUXUXUXUXUXUXUXUX",
"UXUXUXUXUXUXUXUXUXUXUXO.+.w.w.a a O   % 8 x x b b b x 4 >   w * o # # x N N N N b n v 6 < .   %.p 7.BX0.8.aXUXUXUXUXUXUXUXUXUXUX",
"UXUXUXUXUXUXUXUXUXyX#.0.w.uXs a O O % 4 x n B b B b n x 3   Z Z e e 8 N N N N N H b v l 6 <     *.p 4.BX0.>.NXUXUXUXUXUXUXUXUXUX",
"UXUXUXUXUXUXUXUXpX#.uX0.w.a ..O   # < 6 x b b b b b b x 5 . 0 ! 0 w l b N N N N N b c l z 3 @ .   #.s +.SX5.>.NXUXUXUXUXUXUXUXUX",
"UXUXUXUXUXUXUX0.#.w.0.w.p a = +   o < 4 l n x b b c c l 4 . C ! 0 0 5 B B N N b b n l 6 3 > . /.  UX@.p :.DX5.;.e.UXUXUXUXUXUXUX",
"UXUXUXUXUXUXUXy 8.8.w.i a UXUXo d.m # < 4 6 x x c x n x 5 . q ! 0 C 4 b b B b n v 6 6 7 . @ /.1 , UXUXo.g :.MXe.p UXUXUXUXUXUXUX",
"UXUXUXUXUXUXUXy u 0.i p UXUXUXUX# V ^.o & 4 4 l l l l l 5 . 0 ! 0 C 3 l x x n x 6 7 $ . /.A 1 , UXUXUXUXa o.s i a UXUXUXUXUXUXUX",
"UXUXUXUXUXUXUXUXy p p UXUXUXUXUXo # $ y.l.o > 4 5 5 l 5 3 . q Z 8 C < l l 5 5 3 > . i.v.S $ 2 UXUXUXUXUXUXa a a UXUXUXUXUXUXUXUX",
"UXUXUXUXUXUXUXUXUXUXUXUXUXUXUXUXUXUX# # 1 N.P.* O & 2 3 3 . 0 Z w C > 3 < @ . . M.v.V @ & . UXUXUXUXUXUXUXUXUXUXUXUXUXUXUXUXUXUX",
"UXUXUXUXUXUXUXUXUXUXUXUXUXUXUXUXUXUXUXUX@ # $ M Z./.1 o O . q Z 4 C O   @ L.v.Y 7 # & @ UXUXUXUXUXUXUXUXUXUXUXUXUXUXUXUXUXUXUXUX",
"UXUXUXUXUXUXUXUXUXUXUXUXUXUXUXUXUXUXUXUXUXUXo # # & 1 V y.@ q C < C u.A V 3 @ # & X UXUXUXUXUXUXUXUXUXUXUXUXUXUXUXUXUXUXUXUXUXUX",
"UXUXUXUXUXUXUXUXUXUXUXUXUXUXUXUXUXUXUXUXUXUXUXUXUXo & # #   C Z 8 d . & & @ . UXUXUXUXUXUXUXUXUXUXUXUXUXUXUXUXUXUXUXUXUXUXUXUXUX",
"UXUXUXUXUXUXUXUXUXUXUXUXUXUXUXUXUXUXUXUXUXUXUXUXUXUXUXUX.   w w 0 w   UXUXUXUXUXUXUXUXUXUXUXUXUXUXUXUXUXUXUXUXUXUXUXUXUXUXUXUXUX",
"UXUXUXUXUXUXUXUXUXUXUXUXUXUXUXUXUXUXUXUXUXUXUXUXUXUXUXUXUXUXUXUXUXUXUXUXUXUXUXUXUXUXUXUXUXUXUXUXUXUXUXUXUXUXUXUXUXUXUXUXUXUXUXUX",
"UXUXUXUXUXUXUXUXUXUXUXUXUXUXUXUXUXUXUXUXUXUXUXUXUXUXUXUXUXUXUXUXUXUXUXUXUXUXUXUXUXUXUXUXUXUXUXUXUXUXUXUXUXUXUXUXUXUXUXUXUXUXUXUX"
};
