/* XPM */
static char *result[] = {
/* columns rows colors chars-per-pixel */
"64 64 252 2 ",
"   c #020100",
".  c #0B0200",
"X  c #0F0A02",
"o  c #130301",
"O  c #1C0401",
"+  c #140A03",
"@  c #1B0A02",
"#  c #1C1206",
"$  c #240400",
"%  c #2A0601",
"&  c #230B02",
"*  c #2C0C02",
"=  c #330C01",
"-  c #3A0C01",
";  c #380500",
":  c #231304",
">  c #2C1303",
",  c #2C1905",
"<  c #281409",
"1  c #341303",
"2  c #3B1403",
"3  c #341A05",
"4  c #3C1B05",
"5  c #341A0A",
"6  c #381909",
"7  c #2F1C12",
"8  c #3B260A",
"9  c #392A1E",
"0  c #1C211D",
"q  c #430C00",
"w  c #4C0E02",
"e  c #550F01",
"r  c #431402",
"t  c #4B1501",
"y  c #431C04",
"u  c #4B1B03",
"i  c #451E09",
"p  c #521D02",
"a  c #581702",
"s  c #431B14",
"d  c #661803",
"f  c #442105",
"g  c #4B2205",
"h  c #44240A",
"j  c #4C2409",
"k  c #4B2A0C",
"l  c #532305",
"z  c #5B2202",
"x  c #542B06",
"c  c #5B2B05",
"v  c #552B0A",
"b  c #5B2D0A",
"n  c #55270B",
"m  c #4E350C",
"M  c #5C310B",
"N  c #583208",
"B  c #4A2B12",
"V  c #572C11",
"C  c #483312",
"Z  c #5C3513",
"A  c #5A3915",
"S  c #622502",
"D  c #632B04",
"F  c #6B2C03",
"G  c #622D0A",
"H  c #682607",
"J  c #742803",
"K  c #643205",
"L  c #6C3304",
"P  c #6C3A05",
"I  c #63340A",
"U  c #6C350B",
"Y  c #64390C",
"T  c #6B3A0B",
"R  c #743403",
"E  c #733C04",
"W  c #7C3C04",
"Q  c #733D0D",
"!  c #773808",
"~  c #653A14",
"^  c #6A3D14",
"/  c #673915",
"(  c #733E12",
")  c #7B3E11",
"_  c #583A22",
"`  c #74420B",
"'  c #7C430B",
"]  c #7C4707",
"[  c #6E431B",
"{  c #6C4415",
"}  c #744314",
"|  c #7A4413",
" . c #7E4A15",
".. c #73431A",
"X. c #7C4B1A",
"o. c #78471A",
"O. c #724B10",
"+. c #58462A",
"@. c #6B4723",
"#. c #764A23",
"$. c #7B5625",
"%. c #684E37",
"&. c #5C4019",
"*. c #7B7048",
"=. c #863B03",
"-. c #822701",
";. c #B33B08",
":. c #824505",
">. c #8C4C0C",
",. c #874907",
"<. c #994D02",
"1. c #954907",
"2. c #8C530A",
"3. c #93530B",
"4. c #995608",
"5. c #834D1A",
"6. c #864A14",
"7. c #8C5415",
"8. c #865419",
"9. c #9A5D14",
"0. c #935B1B",
"q. c #955815",
"w. c #9C4C18",
"e. c #A14E0A",
"r. c #A85A08",
"t. c #A45B13",
"y. c #B15F0B",
"u. c #996516",
"i. c #A9640A",
"p. c #B5680A",
"a. c #A76716",
"s. c #B56D18",
"d. c #B97717",
"f. c #B17208",
"g. c #845322",
"h. c #8D5C22",
"j. c #855C2D",
"k. c #895927",
"l. c #955C23",
"z. c #885D33",
"x. c #996728",
"c. c #8B6333",
"v. c #986937",
"b. c #99753B",
"n. c #856B29",
"m. c #A66A27",
"M. c #A9762A",
"N. c #B87928",
"B. c #A56F33",
"V. c #AB7735",
"C. c #B67C37",
"Z. c #B26E27",
"A. c #C87A16",
"S. c #CB720D",
"D. c #C27C3A",
"F. c #C17228",
"G. c #F27A1F",
"H. c #85694C",
"J. c #91764A",
"K. c #977D5B",
"L. c #B98436",
"P. c #B5812E",
"I. c #CA841C",
"U. c #D68816",
"Y. c #D7820B",
"T. c #E39519",
"R. c #EE8D11",
"E. c #F8B217",
"W. c #C88727",
"Q. c #D58D2B",
"!. c #C48936",
"~. c #D38B38",
"^. c #C99233",
"/. c #D8993A",
"(. c #D79722",
"). c #E89E27",
"_. c #E79838",
"`. c #F2953A",
"'. c #E5A737",
"]. c #FBBB37",
"[. c #F2AF2C",
"{. c #FCC833",
"}. c #BB8743",
"|. c #BB964C",
" X c #AE8955",
".X c #AE9567",
"XX c #C68D48",
"oX c #C89547",
"OX c #D39C4C",
"+X c #D79841",
"@X c #C79858",
"#X c #D18E54",
"$X c #D9A547",
"%X c #DAA655",
"&X c #D5AB50",
"*X c #E2A648",
"=X c #E7B343",
"-X c #F2B444",
";X c #E5A956",
":X c #EDB75B",
">X c #F8B459",
",X c #C59668",
"<X c #D7A962",
"1X c #D8B86D",
"2X c #D3B078",
"3X c #E3AB62",
"4X c #E6B766",
"5X c #E6BA76",
"6X c #F2BE67",
"7X c #E59D66",
"8X c #FAC455",
"9X c #FFD757",
"0X c #FDD04B",
"qX c #F8C668",
"wX c #FBD778",
"eX c #F2C970",
"rX c #FFE37E",
"tX c #AFA789",
"yX c #C8AA89",
"uX c #E3BC89",
"iX c #C8B4A1",
"pX c #DBC493",
"aX c #E9C989",
"sX c #FAD989",
"dX c #E7C69A",
"fX c #F9D997",
"gX c #F2C987",
"hX c #FFE585",
"jX c #FFE797",
"kX c #D9CBAD",
"lX c #E9C8A8",
"zX c #EAD8A6",
"xX c #F4DDB3",
"cX c #F0DAAD",
"vX c #FAE4A8",
"bX c #FFF3AA",
"nX c #FAE8B8",
"mX c #FDF8B8",
"MX c #F9E9C5",
"NX c #FEF4CC",
"BX c #FFFAC8",
"VX c #F8EBD8",
"CX c #FEF3D4",
"ZX c #FCF3DC",
"AX c #FCF8DB",
"SX c #FFFCE5",
"DX c #FFFDEB",
"FX c #FAF4E7",
"GX c #FEFEFD",
"HX c #FFFEF3",
"JX c #EEEDEA",
"KX c None",
/* pixels */
"KXKXKXKXKXKXKXKXKXKXKXKXKXKXKXKXKXKXKXKXKXKXKXKXKXKXKXKXKXKXKXKXKXKXKXKXKXKXKXKXKXKXKXKXKXKXKXKXKXKXKXKXKXKXKXKXKXKXKXKXKXKXKXKX",
"KXKXKXKXKXKXKXKXKXKXKXKXKXKXKXKXKXKXKXKXKXKXKXKXKXKXKXKXKXKXKXKXKXKXKXKXKXKXKXKXKXKXKXKXKXKXKXKXKXKXKXKXKXKXKXKXKXKXKXKXKXKXKXKX",
"KXKXKXKXKXKXKXKXKXKXKXKXKXKXKXKXKXKXKXKXKXKXKXKXKXKXKXKXKXKXKXKXKXKXKXKXKXKXKXKXKXKXKXKXKXKXKXKXKXKXKXKXKXKXKXKXKXKXKXKXKXKXKXKX",
"KXKXKXKXKXKXKXKXKXKXKXKXKXKXKXKXKXKXKXKXKXKXKXKXKXKXKXKXKXKXKXKXKXKXKXKXKXKXKXKXKXKXKXKXKXKXKXKXKXKXKXKXKXKXKXKXKXKXKXKXKXKXKXKX",
"KXKXKXKXKXKXKXKXKXKXKXKXKXKXKXKXKXKXKXKXKXKXKXKXKXKXKXKXHXaX2XSXCXD.MXKXKXKXKXKXKXKXKXKXKXKXKXKXKXKXKXKXKXKXKXKXKXKXKXKXKXKXKXKX",
"KXKXKXKXKXKXKXKXKXKXKXKXKXKXKXKXKXKXKXKXKXKXKXKXKXNXD.,XDX/.4XR $XNXGXlX7XxXKXKXKXKXKXKXKXKXKXKXKXKXKXKXKXKXKXKXKXKXKXKXKXKXKXKX",
"KXKXKXKXKXKXKXKXKXKXKXKXKXKXKXKXKXKXKXKXKXKXDXXXD.GXSX:XqXhX& GXMX'.fXFXGXGXF.MXKXKXKXKXKXKXKXKXKXKXKXKXKXKXKXKXKXKXKXKXKXKXKXKX",
"KXKXKXKXKXKXKXKXKXKXKXKXKXKXKXKXKXKXKXAXCXw.SXGXuX%X%XOX3X8X@ SX$.] !.6X5XgXGXGXGX~.MXKXKXKXKXKXKXKXKXKXKXKXKXKXKXKXKXKXKXKXKXKX",
"KXKXKXKXKXKXKXKXKXKXKXKXKXKXKXKXKXHX6.NXwX>XCX%X%XOXoXoXOX../.f X./.wX4X4X4X;X6XSXGXGXlX>XZXKXKXKXKXKXKXKXKXKXKXKXKXKXKXKXKXKXKX",
"KXKXKXKXKXKXKXKXKXKXKXKXKXKXGXFX;.CX>X+XX.GX# %XXX!.!.!.V.V h n o.m.6X;X;XOX+X*Xd D.-XVXGXGXG.ZXBXKXKXKXKXKXKXKXKXKXKXKXKXKXKXKX",
"KXKXKXKXKXKXKXKXKXKXKXKXKX#X~.mX6X+XD.B.%.FX+.jXW.!.. H *   . . . O 1 r u +X~.6XvXU GX+XOXuXGXGX#XNXKXKXKXKXKXKXKXKXKXKXKXKXKXKX",
"KXKXKXKXKXKXKXKXKXKXKXKX1.CX`.;XZXN.m.l.j.6 Z.h.o G . o e a     r q o o $ 2 * V.sXHXy.Q.~.+X<XaXGXDX5XKXKXKXKXKXKXKXKXKXKXKXKXKX",
"KXKXKXKXKXKXKXKXKXKXKX<X% S.ZXMXdXm.0.5.o.u .   @ e H                 - t o o V g 6 1 Q.W.W.%X2X$XkX>.KXKXKXKXKXKXKXKXKXKXKXKXKX",
"KXKXKXKXKXKXKXKXKXKXKXT uX1.SXo..X6.} = . $ e d O           A bX            d O @ O a.& O s.hXpX{ =.FXB.KXKXKXKXKXKXKXKXKXKXKXKX",
"KXKXKXKXKXKXKXKXKXKXKXv v.R.+.zXU u . % e n         @ = L + 2.E jX4 y >         O w . O t.. b 5X$Xr ZXm.KXKXKXKXKXKXKXKXKXKXKXKX",
"KXKXKXKXKXKXKXKXKXKXx.@.h.z.A.F q.o ; 1       . = u 2 >.I &.I /.9.NXT G l & .       . ; o O 4 2 f <XXX0.KXKXKXKXKXKXKXKXKXKXKXKX",
"KXKXKXKXKXKXKXKXKXKXu.x.g.5.5.6.. ;       > r p S S >.9.u yXT wX] 1XG ) ( G l $ 3       = . % L.L.C.}.CXx.KXKXKXKXKXKXKXKXKXKXKX",
"KXKXKXKXKXKXKXKXKXKXl k.g.5.5.#.o     v *X-.D R R F f.,.V.fXE sX7.A.SXl.5. .| U R BX@X    r   =.C.L.}.@Xx.KXKXKXKXKXKXKXKXKXKXKX",
"KXKXKXKXKXKXKXKXKXM.z.g.5.5. .O <   . h V.vX X8X1.W d.:. XeX) wXT I.NXzXV.l.x.bX;Xr.v >     % O l.V.L.}.g.c.KXKXKXKXKXKXKXKXKXKX",
"KXKXKXKXKXKXKXKXKXu.k.5.5. . ..     O m.  hXJ SXx /.t.FXVXfX] 8X) i.I.HXm.nXgX3X(.o q.. 6       e.V.C.}.@Xl.KXKXKXKXKXKXKXKXKXKX",
"KXKXKXKXKXKXKXKXKXb h.{  .| . =   2 O W.4 . ;XA.~ NXd.<XFXMX!.'.W sXW.AXfX*Xa.W.+ 9.N.o 4 >   F + B.V.M.6.x.KXKXKXKXKXKXKXKXKXKX",
"KXKXKXKXKXKXKXKXC.h.tXJX' ` .   2 1 % /.OX3 + = 1.S VXy.q.AXqXW.E sXNX=.I.I.$ j m N.+X4 y 2       4.B.GXJX:.j.KXKXKXKXKXKXKXKXKX",
"KXKXKXKXKXKXKXKX3.' 8 VX .M =   t = $ g B. .h + * =.S nXp.L.eXd.L d.U A.Q.< m.7.v.N.5.] u 2 >   J I 0.MXm ` X.KXKXKXKXKXKXKXKXKX",
"KXKXKXKXKXKXKXKXx 5 ) c `   . H t > r o <XoXo.C + 2 =.MX<.W.x.W.9.P.~.y.@ m.Z.9.^ /.1 a.u 2 2   .   7.V > z.O.KXKXKXKXKXKXKXKXKX",
"KXKXKXKXKXKXKXf._ ..[ ^ K .   r r 1 2 o !.5Xm.' , # ).! MX2.T /.s.} ).* k Z.m.r.0.*XG a.` y 2 .   J 8.j.v.J.,X[ KXKXKXKXKXKXKXKX",
"KXKXKXKXKXKXKXI.@.( [ ^ T   O * r r * t Y { ~.C.k.: + <.nX3.W.2.!.Q ].: B.) _.N.OXW.a.a.^.r y 6   . + k.j.c.lX| KXKXKXKXKXKXKXKX",
"KXKXKXKXKXKXKXB [ [ ^ /     = =   u & a > h./.sXbXa.1 oXN.A.I.g i /.' m.^ *X>X/.wX:.s.9Xn S u 2     d j.j.z.J.' KXKXKXKXKXKXKXKX",
"KXKXKXKXKXKXd.@.[ [ [ v     2 - = r R {.r 2X} hXS x v.+ 9.0X` 6.z Y.2 K qXJ H hXgXjXsX<.1.L p y .   = 8 j.z.c.lX^ KXKXKXKXKXKXKX",
"KXKXKXKXKXKX~ #.^ ^ ^ 3   . - K ,.{.e =X].>.mXl <Xh.= eX= '.AXSXSX;X4X~.J fXvX2 T.).A.!.bX'.D g 1     d n.c.v.2X' KXKXKXKXKXKXKX",
"KXKXKXKXKXXXo.o.....Y     O 4.E.w {.p.$ % r G z sXG mX* nXxXa ^.c DXe dXNXD.[.e.  o - 8X'.e.wX$X6     F $.j.v.v.6.KXKXKXKXKXKXKX",
"KXKXKXKXKX` g.MXDX} Y     <.@ E.; o O $ p I T ( g a.| >Xv.qXvXhX<.9.ZXU.].o   g.] W >.. o {.(.T e.o     g b.v.B.CXU KXKXKXKXKXKX",
"KXKXKXKXKXZ cX6.L.g.I     o 6 2 * . $ [ xXcX@XP K f 1 ` 6.CX  0 f 2.vXO = R.y.i.i.3.y x T u O &         |.#.u xXh.=.KXKXKXKXKXKX",
"KXKXKXKXKXh p  .x.I x.      H H A.k.k.g.| Q P I Y o.@ 0.' bX.   2 i.uXa z u u F s.I.A.s.| ` ).$ O     3 }.tX8 m ] ` KXKXKXKXKXKX",
"KXKXKXKXKXj J.u.L.h i .   $     H <.W.>.>.] N H. X+XG G P  .P.M.:Xb.4X9X{.d [.& >.I.(  .wX:.O 1 2     N.sXkXn.m g k KXKXKXKXKXKX",
"KXKXKXKXKXy , |.^.&...2   % - - $ @ = J jXGXH.s.3.G N.2 > n u.$X, '.W.%.1 0XR.).{.M.~ y * r u y 1     u.x vXg wX8 + KXKXKXKXKXKX",
"KXKXKXKXKX> l ^ } ` ( XX  O q t = G R # % & 7.W '.6.@ + a.2 a.T J g o . ;XaXs 0X8 8 & r.a.u u y $     | X.o.h h 3 KXKXKXKXKXKXKX",
"KXKXKXKXKXKX$ I I Q Q  X.   r u 1 u r.v & G > & * * ,  .a r .   T.q.+ $.@ @ '.@.m 8 x 5 f.p.P 1 .   M.X.o.o.} : . KXKXKXKXKXKXKX",
"KXKXKXKXKXKX5 b U Q Q T a.  r - F F . D # :.4 4 %.FXkXW.( m., 2 . = 4.5XZ.+ < H A C f.4 2 4.u -     7.o...} ~ :   KXKXKXKXKXKXKX",
"KXKXKXKXKXKXKX& U Q T ! v.  $ q o o . > K 3 3 n x 3 < :.& + h.q.X _.Y.C + ` 8 # e.m : <.:.3 2 =     ] } { { h 8 KXKXKXKXKXKXKXKX",
"KXKXKXKXKXKXKX* I T K ,Xl.@   q = o 1 < <.5 v y 3 A H A.~ y y s.N + :.4 # fX4 , + R m ] D > 2 .   u.` NXM { ,   KXKXKXKXKXKXKXKX",
"KXKXKXKXKXKXKX. G G H.nX( OX  . - o y 6 :.4 , & 8 & =.W k W.. ~.>.+ i.4.m.K.# 3 , P u.N < - =     ,.Y H.m B 8   KXKXKXKXKXKXKXKX",
"KXKXKXKXKXKXKXKX= L +.+.u m..   - % > 1.1 & # { a =.9.W   d.  ~ + g @ p.c D =XO.8 # N , $ =   . b.` { I =Xh + KXKXKXKXKXKXKXKXKX",
"KXKXKXKXKXKXKXKX5 n / k V ( XX  o ; * ,.* , E.R =.U . ,.. ' 2 3 @ j x   + >.c [.u.: ,., = =     u.8.@.1 ^ 6   KXKXKXKXKXKXKXKXKX",
"KXKXKXKXKXKXKXKXKX=  .| | | @X    ; = p K 3.=.1.    . >.@ ` 2.f + x g # +   7.] k {.c N %     k o.o. .6.j.3 KXKXKXKXKXKXKXKXKXKX",
"KXKXKXKXKXKXKXKXKXn 3 | | ) ) @.  o . 1.R =..   O S t . q.:.` ` . x 4 P r o     T.` [.P &     L... . . .> . KXKXKXKXKXKXKXKXKXKX",
"KXKXKXKXKXKXKXKXKX. = | ( ( ) V.      S u   . q   a t y a.P > ,.  E o K r F % *     ,.& @   h ^ { }  .h.3   KXKXKXKXKXKXKXKXKXKX",
"KXKXKXKXKXKXKXKXKXKXa o.( ( 6.:.5X      % w e w q   W u . g + 2.. K W z p O = = 2 r       . 0.( } } o.y < KXKXKXKXKXKXKXKXKXKXKX",
"KXKXKXKXKXKXKXKXKXKX2 @ ( Q Q J.{ 6X&       o e e O   J & * @ 2.@ . u $ o - q $         . ;XU ` ` ` 6.1   KXKXKXKXKXKXKXKXKXKXKX",
"KXKXKXKXKXKXKXKXKXKX. d ../ 1XO  Xj jX7 XX.       O o   = . & 2.5 u . . O         & * 5XwXG NXA 2XT X.8   KXKXKXKXKXKXKXKXKXKXKX",
"KXKXKXKXKXKXKXKXKXKXKXH < 4 # @.{ B I v.NX9 _.@             J . q           % F.r vXjXG U c , J.#.P.: . KXKXKXKXKXKXKXKXKXKXKXKX",
"KXKXKXKXKXKXKXKXKXKXKX. t 3  X$.4X5 Y U / a CXGXe.`.          o         t.i zXbXv ~ ^ / / n 8 j.[ 4 y   KXKXKXKXKXKXKXKXKXKXKXKX",
"KXKXKXKXKXKXKXKXKXKXKXKX$ 1 X pX. ~ ^ ^ I ^ Y I S GXnXS.x.        < k.yXAXZ b 8.8.../ / Z V 6 bX4 3 . KXKXKXKXKXKXKXKXKXKXKXKXKX",
"KXKXKXKXKXKXKXKXKXKXKXKXKX& a G v b ~ ~ ~ ~ ~ M T L K M GXiX5XlXVXSX/ G G b W z V.|.[ A V B h f j . KXKXKXKXKXKXKXKXKXKXKXKXKXKX",
"KXKXKXKXKXKXKXKXKXKXKXKXKXKXKXKX. f f y f Z M .X_ JXT P K l fX=XG U I G b v *.nXM.o.A 4 2 k o     KXKXKXKXKXKXKXKXKXKXKXKXKXKXKX",
"KXKXKXKXKXKXKXKXKXKXKXKXKXKXKXKXKXKX    2 4 4 y SXj I I I 2 g 2Xg I G M b v b.aX2 6 y @       KXKXKXKXKXKXKXKXKXKXKXKXKXKXKXKXKX",
"KXKXKXKXKXKXKXKXKXKXKXKXKXKXKXKXKXKXKXKX    . h g l x N N > M |.|.b b b x 1 * 4 <       X KXKXKXKXKXKXKXKXKXKXKXKXKXKXKXKXKXKXKX",
"KXKXKXKXKXKXKXKXKXKXKXKXKXKXKXKXKXKXKXKXKXKXKX    o f y y i vX2XZ M < * r &         KXKXKXKXKXKXKXKXKXKXKXKXKXKXKXKXKXKXKXKXKXKX",
"KXKXKXKXKXKXKXKXKXKXKXKXKXKXKXKXKXKXKXKXKXKXKXKXKXKX    o h i 4 4 g @       KXKXKXKXKXKXKXKXKXKXKXKXKXKXKXKXKXKXKXKXKXKXKXKXKXKX",
"KXKXKXKXKXKXKXKXKXKXKXKXKXKXKXKXKXKXKXKXKXKXKXKXKXKXKXKXKX            KXKXKXKXKXKXKXKXKXKXKXKXKXKXKXKXKXKXKXKXKXKXKXKXKXKXKXKXKX",
"KXKXKXKXKXKXKXKXKXKXKXKXKXKXKXKXKXKXKXKXKXKXKXKXKXKXKXKXKXKXKXKXKXKXKXKXKXKXKXKXKXKXKXKXKXKXKXKXKXKXKXKXKXKXKXKXKXKXKXKXKXKXKXKX",
"KXKXKXKXKXKXKXKXKXKXKXKXKXKXKXKXKXKXKXKXKXKXKXKXKXKXKXKXKXKXKXKXKXKXKXKXKXKXKXKXKXKXKXKXKXKXKXKXKXKXKXKXKXKXKXKXKXKXKXKXKXKXKXKX",
"KXKXKXKXKXKXKXKXKXKXKXKXKXKXKXKXKXKXKXKXKXKXKXKXKXKXKXKXKXKXKXKXKXKXKXKXKXKXKXKXKXKXKXKXKXKXKXKXKXKXKXKXKXKXKXKXKXKXKXKXKXKXKXKX",
"KXKXKXKXKXKXKXKXKXKXKXKXKXKXKXKXKXKXKXKXKXKXKXKXKXKXKXKXKXKXKXKXKXKXKXKXKXKXKXKXKXKXKXKXKXKXKXKXKXKXKXKXKXKXKXKXKXKXKXKXKXKXKXKX",
"KXKXKXKXKXKXKXKXKXKXKXKXKXKXKXKXKXKXKXKXKXKXKXKXKXKXKXKXKXKXKXKXKXKXKXKXKXKXKXKXKXKXKXKXKXKXKXKXKXKXKXKXKXKXKXKXKXKXKXKXKXKXKXKX"
};
